<svg width="24" height="24" viewBox="0 0 24 24" fill="none" xmlns="http://www.w3.org/2000/svg">
<path d="M12.0012 23.9975C18.6279 23.9975 23.9999 18.6255 23.9999 11.9987C23.9999 5.37202 18.6279 0 12.0012 0C5.37446 0 0.00244141 5.37202 0.00244141 11.9987C0.00244141 18.6255 5.37446 23.9975 12.0012 23.9975Z" fill="#DCF4FF"/>
<mask id="mask0_23_18851" style="mask-type:luminance" maskUnits="userSpaceOnUse" x="0" y="0" width="24" height="24">
<path d="M11.9988 24C18.6256 24 23.9976 18.628 23.9976 12.0012C23.9976 5.37444 18.6256 0.00238037 11.9988 0.00238037C5.37205 0.00238037 0 5.37444 0 12.0012C0 18.628 5.37205 24 11.9988 24Z" fill="white"/>
</mask>
<g mask="url(#mask0_23_18851)">
<path d="M3.52439 20.2737C3.43737 20.426 3.41561 20.5347 3.26333 20.6653C3.15456 20.7523 2.95877 20.774 2.89351 20.9046C2.82824 21.0568 2.98052 21.1656 2.93701 21.2961C2.8935 21.4049 2.74122 21.5354 2.76298 21.666C2.80649 21.9053 3.04579 22.3839 3.30684 21.927C3.48088 21.6007 3.63316 21.1439 3.63316 20.7523C3.65491 20.7523 3.67667 20.774 3.72018 20.774C3.69842 20.6435 3.67667 20.2954 3.52439 20.2737C3.67667 20.2737 3.50263 20.2954 3.52439 20.2737Z" fill="#90C6DE"/>
<path d="M7.54889 17.7067C7.54889 17.8807 7.74468 17.8589 7.78819 17.7284C7.87521 17.5544 7.67941 17.4673 7.61415 17.3368C7.61415 17.4673 7.54889 17.5761 7.54889 17.7067Z" fill="#176C93"/>
<path d="M10.9644 19.3165C10.9644 19.0554 11.0079 19.0554 10.8339 18.8379C10.7903 18.7944 10.6598 18.5768 10.6598 18.5551C10.6598 18.4028 10.0942 18.2505 10.0507 18.0982C9.94192 17.8807 9.78964 17.9459 9.6156 17.8807C9.63736 18.0547 9.81139 18.033 9.8549 18.1417C9.89841 18.2287 10.1377 18.5986 10.203 18.5986C10.3117 18.6203 10.4205 18.9684 10.5075 19.0554C10.5075 19.0772 10.9644 19.5123 10.9644 19.3165Z" fill="#176C93"/>
<path d="M11.3994 18.5115C11.3994 18.6203 11.5299 18.6856 11.5299 18.7508C11.6605 18.9466 11.5299 18.9466 11.791 18.9901C11.8345 19.1642 11.9215 18.9901 12.052 19.0554C12.2043 19.1424 12.2696 19.2294 12.3784 19.0119C12.4219 18.9031 12.4654 18.7944 12.5089 18.6638C12.5306 18.5986 12.5524 18.5551 12.5742 18.5115C12.6177 18.4898 12.7047 18.5333 12.7264 18.4463C12.5524 18.4463 12.5524 18.1417 12.5306 18.0765C12.5524 18.0329 12.7482 17.9894 12.7482 17.9242C12.7482 17.8589 12.6177 17.8589 12.5742 17.8372C12.5089 17.7936 12.5524 17.5761 12.4219 17.7066C12.3566 17.7719 12.3131 17.8589 12.2696 17.9242C12.2478 17.9677 12.0956 17.9894 12.052 18.0329C11.965 18.12 11.8345 18.1635 11.7692 18.2505C11.7257 18.294 11.7257 18.381 11.6605 18.4245C11.5952 18.468 11.3994 18.4245 11.3994 18.5115Z" fill="#176C93"/>
<path d="M13.031 18.555C13.2486 18.555 13.4444 18.6203 13.5314 18.381C13.2921 18.4463 13.3356 18.4898 13.0745 18.4463C12.8135 18.4028 12.8135 18.6856 12.7482 18.8596C12.7047 18.9466 12.6612 19.0554 12.7917 19.0772C12.7917 19.1424 12.7482 19.2947 12.8135 19.3382C12.9005 19.4252 12.944 19.2294 12.944 19.1642C12.944 19.0119 12.857 19.0119 13.0093 18.9466C12.9658 19.0772 13.031 19.2512 13.1398 19.1859C13.3138 19.0989 13.0528 18.9684 13.0528 18.8161C13.1398 18.8161 13.2703 18.7073 13.2921 18.6421C13.2268 18.6421 13.031 18.7073 13.031 18.7073C12.9223 18.8596 12.7482 18.555 13.031 18.555Z" fill="#176C93"/>
<path d="M12.1392 19.7298C12.2044 19.7298 12.248 19.7951 12.2915 19.708C12.1827 19.6645 11.9651 19.6428 11.8781 19.5558C11.8999 19.5775 12.0522 19.5558 12.0522 19.534C12.0087 19.534 11.9216 19.5558 11.8781 19.5558C11.8346 19.5558 11.7911 19.534 11.7476 19.4905C11.6388 19.4252 11.6388 19.534 11.5301 19.534C11.3995 19.534 11.0515 19.2294 10.9427 19.4905C11.0515 19.4905 11.0732 19.621 11.182 19.621C11.269 19.621 11.5301 19.621 11.5953 19.6863C11.6823 19.7733 12.1174 19.7298 12.1392 19.7298Z" fill="#176C93"/>
<path d="M13.1181 19.7951C13.1834 19.7951 13.2269 19.7516 13.2486 19.7081C13.1834 19.7298 12.857 19.7298 12.857 19.7516C12.8353 19.8168 13.0746 19.7951 13.1181 19.7951Z" fill="#176C93"/>
<path d="M12.6179 19.7081C12.6179 19.8168 12.4438 19.6428 12.4438 19.7733C12.4438 19.8168 12.6831 19.7733 12.7267 19.7733C12.6614 19.7298 12.7484 19.7081 12.6179 19.7081Z" fill="#176C93"/>
<path d="M12.8788 19.8386C12.8571 19.8386 12.7483 19.8168 12.7483 19.8604L12.9006 19.9691C12.9876 19.9039 12.8788 19.9691 12.8788 19.8386Z" fill="#176C93"/>
<path d="M12.3784 19.7081C12.3131 19.7951 12.4219 19.7951 12.4219 19.7298C12.4001 19.7298 12.4002 19.7298 12.3784 19.7081Z" fill="#90C6DE"/>
<path d="M13.5097 19.8604C13.5967 19.8604 13.7272 19.8386 13.7925 19.7516C13.662 19.6646 13.5097 19.8169 13.4009 19.8604C13.3574 19.8821 13.2486 20.0126 13.3574 20.0126C13.4227 19.9909 13.5097 19.8604 13.5097 19.8604Z" fill="#176C93"/>
<path d="M14.7933 19.4035C14.7933 19.3817 14.7933 19.36 14.7715 19.36C14.7498 19.36 14.6627 19.5558 14.728 19.5558C14.728 19.534 14.7933 19.4035 14.7933 19.4035Z" fill="#90C6DE"/>
<path d="M13.6403 19.0337C13.6403 19.0772 13.7055 19.1424 13.749 19.0989C13.8143 19.0119 13.6403 18.9901 13.6403 19.0337Z" fill="#90C6DE"/>
<path d="M13.8796 19.0337C13.9231 19.0337 14.2494 19.0772 14.2494 19.0989C14.2712 18.9684 13.8796 18.9684 13.8796 19.0337Z" fill="#90C6DE"/>
<path d="M13.8578 18.3158C13.7926 18.3593 13.8361 18.6856 13.9231 18.6856C13.8143 18.5551 13.9014 18.6421 13.8796 18.5768C13.9231 18.5768 13.9449 18.5768 13.9884 18.5768C13.9884 18.5116 13.9884 18.5116 13.9884 18.4463C13.9231 18.4245 13.8796 18.381 13.8578 18.3158C13.8796 18.381 13.8361 18.3375 13.8578 18.3158Z" fill="#90C6DE"/>
<path d="M16.6205 19.3382C16.6423 19.4035 16.7293 19.3818 16.7511 19.4253C16.9686 19.5123 17.1426 19.1425 17.0774 19.1425C17.0339 19.1642 17.0121 19.186 17.0121 19.2295C16.9686 19.3165 16.8598 19.2947 16.7946 19.3165C16.7293 19.3382 16.6858 19.3382 16.6205 19.3382Z" fill="#90C6DE"/>
<path d="M16.3813 19.3818C16.2507 19.3165 16.0985 19.1642 15.9897 19.0772C15.8809 18.9902 15.6851 19.0337 15.5764 18.9249C15.5546 18.9032 15.3371 18.8379 15.2718 18.8161C15.163 18.7726 14.989 18.9249 14.9237 19.0119C14.8149 19.1425 14.7062 18.8814 14.7062 18.7944C14.7062 18.6204 14.2493 18.6639 14.2493 18.7726C14.2493 18.9032 14.5757 18.9249 14.6409 18.9032C14.5974 18.9684 14.4669 18.9467 14.4016 18.9902C14.4234 19.0772 14.5539 19.2295 14.6192 19.0772C14.6627 19.1642 14.7714 19.2077 14.8802 19.2295C14.9672 19.2512 15.0325 19.273 15.1195 19.2947C15.2935 19.3818 15.1848 19.4905 15.3153 19.5993C14.989 19.7516 15.4676 19.6863 15.5111 19.7298C15.6199 19.7951 15.6634 19.8604 15.7939 19.8604C15.9244 19.8604 15.8809 19.7951 15.9462 19.7081C16.1202 19.4688 16.6206 20.1867 16.9034 19.9909C16.8381 19.9691 16.6206 19.8821 16.5771 19.8169C16.5553 19.7733 16.4248 19.6211 16.4248 19.5776C16.4465 19.3818 16.5771 19.4905 16.3813 19.3818C16.4248 19.4035 16.2725 19.3383 16.3813 19.3818Z" fill="#90C6DE"/>
<path d="M17.1427 19.0772C17.0992 19.0119 17.034 18.9684 16.9687 18.9466C16.9904 18.9901 17.208 19.2077 17.2297 19.2077C17.208 19.1424 17.208 19.1424 17.1427 19.0772C17.1862 19.1207 17.0992 19.0336 17.1427 19.0772Z" fill="#90C6DE"/>
<path d="M17.4471 19.3382C17.4471 19.36 17.5124 19.5123 17.5342 19.5123C17.6429 19.4905 17.4689 19.3382 17.4471 19.3382C17.4689 19.3382 17.4471 19.3817 17.4471 19.3382Z" fill="#90C6DE"/>
<path d="M18.3392 19.9473C18.3392 19.9908 18.361 20.0343 18.4045 20.0343C18.3827 19.9908 18.4045 19.9908 18.3392 19.9473C18.3827 19.9691 18.3392 19.9691 18.3392 19.9473Z" fill="#90C6DE"/>
<path d="M18.1434 19.8821C18.1434 19.9691 18.2521 19.9474 18.2957 19.9474C18.2521 19.8821 18.2086 19.8603 18.1434 19.8821C18.2086 19.8821 18.1434 19.9256 18.1434 19.8821Z" fill="#90C6DE"/>
<path d="M18.1652 19.6863C18.1652 19.7298 18.2522 19.8386 18.2957 19.8386C18.2739 19.7734 18.2304 19.7298 18.1652 19.6863Z" fill="#90C6DE"/>
<path d="M17.8823 19.5992C17.9041 19.6428 17.9693 19.708 18.0564 19.6863C18.0346 19.621 17.9258 19.5992 17.8823 19.5992Z" fill="#90C6DE"/>
<path d="M17.6647 19.4688C17.6864 19.4905 17.7082 19.5123 17.7734 19.534C17.7517 19.5123 17.7082 19.4905 17.6647 19.4688Z" fill="#90C6DE"/>
<path d="M15.0325 23.5586C15.076 23.6021 15.1413 23.5804 15.1848 23.5586C15.1196 23.5368 15.1196 23.5151 15.0325 23.5586Z" fill="#90C6DE"/>
<path d="M14.2929 20.1867C14.3147 20.1649 14.3582 20.1867 14.3365 20.1214C14.2712 20.1214 14.2059 20.1214 14.1624 20.1432C14.2059 20.1649 14.2494 20.1867 14.2929 20.1867Z" fill="#90C6DE"/>
<path d="M17.1427 21.9706C17.034 21.8618 16.8817 21.6443 16.7947 21.6225C16.6859 21.6007 16.7077 21.4267 16.6424 21.3614C16.5554 21.2744 16.3813 21.2527 16.3378 21.1221C16.2943 21.0134 16.2291 20.6218 16.142 20.5565C16.055 20.513 15.968 20.5348 15.9463 20.426C15.9245 20.2737 15.8592 20.165 15.8375 20.0344C15.6199 20.1432 15.7287 20.426 15.7069 20.6C15.6852 20.7088 15.6852 20.8828 15.5764 20.9481C15.4894 21.0134 15.3154 20.8393 15.2283 20.7958C14.9673 20.7088 14.8803 20.6436 14.9238 20.3825C14.9238 20.3607 15.1413 20.1867 14.9455 20.1867C14.728 20.1867 14.6192 20.1867 14.4017 20.0997C14.4234 20.1432 14.4452 20.1867 14.4887 20.2085C14.3799 20.2302 14.2494 20.252 14.1624 20.2955C14.0536 20.3607 14.0971 20.5348 14.0536 20.6218C13.9883 20.6 13.9448 20.5348 13.8796 20.6436C13.8578 20.4478 13.7273 20.4695 13.5968 20.5348C13.4662 20.6 13.4227 20.8393 13.2922 20.7741C13.2922 20.8393 13.2704 20.8828 13.2487 20.9264C13.1399 20.7306 13.1182 21.1004 12.9876 21.1874C12.7701 21.3179 12.5525 21.2962 12.3132 21.3832C12.2045 21.4267 12.1392 21.579 12.0087 21.6007C12.0087 21.492 11.9434 21.6007 11.9434 21.6443C11.9434 21.7313 12.0304 22.1446 12.0087 22.1881C11.8564 22.0358 12.0739 22.4927 12.0957 22.5579C12.161 22.7755 12.335 23.0365 12.1827 23.2323C12.0522 23.3846 12.4655 23.4716 12.5743 23.4281C12.8571 23.3411 13.0094 23.2976 13.314 23.2541C13.3575 23.0148 13.7055 23.0801 13.8796 23.0148C14.0971 22.9495 14.2059 22.8843 14.4669 22.9495C14.7062 23.0148 14.7062 23.1236 14.8368 23.2976C14.9891 23.4934 15.0543 23.2323 15.1848 23.0801C15.1848 23.1671 15.1631 23.3846 15.0543 23.4064C15.0543 23.5151 15.2283 23.3846 15.2283 23.2976C15.2936 23.3629 15.2719 23.4064 15.2501 23.4934C15.2936 23.4716 15.3371 23.4934 15.4024 23.4716C15.4024 23.6022 15.4894 23.8197 15.5982 23.885C15.6852 23.9285 15.7722 23.972 15.8592 23.9937C16.0115 24.0155 16.0115 23.9067 16.1203 23.9067C16.1638 24.1678 16.7729 23.8197 16.8164 23.7109C16.8164 23.3846 17.1863 23.1453 17.1863 22.8408C17.208 22.5362 17.295 22.2969 17.1427 21.9706Z" fill="#90C6DE"/>
<path d="M20.4929 23.8196C20.3406 23.8196 20.1666 23.9284 20.1666 23.6673C20.0796 23.7326 20.0578 23.7109 20.0143 23.6021C19.949 23.4716 19.862 23.4498 19.7968 23.3193C19.8403 23.5151 19.9925 23.5803 20.0361 23.7326C20.0578 23.8414 19.9273 24.1024 19.9708 24.1242C20.0143 24.1459 20.1231 24.1459 20.1231 24.2112C20.1231 24.2547 20.0361 24.3417 20.0796 24.3852C20.2536 24.5375 20.3406 23.9937 20.4711 24.0589C20.4494 24.0372 20.5582 23.8196 20.4929 23.8196Z" fill="#90C6DE"/>
<path d="M20.4929 21.0133C20.4712 20.9263 20.3406 20.8611 20.3406 21.0133C20.3406 21.0569 20.4712 21.0351 20.4929 21.0133Z" fill="#90C6DE"/>
<path d="M20.5364 20.8393C20.5364 20.948 20.6669 20.8175 20.6887 20.774C20.6234 20.774 20.5364 20.774 20.5364 20.8393Z" fill="#90C6DE"/>
<path d="M13.5749 17.3151C13.5532 17.3586 13.4444 17.6196 13.3792 17.4891C13.2921 17.2933 13.0746 17.7719 13.1834 17.7719C13.2269 17.7719 13.2269 17.6196 13.2704 17.5979C13.3574 17.6631 13.4227 17.5326 13.4227 17.6849C13.4227 17.7719 13.5314 17.8589 13.5967 17.8589C13.662 17.8589 13.5967 17.7066 13.6402 17.6631C13.662 17.7066 13.662 17.7066 13.662 17.6849C13.662 17.7284 13.6837 17.7502 13.7055 17.7719C13.6837 17.7066 13.7925 17.3151 13.5749 17.3151C13.5967 17.3151 13.5749 17.3368 13.5749 17.3151Z" fill="#176C93"/>
<path d="M12.5959 17.4673C12.7264 17.4456 12.7917 17.2933 12.9004 17.228C12.8787 17.2063 12.8569 17.1845 12.8569 17.1628C12.7699 17.228 12.6176 17.3803 12.5959 17.4673Z" fill="#176C93"/>
<path d="M12.8135 16.6407C12.8135 16.7277 12.9223 16.7059 12.9658 16.6842C12.9441 16.7277 12.9223 16.7712 12.9658 16.8147L13.2051 16.9017C13.1834 16.88 13.1834 16.8582 13.2051 16.8147L13.3791 16.967C13.4662 16.967 13.3139 16.8365 13.3139 16.8582C13.3139 16.8365 13.3356 16.8365 13.3356 16.8147C13.2921 16.8147 13.1399 16.7059 13.1399 16.793C13.0093 16.7277 13.0311 16.5972 13.0963 16.4884C13.1616 16.3796 13.0528 16.2926 13.0528 16.1838C12.9441 16.2273 13.0093 16.1621 12.9223 16.1403C12.8788 16.1621 12.8135 16.5754 12.8135 16.6407C12.8135 16.6624 12.8135 16.5754 12.8135 16.6407Z" fill="#176C93"/>
<path d="M13.5314 16.9887C13.4879 16.967 13.4444 16.967 13.4009 16.9887C13.4444 17.0105 13.4661 17.054 13.5097 17.0975C13.4879 17.1193 13.4661 17.141 13.4226 17.1193C13.4444 17.1845 13.4879 17.2715 13.5314 17.2715C13.5097 17.2498 13.4879 17.1845 13.4879 17.1628C13.6402 17.1628 13.5314 17.0757 13.5314 16.9887C13.5314 17.0105 13.4879 16.9887 13.5314 16.9887Z" fill="#176C93"/>
<path d="M13.1617 17.0758C13.0964 17.0105 13.1399 17.2715 13.1399 17.2715C13.2487 17.1845 13.314 17.141 13.1617 17.0758C13.2052 17.0758 13.1617 17.054 13.1617 17.0758Z" fill="#176C93"/>
<path d="M13.2922 17.1845C13.1181 17.2063 13.3357 17.4673 13.3357 17.4021C13.3139 17.3585 13.3792 17.1628 13.2922 17.1845C13.3357 17.1845 13.2704 17.1845 13.2922 17.1845Z" fill="#176C93"/>
<path d="M13.3357 17.3368C13.3574 17.3151 13.4227 17.228 13.4227 17.1845C13.3357 17.1845 13.3357 17.2933 13.3357 17.3368Z" fill="#176C93"/>
<path d="M13.4663 17.2933C13.4228 17.2716 13.3793 17.2933 13.3793 17.3586C13.3575 17.4021 13.4663 17.3369 13.4663 17.2933C13.4663 17.3369 13.4445 17.3151 13.4663 17.2933Z" fill="#176C93"/>
<path d="M13.3792 17.0758C13.3792 17.0105 13.314 16.967 13.2704 16.967C13.2704 17.0758 13.3792 17.0105 13.3792 17.0758C13.3792 17.0975 13.3792 17.0105 13.3792 17.0758Z" fill="#176C93"/>
<path d="M13.031 16.9887C13.118 16.9887 12.9875 16.8365 12.9222 16.8365C12.944 16.88 12.9875 16.9887 13.031 16.9887C13.0528 16.9887 13.0093 16.9887 13.031 16.9887Z" fill="#176C93"/>
<path d="M13.0746 16.8799H13.1182C13.1182 16.8582 13.0964 16.8582 13.0746 16.8799Z" fill="#90C6DE"/>
<path d="M13.0094 15.2049C12.8136 15.2049 12.8353 15.7052 12.9659 15.5964C13.0094 15.5529 13.1617 15.2049 13.0094 15.2049Z" fill="#90C6DE"/>
<path d="M11.6605 15.988C11.6605 15.814 11.3342 16.0315 11.3342 16.0533C11.3777 16.2708 11.6605 16.1621 11.6605 15.988Z" fill="#90C6DE"/>
<path d="M11.0078 18.9032C11.0295 18.9684 11.0731 18.9902 11.1383 18.9902C11.1166 18.9467 10.9208 18.6856 10.9208 18.8379C10.9425 18.8814 10.9643 18.9032 11.0078 18.9032C11.0078 18.9249 10.986 18.8814 11.0078 18.9032Z" fill="#176C93"/>
<path d="M11.2908 19.0336C11.3126 19.0336 11.3343 19.0119 11.3343 18.9684C11.2908 18.9466 11.2908 18.9466 11.2473 18.9466C11.2473 18.9466 11.2473 19.0336 11.2908 19.0336Z" fill="#176C93"/>
<path d="M10.116 18.7509C10.116 18.7509 10.029 18.8596 10.1595 18.8814C10.1595 18.8379 10.1378 18.7726 10.116 18.7509Z" fill="#90C6DE"/>
<path d="M9.92029 18.468C9.92029 18.4463 9.92029 18.5768 9.98556 18.5768C10.0291 18.5768 9.94204 18.468 9.92029 18.468Z" fill="#90C6DE"/>
<path d="M14.1188 14.0736C14.1188 14.1389 14.2275 14.1389 14.2275 14.0736C14.2493 14.1606 14.184 14.3347 14.2711 14.3129C14.2711 14.3347 14.2711 14.3347 14.2928 14.3564C14.4016 14.3564 14.4451 14.0954 14.4016 14.0518C14.4016 14.0518 14.1188 13.8778 14.1188 14.0736Z" fill="#176C93"/>
<path d="M14.5322 14.1171C14.5757 14.1171 14.8803 13.8778 14.7062 13.8778C14.5975 13.8778 14.4017 14.1171 14.5322 14.1171Z" fill="#176C93"/>
<path d="M15.0325 13.5515C14.9672 13.5515 14.9672 13.7038 14.8802 13.7038C14.8367 13.7256 14.7279 13.7038 14.6844 13.7038C14.5974 13.7038 14.2711 13.8126 14.2711 13.9214C14.2711 13.9649 14.6626 13.8996 14.6844 13.8344C14.7932 13.6821 14.8367 14.0084 14.9019 14.0301C14.9454 13.9431 14.989 13.9214 15.0542 13.8996C15.0325 13.8996 14.9672 13.7908 15.0325 13.7908C15.0977 13.7908 15.1195 13.9214 15.2065 13.8561C15.2935 13.7908 15.25 13.8344 15.3153 13.8344C15.337 13.7691 15.3805 13.7473 15.4458 13.7256C15.424 13.7473 15.424 13.7691 15.4458 13.7908C15.6416 13.7256 15.4893 13.3122 15.6198 13.2687C15.7504 13.2252 15.7286 12.8119 15.5981 12.8119C15.5763 12.8119 15.5981 12.8554 15.6198 12.8554C15.5328 12.9207 15.4676 12.8772 15.4676 13.0729C15.4676 13.2035 15.3805 13.334 15.2718 13.3993C15.25 13.421 14.9672 13.5515 15.076 13.421C15.0977 13.4428 15.076 13.5515 15.0325 13.5515Z" fill="#176C93"/>
<path d="M15.5546 12.5291C15.5111 12.6379 15.4676 12.6596 15.4894 12.7902C15.5329 12.7902 15.5981 12.7684 15.6199 12.7249C15.5111 12.5944 15.5764 12.6379 15.7069 12.5944C15.7939 12.6596 15.881 12.7466 15.9462 12.6379C16.0115 12.5291 16.1202 12.5726 16.2073 12.5073C16.142 12.4856 16.1638 12.4421 16.1855 12.3986C16.142 12.3768 16.0332 12.3986 15.9897 12.3986C15.8809 12.3551 15.8157 12.2463 15.7287 12.181C15.6634 12.2898 15.7504 12.5073 15.5764 12.5291C15.4894 12.4421 15.5981 12.5291 15.5546 12.5291Z" fill="#176C93"/>
<path d="M16.2291 12.3986C16.1638 12.4856 16.3378 12.3551 16.3378 12.3333C16.2943 12.3115 16.2508 12.3551 16.2291 12.3986C16.2508 12.3551 16.2073 12.3986 16.2291 12.3986Z" fill="#176C93"/>
<path d="M16.5771 12.1592C16.5336 12.1592 16.4683 12.2898 16.4683 12.2898C16.5336 12.2898 16.5553 12.2027 16.6424 12.2027V12.181C16.6206 12.1592 16.5989 12.1592 16.5771 12.1592Z" fill="#176C93"/>
<path d="M16.7947 12.1157C16.8382 12.094 16.86 12.0722 16.8817 12.0287C16.8165 12.0069 16.773 12.1157 16.7947 12.1157Z" fill="#176C93"/>
<path d="M15.9244 10.8322C15.9026 10.767 15.8809 10.7017 15.8591 10.6147H15.8374C15.8591 10.7452 15.7503 10.7887 15.7286 10.8975C15.7068 11.028 15.7939 11.1368 15.7939 11.2673C15.7939 11.3543 15.7721 12.0505 15.7721 12.0505C15.8809 12.0505 15.8591 11.8764 15.9896 11.9852C15.9244 11.8547 15.8374 11.8112 15.8591 11.6589C15.8809 11.5284 15.9896 11.3978 16.0984 11.5501C16.0767 11.4196 15.9896 11.3108 15.9461 11.1803C15.9026 11.0715 15.9461 10.941 15.9244 10.8322C15.9244 10.8975 15.9026 10.767 15.9244 10.8322Z" fill="#90C6DE"/>
<path d="M3.93767 7.09046C4.15522 7.02519 4.08995 7.24274 4.26399 7.24274C4.37276 7.24274 4.52505 7.26449 4.65557 7.26449C4.5468 7.02519 4.28575 7.0687 4.43803 6.72063C4.56856 6.43782 4.82961 6.32905 5.06891 6.17677C5.2647 6.04624 5.48224 6.02449 5.69979 5.93747C5.76505 5.91571 6.33067 5.80694 6.13488 5.65466C5.91733 5.48062 5.67804 5.71992 5.504 5.80694C5.2647 5.91571 5.06891 5.76343 4.82961 5.93747C4.74259 6.00273 4.35101 6.13326 4.39452 6.19852C4.45978 6.28554 4.32925 6.37256 4.26399 6.41607C4.11171 6.52484 4.24223 6.50308 4.24223 6.61186C4.0682 6.65537 3.74188 6.98168 3.93767 7.09046Z" fill="#90C6DE"/>
<path d="M4.63379 7.26453C4.65554 7.30804 4.63379 7.28628 4.63379 7.26453Z" fill="#90C6DE"/>
<path d="M21.0802 7.80832C20.6452 7.56902 20.0795 7.28622 19.5574 7.37323C19.4051 7.39499 19.5139 7.6778 19.4487 7.65604C19.3616 7.61253 19.2746 7.46025 19.1658 7.46025C18.9048 7.46025 18.622 7.4385 18.3609 7.4385C18.2957 7.4385 18.1651 7.46025 18.0999 7.4385C18.0346 7.17744 17.8171 7.11218 17.5778 7.11218C17.382 7.11218 17.1209 7.22095 16.9904 7.02516C16.8599 6.82937 16.6641 6.80762 16.4465 6.76411C16.2072 6.7206 15.9027 6.65533 15.6634 6.74235C15.5763 6.76411 15.4241 7.06867 15.4241 7.06867C15.2065 7.06867 14.9237 7.11218 14.7062 7.06867C14.6192 7.06867 14.5756 7.00341 14.4886 6.98165C14.3363 6.91639 14.4016 7.04692 14.3363 7.13393C14.2058 7.35148 14.01 6.91639 14.01 6.80762C14.01 6.7206 14.1623 6.67709 14.01 6.59007C13.836 6.50305 13.6184 6.4813 13.4444 6.4813C13.2269 6.45954 13.3356 6.65533 13.1181 6.65533C12.8353 6.65533 12.6177 6.63358 12.3349 6.59007C12.1609 6.56832 11.9869 6.52481 11.8346 6.45954C11.7911 6.43779 11.7258 6.41604 11.704 6.37253C11.5953 6.45954 11.4865 6.56832 11.356 6.63358C11.2254 6.69884 11.2037 6.59007 11.2907 6.52481C11.5083 6.37253 11.8128 6.30726 12.0086 6.11147C12.2479 5.89393 11.7693 5.74164 11.617 5.74164C11.4865 5.74164 11.356 5.74164 11.2037 5.74164C11.0514 5.74164 11.0079 5.48059 10.7904 5.48059C10.7686 5.48059 9.61561 6.15498 9.70263 5.85042C9.37631 5.95919 9.05 5.95919 8.74543 6.11147C8.5714 6.19849 8.5714 6.32902 8.44087 6.45954C8.35385 6.54656 8.0928 6.4813 8.00578 6.4813C7.89701 6.4813 7.72297 6.50305 7.67946 6.63358C7.6142 6.76411 7.83175 6.93814 7.59245 6.91639C7.48367 6.89463 7.3749 6.89463 7.28788 6.89463C7.26612 6.93814 7.17911 7.06867 7.09209 7.04692C6.98332 7.02516 7.02682 6.82937 6.96156 6.76411C6.93981 6.89463 6.83104 6.98165 6.72227 7.04692C6.76577 7.17744 6.96156 7.30797 6.80928 7.46025C6.74402 7.52552 6.96156 7.98236 6.80928 7.89534C6.63525 7.78657 6.63525 7.41674 6.61349 7.24271C6.61349 7.15569 6.70051 6.85113 6.657 6.82937C6.39594 6.67709 6.09138 6.87288 5.9391 7.09043C5.74331 7.39499 6.11314 7.54727 6.15665 7.80832C6.1784 7.9171 5.74331 7.6778 5.6998 7.65604C5.59103 7.59078 5.15594 7.41674 5.06892 7.54727C5.04717 7.59078 5.15593 7.87359 5.00365 7.83008C4.93839 7.80832 4.89488 7.72131 4.82962 7.72131C4.67734 7.72131 4.52505 7.83008 4.37277 7.83008C4.13347 7.85183 4.08997 7.6778 3.82891 7.80832C3.63312 7.9171 3.45909 8.06938 3.24154 8.13464C3.00224 8.19991 3.15452 7.85183 3.0675 7.76482C3.02399 7.69955 2.95873 7.83008 2.93697 7.85183C2.8282 8.04762 2.91523 8.06938 2.91523 8.22166C2.91523 8.3957 2.56715 8.22166 2.48013 8.3957C2.37136 8.635 2.21908 8.67851 1.95802 8.56973C1.97978 8.635 1.93627 8.70026 1.95802 8.74377C1.69697 8.72201 1.74048 8.46096 1.6317 8.30868C1.84925 8.30868 2.15382 8.41745 2.37136 8.33043C2.58891 8.24342 2.56715 8.06938 2.37136 7.93885C2.08855 7.78657 1.76223 7.6778 1.45767 7.56902C1.26188 7.50376 1.04433 7.54727 0.892051 7.41674C0.979069 7.39499 1.04434 7.41674 1.06609 7.30797C0.979073 7.26446 0.892054 7.17744 0.82679 7.30797C0.783281 7.28622 0.761524 7.24271 0.783278 7.1992C0.652751 7.28622 0.652753 7.37323 0.587489 7.24271C0.522225 7.28622 0.478718 7.39499 0.3917 7.37323C0.435209 7.32972 0.456962 7.28622 0.478717 7.22095C0.478717 7.28622 0.0436262 7.1992 0.0436262 7.28622C0.0436262 7.32972 0.0871324 7.32973 0.108887 7.35148C0.0218688 7.39499 -0.0651491 7.37323 -0.108658 7.48201C-0.108658 7.46025 -0.108658 7.4385 -0.108658 7.39499C-0.195676 7.39499 -0.195674 7.50376 -0.282692 7.52552C-0.282692 7.50376 -0.282692 7.48201 -0.282692 7.46025C-0.347955 7.46025 -0.413218 7.48201 -0.478481 7.52552C-0.456727 7.54727 -0.45673 7.54727 -0.434976 7.56902C-0.521994 7.61253 -0.565502 7.54727 -0.630765 7.65604C-0.609011 7.65604 -0.587252 7.65604 -0.565498 7.65604C-0.717779 7.74306 -0.674271 7.80832 -0.804798 7.63429C-0.848307 7.6778 -0.935328 7.6778 -0.957083 7.76482C-0.935328 7.76482 -0.91357 7.78657 -0.891815 7.78657C-0.935324 7.80832 -0.957084 7.83008 -0.978839 7.85183C-0.870066 7.85183 -0.804799 7.78657 -0.696026 7.76482C-0.76129 8.02587 -1.08761 8.06938 -1.17463 8.30868C-1.2834 8.52622 -1.43568 8.80903 -1.69674 8.8743C-1.65323 8.8743 -1.63147 8.89605 -1.58796 8.89605C-1.74024 8.8743 -1.97955 9.07009 -2.06656 9.17886C-2.13183 9.28763 -2.17534 9.22237 -2.15358 9.41816C-2.15358 9.48342 -2.13182 9.57044 -2.08831 9.61395C-2.13182 9.65746 -2.15358 9.67921 -2.15358 9.72272C-2.11007 9.70097 -2.06656 9.70097 -2.02305 9.70097C-2.06656 9.80974 -2.13182 9.83149 -2.0013 9.91851C-1.78375 10.049 -1.56621 9.85325 -1.45743 9.65746C-1.32691 9.83149 -1.26165 10.1143 -1.19638 10.3318C-1.15287 10.4624 -1.10937 10.5711 -0.978839 10.4406C-0.891821 10.3318 -0.8048 10.3754 -0.717782 10.2883C-0.543746 10.1361 -0.717779 10.1361 -0.67427 9.96202C-0.630761 9.80974 -0.369708 9.80974 -0.369708 9.65746C-0.369708 9.48342 -0.609009 9.52693 -0.609009 9.3529C-0.609009 9.22237 -0.543747 9.07009 -0.41322 9.00482C-0.304447 8.93956 -0.130409 8.8743 -0.0433906 8.76552C0.021873 8.65675 -0.0651449 8.52622 0.0653822 8.46096C0.174155 8.3957 0.413454 8.37394 0.500472 8.48271C0.609245 8.61324 0.304679 8.72201 0.239416 8.80903C0.152398 8.91781 -0.0651466 8.98307 -0.0651466 9.1136C-0.0651466 9.1571 -0.0433934 9.26588 0.0218702 9.28763C-0.0216389 9.3529 -0.0868981 9.37465 -0.0216346 9.48342C0.0653835 9.5922 0.261173 9.6357 0.3917 9.59219C0.500473 9.57044 0.826787 9.57044 0.892051 9.46167C0.93556 9.50518 0.979069 9.57044 1.00082 9.61395C0.783278 9.76623 0.587489 9.6357 0.369944 9.72272C0.0653807 9.85325 0.565733 10.049 0.348188 10.1361C0.174152 10.2013 0.130647 9.875 -0.0216346 10.1796C-0.108653 10.3971 -0.108656 10.6582 -0.391464 10.6582C-0.391464 10.3971 -1.08761 10.9627 -1.0441 10.6582C-1.19638 10.6364 -1.56621 10.854 -1.56621 10.5494C-1.56621 10.4189 -1.41393 10.3971 -1.41393 10.3101C-1.41393 10.2666 -1.50094 10.2013 -1.47919 10.0708C-1.58796 10.1578 -1.78375 10.1796 -1.78375 10.3536C-1.78375 10.4841 -1.65322 10.6147 -1.65322 10.7452C-1.65322 10.8322 -2.08832 10.8757 -2.13183 10.941C-2.30586 11.0933 -2.26235 11.3108 -2.56692 11.3108C-2.63218 11.5283 -2.84973 11.6371 -3.02376 11.5283C-3.00201 11.5936 -2.98025 11.6806 -3.04552 11.7024C-3.04552 11.7024 -3.56763 11.6806 -3.37184 11.8112C-3.30657 11.8547 -3.1978 11.8764 -3.13253 11.8982C-3.04552 11.9199 -3.08903 12.0069 -3.02376 12.0722C-2.91499 12.1592 -2.87148 12.2898 -2.95849 12.4638C-3.04551 12.6378 -3.15429 12.5726 -3.35008 12.5726C-3.45885 12.5726 -3.69815 12.5726 -3.78517 12.5291C-4.04622 12.3985 -3.9592 12.8771 -3.9592 12.9424C-3.98096 13.0512 -4.04622 13.1817 -4.04622 13.2905C-4.04622 13.3775 -3.98096 13.334 -3.98096 13.4427C-3.98096 13.7038 -3.80692 13.4427 -3.6764 13.5733C-3.58938 13.6603 -3.61113 13.7691 -3.45885 13.7038C-3.37183 13.6603 -3.24131 13.595 -3.13253 13.6168C-3.06727 13.595 -2.74095 13.3557 -2.82797 13.2905C-3.00201 13.0947 -2.50165 12.9206 -2.45814 12.8771C-2.37113 12.8119 -2.45814 12.7248 -2.43639 12.7031C-2.43639 12.5073 -2.13183 12.6378 -2.04481 12.6378C-1.80551 12.6378 -1.65322 12.2462 -1.45743 12.5726C-1.34866 12.7684 -1.17463 12.8989 -0.978839 12.9859C-0.913575 13.0077 -0.587255 13.3992 -0.826554 13.3992C-0.826554 13.508 -0.609009 13.2687 -0.609009 13.2687C-0.609009 13.2034 -0.761294 13.1382 -0.652521 13.0729C-0.565503 13.0077 -0.500239 13.1164 -0.434976 13.1164C-0.413221 12.9206 -0.739538 12.9859 -0.739538 12.8119C-1.0441 12.8119 -0.913571 12.5726 -1.13112 12.5073C-1.37042 12.4203 -1.17463 12.2462 -1.08761 12.2027C-1.06586 12.2245 -1.08761 12.3333 -1.02234 12.3333C-0.891817 12.3985 -0.93533 12.2462 -0.870066 12.4203C-0.804802 12.5726 -0.587254 12.6378 -0.478481 12.7031C-0.260936 12.8119 -0.260939 13.4427 0.0218702 13.3992C-0.0433934 13.508 0.000118308 13.6385 0.174154 13.6168C0.1524 13.595 0.152399 13.421 0.152399 13.3992C0.217662 13.4645 0.282926 13.4863 0.369944 13.4427C0.282926 13.3557 0.239419 13.247 0.19591 13.1817C0.0436288 13.0077 0.217665 13.1164 0.304683 13.1164C0.369947 12.8119 0.739773 13.1382 0.957318 12.9206C0.913809 12.8554 0.805034 12.8119 0.805034 12.7248C0.805034 12.6161 0.935563 12.5726 0.935563 12.4855C0.935563 12.3115 1.04433 12.2245 1.13135 12.1375C1.41416 11.8329 1.56644 12.7248 1.95802 12.2462C1.50118 12.2462 2.0668 12.0069 2.21908 11.9417C2.04504 12.0287 2.26259 12.181 2.00153 12.2462C2.04504 12.3333 2.7847 12.7466 2.67592 12.8336C2.61066 12.8554 1.95802 13.0729 1.95802 12.8554C1.78398 12.8554 1.65346 12.7248 1.45767 12.8336C1.43592 12.8554 1.02258 12.9641 1.02258 12.9424C1.02258 12.9641 1.04434 12.9859 1.06609 13.0077C0.957318 13.0729 0.761524 13.0077 0.674506 13.1164C0.609242 13.1817 0.805037 13.2034 0.631001 13.3775C0.67451 13.3992 0.957313 13.6168 0.870295 13.6385C0.957313 13.6168 1.00083 13.6385 1.06609 13.682C1.19662 13.7908 1.19661 13.6168 1.30539 13.6168C1.43591 13.6168 1.47942 13.7908 1.6317 13.7038C1.76223 13.6603 1.80574 13.6385 1.93627 13.595C1.89276 13.7038 1.97978 13.8561 1.89276 13.9649C1.80574 14.0954 1.67522 14.3129 1.71873 14.4652C1.71873 14.4652 1.3924 14.3999 1.32714 14.3999C1.04433 14.3999 0.892052 14.487 0.587489 14.3782C0.478716 14.3347 0.174154 14.3347 0.174154 14.1824C0.0436273 14.1606 -0.195675 14.2042 -0.195675 14.3564C-0.282693 14.4652 -0.239181 14.5957 -0.478481 14.4652C-0.652517 14.3782 -0.761291 14.2042 -0.935327 14.1606C-1.08761 14.1171 -1.21813 14.2042 -1.32691 14.0301C-1.41392 13.8996 -1.30516 13.6603 -1.2834 13.5298C-1.39217 13.5515 -1.47919 13.421 -1.58796 13.508C-1.63147 13.5515 -1.95779 13.5733 -2.02305 13.5733C-2.19709 13.5733 -2.30586 13.5298 -2.50165 13.595C-2.67569 13.6385 -2.91499 13.8343 -3.08902 13.8343C-3.21955 13.8343 -3.4806 13.682 -3.52411 13.7691C-3.61113 13.8996 -3.74166 14.0301 -3.85043 14.1606C-4.00271 14.3347 -3.95921 14.4217 -4.02447 14.6392C-4.08973 14.8785 -4.37254 14.8133 -4.50307 14.9656C-4.69886 15.2484 -5.00342 15.6617 -4.89465 16.0098C-4.82939 16.2056 -4.82938 16.3796 -4.93816 16.5536C-5.00342 16.6624 -5.06869 16.6407 -5.00342 16.7712C-4.98167 16.8147 -4.95991 16.9452 -4.95991 16.9887C-4.87289 17.1628 -4.59009 17.3368 -4.45956 17.5544C-4.28553 17.8589 -3.89394 18.1635 -3.54587 18.033C-3.35008 17.9677 -3.24131 18.0547 -3.04552 18.0547C-2.91499 18.0547 -2.69744 17.9024 -2.56692 17.8589C-2.17533 17.7284 -2.13182 18.0765 -1.78375 18.0765C-1.63147 18.0765 -1.5227 18.1417 -1.45743 18.2722C-1.50094 18.3158 -1.5227 18.5115 -1.50095 18.5768C-1.87077 18.7944 -1.19638 19.2512 -1.17463 19.4687C-1.13112 19.7298 -0.870062 20.0996 -1.02234 20.3607C-1.08761 20.4912 -1.21814 20.5782 -1.26164 20.7305C-1.32691 20.9698 -1.19638 21.2309 -1.06586 21.4267C-0.870065 21.753 -0.913572 22.101 -0.717782 22.4491C-0.630764 22.6014 -0.543748 22.7537 -0.434976 22.8842C-0.391467 22.9495 -0.347955 23.0147 -0.391464 23.08C-0.456728 23.2105 -0.347952 23.2105 -0.347952 23.3628C-0.260934 23.3193 -0.195674 23.4498 -0.0651466 23.4281C0.0653805 23.3846 0.239418 23.254 0.3917 23.3193C0.609245 23.4498 0.979068 23.1018 1.08784 22.9495C1.1531 22.8407 1.5882 22.3403 1.50118 22.2316C1.41416 22.101 1.60995 21.9705 1.76223 21.9705C1.89276 21.9705 1.89276 21.666 1.84925 21.5789C1.80574 21.4702 1.67521 21.3831 1.78399 21.2744C1.87101 21.1874 1.93627 21.0786 2.04504 21.0133C2.15382 20.9481 2.74118 20.7305 2.50188 20.513C2.50188 20.3607 2.58891 20.0561 2.48013 19.9256C2.37136 19.7951 2.37136 19.6645 2.34961 19.4905C2.32785 19.273 2.43662 19.273 2.50188 19.0989C2.5889 18.7508 2.89347 18.6203 3.15452 18.4463C3.45908 18.2287 3.69838 17.8154 3.85067 17.4891C3.91593 17.3586 3.98119 17.1845 3.91593 17.054C3.72014 17.0975 3.52435 17.2063 3.3068 17.1845C3.11101 17.1628 3.08926 17.3586 2.93697 17.141C2.87171 17.0975 2.84996 17.054 2.89347 17.0105C2.84996 16.88 2.8282 16.9452 2.74119 16.8582C2.65417 16.7494 2.63241 16.6842 2.50188 16.6189C2.30609 16.5101 2.39311 16.2926 2.21908 16.1621C2.08855 16.075 2.08855 16.0098 2.08855 15.8575C2.08855 15.727 2.00154 15.6835 1.93627 15.5747C1.84925 15.4007 1.78399 15.2266 1.67522 15.0308C1.60995 14.9003 1.43592 14.7263 1.45767 14.574C1.54469 14.661 1.5882 14.8568 1.71873 14.8785C1.74048 14.7915 1.78399 14.7263 1.80574 14.6392C1.78399 14.7915 2.02329 15.3571 2.15382 15.3789C2.26259 15.3789 2.34961 15.5747 2.34961 15.6617C2.34961 15.901 2.50189 15.901 2.56715 16.0533C2.63242 16.1838 2.76294 16.2708 2.8282 16.4014C2.87171 16.5101 2.8282 16.6189 2.87171 16.7494C3.00224 17.0975 3.08926 16.8582 3.32856 16.8582C3.45909 16.8582 4.06821 16.5972 4.06821 16.5319C4.06821 16.4231 4.32927 16.3796 4.39453 16.3796C4.48155 16.3579 4.63383 16.2273 4.67734 16.1403C4.72084 16.075 5.15594 15.6617 5.02541 15.6182C4.93839 15.5747 4.91663 15.4877 4.78611 15.4442C4.63383 15.3789 4.56856 15.2701 4.59032 15.0961C4.45979 15.2049 4.39453 15.3571 4.19874 15.4007C3.87242 15.4659 3.95944 15.3136 3.91593 15.1178C3.89417 15.1396 3.85067 15.1831 3.82891 15.2049C3.80716 15.0526 3.63312 14.9873 3.56786 14.835C3.43733 14.5522 3.67663 14.3999 3.85067 14.661C3.95944 14.8133 4.06821 14.9656 4.264 15.0308C4.41628 15.0743 4.48155 14.9656 4.59032 14.9656C4.69909 14.9656 4.67734 15.0961 4.7426 15.1396C4.78611 15.1831 4.93839 15.1831 5.00365 15.1831C5.17769 15.2049 5.32997 15.2266 5.50401 15.2266C5.54752 15.1831 5.87384 15.1831 5.91735 15.2049C5.98261 15.2266 6.00437 15.3354 6.04787 15.3789C6.13489 15.5312 6.28717 15.5094 6.4177 15.5529C6.35243 15.6182 6.30893 15.5964 6.24366 15.64C6.30893 15.7052 6.43946 15.9445 6.59174 15.8357C6.657 15.7705 6.657 15.6835 6.74401 15.64C6.74401 16.0315 6.78753 16.4449 7.02683 16.8147C7.17911 17.054 7.33139 17.9024 7.59245 17.2933C7.6142 17.2498 7.70122 17.2498 7.70122 17.228C7.72297 17.1628 7.67946 17.0975 7.70122 17.0322C7.74473 16.88 7.70122 16.7929 7.70122 16.6407C7.70122 16.5319 7.91876 16.4666 8.00578 16.4014C8.20157 16.2273 8.54964 16.0315 8.6149 15.7922C8.70192 15.5747 9.11526 15.8575 9.11526 15.5529C9.31105 15.5964 9.24579 15.7052 9.33281 15.8357C9.41983 15.988 9.55035 16.0533 9.61561 16.2273C9.63737 16.3143 9.59386 16.4231 9.63737 16.5101C9.72439 16.6842 9.89842 16.3579 9.94193 16.3361C10.203 16.5972 10.1377 17.1193 10.1377 17.4673C10.1377 17.5326 10.203 17.4673 10.2465 17.5326C10.3335 17.6414 10.377 17.8372 10.3988 17.9459C10.464 18.207 10.6598 18.4463 10.9209 18.4245C10.7904 18.1417 10.8339 17.9024 10.5511 17.7501C10.3988 17.6631 10.1595 17.2933 10.29 17.141C10.377 17.0322 10.3118 16.967 10.3335 16.8582C10.3553 16.7929 10.5728 16.9887 10.6163 16.9887C10.7686 17.0322 10.7686 17.228 10.8991 17.2498C11.0079 17.2715 10.9861 17.4891 11.0297 17.4891C11.0949 17.4891 11.1384 17.3803 11.1384 17.3151C11.1384 17.3368 11.1384 17.3368 11.1602 17.3586C11.269 17.3586 11.5518 17.054 11.5735 16.967C11.6605 16.7059 11.443 16.5319 11.3125 16.3579C11.1819 16.1838 10.9861 16.0533 11.2254 15.8793C11.2907 15.8357 11.3777 15.7922 11.4212 15.7052C11.4865 15.727 11.5735 15.7487 11.6388 15.7487C11.617 15.7922 11.6388 15.8357 11.6605 15.8575C11.704 15.8357 11.704 15.7922 11.7258 15.7705C11.7693 15.727 11.9433 15.6835 12.0086 15.6617C12.0304 15.6617 12.1609 15.5312 12.1609 15.5312C12.2697 15.5312 12.2697 15.5964 12.3784 15.5529C12.7265 15.4659 12.8135 15.1178 13.0093 14.8785C13.2486 14.574 13.2269 14.3129 13.0311 13.9866C13.0093 13.9431 12.857 13.7908 12.9441 13.7256C13.0528 13.6603 13.2486 13.5515 13.3356 13.4427C13.2921 13.3992 13.1834 13.3992 13.1181 13.3775C13.0093 13.2905 13.0528 13.4645 12.9876 13.4645C12.9223 13.4645 12.683 13.334 12.683 13.247C12.683 13.1817 13.0311 13.0512 13.0746 12.9641C13.1181 12.9206 13.1398 12.8771 13.2051 12.9424C13.2921 13.0294 13.1398 13.0947 13.1398 13.1817C13.2486 13.1817 13.3356 13.0947 13.4227 13.0729C13.5532 13.0294 13.5532 13.0947 13.6837 13.0947C13.6184 13.2252 13.5967 13.3557 13.749 13.3557C13.9013 13.3557 13.8142 13.7473 13.8142 13.8778C14.1406 13.8778 14.3363 13.595 14.1188 13.2905C13.9448 13.0729 13.9665 13.0947 14.1841 12.9206C14.3581 12.7901 14.3146 12.5508 14.5539 12.5943C15.076 12.6813 15.163 12.181 15.4676 11.8764C15.6416 11.7024 15.6634 11.5283 15.6851 11.3108C15.7069 11.0715 15.9027 10.941 15.6851 10.7234C15.5111 10.5494 15.4458 10.7669 15.25 10.7017C15.076 10.6364 15.0542 10.4841 15.1848 10.3536C15.5328 10.0273 15.8156 9.70097 16.316 9.65746C16.7076 9.61395 17.0339 9.70097 17.4037 9.70097C17.5778 9.70097 17.556 9.46167 17.6648 9.3529C17.8171 9.20061 18.0999 9.20061 18.2957 9.22237C18.1651 9.33114 18.2739 9.46167 18.4262 9.33114C18.5132 9.26588 18.6437 9.02658 18.7525 9.07009C18.9265 9.1571 18.6872 9.33114 18.622 9.37465C18.4479 9.48342 18.3609 9.46167 18.2304 9.6357C18.0999 9.83149 17.9041 9.91851 17.7736 10.0925C17.643 10.2883 17.7083 10.9627 17.9041 11.115C18.0781 10.854 18.2304 10.7017 18.4044 10.4841C18.622 10.2231 18.5567 9.89676 18.796 9.61395C18.9701 9.43991 19.1441 9.43991 19.3399 9.54869C19.6227 9.67921 19.949 9.3529 20.1448 9.20061C20.2536 9.13535 20.8627 9.02658 20.8192 8.91781C20.7104 8.72201 20.4711 8.65675 20.8409 8.50447C20.9497 8.46096 20.9497 8.26517 21.015 8.26517C21.189 8.26517 21.3195 8.3957 21.4501 8.50447C21.8416 8.80903 21.8199 8.43921 22.1897 8.30868C21.8416 8.02587 21.3848 7.98236 21.0802 7.80832C21.3413 7.96061 20.7322 7.61253 21.0802 7.80832ZM0.0871377 11.6371C0.152401 11.7241 0.0653833 11.7459 0.19591 11.7459C0.108892 11.7459 0.0871377 11.7241 0.0871377 11.6371ZM0.935563 8.09113C0.935563 8.00411 1.06609 7.9171 1.00082 7.83008C0.957314 7.78657 0.870295 7.76482 0.870295 7.69955C0.870295 7.78657 1.02258 7.78657 1.02258 7.87359C1.00083 7.98236 0.957317 8.04762 0.935563 8.09113C0.935563 8.17815 1.02258 8.22166 1.02258 8.33043C1.02258 8.24342 0.935563 8.19991 0.935563 8.09113ZM3.78541 12.442C3.87242 12.5726 4.00295 12.6596 4.00295 12.8336C4.13348 12.7684 4.24225 12.7466 4.24225 12.9424C4.19874 12.9206 4.08997 12.9206 4.04646 12.9641C3.95944 13.0729 4.17698 13.0947 4.17698 13.247C4.17698 13.508 4.2205 13.5515 3.89418 13.5515C3.76365 13.5515 3.76365 13.4645 3.67663 13.4427C3.48084 13.3992 3.61136 13.334 3.48084 13.2252C3.43733 13.1817 3.48084 13.0512 3.39382 13.0729C3.32856 13.0729 3.26329 13.1599 3.19803 13.1817C3.39382 13.1817 3.30681 12.9859 3.45909 13.1382C3.43733 13.1817 3.50259 13.1817 3.52435 13.1817C3.56786 13.1164 3.56786 13.0077 3.65488 12.9641C3.39382 12.8336 3.17628 12.3333 3.32856 12.094C3.37207 12.0069 3.65488 11.9199 3.74189 11.9199C4.00295 11.8764 4.11172 11.9634 4.264 12.1592C4.17698 12.2245 3.93768 12.1592 3.80716 12.2245C3.61136 12.3333 3.72014 12.3115 3.78541 12.442C3.87242 12.5943 3.76365 12.3768 3.78541 12.442ZM4.32927 13.3557C5.00366 12.7031 3.7419 13.9431 4.32927 13.3557ZM5.06892 13.9866C5.06892 13.9649 5.06892 13.9649 5.06892 13.9866ZM5.19945 13.7038C5.15594 13.7038 5.09068 13.8778 5.09068 13.8996C5.13419 13.7691 5.17769 13.7691 5.17769 13.6385C5.17769 13.7038 5.24295 13.7473 5.32997 13.7473C5.26471 13.7473 5.24296 13.7256 5.19945 13.7038ZM5.65629 13.4427C5.67804 13.421 5.72156 13.3992 5.74331 13.3992C5.72156 13.421 5.67804 13.421 5.65629 13.4427C5.67804 13.421 5.67804 13.421 5.65629 13.4427ZM6.04787 13.4863C6.02612 13.4863 5.80857 13.421 5.80857 13.421C5.83033 13.4645 6.00437 13.4645 6.04787 13.4863ZM6.28718 13.3775C6.26542 13.3775 6.30893 13.3775 6.33068 13.334C6.30893 13.3557 6.30893 13.3557 6.28718 13.3775ZM6.52647 13.508C6.50472 13.4863 6.50472 13.4863 6.48296 13.4645C6.54823 13.4863 6.54822 13.508 6.52647 13.508ZM6.67875 13.4645C6.70051 13.4427 6.74402 13.421 6.78753 13.421C6.74402 13.4427 6.70051 13.4427 6.67875 13.4645ZM7.04858 13.5298C6.93981 13.4863 6.91805 13.4427 6.78753 13.4427C6.83104 13.4427 6.93981 13.4427 6.93981 13.4427C6.93981 13.5298 7.09209 13.5298 7.04858 13.5298ZM7.52718 14.3782C7.50542 14.3782 7.48367 14.3782 7.46192 14.3564C7.46192 14.3564 7.63595 14.3999 7.52718 14.3782C7.54893 14.3782 7.50542 14.3782 7.52718 14.3782ZM7.67946 12.2245C7.67946 12.4855 7.59244 12.7684 7.33139 12.8771C7.22262 12.9424 7.09209 12.9641 6.96156 12.9641C6.87454 12.9641 6.72226 13.247 6.80928 13.2687C6.72226 13.247 6.85279 13.0294 6.8963 12.9859C6.98332 12.8989 7.22262 12.9424 7.33139 12.8771C7.46192 12.8119 7.57069 12.6813 7.6142 12.5508C7.63595 12.4855 7.65771 12.4203 7.65771 12.3333C7.67946 12.1375 7.70121 12.2462 7.83174 12.1375C7.78823 12.181 7.74473 12.2027 7.67946 12.2245C7.74473 12.2027 7.67946 12.7466 7.67946 12.2245ZM9.96369 15.3354C9.96369 15.1614 10.0942 15.1614 10.0942 14.9656C10.0725 15.1614 9.96369 15.1614 9.96369 15.3354ZM8.63666 14.8133C8.46262 14.835 8.37561 14.7915 8.22333 14.7045C8.41912 14.835 8.50613 14.7915 8.72368 14.7915C8.70192 14.7915 8.65841 14.8133 8.63666 14.8133ZM9.04999 11.3543C8.89771 11.4413 8.35385 11.5066 8.3321 11.7241C8.31034 12.0287 8.04929 11.8329 7.91876 12.0069C8.00578 11.8764 8.11455 11.9634 8.24508 11.8982C8.3321 11.8547 8.31034 11.7459 8.3321 11.6589C8.35385 11.5501 8.59315 11.4848 8.68017 11.4631C8.76719 11.4631 9.11526 11.3108 9.04999 11.3543C9.07175 11.3326 8.83245 11.4848 9.04999 11.3543ZM9.74614 11.3761C9.5286 11.3761 9.2893 11.1368 9.11526 11.3108C9.37632 11.0715 9.78965 11.6371 9.98544 11.1803C9.92018 11.2673 9.87667 11.3761 9.74614 11.3761ZM9.94193 16.2056C9.98544 16.3143 10.1377 16.4449 10.0072 16.5754C10.116 16.4231 9.98544 16.3361 9.94193 16.2056C9.96369 16.2491 9.96369 16.2491 9.94193 16.2056ZM10.0072 16.6189C10.0072 16.5319 10.0507 16.6842 10.0942 16.7277C10.0507 16.7059 10.0072 16.6624 10.0072 16.6189ZM10.1595 17.0322C10.1812 17.0105 10.1595 16.9235 10.1377 16.9017C10.1595 16.9235 10.203 17.0105 10.1595 17.0322C10.1812 17.0322 10.1812 17.0322 10.1595 17.0322ZM10.3553 15.727C10.377 15.7052 10.377 15.6835 10.3988 15.6617C10.29 15.6617 10.2247 15.6617 10.1812 15.5529C10.203 15.6617 10.29 15.6835 10.3988 15.6617C10.377 15.7052 10.3553 15.7052 10.3553 15.727ZM11.1167 15.5312C11.0732 15.5312 11.0079 15.5094 10.9644 15.4877C11.0949 15.5312 11.0732 15.5094 11.1384 15.6182C11.1384 15.5964 11.1384 15.5529 11.1167 15.5312C11.1167 15.5747 11.0514 15.5312 11.1167 15.5312ZM11.5735 11.5066C11.3125 11.5066 11.1602 11.2673 10.8991 11.2673C11.1167 11.2673 11.2472 11.4413 11.443 11.4848C11.704 11.5501 11.9651 11.3543 12.2262 11.3543C12.0086 11.3761 11.7911 11.5066 11.5735 11.5066ZM12.8788 11.0497C12.9658 10.8757 13.0963 10.7887 13.2921 10.7887C13.1181 10.7887 12.9658 10.8975 12.8788 11.0497ZM14.2058 11.5501C14.1188 11.4631 13.923 11.4848 13.8577 11.3761C13.749 11.2238 13.7272 10.9845 13.5749 10.8757C13.7272 10.9845 13.7707 11.2238 13.8577 11.3761C13.9448 11.5066 14.1623 11.4848 14.2493 11.6371C14.2276 11.5936 14.2058 11.5719 14.2058 11.5501C14.2058 11.5719 14.1188 11.4631 14.2058 11.5501ZM14.3363 12.2898C14.3146 12.268 14.4016 12.355 14.4016 12.3985C14.4016 12.355 14.3799 12.3115 14.3363 12.2898Z" fill="#176C93"/>
<mask id="mask1_23_18851" style="mask-type:alpha" maskUnits="userSpaceOnUse" x="-7" y="6" width="14" height="19">
<path d="M1.91658 23.2574L-0.806509 24.2045H-6.72626V6.68207H5.58682L6.0604 7.74762V8.57639L5.942 9.76034L5.58682 9.99713V10.2339L5.35003 10.4707L4.87645 10.8259V11.2995L4.99484 11.5363V11.6547L4.75805 11.7731L4.40287 11.6547L4.28447 11.5363L4.04768 11.6547L3.92929 11.7731L3.6925 12.0098L3.45571 12.365L3.81089 12.957L2.50855 12.8386L2.03497 12.7202L1.20621 12.8386L0.969415 12.957L0.614231 13.0754L0.495835 13.4306L0.85102 13.7858L1.443 14.141L1.79818 14.9697L2.15337 15.5617L2.74534 16.6272L2.98213 17.1008L3.33731 16.9824L3.81089 16.864L4.28447 17.456L3.81089 18.5216L2.98213 20.0607L1.91658 23.2574Z" fill="#292B2E"/>
</mask>
<g mask="url(#mask1_23_18851)">
<path d="M21.0804 7.80832C20.6453 7.56902 20.0797 7.28622 19.5576 7.37323C19.4053 7.39499 19.514 7.6778 19.4488 7.65604C19.3618 7.61253 19.2747 7.46025 19.166 7.46025C18.9049 7.46025 18.6221 7.4385 18.3611 7.4385C18.2958 7.4385 18.1653 7.46025 18.1 7.4385C18.0347 7.17744 17.8172 7.11218 17.5779 7.11218C17.3821 7.11218 17.121 7.22095 16.9905 7.02516C16.86 6.82937 16.6642 6.80762 16.4467 6.76411C16.2074 6.7206 15.9028 6.65533 15.6635 6.74235C15.5765 6.76411 15.4242 7.06867 15.4242 7.06867C15.2066 7.06867 14.9238 7.11218 14.7063 7.06867C14.6193 7.06867 14.5758 7.00341 14.4887 6.98165C14.3365 6.91639 14.4017 7.04692 14.3365 7.13393C14.2059 7.35148 14.0102 6.91639 14.0102 6.80762C14.0102 6.7206 14.1624 6.67709 14.0102 6.59007C13.8361 6.50305 13.6186 6.4813 13.4445 6.4813C13.227 6.45954 13.3358 6.65533 13.1182 6.65533C12.8354 6.65533 12.6179 6.63358 12.3351 6.59007C12.161 6.56832 11.987 6.52481 11.8347 6.45954C11.7912 6.43779 11.7259 6.41604 11.7042 6.37253C11.5954 6.45954 11.4866 6.56832 11.3561 6.63358C11.2256 6.69884 11.2038 6.59007 11.2908 6.52481C11.5084 6.37253 11.8129 6.30726 12.0087 6.11147C12.248 5.89393 11.7694 5.74164 11.6172 5.74164C11.4866 5.74164 11.3561 5.74164 11.2038 5.74164C11.0515 5.74164 11.008 5.48059 10.7905 5.48059C10.7687 5.48059 9.61574 6.15498 9.70275 5.85042C9.37644 5.95919 9.05012 5.95919 8.74556 6.11147C8.57152 6.19849 8.57152 6.32902 8.44099 6.45954C8.35398 6.54656 8.09292 6.4813 8.0059 6.4813C7.89713 6.4813 7.7231 6.50305 7.67959 6.63358C7.61432 6.76411 7.83187 6.93814 7.59257 6.91639C7.4838 6.89463 7.37502 6.89463 7.288 6.89463C7.26625 6.93814 7.17923 7.06867 7.09221 7.04692C6.98344 7.02516 7.02695 6.82937 6.96168 6.76411C6.93993 6.89463 6.83116 6.98165 6.72239 7.04692C6.7659 7.17744 6.96169 7.30797 6.8094 7.46025C6.74414 7.52552 6.96169 7.98236 6.8094 7.89534C6.63537 7.78657 6.63537 7.41674 6.61362 7.24271C6.61362 7.15569 6.70063 6.85113 6.65712 6.82937C6.39607 6.67709 6.09151 6.87288 5.93922 7.09043C5.74343 7.39499 6.11326 7.54727 6.15677 7.80832C6.17852 7.9171 5.74343 7.6778 5.69992 7.65604C5.59115 7.59078 5.15606 7.41674 5.06904 7.54727C5.04729 7.59078 5.15606 7.87359 5.00378 7.83008C4.93851 7.80832 4.89501 7.72131 4.82974 7.72131C4.67746 7.72131 4.52518 7.83008 4.3729 7.83008C4.1336 7.85183 4.09009 7.6778 3.82903 7.80832C3.63324 7.9171 3.45921 8.06938 3.24167 8.13464C3.00237 8.19991 3.15464 7.85183 3.06763 7.76482C3.02412 7.69955 2.95885 7.83008 2.9371 7.85183C2.82832 8.04762 2.91535 8.06938 2.91535 8.22166C2.91535 8.3957 2.56728 8.22166 2.48026 8.3957C2.37148 8.635 2.2192 8.67851 1.95814 8.56973C1.9799 8.635 1.93639 8.70026 1.95814 8.74377C1.69709 8.72201 1.7406 8.46096 1.63183 8.30868C1.84937 8.30868 2.15394 8.41745 2.37148 8.33043C2.58903 8.24342 2.56728 8.06938 2.37148 7.93885C2.08868 7.78657 1.76236 7.6778 1.45779 7.56902C1.262 7.50376 1.04445 7.54727 0.892173 7.41674C0.979191 7.39499 1.04446 7.41674 1.06621 7.30797C0.979195 7.26446 0.892176 7.17744 0.826912 7.30797C0.783403 7.28622 0.761646 7.24271 0.783401 7.1992C0.652874 7.28622 0.652875 7.37323 0.587611 7.24271C0.522348 7.28622 0.47884 7.39499 0.391822 7.37323C0.435331 7.32972 0.457085 7.28622 0.478839 7.22095C0.478839 7.28622 0.0437486 7.1992 0.0437486 7.28622C0.0437486 7.32972 0.0872548 7.32973 0.109009 7.35148C0.0219912 7.39499 -0.0650267 7.37323 -0.108536 7.48201C-0.108536 7.46025 -0.108536 7.4385 -0.108536 7.39499C-0.195554 7.39499 -0.195551 7.50376 -0.282569 7.52552C-0.282569 7.50376 -0.282569 7.48201 -0.282569 7.46025C-0.347833 7.46025 -0.413095 7.48201 -0.478359 7.52552C-0.456604 7.54727 -0.456608 7.54727 -0.434854 7.56902C-0.521872 7.61253 -0.56538 7.54727 -0.630643 7.65604C-0.608889 7.65604 -0.58713 7.65604 -0.565376 7.65604C-0.717657 7.74306 -0.674149 7.80832 -0.804676 7.63429C-0.848185 7.6778 -0.935206 7.6778 -0.95696 7.76482C-0.935206 7.76482 -0.913447 7.78657 -0.891693 7.78657C-0.935202 7.80832 -0.956962 7.83008 -0.978716 7.85183C-0.869944 7.85183 -0.804676 7.78657 -0.695904 7.76482C-0.761167 8.02587 -1.08749 8.06938 -1.17451 8.30868C-1.28328 8.52622 -1.43556 8.80903 -1.69661 8.8743C-1.6531 8.8743 -1.63135 8.89605 -1.58784 8.89605C-1.74012 8.8743 -1.97942 9.07009 -2.06644 9.17886C-2.13171 9.28763 -2.17521 9.22237 -2.15346 9.41816C-2.15346 9.48342 -2.1317 9.57044 -2.08819 9.61395C-2.1317 9.65746 -2.15346 9.67921 -2.15346 9.72272C-2.10995 9.70097 -2.06644 9.70097 -2.02293 9.70097C-2.06644 9.80974 -2.1317 9.83149 -2.00117 9.91851C-1.78363 10.049 -1.56608 9.85325 -1.45731 9.65746C-1.32678 9.83149 -1.26153 10.1143 -1.19626 10.3318C-1.15275 10.4624 -1.10924 10.5711 -0.978716 10.4406C-0.891698 10.3318 -0.804677 10.3754 -0.717659 10.2883C-0.543623 10.1361 -0.717657 10.1361 -0.674148 9.96202C-0.630639 9.80974 -0.369586 9.80974 -0.369586 9.65746C-0.369586 9.48342 -0.608887 9.52693 -0.608887 9.3529C-0.608887 9.22237 -0.543625 9.07009 -0.413098 9.00482C-0.304325 8.93956 -0.130286 8.8743 -0.0432682 8.76552C0.0219953 8.65675 -0.0650226 8.52622 0.0655045 8.46096C0.174277 8.3957 0.413577 8.37394 0.500595 8.48271C0.609367 8.61324 0.304802 8.72201 0.239538 8.80903C0.15252 8.91781 -0.0650242 8.98307 -0.0650242 9.1136C-0.0650242 9.1571 -0.043271 9.26588 0.0219926 9.28763C-0.0215165 9.3529 -0.0867758 9.37465 -0.0215122 9.48342C0.0655059 9.5922 0.261295 9.6357 0.391822 9.59219C0.500595 9.57044 0.82691 9.57044 0.892173 9.46167C0.935682 9.50518 0.979191 9.57044 1.00095 9.61395C0.783401 9.76623 0.587612 9.6357 0.370066 9.72272C0.0655031 9.85325 0.565856 10.049 0.34831 10.1361C0.174274 10.2013 0.130769 9.875 -0.0215122 10.1796C-0.10853 10.3971 -0.108533 10.6582 -0.391342 10.6582C-0.391342 10.3971 -1.08749 10.9627 -1.04398 10.6582C-1.19626 10.6364 -1.56608 10.854 -1.56608 10.5494C-1.56608 10.4189 -1.41381 10.3971 -1.41381 10.3101C-1.41381 10.2666 -1.50082 10.2013 -1.47907 10.0708C-1.58784 10.1578 -1.78363 10.1796 -1.78363 10.3536C-1.78363 10.4841 -1.6531 10.6147 -1.6531 10.7452C-1.6531 10.8322 -2.08819 10.8757 -2.1317 10.941C-2.30574 11.0933 -2.26223 11.3108 -2.56679 11.3108C-2.63206 11.5283 -2.8496 11.6371 -3.02364 11.5283C-3.00189 11.5936 -2.98013 11.6806 -3.0454 11.7024C-3.0454 11.7024 -3.5675 11.6806 -3.37171 11.8112C-3.30645 11.8547 -3.19768 11.8764 -3.13241 11.8982C-3.04539 11.9199 -3.0889 12.0069 -3.02364 12.0722C-2.91487 12.1592 -2.87135 12.2898 -2.95837 12.4638C-3.04539 12.6378 -3.15417 12.5726 -3.34996 12.5726C-3.45873 12.5726 -3.69803 12.5726 -3.78505 12.5291C-4.0461 12.3985 -3.95908 12.8771 -3.95908 12.9424C-3.98084 13.0512 -4.0461 13.1817 -4.0461 13.2905C-4.0461 13.3775 -3.98084 13.334 -3.98084 13.4427C-3.98084 13.7038 -3.8068 13.4427 -3.67628 13.5733C-3.58926 13.6603 -3.61101 13.7691 -3.45873 13.7038C-3.37171 13.6603 -3.24118 13.595 -3.13241 13.6168C-3.06715 13.595 -2.74083 13.3557 -2.82785 13.2905C-3.00189 13.0947 -2.50153 12.9206 -2.45802 12.8771C-2.371 12.8119 -2.45802 12.7248 -2.43627 12.7031C-2.43627 12.5073 -2.1317 12.6378 -2.04469 12.6378C-1.80539 12.6378 -1.6531 12.2462 -1.45731 12.5726C-1.34854 12.7684 -1.17451 12.8989 -0.978716 12.9859C-0.913453 13.0077 -0.587132 13.3992 -0.826432 13.3992C-0.826432 13.508 -0.608887 13.2687 -0.608887 13.2687C-0.608887 13.2034 -0.761171 13.1382 -0.652399 13.0729C-0.565381 13.0077 -0.500117 13.1164 -0.434854 13.1164C-0.413099 12.9206 -0.739415 12.9859 -0.739415 12.8119C-1.04398 12.8119 -0.913449 12.5726 -1.13099 12.5073C-1.37029 12.4203 -1.17451 12.2462 -1.08749 12.2027C-1.06573 12.2245 -1.08749 12.3333 -1.02222 12.3333C-0.891695 12.3985 -0.935207 12.2462 -0.869944 12.4203C-0.80468 12.5726 -0.587131 12.6378 -0.478359 12.7031C-0.260814 12.8119 -0.260816 13.4427 0.0219926 13.3992C-0.043271 13.508 0.000240695 13.6385 0.174277 13.6168C0.152522 13.595 0.152521 13.421 0.152521 13.3992C0.217785 13.4645 0.283048 13.4863 0.370066 13.4427C0.283048 13.3557 0.239542 13.247 0.196033 13.1817C0.0437512 13.0077 0.217788 13.1164 0.304806 13.1164C0.370069 12.8119 0.739896 13.1382 0.957441 12.9206C0.913932 12.8554 0.805156 12.8119 0.805156 12.7248C0.805156 12.6161 0.935685 12.5726 0.935685 12.4855C0.935685 12.3115 1.04446 12.2245 1.13147 12.1375C1.41428 11.8329 1.56656 12.7248 1.95814 12.2462C1.5013 12.2462 2.06692 12.0069 2.2192 11.9417C2.04516 12.0287 2.26271 12.181 2.00166 12.2462C2.04516 12.3333 2.78482 12.7466 2.67605 12.8336C2.61078 12.8554 1.95814 13.0729 1.95814 12.8554C1.78411 12.8554 1.65358 12.7248 1.45779 12.8336C1.43604 12.8554 1.0227 12.9641 1.0227 12.9424C1.0227 12.9641 1.04446 12.9859 1.06621 13.0077C0.957441 13.0729 0.761646 13.0077 0.674628 13.1164C0.609365 13.1817 0.80516 13.2034 0.631123 13.3775C0.674632 13.3992 0.957436 13.6168 0.870418 13.6385C0.957436 13.6168 1.00095 13.6385 1.06621 13.682C1.19674 13.7908 1.19674 13.6168 1.30551 13.6168C1.43603 13.6168 1.47954 13.7908 1.63183 13.7038C1.76235 13.6603 1.80587 13.6385 1.93639 13.595C1.89289 13.7038 1.9799 13.8561 1.89288 13.9649C1.80586 14.0954 1.67534 14.3129 1.71885 14.4652C1.71885 14.4652 1.39253 14.3999 1.32726 14.3999C1.04446 14.3999 0.892175 14.487 0.587611 14.3782C0.478839 14.3347 0.174277 14.3347 0.174277 14.1824C0.0437497 14.1606 -0.195552 14.2042 -0.195552 14.3564C-0.282571 14.4652 -0.239059 14.5957 -0.478359 14.4652C-0.652395 14.3782 -0.761169 14.2042 -0.935205 14.1606C-1.08749 14.1171 -1.21801 14.2042 -1.32678 14.0301C-1.4138 13.8996 -1.30503 13.6603 -1.28328 13.5298C-1.39205 13.5515 -1.47907 13.421 -1.58784 13.508C-1.63135 13.5515 -1.95767 13.5733 -2.02293 13.5733C-2.19697 13.5733 -2.30574 13.5298 -2.50153 13.595C-2.67557 13.6385 -2.91486 13.8343 -3.0889 13.8343C-3.21943 13.8343 -3.48048 13.682 -3.52399 13.7691C-3.61101 13.8996 -3.74154 14.0301 -3.85031 14.1606C-4.00259 14.3347 -3.95909 14.4217 -4.02435 14.6392C-4.08961 14.8785 -4.37242 14.8133 -4.50294 14.9656C-4.69874 15.2484 -5.0033 15.6617 -4.89453 16.0098C-4.82927 16.2056 -4.82926 16.3796 -4.93803 16.5536C-5.0033 16.6624 -5.06857 16.6407 -5.0033 16.7712C-4.98155 16.8147 -4.95979 16.9452 -4.95979 16.9887C-4.87277 17.1628 -4.58997 17.3368 -4.45944 17.5544C-4.2854 17.8589 -3.89382 18.1635 -3.54575 18.033C-3.34996 17.9677 -3.24119 18.0547 -3.0454 18.0547C-2.91487 18.0547 -2.69732 17.9024 -2.56679 17.8589C-2.17521 17.7284 -2.1317 18.0765 -1.78363 18.0765C-1.63135 18.0765 -1.52258 18.1417 -1.45731 18.2722C-1.50082 18.3158 -1.52258 18.5115 -1.50082 18.5768C-1.87065 18.7944 -1.19626 19.2512 -1.17451 19.4687C-1.131 19.7298 -0.86994 20.0996 -1.02222 20.3607C-1.08749 20.4912 -1.21801 20.5782 -1.26152 20.7305C-1.32679 20.9698 -1.19626 21.2309 -1.06573 21.4267C-0.869943 21.753 -0.91345 22.101 -0.717659 22.4491C-0.630641 22.6014 -0.543626 22.7537 -0.434854 22.8842C-0.391345 22.9495 -0.347833 23.0147 -0.391342 23.08C-0.456606 23.2105 -0.34783 23.2105 -0.34783 23.3628C-0.260812 23.3193 -0.195551 23.4498 -0.0650242 23.4281C0.0655029 23.3846 0.239541 23.254 0.391822 23.3193C0.609368 23.4498 0.97919 23.1018 1.08796 22.9495C1.15323 22.8407 1.58832 22.3403 1.5013 22.2316C1.41429 22.101 1.61007 21.9705 1.76235 21.9705C1.89288 21.9705 1.89288 21.666 1.84937 21.5789C1.80586 21.4702 1.67534 21.3831 1.78411 21.2744C1.87113 21.1874 1.93639 21.0786 2.04517 21.0133C2.15394 20.9481 2.74131 20.7305 2.50201 20.513C2.50201 20.3607 2.58903 20.0561 2.48026 19.9256C2.37148 19.7951 2.37148 19.6645 2.34973 19.4905C2.32797 19.273 2.43674 19.273 2.50201 19.0989C2.58902 18.7508 2.89359 18.6203 3.15464 18.4463C3.45921 18.2287 3.69851 17.8154 3.85079 17.4891C3.91605 17.3586 3.98131 17.1845 3.91605 17.054C3.72026 17.0975 3.52447 17.2063 3.30693 17.1845C3.11114 17.1628 3.08938 17.3586 2.9371 17.141C2.87183 17.0975 2.85008 17.054 2.89359 17.0105C2.85008 16.88 2.82833 16.9452 2.74131 16.8582C2.65429 16.7494 2.63253 16.6842 2.50201 16.6189C2.30622 16.5101 2.39324 16.2926 2.2192 16.1621C2.08867 16.075 2.08867 16.0098 2.08867 15.8575C2.08867 15.727 2.00166 15.6835 1.93639 15.5747C1.84938 15.4007 1.78411 15.2266 1.67534 15.0308C1.61007 14.9003 1.43604 14.7263 1.45779 14.574C1.54481 14.661 1.58832 14.8568 1.71885 14.8785C1.7406 14.7915 1.78411 14.7263 1.80587 14.6392C1.78411 14.7915 2.02341 15.3571 2.15394 15.3789C2.26271 15.3789 2.34973 15.5747 2.34973 15.6617C2.34973 15.901 2.50201 15.901 2.56727 16.0533C2.63254 16.1838 2.76306 16.2708 2.82832 16.4014C2.87183 16.5101 2.82833 16.6189 2.87184 16.7494C3.00236 17.0975 3.08938 16.8582 3.32868 16.8582C3.45921 16.8582 4.06833 16.5972 4.06833 16.5319C4.06833 16.4231 4.32939 16.3796 4.39465 16.3796C4.48167 16.3579 4.63395 16.2273 4.67746 16.1403C4.72097 16.075 5.15606 15.6617 5.02553 15.6182C4.93851 15.5747 4.91676 15.4877 4.78623 15.4442C4.63395 15.3789 4.56869 15.2701 4.59044 15.0961C4.45991 15.2049 4.39465 15.3571 4.19886 15.4007C3.87255 15.4659 3.95956 15.3136 3.91605 15.1178C3.8943 15.1396 3.85079 15.1831 3.82903 15.2049C3.80728 15.0526 3.63325 14.9873 3.56798 14.835C3.43746 14.5522 3.67675 14.3999 3.85079 14.661C3.95956 14.8133 4.06833 14.9656 4.26412 15.0308C4.41641 15.0743 4.48167 14.9656 4.59044 14.9656C4.69921 14.9656 4.67746 15.0961 4.74273 15.1396C4.78623 15.1831 4.93851 15.1831 5.00378 15.1831C5.17781 15.2049 5.3301 15.2266 5.50413 15.2266C5.54764 15.1831 5.87396 15.1831 5.91747 15.2049C5.98273 15.2266 6.00449 15.3354 6.048 15.3789C6.13502 15.5312 6.28729 15.5094 6.41782 15.5529C6.35256 15.6182 6.30905 15.5964 6.24379 15.64C6.30905 15.7052 6.43958 15.9445 6.59186 15.8357C6.65712 15.7705 6.65712 15.6835 6.74414 15.64C6.74414 16.0315 6.78765 16.4449 7.02695 16.8147C7.17923 17.054 7.33151 17.9024 7.59257 17.2933C7.61432 17.2498 7.70134 17.2498 7.70134 17.228C7.7231 17.1628 7.67959 17.0975 7.70134 17.0322C7.74485 16.88 7.70134 16.7929 7.70134 16.6407C7.70134 16.5319 7.91889 16.4666 8.0059 16.4014C8.20169 16.2273 8.54976 16.0315 8.61503 15.7922C8.70205 15.5747 9.11539 15.8575 9.11539 15.5529C9.31118 15.5964 9.24591 15.7052 9.33293 15.8357C9.41995 15.988 9.55047 16.0533 9.61574 16.2273C9.63749 16.3143 9.59398 16.4231 9.63749 16.5101C9.72451 16.6842 9.89855 16.3579 9.94205 16.3361C10.2031 16.5972 10.1378 17.1193 10.1378 17.4673C10.1378 17.5326 10.2031 17.4673 10.2466 17.5326C10.3336 17.6414 10.3771 17.8372 10.3989 17.9459C10.4642 18.207 10.66 18.4463 10.921 18.4245C10.7905 18.1417 10.834 17.9024 10.5512 17.7501C10.3989 17.6631 10.1596 17.2933 10.2901 17.141C10.3771 17.0322 10.3119 16.967 10.3336 16.8582C10.3554 16.7929 10.5729 16.9887 10.6164 16.9887C10.7687 17.0322 10.7687 17.228 10.8993 17.2498C11.008 17.2715 10.9863 17.4891 11.0298 17.4891C11.095 17.4891 11.1386 17.3803 11.1386 17.3151C11.1386 17.3368 11.1386 17.3368 11.1603 17.3586C11.2691 17.3586 11.5519 17.054 11.5736 16.967C11.6607 16.7059 11.4431 16.5319 11.3126 16.3579C11.1821 16.1838 10.9863 16.0533 11.2256 15.8793C11.2908 15.8357 11.3778 15.7922 11.4214 15.7052C11.4866 15.727 11.5736 15.7487 11.6389 15.7487C11.6171 15.7922 11.6389 15.8357 11.6607 15.8575C11.7042 15.8357 11.7042 15.7922 11.7259 15.7705C11.7694 15.727 11.9435 15.6835 12.0087 15.6617C12.0305 15.6617 12.161 15.5312 12.161 15.5312C12.2698 15.5312 12.2698 15.5964 12.3786 15.5529C12.7266 15.4659 12.8137 15.1178 13.0094 14.8785C13.2487 14.574 13.227 14.3129 13.0312 13.9866C13.0094 13.9431 12.8572 13.7908 12.9442 13.7256C13.0529 13.6603 13.2487 13.5515 13.3358 13.4427C13.2923 13.3992 13.1835 13.3992 13.1182 13.3775C13.0094 13.2905 13.053 13.4645 12.9877 13.4645C12.9224 13.4645 12.6831 13.334 12.6831 13.247C12.6831 13.1817 13.0312 13.0512 13.0747 12.9641C13.1182 12.9206 13.14 12.8771 13.2052 12.9424C13.2923 13.0294 13.14 13.0947 13.14 13.1817C13.2487 13.1817 13.3358 13.0947 13.4228 13.0729C13.5533 13.0294 13.5533 13.0947 13.6838 13.0947C13.6186 13.2252 13.5968 13.3557 13.7491 13.3557C13.9014 13.3557 13.8144 13.7473 13.8144 13.8778C14.1407 13.8778 14.3365 13.595 14.1189 13.2905C13.9449 13.0729 13.9666 13.0947 14.1842 12.9206C14.3582 12.7901 14.3147 12.5508 14.554 12.5943C15.0761 12.6813 15.1631 12.181 15.4677 11.8764C15.6417 11.7024 15.6635 11.5283 15.6852 11.3108C15.707 11.0715 15.9028 10.941 15.6852 10.7234C15.5112 10.5494 15.4459 10.7669 15.2502 10.7017C15.0761 10.6364 15.0544 10.4841 15.1849 10.3536C15.533 10.0273 15.8158 9.70097 16.3161 9.65746C16.7077 9.61395 17.034 9.70097 17.4039 9.70097C17.5779 9.70097 17.5561 9.46167 17.6649 9.3529C17.8172 9.20061 18.1 9.20061 18.2958 9.22237C18.1653 9.33114 18.274 9.46167 18.4263 9.33114C18.5133 9.26588 18.6439 9.02658 18.7526 9.07009C18.9267 9.1571 18.6874 9.33114 18.6221 9.37465C18.4481 9.48342 18.3611 9.46167 18.2305 9.6357C18.1 9.83149 17.9042 9.91851 17.7737 10.0925C17.6432 10.2883 17.7084 10.9627 17.9042 11.115C18.0782 10.854 18.2305 10.7017 18.4046 10.4841C18.6221 10.2231 18.5568 9.89676 18.7961 9.61395C18.9702 9.43991 19.1442 9.43991 19.34 9.54869C19.6228 9.67921 19.9491 9.3529 20.1449 9.20061C20.2537 9.13535 20.8628 9.02658 20.8193 8.91781C20.7105 8.72201 20.4712 8.65675 20.8411 8.50447C20.9498 8.46096 20.9498 8.26517 21.0151 8.26517C21.1891 8.26517 21.3197 8.3957 21.4502 8.50447C21.8418 8.80903 21.82 8.43921 22.1898 8.30868C21.8418 8.02587 21.3849 7.98236 21.0804 7.80832C21.3414 7.96061 20.7323 7.61253 21.0804 7.80832ZM0.0872601 11.6371C0.152524 11.7241 0.0655057 11.7459 0.196033 11.7459C0.109015 11.7459 0.0872601 11.7241 0.0872601 11.6371ZM0.935685 8.09113C0.935685 8.00411 1.06621 7.9171 1.00095 7.83008C0.957437 7.78657 0.870418 7.76482 0.870418 7.69955C0.870418 7.78657 1.0227 7.78657 1.0227 7.87359C1.00095 7.98236 0.95744 8.04762 0.935685 8.09113C0.935685 8.17815 1.0227 8.22166 1.0227 8.33043C1.0227 8.24342 0.935685 8.19991 0.935685 8.09113ZM3.78553 12.442C3.87255 12.5726 4.00307 12.6596 4.00307 12.8336C4.1336 12.7684 4.24237 12.7466 4.24237 12.9424C4.19886 12.9206 4.09009 12.9206 4.04658 12.9641C3.95956 13.0729 4.17711 13.0947 4.17711 13.247C4.17711 13.508 4.22062 13.5515 3.8943 13.5515C3.76377 13.5515 3.76377 13.4645 3.67676 13.4427C3.48096 13.3992 3.61149 13.334 3.48096 13.2252C3.43745 13.1817 3.48096 13.0512 3.39394 13.0729C3.32868 13.0729 3.26342 13.1599 3.19815 13.1817C3.39394 13.1817 3.30693 12.9859 3.45921 13.1382C3.43746 13.1817 3.50272 13.1817 3.52447 13.1817C3.56798 13.1164 3.56798 13.0077 3.655 12.9641C3.39395 12.8336 3.1764 12.3333 3.32868 12.094C3.37219 12.0069 3.655 11.9199 3.74202 11.9199C4.00307 11.8764 4.11184 11.9634 4.26412 12.1592C4.17711 12.2245 3.93781 12.1592 3.80728 12.2245C3.61149 12.3333 3.72027 12.3115 3.78553 12.442C3.87255 12.5943 3.76377 12.3768 3.78553 12.442ZM4.32939 13.3557C5.00378 12.7031 3.74202 13.9431 4.32939 13.3557ZM5.06904 13.9866C5.06904 13.9649 5.06904 13.9649 5.06904 13.9866ZM5.19957 13.7038C5.15606 13.7038 5.0908 13.8778 5.0908 13.8996C5.13431 13.7691 5.17782 13.7691 5.17782 13.6385C5.17782 13.7038 5.24308 13.7473 5.33009 13.7473C5.26483 13.7473 5.24308 13.7256 5.19957 13.7038ZM5.65641 13.4427C5.67817 13.421 5.72168 13.3992 5.74343 13.3992C5.72168 13.421 5.67817 13.421 5.65641 13.4427C5.67817 13.421 5.67817 13.421 5.65641 13.4427ZM6.048 13.4863C6.02624 13.4863 5.8087 13.421 5.8087 13.421C5.83045 13.4645 6.00449 13.4645 6.048 13.4863ZM6.2873 13.3775C6.26554 13.3775 6.30905 13.3775 6.3308 13.334C6.30905 13.3557 6.30905 13.3557 6.2873 13.3775ZM6.52659 13.508C6.50484 13.4863 6.50484 13.4863 6.48309 13.4645C6.54835 13.4863 6.54835 13.508 6.52659 13.508ZM6.67888 13.4645C6.70063 13.4427 6.74414 13.421 6.78765 13.421C6.74414 13.4427 6.70063 13.4427 6.67888 13.4645ZM7.04871 13.5298C6.93993 13.4863 6.91818 13.4427 6.78765 13.4427C6.83116 13.4427 6.93993 13.4427 6.93993 13.4427C6.93993 13.5298 7.09221 13.5298 7.04871 13.5298ZM7.5273 14.3782C7.50555 14.3782 7.48379 14.3782 7.46204 14.3564C7.46204 14.3564 7.63607 14.3999 7.5273 14.3782C7.54906 14.3782 7.50555 14.3782 7.5273 14.3782ZM7.67959 12.2245C7.67959 12.4855 7.59257 12.7684 7.33151 12.8771C7.22274 12.9424 7.09221 12.9641 6.96168 12.9641C6.87466 12.9641 6.72239 13.247 6.8094 13.2687C6.72239 13.247 6.85291 13.0294 6.89642 12.9859C6.98344 12.8989 7.22274 12.9424 7.33151 12.8771C7.46204 12.8119 7.57081 12.6813 7.61432 12.5508C7.63607 12.4855 7.65783 12.4203 7.65783 12.3333C7.67958 12.1375 7.70134 12.2462 7.83186 12.1375C7.78835 12.181 7.74485 12.2027 7.67959 12.2245C7.74485 12.2027 7.67959 12.7466 7.67959 12.2245ZM9.96381 15.3354C9.96381 15.1614 10.0943 15.1614 10.0943 14.9656C10.0726 15.1614 9.96381 15.1614 9.96381 15.3354ZM8.63678 14.8133C8.46275 14.835 8.37573 14.7915 8.22345 14.7045C8.41924 14.835 8.50625 14.7915 8.7238 14.7915C8.70205 14.7915 8.65854 14.8133 8.63678 14.8133ZM9.05012 11.3543C8.89784 11.4413 8.35398 11.5066 8.33222 11.7241C8.31047 12.0287 8.04941 11.8329 7.91889 12.0069C8.00591 11.8764 8.11468 11.9634 8.2452 11.8982C8.33222 11.8547 8.31047 11.7459 8.33222 11.6589C8.35398 11.5501 8.59328 11.4848 8.68029 11.4631C8.76731 11.4631 9.11538 11.3108 9.05012 11.3543C9.07187 11.3326 8.83257 11.4848 9.05012 11.3543ZM9.74627 11.3761C9.52872 11.3761 9.28942 11.1368 9.11539 11.3108C9.37644 11.0715 9.78978 11.6371 9.98557 11.1803C9.9203 11.2673 9.87679 11.3761 9.74627 11.3761ZM9.94205 16.2056C9.98556 16.3143 10.1378 16.4449 10.0073 16.5754C10.1161 16.4231 9.98556 16.3361 9.94205 16.2056C9.96381 16.2491 9.96381 16.2491 9.94205 16.2056ZM10.0073 16.6189C10.0073 16.5319 10.0508 16.6842 10.0943 16.7277C10.0508 16.7059 10.0073 16.6624 10.0073 16.6189ZM10.1596 17.0322C10.1814 17.0105 10.1596 16.9235 10.1378 16.9017C10.1596 16.9235 10.2031 17.0105 10.1596 17.0322C10.1814 17.0322 10.1814 17.0322 10.1596 17.0322ZM10.3554 15.727C10.3771 15.7052 10.3771 15.6835 10.3989 15.6617C10.2901 15.6617 10.2249 15.6617 10.1814 15.5529C10.2031 15.6617 10.2901 15.6835 10.3989 15.6617C10.3771 15.7052 10.3554 15.7052 10.3554 15.727ZM11.1168 15.5312C11.0733 15.5312 11.008 15.5094 10.9645 15.4877C11.095 15.5312 11.0733 15.5094 11.1386 15.6182C11.1386 15.5964 11.1386 15.5529 11.1168 15.5312C11.1168 15.5747 11.0515 15.5312 11.1168 15.5312ZM11.5736 11.5066C11.3126 11.5066 11.1603 11.2673 10.8993 11.2673C11.1168 11.2673 11.2473 11.4413 11.4431 11.4848C11.7042 11.5501 11.9652 11.3543 12.2263 11.3543C12.0087 11.3761 11.7912 11.5066 11.5736 11.5066ZM12.8789 11.0497C12.9659 10.8757 13.0965 10.7887 13.2922 10.7887C13.1182 10.7887 12.9659 10.8975 12.8789 11.0497ZM14.2059 11.5501C14.1189 11.4631 13.9231 11.4848 13.8579 11.3761C13.7491 11.2238 13.7273 10.9845 13.5751 10.8757C13.7273 10.9845 13.7708 11.2238 13.8579 11.3761C13.9449 11.5066 14.1624 11.4848 14.2494 11.6371C14.2277 11.5936 14.2059 11.5719 14.2059 11.5501C14.2059 11.5719 14.1189 11.4631 14.2059 11.5501ZM14.3365 12.2898C14.3147 12.268 14.4017 12.355 14.4017 12.3985C14.4017 12.355 14.38 12.3115 14.3365 12.2898Z" fill="#90C6DE"/>
</g>
<path d="M20.6017 7.19917C20.667 7.19917 21.102 7.17742 20.9933 7.06865C20.9063 7.00338 20.7757 6.98163 20.6887 7.02514C20.6452 7.02514 20.4494 7.19917 20.6017 7.19917Z" fill="#90C6DE"/>
<path d="M19.2965 7.48201C19.3835 7.48201 19.2747 7.35148 19.166 7.37323C19.1877 7.4385 19.2312 7.48201 19.2965 7.48201Z" fill="#90C6DE"/>
<path d="M14.902 6.02442C14.9238 6.02442 14.9455 5.98091 14.9455 5.95916C14.9455 5.95916 14.9238 5.91565 14.902 5.91565C14.8585 5.95916 14.8585 5.98091 14.902 6.02442Z" fill="#90C6DE"/>
<path d="M11.8563 6.242C11.7257 6.242 11.7257 6.37253 11.8563 6.37253C12.0303 6.37253 11.9868 6.242 11.8563 6.242Z" fill="#90C6DE"/>
<path d="M11.9651 6.35077C11.9216 6.37252 11.9216 6.37252 11.9651 6.35077Z" fill="#90C6DE"/>
<path d="M10.1378 5.28482C10.1378 5.41535 10.5076 5.26307 10.6164 5.26307C11.0514 5.32833 10.9427 4.91499 10.5946 5.00201C10.7034 4.89324 10.5076 4.89324 10.4641 4.91499C10.3771 4.9585 10.1378 5.21956 10.1378 5.28482Z" fill="#90C6DE"/>
<path d="M9.0282 4.74095C9.0282 4.89324 9.33277 4.89324 9.33277 4.76271C9.31101 4.74095 9.0282 4.61043 9.0282 4.74095Z" fill="#90C6DE"/>
<path d="M9.65916 4.7192C9.52863 4.76271 9.44161 4.82797 9.31108 4.87148C9.50688 4.98026 9.57213 5.02377 9.78968 5.08903C9.8767 5.11078 10.029 5.17605 10.116 5.11078C10.1813 5.06727 10.116 5.02377 10.0725 5.00201C10.4206 4.89324 9.89846 4.65394 9.72442 4.7192C9.81144 4.67569 9.81144 4.63218 9.81144 4.54517C9.83319 4.54517 9.85495 4.54517 9.8767 4.54517C9.74618 4.45815 9.68091 4.32762 9.50687 4.37113C9.35459 4.41464 9.26758 4.58868 9.1153 4.63218C9.28933 4.69745 9.46337 4.7192 9.65916 4.7192C9.61565 4.7192 9.50688 4.76271 9.65916 4.7192Z" fill="#90C6DE"/>
<path d="M9.63751 5.65458C9.70277 5.65458 9.72452 5.61107 9.72452 5.56757C9.65926 5.56757 9.65926 5.56757 9.59399 5.61108C9.61575 5.63283 9.63751 5.63283 9.63751 5.65458Z" fill="#90C6DE"/>
<path d="M9.09353 4.41459C9.05003 4.37108 8.98476 4.34933 8.91949 4.37108C8.963 4.41459 9.02827 4.43635 9.09353 4.41459Z" fill="#90C6DE"/>
<path d="M11.182 5.32833C11.2255 5.32833 11.2473 5.30657 11.2473 5.26306C11.2037 5.26306 11.1385 5.28482 11.095 5.28482C11.095 5.30657 11.1385 5.32833 11.182 5.32833Z" fill="#90C6DE"/>
<path d="M3.67667 4.61041C3.65492 4.65392 3.63316 4.65392 3.67667 4.61041Z" fill="#90C6DE"/>
<path d="M3.19802 4.52339C3.41557 4.52339 3.13276 4.6104 3.30679 4.6104C3.13276 4.65391 3.26329 4.69742 3.32855 4.69742C3.32855 4.69742 3.78539 4.6104 3.80715 4.52339C3.65486 4.47988 3.54609 4.56689 3.41557 4.52339C3.28504 4.47988 2.95872 4.41461 2.8717 4.56689C3.00223 4.58865 3.08925 4.52339 3.19802 4.52339Z" fill="#90C6DE"/>
<path d="M5.3953 4.50162C5.46056 4.50162 5.59109 4.47987 5.6346 4.43636C5.59109 4.08828 5.19951 4.50162 5.3953 4.50162Z" fill="#90C6DE"/>
<path d="M5.13428 4.6104C5.13428 4.58864 5.11252 4.56689 5.11252 4.54514C5.19954 4.54514 5.24305 4.54514 5.2213 4.45812C5.11252 4.47987 5.09077 4.47987 5.11252 4.41461C5.00375 4.3711 4.87323 4.47987 4.87323 4.58864C4.87323 4.65391 5.11253 4.63215 5.13428 4.6104Z" fill="#90C6DE"/>
<path d="M4.65556 4.61041C4.61205 4.61041 4.41626 4.63217 4.41626 4.69743C4.41626 4.78445 4.72082 4.65392 4.78608 4.65392C4.74257 4.63217 4.69907 4.61041 4.65556 4.61041Z" fill="#90C6DE"/>
<path d="M4.63373 4.52346C4.67724 4.52346 4.72075 4.52346 4.76426 4.50171C4.67724 4.4582 4.59022 4.43644 4.5032 4.43644C4.5032 4.43644 4.85128 4.19714 4.74251 4.19714C4.67724 4.19714 4.39443 4.37118 4.39443 4.43644C4.41619 4.41469 4.43794 4.41469 4.48145 4.43644C4.39443 4.41469 4.30742 4.43644 4.2204 4.47995C4.39443 4.58872 4.43794 4.52346 4.63373 4.52346Z" fill="#90C6DE"/>
<path d="M-1.39205 5.0238C-1.30503 5.0238 -1.1745 5.48064 -1.00046 5.19783C-0.956951 5.11081 -0.826428 5.19783 -0.73941 5.19783C-0.782919 5.21959 -1.10923 5.32836 -1.10923 5.35011C-1.10923 5.48064 -0.804672 5.37187 -0.717654 5.43713C-0.826427 5.45889 -0.935199 5.45889 -1.04397 5.45889C-1.04397 5.56766 -0.913445 5.63292 -0.826427 5.67643C-0.565373 5.80696 -0.717657 5.63292 -0.543621 5.50239C-0.456603 5.43713 -0.456601 5.39362 -0.413092 5.3066C-0.30432 5.08906 -0.260812 5.19783 -0.10853 5.21959C-0.195549 5.21959 -0.195543 5.24134 -0.13028 5.3066C-0.0432615 5.43713 -0.130281 5.35011 -0.152035 5.48064C0.000246158 5.50239 0.0220007 5.43713 0.0655097 5.56766C0.174282 5.52415 0.239543 5.43713 0.348316 5.41538C0.261298 5.28485 0.0219994 5.19783 -0.0650187 5.17608C0.0437539 5.17608 -0.282567 5.00204 -0.326076 5.00204C-0.478357 4.95853 -0.434843 4.84976 -0.56537 4.93678C-0.56537 4.69748 -0.913442 4.67572 -0.782915 5.0238C-0.869933 5.00204 -0.869935 4.89327 -0.913444 4.84976C-1.00046 4.76274 -1.13099 4.91502 -1.02222 4.95853C-1.08748 4.89327 -1.19626 4.93678 -1.08748 4.828C-1.1745 4.80625 -1.30503 4.7845 -1.37029 4.828C-1.47906 4.87151 -1.54433 5.0238 -1.39205 5.0238Z" fill="#90C6DE"/>
<path d="M-0.478535 4.78447C-0.478535 4.87149 -0.173976 4.84974 -0.108712 4.84974C-0.173976 4.87149 -0.239239 4.87149 -0.326257 4.87149C-0.304503 5.00202 -0.0869576 4.93676 6.04804e-05 4.93676C0.130588 5.17606 0.50042 4.87149 0.630947 4.78447C0.522174 4.56693 0.304625 4.69746 0.130589 4.69746C0.130589 4.65395 0.130589 4.61044 0.130589 4.58868C0.0435708 4.61044 6.18095e-05 4.71921 -0.0869563 4.6757C-0.195729 4.63219 -0.239234 4.58868 -0.348007 4.61044C-0.348007 4.63219 -0.326257 4.63219 -0.326257 4.65395C-0.413275 4.6757 -0.478534 4.6757 -0.565552 4.65395C-0.543797 4.71921 -0.522044 4.74097 -0.478535 4.78447C-0.478535 4.89325 -0.522044 4.74097 -0.478535 4.78447Z" fill="#90C6DE"/>
<path d="M15.3371 6.19854C15.4459 6.19854 15.5764 6.11152 15.7069 6.11152C15.8592 6.11152 16.055 6.17678 16.1203 5.95924C15.9897 5.91573 15.5982 5.71994 15.5982 5.95924C15.4459 5.95924 15.4241 5.74169 15.2283 5.82871C15.0108 5.93749 15.1413 6.19854 15.3371 6.19854Z" fill="#90C6DE"/>
<path d="M0.000140553 9.94024C0.0871586 9.94024 0.0654041 9.85323 0.108913 9.80972C0.174177 9.7227 -0.0433645 9.70094 0.0654081 9.83147C0.00014453 9.85322 -0.108632 9.94024 0.000140553 9.94024Z" fill="#90C6DE"/>
<path d="M0.543914 13.8126C0.456896 13.7908 0.348126 13.7691 0.261108 13.7908C0.304617 13.8126 0.456896 13.8561 0.543914 13.8126C0.478651 13.8344 0.456896 13.7908 0.543914 13.8126Z" fill="#90C6DE"/>
<path d="M1.63178 13.7256C1.54476 13.7473 1.45775 13.7691 1.37073 13.8126C1.34898 13.9431 1.61003 13.7908 1.63178 13.7256C1.61003 13.7691 1.54476 13.7473 1.63178 13.7256Z" fill="#90C6DE"/>
<path d="M4.13347 17.0323C4.17698 17.0323 4.19874 17.0105 4.22049 16.967C4.17699 16.967 4.13347 16.967 4.08997 16.9888C4.11172 17.0323 4.11172 17.0323 4.13347 17.0323Z" fill="#90C6DE"/>
<path d="M3.4373 7.56902C3.41554 7.56902 3.35028 7.69954 3.39379 7.7213C3.4808 7.76481 3.58958 7.69954 3.65484 7.65604C3.72011 7.50375 3.48081 7.56902 3.4373 7.56902Z" fill="#90C6DE"/>
<path d="M4.76422 7.37327C4.76422 7.46028 4.98177 7.52555 4.98177 7.46028C4.98177 7.39502 4.76422 7.28625 4.76422 7.37327Z" fill="#90C6DE"/>
<path d="M6.46133 6.63355C6.26554 6.48127 6.35256 6.67706 6.28729 6.67706C6.35256 6.67706 6.39606 6.6553 6.46133 6.63355C6.43957 6.6553 6.41782 6.59004 6.46133 6.63355Z" fill="#90C6DE"/>
<path d="M15.8157 6.59007C15.8592 6.59007 15.9028 6.59007 15.9463 6.59007C15.9245 6.32902 15.6199 6.39428 15.5112 6.54656C15.5764 6.52481 15.7287 6.54656 15.8157 6.59007Z" fill="#90C6DE"/>
<path d="M16.7295 6.1985C16.8818 6.1985 17.034 6.11148 16.8165 6.06797C16.686 6.04622 16.4467 6.06798 16.3379 5.98096C16.4249 6.11148 16.5554 6.1985 16.7295 6.1985Z" fill="#90C6DE"/>
<path d="M15.6199 6.35083C15.6199 6.28556 15.4894 6.28556 15.4894 6.35083C15.5111 6.43785 15.6199 6.41609 15.6199 6.35083Z" fill="#90C6DE"/>
</g>
</svg>
