<svg xmlns="http://www.w3.org/2000/svg" id="Layer_1" viewBox="0 0 184 100"><defs><style>.cls-1{fill:#56575a;stroke-width:0px;}</style></defs><path class="cls-1" d="M114.05,39.07l-8.61,16.38c-.18.35-.72.35-.9,0l-8.61-16.38c-.08-.17-.25-.27-.43-.27h-4.17c-.28,0-.47.3-.33.55l13.56,25.39c.18.35.68.35.88,0l13.56-25.39c.13-.25-.05-.55-.33-.55h-4.17c-.2,0-.37.1-.45.27h0Z"></path><path class="cls-1" d="M118.94,60.93l8.61-16.38c.18-.35.72-.35.9,0l8.61,16.38c.08.17.25.27.43.27h4.17c.28,0,.47-.3.33-.55l-13.56-25.39c-.18-.35-.68-.35-.88,0l-13.56,25.39c-.13.25.05.55.33.55h4.17c.18-.02.37-.12.45-.27h0Z"></path><path class="cls-1" d="M60.11,50.88c1.8-.9,2.92-2.85,2.92-5.24,0-4.09-3.19-6.86-7.67-6.86h-12.89c-.28,0-.5.22-.5.5v25.2c0,.28.22.5.5.5h12.34c6.17,0,9.42-2.65,9.42-7.86s-4.12-6.26-4.12-6.26h0ZM46.8,42.59h7.66c2.82,0,4.25,1.2,4.25,3.44s-1.43,3.44-4.25,3.44h-7.66c-.27,0-.5-.22-.5-.5v-5.87c0-.28.22-.5.5-.5h0ZM54.55,61.18h-7.76c-.28,0-.5-.22-.5-.5v-6.96c0-.27.22-.5.5-.5h7.76c3.7,0,5.35,1.05,5.35,3.97-.02,2.95-1.62,3.99-5.35,3.99h0Z"></path><path class="cls-1" d="M86.58,50.88c1.8-.9,2.92-2.85,2.92-5.24,0-4.09-3.19-6.86-7.67-6.86h-12.91c-.28,0-.5.22-.5.5v25.2c0,.28.22.5.5.5h12.34c6.17,0,9.42-2.65,9.42-7.86.02-5.07-4.1-6.26-4.1-6.26h0ZM73.27,42.59h7.66c2.82,0,4.25,1.2,4.25,3.44s-1.43,3.44-4.25,3.44h-7.66c-.28,0-.5-.22-.5-.5v-5.87c0-.28.22-.5.5-.5h0ZM81.01,61.18h-7.76c-.27,0-.5-.22-.5-.5v-6.96c0-.27.22-.5.5-.5h7.76c3.7,0,5.35,1.05,5.35,3.97s-1.62,3.99-5.35,3.99h0Z"></path></svg>