<svg width="24" height="24" viewBox="0 0 24 24" fill="none" xmlns="http://www.w3.org/2000/svg">
<g clip-path="url(#clip0_6144_24271)">
<g clip-path="url(#clip1_6144_24271)">
<mask id="mask0_6144_24271" style="mask-type:luminance" maskUnits="userSpaceOnUse" x="-4" y="0" width="32" height="24">
<rect x="-4" width="32" height="24" fill="white"/>
</mask>
<g mask="url(#mask0_6144_24271)">
<path fill-rule="evenodd" clip-rule="evenodd" d="M-4 0V24H28V0H-4Z" fill="#0168B4"/>
<mask id="mask1_6144_24271" style="mask-type:luminance" maskUnits="userSpaceOnUse" x="-4" y="0" width="32" height="24">
<path fill-rule="evenodd" clip-rule="evenodd" d="M-4 0V24H28V0H-4Z" fill="white"/>
</mask>
<g mask="url(#mask1_6144_24271)">
<path fill-rule="evenodd" clip-rule="evenodd" d="M-4 0V3H28V0H-4Z" fill="#E93C43"/>
<path fill-rule="evenodd" clip-rule="evenodd" d="M-4 21V24H28V21H-4Z" fill="#E93C43"/>
<path d="M12 18C8.68629 18 6 15.3137 6 12C6 8.68629 8.68629 6 12 6C15.3137 6 18 8.68629 18 12C18 15.3137 15.3137 18 12 18Z" fill="#F7FCFF"/>
<path d="M12 20C7.58172 20 4 16.4183 4 12C4 7.58172 7.58172 4 12 4C16.4183 4 20 7.58172 20 12C20 16.4183 16.4183 20 12 20Z" fill="white"/>
<path fill-rule="evenodd" clip-rule="evenodd" d="M12 19C15.866 19 19 15.866 19 12C19 8.13401 15.866 5 12 5C8.13401 5 5 8.13401 5 12C5 15.866 8.13401 19 12 19Z" stroke="#9C4C17" stroke-width="0.5"/>
<path fill-rule="evenodd" clip-rule="evenodd" d="M11.5729 4.08276L11.4176 4.41765C11.6738 4.55674 11.7709 4.87152 11.7709 5.06221C11.7709 5.25094 11.6708 5.3949 11.4176 5.5271L11.5729 5.87327C11.679 5.81787 11.7839 5.77127 11.883 5.7272C12.2387 5.56921 12.5209 5.44384 12.5209 5.06221C12.5209 4.59591 12.0934 4.36451 11.6318 4.11468L11.5729 4.08276ZM13.8133 4.29262L13.5718 4.57175C13.7796 4.77604 13.7863 5.10541 13.7337 5.28871C13.6817 5.47013 13.5457 5.5809 13.266 5.63821L13.3198 6.01376C13.437 5.98974 13.5507 5.97386 13.6582 5.95885C14.0436 5.90501 14.3495 5.86228 14.4546 5.49544C14.5832 5.0472 14.236 4.70692 13.8611 4.33954L13.8133 4.29262ZM15.6082 5.32231L15.9207 5.126L15.9528 5.18485C16.2038 5.64577 16.4364 6.0727 16.1824 6.46378C15.9745 6.78383 15.6696 6.73527 15.2852 6.67407C15.1781 6.657 15.0647 6.63895 14.9456 6.62764L15.0039 6.25277C15.2882 6.27976 15.4506 6.21357 15.5534 6.0553C15.6573 5.89537 15.7472 5.57845 15.6082 5.32231ZM17.6917 6.51504L17.3371 6.61759C17.4001 6.90214 17.2263 7.18198 17.0824 7.30708C16.94 7.4309 16.7656 7.44976 16.4998 7.34545L16.3404 7.68972C16.4518 7.73343 16.5558 7.78202 16.6541 7.82797L16.6541 7.82798C17.0066 7.99274 17.2864 8.12348 17.5744 7.87312C17.9264 7.56719 17.8205 7.09271 17.7062 6.58044L17.6917 6.51504ZM18.6314 8.34614L19.0005 8.3453L18.9964 8.41218C18.9651 8.9361 18.9361 9.42138 18.5135 9.61845C18.1676 9.77973 17.9347 9.57693 17.6412 9.32138C17.5593 9.2501 17.4728 9.17473 17.3777 9.102L17.6259 8.81501C17.8526 8.98855 18.0254 9.01848 18.1965 8.93872C18.3693 8.85813 18.6135 8.63704 18.6314 8.34614ZM19.7511 10.4834L19.3978 10.3763C19.2958 10.6493 18.9976 10.7893 18.8087 10.8159C18.6218 10.8421 18.4653 10.763 18.2992 10.5307L17.978 10.7326C18.0476 10.83 18.1084 10.9274 18.1658 11.0195C18.3718 11.3497 18.5352 11.6117 18.9131 11.5586C19.3749 11.4937 19.5445 11.0381 19.7277 10.5462L19.7511 10.4834ZM19.5514 12.531L19.8614 12.7313L19.8216 12.7852C19.51 13.2075 19.2213 13.5987 18.7596 13.5338C18.3816 13.4807 18.2968 13.1837 18.1898 12.8096C18.16 12.7052 18.1284 12.5949 18.0883 12.4821L18.4527 12.3765C18.5484 12.6456 18.6771 12.7648 18.8639 12.7911C19.0528 12.8176 19.378 12.7652 19.5514 12.531ZM19.3355 14.936L19.0976 14.6538C18.8633 14.8271 18.537 14.7821 18.3641 14.7016C18.1931 14.6218 18.105 14.4702 18.0921 14.1849L17.7128 14.1793C17.7182 14.2989 17.7161 14.4136 17.7141 14.5221C17.707 14.9112 17.7013 15.22 18.0472 15.3813C18.4698 15.5784 18.8602 15.2887 19.2817 14.9759L19.3355 14.936ZM18.0609 16.5496L18.2118 16.8864L18.1491 16.91C17.6577 17.0944 17.2025 17.2653 16.8506 16.9594C16.5626 16.709 16.6531 16.4137 16.7672 16.0417C16.7991 15.9379 16.8327 15.8282 16.8605 15.7118L17.2236 15.8217C17.1573 16.0995 17.2002 16.2695 17.3427 16.3933C17.4866 16.5184 17.7879 16.6516 18.0609 16.5496ZM16.5857 18.442L16.5334 18.0766C16.2429 18.0995 15.99 17.8884 15.8861 17.7285C15.7833 17.5702 15.7889 17.3949 15.9292 17.1462L15.6105 16.9404C15.5517 17.0446 15.4891 17.1408 15.4299 17.2318C15.2177 17.558 15.0493 17.8169 15.2571 18.1369C15.5111 18.528 15.9957 18.4892 16.5189 18.4474L16.5857 18.442ZM14.6323 19.124L14.5754 19.4887L14.51 19.4742C13.9974 19.3613 13.5226 19.2567 13.3941 18.8085C13.2889 18.4417 13.5256 18.2433 13.824 17.9934C13.9072 17.9237 13.9952 17.85 14.0819 17.7675L14.3265 18.0575C14.1196 18.2544 14.063 18.4204 14.115 18.6018C14.1676 18.7851 14.3478 19.0609 14.6323 19.124ZM12.3657 19.9171L12.5209 19.5822C12.2648 19.4431 12.1676 19.1283 12.1676 18.9376C12.1676 18.7489 12.2678 18.6049 12.5209 18.4727L12.3657 18.1266C12.2596 18.182 12.1547 18.2286 12.0555 18.2726C11.6999 18.4306 11.4176 18.556 11.4176 18.9376C11.4176 19.4039 11.8452 19.6353 12.3068 19.8851L12.3657 19.9171ZM10.3668 19.4281L10.1253 19.7072L10.0774 19.6603C9.7026 19.2929 9.35539 18.9526 9.48392 18.5044C9.58911 18.1375 9.89497 18.0948 10.2804 18.041L10.2804 18.041C10.3879 18.026 10.5016 18.0101 10.6188 17.9861L10.6726 18.3616C10.3928 18.4189 10.2569 18.5297 10.2049 18.7111C10.1523 18.8944 10.1589 19.2238 10.3668 19.4281ZM8.01782 18.8738L8.33041 18.6775C8.19136 18.4214 8.28132 18.1045 8.38518 17.9445C8.48796 17.7863 8.65036 17.7201 8.93465 17.7471L8.993 17.3722C8.87386 17.3609 8.7605 17.3428 8.65332 17.3258C8.269 17.2646 7.96402 17.216 7.75617 17.5361C7.50221 17.9271 7.73475 18.3541 7.9858 18.815L8.01782 18.8738ZM6.60148 17.3822L6.2469 17.4848L6.23234 17.4194C6.11806 16.9071 6.0122 16.4326 6.36412 16.1267C6.65214 15.8763 6.93192 16.0071 7.28448 16.1719C7.38281 16.2178 7.4868 16.2664 7.59821 16.3101L7.43879 16.6544C7.17295 16.5501 6.9986 16.5689 6.85617 16.6927C6.71225 16.8179 6.53842 17.0977 6.60148 17.3822ZM4.93809 15.6545L5.30721 15.6537C5.32502 15.3628 5.56925 15.1417 5.74208 15.0611C5.91312 14.9814 6.08592 15.0113 6.31271 15.1848L6.56085 14.8978C6.4658 14.8251 6.37923 14.7497 6.29738 14.6785C6.00389 14.4229 5.77098 14.2201 5.42512 14.3814C5.0025 14.5784 4.97347 15.0637 4.94213 15.5877L4.93809 15.6545ZM4.54072 13.6235L4.18749 13.5164L4.2109 13.4536C4.39405 12.9617 4.5637 12.5061 5.02546 12.4412C5.40337 12.3881 5.56681 12.6502 5.77276 12.9804C5.83019 13.0725 5.89094 13.1699 5.96057 13.2672L5.63937 13.4691C5.47323 13.2368 5.31673 13.1577 5.12984 13.1839C4.94101 13.2105 4.64281 13.3505 4.54072 13.6235ZM4.07715 11.2685L4.38718 11.4689C4.56055 11.2346 4.88579 11.1822 5.07463 11.2087C5.26152 11.235 5.39014 11.3542 5.48582 11.6233L5.85023 11.5177C5.81013 11.405 5.77858 11.2946 5.74875 11.1903L5.74875 11.1903C5.64179 10.8161 5.55692 10.5192 5.17901 10.466C4.71724 10.4011 4.42859 10.7923 4.11696 11.2147L4.07715 11.2685ZM4.84095 9.34605L4.60304 9.06383L4.65686 9.02393C5.07836 8.71117 5.46877 8.42147 5.89138 8.61854C6.23725 8.77982 6.2316 9.08859 6.22449 9.47769C6.22251 9.58621 6.22041 9.70097 6.22579 9.82053L5.84644 9.81492C5.8336 9.52964 5.74546 9.37803 5.57442 9.29827C5.40159 9.21768 5.07524 9.1727 4.84095 9.34605ZM5.72676 7.11338L5.87767 7.45025C6.15067 7.3482 6.45198 7.48139 6.5959 7.60649C6.73833 7.73031 6.78127 7.90034 6.71498 8.17811L7.07808 8.28806C7.10586 8.17165 7.13951 8.06191 7.17133 7.95814C7.28542 7.58608 7.37595 7.29083 7.08794 7.04046C6.73602 6.73454 6.28088 6.9054 5.7895 7.08986L5.72676 7.11338ZM7.40512 5.9232L7.35291 5.55779L7.41971 5.55248C7.94289 5.5106 8.42749 5.47181 8.68146 5.86289C8.88931 6.18294 8.7209 6.4418 8.50867 6.76801C8.44948 6.85898 8.38689 6.9552 8.32809 7.05944L8.00937 6.85366C8.14965 6.60493 8.15524 6.42964 8.05246 6.27137C7.9486 6.11144 7.69567 5.90036 7.40512 5.9232ZM9.36317 4.51115L9.30626 4.87585C9.5908 4.93895 9.77096 5.21476 9.82352 5.39806C9.87554 5.57948 9.81894 5.74546 9.61206 5.94232L9.8567 6.23229C9.9434 6.14979 10.0314 6.07608 10.1146 6.00639C10.4129 5.75649 10.6497 5.55818 10.5445 5.19134C10.4159 4.7431 9.94117 4.63851 9.4286 4.52559C9.40685 4.5208 9.38503 4.51599 9.36317 4.51115Z" fill="#5B8C39"/>
<path fill-rule="evenodd" clip-rule="evenodd" d="M8.279 13.9869C8.279 13.9869 7.1792 13.9628 7.1792 14.4681C7.1792 14.9734 7.1792 15.5332 7.7291 15.2533C8.279 14.9734 8.9513 14.8628 9.30693 15.058C9.66255 15.2533 10.4912 15.65 11.6592 15.65C12.8272 15.65 12.7494 15.2533 13.8251 15.2533C14.9008 15.2533 16.8215 15.1676 16.3767 14.8179C15.9319 14.4681 15.4083 14.2467 15.0087 14.2467C14.609 14.2467 14.3025 14.2467 13.4622 13.8349C12.6219 13.423 11.6837 13.3857 10.7384 13.5185C9.79302 13.6513 9.66825 13.9869 9.10921 13.9869C8.55016 13.9869 8.279 13.9869 8.279 13.9869Z" fill="#247805"/>
<path d="M12.1 15.65C12.1706 15.8898 12.1707 15.8898 12.1708 15.8897L12.171 15.8897L12.1717 15.8895L12.1736 15.8889L12.1796 15.8871L12.2 15.8806C12.2172 15.875 12.2414 15.8669 12.2717 15.856C12.3323 15.8342 12.4173 15.8013 12.5187 15.756C12.7208 15.6656 12.9915 15.524 13.2637 15.3189C13.8085 14.9084 14.3764 14.2277 14.3764 13.1917V13.1838V13.1758V13.1679V13.1599V13.152V13.144V13.1361V13.1282V13.1203V13.1123V13.1044V13.0965V13.0886V13.0807V13.0729V13.065V13.0571V13.0492V13.0414V13.0335V13.0257V13.0178V13.01V13.0021V12.9943V12.9865V12.9787V12.9709V12.9631V12.9553V12.9475V12.9397V12.9319V12.9242V12.9164V12.9086V12.9009V12.8931V12.8854V12.8777V12.87V12.8622V12.8545V12.8468V12.8391V12.8314V12.8238V12.8161V12.8084V12.8008V12.7931V12.7855V12.7778V12.7702V12.7626V12.755V12.7474V12.7397V12.7322V12.7246V12.717V12.7094V12.7019V12.6943V12.6868V12.6792V12.6717V12.6642V12.6567V12.6491V12.6416V12.6342V12.6267V12.6192V12.6117V12.6043V12.5968V12.5894V12.5819V12.5745V12.5671V12.5597V12.5523V12.5449V12.5375V12.5302V12.5228V12.5154V12.5081V12.5007V12.4934V12.4861V12.4788V12.4715V12.4642V12.4569V12.4496V12.4424V12.4351V12.4278V12.4206V12.4134V12.4062V12.3989V12.3917V12.3846V12.3774V12.3702V12.363V12.3559V12.3487V12.3416V12.3345V12.3274V12.3203V12.3132V12.3061V12.299V12.2919V12.2849V12.2778V12.2708V12.2638V12.2568V12.2498V12.2428V12.2358V12.2288V12.2218V12.2149V12.2079V12.201V12.1941V12.1872V12.1803V12.1734V12.1665V12.1596V12.1528V12.1459V12.1391V12.1323V12.1255V12.1187V12.1119V12.1051V12.0983V12.0916V12.0848V12.0781V12.0713V12.0646V12.0579V12.0512V12.0446V12.0379V12.0312V12.0246V12.018V12.0113V12.0047V11.9981V11.9915V11.985V11.9784V11.9718V11.9653V11.9588V11.9523V11.9458V11.9393V11.9328V11.9263V11.9199V11.9134V11.907V11.9006V11.8942V11.8878V11.8814V11.875V11.8687V11.8623V11.856V11.8497V11.8434V11.8371V11.8308V11.8245V11.8183V11.812V11.8058V11.7996V11.7934V11.7872V11.781V11.7749V11.7687V11.7626V11.7565V11.7504V11.7443V11.7382V11.7321V11.7261V11.72V11.714V11.708V11.702V11.696V11.69V11.684V11.6781V11.6722V11.6662V11.6603V11.6544V11.6486V11.6427V11.6369V11.631V11.6252V11.6194V11.6136V11.6078V11.6021V11.5963V11.5906V11.5848V11.5791V11.5734V11.5678V11.5621V11.5565V11.5508V11.5452V11.5396V11.534V11.5284V11.5229V11.5173V11.5118V11.5063V11.5008V11.4953V11.4898V11.4844V11.4789V11.4735V11.4681V11.4627V11.4573V11.452V11.4466V11.4413V11.436V11.4307V11.4254V11.4201V11.4149V11.4096V11.4044V11.3992V11.394V11.3888V11.3837V11.3785V11.3734V11.3683V11.3632V11.3581V11.3531V11.348V11.343V11.338V11.333V11.328V11.323V11.3181V11.3131V11.3082V11.3033V11.2985V11.2936V11.2887V11.2839V11.2791V11.2743V11.2695V11.2647V11.26V11.2553V11.2506V11.2459V11.2412V11.2365V11.2319V11.2272V11.2226V11.218V11.2135V11.2089V11.2044V11.1998V11.1953V11.1908V11.1864V11.1819V11.1775V11.1731V11.1687V11.1643V11.1599V11.1556V11.1512V11.1469V11.1426V11.1384V11.1341V11.1299V11.1256V11.1214V11.1173V11.1131V11.1089V11.1048V11.1007V11.0966V11.0925V11.0885V11.0844V11.0804V11.0764V11.0724V11.0685V11.0645V11.0606V11.0567V11.0528V11.049V11.0451V11.0413V11.0375V11.0337V11.0299V11.0261V11.0224V11.0187V11.015V11.0113V11.0077V11.004V11.0004V10.9968V10.9932V10.9897V10.9861V10.9826V10.9791V10.9756V10.9722V10.9687V10.9653V10.9619V10.9585V10.9552V10.9518V10.9485V10.9452V10.9419V10.9386V10.9354V10.9322V10.929V10.9258V10.9226V10.9195V10.9164V10.9133V10.9102V10.9071V10.9041V10.9011V10.8981V10.8951V10.8922V10.8892V10.8863V10.8834V10.8806V10.8777V10.8749V10.8721V10.8693V10.8665V10.8638V10.861V10.8583V10.8557V10.853V10.8504V10.8478V10.8452V10.8426V10.84V10.8375V10.835V10.8325V10.83V10.8276V10.8252V10.8228V10.8204V10.818V10.8157V10.8134V10.8111V10.8088V10.8066V10.8044V10.8022V10.8V10.7978V10.7957V10.7936V10.7915V10.7894V10.7874V10.7854V10.7834V10.7814V10.7794V10.7775V10.7756V10.7737V10.7718V10.77V10.7682V10.7664V10.7646V10.7629V10.7611V10.7594V10.7577V10.7561V10.7545V10.7528V10.7513V10.7497V10.7481V10.7466V10.7451V10.7437V10.7422V10.7408V10.7394V10.738V10.7367V10.7353V10.734V10.7328V10.7315V10.7303V10.7291V10.7279V10.7267V10.7256V10.7245V10.7234V10.7223V10.7213V10.7202V10.7193V10.7183V10.7173V10.7164V10.7155V10.7147V10.7138V10.713V10.7122V10.7114V10.7107V10.71V10.7093V10.7086V10.7079V10.7073V10.7067V10.7062V10.7056V10.7051V10.7046V10.7041V10.7037V10.7032V10.7028V10.7025V10.7021V10.7018V10.7015V10.7012V10.701V10.7008V10.7006V10.7004V10.7003V10.7002V10.7001V10.7V10.7L14.1264 10.7H14.3764V10.45H14.1264H10.0737H9.82373V10.7H10.0737L9.82373 10.7V10.7V10.7001V10.7002V10.7003V10.7005V10.7007V10.7009V10.7012V10.7015V10.7018V10.7022V10.7025V10.7029V10.7034V10.7039V10.7043V10.7049V10.7054V10.706V10.7066V10.7073V10.708V10.7087V10.7094V10.7102V10.711V10.7118V10.7126V10.7135V10.7144V10.7154V10.7163V10.7173V10.7183V10.7194V10.7205V10.7216V10.7227V10.7239V10.7251V10.7263V10.7275V10.7288V10.7301V10.7314V10.7328V10.7342V10.7356V10.737V10.7385V10.74V10.7415V10.7431V10.7447V10.7463V10.7479V10.7496V10.7512V10.753V10.7547V10.7565V10.7582V10.7601V10.7619V10.7638V10.7657V10.7676V10.7696V10.7715V10.7735V10.7756V10.7776V10.7797V10.7818V10.7839V10.7861V10.7883V10.7905V10.7927V10.795V10.7972V10.7995V10.8019V10.8042V10.8066V10.809V10.8115V10.8139V10.8164V10.8189V10.8214V10.824V10.8266V10.8292V10.8318V10.8345V10.8371V10.8398V10.8426V10.8453V10.8481V10.8509V10.8537V10.8565V10.8594V10.8623V10.8652V10.8682V10.8711V10.8741V10.8771V10.8801V10.8832V10.8863V10.8894V10.8925V10.8956V10.8988V10.902V10.9052V10.9084V10.9117V10.915V10.9183V10.9216V10.9249V10.9283V10.9317V10.9351V10.9385V10.942V10.9455V10.949V10.9525V10.956V10.9596V10.9632V10.9668V10.9704V10.9741V10.9777V10.9814V10.9851V10.9889V10.9926V10.9964V11.0002V11.004V11.0078V11.0117V11.0156V11.0195V11.0234V11.0273V11.0313V11.0353V11.0393V11.0433V11.0473V11.0514V11.0554V11.0595V11.0636V11.0678V11.0719V11.0761V11.0803V11.0845V11.0887V11.093V11.0973V11.1016V11.1059V11.1102V11.1145V11.1189V11.1233V11.1277V11.1321V11.1365V11.141V11.1455V11.1499V11.1545V11.159V11.1635V11.1681V11.1727V11.1773V11.1819V11.1865V11.1912V11.1958V11.2005V11.2052V11.21V11.2147V11.2195V11.2242V11.229V11.2338V11.2386V11.2435V11.2483V11.2532V11.2581V11.263V11.2679V11.2729V11.2778V11.2828V11.2878V11.2928V11.2978V11.3028V11.3079V11.313V11.318V11.3231V11.3283V11.3334V11.3385V11.3437V11.3489V11.3541V11.3593V11.3645V11.3697V11.375V11.3803V11.3855V11.3908V11.3961V11.4015V11.4068V11.4122V11.4175V11.4229V11.4283V11.4337V11.4391V11.4446V11.45V11.4555V11.461V11.4665V11.472V11.4775V11.4831V11.4886V11.4942V11.4997V11.5053V11.5109V11.5166V11.5222V11.5278V11.5335V11.5392V11.5448V11.5505V11.5562V11.562V11.5677V11.5734V11.5792V11.585V11.5907V11.5965V11.6023V11.6082V11.614V11.6198V11.6257V11.6316V11.6374V11.6433V11.6492V11.6551V11.6611V11.667V11.6729V11.6789V11.6849V11.6908V11.6968V11.7028V11.7088V11.7149V11.7209V11.7269V11.733V11.7391V11.7451V11.7512V11.7573V11.7634V11.7696V11.7757V11.7818V11.788V11.7941V11.8003V11.8065V11.8127V11.8189V11.8251V11.8313V11.8375V11.8437V11.85V11.8562V11.8625V11.8688V11.875V11.8813V11.8876V11.8939V11.9003V11.9066V11.9129V11.9192V11.9256V11.932V11.9383V11.9447V11.9511V11.9575V11.9639V11.9703V11.9767V11.9831V11.9895V11.996V12.0024V12.0089V12.0153V12.0218V12.0283V12.0348V12.0413V12.0478V12.0543V12.0608V12.0673V12.0738V12.0804V12.0869V12.0934V12.1V12.1065V12.1131V12.1197V12.1263V12.1328V12.1394V12.146V12.1526V12.1592V12.1659V12.1725V12.1791V12.1857V12.1924V12.199V12.2057V12.2123V12.219V12.2256V12.2323V12.239V12.2457V12.2523V12.259V12.2657V12.2724V12.2791V12.2858V12.2926V12.2993V12.306V12.3127V12.3195V12.3262V12.3329V12.3397V12.3464V12.3532V12.3599V12.3667V12.3734V12.3802V12.387V12.3938V12.4005V12.4073V12.4141V12.4209V12.4277V12.4345V12.4413V12.4481V12.4549V12.4617V12.4685V12.4753V12.4821V12.4889V12.4957V12.5026V12.5094V12.5162V12.523V12.5299V12.5367V12.5435V12.5504V12.5572V12.564V12.5709V12.5777V12.5846V12.5914V12.5983V12.6051V12.612V12.6188V12.6257V12.6325V12.6394V12.6462V12.6531V12.6599V12.6668V12.6737V12.6805V12.6874V12.6942V12.7011V12.708V12.7148V12.7217V12.7286V12.756V12.8109V12.8383V12.852V12.8657V12.8931V12.9205V12.9478V12.9751V13.0296V13.0839V13.1109V13.1379V13.1917C9.82373 14.2017 10.3934 14.8816 10.9347 15.2969C11.2059 15.5049 11.4757 15.6516 11.6771 15.7463C11.7782 15.7937 11.8629 15.8285 11.9232 15.8518C11.9533 15.8634 11.9774 15.8721 11.9945 15.8781L12.0147 15.885L12.0206 15.887L12.0225 15.8876L12.0231 15.8878L12.0234 15.8879C12.0235 15.8879 12.0236 15.888 12.1 15.65ZM12.1 15.65L12.1706 15.8898L12.0968 15.9115L12.0236 15.888L12.1 15.65Z" fill="white" stroke="#565656" stroke-width="0.5"/>
<mask id="mask2_6144_24271" style="mask-type:luminance" maskUnits="userSpaceOnUse" x="9" y="10" width="6" height="7">
<path d="M12.1 15.65C12.1706 15.8898 12.1707 15.8898 12.1708 15.8897L12.171 15.8897L12.1717 15.8895L12.1736 15.8889L12.1796 15.8871L12.2 15.8806C12.2172 15.875 12.2414 15.8669 12.2717 15.856C12.3323 15.8342 12.4173 15.8013 12.5187 15.756C12.7208 15.6656 12.9915 15.524 13.2637 15.3189C13.8085 14.9084 14.3764 14.2277 14.3764 13.1917V13.1838V13.1758V13.1679V13.1599V13.152V13.144V13.1361V13.1282V13.1203V13.1123V13.1044V13.0965V13.0886V13.0807V13.0729V13.065V13.0571V13.0492V13.0414V13.0335V13.0257V13.0178V13.01V13.0021V12.9943V12.9865V12.9787V12.9709V12.9631V12.9553V12.9475V12.9397V12.9319V12.9242V12.9164V12.9086V12.9009V12.8931V12.8854V12.8777V12.87V12.8622V12.8545V12.8468V12.8391V12.8314V12.8238V12.8161V12.8084V12.8008V12.7931V12.7855V12.7778V12.7702V12.7626V12.755V12.7474V12.7397V12.7322V12.7246V12.717V12.7094V12.7019V12.6943V12.6868V12.6792V12.6717V12.6642V12.6567V12.6491V12.6416V12.6342V12.6267V12.6192V12.6117V12.6043V12.5968V12.5894V12.5819V12.5745V12.5671V12.5597V12.5523V12.5449V12.5375V12.5302V12.5228V12.5154V12.5081V12.5007V12.4934V12.4861V12.4788V12.4715V12.4642V12.4569V12.4496V12.4424V12.4351V12.4278V12.4206V12.4134V12.4062V12.3989V12.3917V12.3846V12.3774V12.3702V12.363V12.3559V12.3487V12.3416V12.3345V12.3274V12.3203V12.3132V12.3061V12.299V12.2919V12.2849V12.2778V12.2708V12.2638V12.2568V12.2498V12.2428V12.2358V12.2288V12.2218V12.2149V12.2079V12.201V12.1941V12.1872V12.1803V12.1734V12.1665V12.1596V12.1528V12.1459V12.1391V12.1323V12.1255V12.1187V12.1119V12.1051V12.0983V12.0916V12.0848V12.0781V12.0713V12.0646V12.0579V12.0512V12.0446V12.0379V12.0312V12.0246V12.018V12.0113V12.0047V11.9981V11.9915V11.985V11.9784V11.9718V11.9653V11.9588V11.9523V11.9458V11.9393V11.9328V11.9263V11.9199V11.9134V11.907V11.9006V11.8942V11.8878V11.8814V11.875V11.8687V11.8623V11.856V11.8497V11.8434V11.8371V11.8308V11.8245V11.8183V11.812V11.8058V11.7996V11.7934V11.7872V11.781V11.7749V11.7687V11.7626V11.7565V11.7504V11.7443V11.7382V11.7321V11.7261V11.72V11.714V11.708V11.702V11.696V11.69V11.684V11.6781V11.6722V11.6662V11.6603V11.6544V11.6486V11.6427V11.6369V11.631V11.6252V11.6194V11.6136V11.6078V11.6021V11.5963V11.5906V11.5848V11.5791V11.5734V11.5678V11.5621V11.5565V11.5508V11.5452V11.5396V11.534V11.5284V11.5229V11.5173V11.5118V11.5063V11.5008V11.4953V11.4898V11.4844V11.4789V11.4735V11.4681V11.4627V11.4573V11.452V11.4466V11.4413V11.436V11.4307V11.4254V11.4201V11.4149V11.4096V11.4044V11.3992V11.394V11.3888V11.3837V11.3785V11.3734V11.3683V11.3632V11.3581V11.3531V11.348V11.343V11.338V11.333V11.328V11.323V11.3181V11.3131V11.3082V11.3033V11.2985V11.2936V11.2887V11.2839V11.2791V11.2743V11.2695V11.2647V11.26V11.2553V11.2506V11.2459V11.2412V11.2365V11.2319V11.2272V11.2226V11.218V11.2135V11.2089V11.2044V11.1998V11.1953V11.1908V11.1864V11.1819V11.1775V11.1731V11.1687V11.1643V11.1599V11.1556V11.1512V11.1469V11.1426V11.1384V11.1341V11.1299V11.1256V11.1214V11.1173V11.1131V11.1089V11.1048V11.1007V11.0966V11.0925V11.0885V11.0844V11.0804V11.0764V11.0724V11.0685V11.0645V11.0606V11.0567V11.0528V11.049V11.0451V11.0413V11.0375V11.0337V11.0299V11.0261V11.0224V11.0187V11.015V11.0113V11.0077V11.004V11.0004V10.9968V10.9932V10.9897V10.9861V10.9826V10.9791V10.9756V10.9722V10.9687V10.9653V10.9619V10.9585V10.9552V10.9518V10.9485V10.9452V10.9419V10.9386V10.9354V10.9322V10.929V10.9258V10.9226V10.9195V10.9164V10.9133V10.9102V10.9071V10.9041V10.9011V10.8981V10.8951V10.8922V10.8892V10.8863V10.8834V10.8806V10.8777V10.8749V10.8721V10.8693V10.8665V10.8638V10.861V10.8583V10.8557V10.853V10.8504V10.8478V10.8452V10.8426V10.84V10.8375V10.835V10.8325V10.83V10.8276V10.8252V10.8228V10.8204V10.818V10.8157V10.8134V10.8111V10.8088V10.8066V10.8044V10.8022V10.8V10.7978V10.7957V10.7936V10.7915V10.7894V10.7874V10.7854V10.7834V10.7814V10.7794V10.7775V10.7756V10.7737V10.7718V10.77V10.7682V10.7664V10.7646V10.7629V10.7611V10.7594V10.7577V10.7561V10.7545V10.7528V10.7513V10.7497V10.7481V10.7466V10.7451V10.7437V10.7422V10.7408V10.7394V10.738V10.7367V10.7353V10.734V10.7328V10.7315V10.7303V10.7291V10.7279V10.7267V10.7256V10.7245V10.7234V10.7223V10.7213V10.7202V10.7193V10.7183V10.7173V10.7164V10.7155V10.7147V10.7138V10.713V10.7122V10.7114V10.7107V10.71V10.7093V10.7086V10.7079V10.7073V10.7067V10.7062V10.7056V10.7051V10.7046V10.7041V10.7037V10.7032V10.7028V10.7025V10.7021V10.7018V10.7015V10.7012V10.701V10.7008V10.7006V10.7004V10.7003V10.7002V10.7001V10.7V10.7L14.1264 10.7H14.3764V10.45H14.1264H10.0737H9.82373V10.7H10.0737L9.82373 10.7V10.7V10.7001V10.7002V10.7003V10.7005V10.7007V10.7009V10.7012V10.7015V10.7018V10.7022V10.7025V10.7029V10.7034V10.7039V10.7043V10.7049V10.7054V10.706V10.7066V10.7073V10.708V10.7087V10.7094V10.7102V10.711V10.7118V10.7126V10.7135V10.7144V10.7154V10.7163V10.7173V10.7183V10.7194V10.7205V10.7216V10.7227V10.7239V10.7251V10.7263V10.7275V10.7288V10.7301V10.7314V10.7328V10.7342V10.7356V10.737V10.7385V10.74V10.7415V10.7431V10.7447V10.7463V10.7479V10.7496V10.7512V10.753V10.7547V10.7565V10.7582V10.7601V10.7619V10.7638V10.7657V10.7676V10.7696V10.7715V10.7735V10.7756V10.7776V10.7797V10.7818V10.7839V10.7861V10.7883V10.7905V10.7927V10.795V10.7972V10.7995V10.8019V10.8042V10.8066V10.809V10.8115V10.8139V10.8164V10.8189V10.8214V10.824V10.8266V10.8292V10.8318V10.8345V10.8371V10.8398V10.8426V10.8453V10.8481V10.8509V10.8537V10.8565V10.8594V10.8623V10.8652V10.8682V10.8711V10.8741V10.8771V10.8801V10.8832V10.8863V10.8894V10.8925V10.8956V10.8988V10.902V10.9052V10.9084V10.9117V10.915V10.9183V10.9216V10.9249V10.9283V10.9317V10.9351V10.9385V10.942V10.9455V10.949V10.9525V10.956V10.9596V10.9632V10.9668V10.9704V10.9741V10.9777V10.9814V10.9851V10.9889V10.9926V10.9964V11.0002V11.004V11.0078V11.0117V11.0156V11.0195V11.0234V11.0273V11.0313V11.0353V11.0393V11.0433V11.0473V11.0514V11.0554V11.0595V11.0636V11.0678V11.0719V11.0761V11.0803V11.0845V11.0887V11.093V11.0973V11.1016V11.1059V11.1102V11.1145V11.1189V11.1233V11.1277V11.1321V11.1365V11.141V11.1455V11.1499V11.1545V11.159V11.1635V11.1681V11.1727V11.1773V11.1819V11.1865V11.1912V11.1958V11.2005V11.2052V11.21V11.2147V11.2195V11.2242V11.229V11.2338V11.2386V11.2435V11.2483V11.2532V11.2581V11.263V11.2679V11.2729V11.2778V11.2828V11.2878V11.2928V11.2978V11.3028V11.3079V11.313V11.318V11.3231V11.3283V11.3334V11.3385V11.3437V11.3489V11.3541V11.3593V11.3645V11.3697V11.375V11.3803V11.3855V11.3908V11.3961V11.4015V11.4068V11.4122V11.4175V11.4229V11.4283V11.4337V11.4391V11.4446V11.45V11.4555V11.461V11.4665V11.472V11.4775V11.4831V11.4886V11.4942V11.4997V11.5053V11.5109V11.5166V11.5222V11.5278V11.5335V11.5392V11.5448V11.5505V11.5562V11.562V11.5677V11.5734V11.5792V11.585V11.5907V11.5965V11.6023V11.6082V11.614V11.6198V11.6257V11.6316V11.6374V11.6433V11.6492V11.6551V11.6611V11.667V11.6729V11.6789V11.6849V11.6908V11.6968V11.7028V11.7088V11.7149V11.7209V11.7269V11.733V11.7391V11.7451V11.7512V11.7573V11.7634V11.7696V11.7757V11.7818V11.788V11.7941V11.8003V11.8065V11.8127V11.8189V11.8251V11.8313V11.8375V11.8437V11.85V11.8562V11.8625V11.8688V11.875V11.8813V11.8876V11.8939V11.9003V11.9066V11.9129V11.9192V11.9256V11.932V11.9383V11.9447V11.9511V11.9575V11.9639V11.9703V11.9767V11.9831V11.9895V11.996V12.0024V12.0089V12.0153V12.0218V12.0283V12.0348V12.0413V12.0478V12.0543V12.0608V12.0673V12.0738V12.0804V12.0869V12.0934V12.1V12.1065V12.1131V12.1197V12.1263V12.1328V12.1394V12.146V12.1526V12.1592V12.1659V12.1725V12.1791V12.1857V12.1924V12.199V12.2057V12.2123V12.219V12.2256V12.2323V12.239V12.2457V12.2523V12.259V12.2657V12.2724V12.2791V12.2858V12.2926V12.2993V12.306V12.3127V12.3195V12.3262V12.3329V12.3397V12.3464V12.3532V12.3599V12.3667V12.3734V12.3802V12.387V12.3938V12.4005V12.4073V12.4141V12.4209V12.4277V12.4345V12.4413V12.4481V12.4549V12.4617V12.4685V12.4753V12.4821V12.4889V12.4957V12.5026V12.5094V12.5162V12.523V12.5299V12.5367V12.5435V12.5504V12.5572V12.564V12.5709V12.5777V12.5846V12.5914V12.5983V12.6051V12.612V12.6188V12.6257V12.6325V12.6394V12.6462V12.6531V12.6599V12.6668V12.6737V12.6805V12.6874V12.6942V12.7011V12.708V12.7148V12.7217V12.7286V12.756V12.8109V12.8383V12.852V12.8657V12.8931V12.9205V12.9478V12.9751V13.0296V13.0839V13.1109V13.1379V13.1917C9.82373 14.2017 10.3934 14.8816 10.9347 15.2969C11.2059 15.5049 11.4757 15.6516 11.6771 15.7463C11.7782 15.7937 11.8629 15.8285 11.9232 15.8518C11.9533 15.8634 11.9774 15.8721 11.9945 15.8781L12.0147 15.885L12.0206 15.887L12.0225 15.8876L12.0231 15.8878L12.0234 15.8879C12.0235 15.8879 12.0236 15.888 12.1 15.65ZM12.1 15.65L12.1706 15.8898L12.0968 15.9115L12.0236 15.888L12.1 15.65Z" fill="white" stroke="white" stroke-width="0.5"/>
</mask>
<g mask="url(#mask2_6144_24271)">
<path opacity="0.4" fill-rule="evenodd" clip-rule="evenodd" d="M10.1968 13.9088L12.1301 12.4846L14.163 14.0702V16.3271H10.1968V13.9088Z" fill="#84CEFF"/>
<path fill-rule="evenodd" clip-rule="evenodd" d="M10.2578 14.4124H13.8499V14.9124H10.2578V14.4124Z" fill="#006AC9"/>
<path fill-rule="evenodd" clip-rule="evenodd" d="M10.4424 14.9075H13.7582V15.1726H10.4424V14.9075Z" fill="#59C800"/>
<path fill-rule="evenodd" clip-rule="evenodd" d="M10.4424 15.2375H13.7582V15.7375H10.4424V15.2375Z" fill="#FFD800"/>
<path fill-rule="evenodd" clip-rule="evenodd" d="M14.7265 14.5106L12.1362 12.5326L12.1362 9.8623H14.7265V14.5106Z" fill="#F7D85D"/>
<path fill-rule="evenodd" clip-rule="evenodd" d="M11.5474 13.4224C11.5474 13.4224 11.6292 13.8473 11.6919 13.8473C11.7545 13.8473 11.8677 13.4224 11.8677 13.4224C11.8677 13.4224 11.8811 13.8473 11.9441 13.8473C12.0072 13.8473 11.9994 13.4912 12.1 13.4224C12.1364 13.3975 12.1824 13.8451 12.2384 13.8473C12.2854 13.8491 12.4004 13.4224 12.4004 13.4224C12.4004 13.4224 12.4352 13.8473 12.4895 13.8473C12.5439 13.8473 12.6526 13.4224 12.6526 13.4224V14.4949H11.5474V13.4224Z" fill="#F5F6F6"/>
<path fill-rule="evenodd" clip-rule="evenodd" d="M12.1001 14.8399C12.6596 14.8399 13.1132 14.7442 13.1132 14.6261C13.1132 14.5081 12.6596 14.4124 12.1001 14.4124C11.5405 14.4124 11.0869 14.5081 11.0869 14.6261C11.0869 14.7442 11.5405 14.8399 12.1001 14.8399Z" fill="#892E2E"/>
<path d="M10.2896 11.104L10.4978 10.9414L11.8987 12.3809L11.6904 12.5435L10.2896 11.104Z" fill="#A46031"/>
<path d="M10.5147 12.7674L10.2935 12.6191L11.6557 10.988L11.877 11.1363L10.5147 12.7674Z" fill="#892E2E"/>
<path d="M12.4077 11.3181L12.616 11.189L14.0168 12.332L13.8085 12.4611L12.4077 11.3181Z" fill="#A46031"/>
<path d="M12.7011 12.486L12.4419 12.31L13.7743 11.2356L14.0584 11.4696L12.7011 12.486Z" fill="#F5F6F6"/>
</g>
<path fill-rule="evenodd" clip-rule="evenodd" d="M10.5669 16.5347L11.2173 16.7384V17.2999H10.5669V16.5347Z" fill="#6699FF"/>
<path fill-rule="evenodd" clip-rule="evenodd" d="M10.1025 15.387L10.4685 15.5907V16.1522H10.1025V15.387Z" fill="#6699FF"/>
<path fill-rule="evenodd" clip-rule="evenodd" d="M13.5405 16.5347L12.8901 16.7384V17.2999H13.5405V16.5347Z" fill="#6699FF"/>
<path fill-rule="evenodd" clip-rule="evenodd" d="M14.0049 15.387L13.639 15.5907V16.1522H14.0049V15.387Z" fill="#6699FF"/>
<path d="M9.7479 16.5761C9.62884 16.5761 9.52973 16.5789 9.41642 16.5843C9.14178 16.5975 9.12454 16.5972 9.04874 16.566C9.00317 16.5473 8.95772 16.5171 8.89231 16.4634C8.73723 16.336 8.57008 16.0435 8.38867 15.5846L8.38921 15.5653C8.61313 15.0812 9.07358 15.0212 9.75844 15.3801C9.93884 15.4746 10.4648 15.7605 10.4605 15.7582C10.6997 15.8862 10.8675 15.9682 11.0324 16.0346C11.3742 16.1722 11.6965 16.2347 12.1098 16.2347C12.3581 16.2347 12.6456 16.1642 12.981 16.031C13.1748 15.954 13.3765 15.86 13.6225 15.7351C13.6549 15.7187 14.1696 15.451 14.2969 15.3897C14.5196 15.2825 14.6665 15.2306 14.7678 15.2306C14.7954 15.2306 14.8167 15.2305 14.8702 15.2302C14.9627 15.2296 15.0067 15.2296 15.0601 15.2302C15.5538 15.2362 15.7974 15.3185 15.7974 15.5756C15.7974 15.8185 15.6394 16.1482 15.3244 16.5668L15.3091 16.5759C14.6859 16.6599 14.3245 16.6599 14.2133 16.5711C14.183 16.5469 14.0999 16.5579 13.9472 16.6068C13.878 16.629 13.5075 16.7615 13.393 16.7994C12.9165 16.9574 12.5081 17.0423 12.0922 17.0423C11.4588 17.0423 10.7655 16.7966 10.0123 16.3058C10.1488 16.4793 10.0624 16.5761 9.7479 16.5761Z" fill="white"/>
<path fill-rule="evenodd" clip-rule="evenodd" d="M9.41642 16.5843C9.52973 16.5789 9.62884 16.5761 9.7479 16.5761C10.0624 16.5761 10.1488 16.4793 10.0123 16.3058C10.7655 16.7966 11.4588 17.0423 12.0922 17.0423C12.5081 17.0423 12.9165 16.9574 13.393 16.7994C13.4513 16.7801 13.5756 16.7364 13.6929 16.6952C13.8064 16.6553 13.9132 16.6177 13.9472 16.6068C14.0999 16.5579 14.183 16.5469 14.2133 16.5711C14.3245 16.6599 14.6859 16.6599 15.3091 16.5759L15.3244 16.5668C15.6394 16.1482 15.7974 15.8185 15.7974 15.5756C15.7974 15.3185 15.5538 15.2362 15.0601 15.2302C15.0067 15.2296 14.9627 15.2296 14.8702 15.2302C14.8167 15.2305 14.7954 15.2306 14.7678 15.2306C14.6665 15.2306 14.5196 15.2825 14.2969 15.3897C14.1962 15.4382 13.8534 15.6156 13.6983 15.6959C13.6572 15.7172 13.6293 15.7317 13.6225 15.7351C13.3765 15.86 13.1748 15.954 12.981 16.031C12.6456 16.1642 12.3581 16.2347 12.1098 16.2347C11.6965 16.2347 11.3742 16.1722 11.0324 16.0346C10.8675 15.9682 10.6997 15.8862 10.4605 15.7582C10.4648 15.7605 9.93884 15.4746 9.75844 15.3801C9.07358 15.0212 8.61313 15.0812 8.38921 15.5653L8.38867 15.5846C8.57008 16.0435 8.73723 16.336 8.89231 16.4634C8.95772 16.5171 9.00317 16.5473 9.04874 16.566C9.12454 16.5972 9.14178 16.5975 9.41642 16.5843ZM9.06596 16.5216C9.02547 16.505 8.98343 16.477 8.92128 16.426C8.77529 16.3061 8.61268 16.0225 8.4356 15.5764C8.64768 15.13 9.07765 15.077 9.73737 15.4227C9.9174 15.5171 10.4431 15.8028 10.439 15.8006C10.6797 15.9294 10.8487 16.012 11.0154 16.0792C11.3626 16.219 11.6907 16.2825 12.1098 16.2825C12.3647 16.2825 12.6574 16.2107 12.9978 16.0756C13.1931 15.998 13.3959 15.9034 13.643 15.778C13.65 15.7745 13.6784 15.7598 13.7201 15.7382C13.8759 15.6575 14.2167 15.4811 14.3166 15.4331C14.5331 15.3288 14.6757 15.2784 14.7678 15.2784C14.7955 15.2784 14.8169 15.2783 14.8704 15.278C14.9627 15.2774 15.0065 15.2774 15.0595 15.278C15.5271 15.2837 15.751 15.3593 15.751 15.5756C15.751 15.8037 15.5988 16.1225 15.2936 16.5298C14.6921 16.6103 14.3377 16.6099 14.2418 16.5333C14.1936 16.4948 14.1032 16.5067 13.9334 16.5612C13.8988 16.5723 13.7907 16.6103 13.6766 16.6504C13.5597 16.6915 13.4363 16.7348 13.3788 16.7539C12.9065 16.9105 12.5025 16.9945 12.0922 16.9945C11.3923 16.9945 10.6153 16.6887 9.76118 16.0764L9.73421 16.1154C10.1241 16.4082 10.1241 16.5283 9.7479 16.5283C9.62805 16.5283 9.52824 16.5311 9.41426 16.5365C9.14933 16.5492 9.13248 16.5489 9.06596 16.5216Z" fill="#666666"/>
<path d="M9.02858 15.8084L8.96143 15.7423C9.11294 15.5792 9.31367 15.5381 9.55541 15.618C9.64947 15.6491 10.262 16.0031 10.4256 16.0862C11.0235 16.3897 11.5926 16.5592 12.1971 16.5592C13.0662 16.5592 13.9057 16.2849 14.7132 15.7378C15.0184 15.4903 15.2094 15.4903 15.2094 15.7754H15.1164C15.1164 15.6053 15.0268 15.6053 14.7675 15.8153C13.942 16.3748 13.0849 16.6549 12.1971 16.6549C11.5764 16.6549 10.9941 16.4815 10.3845 16.172C10.2131 16.085 9.61055 15.7367 9.52701 15.7091C9.31751 15.6398 9.15411 15.6733 9.02858 15.8084Z" fill="#565757"/>
<path fill-rule="evenodd" clip-rule="evenodd" d="M12.4906 6.9436L12.3097 6.9445C12.3141 7.68703 12.1478 8.15608 11.824 8.35753C11.7984 8.37342 11.7665 8.39235 11.7314 8.41268C11.7008 8.3302 11.6611 8.23059 11.6102 8.10593L11.5941 8.06637C11.4019 7.59341 11.3591 7.37526 11.4577 7.31698L11.3598 7.17735C11.1422 7.30587 11.1892 7.54516 11.4246 8.12439L11.4408 8.16413C11.4992 8.30748 11.5423 8.41638 11.5733 8.50277L11.5538 8.51377L11.5538 8.51377L11.5538 8.51377C11.5441 8.51926 11.5345 8.52466 11.5252 8.52993C11.4312 8.48212 11.3223 8.45807 11.1983 8.45807C10.6226 8.45807 10.2238 8.30726 9.99204 8.0089L9.84473 8.10529C10.1143 8.45225 10.5687 8.62411 11.1983 8.62411C11.2497 8.62411 11.2979 8.63028 11.3429 8.64269C11.2513 8.72084 11.239 8.80271 11.239 9.08426C11.239 9.26052 11.2771 9.49438 11.3531 9.78668C11.2945 9.71173 11.24 9.6763 11.1846 9.6763V9.84234C11.1766 9.84234 11.1713 9.84115 11.1692 9.84067L11.1684 9.8405L11.1675 9.83977L11.1666 9.83924L11.1686 9.84075L11.1684 9.8405C11.1738 9.84457 11.1815 9.85198 11.1907 9.86265C11.216 9.89213 11.2468 9.93964 11.2821 10.0043C11.3556 10.1393 11.4459 10.3444 11.5524 10.6187L11.6082 10.6004L11.6126 10.6128L11.6425 10.6039V10.6089H11.6997L11.7005 10.6549L11.8814 10.6512C11.881 10.6336 11.8807 10.6163 11.8805 10.5991L11.9144 10.6029C11.9511 10.3317 11.9725 10.0856 11.9783 9.86487C12.0418 9.68925 12.1355 9.56219 12.2581 9.48308C12.5669 9.28393 12.7481 9.09244 12.7977 8.90241L12.6217 8.86376C12.5846 9.00595 12.4301 9.16917 12.1541 9.34724C12.0859 9.39123 12.0255 9.44547 11.9729 9.50988C11.9555 9.23707 11.906 9.01645 11.8234 8.84904V8.8C11.8234 8.73261 11.8135 8.66681 11.7871 8.5768C11.8385 8.54731 11.8875 8.51862 11.9255 8.49497C12.3113 8.25497 12.4953 7.73589 12.4906 6.9436ZM11.5132 8.73189C11.5626 8.77317 11.6057 8.8264 11.6425 8.89168V10.1391C11.494 9.66876 11.4199 9.31634 11.4199 9.08426C11.4199 8.82429 11.4273 8.7914 11.4876 8.74755C11.4914 8.74484 11.5003 8.73943 11.5132 8.73189Z" fill="#984800"/>
<path fill-rule="evenodd" clip-rule="evenodd" d="M12.9834 7.08529C12.8466 7.12546 12.6711 7.1354 12.4847 7.10588C12.2786 7.07324 12.1001 6.99882 11.981 6.90614C11.9883 6.9292 11.9919 6.95285 11.9915 6.9769C11.9875 7.20611 11.6198 7.38557 11.1702 7.37772C10.7207 7.36987 10.3595 7.17769 10.3635 6.94848C10.3675 6.71926 10.7352 6.53981 11.1847 6.54766C11.4551 6.55238 11.6935 6.62377 11.8398 6.72979C11.827 6.69463 11.8228 6.65898 11.8284 6.62369C11.8606 6.4199 12.2068 6.30539 12.6016 6.36791C12.9963 6.43043 13.2902 6.64632 13.2579 6.8501C13.252 6.88708 13.2359 6.92112 13.2109 6.9517C13.4053 6.89572 13.673 6.90892 13.9464 7.00304C14.4188 7.16569 14.7291 7.50841 14.6395 7.76853C14.55 8.02864 14.0944 8.10765 13.622 7.94499C13.5652 7.92542 13.5107 7.90325 13.459 7.87893C13.3316 8.07672 12.974 8.18125 12.578 8.11852C12.1092 8.04427 11.7641 7.76382 11.8071 7.4921C11.8502 7.22039 12.2651 7.06031 12.7338 7.13456C12.8018 7.14532 12.8671 7.1604 12.929 7.17916C12.941 7.14463 12.9594 7.11329 12.9834 7.08529ZM10.2734 6.98398C10.3734 7.16444 10.1711 7.46781 9.82157 7.66157C9.472 7.85534 9.10754 7.86613 9.00751 7.68568C8.90748 7.50522 9.10977 7.20185 9.45934 7.00808C9.80891 6.81432 10.1734 6.80352 10.2734 6.98398ZM11.3668 8.11812C11.3624 8.37026 10.9134 8.56688 10.3639 8.55729C9.81441 8.5477 9.37254 8.33553 9.37694 8.08339C9.38134 7.83126 9.83035 7.63463 10.3798 7.64422C10.9293 7.65382 11.3712 7.86599 11.3668 8.11812ZM10.7337 9.88176C11.2295 9.82088 11.6089 9.58706 11.5809 9.35952C11.553 9.13198 11.1284 8.99688 10.6325 9.05776C10.1366 9.11865 9.75728 9.35247 9.78522 9.58001C9.81316 9.80755 10.2378 9.94265 10.7337 9.88176ZM12.5626 10.1855C13.0008 10.2866 13.4019 10.1694 13.4586 9.92373C13.5154 9.67802 13.2062 9.39684 12.7681 9.29569C12.33 9.19454 11.9288 9.31174 11.8721 9.55745C11.8154 9.80316 12.1245 10.0843 12.5626 10.1855ZM12.9492 9.25273C13.6112 9.38142 14.1869 9.28507 14.2351 9.03753C14.2832 8.78999 13.7855 8.48499 13.1234 8.3563C12.4613 8.2276 11.8856 8.32395 11.8375 8.57149C11.7894 8.81903 12.2871 9.12403 12.9492 9.25273Z" fill="#247805"/>
<path fill-rule="evenodd" clip-rule="evenodd" d="M8.2455 10.9392C8.2455 10.9392 7.93262 13.9094 7.93262 14.3119C7.93262 14.7144 8.50842 14.3119 8.50842 14.3119C8.50842 14.3119 8.59298 12.8935 8.78908 12.3666C8.98517 11.8396 9.07773 12.4185 9.07773 12.7262C9.07773 13.0338 9.07773 14.473 9.07773 14.473C9.07773 14.473 9.7943 14.5705 9.7943 14.3119C9.7943 14.0533 9.49615 10.9392 9.49615 10.9392H8.41231H8.2455Z" fill="white"/>
<path fill-rule="evenodd" clip-rule="evenodd" d="M8.20525 10.8975L8.20128 10.9351C7.99243 12.9177 7.88818 14.0414 7.88818 14.3119C7.88818 14.6304 8.12675 14.6304 8.53418 14.3455L8.55085 14.3339L8.55202 14.3143C8.60817 13.3724 8.70128 12.727 8.83023 12.3805C8.90793 12.1717 8.93049 12.1624 8.96545 12.2485C9.00632 12.3491 9.03329 12.5543 9.03329 12.7262V14.5092L9.07108 14.5143C9.57371 14.5828 9.83796 14.5234 9.83796 14.3119C9.83796 14.201 9.78622 13.5892 9.69841 12.6305L9.68872 12.525C9.65611 12.1702 9.62117 11.7961 9.58623 11.4261L9.55245 11.0698L9.54299 10.9705L9.53964 10.9355L9.536 10.8975H8.20525ZM8.46524 14.2899C8.1171 14.5301 7.97628 14.5268 7.97628 14.3119C7.97628 14.0474 8.07931 12.9352 8.28499 10.981H9.45553L9.46471 11.0773L9.49848 11.4336C9.53342 11.8035 9.56835 12.1775 9.60096 12.5322L9.61064 12.6377C9.6978 13.5894 9.74986 14.205 9.74986 14.3119C9.74986 14.4416 9.54829 14.4905 9.12139 14.4366V12.7262C9.12139 12.5449 9.09322 12.3306 9.04766 12.2184C8.97241 12.0332 8.84669 12.0852 8.74715 12.3527C8.61556 12.7063 8.52196 13.3512 8.46524 14.2899Z" fill="#979797"/>
<path fill-rule="evenodd" clip-rule="evenodd" d="M7.20703 9.91757C7.20703 9.91757 7.45276 10.8021 7.56154 10.8021C7.67031 10.8021 8.33059 10.2593 8.33059 10.2593V10.996H9.56083V10.6697L9.71866 10.996L9.93378 10.8954L10.3059 10.4568H9.93378C9.93378 10.4568 9.82566 9.7524 9.82566 9.641C9.82566 9.52961 9.83004 9.30923 9.56083 9.22947C9.29161 9.14971 9.15956 9.00848 9.15956 9.00848C9.15956 9.00848 9.73926 8.17822 9.29783 8.17822C8.8564 8.17822 8.65658 8.28466 8.65658 8.28466C8.65658 8.28466 8.65658 8.77762 8.65658 8.89305C8.65658 9.00848 8.02331 8.87181 8.02331 9.22947C8.02331 9.58713 7.728 9.91757 7.728 9.91757L7.65284 9.67803L7.20703 9.91757Z" fill="#FF863B"/>
<path fill-rule="evenodd" clip-rule="evenodd" d="M9.06697 8.38286C9.31025 8.38286 9.50747 8.28595 9.50747 8.16641C9.50747 8.04686 9.31025 7.94995 9.06697 7.94995C8.82368 7.94995 8.62646 8.04686 8.62646 8.16641C8.62646 8.28595 8.82368 8.38286 9.06697 8.38286Z" fill="#292B2E"/>
<path d="M6.84726 10.2598L6.64844 10.0947C7.03149 9.67995 7.4577 9.37823 7.92665 9.19094C8.37071 9.01358 8.95104 8.73053 9.66652 8.34204L9.79785 8.55954C9.07387 8.95264 8.4847 9.24001 8.02924 9.42192C7.59866 9.59389 7.20481 9.8727 6.84726 10.2598Z" fill="#740000"/>
<path fill-rule="evenodd" clip-rule="evenodd" d="M9.6582 8.43301L9.82516 9.21719L10.5664 8.8251L9.98265 8.17627L9.6582 8.43301Z" fill="#F9FCFF" stroke="#6C6C6C" stroke-width="0.5"/>
<path fill-rule="evenodd" clip-rule="evenodd" d="M15.8596 11.3071C15.8596 11.3071 16.1699 14.4071 16.1699 14.8272C16.1699 15.2473 15.5988 14.8272 15.5988 14.8272C15.5988 14.8272 15.5149 13.3468 15.3204 12.7969C15.1259 12.2469 15.0341 12.8511 15.0341 13.1722C15.0341 13.4933 15.0341 14.9953 15.0341 14.9953C15.0341 14.9953 14.3233 15.0971 14.3233 14.8272C14.3233 14.5573 14.619 11.3071 14.619 11.3071H15.6941H15.8596Z" fill="white"/>
<path fill-rule="evenodd" clip-rule="evenodd" d="M15.8989 11.2634L15.9028 11.3027C16.11 13.372 16.2134 14.5448 16.2134 14.8271C16.2134 15.1595 15.9767 15.1595 15.5726 14.8622L15.5561 14.85L15.5549 14.8296C15.4992 13.8465 15.4069 13.1729 15.2789 12.8113C15.2019 12.5934 15.1795 12.5836 15.1448 12.6735C15.1043 12.7785 15.0775 12.9926 15.0775 13.1721V15.033L15.04 15.0384C14.5415 15.1098 14.2794 15.0478 14.2794 14.8271C14.2794 14.7114 14.3307 14.0728 14.4178 13.0722L14.4274 12.962C14.4597 12.5918 14.4944 12.2014 14.5291 11.8152L14.5626 11.4433L14.572 11.3397L14.5753 11.3031L14.5789 11.2634H15.8989ZM15.641 14.8041C15.9863 15.0548 16.126 15.0514 16.126 14.8271C16.126 14.551 16.0238 13.3902 15.8198 11.3506H14.6587L14.6496 11.4511L14.6161 11.823C14.5815 12.2091 14.5468 12.5994 14.5145 12.9696L14.5049 13.0797C14.4184 14.073 14.3668 14.7155 14.3668 14.8271C14.3668 14.9624 14.5667 15.0135 14.9901 14.9572V13.1721C14.9901 12.9828 15.0181 12.7592 15.0633 12.6421C15.1379 12.4488 15.2626 12.5031 15.3614 12.7823C15.4919 13.1513 15.5847 13.8244 15.641 14.8041Z" fill="#979797"/>
<path fill-rule="evenodd" clip-rule="evenodd" d="M16.9111 10.1781C16.9111 10.1781 16.6674 11.1013 16.5595 11.1013C16.4516 11.1013 15.7967 10.5348 15.7967 10.5348V11.3038H14.5764V10.9632L14.4198 11.3038L14.2064 11.1988L13.8373 10.7409H14.2064C14.2064 10.7409 14.3137 10.0058 14.3137 9.88949C14.3137 9.77323 14.3093 9.54323 14.5764 9.45998C14.8434 9.37673 14.9744 9.22933 14.9744 9.22933C14.9744 9.22933 14.3994 8.36279 14.8372 8.36279C15.2751 8.36279 15.4733 8.47388 15.4733 8.47388C15.4733 8.47388 15.4733 8.98839 15.4733 9.10886C15.4733 9.22933 16.1015 9.08669 16.1015 9.45998C16.1015 9.83327 16.3944 10.1781 16.3944 10.1781L16.4689 9.92814L16.9111 10.1781Z" fill="#824028"/>
<path fill-rule="evenodd" clip-rule="evenodd" d="M15.066 8.57634C14.8247 8.57634 14.629 8.4752 14.629 8.35043C14.629 8.22566 14.8247 8.12451 15.066 8.12451C15.3073 8.12451 15.5029 8.22566 15.5029 8.35043C15.5029 8.4752 15.3073 8.57634 15.066 8.57634Z" fill="#292B2E"/>
<path d="M17.5255 10.3457L14.8528 8.95265C14.8528 8.95265 14.8033 8.48467 14.2871 8.34378C13.7709 8.20288 13.3593 7.98486 13.3593 7.98486L13.1242 8.34378C13.1242 8.34378 12.7056 8.23331 14.2871 8.95265C15.8686 9.67199 14.2276 8.56275 14.6771 8.95265L17.5255 10.3457Z" fill="#BA611F"/>
</g>
</g>
</g>
<g style="mix-blend-mode:hard-light" opacity="0.12">
<rect width="24" height="24" rx="12" fill="white"/>
</g>
<rect width="24" height="24" fill="url(#paint0_linear_6144_24271)" fill-opacity="0.64" style="mix-blend-mode:overlay"/>
</g>
<defs>
<linearGradient id="paint0_linear_6144_24271" x1="24" y1="1.19273e-06" x2="-4.48665" y2="16.0237" gradientUnits="userSpaceOnUse">
<stop stop-color="white" stop-opacity="0.3"/>
<stop offset="0.262741" stop-opacity="0.27"/>
<stop offset="0.369956" stop-color="white" stop-opacity="0.26"/>
<stop offset="0.487001" stop-opacity="0.55"/>
<stop offset="0.594445" stop-opacity="0.24"/>
<stop offset="0.736408" stop-color="white" stop-opacity="0.3"/>
<stop offset="0.901459" stop-color="#272727" stop-opacity="0.22"/>
<stop offset="1" stop-opacity="0.2"/>
</linearGradient>
<clipPath id="clip0_6144_24271">
<rect width="24" height="24" rx="12" fill="white"/>
</clipPath>
<clipPath id="clip1_6144_24271">
<rect width="24" height="24" fill="white"/>
</clipPath>
</defs>
</svg>
