<svg xmlns="http://www.w3.org/2000/svg" fill="none" viewBox="0 0 44 44" height="44" width="44">
<path fill="#DCF4FF" d="M22.0159 43.9872C34.1574 43.9872 44 34.1403 44 21.9936C44 9.84687 34.1574 0 22.0159 0C9.87437 0 0.0317383 9.84687 0.0317383 21.9936C0.0317383 34.1403 9.87437 43.9872 22.0159 43.9872Z"></path>
<mask height="44" width="44" y="0" x="0" maskUnits="userSpaceOnUse" style="mask-type:alpha" id="mask0_491_24297">
<path fill="#DCF4FF" d="M22.0159 43.9872C34.1574 43.9872 44 34.1403 44 21.9936C44 9.84687 34.1574 0 22.0159 0C9.87437 0 0.0317383 9.84687 0.0317383 21.9936C0.0317383 34.1403 9.87437 43.9872 22.0159 43.9872Z"></path>
</mask>
<g mask="url(#mask0_491_24297)">
<path fill="#176C93" d="M23.788 16.2932C23.8752 15.0536 23.2026 15.1596 22.8934 15.6571C22.9045 15.9671 23.8752 17.7024 23.788 16.2932Z"></path>
<path fill="#176C93" d="M27.5835 20.4641C25.0608 19.6172 19.3428 15.6649 16.9883 19.0526C17.4928 18.9114 17.9974 18.6291 18.5019 18.488C19.8473 18.0645 19.3428 18.7703 20.0155 18.7703C21.8655 18.7703 22.8745 19.6172 24.3881 20.1818C24.0518 20.323 24.0518 20.4641 24.0518 20.6053C24.8927 20.6053 26.9108 21.3111 27.5835 20.4641C27.2472 20.8876 27.2472 20.323 27.5835 20.4641Z"></path>
<path fill="#176C93" d="M33.9407 22.3132C33.9407 23.1739 34.8825 23.1739 35.0002 22.6001C34.8825 22.3132 33.9407 21.4525 33.9407 22.3132Z"></path>
<path fill="#176C93" d="M39.6809 29.688C39.979 28.8805 39.0954 28.5543 38.7863 29.0519C38.7974 29.3618 39.3828 30.4954 39.6809 29.688Z"></path>
<path fill="#176C93" d="M27.5835 22.3166C27.5835 22.5899 27.7267 22.7266 28.0131 22.7266C28.0131 21.9065 29.8744 23 30.1607 23C30.4471 23 30.7335 22.5899 31.163 22.5899C31.7357 22.5899 32.1652 22.3166 32.8811 22.3166C32.5948 22.0432 32.3084 21.9065 32.0221 21.6331L32.1652 21.7698C31.8789 21.6331 28.5858 20.4028 28.5858 21.0863C28.5858 21.0863 29.4448 22.1798 29.1585 22.0432C28.729 22.4532 27.8699 22.3166 27.5835 22.3166C27.7267 22.3166 27.5835 22.5899 27.5835 22.3166Z"></path>
<path fill="#176C93" d="M24.463 22.589C23.8584 21.9764 23.188 22.6379 23.5073 23.129C23.7926 23.2505 25.0675 23.2017 24.463 22.589Z"></path>
<path fill="#176C93" d="M23.3454 15.6127C23.3454 16.1255 23.3454 17.0789 23.3454 17.3353C23.3454 17.3353 23.3454 15.3563 23.3454 15.6127Z"></path>
<path fill="#90C6DE" d="M139.655 50.5476C139.078 51.5978 138.934 52.3479 137.925 53.2481C137.204 53.8482 135.907 53.9982 135.474 54.8983C135.042 55.9485 136.051 56.6986 135.763 57.5988C135.474 58.3489 134.465 59.2491 134.609 60.1492C134.898 61.7995 136.483 65.1 138.213 61.9495C139.367 59.6991 140.376 56.5486 140.376 53.8482C140.52 53.8482 140.664 53.9982 140.952 53.9982C140.952 53.0981 140.808 50.6977 139.655 50.5476C140.664 50.6977 139.511 50.6977 139.655 50.5476Z"></path>
<path fill="#90C6DE" d="M167.441 33.5836C167.441 35.0739 169.029 34.8876 169.382 33.7699C170.088 32.2796 168.499 31.5344 167.97 30.4167C167.97 31.3481 167.441 32.4659 167.441 33.5836Z"></path>
<path fill="#90C6DE" d="M191.802 43.8665C191.802 42.1916 191.956 42.1916 190.88 40.7959C190.573 40.5167 189.651 39.121 189.651 38.9815C189.651 38.0045 185.655 37.0275 185.347 36.0505C184.579 34.6548 183.503 35.0735 182.274 34.6548C182.428 35.7713 183.657 35.6318 183.964 36.3296C184.272 36.8879 185.962 39.2606 186.423 39.2606C187.192 39.4002 187.96 41.6333 188.575 42.1916C188.575 42.3312 191.802 45.1226 191.802 43.8665Z"></path>
<path fill="#90C6DE" d="M194.988 37.9762C194.988 38.6756 195.911 39.0953 195.911 39.5149C196.834 40.7739 195.911 40.7739 197.757 41.0536C198.064 42.1727 198.679 41.0536 199.602 41.4733C200.679 42.0328 201.14 42.5924 201.909 41.1935C202.217 40.4941 202.525 39.7947 202.832 38.9554C202.986 38.5358 203.14 38.256 203.294 37.9762C203.601 37.8363 204.216 38.1161 204.37 37.5566C203.14 37.5566 203.14 35.5982 202.986 35.1786C203.14 34.8988 204.524 34.6191 204.524 34.1994C204.524 33.7798 203.601 33.7798 203.294 33.6399C202.832 33.3601 203.14 31.9613 202.217 32.8006C201.755 33.2202 201.448 33.7798 201.14 34.1994C200.986 34.4792 199.91 34.6191 199.602 34.8988C198.987 35.4584 198.064 35.7381 197.603 36.2977C197.295 36.5774 197.295 37.1369 196.834 37.4167C196.219 37.8363 194.988 37.4167 194.988 37.9762Z"></path>
<path fill="#90C6DE" d="M206.615 38.0921C208.009 38.0921 209.264 38.5865 209.822 36.7738C208.288 37.2682 208.567 37.5978 206.894 37.2682C205.221 36.9386 205.221 39.0808 204.803 40.3991C204.524 41.0583 204.245 41.8822 205.082 42.047C205.082 42.5414 204.803 43.6949 205.221 44.0245C205.779 44.6836 206.057 43.2005 206.057 42.7062C206.057 41.5527 205.5 41.5527 206.476 41.0583C206.197 42.047 206.615 43.3653 207.312 42.8709C208.427 42.2118 206.755 41.2231 206.755 40.0696C207.312 40.0696 208.149 39.2456 208.288 38.7513C207.87 38.7513 206.615 39.2456 206.615 39.2456C206.057 40.2343 204.942 38.0921 206.615 38.0921Z"></path>
<path fill="#90C6DE" d="M200.251 46.1744C200.72 46.1744 201.033 46.5497 201.345 46.0493C200.564 45.7992 199 45.6741 198.375 45.1737C198.531 45.2988 199.626 45.1737 199.626 45.0486C199.313 45.0486 198.688 45.1737 198.375 45.1737C198.063 45.1737 197.75 45.0486 197.437 44.7984C196.656 44.4232 196.656 45.0486 195.874 45.0486C194.936 45.0486 192.435 43.2973 191.81 44.7984C192.591 44.7984 192.748 45.549 193.529 45.549C194.154 45.549 196.03 45.549 196.499 45.9243C196.968 46.4246 199.938 46.1744 200.251 46.1744Z"></path>
<path fill="#90C6DE" d="M206.996 47.3283C207.349 47.3283 207.585 46.8189 207.702 46.3095C207.349 46.5642 205.583 46.5642 205.583 46.8189C205.583 47.583 206.761 47.3283 206.996 47.3283Z"></path>
<path fill="#90C6DE" d="M203.709 46.4027C203.709 47.6452 202.405 45.6573 202.405 47.1482C202.405 47.6452 204.198 47.1482 204.524 47.1482C204.035 46.4027 204.687 46.1542 203.709 46.4027Z"></path>
<path fill="#90C6DE" d="M206.011 47.4115C205.763 47.4115 204.524 47.2419 204.524 47.581L206.259 48.4286C207.25 47.92 206.011 48.4286 206.011 47.4115Z"></path>
<path fill="#90C6DE" d="M202.405 46.3095C202.405 47.6599 202.405 47.6599 202.405 46.6472C202.405 46.6472 202.405 46.6471 202.405 46.3095Z"></path>
<path fill="#90C6DE" d="M209.454 47.306C210.219 47.306 211.367 47.1456 211.941 46.5042C210.793 45.8627 209.454 46.9853 208.497 47.306C208.115 47.4664 207.158 48.4286 208.115 48.4286C208.497 48.2682 209.454 47.306 209.454 47.306Z"></path>
<path fill="#90C6DE" d="M218.298 44.4259C218.298 44.3082 218.298 44.1905 218.298 44.1905V45.25C218.298 45.1323 218.298 44.4259 218.298 44.4259Z"></path>
<path fill="#90C6DE" d="M209.822 41.3463C209.822 41.7426 210.382 42.3371 210.755 41.9408C211.316 40.95 209.822 40.7519 209.822 41.3463Z"></path>
<path fill="#90C6DE" d="M211.941 41.5141C212.315 41.5141 215.119 41.8857 215.119 42.0714C215.119 40.7709 211.941 40.7709 211.941 41.5141Z"></path>
<path fill="#90C6DE" d="M212.146 36.7738C211.719 37.0231 212.004 38.8929 212.573 38.8929C211.862 38.145 212.431 38.6436 212.288 38.2696C212.573 38.2696 212.715 38.2696 213 38.2696C213 37.8957 213 37.8957 213 37.5217C212.431 37.3971 212.146 37.1478 212.146 36.7738C212.146 37.1478 211.862 36.8985 212.146 36.7738Z"></path>
<path fill="#90C6DE" d="M232.072 43.4728C232.218 43.9399 232.806 43.7842 232.953 44.0956C234.422 44.7184 235.597 42.0714 235.156 42.0714C234.863 42.2271 234.716 42.3828 234.716 42.6943C234.422 43.3171 233.687 43.1614 233.247 43.3171C232.953 43.4728 232.512 43.6285 232.072 43.4728Z"></path>
<path fill="#90C6DE" d="M230.439 43.8768C229.501 43.415 228.407 42.3377 227.625 41.7221C226.843 41.1064 225.437 41.4142 224.655 40.6447C224.499 40.4908 222.935 40.0291 222.466 39.8751C221.685 39.5673 220.434 40.6447 219.965 41.2603C219.184 42.1838 218.402 40.3369 218.402 39.7212C218.402 38.49 215.119 38.7978 215.119 39.5673C215.119 40.4908 217.464 40.6447 217.933 40.4908C217.62 40.9525 216.682 40.7986 216.213 41.1064C216.37 41.722 217.308 42.7994 217.777 41.7221C218.089 42.3377 218.871 42.6455 219.653 42.7994C220.278 42.9533 220.747 43.1072 221.372 43.2611C222.623 43.8768 221.841 44.6463 222.779 45.4158C220.434 46.4932 223.873 46.0315 224.186 46.3393C224.968 46.801 225.28 47.2628 226.218 47.2628C227.156 47.2628 226.843 46.801 227.312 46.1854C228.563 44.4924 232.158 49.5714 234.191 48.1862C233.722 48.0323 232.158 47.4167 231.846 46.9549C231.689 46.6471 230.751 45.5698 230.751 45.262C230.751 43.8768 231.846 44.6463 230.439 43.8768C230.752 44.0307 229.501 43.5689 230.439 43.8768Z"></path>
<path fill="#90C6DE" d="M235.603 42.0715C235.25 41.5417 234.72 41.1885 234.191 41.0119C234.367 41.3651 236.133 43.131 236.31 43.131C236.133 42.6012 235.956 42.6012 235.603 42.0715C235.956 42.4246 235.25 41.7183 235.603 42.0715Z"></path>
<path fill="#90C6DE" d="M237.426 44.1905C237.426 44.3229 238.013 45.25 238.209 45.25C238.993 45.25 237.426 44.1905 237.426 44.1905C237.622 44.3229 237.23 44.4554 237.426 44.1905Z"></path>
<path fill="#90C6DE" d="M243.819 48.4286C243.819 48.4286 244.141 48.4286 244.786 48.4286C244.464 48.4286 244.786 48.4286 243.819 48.4286C244.141 48.4286 243.497 48.4286 243.819 48.4286Z"></path>
<path fill="#90C6DE" d="M242.667 47.3691C242.667 48.7313 243.424 48.3907 243.726 48.3907C243.424 47.3691 243.121 47.3691 242.667 47.3691C243.272 47.3691 242.667 48.0502 242.667 47.3691Z"></path>
<path fill="#90C6DE" d="M242.667 46.3095C242.667 46.6123 243.373 47.3691 243.726 47.3691C243.55 46.915 243.197 46.6123 242.667 46.3095Z"></path>
<path fill="#90C6DE" d="M240.548 45.25C240.68 45.7547 241.077 46.5118 241.607 46.2594C241.342 45.5024 240.68 45.25 240.548 45.25Z"></path>
<path fill="#90C6DE" d="M229.485 78.3819C229.21 78.3819 227.833 77.7949 227.833 78.3819C227.833 79.2623 228.384 80.2895 228.935 80.8764C229.761 81.7568 230.311 81.0231 230.724 80.1427C231 79.7025 231.137 79.1156 230.862 78.5286C230.449 77.6482 230.174 78.3819 229.485 78.3819Z"></path>
<path fill="#90C6DE" d="M231.012 78.0953C231.012 77.0357 231.012 77.3006 231.012 77.0357C231.012 77.8304 231.012 78.0953 231.012 78.0953Z"></path>
<path fill="#90C6DE" d="M220.417 73.8572C220.72 73.8572 221.174 73.8572 221.476 73.8572C221.174 73.8572 221.022 73.8572 220.417 73.8572Z"></path>
<path fill="#90C6DE" d="M214.828 49.4881C214.956 49.4881 215.212 49.4881 215.084 49.4881C214.7 49.4881 214.316 49.4881 214.06 49.4881C214.188 49.4881 214.572 49.4881 214.828 49.4881Z"></path>
<path fill="#90C6DE" d="M235.74 62.3896C234.976 61.6053 233.906 60.0367 233.295 59.8798C232.531 59.7229 232.837 58.468 232.226 57.9974C231.615 57.3699 230.393 57.2131 230.087 56.2719C229.781 55.4875 229.323 52.664 228.712 52.1934C228.101 51.8797 227.49 52.0365 227.337 51.2522C227.184 50.1541 226.726 49.3698 226.573 48.4286C225.045 49.2129 225.809 51.2522 225.657 52.5071C225.504 53.2914 225.504 54.5463 224.74 55.0169C224.129 55.4875 222.907 54.2326 222.295 53.9189C220.462 53.2914 219.851 52.8208 220.157 50.9385C220.157 50.7816 221.684 49.5267 220.309 49.5267C218.782 49.5267 218.018 49.5267 216.49 48.8992C216.643 49.2129 216.796 49.5267 217.101 49.6835C216.337 49.8404 215.421 49.9973 214.809 50.311C214.046 50.7816 214.351 52.0365 214.046 52.664C213.587 52.5071 213.282 52.0365 212.823 52.8208C212.671 51.409 211.754 51.5659 210.837 52.0365C209.921 52.5071 209.615 54.2326 208.698 53.762C208.698 54.2326 208.546 54.5464 208.393 54.8601C207.629 53.4483 207.476 56.115 206.56 56.7425C205.032 57.6837 203.504 57.5268 201.823 58.1543C201.06 58.468 200.601 59.566 199.685 59.7229C199.685 58.9386 199.226 59.7229 199.226 60.0367C199.226 60.6641 199.837 63.6446 199.685 63.9583C198.615 62.8602 200.143 66.1544 200.296 66.625C200.754 68.1936 201.976 70.076 200.907 71.4878C199.99 72.5859 202.893 73.2133 203.657 72.8996C205.643 72.2721 206.712 71.9584 208.851 71.6447C209.157 69.9192 211.601 70.3898 212.823 69.9192C214.351 69.4486 215.115 68.978 216.948 69.4486C218.629 69.9192 218.629 70.7035 219.546 71.9585C220.615 73.3702 221.073 71.4879 221.99 70.3898C221.99 71.0173 221.837 72.5859 221.073 72.7428C221.073 73.5271 222.295 72.5859 222.295 71.9585C222.754 72.429 222.601 72.7428 222.448 73.3702C222.754 73.2134 223.059 73.3702 223.518 73.2134C223.518 74.1546 224.129 75.7232 224.893 76.1938C225.504 76.5075 226.115 76.8213 226.726 76.9781C227.795 77.135 227.795 76.3507 228.559 76.3507C228.865 78.233 233.143 75.7232 233.448 74.9389C233.448 72.5859 236.045 70.8604 236.045 68.6643C236.045 66.4681 236.809 64.7426 235.74 62.3896Z"></path>
<path fill="#90C6DE" d="M254.135 78.602C253.702 78.7709 253.269 78.9398 253.269 78.0953C252.402 78.602 251.68 80.6289 250.814 81.4734C250.092 82.149 246.482 84.1759 248.648 85.1894C250.67 86.2028 251.392 84.6826 252.114 82.6558C252.114 82.149 252.402 82.1491 252.836 82.1491C253.702 81.9801 253.269 81.8112 253.413 80.9667C254.713 80.9667 254.28 79.1087 254.135 78.602Z"></path>
<path fill="#90C6DE" d="M258.381 75.7078C257.261 75.7078 255.982 76.3405 255.982 74.8221C255.342 75.2017 255.182 75.0752 254.862 74.4425C254.382 73.6834 253.742 73.5568 253.262 72.7976C253.582 73.9364 254.702 74.316 255.022 75.2017C255.182 75.8344 254.222 77.3527 254.542 77.4792C254.862 77.6058 255.662 77.6057 255.662 77.9853C255.662 78.2384 255.022 78.7445 255.342 78.9976C256.621 79.8833 257.261 76.7201 258.221 77.0997C258.221 76.9731 258.861 75.7078 258.381 75.7078Z"></path>
<path fill="#90C6DE" d="M258.56 55.6167C258.408 54.8251 257.5 54.2314 257.5 55.6167C257.5 56.0125 258.408 55.8146 258.56 55.6167Z"></path>
<path fill="#90C6DE" d="M258.56 54.3693C258.56 55.4413 259.468 54.155 259.619 53.7262C259.316 53.7262 258.56 53.9406 258.56 54.3693Z"></path>
<path fill="#90C6DE" d="M210.056 30.4167C209.935 30.7557 209.327 32.79 208.962 31.7729C208.476 30.2472 207.261 33.9767 207.869 33.9767C208.112 33.9767 208.112 32.79 208.355 32.6205C208.841 33.1291 209.205 32.1119 209.205 33.2986C209.205 33.9767 209.813 34.6548 210.177 34.6548C210.542 34.6548 210.177 33.4681 210.421 33.1291C210.542 33.4681 210.542 33.4681 210.542 33.2986C210.542 33.6376 210.664 33.8072 210.785 33.9767C210.785 33.4681 211.271 30.4167 210.056 30.4167C210.299 30.4167 210.056 30.5862 210.056 30.4167Z"></path>
<path fill="#90C6DE" d="M203.464 31.4762C204.373 31.3248 204.827 30.2653 205.583 29.8112C205.432 29.6599 205.281 29.5085 205.281 29.3572C204.827 29.6599 203.767 30.8708 203.464 31.4762Z"></path>
<path fill="#90C6DE" d="M205.583 25.7204C205.583 26.4077 206.167 26.2359 206.4 26.064C206.284 26.4077 206.167 26.7513 206.4 27.0949L207.684 27.7822C207.568 27.6104 207.568 27.4386 207.684 27.0949L208.618 28.2976C209.085 28.2976 208.268 27.2668 208.268 27.4386C208.268 27.2668 208.385 27.2667 208.385 27.0949C208.151 27.0949 207.334 26.2359 207.334 26.9231C206.634 26.4077 206.751 25.3768 207.101 24.6895C207.451 23.8305 206.867 23.1432 206.867 22.2841C206.284 22.6278 206.634 22.1123 206.167 21.9405C205.934 21.9405 205.583 25.205 205.583 25.7204C205.583 25.8922 205.583 25.205 205.583 25.7204Z"></path>
<path fill="#90C6DE" d="M209.541 28.4132C209.281 28.2591 209.022 28.2591 208.762 28.4132C209.022 28.5673 209.152 28.8755 209.411 29.1838C209.281 29.3379 209.152 29.492 208.892 29.3379C209.022 29.8002 209.281 30.4167 209.541 30.4167C209.411 30.2626 209.281 29.8002 209.281 29.6461C210.32 29.6461 209.541 29.0297 209.541 28.4132C209.541 28.5673 209.411 28.4132 209.541 28.4132Z"></path>
<path fill="#90C6DE" d="M207.702 28.4052C207.702 27.7348 207.702 30.4167 207.702 30.4167C207.702 29.5227 207.702 29.0757 207.702 28.4052Z"></path>
<path fill="#90C6DE" d="M207.702 29.3713C207.702 29.5721 207.702 31.9823 207.702 31.3798C207.702 31.1789 207.702 29.1704 207.702 29.3713Z"></path>
<path fill="#90C6DE" d="M207.702 30.4167C207.967 30.2653 208.762 29.6599 208.762 29.3572C207.967 29.3572 207.967 30.114 207.702 30.4167Z"></path>
<path fill="#90C6DE" d="M208.762 28.2976C208.762 28.2976 208.126 28.2976 207.702 28.2976H208.762Z"></path>
<path fill="#90C6DE" d="M207.48 28.2976C208.149 28.2976 207.145 27.2381 206.643 27.2381C206.643 27.3895 207.145 28.2976 207.48 28.2976C207.647 28.2976 207.312 28.2976 207.48 28.2976Z"></path>
<path fill="#90C6DE" d="M207.106 15.5833C205.04 15.5833 205.269 18.1881 206.647 17.6218C207.106 17.3953 208.484 15.5833 207.106 15.5833Z"></path>
<path fill="#90C6DE" d="M197.107 20.3615C197.107 18.9584 194.988 20.7123 194.988 20.8877C195.412 22.817 197.107 21.7646 197.107 20.3615Z"></path>
<path fill="#90C6DE" d="M192.233 40.5498C192.339 40.8964 192.551 41.0119 192.869 41.0119C192.763 40.7808 191.81 39.3944 191.81 40.2031C191.916 40.4342 192.127 40.5498 192.233 40.5498C192.339 40.6653 192.233 40.4342 192.233 40.5498Z"></path>
<path fill="#90C6DE" d="M194.458 42.0714C194.723 42.0714 194.988 41.8066 194.988 41.2768C194.458 41.0119 194.458 41.0119 193.929 41.0119C193.929 41.0119 193.929 42.0714 194.458 42.0714Z"></path>
<path fill="#90C6DE" d="M185.839 39.9524C185.839 39.9524 184.655 40.8353 186.431 41.0119C186.727 40.6587 186.135 40.129 185.839 39.9524Z"></path>
<path fill="#90C6DE" d="M184.393 37.8334C184.393 37.8334 184.393 37.8334 185.308 37.8334C185.919 37.8334 184.393 37.8334 184.393 37.8334Z"></path>
<path fill="#90C6DE" d="M214.06 6.92731C214.06 7.45782 214.829 7.45782 214.829 6.92731C214.983 7.63466 214.521 9.04936 215.137 8.87253C215.137 9.04936 215.137 9.04936 215.291 9.2262C216.061 9.2262 216.369 7.10416 216.061 6.7505C216.061 6.57365 214.06 5.15894 214.06 6.92731Z"></path>
<path fill="#90C6DE" d="M216.576 7.10715C216.905 7.10715 219.213 6.04762 217.894 6.04762C217.07 6.04762 215.422 7.10715 216.576 7.10715Z"></path>
<path fill="#90C6DE" d="M220.735 3.36096C220.254 3.36096 220.254 4.55295 219.612 4.55295C219.291 4.72323 218.489 4.55295 218.168 4.55295C217.526 4.55295 215.119 5.40435 215.119 6.25575C215.119 6.59631 218.007 6.08546 218.168 5.57462C218.97 4.38265 219.291 6.93687 219.772 7.10715C220.093 6.42603 220.414 6.25574 220.896 6.08546C220.735 6.08546 220.254 5.23406 220.735 5.23406C221.217 5.23406 221.377 6.25574 222.019 5.7449C222.661 5.23406 222.34 5.57462 222.821 5.57462C222.982 5.06377 223.303 4.89349 223.784 4.72321C223.623 4.89349 223.623 5.06378 223.784 5.23406C225.228 4.72322 224.105 1.4879 225.068 1.14734C226.03 0.806778 225.87 -2.42856 224.907 -2.42856C224.747 -2.42856 224.907 -2.08801 225.068 -2.08801C224.426 -1.57716 223.944 -1.91772 223.944 -0.385201C223.944 0.636482 223.303 1.65816 222.5 2.16901C222.34 2.33929 220.254 3.36098 221.056 2.3393C221.056 2.67986 220.896 3.36096 220.735 3.36096Z"></path>
<path fill="#90C6DE" d="M224.115 -3.79081C223.797 -3.22321 223.478 -3.10969 223.638 -2.42857C223.956 -2.42857 224.434 -2.54208 224.593 -2.76912C223.797 -3.45024 224.275 -3.22321 225.23 -3.45025C225.867 -3.10969 226.504 -2.65561 226.982 -3.22321C227.46 -3.79081 228.256 -3.56376 228.893 -3.90433C228.415 -4.01785 228.574 -4.24488 228.734 -4.47193C228.415 -4.58545 227.619 -4.47193 227.3 -4.47193C226.504 -4.69897 226.026 -5.26657 225.389 -5.60714C224.912 -5.03953 225.549 -3.90434 224.275 -3.79081C223.638 -4.2449 224.434 -3.79081 224.115 -3.79081Z"></path>
<path fill="#90C6DE" d="M229.019 -4.54762C228.458 -4.54762 229.952 -4.54762 229.952 -4.54762C229.766 -4.54762 229.392 -4.54762 229.019 -4.54762Z"></path>
<path fill="#90C6DE" d="M231.674 -5.60714C231.409 -5.60714 231.012 -4.54761 231.012 -4.54761C231.409 -4.54761 231.542 -5.25397 232.072 -5.25397V-5.43054C232.072 -5.60713 231.807 -5.60714 231.674 -5.60714Z"></path>
<path fill="#90C6DE" d="M233.131 -5.60714C233.131 -5.87201 233.131 -6.13691 233.131 -6.66666V-5.60714Z"></path>
<path fill="#90C6DE" d="M226.352 -14.7576C226.166 -15.191 225.981 -15.6245 225.796 -16.2024H225.611C225.796 -15.3355 224.87 -15.0465 224.685 -14.3241C224.499 -13.4573 225.24 -12.7349 225.24 -11.868C225.24 -11.2901 225.055 -6.66667 225.055 -6.66667C225.981 -6.66667 225.796 -7.82251 226.907 -7.10011C226.352 -7.967 225.611 -8.25596 225.796 -9.26732C225.981 -10.1342 226.907 -11.0011 227.833 -9.98972C227.648 -10.8566 226.907 -11.579 226.537 -12.4459C226.166 -13.1683 226.722 -14.0352 226.352 -14.7576C226.537 -14.3241 226.166 -15.191 226.352 -14.7576Z"></path>
<path fill="#90C6DE" d="M142.459 -41.6745C144.063 -42.0881 143.582 -40.7093 144.865 -40.7093C145.667 -40.7093 146.79 -40.5714 147.753 -40.5714C146.951 -42.0881 145.026 -41.8123 146.149 -44.0184C147.111 -45.8108 149.036 -46.5002 150.801 -47.4653C152.245 -48.2926 153.849 -48.4305 155.454 -48.982C155.935 -49.1199 160.106 -49.8093 158.662 -50.7744C157.058 -51.8775 155.293 -50.3608 154.01 -49.8093C152.245 -49.1199 150.801 -50.0851 149.036 -48.982C148.395 -48.5684 145.507 -47.7411 145.828 -47.3275C146.309 -46.776 145.347 -46.2245 144.865 -45.9487C143.742 -45.2593 144.705 -45.3972 144.705 -44.7078C143.421 -44.5699 141.015 -42.5017 142.459 -41.6745Z"></path>
<path fill="#90C6DE" d="M262.636 -36.5954C259.604 -38.2797 255.663 -40.2703 252.026 -39.6578C250.965 -39.5047 251.722 -37.5141 251.116 -37.6672C250.51 -37.9735 249.904 -39.0453 249.146 -39.0453C247.327 -39.0453 245.356 -39.1984 243.538 -39.1984C243.083 -39.1984 242.173 -39.0453 241.719 -39.1984C241.264 -41.0359 239.748 -41.4953 238.081 -41.4953C236.717 -41.4953 234.898 -40.7297 233.988 -42.1078C233.079 -43.4859 231.715 -43.639 230.199 -43.9453C228.532 -44.2515 226.41 -44.7109 224.742 -44.0984C224.136 -43.9452 223.075 -41.8015 223.075 -41.8015C221.559 -41.8015 219.589 -41.4953 218.073 -41.8015C217.467 -41.8015 217.164 -42.2609 216.557 -42.414C215.496 -42.8734 215.951 -41.9547 215.496 -41.3422C214.587 -39.8109 213.223 -42.8734 213.223 -43.639C213.223 -44.2515 214.284 -44.5577 213.223 -45.3234C212.01 -45.9358 210.495 -46.089 209.282 -46.089C207.766 -46.2421 208.524 -44.864 207.008 -44.864C205.038 -44.864 203.371 -45.0171 201.552 -45.3234C200.339 -45.4765 199.127 -45.7827 198.066 -46.2421C197.762 -46.3952 197.308 -46.5483 197.156 -46.8546C196.398 -46.2421 195.64 -45.4765 194.731 -45.0171C193.822 -44.5577 193.67 -45.3234 194.276 -45.7827C195.792 -46.8546 197.914 -47.3139 199.278 -48.692C200.945 -50.2233 197.611 -51.4483 196.55 -51.4483C195.64 -51.4483 194.731 -51.4483 193.67 -51.4483C192.609 -51.4483 192.306 -53.2857 190.79 -53.2857C190.638 -53.2857 182.605 -48.5389 183.211 -50.6826C180.938 -49.917 178.664 -49.917 176.542 -48.8452C175.33 -48.2327 175.33 -47.3139 174.42 -46.3952C173.814 -45.7827 171.995 -46.2421 171.389 -46.2421C170.631 -46.2421 169.418 -46.089 169.115 -45.1702C168.66 -44.2515 170.176 -43.0265 168.509 -43.1796C167.751 -43.3328 166.993 -43.3328 166.387 -43.3328C166.235 -43.0265 165.629 -42.1078 165.023 -42.2609C164.265 -42.414 164.568 -43.7921 164.113 -44.2515C163.962 -43.3328 163.204 -42.7203 162.446 -42.2609C162.749 -41.3422 164.113 -40.4234 163.052 -39.3516C162.597 -38.8922 164.113 -35.6766 163.052 -36.2891C161.84 -37.0547 161.84 -39.6578 161.688 -40.8828C161.688 -41.4953 162.294 -43.639 161.991 -43.7921C160.172 -44.864 158.05 -43.4859 156.989 -41.9547C155.625 -39.8109 158.202 -38.7391 158.505 -36.9016C158.657 -36.136 155.625 -37.8203 155.322 -37.9735C154.564 -38.4328 151.533 -39.6578 150.926 -38.7391C150.775 -38.4328 151.533 -36.4423 150.472 -36.7485C150.017 -36.9016 149.714 -37.5141 149.259 -37.5141C148.198 -37.5141 147.137 -36.7485 146.076 -36.7485C144.409 -36.5954 144.106 -37.8203 142.287 -36.9016C140.922 -36.136 139.71 -35.0641 138.194 -34.6048C136.527 -34.1454 137.588 -36.5954 136.982 -37.2078C136.678 -37.6672 136.224 -36.7485 136.072 -36.5954C135.314 -35.2173 135.921 -35.0641 135.921 -33.9923C135.921 -32.7673 133.495 -33.9923 132.889 -32.7673C132.131 -31.0829 131.07 -30.7767 129.251 -31.5423C129.403 -31.0829 129.1 -30.6236 129.251 -30.3173C127.432 -30.4704 127.736 -32.3079 126.978 -33.3798C128.493 -33.3798 130.616 -32.6142 132.131 -33.2267C133.647 -33.8392 133.495 -35.0641 132.131 -35.9829C130.161 -37.0547 127.887 -37.8204 125.765 -38.586C124.401 -39.0453 122.885 -38.7391 121.824 -39.6578C122.431 -39.8109 122.885 -39.6578 123.037 -40.4234C122.431 -40.7297 121.824 -41.3422 121.37 -40.4234C121.066 -40.5766 120.915 -40.8828 121.066 -41.189C120.157 -40.5766 120.157 -39.9641 119.702 -40.8828C119.248 -40.5766 118.944 -39.8109 118.338 -39.9641C118.641 -40.2703 118.793 -40.5765 118.944 -41.0359C118.944 -40.5765 115.913 -41.1891 115.913 -40.5766C115.913 -40.2703 116.216 -40.2703 116.368 -40.1172C115.761 -39.8109 115.155 -39.9641 114.852 -39.1984C114.852 -39.3516 114.852 -39.5047 114.852 -39.8109C114.246 -39.8109 114.246 -39.0453 113.639 -38.8922C113.639 -39.0453 113.639 -39.1985 113.639 -39.3516C113.185 -39.3516 112.73 -39.1985 112.275 -38.8922C112.427 -38.7391 112.427 -38.7391 112.578 -38.586C111.972 -38.2797 111.669 -38.7391 111.214 -37.9735C111.366 -37.9735 111.517 -37.9735 111.669 -37.9735C110.608 -37.361 110.911 -36.9016 110.002 -38.1266C109.698 -37.8203 109.092 -37.8203 108.941 -37.2078C109.092 -37.2078 109.244 -37.0547 109.395 -37.0547C109.092 -36.9016 108.941 -36.7485 108.789 -36.5954C109.547 -36.5954 110.002 -37.0547 110.759 -37.2078C110.305 -35.3704 108.031 -35.0641 107.425 -33.3798C106.667 -31.8486 105.606 -29.858 103.787 -29.3986C104.09 -29.3986 104.242 -29.2455 104.545 -29.2455C103.484 -29.3986 101.817 -28.0205 101.21 -27.2549C100.756 -26.4893 100.452 -26.9486 100.604 -25.5705C100.604 -25.1112 100.756 -24.4987 101.059 -24.1924C100.756 -23.8862 100.604 -23.7331 100.604 -23.4268C100.907 -23.5799 101.21 -23.5799 101.513 -23.5799C101.21 -22.8143 100.756 -22.6612 101.665 -22.0487C103.181 -21.13 104.697 -22.5081 105.454 -23.8862C106.364 -22.6612 106.819 -20.6706 107.273 -19.1394C107.576 -18.2207 107.88 -17.455 108.789 -18.3738C109.395 -19.1394 110.002 -18.8331 110.608 -19.4456C111.82 -20.6706 110.608 -20.5175 110.911 -21.7425C111.214 -22.8143 113.033 -22.8143 113.033 -23.8862C113.033 -25.1112 111.366 -24.8049 111.366 -26.0299C111.366 -26.9486 111.82 -28.0205 112.73 -28.4799C113.488 -28.9392 114.7 -29.3986 115.307 -30.1642C115.761 -30.9298 115.155 -31.8486 116.064 -32.3079C116.822 -32.7673 118.49 -32.9204 119.096 -32.1548C119.854 -31.2361 117.732 -30.4705 117.277 -29.858C116.671 -29.0924 115.155 -28.633 115.155 -27.7142C115.155 -27.408 115.307 -26.6424 115.761 -26.4893C115.458 -26.0299 115.003 -25.8768 115.458 -25.1112C116.064 -24.3456 117.429 -24.0393 118.338 -24.3456C119.096 -24.4987 121.37 -24.4987 121.824 -25.2643C122.127 -24.958 122.431 -24.4987 122.582 -24.1924C121.066 -23.1206 119.702 -24.0393 118.187 -23.4268C116.064 -22.5081 119.551 -21.13 118.035 -20.5175C116.822 -20.0581 116.519 -22.355 115.458 -20.2112C114.852 -18.68 114.852 -16.8426 112.881 -16.8426C112.881 -18.68 108.031 -14.6988 108.334 -16.8426C107.273 -16.9957 104.696 -15.4645 104.696 -17.6082C104.696 -18.5269 105.758 -18.68 105.758 -19.2925C105.758 -19.5987 105.151 -20.0581 105.303 -20.9769C104.545 -20.3644 103.181 -20.2112 103.181 -18.9863C103.181 -18.0675 104.09 -17.1488 104.09 -16.23C104.09 -15.6176 101.059 -15.3113 100.756 -14.852C99.543 -13.7801 99.8462 -12.2489 97.7241 -12.2489C97.2694 -10.7176 95.7537 -9.95203 94.5411 -10.7176C94.6927 -10.2583 94.8442 -9.64578 94.3895 -9.49266C94.3895 -9.49266 90.7518 -9.64578 92.1159 -8.72704C92.5706 -8.4208 93.3285 -8.26766 93.7832 -8.11454C94.3895 -7.96142 94.0864 -7.34895 94.5411 -6.88958C95.299 -6.27709 95.6021 -5.35835 94.9958 -4.13337C94.3895 -2.90839 93.6317 -3.36775 92.2675 -3.36775C91.5096 -3.36775 89.8423 -3.36774 89.236 -3.67399C87.4172 -4.59273 88.0234 -1.22404 88.0234 -0.764671C87.8719 0.000938416 87.4172 0.919685 87.4172 1.6853C87.4172 2.14467 87.8719 1.99154 87.8719 2.75715C87.8719 4.59462 89.0845 2.75716 89.9939 3.6759C90.6002 4.28839 90.4486 5.054 91.5096 4.44151C92.1159 4.13526 93.0254 3.67588 93.7832 3.82901C94.2379 3.67588 96.5115 1.99154 95.9052 1.53217C94.6927 0.154068 98.1789 -1.07091 98.482 -1.37715C99.0883 -1.83652 98.482 -2.44902 98.6336 -2.60214C98.6336 -3.98024 100.756 -3.06151 101.362 -3.06151C102.878 -3.06151 104.09 -5.8177 105.454 -3.52086C106.212 -2.14276 107.425 -1.22403 108.789 -0.611542C109.244 -0.45842 111.517 2.29778 109.85 2.29778C109.85 3.06339 111.366 1.37906 111.366 1.37906C111.366 0.919685 110.305 0.460312 111.063 0.000938416C111.669 -0.458427 112.124 0.307205 112.578 0.307205C112.73 -1.0709 110.456 -0.611542 110.456 -1.83652C108.334 -1.83652 109.244 -3.52087 107.728 -3.98024C106.061 -4.59273 107.425 -5.81772 108.031 -6.12397C108.183 -5.97084 108.031 -5.20522 108.486 -5.20522C109.395 -4.74585 109.092 -5.81772 109.547 -4.59274C110.002 -3.52088 111.517 -3.06151 112.275 -2.60214C113.791 -1.83652 113.791 2.60403 115.761 2.29778C115.307 3.06339 115.61 3.98213 116.822 3.82901C116.671 3.67588 116.671 2.4509 116.671 2.29778C117.126 2.75715 117.58 2.91029 118.187 2.60404C117.58 1.99155 117.277 1.22592 116.974 0.766556C115.913 -0.458427 117.126 0.307205 117.732 0.307205C118.187 -1.83651 120.763 0.460312 122.279 -1.07092C121.976 -1.53028 121.218 -1.83652 121.218 -2.44901C121.218 -3.21462 122.127 -3.52088 122.127 -4.13337C122.127 -5.35835 122.885 -5.97082 123.492 -6.58331C125.462 -8.72703 126.523 -2.44901 129.251 -5.8177C126.068 -5.8177 130.009 -7.50206 131.07 -7.96143C129.858 -7.34894 131.373 -6.27707 129.555 -5.8177C129.858 -5.20521 135.011 -2.29588 134.253 -1.6834C133.799 -1.53027 129.251 0.000938416 129.251 -1.53029C128.039 -1.53029 127.129 -2.44901 125.765 -1.6834C125.614 -1.53027 122.734 -0.764656 122.734 -0.917778C122.734 -0.764656 122.885 -0.611534 123.037 -0.458412C122.279 0.000961304 120.915 -0.458405 120.309 0.307205C119.854 0.766571 121.218 0.919693 120.005 2.14468C120.309 2.2978 122.279 3.82902 121.673 3.98214C122.279 3.82902 122.582 3.98213 123.037 4.28838C123.946 4.90087 123.946 3.82901 124.704 3.82901C125.614 3.82901 125.917 5.054 126.978 4.44151C127.887 4.13526 128.19 4.13527 129.1 3.6759C128.797 4.44151 129.403 5.51337 128.797 6.27898C128.19 7.19772 127.281 8.72894 127.584 9.8008C127.584 9.8008 125.31 9.34143 124.856 9.34143C122.885 9.34143 121.824 9.95391 119.702 9.1883C118.944 8.88206 116.822 8.88206 116.822 7.8102C115.913 7.65708 114.246 7.96333 114.246 9.03519C113.639 9.8008 113.942 10.7195 112.275 9.8008C111.063 9.18831 110.305 7.96332 109.092 7.65707C108.031 7.35083 107.122 7.96333 106.364 6.73836C105.758 5.81962 106.515 4.13526 106.667 3.21653C105.909 3.36965 105.303 2.4509 104.545 3.06339C104.242 3.36964 101.968 3.52277 101.513 3.52277C100.301 3.52277 99.543 3.21653 98.1788 3.6759C96.9663 3.98215 95.299 5.36024 94.0864 5.36024C93.1769 5.36024 91.358 4.28839 91.0549 4.90088C90.4486 5.81962 89.5392 6.73833 88.7813 7.65707C87.7203 8.88205 88.0235 9.49456 87.5687 11.0258C87.114 12.7101 85.1436 12.2508 84.2341 13.3226C82.8699 15.3132 80.7479 18.2225 81.5058 20.6725C81.9605 22.0506 81.9605 23.2756 81.2027 24.5006C80.7479 25.2662 80.2932 25.1131 80.7479 26.0318C80.8995 26.338 81.0511 27.2568 81.0511 27.563C81.6574 28.788 83.6278 30.013 84.5373 31.5442C85.7498 33.6879 88.4782 35.8316 90.9033 34.9129C92.2675 34.4535 93.0253 35.066 94.3895 35.066C95.299 35.066 96.8147 33.9942 97.7241 33.6879C100.452 32.7692 100.756 35.2191 103.181 35.2191C104.242 35.2191 105 35.6785 105.454 36.5973C105.151 36.9035 105 38.2816 105.151 38.741C102.574 40.2722 107.273 43.4878 107.425 45.019C107.728 46.8565 109.547 49.4596 108.486 51.297C108.031 52.2158 107.122 52.8283 106.819 53.9001C106.364 55.5845 107.273 57.422 108.183 58.8001C109.547 61.0969 109.244 63.5468 110.608 65.9968C111.214 67.0687 111.82 68.1405 112.578 69.0593C112.881 69.5186 113.185 69.978 112.881 70.4374C112.427 71.3561 113.185 71.3561 113.185 72.428C113.791 72.1217 114.246 73.0404 115.155 72.7342C116.064 72.4279 117.277 71.5092 118.338 71.9686C119.854 72.8873 122.431 70.4374 123.188 69.3655C123.643 68.5999 126.675 65.0781 126.068 64.3125C125.462 63.3937 126.826 62.475 127.887 62.475C128.797 62.475 128.797 60.3313 128.493 59.7188C128.19 58.9532 127.281 58.3407 128.039 57.5751C128.645 56.9626 129.1 56.197 129.858 55.7376C130.616 55.2782 134.708 53.747 133.041 52.2158C133.041 51.1439 133.647 49.0002 132.889 48.0815C132.131 47.1627 132.131 46.244 131.98 45.019C131.828 43.4878 132.586 43.4878 133.041 42.2628C133.647 39.8128 135.769 38.8941 137.588 37.6691C139.71 36.1379 141.377 33.2286 142.438 30.9317C142.893 30.013 143.348 28.788 142.893 27.8693C141.529 28.1755 140.165 28.9411 138.649 28.788C137.285 28.6349 137.133 30.013 136.072 28.4818C135.617 28.1755 135.466 27.8693 135.769 27.563C135.466 26.6443 135.314 27.1037 134.708 26.4912C134.102 25.7255 133.95 25.2662 133.041 24.8068C131.677 24.0412 132.283 22.51 131.07 21.5912C130.161 20.9788 130.161 20.5194 130.161 19.4475C130.161 18.5288 129.555 18.2225 129.1 17.4569C128.493 16.232 128.039 15.007 127.281 13.6289C126.826 12.7101 125.614 11.4851 125.765 10.4133C126.371 11.0258 126.675 12.4039 127.584 12.557C127.736 11.9445 128.039 11.4851 128.19 10.8727C128.039 11.9445 129.706 15.9257 130.616 16.0788C131.373 16.0788 131.98 17.4569 131.98 18.0694C131.98 19.7538 133.041 19.7538 133.495 20.8256C133.95 21.7444 134.86 22.3569 135.314 23.2756C135.617 24.0412 135.314 24.8068 135.617 25.7256C136.527 28.1755 137.133 26.4912 138.8 26.4912C139.71 26.4912 143.954 24.6537 143.954 24.1943C143.954 23.4287 145.773 23.1225 146.228 23.1225C146.834 22.9694 147.895 22.0506 148.198 21.4381C148.501 20.9787 151.533 18.0694 150.623 17.7632C150.017 17.4569 149.865 16.8444 148.956 16.5382C147.895 16.0788 147.44 15.3132 147.592 14.0882C146.682 14.8539 146.228 15.9257 144.863 16.2319C142.59 16.6913 143.196 15.6195 142.893 14.2413C142.741 14.3945 142.438 14.7007 142.287 14.8539C142.135 13.782 140.922 13.3226 140.468 12.2508C139.558 10.2602 141.226 9.18832 142.438 11.0258C143.196 12.0976 143.954 13.1695 145.318 13.6289C146.379 13.9351 146.834 13.1695 147.592 13.1695C148.35 13.1695 148.198 14.0882 148.653 14.3945C148.956 14.7007 150.017 14.7007 150.472 14.7007C151.684 14.8538 152.745 15.007 153.958 15.007C154.261 14.7007 156.535 14.7007 156.838 14.8539C157.292 15.007 157.444 15.7726 157.747 16.0788C158.353 17.1507 159.414 16.9976 160.324 17.3038C159.869 17.7632 159.566 17.6101 159.111 17.9163C159.566 18.3757 160.475 20.06 161.536 19.2944C161.991 18.835 161.991 18.2226 162.597 17.9163C162.597 20.6725 162.901 23.5818 164.568 26.1849C165.629 27.8693 166.69 33.841 168.509 29.5536C168.66 29.2474 169.267 29.2474 169.267 29.0943C169.418 28.6349 169.115 28.1755 169.267 27.7161C169.57 26.6443 169.267 26.0318 169.267 24.9599C169.267 24.1943 170.782 23.735 171.389 23.2756C172.753 22.0506 175.178 20.6725 175.633 18.9882C176.239 17.4569 179.119 19.4475 179.119 17.3038C180.483 17.6101 180.028 18.3757 180.635 19.2944C181.241 20.3663 182.15 20.8256 182.605 22.0506C182.757 22.6631 182.454 23.4287 182.757 24.0412C183.363 25.2662 184.576 22.9694 184.879 22.8162C186.698 24.6537 186.243 28.3286 186.243 30.7786C186.243 31.238 186.698 30.7786 187.001 31.238C187.607 32.0036 187.91 33.3817 188.062 34.1473C188.516 35.9848 189.881 37.6691 191.7 37.516C190.79 35.5254 191.093 33.8411 189.123 32.7692C188.062 32.1567 186.394 29.5536 187.304 28.4818C187.91 27.7161 187.455 27.2568 187.607 26.4912C187.759 26.0318 189.274 27.4099 189.577 27.4099C190.638 27.7161 190.639 29.0942 191.548 29.2474C192.306 29.4005 192.154 30.9317 192.457 30.9317C192.912 30.9317 193.215 30.1661 193.215 29.7067C193.215 29.8599 193.215 29.8599 193.367 30.013C194.125 30.013 196.095 27.8693 196.247 27.2568C196.853 25.4193 195.337 24.1943 194.428 22.9693C193.518 21.7444 192.154 20.8256 193.822 19.6006C194.276 19.2944 194.883 18.9882 195.186 18.3757C195.64 18.5288 196.247 18.6819 196.701 18.6819C196.55 18.9882 196.701 19.2944 196.853 19.4475C197.156 19.2944 197.156 18.9882 197.308 18.835C197.611 18.5288 198.823 18.2225 199.278 18.0694C199.43 18.0694 200.339 17.1507 200.339 17.1507C201.097 17.1507 201.097 17.6101 201.855 17.3038C204.28 16.6913 204.886 14.2414 206.251 12.557C207.918 10.4133 207.766 8.57581 206.402 6.27898C206.251 5.97273 205.19 4.90088 205.796 4.44151C206.554 3.98214 207.918 3.21652 208.524 2.45091C208.221 2.14467 207.463 2.14466 207.008 1.99154C206.251 1.37905 206.554 2.60404 206.099 2.60404C205.644 2.60404 203.977 1.68531 203.977 1.07281C203.977 0.613449 206.402 -0.152168 206.705 -0.917778C207.008 -1.22403 207.16 -1.53028 207.615 -1.07092C208.221 -0.45842 207.16 0.000953674 207.16 0.613449C207.918 0.613449 208.524 0.000953674 209.13 -0.152168C210.04 -0.458412 210.04 0.000938416 210.949 0.000938416C210.495 0.919678 210.343 1.83843 211.404 1.83843C212.465 1.83843 211.859 4.59463 211.859 5.51337C214.132 5.51337 215.497 3.52277 213.981 1.37906C212.768 -0.152168 212.92 0.000961304 214.435 -1.22402C215.648 -2.14276 215.345 -3.82711 217.012 -3.52086C220.65 -2.90837 221.256 -6.43019 223.378 -8.57391C224.591 -9.79889 224.742 -11.0239 224.894 -12.5551C225.046 -14.2395 226.41 -15.1582 224.894 -16.6894C223.681 -17.9144 223.227 -16.3832 221.863 -16.8426C220.65 -17.3019 220.498 -18.3738 221.408 -19.2925C223.833 -21.5893 225.803 -23.8862 229.29 -24.1924C232.018 -24.4987 234.292 -23.8862 236.868 -23.8862C237.929 -23.8862 237.929 -25.5705 238.687 -26.3362C239.748 -27.408 241.719 -27.408 243.083 -27.2549C242.173 -26.4893 242.931 -25.5705 243.992 -26.4893C244.599 -26.9486 245.508 -28.633 246.266 -28.3268C247.478 -27.7143 245.811 -26.4893 245.356 -26.183C244.144 -25.4174 243.538 -25.5705 242.628 -24.3456C241.719 -22.9674 240.354 -22.3549 239.445 -21.13C238.536 -19.7519 238.99 -15.0051 240.354 -13.9332C241.567 -15.7707 242.628 -16.8426 243.841 -18.3738C245.356 -20.2113 244.902 -22.5081 246.569 -24.4987C247.782 -25.7237 248.994 -25.7236 250.358 -24.958C252.329 -23.8862 254.602 -26.3361 255.967 -27.408C256.724 -27.8674 260.968 -28.633 260.665 -29.3986C259.907 -30.7767 258.24 -31.2361 260.817 -32.3079C261.575 -32.6142 261.575 -33.9923 262.029 -33.9923C263.242 -33.9923 264.151 -33.0735 265.061 -32.3079C267.789 -30.1642 267.638 -32.7673 270.214 -33.686C267.941 -35.0641 264.606 -35.3704 262.636 -36.5954C264.455 -35.5235 260.059 -37.9735 262.636 -36.5954ZM116.216 -9.64577C116.671 -9.03328 116.064 -8.88016 116.974 -8.88016C116.519 -8.88016 116.216 -9.03328 116.216 -9.64577ZM116.822 -11.4833C117.883 -12.2489 117.126 -12.402 116.974 -13.627C117.126 -12.5551 117.883 -12.402 116.822 -11.4833ZM122.279 -34.4517C122.279 -35.0641 123.188 -35.6766 122.734 -36.2891C122.431 -36.5954 121.824 -36.7485 121.824 -37.2078C121.824 -36.4422 122.885 -36.5954 122.885 -35.9829C122.582 -35.3704 122.431 -34.911 122.279 -34.4517ZM142.135 -3.98024C142.741 -3.0615 143.651 -2.449 143.651 -1.22402C144.56 -1.68339 145.318 -1.83652 145.318 -0.458412C145.015 -0.611534 144.257 -0.611542 143.954 -0.305298C143.348 0.460312 144.863 0.613441 144.863 1.6853C144.863 3.52277 145.167 3.82901 142.893 3.82901C141.983 3.82901 141.983 3.21651 141.377 3.06339C140.013 2.75715 140.922 2.29778 140.013 1.53217C139.71 1.22592 140.013 0.30719 139.407 0.460312C138.952 0.460312 138.497 1.0728 138.043 1.22592C139.407 1.22592 138.8 -0.152176 139.861 0.919685C139.71 1.22593 140.165 1.22592 140.316 1.22592C140.619 0.766556 140.619 0.000946045 141.226 -0.305298C139.407 -1.22404 137.891 -4.74586 138.952 -6.43021C139.255 -7.0427 141.226 -7.65519 141.832 -7.65519C143.651 -7.96144 144.409 -7.34894 145.47 -5.97083C144.863 -5.51147 143.196 -5.97083 142.287 -5.51146C140.922 -4.74585 141.68 -4.89897 142.135 -3.98024C142.741 -2.90838 141.832 -4.28648 142.135 -3.98024ZM145.924 2.45091C141.832 6.58522 150.623 -2.14277 145.924 2.45091V2.45091ZM146.834 2.14468C146.985 2.14468 147.289 1.99155 147.44 1.83843C147.289 1.99155 147.137 2.14468 146.834 2.14468ZM150.926 6.89146C151.078 6.73833 151.078 6.73833 150.926 6.89146V6.89146ZM151.836 5.05399C151.533 5.05399 151.078 6.27898 151.078 6.43211C151.381 5.51337 151.684 5.51336 151.684 4.59462C151.684 5.05399 152.139 5.36024 152.745 5.36024C152.442 5.20711 152.139 5.05399 151.836 5.05399ZM155.17 3.06339C155.322 2.91027 155.625 2.75715 155.777 2.75715C155.474 2.91027 155.322 3.06339 155.17 3.06339C155.322 2.91027 155.322 2.91027 155.17 3.06339ZM157.899 3.36966C157.747 3.36966 156.231 2.91029 156.231 2.91029C156.231 3.21653 157.596 3.21654 157.899 3.36966ZM159.414 2.60404C159.263 2.60404 159.566 2.60403 159.718 2.29778C159.718 2.4509 159.566 2.45092 159.414 2.60404ZM161.233 3.52277C161.082 3.36964 161.082 3.36965 160.93 3.21653C161.233 3.36965 161.385 3.52277 161.233 3.52277ZM162.143 3.21653C162.294 3.06341 162.597 2.91029 162.901 2.91029C162.597 3.06341 162.446 3.06341 162.143 3.21653ZM164.719 3.6759C163.962 3.36965 163.81 3.06339 162.901 3.06339C163.204 3.06339 163.962 3.06339 163.962 3.06339C164.113 3.67589 165.174 3.6759 164.719 3.6759C164.871 3.6759 164.265 3.52277 164.719 3.6759ZM168.206 9.64767C168.054 9.64767 167.903 9.64769 167.751 9.49456C167.751 9.64769 168.812 9.8008 168.206 9.64767ZM169.115 -5.51146C169.115 -3.67399 168.509 -1.6834 166.69 -0.917778C165.932 -0.458412 165.023 -0.305298 164.113 -0.305298C163.507 -0.305298 162.446 1.68531 163.052 1.83843C162.446 1.68531 163.355 0.154083 163.658 -0.152168C164.265 -0.764656 165.932 -0.458412 166.69 -0.917778C167.599 -1.37715 168.357 -2.29588 168.66 -3.21462C168.812 -3.67399 168.964 -4.13335 168.964 -4.74585C169.115 -6.12395 169.267 -5.35835 170.176 -6.12397C170.025 -5.81772 169.57 -5.66459 169.115 -5.51146C169.57 -5.66459 169.115 -1.83652 169.115 -5.51146ZM188.365 -13.4738C187.759 -13.7801 186.546 -13.9332 186.091 -13.9332C186.394 -13.9332 187.607 -13.7801 188.365 -13.4738ZM175.936 12.7101C174.723 12.8633 174.117 12.557 173.056 11.9445C174.42 12.8633 175.026 12.557 176.542 12.557C176.239 12.557 176.087 12.7101 175.936 12.7101ZM178.816 -11.6364C177.755 -11.0239 173.965 -10.5645 173.814 -9.03329C173.662 -6.88957 171.843 -8.26767 170.934 -7.04269C171.54 -7.96143 172.298 -7.34893 173.208 -7.8083C173.814 -8.11455 173.662 -8.88017 173.814 -9.49266C173.965 -10.2583 175.633 -10.7176 176.239 -10.8708C176.845 -10.8708 179.119 -11.9426 178.816 -11.6364C178.816 -11.7895 177.148 -10.7176 178.816 -11.6364ZM183.666 -11.4833C182.15 -11.4833 180.483 -13.1676 179.27 -11.9426C181.089 -13.627 183.969 -9.64578 185.333 -12.8614C184.879 -12.2489 184.424 -11.4833 183.666 -11.4833ZM184.879 22.2037C184.879 21.7444 185.03 21.4381 185.182 21.1319C184.879 21.4381 184.879 21.7444 184.879 22.2037ZM184.879 22.51C185.182 23.2756 186.243 24.1943 185.333 25.1131C186.243 24.1943 185.333 23.4287 184.879 22.51C185.03 22.8162 185.03 22.8162 184.879 22.51ZM185.333 25.4193C185.333 24.8068 185.637 25.8787 185.94 26.1849C185.637 26.0318 185.485 25.7256 185.333 25.4193ZM187.759 19.1413C187.91 18.9882 187.91 18.835 188.062 18.6819C187.304 18.6819 186.849 18.6819 186.546 17.9163C186.698 18.6819 187.304 18.835 188.062 18.6819C187.91 18.9882 187.91 19.1413 187.759 19.1413ZM188.213 18.835C188.213 18.9882 188.213 19.1413 188.365 19.1413C188.213 18.9882 188.213 18.9882 188.213 18.835ZM193.215 17.7632C192.912 17.7632 192.457 17.6101 192.154 17.4569C193.064 17.7632 192.912 17.61 193.367 18.3757C193.215 18.2225 193.215 17.9163 193.215 17.7632C193.215 18.0694 192.761 17.7632 193.215 17.7632ZM196.247 -10.5645C194.428 -10.5645 193.367 -12.2489 191.548 -12.2489C193.064 -12.2489 193.973 -11.0239 195.337 -10.7176C197.156 -10.2583 198.975 -11.6364 200.794 -11.6364C199.43 -11.4832 197.914 -10.5645 196.247 -10.5645ZM205.493 -13.7801C206.099 -15.0051 207.008 -15.6176 208.373 -15.6176C207.008 -15.6176 206.099 -14.852 205.493 -13.7801ZM214.587 -10.2583C213.981 -10.8708 212.617 -10.7176 212.162 -11.4833C211.404 -12.5551 211.252 -14.2394 210.191 -15.0051C211.252 -14.2394 211.556 -12.5551 212.162 -11.4833C212.768 -10.5645 214.284 -10.7176 214.89 -9.64577C214.89 -9.95201 214.739 -10.1051 214.587 -10.2583C214.739 -10.1051 213.981 -10.7176 214.587 -10.2583ZM215.496 -5.05209C215.345 -5.20521 215.951 -4.59272 215.951 -4.28648C215.951 -4.59272 215.8 -4.89896 215.496 -5.05209Z"></path>
<path fill="#90C6DE" d="M258.872 -41.631C259.329 -41.631 262.379 -41.7481 261.616 -42.3341C261.007 -42.6857 260.092 -42.8029 259.482 -42.5685C259.329 -42.5685 257.957 -41.631 258.872 -41.631Z"></path>
<path fill="#90C6DE" d="M249.859 -39.5119C250.416 -39.5119 249.859 -39.5119 249.024 -39.5119C249.163 -39.5119 249.442 -39.5119 249.859 -39.5119Z"></path>
<path fill="#90C6DE" d="M198.695 -46.9286C197.991 -46.9286 197.991 -45.869 198.695 -45.869C199.516 -45.869 199.281 -46.9286 198.695 -46.9286Z"></path>
<path fill="#90C6DE" d="M186.512 -53.6728C186.512 -52.717 189.078 -53.8321 189.833 -53.8321C192.852 -53.3542 192.098 -56.381 189.682 -55.7438C190.437 -56.5403 189.078 -56.5404 188.776 -56.381C188.173 -56.0624 186.512 -54.1508 186.512 -53.6728Z"></path>
<path fill="#90C6DE" d="M178.036 -57.9242C178.036 -56.0255 180.155 -56.0255 180.155 -57.653C180.003 -57.653 178.036 -59.5517 178.036 -57.9242Z"></path>
<path fill="#90C6DE" d="M182.85 -58.2689C181.949 -57.9721 181.348 -57.5269 180.447 -57.23C181.799 -56.488 182.249 -56.1912 183.751 -55.746C184.352 -55.5976 185.403 -55.1523 186.004 -55.5975C186.455 -55.8944 186.004 -56.1912 185.704 -56.3396C188.107 -57.0816 184.502 -58.7141 183.301 -58.2689C183.901 -58.5657 183.901 -58.8625 183.901 -59.4562C184.052 -59.4562 184.202 -59.4562 184.352 -59.4562C183.451 -60.0498 183 -60.9402 181.799 -60.6434C180.747 -60.3466 180.147 -59.1594 179.095 -58.8625C180.447 -58.4173 181.649 -58.2689 182.85 -58.2689C182.55 -58.2689 181.799 -57.9721 182.85 -58.2689Z"></path>
<path fill="#90C6DE" d="M182.627 -51.1667C183.157 -51.1667 183.333 -51.6964 183.333 -52.2262C182.804 -52.2262 182.804 -52.2262 182.274 -51.6964C182.274 -51.4316 182.45 -51.1667 182.627 -51.1667Z"></path>
<path fill="#90C6DE" d="M179.095 -59.7921C178.566 -60.5531 177.771 -60.9336 176.976 -60.5531C177.506 -59.7921 178.301 -59.4116 179.095 -59.7921Z"></path>
<path fill="#90C6DE" d="M193.475 -53.2857C193.777 -53.2857 193.929 -53.6389 193.929 -54.3452C193.626 -54.3452 193.172 -53.9921 192.869 -53.9921C193.021 -53.6389 193.172 -53.2857 193.475 -53.2857Z"></path>
<path fill="#90C6DE" d="M137.725 -59.3995C139.203 -59.3995 137.281 -58.9914 138.612 -58.9914C137.429 -58.7874 138.316 -58.5833 138.759 -58.5833C138.759 -58.5833 141.864 -58.9914 142.012 -59.3995C140.977 -59.6036 140.238 -59.1955 139.351 -59.3995C138.464 -59.6036 136.246 -59.9096 135.655 -59.1955C136.394 -59.0934 136.838 -59.3995 137.725 -59.3995Z"></path>
<path fill="#90C6DE" d="M153 -59.6429C153.471 -59.6429 154.412 -59.7555 154.726 -59.9807C154.412 -61.7824 151.588 -59.6429 153 -59.6429Z"></path>
<path fill="#90C6DE" d="M151.775 -58.6106C151.775 -58.7198 151.58 -58.829 151.58 -58.9383C152.362 -58.9383 152.753 -58.9383 152.557 -59.3751C151.58 -59.2659 151.384 -59.2659 151.58 -59.5935C150.602 -59.812 149.429 -59.2659 149.429 -58.7198C149.429 -58.5014 151.384 -58.6106 151.775 -58.6106Z"></path>
<path fill="#90C6DE" d="M147.621 -58.5833C147.372 -58.5833 146.25 -58.3862 146.25 -57.7949C146.25 -57.0064 147.995 -58.1891 148.369 -58.1891C148.244 -58.3862 147.995 -58.5833 147.621 -58.5833Z"></path>
<path fill="#90C6DE" d="M147.606 -59.7619C147.861 -59.7619 148.115 -59.7619 148.369 -59.8952C147.861 -60.1619 147.352 -60.2952 146.843 -60.2952C146.843 -60.2952 148.878 -61.7619 148.242 -61.7619C147.861 -61.7619 146.208 -60.6952 146.208 -60.2952C146.335 -60.4285 146.462 -60.4285 146.716 -60.2952C146.208 -60.4285 145.572 -60.2952 145.191 -60.0285C146.335 -59.3619 146.589 -59.7619 147.606 -59.7619Z"></path>
<path fill="#90C6DE" d="M105.656 -55.6552C106.255 -55.6552 107.154 -52.1379 108.353 -54.3153C108.653 -54.9853 109.552 -54.3153 110.151 -54.3153C109.851 -54.1478 107.604 -53.3104 107.604 -53.1429C107.604 -52.1379 109.702 -52.9754 110.301 -52.4729C109.552 -52.3054 108.803 -52.3054 108.053 -52.1379C108.053 -51.3005 108.952 -50.798 109.552 -50.463C111.35 -49.4581 110.301 -50.798 111.5 -51.803C112.099 -52.3054 112.099 -52.6404 112.399 -53.3104C113.148 -54.9852 113.448 -54.1478 114.496 -53.9803C113.897 -53.9803 113.897 -53.8128 114.347 -53.3104C114.946 -52.3054 114.347 -52.9754 114.197 -51.9705C115.246 -51.803 115.395 -52.3054 115.695 -51.3005C116.444 -51.6355 116.894 -52.3054 117.643 -52.4729C117.044 -53.4778 115.395 -54.1478 114.796 -54.3153C115.545 -54.3153 113.298 -55.6552 112.998 -55.6552C111.949 -55.9902 112.249 -56.8277 111.35 -56.1577C111.35 -58.0001 108.952 -58.1675 109.851 -55.4877C109.252 -55.6552 109.252 -56.4927 108.952 -56.8276C108.353 -57.4976 107.454 -56.3252 108.203 -55.9902C107.754 -56.4927 107.005 -56.1577 107.754 -56.9951C107.154 -57.1626 106.255 -57.3301 105.806 -56.9951C104.907 -56.8277 104.457 -55.6552 105.656 -55.6552Z"></path>
<path fill="#90C6DE" d="M111.902 -57.1623C111.902 -56.5308 114.06 -56.6887 114.522 -56.6887C114.06 -56.5308 113.598 -56.5308 112.981 -56.5308C113.135 -55.5834 114.676 -56.0571 115.293 -56.0571C116.217 -54.3203 118.837 -56.5308 119.762 -57.1623C118.991 -58.7412 117.45 -57.7939 116.217 -57.7939C116.217 -58.1097 116.217 -58.4255 116.217 -58.5833C115.601 -58.4255 115.293 -57.636 114.676 -57.9518C113.906 -58.2676 113.597 -58.5833 112.827 -58.4254C112.827 -58.2676 112.981 -58.2676 112.981 -58.1097C112.365 -57.9518 111.902 -57.9518 111.286 -58.1097C111.44 -57.636 111.594 -57.3202 111.902 -57.1623C111.748 -56.3729 111.594 -57.3202 111.902 -57.1623Z"></path>
<path fill="#90C6DE" d="M105.988 -54.3452C105.861 -54.9339 105.478 -54.9339 105.095 -55.4048C104.585 -55.1693 105.35 -54.463 105.988 -54.3452Z"></path>
<path fill="#90C6DE" d="M85.8572 -13.5793C85.8572 -12.3743 88.4001 -13.4454 88.6544 -13.8471C88.7815 -13.981 89.0358 -16.6587 89.0358 -16.5248C88.2729 -18.3993 87.0015 -16.1232 86.7472 -15.9893C86.4929 -15.8554 85.6029 -15.8554 86.2386 -15.186C87.0015 -14.5165 85.8572 -14.5165 85.8572 -13.5793Z"></path>
<path fill="#90C6DE" d="M88.1771 -20.4405C88.8211 -20.6524 89.0358 -20.8643 89.0358 -21.5C88.6064 -21.5 87.5331 -20.4405 88.1771 -20.4405Z"></path>
<path fill="#90C6DE" d="M89.5327 -20.0438C89.2383 -19.0984 90.1216 -19.0983 89.6799 -17.9954C89.8272 -17.9954 89.8272 -17.9954 89.9744 -17.9954C89.8272 -18.1529 89.8272 -18.3105 89.9744 -18.4681C91.2995 -17.5227 89.3855 -16.8924 91.7411 -16.8924C91.4467 -16.2621 93.3607 -15.0016 90.8578 -15.0016C90.8578 -14.5289 90.8578 -12.7956 90.4161 -12.7956C90.8578 -12.7956 91.8884 -12.3229 92.1828 -12.9532C92.1828 -12.3229 90.4161 -11.8502 90.1216 -10.9048C90.5633 -10.9048 90.8578 -11.0623 91.1522 -11.2199C91.1522 -12.1653 92.3301 -11.535 92.7717 -11.6926C93.6551 -11.8502 95.7163 -11.535 96.0108 -12.638C95.8636 -12.638 95.5691 -12.638 95.4219 -12.7956C95.7163 -13.2683 96.4525 -13.4259 96.4525 -14.0561C96.4525 -14.6864 95.7163 -14.844 95.4219 -14.5288L95.5691 -14.6864C94.8329 -14.3713 95.4219 -15.4743 94.8329 -16.2621C93.9496 -17.3651 93.2134 -18.3105 92.1828 -18.6257C92.3301 -19.4135 93.3607 -20.0438 93.2134 -20.9892C92.919 -20.9892 91.4467 -20.8316 91.4467 -20.9892C91.005 -21.6195 92.4773 -21.777 92.0356 -22.2497C90.8578 -23.5103 89.9744 -20.5165 89.8272 -20.5165C90.1216 -20.5165 88.9438 -20.8316 89.091 -20.8316C88.9438 -20.3589 89.091 -20.0438 89.5327 -20.0438Z"></path>
<path fill="#90C6DE" d="M90.4941 -16.2024H90.0953C90.4941 -16.2024 90.8929 -16.2024 90.8929 -16.2024C91.2917 -16.2024 91.2917 -16.2024 90.4941 -16.2024Z"></path>
<path fill="#90C6DE" d="M82.6787 -31.3763C82.6787 -31.9439 80.9591 -33.2683 81.7407 -33.8359C80.1775 -33.8359 80.4901 -34.0251 79.3959 -33.6467C78.6143 -33.2683 76.5821 -32.8899 75.9568 -33.6467C75.4878 -32.8899 74.8625 -32.7007 74.7062 -34.2143C74.3935 -34.2143 73.4556 -33.6467 73.1429 -33.4575C73.2993 -32.8899 74.7062 -32.5115 75.0188 -32.3223C74.5499 -32.1331 73.9246 -31.9439 73.2993 -31.9439C73.7682 -31.7547 74.2372 -31.7547 74.7062 -31.7547C74.5499 -31.1871 74.7062 -30.6195 74.2372 -30.4303C75.6441 -30.4303 77.051 -28.9167 78.6143 -28.9167C79.8649 -28.9167 82.0534 -30.0519 82.6787 -31.3763Z"></path>
<path fill="#90C6DE" d="M19.1072 18.7891C19.1072 19.0641 19.1072 19.3392 19.1072 19.6143C19.1072 20.4395 19.1072 18.514 19.1072 18.7891Z"></path>
<path fill="#90C6DE" d="M23.3453 23C23.3453 23 25.0406 23 25.4644 23C25.0406 23 24.8287 23 25.2525 23C25.0406 23 23.3453 23 23.3453 23Z"></path>
<path fill="#90C6DE" d="M39.2382 30.4167H40.2977C39.5031 30.4167 39.2382 30.4167 39.2382 30.4167Z"></path>
<path fill="#90C6DE" d="M49.3242 38.8929C47.8625 38.8929 49.6491 42.5616 50.786 40.2445C51.2733 39.2791 49.9739 38.8929 49.3242 38.8929Z"></path>
<path fill="#90C6DE" d="M28.0962 82.3334C28.3183 82.1568 29.2066 80.2143 28.0962 80.2143C27.6521 80.2143 27.2079 82.1568 28.0962 82.3334Z"></path>
<path fill="#90C6DE" d="M62.5921 44.1679C61.6802 43.8628 61.2242 44.1679 60.4643 43.4052C59.7043 42.795 59.0964 41.8797 57.8805 42.0323C56.6646 42.1848 55.6007 41.4221 54.5368 42.0323C54.5368 40.8119 53.3209 40.5068 52.2569 40.0492C50.889 39.5916 51.041 41.5746 50.1291 41.5746C49.6731 41.5746 49.0652 40.6594 48.6092 40.5068C47.2413 40.0492 49.2172 38.6764 49.6732 38.2187C49.6732 37.7611 48.3053 35.7781 48.1533 35.6255C47.3933 35.0154 46.9374 34.8628 46.0255 34.4052C45.2655 34.1001 44.3536 34.1001 43.5937 34.1001C42.5297 33.9476 42.0738 33.1849 41.4658 32.5747C40.7059 31.812 37.2102 30.5917 38.2741 29.6764C37.2102 29.3713 36.9062 29.8289 36.1463 30.134C35.2343 30.4391 35.0824 29.8289 34.3224 29.8289C32.8025 29.8289 32.3466 28.4561 30.9787 28.4561C31.1307 28.7612 31.2827 28.9137 31.5866 29.0662C29.3068 28.6086 30.6747 31.2018 30.0668 31.2018C28.6989 31.2018 30.2187 28.7612 30.2187 28.4561C30.2187 27.6934 28.0909 28.9137 27.635 29.0662C26.1151 29.5239 25.5071 31.2018 24.4432 31.9645C25.0512 31.3544 23.3793 30.7442 22.7713 30.7442C21.8594 30.7442 20.7955 31.9645 20.0356 30.8967C19.5796 30.134 18.5157 30.2866 18.5157 29.2188C18.5157 28.4561 18.5157 27.6934 18.6677 26.9307C19.1236 24.6426 16.9958 24.7951 15.172 24.9476C13.0441 25.1002 14.412 23.8798 14.412 22.3544C14.716 22.507 14.564 22.3544 14.716 22.507C15.172 21.7443 15.476 20.3714 15.6279 19.4561C14.564 19.4561 13.1961 18.846 12.4362 19.9138C11.5243 21.1341 11.9802 22.0494 10.4604 22.0494C10.0044 22.0494 8.7885 22.812 8.48453 22.3544C8.02856 21.8968 7.26862 21.2866 6.81265 20.6765C6.2047 20.0663 5.74874 18.9985 5.74874 18.0833C5.74874 16.7104 5.44477 12.7443 6.96465 12.1342C7.72459 11.8291 9.24446 10.4562 10.0044 10.9138C10.3084 11.0664 12.8922 11.6765 13.1961 11.524C12.8922 11.2189 12.8922 10.9138 13.1961 10.4562C13.0442 10.6087 12.8922 10.6087 12.7402 10.4562C13.5001 10.1511 14.564 10.6087 15.02 10.3036C15.6279 9.99857 16.2359 10.4562 16.6918 10.7613C17.4518 11.2189 17.2998 10.4562 17.9078 10.4562C18.9717 10.4562 20.3396 16.5579 21.5555 15.3375C23.0753 13.6596 19.8836 10.7613 20.9475 8.93079C22.0114 6.94775 24.4432 6.94774 25.6591 5.42233C25.2031 4.65961 25.8111 5.26979 25.3551 4.35455C26.1151 4.35455 25.2032 2.21896 25.3551 1.60879L25.8111 3.28676C26.723 3.28676 26.4191 1.6088 26.2671 1.30371C26.723 1.45625 27.027 0.998619 27.483 0.388458C27.7869 -0.22171 27.331 0.235916 27.331 -0.374252C27.331 -0.679337 28.8509 -0.679329 29.0028 -0.679329C28.6989 -0.831871 28.2429 -0.679329 27.9389 -0.679329C28.8509 -1.28949 30.6747 -1.28949 31.4346 -1.74712C30.2187 -1.44203 30.6747 -3.27252 31.4346 -3.88268C32.1946 -4.49285 34.1704 -4.49285 33.8664 -5.4081C34.9304 -4.79794 35.5383 -6.01826 36.2982 -6.17081C36.1463 -5.71318 36.2982 -5.56066 36.7542 -5.7132C34.4744 -5.56066 35.0824 -3.27252 35.8423 -3.88268C36.2982 -4.18777 39.338 -5.56065 39.338 -5.86573C39.338 -6.78098 35.6903 -6.17082 36.1463 -8.76403C35.8423 -8.76403 35.5383 -8.76402 35.3863 -8.91656C35.6903 -9.22164 37.9701 -10.442 35.8423 -10.442C34.3224 -10.442 33.4105 -9.52673 32.0426 -9.37419C32.3466 -10.1369 34.6264 -11.6623 35.5383 -11.8149C37.0582 -11.9674 39.49 -11.0521 40.8579 -11.9674C41.7698 -12.7301 43.5937 -13.0352 44.2016 -13.7979C44.8096 -14.5606 43.5937 -15.7809 43.5937 -16.5436C43.1377 -16.2385 40.5539 -15.0182 40.2499 -15.6284C40.7059 -15.9335 44.3536 -17.0013 42.0738 -17.1538C41.3138 -17.1538 40.2499 -17.6114 40.2499 -18.5267C39.9459 -18.8317 39.186 -18.9843 38.73 -19.4419C40.0979 -20.2046 38.2741 -21.1199 37.9701 -21.8826C37.5141 -22.7978 37.5142 -23.5605 36.6022 -24.3232C35.8423 -24.9334 35.0824 -22.0351 33.7145 -22.0351C32.3466 -22.0351 31.8906 -24.0182 31.7386 -24.9334C31.7386 -25.2385 29.6108 -26.4588 29.3068 -26.6114C27.7869 -27.6792 27.179 -27.069 25.3551 -27.6792C22.6194 -28.5944 24.5952 -26.1537 23.6833 -25.5436C23.2273 -25.2385 25.0512 -23.5605 23.0753 -22.7978C24.2912 -20.8148 26.2671 -17.6114 22.3154 -16.8487C23.0753 -16.5436 23.0753 -15.6284 23.2273 -14.8657C23.3793 -13.7979 22.9233 -14.103 22.9233 -13.1877C21.8594 -13.1877 22.4674 -12.2725 21.2515 -13.3403C20.0356 -14.5606 20.1876 -15.1708 19.8836 -16.6962C19.5796 -18.2216 17.4518 -17.6114 16.3879 -18.2216C15.324 -18.8318 14.26 -19.2894 13.1961 -19.747C12.8922 -19.8995 12.5882 -20.0521 12.2842 -20.2046C11.5243 -20.5097 11.3723 -19.8995 10.6123 -19.8995C10.6123 -21.5775 10.0044 -22.4927 8.63651 -22.1877C8.94048 -22.9504 8.63651 -23.7131 8.63651 -24.4758C8.7885 -25.5436 9.70042 -26.3063 10.1564 -27.2215C10.7643 -28.2893 11.2203 -27.5266 11.9802 -28.2893C12.8922 -29.052 10.7643 -29.3571 10.4604 -29.5096C10.4604 -29.5096 10.7643 -29.6622 10.9163 -29.6622C11.3723 -29.5097 11.9802 -29.5097 12.4362 -29.3571C13.1961 -29.2046 12.5882 -30.1198 13.0442 -30.1198C14.1081 -30.4249 14.564 -30.5774 15.476 -31.3401C15.476 -32.4079 13.3481 -31.7978 12.7402 -32.8656C13.6521 -32.713 14.412 -31.7978 15.324 -32.2554C15.6279 -32.4079 16.5399 -33.7808 15.9319 -33.7808C16.5399 -33.7808 16.8438 -33.1707 17.2998 -33.1707C17.9077 -33.1707 18.3637 -33.9334 18.3637 -33.9334C19.1237 -33.9334 19.2756 -33.6283 20.0356 -34.5435C20.9475 -35.4588 19.8836 -35.4588 19.7316 -36.374C19.5796 -37.1367 20.4915 -36.9842 20.4915 -37.5943C20.3395 -38.357 20.0356 -38.052 19.5796 -38.5096C19.1236 -38.8147 16.8438 -39.7299 16.8438 -38.5096C16.9958 -38.2045 17.1478 -37.8994 17.2998 -37.5943C17.2998 -37.2893 16.5399 -37.2893 16.3879 -36.9842C15.9319 -35.9164 15.172 -34.0859 14.1081 -36.0689C13.6521 -36.9842 15.172 -37.1367 13.6521 -38.2045C12.7402 -38.9672 12.8922 -36.9842 12.1322 -36.9842C12.1322 -37.7469 11.0683 -38.2045 11.6763 -38.6621C11.2203 -38.9672 10.4604 -38.6621 10.0044 -39.1198C11.2203 -39.7299 10.1564 -41.1028 9.54843 -42.018C8.33253 -43.5434 7.72459 -42.018 6.96465 -41.8655C6.66067 -41.713 6.50868 -39.5774 6.96465 -39.4248C7.87657 -38.9672 9.39645 -38.9672 8.48453 -37.4418C10.6124 -38.6621 6.66067 -34.6961 6.96465 -35.7638C7.42061 -38.2045 4.53284 -35.9164 4.07688 -35.9164C2.25303 -35.9164 -1.39467 -35.4588 -2.15461 -37.8994C-2.91455 -37.7469 -3.97847 -37.8994 -4.58642 -37.2893C-5.49834 -36.5266 -2.91455 -36.9842 -2.61058 -37.1367C-2.61058 -37.4418 -5.04238 -34.8486 -3.97847 -34.8486C-4.89039 -34.8486 -5.49833 -36.0689 -6.86622 -36.0689C-7.62616 -36.0689 -10.9699 -35.3062 -10.9699 -36.2215C-10.9699 -36.5266 -9.90598 -36.374 -9.754 -36.5266C-10.9699 -38.2045 -12.1858 -36.9842 -13.8577 -37.5943C-14.7696 -37.8994 -15.5295 -38.5096 -16.4414 -38.8147C-17.5054 -39.1198 -19.0252 -37.8994 -19.3292 -39.4248C-19.9372 -39.2723 -19.9372 -38.5096 -20.5451 -38.5096C-21.1531 -38.5096 -21.609 -39.4248 -22.065 -39.8825C-22.5209 -40.3401 -22.6729 -39.5774 -22.9769 -39.2723C-23.2809 -38.8147 -24.3448 -39.4248 -24.8008 -39.2723C-25.1047 -39.2723 -28.6005 -38.3571 -28.4485 -38.5096C-28.4485 -38.5096 -30.5763 -37.2893 -29.6644 -37.2893C-31.3362 -37.2893 -32.7041 -38.357 -34.072 -38.6621C-34.072 -33.9333 -34.072 -29.3571 -34.072 -24.6283C-34.072 -29.2046 -34.072 -33.7808 -34.072 -38.357C-34.072 -39.7299 -36.9598 -39.1198 -37.5677 -39.1198C-39.0876 -39.1198 -40.3035 -39.8825 -41.6714 -39.8825C-42.2793 -39.8825 -42.8873 -39.8825 -43.4952 -39.8825C-43.9512 -39.8825 -44.2552 -40.4926 -44.7111 -40.4926C-45.1671 -40.4926 -45.6231 -40.4926 -46.079 -40.4926C-46.991 -40.7977 -46.991 -40.1875 -47.5989 -40.3401C-46.687 -41.8655 -50.3347 -40.4926 -50.9426 -40.3401C-52.6145 -39.7299 -54.2864 -37.2893 -55.6542 -37.2893C-56.5662 -37.2893 -58.086 -36.5266 -56.5662 -36.0689C-55.6542 -35.7638 -55.3503 -35.6113 -54.8943 -34.6961C-54.2864 -33.7808 -53.0705 -34.0859 -52.6145 -32.8656C-53.3744 -32.713 -54.7423 -32.5605 -54.7423 -33.6283C-55.8062 -33.7808 -57.3261 -32.713 -58.238 -32.2554C-58.086 -31.9503 -57.7821 -31.6452 -57.3261 -31.7978C-57.4781 -31.4927 -57.4781 -31.3401 -57.1741 -31.0351C-56.5662 -30.2724 -56.4142 -30.5774 -55.3503 -30.5774C-54.2864 -30.5774 -53.8304 -30.1198 -52.9185 -30.73C-52.3105 -31.1876 -52.0065 -30.8825 -52.0065 -30.4249C-52.1585 -30.5774 -52.3105 -30.5774 -52.4625 -30.4249C-52.1585 -29.6622 -51.5506 -29.6622 -52.4625 -29.052C-53.2224 -28.5944 -53.9824 -28.4419 -54.8943 -28.1368C-55.6542 -27.9842 -56.8701 -27.3741 -56.8701 -26.4588C-56.8701 -26.0012 -54.7423 -24.9334 -56.1102 -24.9334C-55.6542 -24.3232 -54.8943 -23.8656 -54.2864 -23.5605C-53.8304 -23.2555 -53.0705 -24.4758 -53.0705 -23.5605C-52.9185 -23.408 -53.3744 -22.0351 -52.7665 -22.0351C-52.1585 -22.0351 -52.0065 -22.3402 -51.8546 -22.7978C-51.3986 -22.4927 -50.9426 -22.1877 -50.3347 -21.8826C-50.1827 -22.4927 -48.3588 -22.4927 -47.5989 -22.6453C-48.3588 -22.1877 -48.3588 -21.1199 -49.1188 -20.6622C-50.0307 -20.0521 -51.0946 -19.747 -51.7026 -18.8317C-52.1585 -18.2216 -53.2224 -18.6792 -53.6784 -17.764C-54.2864 -17.0013 -55.3503 -17.3063 -55.8062 -16.5436C-54.7423 -16.2385 -52.3105 -17.6114 -51.2466 -18.069C-50.0307 -18.5267 -48.5108 -19.5944 -47.7509 -20.6622C-47.2949 -21.2724 -46.535 -21.1199 -46.079 -21.73C-45.7751 -22.1877 -45.927 -22.7978 -45.7751 -23.2555C-45.3191 -24.4758 -43.9512 -25.6961 -42.5833 -25.5436C-42.5833 -24.9334 -44.2552 -24.0181 -44.2552 -22.9504C-44.2552 -22.7978 -40.3035 -23.408 -41.0634 -24.9334C-39.5436 -25.6961 -37.5677 -23.8656 -35.5919 -23.8656C-34.68 -23.8656 -33.616 -23.408 -32.7041 -23.1029C-31.9442 -22.7978 -30.5763 -20.6623 -29.9683 -22.0351C-29.5124 -21.5775 -28.1445 -21.73 -28.6005 -21.1199C-29.5124 -19.8995 -27.5365 -20.6622 -27.3846 -20.6622C-28.1445 -18.6792 -26.3206 -20.0521 -26.3206 -18.5267C-26.3206 -16.6962 -22.8249 -17.3063 -24.9528 -18.9843C-23.7369 -18.069 -24.8008 -17.1538 -24.3448 -15.7809C-24.1928 -15.1708 -22.369 -14.4081 -22.217 -13.6453C-21.913 -12.8826 -21.913 -11.9674 -20.8491 -11.9674C-20.6971 -11.2047 -19.4812 -11.6623 -19.3292 -10.8996C-19.0252 -9.83181 -16.2895 -10.2894 -17.8093 -8.3064C-18.1133 -8.91656 -19.7852 -9.06911 -19.0252 -8.00132C-18.1133 -6.62845 -18.7213 -5.86573 -19.0252 -4.34032C-19.3292 -2.8149 -19.3292 2.21897 -17.0494 2.52406C-17.2014 3.89693 -15.9855 4.50708 -15.8335 5.72741C-15.6815 6.49011 -12.9457 7.1003 -12.3378 8.16808C-12.1858 8.47317 -10.058 13.8121 -9.45002 13.507C-9.60201 13.507 -9.90598 13.507 -10.058 13.507C-9.29803 14.5748 -7.62616 14.2697 -7.62616 15.9477C-7.62616 16.4053 -5.80232 18.0833 -5.49835 18.0833C-5.19437 18.0833 -7.01822 14.8799 -7.32219 14.4223C-7.93015 13.6596 -8.08213 12.5918 -8.69008 11.9816C-9.29803 11.3715 -10.9699 10.1511 -10.21 9.08334C-9.75399 9.38842 -9.29803 9.54095 -8.69008 9.6935C-8.53809 9.99857 -8.3861 10.4562 -8.23412 10.7613C-7.62617 11.3714 -7.32219 12.2867 -6.71424 13.0494C-6.25828 12.5918 -4.58641 15.6426 -4.28244 15.7952C-3.37051 16.2528 -2.45859 17.3206 -1.85064 18.2358C-1.0907 19.4562 -1.39468 19.6087 -1.39468 20.6765C-1.39468 22.0493 1.64508 22.507 2.557 23.2697C3.46893 24.1849 5.74874 24.1849 6.81265 24.7951C7.57259 25.2527 7.72457 24.3375 8.33253 24.3375C9.39644 24.3375 10.0044 25.2527 10.6123 25.8629C11.3723 26.6256 12.5882 26.6256 13.5001 27.0832C13.9561 27.3883 14.412 27.3883 14.868 27.0832C15.172 27.2357 15.476 27.8459 15.7799 28.151C16.5399 28.7612 16.9958 30.7442 17.2998 30.134C18.0597 30.134 21.4035 33.9476 21.8594 32.2696C21.0995 31.9645 22.6194 30.7442 23.0753 31.3544C23.5313 31.9645 23.3793 32.2696 23.8353 32.8798C24.8992 33.9476 24.2912 36.2357 23.3793 36.8459C22.4674 37.456 22.0114 38.9814 21.5555 39.7441C20.7955 40.9645 21.0995 41.117 22.0114 41.7272C21.7074 42.9475 20.0356 43.1001 20.9475 44.778C21.0995 45.0831 22.0114 46.3034 22.3154 46.6085C23.3793 47.5238 25.2032 50.8797 25.2032 52.4051C25.2032 54.2356 29.6108 54.9983 30.5227 56.2186C31.7386 57.8966 30.8267 60.1847 30.8267 62.0152C30.8267 63.8457 29.9148 65.5236 29.9148 67.3541C29.9148 69.0321 29.9148 71.0151 29.4588 72.6931C29.1548 74.371 27.635 75.4388 27.9389 77.4219C28.0909 78.3371 28.0909 77.8795 27.7869 78.9473C27.635 79.2524 27.483 80.7778 28.0909 80.7778C28.3949 80.7778 28.5469 80.4727 28.8509 80.4727C28.8509 82.1507 28.0909 83.9812 27.7869 85.8116C27.331 85.8116 27.027 84.7439 26.571 85.5066C26.4191 85.8117 26.723 86.4218 26.875 86.4218C27.331 87.4896 26.2671 87.3371 26.2671 88.2523C26.2671 89.015 26.5711 90.3879 26.723 91.1506C26.723 91.7608 27.635 91.7608 27.635 92.5235C27.635 93.1336 27.027 93.2862 27.027 93.7438C27.027 95.2692 30.8267 95.2692 31.4346 96.4895C31.8906 97.5573 35.2343 97.2522 35.8423 96.337C33.5625 95.2692 33.4105 94.2014 32.0426 92.371C31.4347 91.6082 32.1946 90.3879 32.9545 90.2353C33.7145 90.0828 33.5625 88.8625 34.3224 88.4049C36.7542 86.8794 32.4986 86.4218 33.8664 84.7439C34.7784 83.8286 35.2343 84.5913 35.5383 83.2185C35.6903 82.7608 35.8423 82.3032 36.1463 81.9981C35.8423 81.9981 35.8423 81.8456 35.8423 81.5405C36.1463 81.5405 37.0582 82.1507 37.0582 81.388C37.0582 80.7778 36.2982 81.3879 35.9943 81.0829C34.1704 78.4897 38.1221 80.9303 38.1221 79.5574C38.1221 76.049 40.5539 78.6422 42.3777 76.8117C42.8337 76.3541 44.0496 75.1338 43.1377 74.6761C42.9857 74.6761 41.7698 72.8456 41.7698 72.8456C41.7698 73.1507 45.7215 73.6084 46.3294 72.5406C47.3933 71.0152 48.6092 69.6423 49.3692 67.9643C50.2811 66.744 50.4331 66.4389 50.5851 64.9135C50.5851 62.9305 52.8649 62.0152 54.3848 61.1C55.2967 60.6423 56.2086 61.0999 57.1206 60.4898C57.5765 60.1847 57.7285 59.2694 58.0325 58.8118C58.7924 57.5915 59.7043 55.4559 59.7043 53.9305C59.7043 52.8627 59.0964 51.9475 60.1603 51.1847C60.7682 50.7271 61.0722 49.9644 61.5282 49.5068C62.4401 48.5916 65.0239 44.778 62.5921 44.1679C63.352 44.3204 62.1361 44.0153 62.5921 44.1679ZM32.9545 -8.15385C32.9545 -8.00131 33.1065 -7.84877 33.1065 -7.84877C33.1065 -7.69623 32.6506 -8.61148 32.9545 -8.15385ZM30.3707 -6.01828C29.9148 -5.56065 30.8267 -6.4759 30.3707 -6.01828V-6.01828ZM26.723 -5.56065C27.027 -5.71319 24.4432 -3.27254 26.2671 -5.25557C26.4191 -5.25557 26.5711 -5.40811 26.723 -5.56065ZM22.3154 -3.57761C23.0753 -3.73015 24.8992 -3.8827 25.3551 -4.18779C24.5952 -3.57762 24.7472 -3.11998 23.5313 -3.11998C23.2273 -3.11998 21.8594 -3.42508 22.0114 -2.96745C21.8594 -3.42508 21.8594 -3.42506 22.3154 -3.57761C22.9233 -3.88269 22.1634 -3.57761 22.3154 -3.57761ZM22.1634 -2.50982C22.3154 -2.35728 22.1634 -2.35728 21.7074 -2.20475C21.8594 -2.35728 22.0114 -2.35728 22.1634 -2.50982ZM21.7074 -2.20475C21.0995 -1.89966 18.8197 -0.526787 18.8197 -2.20475C19.1236 -1.74712 19.4276 -1.74712 19.7316 -2.20475C20.3395 -2.66237 21.2515 -1.89966 21.7074 -2.20475C21.5555 -2.20475 20.9475 -1.89966 21.7074 -2.20475ZM8.7885 -9.52674C10.0044 -9.52674 10.4604 -9.22164 11.5243 -8.91656C12.2842 -8.76402 13.1961 -8.76403 13.9561 -9.06911C14.716 -9.52673 14.26 -9.98436 15.172 -9.06911C15.172 -9.22165 15.172 -9.3742 15.172 -9.52674C16.9958 -9.22165 16.8438 -7.08606 18.5157 -6.62843C18.9717 -6.47589 20.3396 -6.32335 20.6435 -6.17081C21.8594 -5.4081 21.4035 -4.03524 20.3395 -5.25557C20.1876 -4.79795 20.0356 -3.11998 19.4276 -3.11998C19.1236 -3.42506 18.9717 -3.73016 18.9717 -4.18779C18.8197 -4.03524 18.5157 -4.03523 18.3637 -4.03523C18.9717 -7.08606 15.7799 -6.32335 15.7799 -3.88268C15.7799 -3.42506 16.0839 -1.44204 15.172 -1.44204C13.6521 -1.44204 14.716 -4.64541 15.172 -5.25557C14.868 -5.10303 14.564 -4.95049 14.412 -4.79794C14.564 -6.32336 18.0597 -6.32336 17.9078 -6.78099C16.6918 -6.78099 15.02 -6.93353 13.9561 -7.23861C14.1081 -7.5437 14.26 -7.69624 14.26 -8.00132C13.5001 -7.84878 12.7402 -6.93351 11.9802 -6.93351C11.5243 -6.93351 11.0683 -7.23861 10.4604 -7.08606C11.0683 -8.00131 12.1322 -8.30639 13.0442 -8.91656C11.8282 -8.91656 8.94048 -9.22164 8.18054 -10.1369C8.33253 -9.98435 8.48452 -9.83182 8.7885 -9.52674ZM-30.7283 -22.7978C-31.0323 -22.9504 -31.1842 -23.1029 -31.4882 -23.1029C-30.5763 -22.3402 -30.5763 -22.7978 -30.1203 -23.408C-30.2723 -23.1029 -30.4243 -22.9504 -30.7283 -22.7978ZM-29.2084 -23.7131C-28.6005 -23.2554 -28.1445 -22.6453 -27.6885 -22.0351C-28.1445 -22.6453 -28.7524 -23.2554 -29.2084 -23.7131ZM-26.6246 -20.6622C-26.7766 -20.8148 -26.7766 -20.9673 -27.0806 -21.1199C-26.6246 -20.6622 -26.4726 -19.5945 -25.8647 -19.2894C-26.1687 -19.5945 -26.4726 -20.2046 -26.6246 -20.6622C-26.4726 -20.3572 -26.6246 -20.9673 -26.6246 -20.6622ZM-25.7127 -19.4419C-25.5607 -19.4419 -25.4087 -19.4419 -25.2567 -19.2894C-25.4087 -19.2894 -25.5607 -19.2894 -25.7127 -19.4419ZM-10.3619 8.01553C-9.14604 8.32061 -8.08212 8.77826 -6.86622 9.08334C-8.08212 8.77826 -9.14604 8.47315 -10.3619 8.01553ZM1.34109 10.7613C2.25302 10.7613 2.70899 11.3715 3.16496 12.1342C2.70899 11.3715 2.10103 10.7613 1.34109 10.7613Z"></path>
<path fill="#90C6DE" d="M28.6429 19.8214C28.6429 19.8214 28.1132 19.8214 27.5834 19.8214C27.8483 19.8214 28.378 19.8214 28.6429 19.8214Z"></path>
<path fill="#90C6DE" d="M-26.5657 -16.2024C-26.0401 -16.2024 -27.5118 -19.8528 -27.5118 -17.5713C-26.776 -18.1797 -27.3016 -16.2024 -26.5657 -16.2024Z"></path>
<path fill="#90C6DE" d="M-28.7466 -19.7923C-29.6813 -19.4245 -29.214 -21.2631 -29.214 -21.4469C-29.6813 -21.2631 -30.1487 -21.6308 -30.6161 -21.4469C-31.0834 -21.2631 -29.214 -18.6891 -28.7466 -18.3214C-28.513 -18.873 -28.513 -19.2407 -28.7466 -19.7923Z"></path>
<path fill="#90C6DE" d="M1.98045 -39.0791C2.44317 -38.9344 2.90588 -39.0791 3.21436 -39.3685C1.67198 -40.5261 0.438072 -40.2367 -0.333115 -42.1178C-0.79583 -43.1307 -1.41278 -43.8542 -0.48735 -44.7225C0.438076 -45.8801 -2.49245 -46.3142 -2.49245 -45.3013C-2.49245 -44.7225 -2.95516 -45.0119 -3.41788 -45.0119C-4.49754 -45.0119 -3.72635 -43.4201 -3.41788 -42.986C-2.95516 -41.9731 -4.03482 -42.2625 -4.03482 -42.986C-4.18906 -43.8542 -4.96025 -44.4331 -5.88568 -44.2883C-5.57721 -43.2754 -6.50263 -43.4201 -6.96535 -43.9989C-7.73653 -44.8672 -8.50773 -44.2884 -9.12468 -43.8543C-9.58739 -44.4331 -9.12468 -45.0119 -10.2043 -44.8672C-10.9755 -44.7225 -11.901 -44.4331 -12.5179 -43.9989C-14.8315 -42.6966 -13.4433 -42.1178 -11.7467 -41.6837C-12.0552 -41.3943 -12.9806 -41.6837 -12.9806 -41.1049C-12.9806 -40.2367 -11.4382 -40.5261 -10.9755 -40.5261C-9.89587 -40.5261 -8.8162 -40.6708 -7.89077 -40.2367C-9.27892 -40.092 -10.9755 -40.3814 -12.2094 -39.5132C-11.284 -37.9215 -9.27892 -39.0791 -8.66196 -37.6321C-8.50772 -37.198 -5.88568 -37.4874 -5.42297 -37.4874C-3.72635 -38.645 -2.02973 -38.5003 -0.333115 -37.9215C0.283836 -37.6321 1.98045 -37.4874 2.28892 -38.3556C2.13469 -38.2109 0.900791 -39.0791 1.98045 -39.0791Z"></path>
<path fill="#90C6DE" d="M-19.4324 -41.4769C-18.5764 -40.0914 -17.5492 -40.5533 -16.1796 -41.169C-15.3237 -41.4769 -15.4949 -42.0927 -14.8101 -42.7084C-13.9541 -43.6321 -12.9269 -43.9399 -11.7286 -44.2478C-8.81825 -44.8636 -12.071 -46.403 -13.6117 -46.0951C-14.2965 -45.9412 -15.4949 -46.7109 -16.1796 -46.8648C-16.8644 -47.0187 -19.2612 -46.8648 -19.7747 -46.7108C-19.6035 -45.1714 -19.09 -45.1714 -20.4595 -43.6321C-22.1715 -41.4769 -20.2883 -42.5545 -19.4324 -41.4769C-19.2612 -41.323 -19.7747 -41.9387 -19.4324 -41.4769Z"></path>
<path fill="#90C6DE" d="M-10.6267 -49.8125C-10.9377 -49.8125 -11.8708 -49.4696 -11.0932 -49.2981C-11.7153 -49.4696 -12.3373 -48.9552 -11.4042 -48.6123C-12.0263 -48.7838 -13.1148 -48.0979 -12.4928 -47.4121C-11.4043 -46.2119 -10.0047 -47.5836 -9.22717 -47.755C-9.07167 -47.4121 -8.91616 -47.0692 -8.60516 -46.8978C-9.69369 -46.8978 -9.69369 -45.869 -8.60516 -45.869C-7.67212 -45.869 -6.73909 -46.3834 -5.80606 -46.5549C-4.87303 -46.7263 -2.22944 -46.7263 -1.76292 -47.2407C-1.29641 -47.755 -0.363377 -49.641 -1.76292 -49.641C-2.54045 -49.641 -3.94 -48.7838 -3.94 -50.4983C-3.94 -51.8699 -5.80606 -50.8412 -5.80606 -49.9839C-5.80606 -48.7838 -4.71753 -49.9839 -5.33955 -48.7838C-4.87304 -48.6123 -4.25101 -48.2694 -5.33955 -48.2694C-6.42809 -48.2694 -7.05011 -49.1267 -7.82763 -49.4696C-8.60516 -49.8125 -9.84919 -50.3269 -10.7822 -50.1554C-10.7822 -50.1554 -10.7822 -49.9839 -10.6267 -49.8125ZM-9.69369 -49.1267C-9.84919 -49.1267 -10.0047 -49.1267 -10.1602 -49.1267C-10.1602 -49.1267 -9.84919 -49.1267 -9.69369 -49.1267Z"></path>
<path fill="#90C6DE" d="M-14.7976 -48.3658C-14.7976 -47.4112 -12.8904 -48.5021 -12.6785 -49.0476C-13.3142 -49.0476 -14.7976 -48.9112 -14.7976 -48.3658Z"></path>
<path fill="#90C6DE" d="M-10.1406 -50.1071C-8.8842 -50.756 -9.72184 -51.4048 -10.5595 -51.0804C-10.4199 -50.4316 -10.2802 -50.1071 -10.1406 -50.1071Z"></path>
<path fill="#90C6DE" d="M-17.2343 -49.4908C-16.6132 -49.4908 -16.1473 -49.0476 -15.6815 -49.0476C-15.2157 -49.0476 -13.9735 -50.3772 -13.8182 -50.6727C-13.0418 -50.2295 -12.576 -49.1953 -11.6443 -50.8205C-11.6443 -51.8546 -11.3338 -52.4456 -12.8865 -52.1501C-14.284 -51.8546 -14.5946 -51.5592 -15.6815 -50.9682C-16.6132 -50.525 -19.2528 -49.4908 -17.2343 -49.4908Z"></path>
<path fill="#90C6DE" d="M-7.91066 -53.2857C-7.02773 -53.2857 -6.14479 -53.2857 -5.26185 -53.5984C-5.61503 -54.849 -9.49995 -54.38 -9.49995 -53.2857C-8.97019 -53.2857 -8.61701 -53.2857 -7.91066 -53.2857Z"></path>
<path fill="#90C6DE" d="M-6.06911 -53.2857C-6.87636 -53.2857 -9.49995 -53.2857 -9.49995 -52.7823C-9.49995 -51.9769 -5.66547 -52.0775 -5.86729 -52.883C-6.27092 -52.883 -6.67455 -52.883 -7.07818 -52.883C-6.47273 -52.883 -5.8673 -52.9837 -5.26185 -53.185C-5.46367 -53.185 -5.66548 -53.2857 -6.06911 -53.2857Z"></path>
<path fill="#90C6DE" d="M-9.96895 -52.2262C-9.81261 -52.2262 -9.65628 -52.4764 -9.49994 -52.9768C-10.907 -53.9777 -10.7506 -52.2262 -9.96895 -52.2262Z"></path>
<path fill="#90C6DE" d="M5.54644 -43.761C5.54644 -44.6343 5.25927 -44.3432 4.54135 -44.1977C7.12589 -47.5452 1.9568 -44.7798 1.9568 -45.0709C1.9568 -44.4887 2.96189 -45.0709 2.96189 -44.0521C2.96189 -43.4699 1.52605 -44.1977 1.09529 -44.1977C1.09529 -43.4699 4.39776 -41.1412 4.68493 -41.7234C5.11569 -42.16 7.70023 -43.1788 5.54644 -43.761C5.69003 -43.761 5.54644 -44.0521 5.54644 -43.761Z"></path>
<path fill="#90C6DE" d="M-0.630039 -50.7481C-0.761265 -50.7481 -0.892498 -50.7481 -1.02373 -50.7481C-1.02373 -49.9544 -0.761276 -49.1607 -0.236366 -48.7639C0.682224 -47.9703 2.12573 -49.3591 2.91309 -48.5655C2.65064 -48.1687 1.99451 -47.9703 1.99451 -47.1766C1.99451 -46.7798 2.78186 -46.9782 2.91309 -46.9782C4.22536 -46.9782 3.83168 -47.375 4.22536 -48.9623C4.61904 -50.9465 2.51941 -51.5417 1.46959 -50.9465C1.73204 -49.756 2.51941 -50.9465 2.38818 -49.3592C1.73204 -49.3592 1.46959 -50.3512 0.813457 -50.3512C1.20714 -49.5576 -0.105133 -50.5496 1.33836 -49.1607C0.551003 -48.5655 0.288551 -50.7481 -0.630039 -50.7481Z"></path>
<path fill="#90C6DE" d="M4.74541 -37.452C4.5568 -37.452 4.4625 -37.452 4.27389 -37.2905C4.27389 -36.8058 5.97135 -35.9981 6.25426 -36.4828C6.63148 -37.1289 6.15996 -37.6135 5.78275 -38.0982C5.02832 -39.0674 5.31123 -37.7751 4.74541 -37.452C5.02832 -37.452 4.65111 -37.2904 4.74541 -37.452Z"></path>
<path fill="#90C6DE" d="M8.27596 -45.869C8.27596 -45.869 6.73942 -45.3643 7.2516 -45.2382C5.54432 -45.3643 6.91014 -43.4717 6.91014 -42.7147C7.76378 -42.5885 8.27597 -42.967 8.44669 -43.5979C8.27597 -43.5979 8.10525 -43.5979 7.93452 -43.5979C8.10525 -44.1026 8.4467 -43.7241 8.95889 -43.7241C9.98325 -43.7241 10.4954 -44.2288 11.0076 -44.7335C11.3491 -45.112 11.5198 -44.9858 11.6905 -45.4905C10.6662 -45.6167 9.47106 -45.869 8.27596 -45.869Z"></path>
<path fill="#90C6DE" d="M-0.599926 -51.1667C-0.176117 -51.1667 0.0357742 -51.4021 0.0357742 -51.873C-0.811844 -52.1085 -1.02375 -53.2857 -2.08327 -53.2857C-2.08327 -52.3439 -1.23564 -51.1667 -0.599926 -51.1667Z"></path>
<path fill="#90C6DE" d="M-1.02373 -46.9286C-0.707024 -49.0558 1.1932 -47.4013 -1.02373 -46.9286C-0.865376 -47.874 -0.707024 -46.9286 -1.02373 -46.9286Z"></path>
<path fill="#90C6DE" d="M-1.56503 -55.6451C-1.56503 -55.4725 -1.72898 -55.4725 -1.72898 -55.3C-1.40106 -55.1274 -0.909161 -55.1274 -0.581234 -55.3C-0.909161 -54.7823 -1.07314 -54.9549 -1.56503 -54.4372C-1.07314 -53.9195 1.38631 -53.9195 2.20613 -53.9195C3.02594 -53.9195 5.64934 -52.194 3.35386 -54.4372C3.68179 -54.9549 2.86198 -55.9902 2.37009 -55.4725C1.8782 -54.9549 1.71424 -56.1628 1.05839 -56.1628C0.238579 -56.1628 0.402538 -55.8176 -0.417274 -56.3353C-1.40105 -56.853 -2.87673 -55.6451 -1.56503 -55.6451C-1.56503 -55.4725 -2.05692 -55.6451 -1.56503 -55.6451Z"></path>
<path fill="#90C6DE" d="M1.49261 -53.2857C1.36018 -53.2857 1.22773 -52.8869 1.09529 -52.4881C1.09529 -52.0894 2.02237 -52.0894 2.15481 -52.8869C1.88993 -53.2857 1.62505 -53.2857 1.49261 -53.2857Z"></path>
<path fill="#90C6DE" d="M12.9063 -46.4885C14.2 -45.9984 15.4937 -45.9984 17.2726 -45.9984C18.0812 -45.9984 18.2429 -46.6518 18.8898 -46.1617C19.6983 -45.5083 22.1241 -45.9984 22.2858 -47.1419C22.1241 -47.1419 21.9624 -47.1419 21.8006 -47.1419C21.8006 -47.4687 21.9623 -47.4687 22.2858 -47.4687C21.3155 -49.2657 18.4046 -48.2855 17.1109 -47.7954C16.3023 -47.4686 11.936 -47.632 12.5828 -48.2855C12.0977 -48.7756 11.2891 -48.1221 10.9657 -49.1023C11.4508 -49.1023 11.936 -49.2657 12.2594 -49.1023C11.6126 -50.0825 10.1571 -49.9191 9.34853 -49.9191C8.53995 -49.9191 7.8931 -50.7359 7.08452 -51.0627C6.27594 -51.3894 4.49706 -50.8993 5.79079 -50.2458C6.27593 -49.9191 7.08451 -49.429 7.73138 -49.429C8.21652 -49.9191 8.70168 -49.9191 8.86339 -49.2657C9.18682 -48.7756 9.34853 -48.4489 9.83368 -48.1221C8.70168 -47.3053 11.6126 -44.8548 12.9063 -46.4885Z"></path>
<path fill="#90C6DE" d="M8.51196 -47.4571C8.51196 -48.3655 6.39291 -47.9526 6.39291 -47.3745C6.98154 -47.1268 8.51196 -46.4661 8.51196 -47.4571Z"></path>
<path fill="#90C6DE" d="M8.51196 -52.7037C8.51196 -52.8977 8.51196 -53.0917 8.51196 -53.2857C7.88871 -53.0917 7.01616 -53.6737 6.39291 -52.7037C6.6422 -52.5097 8.51196 -51.7338 8.51196 -52.7037Z"></path>
<path fill="#90C6DE" d="M5.20624 -53.7289C5.0303 -53.7289 4.85435 -53.5471 4.85435 -53.3653C4.85435 -53.1834 9.42891 -53.1834 6.43785 -54.8199C4.6784 -55.7291 3.27085 -55.7291 5.20624 -53.7289Z"></path>
<path fill="#90C6DE" d="M4.27389 -56.4643C4.27389 -56.969 4.27389 -57.726 4.27389 -57.4737C4.27389 -56.969 4.27389 -56.7166 4.27389 -56.4643Z"></path>
<path fill="#90C6DE" d="M7.99875 -57.4262C7.51699 -57.4262 7.03525 -57.7538 6.39291 -57.7538C6.55349 -56.6072 7.51701 -56.6072 8.31992 -56.6072C8.15934 -56.2796 7.35642 -56.2795 7.51701 -55.9519C7.83817 -55.4605 8.15934 -56.2796 8.64109 -55.7881C8.80167 -55.6243 10.8893 -55.7881 11.371 -55.6243C10.7287 -55.4605 10.0863 -55.6243 9.28342 -55.4605C7.83817 -55.1329 9.60459 -54.15 10.2469 -54.15C9.28342 -53.1672 12.0134 -52.8396 12.0134 -54.15C12.3345 -53.8224 12.8163 -53.6586 13.298 -53.4948C13.6192 -53.6586 13.298 -53.6586 13.9404 -53.9862C13.6192 -54.6415 13.1374 -54.4777 13.9404 -55.1329C14.4221 -53.6586 15.5462 -55.4605 16.5097 -55.6243C18.2761 -55.7881 14.5827 -57.2624 14.5827 -56.771C14.5827 -57.4262 14.7433 -58.409 13.6192 -58.409C14.1009 -56.9348 13.298 -58.4091 12.8163 -58.7367C11.6922 -59.2281 11.5316 -58.5729 10.8893 -59.8833C10.4075 -60.7024 8.96227 -60.7024 8.31992 -60.7024C8.48051 -60.211 8.80167 -60.0471 9.28342 -60.0471C8.64109 -60.2109 7.99876 -60.0471 7.35642 -59.7195C7.35642 -58.9005 8.31992 -59.3919 8.80167 -59.2281C8.15933 -58.5729 5.10825 -59.0643 8.15934 -58.0814C8.15934 -57.59 7.99875 -57.59 7.99875 -57.4262Z"></path>
<path fill="#90C6DE" d="M19.7479 -30.4863C19.3044 -30.8003 17.6781 -32.9978 17.0867 -32.2129C16.9389 -32.5269 16.7911 -32.8408 16.6432 -33.1548C15.7562 -32.9978 15.6083 -31.899 15.6083 -31.1142C15.4605 -30.8002 14.8691 -29.8584 14.8691 -29.5445C15.3127 -29.7015 15.7562 -29.7015 16.1997 -29.5445C16.0519 -29.2306 16.0519 -28.9167 16.3475 -28.9167C16.9389 -28.9167 18.1216 -29.7015 18.1216 -30.4863C19.3044 -30.0154 19.7479 -29.0736 21.2263 -30.0154C20.6349 -30.1724 20.1914 -30.3294 19.7479 -30.4863C20.1914 -30.1724 19.6 -30.6433 19.7479 -30.4863Z"></path>
<path fill="#90C6DE" d="M26.5239 -35.1478C26.5239 -36.3671 25.0817 -36.7735 24.601 -35.7574C23.6396 -33.9285 26.5239 -33.7253 26.5239 -35.1478Z"></path>
<path fill="#90C6DE" d="M19.0109 -27.8571C18.8183 -27.4598 18.0477 -27.3274 18.0477 -26.7976C18.8183 -26.7976 19.5888 -27.3274 20.1667 -27.7247C19.7815 -27.8571 19.3962 -27.8571 19.0109 -27.8571C19.7815 -27.8571 18.8183 -27.7247 19.0109 -27.8571Z"></path>
<path fill="#90C6DE" d="M22.2401 -43.75C23.1826 -43.75 23.9365 -43.9164 24.879 -43.9164C26.7639 -43.9164 23.5596 -45.5811 22.8056 -45.5811C22.2401 -45.5811 20.1668 -46.4134 20.1668 -45.2481C20.3552 -44.5823 21.6747 -43.75 22.2401 -43.75Z"></path>
<path fill="#90C6DE" d="M21.7236 -25.7381C22.1826 -25.7381 22.6417 -26.6069 21.8766 -26.7806C20.9585 -26.9544 21.1115 -25.7381 21.7236 -25.7381Z"></path>
<path fill="#90C6DE" d="M27.5834 -35.5269C27.432 -35.7799 26.5239 -37.0452 26.5239 -35.7799C26.5239 -35.0207 27.432 -35.2738 27.5834 -35.5269Z"></path>
<path fill="#90C6DE" d="M23.3453 -38.4524C22.7714 -38.4524 22.0061 -37.3929 22.3888 -37.3929C22.7714 -37.3929 23.154 -38.0286 23.3453 -38.4524Z"></path>
<path fill="#90C6DE" d="M30.2312 -41.246C30.387 -42.008 28.9845 -41.8556 28.517 -41.8556C27.2702 -41.8556 27.1144 -42.9225 26.1794 -43.5321C24.4651 -44.7514 22.595 -43.2273 21.0366 -43.2273C21.0366 -43.2273 20.8808 -45.6658 19.7899 -45.6658C18.8548 -45.6658 16.2056 -45.5134 16.2056 -43.9894C16.2056 -43.3797 16.8289 -43.2273 16.2056 -42.7701C15.7381 -42.3129 15.4264 -42.6177 15.4264 -43.0749C14.4913 -44.2942 16.2056 -44.7514 16.5173 -45.6658C15.4264 -45.6658 15.1147 -46.1231 13.868 -45.6658C12.7771 -45.0562 12.7771 -44.4466 12.1537 -43.5321C10.4395 -41.5508 14.0238 -41.5508 14.1796 -40.7888C13.7121 -40.9412 13.2446 -40.9412 12.6212 -40.9412C12.7771 -39.5695 14.6472 -40.0267 15.4264 -39.5695C16.6731 -38.6551 19.4782 -39.4171 21.0366 -39.4171C20.7249 -37.5882 22.4392 -39.8743 22.9067 -39.8743C23.6859 -39.8743 24.9326 -38.6551 25.4002 -38.0454C24.4651 -37.893 24.4651 -36.8262 25.4002 -37.4358C26.1794 -37.893 27.2702 -36.9786 27.8936 -36.5213C30.0754 -34.54 26.0235 -33.4732 27.5819 -32.5587C26.8027 -32.1015 23.3742 -32.4063 23.3742 -31.1871C23.3742 -29.663 25.4001 -30.7298 25.7118 -30.7298C26.8027 -30.7298 27.1144 -30.8822 28.2053 -30.1202C29.9195 -28.9009 30.8546 -27.9865 33.348 -27.3768C33.6597 -27.3768 34.9064 -26.31 34.9064 -27.072C34.9064 -28.1389 33.0363 -28.5961 32.5688 -29.3582C33.6597 -29.3582 34.7506 -28.4437 35.6856 -28.1389C37.244 -27.6817 35.9973 -30.1202 35.9973 -30.7298C34.5947 -31.0346 32.7246 -32.2539 33.8155 -33.1684C33.6597 -33.016 33.348 -33.1684 33.1922 -33.1684C33.8155 -33.1684 33.6597 -33.778 34.4389 -33.4732C35.2181 -33.1684 35.5298 -32.4063 35.9973 -31.7967C36.6207 -31.1871 37.5557 -31.187 37.5557 -32.2539C38.1791 -32.2539 38.3349 -32.5587 38.3349 -33.0159C40.5167 -33.0159 38.1791 -34.9973 37.244 -34.6924C36.1531 -34.3876 36.1531 -35.6069 35.2181 -35.9117C34.4389 -36.2165 34.1272 -36.8262 33.348 -37.131C33.6597 -37.4358 33.9714 -37.7406 34.4389 -37.893C34.283 -38.3503 33.348 -38.1978 32.8805 -38.1978C33.1922 -38.5027 33.6597 -38.6551 33.9714 -38.6551C33.5039 -39.5695 33.0363 -39.1123 32.413 -39.4171C32.413 -39.5695 32.413 -39.7219 32.413 -40.0267C31.7896 -40.3316 31.0104 -40.9412 30.2312 -41.246C31.1662 -40.9412 30.387 -41.7032 30.2312 -41.246Z"></path>
<path fill="#90C6DE" d="M23.3453 -28.9167C23.7691 -28.9167 23.981 -28.9167 24.4048 -28.9167C23.7691 -28.9167 23.7691 -28.9167 23.3453 -28.9167Z"></path>
<path fill="#90C6DE" d="M18.0477 -33.0881C18.0477 -32.7572 18.0477 -32.0952 18.0477 -32.0952C18.0477 -32.4262 18.0477 -33.4191 18.0477 -33.0881Z"></path>
<path fill="#90C6DE" d="M11.1732 -60.6341C11.4935 -60.6341 11.8139 -60.6341 12.1342 -60.6341C11.8139 -60.4799 11.4935 -60.3257 11.1732 -60.0174C12.1342 -59.555 12.7749 -60.4799 13.896 -60.3257C13.0952 -60.1716 12.1342 -60.1716 11.8139 -59.2467C12.2944 -59.2467 12.935 -59.2467 13.4156 -59.2467C13.0952 -59.2467 12.7749 -59.0925 12.4545 -58.9384C13.0952 -58.1676 14.3766 -58.0134 15.0172 -58.63C15.6579 -58.63 15.8181 -58.0134 16.7791 -58.0134C18.3808 -58.0134 20.1426 -58.4759 21.7443 -58.7842C20.9434 -57.8593 19.8223 -57.8592 18.5409 -57.8592C17.4197 -57.8592 19.1816 -56.626 19.3418 -56.4719C17.9002 -56.3177 16.9392 -58.4759 14.8571 -57.7051C14.8571 -57.3968 15.0172 -57.2426 15.3376 -57.2426C13.5757 -57.2426 15.3376 -56.4718 15.8181 -56.3177C17.9003 -55.5469 15.8181 -54.7761 14.8571 -54.4678C13.8961 -54.1595 13.4155 -52.4638 14.5367 -53.0804C15.1774 -53.5429 16.2986 -52.0013 16.7791 -51.5389C15.8181 -51.5389 11.3334 -53.2346 14.3766 -51.0764C13.7359 -50.6139 12.935 -50.9222 12.4545 -50.6139C12.1342 -50.4598 11.6537 -49.5348 12.2944 -49.5348C13.896 -49.5348 15.9782 -49.5348 17.9002 -49.5348C19.0214 -49.5348 20.1426 -48.9182 21.1036 -49.0724C22.5451 -49.3807 24.1468 -50.9223 21.9044 -50.4598C21.9044 -51.693 23.5061 -51.0764 23.0256 -52.4638C23.5061 -52.4638 23.9866 -52.4638 24.4671 -52.4638C25.1078 -52.4638 25.5883 -53.697 26.229 -54.0053C26.0688 -54.4678 25.7485 -54.622 25.268 -54.7761C25.7485 -54.7761 26.3892 -54.622 26.229 -55.3928C25.9087 -55.3928 25.5883 -55.3928 25.268 -55.3928C26.8697 -56.626 28.7917 -55.7011 30.3934 -57.2426C31.995 -58.9383 34.7179 -58.63 36.3196 -60.1716C35.6789 -60.1716 34.2374 -59.8633 33.7569 -60.3257C35.1984 -61.0965 37.2806 -60.6341 38.5619 -61.559C40.0034 -62.4839 38.8823 -62.3298 37.6009 -62.6381C36.9602 -62.7922 36.6399 -63.8713 35.8391 -63.563C35.0382 -63.2547 34.0772 -63.1006 33.2764 -62.7922C33.5967 -62.7922 33.7569 -62.9464 33.917 -63.1006C32.956 -64.0255 28.9518 -63.8713 27.5103 -63.8713C26.7095 -63.8713 26.7095 -62.9464 25.7485 -63.563C25.1078 -63.8713 24.9476 -63.563 24.307 -63.563C23.1858 -63.563 22.0646 -63.563 20.9434 -63.563C20.1426 -63.563 20.1426 -63.1006 19.3418 -63.1006C18.7011 -63.1006 18.2206 -62.7922 17.9002 -62.1756C17.4197 -61.2507 16.9392 -62.0215 15.9782 -62.1756C14.8571 -62.4839 14.3766 -61.2507 13.4156 -61.2507C12.4545 -61.2507 9.89185 -61.2507 9.57151 -60.0174C10.3724 -60.3257 10.6927 -60.4799 11.1732 -60.6341Z"></path>
<path fill="#90C6DE" d="M75.6796 -39.3733C75.068 -39.525 72.163 -39.3733 72.163 -40.4356C73.2332 -40.5874 72.6217 -41.0427 72.6217 -41.6498C73.0803 -41.3462 73.539 -41.8015 73.9977 -41.1945C74.4564 -40.5874 74.7622 -39.9803 75.6796 -39.9803C78.4317 -39.9803 74.3035 -43.0157 73.8448 -43.471C74.1506 -43.3192 72.7746 -44.2298 73.2332 -44.3816C73.9977 -44.3816 74.3035 -43.471 74.9151 -43.0157C75.6796 -42.7121 76.2912 -43.6227 75.6796 -44.2298C75.2209 -44.6851 74.3035 -44.5333 73.9977 -45.2922C74.7622 -45.2922 75.068 -44.3816 75.6796 -44.8369C76.9028 -45.4439 76.9027 -45.1404 76.9027 -46.2028C77.5143 -46.2028 78.1259 -46.5063 78.4317 -47.1134C77.6672 -47.4169 76.2912 -48.1758 78.1259 -48.1758C77.973 -48.3275 77.973 -49.3899 77.8201 -49.6934C77.6672 -49.8452 75.8325 -51.3629 77.3614 -51.3629C77.8201 -51.3629 79.6549 -51.0593 79.6549 -51.8182C79.6549 -52.8806 77.5143 -52.2735 78.8904 -53.1841C78.1259 -53.7911 77.3614 -53.4876 76.597 -53.7912C76.9027 -54.2465 76.7498 -54.8535 77.2085 -55.1571C77.8201 -55.6124 78.4317 -55.7641 78.5846 -56.6747C78.5846 -57.2818 80.5722 -57.2818 79.9607 -58.1924C80.5722 -58.3442 81.4896 -58.3442 81.4896 -59.2548C81.3367 -59.103 81.0309 -59.103 80.8781 -59.2548C81.4896 -59.2548 85.4649 -60.7724 84.7005 -61.5313C83.3244 -62.7454 82.407 -61.9866 81.0309 -61.9866C80.2665 -61.9866 79.9607 -61.2278 79.1962 -61.3795C78.5846 -61.5313 77.973 -61.3795 77.2085 -61.3795C75.6796 -61.3795 75.2209 -59.103 73.6919 -58.6477C73.9977 -59.5583 75.8325 -60.4689 75.8325 -61.3795C75.8325 -63.9596 72.0101 -60.4689 71.2456 -60.4689C71.2456 -60.4689 72.4688 -61.8348 72.4688 -62.1384C70.634 -62.7454 67.4232 -60.9242 65.8942 -62.1384C67.2703 -62.1384 75.9854 -61.8348 76.2912 -63.8078C75.068 -64.1113 73.9977 -63.8078 72.7746 -64.4149C71.3985 -65.0219 70.1753 -65.9325 68.6464 -65.9325C67.2703 -66.0843 65.7413 -65.9325 64.3653 -65.9325C62.3776 -65.9325 60.2371 -65.3255 58.2494 -65.0219C58.2494 -64.8702 58.2494 -64.7184 58.2494 -64.5666C57.7907 -64.5666 57.4849 -64.7184 56.8734 -64.7184C55.4973 -64.8702 53.9683 -64.7184 52.7452 -64.1113C52.8981 -63.9596 53.2039 -63.8078 53.3568 -63.656C51.3691 -63.2007 52.4394 -62.7454 53.9683 -61.9866C52.7452 -61.9866 48.1583 -64.2631 49.0757 -61.9866C48.4641 -61.9866 47.3938 -62.1384 47.088 -62.7454C46.9351 -61.9866 46.9351 -63.049 46.9351 -61.8348C46.3235 -61.8348 46.1706 -62.7454 45.5591 -62.7454C44.4888 -62.7454 43.4185 -62.1384 42.3482 -61.9866C41.5838 -61.8348 40.8193 -61.683 40.2077 -61.5313C39.4432 -61.3795 39.749 -60.4689 39.4432 -60.0136C38.9845 -59.5583 38.3729 -60.1654 37.6085 -59.7101C36.844 -59.103 35.7737 -58.6477 34.8563 -58.3442C32.8687 -57.8889 36.2324 -57.2818 36.6911 -57.2818C36.6911 -54.8535 34.5505 -55.9159 33.0216 -55.3088C32.5629 -55.1571 29.0463 -54.0947 29.8108 -53.4876C30.4223 -52.8806 32.1042 -52.2735 32.8687 -52.2735C33.939 -52.2735 34.5505 -52.8806 35.6208 -52.577C35.1621 -51.0593 31.1868 -52.577 31.0339 -50.9076C31.7984 -50.604 32.5629 -50.604 33.4803 -50.3005C33.3274 -49.997 33.1745 -49.8452 32.8687 -49.8452C33.1745 -49.3899 35.9266 -48.6311 35.0092 -49.3899C35.7737 -49.6934 36.3853 -48.9346 37.1498 -49.5417C37.9142 -49.997 39.5961 -49.6934 40.3606 -49.5417C42.5011 -48.9346 45.4062 -46.3546 45.4062 -43.9263C45.4062 -43.1674 46.7822 -43.471 45.712 -42.2568C44.3359 -40.7392 47.5467 -41.6498 47.6996 -41.6498C48.1583 -41.3462 49.5343 -39.9803 49.3815 -39.6768C49.2286 -39.0697 47.2409 -40.2839 46.6293 -39.9803C46.7822 -38.918 49.3815 -38.918 50.1459 -38.6144C49.993 -38.1591 49.6872 -37.7038 49.3815 -37.2485C48.7699 -35.8826 49.2286 -36.945 48.1583 -36.3379C47.5467 -35.7308 46.6293 -34.6685 46.9351 -33.7579C47.088 -33.9096 47.3938 -33.9096 47.5467 -33.7579C47.2409 -32.6955 47.2409 -32.392 48.0054 -31.4814C48.3112 -31.0261 48.1583 -30.419 48.617 -29.9637C49.0757 -29.6602 49.3815 -30.419 49.8401 -29.8119C48.4641 -28.446 51.2162 -26.1695 52.2865 -25.2589C53.2039 -24.5001 53.9683 -25.7142 54.7328 -24.1965C55.0386 -23.7412 56.5676 -23.4377 56.8734 -23.7412C57.4849 -24.5001 57.6378 -25.866 57.6378 -26.7766C57.6378 -28.1425 59.1668 -27.9907 59.1668 -29.0531C59.1668 -29.6601 58.4023 -30.7225 59.4726 -31.1778C59.9313 -31.4813 60.5429 -31.4814 61.0016 -31.6331C61.6132 -31.9367 61.4603 -32.5437 62.0718 -32.6955C61.9189 -31.4813 63.6008 -32.3919 64.3653 -32.6955C65.4355 -33.1508 66.0471 -34.8202 67.1174 -35.5791C67.8819 -36.0344 69.8695 -36.1861 70.7869 -36.3379C72.0101 -37.0968 74.3035 -38.3109 75.6796 -39.3733C75.2209 -38.918 74.9151 -39.525 75.6796 -39.3733Z"></path>
<path fill="#90C6DE" d="M45.047 -38.4602C45.5417 -38.4602 46.6548 -38.3646 46.6548 -38.8426C46.0365 -38.9382 45.7891 -39.5119 45.047 -39.5119C44.3049 -39.5119 44.4286 -38.4602 45.047 -38.4602Z"></path>
<path fill="#90C6DE" d="M78.6765 -47.9881C77.9705 -47.9881 79.0294 -47.9881 79.5001 -47.9881C79.1471 -47.9881 79.2648 -47.9881 78.6765 -47.9881Z"></path>
<path fill="#90C6DE" d="M44.2298 -12.8182C44.2298 -14.0634 41.8047 -9.26046 41.5194 -8.90469C41.6621 -8.54891 41.0915 -7.48158 41.5194 -7.48158C42.6606 -7.48158 43.6592 -7.48158 44.8004 -7.48158C44.6577 -7.30369 44.5151 -7.1258 44.5151 -6.94791C44.5151 -6.41425 45.6563 -8.19313 45.5136 -8.01525C46.3695 -6.94793 46.6549 -5.52481 46.6549 -8.19312C45.799 -7.48157 46.3695 -8.72678 46.3695 -9.08255C45.7989 -9.08255 46.0842 -9.43834 46.0842 -10.1499C45.6563 -9.79411 44.6577 -10.1499 44.2298 -10.1499C44.2298 -10.3278 44.3724 -10.5057 44.3724 -10.6836C43.9445 -11.2172 43.8018 -10.6835 43.3739 -10.5057C43.5165 -11.3951 44.2298 -11.9288 44.2298 -12.8182Z"></path>
<path fill="#90C6DE" d="M222.085 -46.9286C222.884 -46.9286 223.842 -47.6371 224.8 -47.6371C225.917 -47.6371 227.354 -47.1057 227.833 -48.877C226.875 -49.2313 224.001 -50.8255 224.001 -48.877C222.884 -48.877 222.724 -50.6484 221.287 -49.9398C219.69 -49.0542 220.489 -46.9286 222.085 -46.9286Z"></path>
<path fill="#90C6DE" d="M21.0482 -14.0833C21.7756 -14.0833 20.0299 -14.0833 20.1754 -14.0833C20.3209 -14.0833 20.6118 -14.0833 21.0482 -14.0833Z"></path>
<path fill="#90C6DE" d="M-20.7006 -9.74318C-19.9438 -9.38413 -19.0356 -8.78571 -17.9761 -8.78571C-18.2788 -9.62349 -21.1547 -11.299 -22.2142 -10.8203C-22.0628 -10.8203 -21.7601 -10.7006 -21.6088 -10.7006C-21.9115 -10.1022 -21.306 -9.86285 -20.2465 -9.86285C-20.5492 -9.98253 -20.7006 -9.86286 -20.7006 -9.74318C-20.2465 -9.50381 -20.7006 -9.98254 -20.7006 -9.74318Z"></path>
<path fill="#90C6DE" d="M-26.4523 -13.8714C-26.5847 -14.154 -26.7172 -14.5778 -26.5847 -14.8603C-26.5847 -14.7191 -26.7172 -14.5778 -26.9821 -14.4365C-26.9821 -14.5778 -26.9821 -14.7191 -26.8496 -14.8603C-27.1145 -15.0016 -27.2469 -15.0016 -27.5118 -15.1429C-27.5118 -14.8603 -26.5847 -13.0238 -26.4523 -13.0238V-13.8714Z"></path>
<path fill="#90C6DE" d="M-46.5833 -19.9634C-46.2589 -18.7808 -45.4479 -19.7006 -44.4746 -20.0948C-44.3124 -20.8831 -46.0967 -20.0948 -46.5833 -19.9634Z"></path>
<path fill="#90C6DE" d="M109.167 1.80953C108.917 1.80953 107.048 2.04496 107.048 2.04496C107.048 2.51586 108.668 3.92857 108.793 3.92857C108.917 3.92857 109.042 2.04498 109.167 1.80953Z"></path>
<path fill="#90C6DE" d="M103.617 -1.36904C104.021 -2.13961 103.819 -2.71752 103.819 -3.48809C103.415 -3.48809 103.213 -2.91018 102.81 -2.91018C103.011 -2.71754 103.011 -1.56168 103.617 -1.36904C103.617 -1.56168 103.213 -1.56168 103.617 -1.36904Z"></path>
<path fill="#90C6DE" d="M103.044 -0.268257C103.044 1.38291 103.991 0.832504 103.856 -0.543465C103.856 -0.818657 103.721 -1.36903 103.314 -1.36903C102.367 -1.36903 103.044 -0.681046 103.044 -0.268257Z"></path>
<path fill="#90C6DE" d="M98.5715 0.332802C98.5715 -0.630676 97.7769 -0.30954 97.512 0.0116196C97.512 0.332779 98.5715 1.29628 98.5715 0.332802Z"></path>
<path fill="#90C6DE" d="M104.929 -17.6937C104.929 -18.2695 104.575 -18.4134 103.869 -18.2695C104.046 -17.8377 104.399 -17.4058 104.752 -17.2619C104.752 -17.4058 104.929 -17.5498 104.929 -17.6937Z"></path>
<path fill="#90C6DE" d="M105.161 -17.4526C105.161 -17.6111 104.929 -17.6111 104.929 -17.4526C106.089 -16.6604 107.25 -18.5618 107.018 -19.0371C106.321 -20.1462 103.768 -18.2449 106.089 -17.928C105.857 -17.6111 105.625 -17.4526 105.161 -17.4526Z"></path>
<path fill="#90C6DE" d="M112.345 -21.5C111.771 -21.5 111.006 -20.8378 111.389 -20.4405C111.771 -20.7054 111.963 -21.1027 112.345 -21.5C112.154 -21.3676 111.58 -21.3676 112.345 -21.5Z"></path>
<path fill="#90C6DE" d="M115.816 -21.5C116.367 -21.5 116.229 -21.9582 116.505 -22.1873C116.917 -22.6454 115.541 -22.76 116.229 -22.0727C115.816 -21.9582 115.128 -21.5 115.816 -21.5Z"></path>
<path fill="#90C6DE" d="M119.762 4.98809C119.11 4.98809 118.295 4.98809 117.643 4.98809C118.132 4.98809 119.273 4.98809 119.762 4.98809C119.273 4.98809 119.273 4.98809 119.762 4.98809Z"></path>
<path fill="#90C6DE" d="M126.119 4.98809C125.766 5.15479 125.413 5.32151 125.06 5.65491C125.06 6.65511 126.119 5.48819 126.119 4.98809C126.119 5.3215 125.854 5.15479 126.119 4.98809Z"></path>
<path fill="#90C6DE" d="M144.484 28.2976C144.837 28.2976 145.014 28.2976 145.191 28.2976C144.837 28.2976 144.484 28.2976 144.131 28.2976C144.131 28.2976 144.308 28.2976 144.484 28.2976Z"></path>
<path fill="#90C6DE" d="M139.272 -38.3697C139.108 -38.3697 138.616 -37.5936 138.944 -37.4643C139.6 -37.2056 140.42 -37.723 140.913 -37.8523C141.241 -38.7577 139.436 -38.3697 139.272 -38.3697Z"></path>
<path fill="#90C6DE" d="M148.369 -40.3363C148.369 -39.7044 150.488 -39.2305 150.488 -39.7044C150.488 -40.1783 148.369 -40.9681 148.369 -40.3363Z"></path>
<path fill="#90C6DE" d="M161.083 -45.2637C159.891 -46.8534 160.421 -44.8095 160.024 -44.8095C160.289 -44.8095 160.686 -44.8095 161.083 -45.2637C160.951 -45.0366 160.686 -45.4908 161.083 -45.2637Z"></path>
<path fill="#90C6DE" d="M225.82 -45.869C226.138 -45.869 226.456 -45.869 226.774 -45.869C226.615 -45.869 224.39 -45.869 223.595 -45.869C224.231 -45.869 225.344 -45.869 225.82 -45.869Z"></path>
<path fill="#90C6DE" d="M232.78 -46.9286C233.879 -46.9286 234.978 -47.7762 233.408 -48.2C232.465 -48.4119 230.738 -48.2 229.952 -49.0476C230.581 -47.7762 231.523 -46.9286 232.78 -46.9286Z"></path>
<path fill="#90C6DE" d="M224.655 -46.4409C224.655 -47.0911 223.595 -47.0911 223.595 -46.4409C223.595 -45.5739 224.655 -45.7906 224.655 -46.4409Z"></path>
<path fill="#90C6DE" d="M39.2382 -10.0968C38.1787 -10.5633 37.331 -11.0298 36.0596 -10.8743C36.4834 -10.5633 38.6025 -9.3194 39.2382 -10.0968C39.0263 -9.94135 38.1787 -10.4078 39.2382 -10.0968Z"></path>
<path fill="#90C6DE" d="M37.1462 -6.66666C36.9585 -6.50406 37.9909 -4.71544 38.1786 -6.17885C37.8032 -6.01625 37.2401 -6.01626 37.1462 -6.66666C37.2401 -6.34146 37.0524 -6.66666 37.1462 -6.66666Z"></path>
<path fill="#90C6DE" d="M40.2977 -5.89141C40.2977 -5.89141 40.0595 -6.00216 39.9404 -6.11291C39.9404 -6.11291 39.9404 -6.66666 39.8213 -6.66666C38.273 -6.11291 40.2977 -5.11616 40.2977 -5.89141Z"></path>
<path fill="#90C6DE" d="M-56.9666 -23.619C-57.6023 -23.619 -57.8142 -23.619 -58.238 -23.619C-58.0261 -23.619 -56.7547 -23.619 -56.119 -23.619C-56.3309 -23.619 -56.5428 -23.619 -56.9666 -23.619Z"></path>
</g>
</svg>
