<svg width="44" height="44" viewBox="0 0 44 44" fill="none" xmlns="http://www.w3.org/2000/svg">
<path d="M22.0159 43.9872C34.1574 43.9872 44 34.1403 44 21.9936C44 9.84687 34.1574 0 22.0159 0C9.87437 0 0.0317383 9.84687 0.0317383 21.9936C0.0317383 34.1403 9.87437 43.9872 22.0159 43.9872Z" fill="#DCF4FF"/>
<mask id="mask0_4558_34864" style="mask-type:alpha" maskUnits="userSpaceOnUse" x="0" y="0" width="44" height="44">
<path d="M22.0159 43.9872C34.1574 43.9872 44 34.1403 44 21.9936C44 9.84687 34.1574 0 22.0159 0C9.87437 0 0.0317383 9.84687 0.0317383 21.9936C0.0317383 34.1403 9.87437 43.9872 22.0159 43.9872Z" fill="#DCF4FF"/>
</mask>
<g mask="url(#mask0_4558_34864)">
<path d="M29.0523 40.8908L28.2232 40.839L28.275 39.6946L27.8475 39.9796L27.1781 40.0789L26.7938 39.7939H26.3187L26.2712 39.0771L25.7444 38.1745L26.2712 37.5052C26.2712 37.5052 26.4612 36.6026 26.7463 36.3608C27.0313 36.1189 28.4607 35.8339 28.4607 35.8339L28.7025 35.6439L28.8925 34.6766L29.0696 33.6056L28.4996 32.7808V32.3533H29.1473L28.8234 31.9257V31.6062L29.7908 31.5716L30.7451 31.2391L30.8661 31.3859C30.8661 31.3859 30.7581 32.1417 31.2936 32.2108C31.8291 32.2799 32.8655 31.8566 32.9 31.6753C32.9346 31.4982 33.5824 31.1052 33.5824 31.1052L33.401 30.8548L33.0469 30.9282L32.9778 30.3236L32.33 29.6413L33.7594 29.9954L34.1869 29.7492L34.757 29.6413C34.757 29.6413 35.3961 29.4642 35.3961 29.2872C35.3961 29.1835 35.3831 29.0626 35.3486 28.9547L35.9661 29.0669L35.7891 29.4599L36.2166 29.7795L36.0395 30.6043L36.3591 31.5328L36.9291 31.8912L37.4344 31.4982L38.4881 31.3514L38.9329 31.2866L39.0409 31.0016H39.9693L40.3623 31.2132L41.3987 31.1398L42.1804 29.5031C42.5129 29.7665 42.7504 30.0386 42.854 30.3106C43.3291 31.5457 43.5191 32.6901 45.1428 33.2601C46.7622 33.8302 49.3101 34.9055 50.3336 34.9314C52.5749 34.9789 55.9562 37.6002 54.1943 39.4614C51.085 42.7391 51.8105 42.6959 51.2361 45.464C50.6661 48.2278 50.6186 49.7998 46.8054 50.6116C43.26 51.3673 44.8535 53.4704 43.7134 55.2755C42.8109 56.7093 41.7788 58.1818 40.9237 59.1276L40.7596 57.8968L39.3302 56.6099L38.9027 56.5106L38.3326 55.9406L37.7885 55.9708L37.8576 55.7549L39.0927 54.2262L40.4746 53.6086L40.5739 52.3692L40.1118 52.2569L40.1939 50.9398L39.382 50.8405L39.4813 50.0804L38.8638 49.4111H37.4819L37.4344 47.891C37.4344 47.891 37.4344 47.7615 37.4474 47.5801C37.4646 47.3167 37.5121 46.9453 37.6244 46.7466C37.8144 46.4098 37.7237 46.0773 37.7237 46.0773L37.1537 45.4597V44.8897L35.815 44.9372L35.7675 44.2678L35.5257 44.0778L35.8107 43.8878L35.6207 42.8341L34.6663 42.6916L33.6212 41.9747L32.7618 41.8322L32.235 41.5472L32.1443 39.9278H31.2849L29.8555 40.9297L29.0609 40.8822L29.0523 40.8908Z" fill="#90C6DE"/>
<path d="M42.1804 29.507L41.3987 31.1437L40.3623 31.2171L39.9693 31.0055H39.9477L40.3321 29.9302L39.9045 29.3256L40.4184 28.4619C41.0835 28.7729 41.7226 29.1313 42.1847 29.507H42.1804Z" fill="#90C6DE"/>
<path d="M40.414 28.4622L39.9001 29.3259L40.3276 29.9305L39.9433 31.0058H39.0407L38.9328 31.2908L38.488 31.3556L37.3608 29.2914L38.0432 28.9329L38.1511 27.6288C38.7341 27.7713 39.5935 28.0822 40.414 28.4622Z" fill="#90C6DE"/>
<path d="M37.3608 29.2911L38.4879 31.3553L37.4342 31.5022L36.929 31.8951L36.3589 31.5367L36.0394 30.6082L36.2164 29.7834L35.7889 29.4639L35.9659 29.0709L35.3484 28.9586C35.3268 28.8679 35.2793 28.7815 35.2189 28.7168C35.0763 28.5699 34.8647 28.4318 34.8647 28.4318C34.8647 28.4318 35.6464 28.2849 35.6464 28.1079C35.6464 27.9308 35.4693 27.106 35.4693 27.106L36.1387 26.6266C36.7951 27.0801 37.3781 27.4774 37.8013 27.5465C37.9006 27.5638 38.0172 27.5853 38.1511 27.6285L38.0431 28.9327L37.3608 29.2911Z" fill="#90C6DE"/>
<path d="M33.9493 49.277L33.0856 49.2295L32.8006 49.9895L32.3731 49.4195L31.7555 49.372L31.3712 49.2295L30.7062 49.9463L30.1361 49.9939L29.9418 48.992L29.6568 47.8044L29.9418 47.3294L29.5661 47.135L29.2811 46.2325L28.8967 45.9475L29.0608 45.2565L29.4452 44.9024L29.0867 44.7383L29.1861 44.2806V43.7105L29.4495 43.378V42.402L29.5186 41.9486L29.2336 41.4217L29.0608 40.9035L29.8554 40.951L31.2848 39.9492H32.1442L32.2349 41.5686L32.7617 41.8536L33.6211 41.9961L34.6662 42.713L35.6205 42.8555L35.8106 43.9092L35.5255 44.0992L35.7674 44.2892L35.8149 44.9585L37.1536 44.911V45.4811L37.7236 46.0986C37.7236 46.0986 37.8143 46.4311 37.6243 46.768C37.512 46.9666 37.4645 47.338 37.4472 47.6014L36.7649 47.243L34.6187 47.433L34.0011 49.2899H33.9536L33.9493 49.277Z" fill="#90C6DE"/>
<path d="M30.7407 31.2472L30.2484 30.6469L30.5722 30.3619L30.1793 29.645L30.3218 28.6777L30.4988 28.2847L29.1774 28.3927L28.4303 27.6456H27.2859C26.7807 27.6456 26.7807 26.7171 26.7807 26.7171L26.8152 26.0694C26.8152 26.0694 26.1761 26.0348 26.3186 25.7109C26.4611 25.3914 26.7807 24.817 26.7807 24.817L27.4327 24.1174C28.4562 24.1477 29.1299 24.3981 29.1299 24.3981C29.9893 24.7825 30.5593 25.5425 32.4637 25.1625C33.6642 24.9207 35.0159 25.8491 36.1344 26.6221L35.465 27.1015C35.465 27.1015 35.6421 27.9263 35.6421 28.1034C35.6421 28.2804 34.8604 28.4272 34.8604 28.4272C34.8604 28.4272 35.0721 28.5654 35.2146 28.7123C35.2793 28.777 35.3225 28.8591 35.3441 28.9541C35.3787 29.062 35.3916 29.183 35.3916 29.2866C35.3916 29.4637 34.7525 29.6407 34.7525 29.6407L34.1825 29.7487L33.7549 29.9948L32.3255 29.6407L32.9733 30.323L33.0424 30.9276L33.3965 30.8542L33.5779 31.1047C33.5779 31.1047 32.9301 31.4976 32.8956 31.6747C32.861 31.8561 31.8246 32.2793 31.2891 32.2102C30.7536 32.1411 30.8616 31.3854 30.8616 31.3854L30.7407 31.2385V31.2472Z" fill="#90C6DE"/>
<path d="M30.7407 31.2476L29.7864 31.5801L28.819 31.6147V31.9342L29.1429 32.3617H28.4952V32.7893L29.0652 33.6141L28.8881 34.6851L28.6981 35.6524L28.0763 35.4624L28.4606 34.698L27.8431 34.508H26.4137L25.9343 33.6486L25.6018 33.4586L25.1268 32.8886L24.5956 32.854C24.5265 32.7159 24.4185 32.6208 24.2199 32.6036C23.6499 32.5517 23.1273 32.6511 23.0755 32.4092C23.041 32.2451 22.3025 31.7788 21.8879 31.5326C22.553 30.8978 23.1921 29.7145 23.0323 28.6004C22.8423 27.2617 24.2717 26.1173 24.7467 25.6422C25.2218 25.1672 26.0811 24.1135 27.2212 24.1135C27.2946 24.1135 27.3637 24.1135 27.4328 24.1178L26.7807 24.8174C26.7807 24.8174 26.4612 25.3875 26.3187 25.7113C26.1761 26.0352 26.8153 26.0698 26.8153 26.0698L26.7807 26.7175C26.7807 26.7175 26.7807 27.646 27.286 27.646H28.4304L29.1775 28.3931L30.4989 28.2851L30.3219 28.6781L30.1793 29.6454L30.5723 30.3623L30.2484 30.6473L30.7407 31.2476Z" fill="#90C6DE"/>
<path d="M31.4836 18.9226C31.6996 19.0435 31.5743 19.2162 31.3541 19.3155C31.1252 19.4192 30.8618 19.3458 30.6286 19.2508C30.5422 19.2205 30.4386 19.1514 30.4645 19.0694C30.4775 19.0176 30.5293 18.983 30.5681 18.9657C30.8445 18.8189 31.1814 18.793 31.4793 18.8966L31.4923 18.9182L31.4836 18.9226Z" fill="#90C6DE"/>
<path d="M29.9463 18.741C30.011 18.7799 30.0888 18.8447 30.0715 18.9181C30.0542 18.9829 29.9808 19.0088 29.916 19.026C29.1171 19.216 28.3053 19.3283 27.4848 19.3586L27.4373 17.8817C28.3139 18.0198 29.1646 18.3092 29.9419 18.741H29.9463Z" fill="#90C6DE"/>
<path d="M29.2249 41.4129L29.5099 41.9398L29.4408 42.3932V43.3692L29.1774 43.7017V44.2717L29.0781 44.7295L29.4365 44.8936L29.0522 45.2477L28.8881 45.9387L28.5037 46.4137L27.9725 46.526C27.6875 45.9041 27.2859 45.4032 26.7418 45.0793C23.2136 42.9805 21.7842 38.2173 21.1192 37.6473C20.4498 37.0772 20.5491 35.2635 20.5491 34.6891C20.5491 34.6244 20.5491 34.5509 20.5621 34.4603L20.8817 34.5984L21.1667 35.3153L21.1192 36.0753L22.1211 36.2654C22.1211 36.2654 22.3543 35.5485 22.6911 35.3153C23.0236 35.0735 23.5936 34.6934 23.7362 34.6934C23.8787 34.6934 24.9237 33.7909 24.7812 33.6009C24.6905 33.4756 24.7164 33.1043 24.5869 32.8538L25.1181 32.8883L25.5931 33.4584L25.9256 33.6484L26.4049 34.5077H27.8344L28.4519 34.6978L28.0676 35.4621L28.6894 35.6521L28.4476 35.8421C28.4476 35.8421 27.0182 36.1272 26.7332 36.369C26.4481 36.6108 26.2581 37.5134 26.2581 37.5134L25.7313 38.1827L26.2581 39.0853L26.3056 39.8022H26.7807L27.165 40.0872L27.8344 39.9878L28.2619 39.7028L28.2101 40.8472L29.0392 40.899L29.2119 41.4173L29.2249 41.4129Z" fill="#90C6DE"/>
<path d="M24.6 32.854C24.7295 33.1044 24.7036 33.4758 24.7943 33.601C24.9368 33.7911 23.8918 34.6936 23.7493 34.6936C23.6067 34.6936 23.0324 35.078 22.7042 35.3155C22.3674 35.5487 22.1342 36.2655 22.1342 36.2655L21.1323 36.0755L21.1798 35.3155L20.8948 34.5986L20.5752 34.4604C20.6097 33.7392 20.8386 32.258 21.5123 31.8305C21.6375 31.7484 21.7714 31.6491 21.8966 31.5282C22.3155 31.7743 23.0497 32.2364 23.0842 32.4048C23.136 32.6467 23.6542 32.5474 24.2286 32.5992C24.4272 32.6164 24.5395 32.7114 24.6043 32.8496L24.6 32.854Z" fill="#90C6DE"/>
<path d="M23.6716 26.5706L22.9979 27.715C22.6395 27.1449 22.9245 26.4669 22.281 26.4324C21.6333 26.3935 21.3137 26.7519 21.3137 26.7519C21.3137 26.7519 21.4562 28.0734 20.5234 27.3565C20.0527 26.9981 19.6036 26.726 19.2063 26.5101L19.487 25.7673C20.1564 26.1042 20.7523 26.0869 21.6635 25.858C22.6697 25.6075 23.6629 26.5662 23.6629 26.5662L23.6716 26.5706Z" fill="#176C93"/>
<path d="M26.5388 17.7955C26.8411 17.7998 27.1434 17.8344 27.4414 17.8819L27.4889 19.3588C26.8714 19.389 26.2538 19.3718 25.6363 19.3027C25.5672 19.104 25.7917 18.914 26.0034 18.8838C26.215 18.8535 26.4309 18.9183 26.6425 18.8708C26.8498 18.8233 27.0441 18.5858 26.9275 18.4087C26.7548 18.4131 26.5777 18.4131 26.4179 18.344C26.2625 18.2749 26.1372 18.1108 26.1588 17.9424C26.1804 17.7696 26.405 17.6444 26.5345 17.7523V17.7912L26.5388 17.7955Z" fill="#90C6DE"/>
<path d="M25.6579 17.6486C25.7313 17.7695 25.6579 17.9336 25.537 18.0156C25.416 18.0977 25.2692 18.115 25.1267 18.1193C24.6215 18.1409 24.1162 18.1193 23.6153 18.0372C23.4555 18.0156 23.2914 17.9725 23.1748 17.8602C23.0323 17.7177 23.0193 17.4845 22.907 17.3074C22.6609 16.936 22.1124 17.0094 21.672 16.936C21.2142 16.8626 20.8255 16.5819 20.4196 16.366C20.0137 16.1501 19.5343 15.9817 19.0982 16.1414C18.7959 16.2494 18.3899 16.474 18.2302 16.1976C18.1179 15.9989 18.3165 15.7528 18.5324 15.6837C18.757 15.6146 18.9945 15.6448 19.2148 15.5628C19.5646 15.4332 19.8107 15.0316 20.1864 15.0273C20.5923 15.023 20.8558 15.4894 21.2488 15.606C21.4906 15.675 21.741 15.606 21.9872 15.593C22.635 15.5714 23.2223 15.9514 23.7664 16.3185C24.3494 16.7201 24.9324 17.1174 25.5197 17.519C25.5715 17.5536 25.6233 17.5924 25.6579 17.6486Z" fill="#90C6DE"/>
<path d="M23.8744 19.5054C23.4382 19.6652 22.92 19.5442 22.5918 19.2117L22.6048 19.1038C22.7818 18.8792 23.1014 18.7842 23.3777 18.8706C23.6541 18.9569 23.8571 19.2247 23.8744 19.5054Z" fill="#90C6DE"/>
<path d="M19.4913 25.7673L19.2106 26.5101C18.8219 26.2985 18.4894 26.1387 18.2389 25.9962C17.7423 25.7112 17.0254 25.7501 17.0254 25.3571C17.0254 25.1671 16.9563 24.9209 16.8484 24.7007L17.8848 24.597L18.3123 24.8821L18.7528 24.6661C18.7744 25.1282 18.9256 25.4564 19.3142 25.6767C19.3704 25.7112 19.4351 25.7414 19.4913 25.7673Z" fill="#176C93"/>
<path d="M18.9084 21.7037C18.9904 21.9801 18.999 22.3601 18.9213 22.9258C18.8177 23.6556 18.7313 24.2256 18.7572 24.6661L18.3167 24.8821L17.8892 24.597L16.8528 24.7007C16.7405 24.4545 16.5721 24.2386 16.3907 24.1479C16.218 24.0615 16.1661 23.8974 16.1316 23.7204L16.313 22.6926L16.6973 22.6019L17.073 22.5026L17.5999 21.8332L18.0274 21.9757L18.9084 21.708V21.7037Z" fill="#176C93"/>
<path d="M18.9083 21.7038L18.0274 21.9715L17.5998 21.829L17.073 22.4984L16.6973 22.5977L16.313 22.6884L16.1316 23.7162C16.0798 23.5089 16.0409 23.293 15.8509 23.1807C15.7947 23.1461 15.6954 23.1159 15.5745 23.09L15.5529 22.6452L14.9829 22.4552L14.4128 22.1702L14.7454 21.4533L14.7281 21.1294L15.4018 20.9178C15.4579 20.974 15.5443 21.0042 15.6695 21.0042C16.205 21.0042 17.6042 20.6458 18.1397 20.9308C18.4765 21.1078 18.7788 21.2547 18.9127 21.7081L18.9083 21.7038Z" fill="#176C93"/>
<path d="M14.4558 16.7463C15.2029 16.7463 16.7446 16.3188 16.4898 16.9579C16.2912 17.4675 15.7643 18.4175 15.5138 19.1603L15.0258 19.0696L14.4083 19.5447H13.3546L13.0221 20.024L13.9765 20.8834L13.6396 21.2159L13.1646 21.3584H12.4952L12.3959 22.0234C11.7266 21.4232 11.0486 20.5465 10.4138 20.7538C9.62348 21.0043 4.73069 20.4688 3.33583 18.7889C1.94098 17.1091 3.15878 17.1091 2.61897 16.2842C2.0878 15.468 -2.27382 10.0354 -2.88272 8.99902C-3.49594 7.95828 -4.52805 8.10079 -3.70754 9.53019C-2.88704 10.9596 -0.740772 14.5007 -0.455755 14.7857C-0.170738 15.0707 0.114276 16.146 -0.991244 15.0707C-2.10108 13.9955 -2.24359 12.674 -2.84817 12.6049C-3.45275 12.5315 -4.48918 11.7067 -4.42008 11.4951C-4.35099 11.2835 -3.67299 11.2446 -3.78096 11.033C-3.88028 10.8344 -5.12399 8.4549 -5.88403 7.55234L-4.23007 7.3537L-1.84629 8.39876L0.679993 8.64059L0.580667 8.16557L1.96257 8.21307L2.33827 8.68809C2.33827 8.68809 2.96013 9.11562 3.15014 9.45246C3.34015 9.78498 3.96201 10.83 4.29453 10.5968C4.62705 10.355 4.91206 9.83249 4.91206 9.83249H5.58142L7.58086 12.8856L8.79434 13.1447C8.79434 13.2009 8.79002 13.2527 8.75979 13.2916C8.58274 13.5766 8.22431 15.5026 8.47478 16.1849C8.72525 16.8586 9.12254 18.4391 9.76167 18.7932C10.4094 19.1474 11.9079 19.3978 12.5125 19.0092C13.1257 18.6162 13.8383 18.2534 13.8383 17.718C13.8383 17.1825 13.6958 16.7593 14.4429 16.7593L14.4558 16.7463Z" fill="#90C6DE"/>
<path d="M15.5527 22.6405L15.5743 23.0853C15.164 22.9817 14.4428 22.8953 13.8037 22.7312L14.4083 22.1655L14.9783 22.4505L15.5484 22.6405H15.5527Z" fill="#176C93"/>
<path d="M15.0261 19.0651L15.514 19.1558C15.445 19.3545 15.4018 19.5445 15.3845 19.7043C15.3327 20.2829 15.2204 20.7277 15.4018 20.9091L14.7281 21.1207L14.6979 20.6802L14.4128 19.5358L15.0304 19.0608L15.0261 19.0651Z" fill="#176C93"/>
<path d="M14.7235 21.1251L14.7408 21.4489L14.4083 22.1658L13.8037 22.7315C13.4539 22.6451 13.1214 22.5372 12.8839 22.3904C12.7241 22.291 12.5643 22.1658 12.4045 22.019L12.5039 21.3539H13.1732L13.6483 21.2114L13.9851 20.8789L13.0307 20.0195L13.3632 19.5402H14.4169L14.702 20.6846L14.7322 21.1251H14.7235Z" fill="#176C93"/>
<path d="M27.4847 -4.15946L28.6118 -3.03235C28.5816 -3.00212 28.5643 -2.97621 28.56 -2.94598C28.4607 -2.51846 28.0807 -2.18594 28.3657 -1.75841C28.6507 -1.33089 28.9875 -0.899039 27.8475 -0.519016C26.7031 -0.134675 26.2237 -0.186497 25.8912 0.526046C25.8912 0.526046 25.4291 2.02022 25.1009 2.4823C24.7814 2.94437 24.6777 3.05233 24.4618 2.90982C24.2459 2.76731 23.9997 2.33979 24.2459 3.19484C24.4963 4.05421 25.1441 4.8013 23.8572 5.69522C22.5703 6.59345 20.7825 7.69465 20.7479 8.0574C20.7134 8.41583 20.2859 8.83904 20.6788 10.1346C21.0675 11.4171 21.7153 13.9218 21.033 13.8873C20.3507 13.8527 19.7806 12.3154 19.6036 11.8101C19.4265 11.3135 19.3185 9.84955 18.3901 9.8841C17.4573 9.91865 15.2808 9.49112 14.741 9.74159C14.2055 9.98774 14.3135 10.3462 13.0611 10.1691C11.8131 9.98775 10.3103 10.0957 9.3084 11.2401C8.45766 12.2117 8.79882 12.799 8.80314 13.1316L7.58966 12.8725L5.59023 9.81932H4.92087C4.92087 9.81932 4.63585 10.3462 4.30333 10.5837C3.97081 10.8169 3.34895 9.77182 3.15894 9.4393C2.96893 9.10246 2.34708 8.67494 2.34708 8.67494L1.97137 8.19991L0.589471 8.1524L0.688793 8.62743L-1.83749 8.3856L-4.22127 7.34054L-5.87523 7.53919C-5.94001 7.45714 -6.00047 7.39668 -6.05661 7.34054C-6.76483 6.65823 -8.05605 6.05365 -8.37993 5.62612C-8.70381 5.1986 -10.2714 3.01778 -10.8803 0.832651C-11.4935 -1.34384 -10.7378 -5.41613 -10.8803 -6.09845C-10.971 -6.54324 -11.0401 -7.20828 -11.3337 -7.80423L-10.3491 -7.52785L-10.2023 -8.45631L10.1635 -8.52972L10.4485 -8.88815L10.6644 -8.09788H11.8779L12.3054 -7.57103L12.5904 -7.81286L12.9229 -7.40693L13.2814 -7.64876L14.1407 -7.38534L14.4948 -7.43284L15.2376 -7.79127L18.023 -5.81343L18.4074 -5.64932L18.714 -5.12247L19.474 -4.57403L19.7374 -3.07554C19.7374 -3.07554 19.7374 -2.19457 19.5949 -2.05206C19.4524 -1.90955 19.0897 -1.48203 19.0897 -1.48203C19.0897 -1.48203 18.9774 -1.02428 19.2365 -0.955183C19.4956 -0.886087 19.9965 -1.0545 19.9965 -1.0545L22.0219 -1.95706L21.9226 -2.69551L23.5938 -2.74302C23.5938 -2.74302 24.0991 -3.62829 24.3538 -3.69739C24.6173 -3.7708 25.0232 -4.17242 25.0232 -4.17242H27.4761L27.4847 -4.15946Z" fill="#90C6DE"/>
</g>
</svg>
