<svg width="66" height="80" viewBox="0 0 66 80" fill="none" xmlns="http://www.w3.org/2000/svg">
<rect y="23.2543" width="56" height="56" rx="11.3898" fill="#F8F8FB"/>
<g clip-path="url(#clip0_22_4326)">
<path d="M52.4741 27.7137C52.9068 27.6608 53.2106 27.6765 53.4131 27.7349C53.609 27.7915 53.6967 27.8828 53.7354 27.9821C53.7783 28.0926 53.7774 28.2554 53.7089 28.4807C53.5717 28.9323 53.1966 29.5245 52.6897 30.172C52.1871 30.8142 51.5704 31.4923 50.969 32.1119C50.368 32.7311 49.7847 33.2897 49.3519 33.6939C49.1355 33.8959 48.9569 34.0595 48.8324 34.1721C48.7704 34.2282 48.7215 34.2714 48.6885 34.3008C48.672 34.3156 48.6589 34.3268 48.6505 34.3343C48.6462 34.338 48.6429 34.3415 48.6408 34.3434C48.64 34.3442 48.6396 34.3452 48.6391 34.3456L48.6381 34.3457L48.8371 34.6677C51.1225 33.7412 52.8779 33.1293 54.1998 32.7656C55.528 32.4002 56.3993 32.2915 56.9265 32.3546C57.1884 32.386 57.343 32.457 57.4295 32.5372C57.5098 32.6117 57.5509 32.7123 57.5482 32.8557C57.5454 33.0057 57.4936 33.1963 57.388 33.4247C57.2834 33.6509 57.1313 33.903 56.9409 34.1742C56.1757 35.2645 54.8382 36.5931 53.6826 37.6563C53.1067 38.1862 52.5798 38.6479 52.1962 38.9764C52.0046 39.1405 51.8482 39.2709 51.7406 39.3608C51.6868 39.4056 51.6453 39.4409 51.617 39.4642C51.6029 39.4759 51.5922 39.4851 51.585 39.491C51.5817 39.4937 51.5787 39.4955 51.5769 39.4969L51.5743 39.4993L51.7443 39.8339C53.5372 39.3663 54.8405 39.1302 55.75 39.0707C56.2046 39.041 56.5532 39.0558 56.8118 39.1048C57.0726 39.1542 57.2236 39.2349 57.3051 39.3191C57.3796 39.3963 57.4132 39.4941 57.4003 39.6308C57.3866 39.7752 57.3201 39.9571 57.1946 40.1751C56.9441 40.6105 56.4897 41.1355 55.9073 41.703C53.5796 43.9708 49.4108 46.742 49.2313 46.8613L49.3774 47.2088C51.083 46.8481 52.2625 46.7293 52.9877 46.8006C53.3524 46.8365 53.5728 46.9176 53.6905 47.0137C53.7913 47.0961 53.831 47.2002 53.8017 47.3578C53.7695 47.531 53.6526 47.7598 53.4313 48.0453C53.2125 48.3274 52.9032 48.6495 52.5063 49.0068C51.812 49.6317 50.8626 50.3553 49.6934 51.1518L49.1677 51.5048L49.158 51.5129C44.7485 55.3812 37.9 61.3571 32.4984 69.1164C25.0799 79.7731 20.8357 90.9007 15.8463 101.564C10.8538 112.235 5.10708 122.463 -5.32417 131.385C-16.8278 141.225 -29.3771 143.47 -40.5681 140.864C-51.7261 138.267 -61.5448 130.845 -67.6313 121.296L-42.9728 82.5594C-41.1888 84.0786 -36.6637 88.3727 -34.9338 90.0079L-34.9328 90.0078C-34.5782 90.3422 -34.2254 90.6785 -33.8737 91.016L-33.8726 91.0168C-32.8735 91.9715 -31.9981 92.8225 -31.3729 93.4351C-31.0605 93.7412 -30.8109 93.9881 -30.6389 94.1581C-30.5529 94.2431 -30.4863 94.3097 -30.4414 94.3543C-30.4189 94.3766 -30.4011 94.3934 -30.3896 94.4047C-30.384 94.4103 -30.3799 94.4151 -30.3771 94.4179L-30.3727 94.4213L-30.2044 94.5897L-30.0756 94.3891L-30.0747 94.388C-30.0742 94.3871 -30.0735 94.3855 -30.0723 94.3837C-30.0699 94.38 -30.0656 94.374 -30.0608 94.3665C-30.0511 94.3515 -30.0362 94.3293 -30.0171 94.2998C-29.9786 94.2403 -29.9208 94.1511 -29.8445 94.0345C-29.6917 93.8012 -29.4645 93.4561 -29.1659 93.0101C-28.5684 92.1175 -27.6859 90.8198 -26.5474 89.2005C-24.2702 85.9619 -20.968 81.4372 -16.8692 76.2943C-8.67024 66.007 2.71099 53.2526 15.4503 43.3669C22.389 37.9827 27.1039 34.775 30.2723 32.9897C31.8569 32.0968 33.0484 31.563 33.9331 31.2902C34.8249 31.0153 35.3738 31.0156 35.6962 31.1427C35.9939 31.2601 36.1328 31.5016 36.164 31.8477C36.1961 32.2039 36.1082 32.6439 35.9658 33.0861C35.8248 33.5243 35.6364 33.9466 35.4818 34.2608C35.4047 34.4174 35.3366 34.5467 35.2879 34.6362C35.2635 34.6809 35.2435 34.7156 35.2302 34.7391C35.2236 34.7508 35.2183 34.7598 35.2149 34.7657C35.2134 34.7683 35.2126 34.7706 35.2118 34.772L35.2111 34.774L35.2101 34.7742L34.8744 35.3489L35.4651 35.0417C43.3458 30.946 48.1088 28.8822 50.8223 28.0842C51.4994 27.885 52.0439 27.7662 52.4741 27.7137Z" fill="white" stroke="#292B2E" stroke-width="0.384364"/>
<path d="M49.3979 47.0004C49.3979 47.0004 45.6414 48.2548 41.8698 52.0358" stroke="#292B2E" stroke-width="0.788753"/>
<path d="M49.4995 41.1552C49.4995 41.1552 44.5412 42.9247 39.024 47.4742" stroke="#292B2E" stroke-width="0.788753"/>
<path d="M45.488 41.0083L51.1462 40.8616L51.2139 43.4731C51.2263 43.9538 50.8467 44.3536 50.366 44.3661L46.4488 44.4677C45.968 44.4801 45.5682 44.1005 45.5557 43.6197L45.488 41.0083Z" fill="#292B2E"/>
<path fill-rule="evenodd" clip-rule="evenodd" d="M50.7222 41.3081L45.9346 41.4323L45.991 43.6085C45.9972 43.8488 46.1971 44.0386 46.4375 44.0324L50.3547 43.9309C50.595 43.9246 50.7849 43.7247 50.7786 43.4843L50.7222 41.3081ZM45.488 41.0083L45.5557 43.6197C45.5682 44.1005 45.968 44.4801 46.4488 44.4677L50.366 44.3661C50.8467 44.3536 51.2263 43.9538 51.2139 43.4731L51.1462 40.8616L45.488 41.0083Z" fill="#292B2E"/>
<path d="M28.4868 41.449L34.1449 41.3023L34.2126 43.9137C34.2251 44.3945 33.8455 44.7943 33.3647 44.8068L29.4476 44.9083C28.9668 44.9208 28.567 44.5412 28.5545 44.0604L28.4868 41.449Z" fill="#292B2E"/>
<path fill-rule="evenodd" clip-rule="evenodd" d="M33.721 41.7488L28.9333 41.8729L28.9898 44.0491C28.996 44.2895 29.1959 44.4793 29.4363 44.4731L33.3534 44.3715C33.5938 44.3653 33.7836 44.1654 33.7774 43.925L33.721 41.7488ZM28.4868 41.449L28.5545 44.0604C28.567 44.5412 28.9668 44.9208 29.4476 44.9083L33.3647 44.8068C33.8455 44.7943 34.2251 44.3945 34.2126 43.9137L34.1449 41.3023L28.4868 41.449Z" fill="#292B2E"/>
<path d="M37.3103 41.2203L42.9684 41.0736L43.0361 43.6851C43.0486 44.1658 42.669 44.5657 42.1882 44.5781L38.2711 44.6797C37.7903 44.6922 37.3905 44.3125 37.378 43.8318L37.3103 41.2203Z" fill="#292B2E"/>
<path fill-rule="evenodd" clip-rule="evenodd" d="M42.5445 41.5202L37.7568 41.6443L37.8132 43.8205C37.8195 44.0609 38.0194 44.2507 38.2598 44.2445L42.1769 44.1429C42.4173 44.1367 42.6071 43.9368 42.6009 43.6964L42.5445 41.5202ZM37.3103 41.2203L37.378 43.8318C37.3905 44.3125 37.7903 44.6922 38.2711 44.6797L42.1882 44.5781C42.669 44.5657 43.0486 44.1658 43.0361 43.6851L42.9684 41.0736L37.3103 41.2203Z" fill="#292B2E"/>
<path d="M33.4714 9.44836L27.8133 9.59505L27.7456 6.98361C27.7331 6.50286 28.1128 6.10303 28.5935 6.09056L32.5107 5.98901C32.9914 5.97655 33.3913 6.35617 33.4037 6.83692L33.4714 9.44836Z" fill="#292B2E"/>
<path fill-rule="evenodd" clip-rule="evenodd" d="M28.2373 9.14853L33.0249 9.02441L32.9685 6.84821C32.9623 6.60783 32.7623 6.41802 32.522 6.42425L28.6048 6.5258C28.3644 6.53203 28.1746 6.73195 28.1808 6.97233L28.2373 9.14853ZM33.4714 9.44836L33.4037 6.83692C33.3913 6.35617 32.9914 5.97655 32.5107 5.98901L28.5935 6.09056C28.1128 6.10303 27.7331 6.50286 27.7456 6.98361L27.8133 9.59505L33.4714 9.44836Z" fill="#292B2E"/>
<path d="M50.4724 9.00769L44.8143 9.15438L44.7466 6.54294C44.7341 6.06218 45.1137 5.66235 45.5945 5.64989L49.5117 5.54833C49.9924 5.53587 50.3922 5.9155 50.4047 6.39625L50.4724 9.00769Z" fill="#292B2E"/>
<path fill-rule="evenodd" clip-rule="evenodd" d="M45.2382 8.70785L50.0259 8.58373L49.9695 6.40753C49.9632 6.16716 49.7633 5.97734 49.5229 5.98358L45.6058 6.08513C45.3654 6.09136 45.1756 6.29128 45.1818 6.53165L45.2382 8.70785ZM50.4724 9.00769L50.4047 6.39625C50.3922 5.9155 49.9924 5.53587 49.5117 5.54833L45.5945 5.64989C45.1137 5.66235 44.7341 6.06218 44.7466 6.54294L44.8143 9.15438L50.4724 9.00769Z" fill="#292B2E"/>
<path d="M41.6492 9.23633L35.991 9.38302L35.9233 6.77157C35.9109 6.29082 36.2905 5.89099 36.7713 5.87853L40.6884 5.77697C41.1692 5.76451 41.569 6.14413 41.5815 6.62489L41.6492 9.23633Z" fill="#292B2E"/>
<path fill-rule="evenodd" clip-rule="evenodd" d="M36.415 8.93649L41.2026 8.81237L41.1462 6.63617C41.14 6.39579 40.9401 6.20598 40.6997 6.21221L36.7825 6.31377C36.5422 6.32 36.3524 6.51991 36.3586 6.76029L36.415 8.93649ZM41.6492 9.23633L41.5815 6.62489C41.569 6.14413 41.1692 5.76451 40.6884 5.77697L36.7713 5.87853C36.2905 5.89099 35.9109 6.29082 35.9233 6.77157L35.991 9.38302L41.6492 9.23633Z" fill="#292B2E"/>
<path d="M23.8332 11.46C23.7833 9.53694 25.3018 7.93761 27.2248 7.88776L55.5155 7.15431C57.4385 7.10446 59.0378 8.62295 59.0877 10.546L59.8211 38.8366C59.871 40.7596 58.3525 42.3589 56.4295 42.4088L28.1388 43.1422C26.2158 43.1921 24.6165 41.6736 24.5666 39.7506L23.8332 11.46Z" fill="#292B2E"/>
<path fill-rule="evenodd" clip-rule="evenodd" d="M55.5268 7.58955L27.2361 8.323C25.5535 8.36662 24.2248 9.76603 24.2684 11.4487L25.0019 39.7393C25.0455 41.4219 26.4449 42.7506 28.1275 42.707L56.4182 41.9735C58.1008 41.9299 59.4295 40.5305 59.3859 38.8479L58.6524 10.5572C58.6088 8.87461 57.2094 7.54593 55.5268 7.58955ZM27.2248 7.88776C25.3018 7.93761 23.7833 9.53694 23.8332 11.46L24.5666 39.7506C24.6165 41.6736 26.2158 43.1921 28.1388 43.1422L56.4295 42.4088C58.3525 42.3589 59.871 40.7596 59.8211 38.8366L59.0877 10.546C59.0378 8.62295 57.4385 7.10446 55.5155 7.15431L27.2248 7.88776Z" fill="#292B2E"/>
<path d="M21.2509 11.5267C21.2011 9.60371 22.7196 8.00438 24.6426 7.95453L52.9332 7.22108C54.8562 7.17123 56.4555 8.68972 56.5054 10.6127L57.2388 38.9034C57.2887 40.8264 55.7702 42.4257 53.8472 42.4756L25.5566 43.209C23.6335 43.2589 22.0342 41.7404 21.9844 39.8173L21.2509 11.5267Z" fill="white"/>
<path fill-rule="evenodd" clip-rule="evenodd" d="M52.9445 7.65632L24.6539 8.38977C22.9712 8.43339 21.6425 9.8328 21.6862 11.5154L22.4196 39.8061C22.4632 41.4887 23.8626 42.8174 25.5453 42.7738L53.8359 42.0403C55.5185 41.9967 56.8472 40.5973 56.8036 38.9146L56.0701 10.624C56.0265 8.94138 54.6271 7.6127 52.9445 7.65632ZM24.6426 7.95453C22.7196 8.00438 21.2011 9.60371 21.2509 11.5267L21.9844 39.8173C22.0342 41.7404 23.6335 43.2589 25.5566 43.209L53.8472 42.4756C55.7702 42.4257 57.2887 40.8264 57.2388 38.9034L56.5054 10.6127C56.4555 8.68972 54.8562 7.17123 52.9332 7.22108L24.6426 7.95453Z" fill="#292B2E"/>
<path fill-rule="evenodd" clip-rule="evenodd" d="M32.2793 12.4991L27.3284 12.6274C26.6073 12.6461 26.0379 13.2459 26.0565 13.967L26.1849 18.9178C26.2036 19.639 26.8033 20.2084 27.5245 20.1897L32.4753 20.0614C33.1965 20.0427 33.7659 19.4429 33.7472 18.7218L33.6188 13.7709C33.6002 13.0498 33.0004 12.4804 32.2793 12.4991ZM27.3171 12.1922C26.3556 12.2171 25.5964 13.0168 25.6213 13.9783L25.7497 18.9291C25.7746 19.8906 26.5742 20.6499 27.5358 20.625L32.4866 20.4966C33.4481 20.4717 34.2074 19.672 34.1824 18.7105L34.0541 13.7596C34.0292 12.7981 33.2295 12.0389 32.268 12.0638L27.3171 12.1922Z" fill="#292B2E"/>
<path fill-rule="evenodd" clip-rule="evenodd" d="M32.759 31.0065L27.8082 31.1349C27.087 31.1536 26.5176 31.7533 26.5363 32.4744L26.6646 37.4253C26.6833 38.1464 27.2831 38.7159 28.0042 38.6972L32.9551 38.5688C33.6762 38.5501 34.2456 37.9504 34.2269 37.2292L34.0986 32.2784C34.0799 31.5572 33.4801 30.9878 32.759 31.0065ZM27.7969 30.6996C26.8354 30.7245 26.0761 31.5242 26.101 32.4857L26.2294 37.4366C26.2543 38.3981 27.054 39.1573 28.0155 39.1324L32.9664 39.004C33.9279 38.9791 34.6871 38.1795 34.6622 37.2179L34.5338 32.2671C34.5089 31.3056 33.7092 30.5463 32.7477 30.5713L27.7969 30.6996Z" fill="#292B2E"/>
<path fill-rule="evenodd" clip-rule="evenodd" d="M50.7864 12.0193L45.8355 12.1477C45.1144 12.1664 44.5449 12.7661 44.5636 13.4872L44.692 18.4381C44.7107 19.1592 45.3104 19.7287 46.0316 19.71L50.9824 19.5816C51.7035 19.5629 52.273 18.9632 52.2543 18.242L52.1259 13.2912C52.1072 12.5701 51.5075 12.0006 50.7864 12.0193ZM45.8242 11.7124C44.8627 11.7374 44.1035 12.537 44.1284 13.4985L44.2567 18.4494C44.2817 19.4109 45.0813 20.1701 46.0428 20.1452L50.9937 20.0169C51.9552 19.9919 52.7144 19.1923 52.6895 18.2308L52.5612 13.2799C52.5362 12.3184 51.7366 11.5592 50.7751 11.5841L45.8242 11.7124Z" fill="#292B2E"/>
<path fill-rule="evenodd" clip-rule="evenodd" d="M25.8497 22.7869C25.8434 22.5465 26.0332 22.3466 26.2736 22.3404L28.7763 22.2755C29.0166 22.2693 29.2165 22.4591 29.2228 22.6995L29.2989 25.6373L26.3611 25.7135C26.1207 25.7197 25.9208 25.5299 25.9145 25.2896L25.8497 22.7869ZM32.6721 25.5499L32.7482 28.4878C32.7544 28.7281 32.5646 28.9281 32.3243 28.9343L29.8216 28.9992C29.5813 29.0054 29.3813 28.8156 29.3751 28.5752L29.2989 25.6373L32.6721 25.5499ZM32.6721 25.5499L32.5959 22.612C32.5897 22.3716 32.7795 22.1717 33.0198 22.1655L40.5821 21.9694C40.8225 21.9632 41.0224 22.153 41.0287 22.3934L41.0935 24.896C41.0998 25.1364 40.91 25.3363 40.6696 25.3426L39.0102 25.3856C38.7699 25.3918 38.5801 25.5917 38.5863 25.8321L38.6512 28.3347C38.6574 28.5751 38.4676 28.775 38.2272 28.7813L35.7246 28.8461C35.4842 28.8524 35.2843 28.6626 35.2781 28.4222L35.2132 25.9196C35.2069 25.6792 35.007 25.4894 34.7666 25.4956L32.6721 25.5499ZM49.4614 22.1748C49.4552 21.9344 49.2553 21.7446 49.0149 21.7508L46.5123 21.8157C46.2719 21.8219 46.0821 22.0219 46.0883 22.2622L46.1532 24.7649C46.1594 25.0052 45.9696 25.2052 45.7293 25.2114L42.3834 25.2981C42.143 25.3044 41.9532 25.5043 41.9594 25.7447L42.0243 28.2473C42.0305 28.4877 42.2304 28.6775 42.4708 28.6712L47.5033 28.5408C47.7436 28.5345 47.9335 28.3346 47.9272 28.0942L47.8623 25.5916C47.8561 25.3512 48.0459 25.1513 48.2863 25.1451L49.1024 25.1239C49.3427 25.1177 49.5427 25.3075 49.5489 25.5479L49.6356 28.8938C49.6419 29.1342 49.8418 29.324 50.0822 29.3178L52.5848 29.2529C52.8252 29.2466 53.015 29.0467 53.0088 28.8064L52.9001 24.6172C52.8939 24.3768 52.694 24.187 52.4536 24.1932L49.951 24.2581C49.7106 24.2643 49.5107 24.0745 49.5045 23.8341L49.4614 22.1748Z" fill="#292B2E"/>
<path fill-rule="evenodd" clip-rule="evenodd" d="M28.7875 22.7108L26.2849 22.7756L26.3498 25.2783L28.8524 25.2134L28.7875 22.7108ZM32.313 28.4991L32.2481 25.9964L29.7455 26.0613L29.8103 28.5639L32.313 28.4991ZM29.2989 25.6373L32.6721 25.5499L32.7482 28.4878C32.7544 28.7281 32.5646 28.9281 32.3243 28.9343L29.8216 28.9992C29.5813 29.0054 29.3813 28.8156 29.3751 28.5752L29.2989 25.6373ZM32.6721 25.5499L34.7666 25.4956C35.007 25.4894 35.2069 25.6792 35.2132 25.9196L35.2781 28.4222C35.2843 28.6626 35.4842 28.8524 35.7246 28.8461L38.2272 28.7813C38.4676 28.775 38.6574 28.5751 38.6512 28.3347L38.5863 25.8321C38.5801 25.5917 38.7699 25.3918 39.0102 25.3856L40.6696 25.3426C40.91 25.3363 41.0998 25.1364 41.0935 24.896L41.0287 22.3934C41.0224 22.153 40.8225 21.9632 40.5821 21.9694L33.0198 22.1655C32.7795 22.1717 32.5897 22.3716 32.5959 22.612L32.6721 25.5499ZM33.096 25.1034L34.7554 25.0604C35.2361 25.0479 35.6359 25.4275 35.6484 25.9083L35.7133 28.4109L38.2159 28.346L38.151 25.8434C38.1386 25.3626 38.5182 24.9628 38.999 24.9503L40.6583 24.9073L40.5934 22.4047L33.0311 22.6007L33.096 25.1034ZM26.3611 25.7135C26.1207 25.7197 25.9208 25.5299 25.9145 25.2896L25.8497 22.7869C25.8434 22.5465 26.0332 22.3466 26.2736 22.3404L28.7763 22.2755C29.0166 22.2693 29.2165 22.4591 29.2228 22.6995L29.2989 25.6373L26.3611 25.7135ZM49.0262 22.1861L46.5236 22.2509L46.5885 24.7536C46.6009 25.2343 46.2213 25.6342 45.7405 25.6466L42.3946 25.7334L42.4595 28.236L47.492 28.1055L47.4271 25.6029C47.4146 25.1221 47.7943 24.7223 48.275 24.7099L49.0911 24.6887C49.5718 24.6762 49.9717 25.0559 49.9841 25.5366L50.0709 28.8825L52.5735 28.8176L52.4649 24.6284L49.9623 24.6933C49.4815 24.7058 49.0817 24.3262 49.0692 23.8454L49.0262 22.1861ZM49.0149 21.7508C49.2553 21.7446 49.4552 21.9344 49.4614 22.1748L49.5045 23.8341C49.5107 24.0745 49.7106 24.2643 49.951 24.2581L52.4536 24.1932C52.694 24.187 52.8939 24.3768 52.9001 24.6172L53.0088 28.8064C53.015 29.0467 52.8252 29.2466 52.5848 29.2529L50.0822 29.3178C49.8418 29.324 49.6419 29.1342 49.6356 28.8938L49.5489 25.5479C49.5427 25.3075 49.3427 25.1177 49.1024 25.1239L48.2863 25.1451C48.0459 25.1513 47.8561 25.3512 47.8623 25.5916L47.9272 28.0942C47.9335 28.3346 47.7436 28.5345 47.5033 28.5408L42.4708 28.6712C42.2304 28.6775 42.0305 28.4877 42.0243 28.2473L41.9594 25.7447C41.9532 25.5043 42.143 25.3044 42.3834 25.2981L45.7293 25.2114C45.9696 25.2052 46.1594 25.0052 46.1532 24.7649L46.0883 22.2622C46.0821 22.0219 46.2719 21.8219 46.5123 21.8157L49.0149 21.7508Z" fill="#292B2E"/>
<path d="M29.1199 16.0267C29.1137 15.7862 29.3036 15.5863 29.544 15.58L30.3603 15.5589C30.6007 15.5526 30.8007 15.7425 30.8069 15.9829L30.8281 16.7992C30.8343 17.0396 30.6445 17.2396 30.404 17.2458L29.5877 17.267C29.3473 17.2732 29.1473 17.0834 29.1411 16.8429L29.1199 16.0267Z" fill="#292B2E"/>
<path fill-rule="evenodd" clip-rule="evenodd" d="M30.3716 15.9942L29.5553 16.0154L29.5764 16.8317L30.3927 16.8105L30.3716 15.9942ZM29.544 15.58C29.3036 15.5863 29.1137 15.7862 29.1199 16.0267L29.1411 16.8429C29.1473 17.0834 29.3473 17.2732 29.5877 17.267L30.404 17.2458C30.6445 17.2396 30.8343 17.0396 30.8281 16.7992L30.8069 15.9829C30.8007 15.7425 30.6007 15.5526 30.3603 15.5589L29.544 15.58Z" fill="#292B2E"/>
<path d="M29.5999 34.5341C29.5937 34.2937 29.7835 34.0937 30.024 34.0875L30.8403 34.0663C31.0807 34.0601 31.2807 34.2499 31.2869 34.4904L31.3081 35.3067C31.3143 35.5471 31.1244 35.7471 30.884 35.7533L30.0677 35.7745C29.8273 35.7807 29.6273 35.5908 29.6211 35.3504L29.5999 34.5341Z" fill="#292B2E"/>
<path fill-rule="evenodd" clip-rule="evenodd" d="M30.8515 34.5017L30.0353 34.5228L30.0564 35.3391L30.8727 35.3179L30.8515 34.5017ZM30.024 34.0875C29.7835 34.0937 29.5937 34.2937 29.5999 34.5341L29.6211 35.3504C29.6273 35.5908 29.8273 35.7807 30.0677 35.7745L30.884 35.7533C31.1244 35.7471 31.3143 35.5471 31.3081 35.3067L31.2869 34.4904C31.2807 34.2499 31.0807 34.0601 30.8403 34.0663L30.024 34.0875Z" fill="#292B2E"/>
<path d="M47.627 15.5468C47.6208 15.3064 47.8106 15.1064 48.0511 15.1002L48.8674 15.079C49.1078 15.0728 49.3078 15.2626 49.314 15.5031L49.3352 16.3194C49.3414 16.5598 49.1515 16.7598 48.9111 16.766L48.0948 16.7872C47.8544 16.7934 47.6544 16.6035 47.6482 16.3631L47.627 15.5468Z" fill="#292B2E"/>
<path fill-rule="evenodd" clip-rule="evenodd" d="M48.8786 15.5144L48.0624 15.5355L48.0835 16.3518L48.8998 16.3306L48.8786 15.5144ZM48.0511 15.1002C47.8106 15.1064 47.6208 15.3064 47.627 15.5468L47.6482 16.3631C47.6544 16.6035 47.8544 16.7934 48.0948 16.7872L48.9111 16.766C49.1515 16.7598 49.3414 16.5598 49.3352 16.3194L49.314 15.5031C49.3078 15.2626 49.1078 15.0728 48.8674 15.079L48.0511 15.1002Z" fill="#292B2E"/>
<path fill-rule="evenodd" clip-rule="evenodd" d="M42.4484 12.2356C42.4422 11.9952 42.2423 11.8054 42.0019 11.8116L39.4993 11.8765C39.2589 11.8827 39.0691 12.0826 39.0753 12.323L39.1515 15.2609L36.2136 15.337C35.9732 15.3433 35.7834 15.5432 35.7897 15.7836L35.8983 19.9728C35.9045 20.2131 36.1044 20.403 36.3448 20.3967L39.2827 20.3206L42.2205 20.2444C42.4609 20.2382 42.6507 20.0382 42.6445 19.7979L42.5796 17.2952C42.5734 17.0549 42.3735 16.865 42.1331 16.8713L39.6304 16.9362C39.3901 16.9424 39.1902 16.7526 39.1839 16.5122L39.1515 15.2609L42.0894 15.1847C42.3297 15.1785 42.5195 14.9786 42.5133 14.7382L42.4484 12.2356Z" fill="#292B2E"/>
<path fill-rule="evenodd" clip-rule="evenodd" d="M42.0132 12.2468L39.5106 12.3117L39.5754 14.8144L42.0781 14.7495L42.0132 12.2468ZM39.1515 15.2609L42.0894 15.1847C42.3297 15.1785 42.5195 14.9786 42.5133 14.7382L42.4484 12.2356C42.4422 11.9952 42.2423 11.8054 42.0019 11.8116L39.4993 11.8765C39.2589 11.8827 39.0691 12.0826 39.0753 12.323L39.1515 15.2609L36.2136 15.337C35.9732 15.3433 35.7834 15.5432 35.7897 15.7836L35.8983 19.9728C35.9045 20.2131 36.1044 20.403 36.3448 20.3967L42.2205 20.2444C42.4609 20.2382 42.6507 20.0382 42.6445 19.7979L42.5796 17.2952C42.5734 17.0549 42.3735 16.865 42.1331 16.8713L39.6304 16.9362C39.3901 16.9424 39.1902 16.7526 39.1839 16.5122L39.1515 15.2609ZM38.7275 15.7074L36.2249 15.7723L36.3335 19.9615L42.2092 19.8091L42.1444 17.3065L39.6417 17.3714C39.161 17.3839 38.7611 17.0042 38.7487 16.5235L38.7275 15.7074Z" fill="#292B2E"/>
<path d="M37.7695 36.329C37.7872 36.4772 37.8397 36.6175 37.9267 36.75C38.0138 36.8825 38.128 36.9887 38.2695 37.0686C38.4154 37.1438 38.5766 37.1791 38.753 37.1746C38.9759 37.1688 39.1579 37.1106 39.299 37.0001C39.4448 36.8895 39.5414 36.7639 39.5889 36.6233L40.2978 36.8209C40.1988 37.1208 40.0193 37.367 39.7595 37.5596C39.5043 37.752 39.1748 37.8535 38.7709 37.864C38.4413 37.8725 38.1398 37.8014 37.8664 37.6505C37.5977 37.4995 37.3808 37.2868 37.2158 37.0123C37.0553 36.7377 36.9705 36.424 36.9614 36.0712C36.9525 35.7276 37.021 35.4146 37.167 35.1321C37.3176 34.8494 37.5232 34.6258 37.7837 34.4611C38.0488 34.2916 38.3438 34.2026 38.6688 34.1942C38.9984 34.1857 39.2882 34.2548 39.5383 34.4016C39.7928 34.5437 39.9909 34.7476 40.1325 35.0134C40.2741 35.2792 40.3495 35.5885 40.3587 35.9413L40.367 36.2616L37.7695 36.329ZM39.6122 35.6401C39.5999 35.5243 39.5574 35.4069 39.4846 35.288C39.4118 35.1691 39.3071 35.072 39.1704 34.9965C39.0383 34.9163 38.8793 34.8786 38.6936 34.8834C38.429 34.8903 38.2151 34.9725 38.052 35.13C37.8933 35.2828 37.7959 35.4688 37.7598 35.6881L39.6122 35.6401Z" fill="#292B2E"/>
<path d="M42.8059 37.7524C42.3231 37.7649 41.9161 37.657 41.585 37.4287C41.2586 37.2002 41.0315 36.8623 40.9037 36.415L41.6916 36.1646C41.7874 36.4548 41.9184 36.6674 42.0845 36.8025C42.2504 36.9329 42.4843 36.9942 42.7861 36.9864C43.0693 36.979 43.2952 36.9128 43.4639 36.7876C43.6371 36.6623 43.7209 36.4883 43.7151 36.2654C43.7105 36.089 43.6371 35.9446 43.4948 35.8321C43.3525 35.7197 43.1019 35.6379 42.7428 35.5868C42.169 35.4948 41.7352 35.3365 41.4413 35.1119C41.1475 34.8872 40.9953 34.5729 40.9849 34.169C40.9776 33.8905 41.0432 33.6402 41.1814 33.4183C41.3243 33.1962 41.5242 33.0215 41.7811 32.894C42.0378 32.7619 42.3333 32.6916 42.6676 32.6829C43.1132 32.6713 43.4853 32.7778 43.7838 33.0024C44.0823 33.2269 44.2904 33.5491 44.4082 33.9688L43.6201 34.2122C43.5436 33.9494 43.4317 33.7548 43.2844 33.6286C43.1417 33.5022 42.9428 33.4423 42.6874 33.4489C42.4228 33.4558 42.2131 33.5193 42.0582 33.6394C41.9034 33.7596 41.8288 33.9288 41.8344 34.147C41.8391 34.328 41.9216 34.463 42.0819 34.5517C42.2468 34.6403 42.5112 34.7171 42.8753 34.782C43.4446 34.8787 43.8646 35.0444 44.1355 35.2789C44.4109 35.5087 44.554 35.8302 44.5647 36.2434C44.5722 36.5312 44.4999 36.7886 44.3478 37.0156C44.1957 37.2425 43.9843 37.4199 43.7135 37.5477C43.4427 37.6755 43.1402 37.7437 42.8059 37.7524Z" fill="#292B2E"/>
<path d="M45.2438 32.7206L46.0934 32.6986L46.2198 37.5733L45.3702 37.5953L45.2438 32.7206Z" fill="#292B2E"/>
<path d="M52.345 37.4145L51.5024 37.4363L51.4168 34.1355L50.0957 37.4728L49.4968 37.4883L48.0121 34.2447L48.0901 37.5248L47.2475 37.5467L47.1211 32.672L48.0752 32.6472L49.7667 36.3385L51.2646 32.5645L52.2187 32.5398L52.345 37.4145Z" fill="#292B2E"/>
<mask id="path-36-inside-1_22_4326" fill="white">
<path d="M13.0105 47.2094C13.2286 47.0392 13.4445 46.8712 13.6582 46.7053C40.5378 25.8464 32.8516 39.8653 32.8516 39.8653C32.8516 39.8653 26.3278 51.6108 21.8693 58.5891"/>
</mask>
<path d="M13.0105 47.2094C13.2286 47.0392 13.4445 46.8712 13.6582 46.7053C40.5378 25.8464 32.8516 39.8653 32.8516 39.8653C32.8516 39.8653 26.3278 51.6108 21.8693 58.5891" fill="white"/>
<path d="M12.774 46.9063C12.6066 47.0369 12.5768 47.2784 12.7074 47.4458C12.8381 47.6132 13.0796 47.643 13.247 47.5124L13.0105 47.2094L12.774 46.9063ZM32.8516 39.8653L33.1876 40.0519L33.1886 40.0501L32.8516 39.8653ZM21.5454 58.3822C21.4311 58.561 21.4835 58.7987 21.6624 58.913C21.8413 59.0273 22.079 58.975 22.1932 58.7961L21.8693 58.5891L21.5454 58.3822ZM13.6582 46.7053L13.894 47.009L13.6582 46.7053ZM32.8516 39.8653C32.5155 39.6786 32.5155 39.6786 32.5154 39.6787C32.5154 39.6788 32.5153 39.6789 32.5152 39.6791C32.515 39.6795 32.5147 39.68 32.5143 39.6807C32.5136 39.6821 32.5124 39.6842 32.5108 39.687C32.5077 39.6927 32.503 39.7011 32.4968 39.7123C32.4843 39.7347 32.4658 39.768 32.4414 39.8118C32.3926 39.8994 32.3204 40.0288 32.227 40.1961C32.04 40.5305 31.768 41.0163 31.4276 41.621C30.7467 42.8304 29.7925 44.5157 28.6991 46.4188C26.5113 50.2267 23.7695 54.9011 21.5454 58.3822L21.8693 58.5891L22.1932 58.7961C24.4277 55.2989 27.177 50.6113 29.3657 46.8018C30.4605 44.8963 31.4159 43.209 32.0975 41.9981C32.4384 41.3927 32.7108 40.9062 32.8981 40.5711C32.9917 40.4036 33.0641 40.2738 33.113 40.186C33.1375 40.142 33.1561 40.1085 33.1686 40.086C33.1749 40.0748 33.1796 40.0663 33.1828 40.0606C33.1844 40.0577 33.1856 40.0556 33.1864 40.0541C33.1868 40.0534 33.1871 40.0529 33.1873 40.0525C33.1874 40.0523 33.1875 40.0522 33.1875 40.0521C33.1876 40.052 33.1876 40.0519 32.8516 39.8653ZM13.0105 47.2094L13.247 47.5124C13.4648 47.3424 13.6805 47.1746 13.894 47.009L13.6582 46.7053L13.4225 46.4017C13.2085 46.5678 12.9923 46.736 12.774 46.9063L13.0105 47.2094ZM13.6582 46.7053L13.894 47.009C20.6083 41.7986 25.1471 38.7798 28.1769 37.1764C29.693 36.3741 30.8139 35.9357 31.6292 35.7493C32.4549 35.5605 32.9003 35.6451 33.1313 35.7893C33.3425 35.921 33.4633 36.161 33.4821 36.5482C33.5011 36.9385 33.4099 37.4116 33.2648 37.8888C33.1213 38.3607 32.9335 38.8096 32.7801 39.1429C32.7037 39.3089 32.6366 39.4446 32.5888 39.5384C32.565 39.5852 32.546 39.6214 32.5331 39.6456C32.5267 39.6577 32.5219 39.6668 32.5187 39.6727C32.5171 39.6756 32.516 39.6777 32.5153 39.679C32.5149 39.6797 32.5147 39.6801 32.5145 39.6804C32.5145 39.6805 32.5145 39.6805 32.5144 39.6806C32.5144 39.6805 32.5145 39.6804 32.8516 39.8653C33.1886 40.0501 33.1887 40.0499 33.1889 40.0496C33.1889 40.0495 33.1891 40.0492 33.1893 40.0489C33.1896 40.0483 33.1901 40.0474 33.1906 40.0464C33.1918 40.0443 33.1933 40.0414 33.1953 40.0377C33.1994 40.0302 33.2051 40.0195 33.2124 40.0057C33.227 39.9782 33.2479 39.9382 33.2738 39.8875C33.3255 39.786 33.3972 39.641 33.4785 39.4644C33.6405 39.1124 33.8432 38.6292 34.0003 38.1126C34.1557 37.6016 34.2753 37.0302 34.25 36.511C34.2246 35.9887 34.0462 35.4541 33.5382 35.1372C33.05 34.8326 32.3562 34.7945 31.4577 34.9999C30.5488 35.2077 29.3604 35.6803 27.8172 36.497C24.7282 38.1317 20.148 41.1827 13.4225 46.4017L13.6582 46.7053Z" fill="#292B2E" mask="url(#path-36-inside-1_22_4326)"/>
</g>
<defs>
<clipPath id="clip0_22_4326">
<rect width="65.0169" height="79.2542" rx="11.3898" fill="white"/>
</clipPath>
</defs>
</svg>
