<svg xmlns="http://www.w3.org/2000/svg" id="Layer_1" viewBox="0 0 184 100"><defs><style>.cls-1,.cls-2{fill:#56575a;stroke-width:0px;}.cls-2{fill-rule:evenodd;}</style></defs><g id="layer1"><g id="g8033"><g id="g8035"><path id="path8037" class="cls-2" d="M105.35,43.78h-3.67c.06.82.57,1.23,1.54,1.23.62,0,1.16-.15,1.63-.44v1.25c-.52.28-1.2.42-2.03.42-.91,0-1.61-.25-2.12-.76-.5-.5-.75-1.2-.75-2.1s.27-1.67.81-2.22c.54-.55,1.21-.82,2-.82s1.46.24,1.9.73c.45.49.67,1.15.67,1.98v.73ZM103.74,42.71c0-.8-.33-1.2-.98-1.2-.28,0-.52.11-.72.34-.2.23-.33.52-.37.86h2.07ZM111.27,46.1h-1.73v-.86h-.03c-.43.66-1,.99-1.72.99-1.3,0-1.96-.79-1.96-2.36v-3.39h1.73v3.24c0,.79.32,1.19.94,1.19.31,0,.56-.11.75-.33.19-.22.28-.51.28-.89v-3.22h1.73v5.62ZM115.61,42.04c-.21-.11-.45-.17-.73-.17-.38,0-.67.14-.89.41-.21.28-.32.65-.32,1.13v2.69h-1.73v-5.62h1.73v1.04h.02c.27-.76.77-1.14,1.48-1.14.18,0,.33.02.43.07v1.6ZM118.86,46.23c-.94,0-1.68-.26-2.21-.79-.54-.52-.8-1.24-.8-2.14s.28-1.66.84-2.18c.56-.52,1.31-.79,2.26-.79s1.67.26,2.2.79c.53.52.8,1.22.8,2.08,0,.93-.27,1.67-.82,2.21-.55.54-1.3.81-2.25.81ZM118.91,41.67c-.41,0-.73.14-.96.42-.23.28-.34.68-.34,1.2,0,1.08.44,1.62,1.31,1.62s1.25-.55,1.25-1.66-.42-1.58-1.26-1.58"></path></g></g><g id="g8023"><g id="g8025"><path id="path8027" class="cls-2" d="M92.73,58.53c-.53.28-1.33.42-2.39.42-2.53,0-3.79-1.31-3.79-3.93v-5.31h-1.88v-2.65h1.88v-2.51l3.58-1.02v3.53h2.6v2.65h-2.6v4.69c0,1.21.48,1.81,1.44,1.81.38,0,.77-.11,1.17-.33v2.65ZM86.43,58.67h-4.41l-1.26-4h-6.43l-1.24,4h-4.39l6.54-17.93h4.8l6.39,17.93ZM79.83,51.58l-2.19-7.68-2.43,7.68h4.62ZM97.56,58.67h-3.58v-17.97h3.58v17.97ZM109.01,58.67h-3.39v-1.67h-.05c-.78,1.3-1.93,1.95-3.46,1.95-1.13,0-2.01-.32-2.66-.96-.65-.64-.97-1.49-.97-2.55,0-2.25,1.34-3.55,4.01-3.9l3.15-.42c0-1.27-.69-1.9-2.07-1.9s-2.7.41-3.95,1.23v-2.69c.5-.26,1.18-.48,2.05-.68.87-.2,1.66-.29,2.37-.29,3.32,0,4.97,1.65,4.97,4.95v6.93ZM105.64,53.96v-.79l-2.11.27c-1.17.15-1.75.68-1.75,1.58,0,.41.14.74.43,1.01.28.26.67.39,1.15.39.67,0,1.22-.23,1.65-.7.42-.46.64-1.05.64-1.76h0ZM118.26,58.67v-6.45c0-1.8-.64-2.7-1.93-2.7-.62,0-1.13.24-1.53.72-.4.48-.6,1.08-.6,1.81v6.62h-3.58v-11.61h3.58v1.84h.05c.86-1.41,2.1-2.12,3.74-2.12,2.58,0,3.86,1.59,3.86,4.78v7.1h-3.58ZM130.45,58.53c-.53.28-1.33.42-2.39.42-2.53,0-3.79-1.31-3.79-3.93v-5.31h-1.88v-2.65h1.88v-2.51l3.58-1.02v3.53h2.6v2.65h-2.6v4.69c0,1.21.48,1.81,1.44,1.81.38,0,.77-.11,1.17-.33v2.65ZM133.52,45.24c-.6,0-1.1-.18-1.49-.54-.39-.36-.58-.8-.58-1.32s.19-.98.58-1.32c.38-.34.88-.51,1.49-.51s1.11.17,1.5.51.57.78.57,1.32-.19.99-.57,1.34c-.38.35-.88.52-1.5.52ZM135.28,58.67h-3.58v-11.61h3.58v11.61ZM145.88,58.25c-.81.47-1.98.7-3.51.7-1.79,0-3.23-.54-4.34-1.62-1.1-1.08-1.66-2.47-1.66-4.18,0-1.97.59-3.52,1.78-4.66,1.18-1.14,2.77-1.71,4.75-1.71,1.37,0,2.36.18,2.97.54v3.04c-.75-.56-1.58-.84-2.51-.84-1.03,0-1.84.3-2.44.9-.6.6-.9,1.43-.9,2.49s.29,1.83.86,2.42c.57.58,1.36.88,2.37.88.9,0,1.77-.28,2.62-.84v2.88Z"></path></g></g><g id="g8029"><path id="path8031" class="cls-1" d="M115.82,71.04h-1.59v-.78h-.02c-.36.61-.9.91-1.62.91-.53,0-.94-.15-1.24-.45-.3-.3-.45-.7-.45-1.19,0-1.05.62-1.66,1.87-1.82l1.47-.2c0-.59-.32-.89-.97-.89s-1.26.19-1.85.57v-1.26c.23-.12.55-.23.96-.32.41-.09.77-.14,1.11-.14,1.55,0,2.32.77,2.32,2.31v3.24ZM114.24,68.84v-.37l-.99.13c-.54.07-.82.32-.82.74,0,.19.07.35.2.47.13.12.31.18.54.18.31,0,.57-.11.77-.33.2-.22.3-.49.3-.83ZM118.07,71.04h-1.67v-5.43h1.67v5.43ZM122.29,67.13c-.2-.11-.44-.16-.71-.16-.36,0-.65.13-.86.4-.2.27-.31.63-.31,1.09v2.59h-1.67v-5.43h1.67v1.01h.02c.26-.74.74-1.1,1.43-1.1.18,0,.32.02.41.06v1.54ZM131.17,65.62l-1.56,5.43h-1.76l-.8-3.18c-.05-.21-.08-.44-.09-.69h-.03c-.03.28-.06.5-.1.67l-.86,3.2h-1.74l-1.53-5.43h1.71l.75,3.54c.04.17.06.37.08.6h.03c.02-.25.05-.46.09-.63l.93-3.52h1.6l.84,3.54c.02.09.05.29.07.61h.04c.02-.2.05-.41.08-.61l.71-3.54h1.55ZM135.96,71.04h-1.59v-.78h-.02c-.36.61-.9.91-1.62.91-.53,0-.94-.15-1.24-.45-.3-.3-.45-.7-.45-1.19,0-1.05.62-1.66,1.87-1.82l1.47-.2c0-.59-.32-.89-.97-.89s-1.26.19-1.85.57v-1.26c.23-.12.55-.23.96-.32.41-.09.78-.14,1.11-.14,1.55,0,2.33.77,2.33,2.31v3.24ZM134.39,68.84v-.37l-.99.13c-.54.07-.82.32-.82.74,0,.19.07.35.2.47.13.12.31.18.54.18.32,0,.57-.11.77-.33.2-.22.3-.49.3-.83ZM141.93,65.62l-2.21,5.86c-.53,1.41-1.33,2.11-2.4,2.11-.41,0-.74-.04-1-.14v-1.34c.22.13.47.2.73.2.43,0,.73-.2.9-.61l.29-.67-2.21-5.42h1.86l1.01,3.3c.06.21.11.45.15.73h.02c.03-.2.09-.44.17-.72l1.03-3.31h1.66ZM142.05,70.9v-1.36c.28.16.55.29.83.37.27.08.53.12.78.12.3,0,.53-.04.7-.12.17-.08.26-.2.26-.37,0-.11-.04-.19-.12-.26-.08-.07-.18-.13-.3-.19-.12-.05-.25-.1-.4-.14-.15-.04-.29-.09-.42-.14-.22-.08-.41-.17-.57-.26-.16-.09-.3-.2-.41-.33-.11-.12-.2-.27-.26-.43-.06-.16-.09-.35-.09-.58,0-.3.07-.56.2-.78.13-.22.31-.4.53-.54.22-.14.48-.24.76-.31s.58-.1.89-.1c.24,0,.49.02.73.06.25.04.49.09.73.16v1.29c-.21-.12-.44-.21-.68-.28-.24-.06-.48-.09-.72-.09-.11,0-.21,0-.31.03-.1.02-.18.05-.26.09-.07.04-.13.08-.18.14-.04.06-.06.12-.06.2,0,.1.03.18.1.25s.15.13.25.18c.1.05.22.1.34.14.12.04.25.08.37.12.22.08.43.16.6.25.18.09.34.2.47.32.13.12.23.27.3.43.07.17.1.36.1.59,0,.32-.07.6-.21.82-.14.23-.33.41-.56.56-.23.14-.5.25-.8.31-.3.06-.62.1-.94.1-.6,0-1.15-.09-1.66-.27"></path></g><path id="path9116" class="cls-1" d="M118.15,63.57c0,.52-.42.94-.94.94h0c-.52,0-.94-.42-.94-.94h0c0-.52.42-.94.94-.94s.94.42.94.94Z"></path><g id="g9159"><g id="g8039"><g id="g8041"><path id="path8043" class="cls-2" d="M73.58,32.83c-13.1.93-13.35,6.07-19.21,7.8-.34.1-.8.34-1.17.36-.25.02-.51.04-.77.08l5.69-7.11c4.27-4.6,8.41-7.51,12.31-7.56h5.44l-2.29,6.42Z"></path></g></g><g id="g8045"><g id="g8047"><path id="path8049" class="cls-2" d="M50.34,43.68c6.09.34,8.67-4.09,15.48-6.81,2.72-1.08,5.43-1.4,6.92-1.49l-3.96,11.14c-8.46.33-7.96,3.69-12.16,4.95-1.44.43-3.04.11-5.75-.06-5.06-.32-9.37,7.46-12.69,7.46l12.16-15.18Z"></path></g></g><g id="g8051"><g id="g8053"><path id="path8055" class="cls-2" d="M46.38,55.99c5.3-5.02,8.79-.4,12.35-2.66,3.55-2.26,4-3.94,7.45-4.02.84-.02,1.38,0,1.71.03l-3.32,9.52h-22.04c1.31-.88,2.68-1.76,3.85-2.87"></path></g></g></g></g></svg>