<svg xmlns="http://www.w3.org/2000/svg" id="Layer_1" viewBox="0 0 184 100"><defs><style>.cls-1{fill:#56575a;stroke-width:0px;}</style></defs><g id="_&#x30EC;&#x30A4;&#x30E4;&#x30FC;_1-2"><path class="cls-1" d="M78.52,46.93c.36.6.71,1.37.87,1.91l-.9.43c-.03-.12-.07-.27-.12-.42-1.29.09-2.63.17-3.6.22l.05-.84c.23-.01.49-.02.77-.03.45-.63.94-1.45,1.25-2.12l.91.23c-.38.64-.83,1.31-1.24,1.86.5-.02,1.04-.05,1.57-.08-.12-.28-.26-.56-.39-.81l.83-.35h0ZM77.45,44.45c-.49.85-1.21,1.7-1.84,2.21-.14-.17-.47-.46-.67-.59.62-.42,1.25-1.14,1.64-1.87l.87.25ZM78.91,44.21c.19.6.65,1.3,1.06,1.76-.24.16-.6.48-.79.69-.41-.57-.86-1.39-1.13-2.14l.85-.32h0Z"></path><path class="cls-1" d="M84.67,45.9c.28.46.71.87,1.2,1.12-.21.15-.5.44-.65.64-.09-.05-.18-.12-.27-.18l-.16.92h.69l-.12.69h-4.98l.12-.69h.71l.15-.86c-.08.05-.17.11-.25.16-.1-.16-.35-.47-.5-.61.55-.27,1.08-.69,1.5-1.17h-1.12l.12-.69h1.24c-.08-.25-.21-.54-.33-.77l.73-.3c.18.28.36.66.43.91l-.33.15h1.45l-.34-.12c.24-.27.53-.68.7-1l.8.25c-.25.33-.52.64-.74.87h1.27l-.12.69h-1.21,0ZM82.27,47.64h-.24l-.13.75h.24l.13-.75ZM84.44,46.98c-.27-.31-.49-.68-.66-1.08h-.74c-.29.39-.63.76-.99,1.08h2.38ZM83.23,47.64h-.25l-.13.75h.25l.13-.75ZM84.05,48.38l.13-.75h-.25l-.13.75h.25Z"></path><path class="cls-1" d="M88.5,47.81c-.07-.14-.18-.31-.29-.48l-.34,1.93h-.78l.31-1.75c-.22.17-.44.31-.66.43-.03-.21-.14-.61-.23-.76.61-.29,1.23-.8,1.66-1.37h-1.21l.12-.71h.73l.18-.99h.78l-.18.99h.12l.14-.03.39.29c-.22.41-.5.8-.81,1.15.22.21.55.56.64.67l-.59.64h0ZM91.6,48.32l-.14.78h-3.1l.14-.78h1.19l.32-1.84h-.96l.13-.76h.96l.28-1.57h.81l-.28,1.57h.97l-.13.76h-.97l-.32,1.84h1.1Z"></path><path class="cls-1" d="M98.01,44.31l-.87,4.92h-.82l.04-.21h-3.1l-.04.21h-.79l.87-4.92h4.71ZM96.49,48.27l.57-3.21h-3.1l-.57,3.21h3.1ZM96.7,46.28h-.53l-.21,1.2c-.06.33-.15.51-.38.61-.23.1-.51.11-.89.11,0-.19-.03-.47-.08-.66.19.01.45.01.52.01.07,0,.1-.02.11-.09l.21-1.19h-1.56l.12-.66h1.56l.08-.45h.73l-.08.45h.53l-.12.66h0ZM94.59,46.32c.18.25.37.59.42.83l-.64.33c-.04-.24-.2-.6-.38-.86l.59-.3Z"></path><path class="cls-1" d="M100.15,47.48c-.36.57-.76,1.16-1.16,1.69l-.59-.51c.34-.41.83-1.06,1.25-1.69l.51.51h0ZM99.6,46.73c-.17-.18-.58-.43-.9-.58l.51-.6c.32.12.74.34.94.51l-.55.66ZM100.17,45.3c-.17-.2-.57-.46-.89-.61l.54-.58c.32.13.73.36.93.55l-.58.64h0ZM102.65,49.25c-.02-.12-.05-.27-.09-.42-.96.09-1.96.16-2.71.22l.04-.8.39-.02c.23-.38.48-.86.67-1.28h-.83l.13-.75h1.34l.12-.64h-1.07l.13-.75h1.07l.13-.72h.82l-.13.72h1.12l-.13.75h-1.12l-.12.64h1.38l-.13.75h-1.84l.06.02c-.24.42-.5.86-.74,1.23.37-.02.76-.04,1.16-.07-.09-.18-.18-.37-.28-.53l.75-.36c.31.48.63,1.12.71,1.6l-.83.41h0Z"></path><path class="cls-1" d="M107.96,44.2c-.02.1-.05.22-.08.36-.09.78-.23,3.01,1.62,3.97-.29.19-.57.46-.73.67-1.05-.59-1.48-1.6-1.64-2.55-.47.91-1.2,1.87-2.37,2.55-.11-.21-.31-.45-.56-.64,2.38-1.25,2.69-3.66,2.85-4.37h.91Z"></path><path class="cls-1" d="M115.5,44.4l-.84,4.79h-.85l.06-.36h-2.25l-.06.36h-.81l.84-4.79h3.92ZM114.01,48.03l.19-1.06h-2.25l-.19,1.06h2.25ZM112.26,45.19l-.18.99h2.25l.18-.99h-2.25Z"></path><path class="cls-1" d="M120.12,45.9c.28.75.8,1.44,1.47,1.85-.22.16-.57.49-.74.72-.26-.2-.5-.43-.71-.7l-.11.62h-.82l-.15.86h-.84l.15-.86h-.86l.1-.56c-.28.25-.59.47-.9.66-.1-.2-.31-.5-.46-.66.81-.41,1.56-1.14,2.1-1.93h-1.53l.14-.8h1.99l.18-1.01h.84l-.18,1.01h2.01l-.14.8h-1.54ZM118.52,47.58l.16-.92c-.25.33-.51.64-.8.92h.64ZM120.01,47.58c-.19-.28-.35-.6-.49-.93l-.16.93h.66,0Z"></path><path class="cls-1" d="M126.98,45.55c-.22.51-.59,1.34-1.17,1.96-.61.66-1.47,1.22-2.48,1.53l-.58-.79c1.13-.25,1.83-.72,2.35-1.25.42-.43.7-.97.84-1.4h-2.39c-.27,0-.57.02-.71.03l.16-.93c.16.02.52.05.7.05h2.39c.12,0,.33,0,.51-.05l.58.42c-.08.12-.16.31-.22.43h0Z"></path><path class="cls-1" d="M129.02,45.75h2.47c.13,0,.31-.01.45-.03l-.15.82c-.15-.01-.32-.02-.44-.02h-.85l-.28,1.61h1.1c.16,0,.33-.02.45-.04l-.15.86c-.12-.02-.33-.03-.43-.03h-2.99c-.14,0-.33,0-.48.03l.15-.86c.14.02.32.04.47.04h1.02l.28-1.61h-.75c-.14,0-.34.01-.47.02l.15-.82c.12.02.32.03.45.03h0Z"></path><path class="cls-1" d="M135.19,47.46c1.07-.56,1.96-1.4,2.46-2.17l.35.93c-.57.77-1.47,1.53-2.47,2.06-.61.33-1.37.61-2.07.72l-.41-.87c.82-.11,1.56-.35,2.14-.66h0ZM135.69,45.69l-.79.69c-.23-.31-.81-.91-1.15-1.19l.74-.67c.33.25.94.82,1.2,1.17h0Z"></path><path class="cls-1" d="M140.69,47.6c1.02-.51,1.94-1.28,2.51-2.06l.35.9c-.66.77-1.55,1.44-2.54,1.96-.61.31-1.46.59-1.93.67l-.34-.87c.63-.1,1.29-.27,1.96-.6ZM140.58,46.39l-.61.74c-.29-.23-.78-.59-1.12-.79l.61-.73c.35.21.87.57,1.13.78h0ZM141.64,45.14l-.62.73c-.29-.22-.78-.57-1.12-.78l.61-.73c.34.21.86.57,1.13.78h0Z"></path><path class="cls-1" d="M146.27,47.46c1.07-.56,1.96-1.4,2.46-2.17l.35.93c-.57.77-1.47,1.53-2.47,2.06-.61.33-1.37.61-2.07.72l-.41-.87c.82-.11,1.56-.35,2.14-.66h0ZM146.77,45.69l-.79.69c-.23-.31-.81-.91-1.15-1.19l.74-.67c.33.25.94.82,1.2,1.17h0Z"></path><path class="cls-1" d="M154.55,44.97l-.45.17.49.34c-.09.12-.21.28-.29.45-.23.45-.64,1.17-1.25,1.78-.64.64-1.38,1.14-2.48,1.56l-.66-.69c1.24-.36,1.88-.82,2.43-1.34.41-.38.82-1.01.96-1.36h-1.35c-.47.48-1.04.95-1.6,1.3l-.64-.55c1.06-.59,1.62-1.24,1.99-1.7.12-.15.3-.43.4-.64l.91.31c-.15.17-.32.4-.43.54h.87c.16,0,.36-.02.51-.06-.07-.21-.15-.47-.25-.65l.54-.21c.1.2.23.55.29.74h0ZM155.27,44.71l-.55.22c-.07-.22-.19-.54-.3-.75l.54-.21c.11.21.24.55.3.74h0Z"></path><path class="cls-1" d="M160.41,46.91s-.03.17-.05.25c-.24,1.19-.35,1.69-.5,1.86-.12.14-.23.18-.36.21-.12.03-.29.03-.47.03.02-.18,0-.42-.04-.59-.15.21-.32.4-.53.57-.05-.14-.17-.34-.29-.46-.04.12-.08.2-.12.25-.12.14-.22.18-.35.21-.12.03-.28.03-.47.03.02-.18.01-.41-.04-.57-.15.22-.31.41-.53.59-.05-.15-.2-.38-.33-.49.38-.31.58-.73.74-1.29h-.34l.1-.59h.38c.03-.15.06-.3.09-.47h.27c-.05-.15-.16-.34-.25-.47l-.03.16h-.51l-.55,3.12h-.75l.55-3.12h-.55l.12-.71h.55l.23-1.32h.75l-.23,1.32h.51l-.08.49c.51-.17.82-.4,1.04-.69h-.71l.11-.62h.9c.05-.15.09-.32.14-.5h.73c-.04.18-.09.34-.14.5h1.28s-.04.17-.07.25c-.19.77-.33,1.14-.49,1.3-.14.14-.29.18-.46.2-.15.02-.38.03-.64.02.02-.21,0-.48-.08-.65.2.02.39.02.49.02.08,0,.13,0,.18-.05.06-.05.13-.19.21-.47h-.67c-.29.53-.73.92-1.48,1.22h.3c-.03.16-.06.32-.1.47h.71s-.03.16-.05.24c-.14.75-.24,1.23-.33,1.52.33-.3.52-.68.66-1.17h-.3l.1-.59h.35c.03-.16.07-.33.1-.5h.67c-.04.17-.07.34-.1.5h.74ZM157.71,47.49c-.13.45-.29.83-.51,1.16.1.01.17.02.23.02.05,0,.09-.02.14-.07.06-.07.13-.35.28-1.1h-.14,0ZM159.52,47.49c-.13.44-.3.81-.51,1.14.1.01.17.01.23.01.05,0,.09-.02.14-.07.06-.07.13-.35.28-1.08h-.14Z"></path><path class="cls-1" d="M164.94,47.48c.38.41.74.93.91,1.32l-.82.45c-.03-.1-.08-.21-.14-.32-1.26.07-2.58.13-3.52.17l.03-.77c.25,0,.53-.02.84-.03.16-.25.33-.55.46-.82h-1.17l.13-.73h4.52l-.13.73h-1.12,0ZM162.79,46.02c-.31.19-.64.37-.98.51-.06-.19-.22-.49-.35-.66,1-.39,1.98-1.16,2.48-1.77h.84c.44.8,1.15,1.37,1.96,1.65-.23.2-.45.48-.64.72-.26-.13-.53-.3-.79-.49l-.08.45h-2.52l.07-.4h0ZM163.69,47.48c-.18.27-.37.54-.55.79.43-.02.88-.03,1.33-.05-.11-.16-.23-.31-.35-.45l.63-.3h-1.06ZM164.98,45.7c-.31-.27-.56-.56-.72-.85-.25.28-.59.57-.98.85h1.7,0Z"></path><path class="cls-1" d="M76.76,53.5h-1.42l-.27,1.54h-.45l.61-3.49h2.1l-.07.38h-1.65l-.21,1.2h1.42l-.07.38Z"></path><path class="cls-1" d="M78.77,55.08c-.32,0-.58-.12-.76-.36-.18-.23-.26-.53-.23-.89v-.1c.04-.26.12-.49.24-.71.12-.21.28-.37.46-.48.18-.11.38-.16.58-.15.27,0,.48.09.63.27.15.17.24.4.25.69,0,.1,0,.21,0,.31l-.03.2h-1.69c-.03.24,0,.43.12.6s.26.25.48.26c.25,0,.49-.11.71-.35l.25.21c-.11.16-.25.28-.42.37-.17.09-.36.13-.57.13h0ZM79.05,52.76c-.18,0-.34.05-.47.18s-.24.31-.32.56h1.26v-.04c.03-.2,0-.37-.09-.5s-.22-.2-.39-.21h0Z"></path><path class="cls-1" d="M80.81,53.74c.03-.26.11-.5.22-.71.12-.21.25-.37.42-.48.17-.11.35-.15.55-.15.29,0,.51.11.67.31l.25-1.35h.43l-.64,3.68h-.39l.05-.28c-.2.22-.46.33-.76.33-.24,0-.43-.1-.57-.28s-.22-.42-.23-.73c0-.09,0-.21.01-.34h0ZM81.23,53.98c0,.23.04.41.12.53.08.13.21.19.38.19.25.01.47-.12.67-.38l.21-1.2c-.1-.24-.27-.36-.52-.36-.17,0-.32.05-.45.15s-.23.26-.3.45-.1.4-.1.61h0Z"></path><path class="cls-1" d="M85,55.08c-.32,0-.58-.12-.76-.36-.18-.23-.26-.53-.23-.89v-.1c.04-.26.12-.49.24-.71.12-.21.28-.37.46-.48.18-.11.38-.16.58-.15.27,0,.48.09.63.27.15.17.24.4.25.69,0,.1,0,.21,0,.31l-.03.2h-1.69c-.03.24,0,.43.12.6s.26.25.48.26c.25,0,.49-.11.71-.35l.25.21c-.11.16-.25.28-.42.37-.17.09-.36.13-.57.13h0ZM85.28,52.76c-.18,0-.34.05-.47.18s-.24.31-.32.56h1.26v-.04c.03-.2,0-.37-.09-.5s-.22-.2-.39-.21h0Z"></path><path class="cls-1" d="M88.53,52.84l-.2-.02c-.28,0-.5.12-.66.38l-.32,1.84h-.43l.45-2.59h.42l-.06.3c.18-.24.4-.36.65-.35.05,0,.12.01.21.04l-.05.41Z"></path><path class="cls-1" d="M90.53,55.03s-.02-.09-.02-.14v-.14c-.23.22-.48.33-.75.32-.23,0-.41-.08-.56-.22s-.21-.32-.19-.53c.02-.28.14-.49.36-.64.22-.15.52-.23.88-.23h.45l.03-.2c.02-.15-.02-.28-.09-.37-.08-.09-.19-.14-.34-.14-.15,0-.28.03-.39.11s-.18.18-.21.3h-.44c.02-.15.07-.28.18-.4s.24-.21.4-.27c.16-.06.33-.09.51-.09.27,0,.48.09.63.25.15.16.21.37.19.63l-.21,1.28v.18c-.02.09,0,.18.02.26v.04h-.45.01ZM89.85,54.7c.14,0,.27-.03.39-.1.12-.07.23-.17.32-.29l.09-.53h-.33c-.27,0-.48.04-.63.13-.15.08-.23.21-.25.37-.02.12.02.22.08.3s.18.12.31.13h0Z"></path><path class="cls-1" d="M93.19,51.82l-.11.63h.47l-.06.34h-.47l-.27,1.61s0,.08,0,.12c.01.12.08.19.2.19.05,0,.12,0,.21-.02l-.03.36c-.1.03-.21.04-.31.04-.17,0-.3-.07-.39-.19-.09-.12-.12-.29-.1-.5l.26-1.6h-.46l.06-.34h.46l.11-.63h.43,0Z"></path><path class="cls-1" d="M94.58,55.03h-.43l.45-2.59h.43l-.45,2.59h0ZM94.94,51.5c.07,0,.13.02.18.07.05.05.07.11.07.18s-.03.14-.07.18-.11.07-.18.08-.14-.02-.18-.06-.07-.11-.07-.18c0-.08.02-.14.07-.19.05-.05.11-.08.18-.08Z"></path><path class="cls-1" d="M97.22,52.4c.22,0,.4.06.56.18.15.12.27.27.34.48s.1.42.08.66v.05c-.04.25-.11.48-.23.68s-.28.36-.46.48c-.19.11-.4.17-.62.16-.21,0-.4-.06-.56-.18s-.27-.27-.34-.47c-.07-.2-.1-.41-.08-.65.02-.27.1-.51.22-.72s.28-.38.47-.5c.19-.12.4-.17.63-.17ZM96.34,53.78c-.01.1-.01.21,0,.31.02.19.07.34.17.45s.23.17.39.18c.14,0,.28-.03.4-.11s.22-.19.31-.34c.08-.15.14-.32.16-.51.01-.15.02-.27,0-.37-.02-.19-.08-.35-.18-.46s-.23-.17-.39-.18c-.22,0-.41.08-.57.26-.16.18-.25.42-.29.71v.05s0,0,0,0Z"></path><path class="cls-1" d="M99.87,52.44l-.06.33c.23-.25.5-.38.8-.37.25,0,.42.09.54.25.12.16.16.39.13.69l-.28,1.7h-.43l.28-1.7c0-.08,0-.15,0-.22-.03-.22-.16-.34-.39-.34-.26,0-.49.13-.68.42l-.32,1.85h-.43l.45-2.59h.41,0Z"></path><path class="cls-1" d="M105.95,51.55h.45l-.42,2.47c-.05.33-.18.59-.4.79s-.49.29-.82.28c-.31,0-.54-.1-.71-.28-.17-.18-.24-.42-.22-.74h.45c-.02.19.02.35.11.46.09.12.22.17.4.18.2,0,.36-.05.5-.18.14-.13.22-.3.25-.5l.42-2.47h0Z"></path><path class="cls-1" d="M108.56,55.03s-.02-.09-.02-.14v-.14c-.23.22-.48.33-.75.32-.23,0-.41-.08-.56-.22s-.21-.32-.19-.53c.02-.28.14-.49.36-.64.22-.15.52-.23.88-.23h.45l.03-.2c.02-.15-.02-.28-.09-.37-.08-.09-.19-.14-.34-.14-.15,0-.28.03-.39.11-.12.08-.18.18-.21.3h-.44c.02-.15.07-.28.18-.4s.24-.21.4-.27.33-.09.51-.09c.27,0,.48.09.63.25.15.16.21.37.19.63l-.21,1.28v.18c-.02.09,0,.18.02.26v.04h-.45.01ZM107.88,54.7c.14,0,.27-.03.39-.1.12-.07.23-.17.32-.29l.09-.53h-.33c-.27,0-.48.04-.63.13-.15.08-.23.21-.25.37-.02.12.02.22.08.3s.18.12.31.13h0Z"></path><path class="cls-1" d="M112.43,53.75c-.03.26-.1.5-.21.71-.11.21-.25.37-.41.47-.16.11-.34.15-.54.15-.3,0-.53-.11-.69-.3l-.23,1.25h-.43l.62-3.59h.39l-.05.29c.21-.23.47-.34.77-.34.25,0,.44.1.58.28s.21.42.22.73c0,.1,0,.2-.01.3v.05h0ZM112,53.7v-.2c.01-.23-.03-.41-.12-.54s-.22-.19-.38-.19c-.25,0-.47.11-.65.36l-.22,1.24c.1.23.27.35.52.35.21,0,.4-.08.55-.25.15-.17.25-.43.3-.77h0Z"></path><path class="cls-1" d="M114.7,52.4c.22,0,.4.06.56.18.15.12.27.27.34.48s.1.42.08.66v.05c-.04.25-.11.48-.23.68s-.28.36-.46.48c-.19.11-.4.17-.62.16-.21,0-.4-.06-.56-.18s-.27-.27-.34-.47c-.07-.2-.1-.41-.08-.65.02-.27.1-.51.22-.72s.28-.38.47-.5c.19-.12.4-.17.63-.17ZM113.82,53.78c-.01.1-.01.21,0,.31.02.19.07.34.17.45s.23.17.39.18c.14,0,.28-.03.4-.11s.22-.19.31-.34c.08-.15.14-.32.16-.51.01-.15.02-.27,0-.37-.02-.19-.08-.35-.18-.46s-.23-.17-.39-.18c-.22,0-.41.08-.57.26-.16.18-.25.42-.29.71v.05s0,0,0,0Z"></path><path class="cls-1" d="M117.35,52.44l-.06.33c.23-.25.5-.38.8-.37.25,0,.42.09.54.25.12.16.16.39.13.69l-.28,1.7h-.43l.28-1.7c0-.08,0-.15,0-.22-.03-.22-.16-.34-.39-.34-.26,0-.49.13-.68.42l-.32,1.85h-.43l.45-2.59h.41,0Z"></path><path class="cls-1" d="M121.22,55.03s-.02-.09-.02-.14v-.14c-.23.22-.48.33-.75.32-.23,0-.41-.08-.56-.22s-.21-.32-.19-.53c.02-.28.14-.49.36-.64.22-.15.52-.23.88-.23h.45l.03-.2c.02-.15-.02-.28-.09-.37-.08-.09-.19-.14-.34-.14-.15,0-.28.03-.39.11-.12.08-.18.18-.21.3h-.44c.02-.15.07-.28.18-.4s.24-.21.4-.27.33-.09.51-.09c.27,0,.48.09.63.25.15.16.21.37.19.63l-.21,1.28v.18c-.02.09,0,.18.02.26v.04h-.45.01ZM120.54,54.7c.14,0,.27-.03.39-.1.12-.07.23-.17.32-.29l.09-.53h-.33c-.27,0-.48.04-.63.13-.15.08-.23.21-.25.37-.02.12.02.22.08.3s.18.12.31.13h0Z"></path><path class="cls-1" d="M123.2,55.03h-.43l.45-2.59h.43l-.45,2.59ZM123.56,51.5c.07,0,.13.02.18.07.05.05.07.11.07.18s-.03.14-.07.18-.11.07-.18.08-.14-.02-.18-.06-.07-.11-.07-.18c0-.08.02-.14.07-.19.05-.05.11-.08.18-.08Z"></path><path class="cls-1" d="M126.01,54.34c.02-.18-.08-.31-.29-.38l-.45-.13c-.38-.13-.56-.35-.55-.65.01-.23.12-.41.31-.56s.43-.22.7-.21c.26,0,.48.08.64.23.16.15.24.35.24.58h-.43c0-.13-.04-.24-.12-.32s-.2-.12-.34-.13c-.15,0-.28.03-.39.11-.1.07-.16.17-.18.28-.02.15.07.26.28.33l.22.06c.3.08.51.18.63.3s.18.28.17.46c0,.16-.06.3-.16.42s-.22.21-.38.28-.33.09-.51.09c-.28,0-.5-.08-.68-.24-.18-.16-.27-.36-.26-.61h.43c0,.15.05.26.14.35s.22.13.38.13c.16,0,.29-.03.41-.1.12-.07.18-.16.2-.29h0Z"></path><path class="cls-1" d="M128.49,55.08c-.32,0-.58-.12-.76-.36-.18-.23-.26-.53-.23-.89v-.1c.04-.26.12-.49.24-.71.12-.21.28-.37.46-.48.18-.11.38-.16.58-.15.27,0,.48.09.63.27.15.17.24.4.25.69,0,.1,0,.21,0,.31l-.03.2h-1.69c-.03.24,0,.43.12.6s.26.25.48.26c.25,0,.49-.11.71-.35l.25.21c-.11.16-.25.28-.42.37s-.36.13-.57.13h0ZM128.77,52.76c-.18,0-.34.05-.47.18s-.24.31-.32.56h1.26v-.04c.03-.2,0-.37-.09-.5-.09-.13-.22-.2-.39-.21h0Z"></path><path class="cls-1" d="M132.22,53.74c.03-.26.11-.5.22-.71.12-.21.25-.37.42-.48.17-.11.35-.15.55-.15.29,0,.51.11.67.31l.25-1.35h.43l-.64,3.68h-.39l.05-.28c-.2.22-.46.33-.76.33-.24,0-.43-.1-.57-.28s-.22-.42-.23-.73c0-.09,0-.21.01-.34h0ZM132.63,53.98c0,.23.04.41.12.53.08.13.21.19.38.19.25.01.47-.12.67-.38l.21-1.2c-.1-.24-.27-.36-.52-.36-.17,0-.32.05-.45.15s-.23.26-.3.45-.1.4-.1.61h0Z"></path><path class="cls-1" d="M135.78,52.53l-.24-.18c.19-.23.3-.46.34-.68l.05-.31h.43l-.05.29c-.06.36-.24.65-.54.88Z"></path><path class="cls-1" d="M139.02,53.42h-1.47l-.21,1.24h1.7l-.07.38h-2.15l.61-3.49h2.13l-.07.38h-1.68l-.19,1.12h1.47l-.06.38h0Z"></path><path class="cls-1" d="M141.58,54.34c.02-.18-.08-.31-.29-.38l-.45-.13c-.38-.13-.56-.35-.55-.65.01-.23.12-.41.31-.56s.43-.22.7-.21c.26,0,.48.08.64.23.16.15.24.35.24.58h-.43c0-.13-.04-.24-.12-.32s-.2-.12-.34-.13c-.15,0-.28.03-.39.11-.1.07-.16.17-.18.28-.02.15.07.26.28.33l.22.06c.3.08.51.18.63.3s.18.28.17.46c0,.16-.06.3-.16.42s-.22.21-.38.28-.33.09-.51.09c-.28,0-.5-.08-.68-.24-.18-.16-.27-.36-.26-.61h.43c0,.15.05.26.14.35s.22.13.38.13c.16,0,.29-.03.41-.1.12-.07.18-.16.2-.29h0Z"></path><path class="cls-1" d="M144.03,54.73c.15,0,.29-.04.42-.14s.21-.21.25-.37h.41c-.02.16-.09.31-.19.44s-.24.24-.4.31c-.16.08-.33.11-.5.11-.21,0-.4-.06-.55-.17s-.26-.26-.33-.46c-.07-.2-.09-.41-.07-.66v-.12c.04-.25.12-.47.23-.67s.27-.35.45-.46.39-.16.61-.15c.27,0,.49.1.65.27s.25.4.25.67h-.41c0-.17-.05-.31-.14-.41-.09-.11-.21-.16-.37-.17-.22,0-.41.08-.56.25s-.24.41-.28.72v.06c-.02.1-.02.21-.01.31.01.19.06.33.16.44s.22.17.39.17h0Z"></path><path class="cls-1" d="M147.56,52.84l-.2-.02c-.28,0-.5.12-.66.38l-.32,1.84h-.43l.45-2.59h.42l-.06.3c.18-.24.4-.36.65-.35.05,0,.12.01.21.04l-.05.41Z"></path><path class="cls-1" d="M148.54,55.03h-.43l.45-2.59h.43l-.45,2.59ZM148.89,51.5c.07,0,.13.02.18.07.05.05.07.11.07.18s-.03.14-.07.18-.11.07-.18.08-.14-.02-.18-.06-.07-.11-.07-.18c0-.08.02-.14.07-.19.05-.05.11-.08.18-.08Z"></path><path class="cls-1" d="M150.59,52.44l-.05.29c.22-.23.48-.34.79-.34.16,0,.3.04.42.11s.19.17.24.3c.24-.28.53-.42.86-.42.26,0,.45.09.57.26.12.17.17.39.14.68l-.28,1.7h-.43l.28-1.71c0-.08,0-.16,0-.23-.03-.22-.17-.33-.43-.33-.16,0-.3.05-.43.15-.13.1-.21.23-.25.4l-.29,1.72h-.44l.29-1.7c.02-.18,0-.31-.08-.41-.08-.1-.19-.15-.35-.15-.27,0-.48.12-.64.37l-.33,1.9h-.43l.45-2.59h.41,0Z"></path><path class="cls-1" d="M155.54,55.08c-.32,0-.58-.12-.76-.36-.18-.23-.26-.53-.23-.89v-.1c.04-.26.12-.49.24-.71.12-.21.28-.37.46-.48.18-.11.38-.16.58-.15.27,0,.48.09.63.27.15.17.24.4.25.69,0,.1,0,.21,0,.31l-.03.2h-1.69c-.03.24,0,.43.12.6s.26.25.48.26c.25,0,.49-.11.71-.35l.25.21c-.11.16-.25.28-.42.37s-.36.13-.57.13h0ZM155.82,52.76c-.18,0-.34.05-.47.18s-.24.31-.32.56h1.26v-.04c.03-.2,0-.37-.09-.5-.09-.13-.22-.2-.39-.21h0Z"></path><g id="_&#x30EC;&#x30A4;&#x30E4;&#x30FC;_2-2"><g id="_&#x30EC;&#x30A4;&#x30E4;&#x30FC;_1-2-2"><circle class="cls-1" cx="65.57" cy="49.68" r="4.4"></circle><path class="cls-1" d="M30.28,45.29h-13.02l13.02,1.69v4.81c0,.48-.39.87-.87.87h-1.05c-.48,0-.87-.39-.87-.87v-1.24h-1.42v1.44c0,1.14.94,2.08,2.08,2.08h1.47c1.14,0,2.08-.94,2.08-2.08v-6.71h-1.41,0Z"></path><path class="cls-1" d="M61.17,54.08h-1.35l-3.08-5.75v5.75h-1.41v-8.8h1.35l3.08,5.75v-5.75h1.41v8.8Z"></path><path class="cls-1" d="M44.82,45.29h-3.53v8.8h1.41v-3.51h2.12c1.2,0,2.16-.97,2.16-2.16v-.96c0-1.2-.97-2.17-2.16-2.17h0ZM45.58,48.23c0,.51-.41.92-.92.92h-1.94v-2.45h1.94c.51,0,.92.41.92.92v.6h0Z"></path><path class="cls-1" d="M38.57,54.08h1.41l-2.79-8.8h-1.41l-2.81,8.8h1.41l.64-2.03h2.9l.64,2.03ZM35.49,50.64l1-3.14,1,3.14h-2,0Z"></path><path class="cls-1" d="M52.62,54.08h1.41l-2.79-8.8h-1.41l-2.81,8.8h1.41l.64-2.03h2.9l.64,2.03ZM49.54,50.64l1-3.14,1,3.14h-2,0Z"></path></g></g></g></svg>