<?xml version="1.0" encoding="UTF-8"?>
<svg version="1.1" xmlns="http://www.w3.org/2000/svg" width="160" height="120">
<path d="M0 0 C52.8 0 105.6 0 160 0 C160 39.6 160 79.2 160 120 C107.2 120 54.4 120 0 120 C0 80.4 0 40.8 0 0 Z " fill="#E33433" transform="translate(0,0)"/>
<path d="M0 0 C26.4 0 52.8 0 80 0 C80 19.8 80 39.6 80 60 C53.6 60 27.2 60 0 60 C0 40.2 0 20.4 0 0 Z " fill="#24A27F" transform="translate(80,60)"/>
<path d="M0 0 C26.4 0 52.8 0 80 0 C80 19.8 80 39.6 80 60 C53.6 60 27.2 60 0 60 C0 40.2 0 20.4 0 0 Z " fill="#FAD131" transform="translate(80,0)"/>
<path d="M0 0 C0.66 0 1.32 0 2 0 C3.32 3.3 4.64 6.6 6 10 C9.3 10.33 12.6 10.66 16 11 C13.57142857 15.85714286 13.57142857 15.85714286 11 18 C10.34 18 9.68 18 9 18 C9.34224609 18.79664063 9.34224609 18.79664063 9.69140625 19.609375 C9.97886719 20.31578125 10.26632813 21.0221875 10.5625 21.75 C10.85253906 22.44609375 11.14257812 23.1421875 11.44140625 23.859375 C12.07831803 26.30012784 11.80248831 27.6403655 11 30 C10.41992188 29.69964844 9.83984375 29.39929688 9.2421875 29.08984375 C5.53706174 27.28619342 2.85987051 25.98377603 -1.3125 26.0625 C-4.04621549 27.01612168 -5.75127226 28.21652628 -8 30 C-8.99 30 -9.98 30 -11 30 C-10.86980469 29.19175781 -10.73960938 28.38351563 -10.60546875 27.55078125 C-10.1872299 24.31040736 -9.88056944 21.26727877 -10 18 C-12.25057567 14.91201326 -12.25057567 14.91201326 -15 13 C-15 12.01 -15 11.02 -15 10 C-11.37 10 -7.74 10 -4 10 C-3.67 8.68 -3.34 7.36 -3 6 C-2.03112419 3.98473831 -1.0358679 1.98166034 0 0 Z " fill="#4A4346" transform="translate(40,45)"/>
</svg>
