<svg width="24" height="24" viewBox="0 0 24 24" fill="none" xmlns="http://www.w3.org/2000/svg">
<g clip-path="url(#clip0_6144_24328)">
<g clip-path="url(#clip1_6144_24328)">
<mask id="mask0_6144_24328" style="mask-type:luminance" maskUnits="userSpaceOnUse" x="-4" y="0" width="32" height="24">
<rect x="-4" width="32" height="24" fill="white"/>
</mask>
<g mask="url(#mask0_6144_24328)">
<path fill-rule="evenodd" clip-rule="evenodd" d="M-4 0H28V24H-4V0Z" fill="#F7FCFF"/>
<path fill-rule="evenodd" clip-rule="evenodd" d="M-4 5.5H28V8.45683H-4V5.5ZM-4 10.8151H28V13.7719H-4V10.8151ZM28 15.9432H-4V18.9H28V15.9432Z" fill="#4564F9"/>
<path fill-rule="evenodd" clip-rule="evenodd" d="M-4 0H28V3H-4V0Z" fill="#4564F9"/>
<rect x="-4" y="21" width="32" height="3" fill="#4564F9"/>
<path fill-rule="evenodd" clip-rule="evenodd" d="M-4 0H11V13.8H-4V0Z" fill="#4564F9"/>
<path fill-rule="evenodd" clip-rule="evenodd" d="M2 0H5V5.50386H11V8.43867H5V14.5H2V8.43867H-4V5.50386H2V0Z" fill="#F7FCFF"/>
</g>
</g>
<g style="mix-blend-mode:hard-light" opacity="0.12">
<rect width="24" height="24" rx="12" fill="white"/>
</g>
<rect width="24" height="24" fill="url(#paint0_linear_6144_24328)" fill-opacity="0.64" style="mix-blend-mode:overlay"/>
</g>
<defs>
<linearGradient id="paint0_linear_6144_24328" x1="24" y1="1.19273e-06" x2="-4.48665" y2="16.0237" gradientUnits="userSpaceOnUse">
<stop stop-color="white" stop-opacity="0.3"/>
<stop offset="0.262741" stop-opacity="0.27"/>
<stop offset="0.369956" stop-color="white" stop-opacity="0.26"/>
<stop offset="0.487001" stop-opacity="0.55"/>
<stop offset="0.594445" stop-opacity="0.24"/>
<stop offset="0.736408" stop-color="white" stop-opacity="0.3"/>
<stop offset="0.901459" stop-color="#272727" stop-opacity="0.22"/>
<stop offset="1" stop-opacity="0.2"/>
</linearGradient>
<clipPath id="clip0_6144_24328">
<rect width="24" height="24" rx="12" fill="white"/>
</clipPath>
<clipPath id="clip1_6144_24328">
<rect width="24" height="24" fill="white"/>
</clipPath>
</defs>
</svg>
