<svg xmlns="http://www.w3.org/2000/svg" id="Layer_1" viewBox="0 0 184 100"><defs><style>.cls-1{fill:#56575a;stroke-width:0px;}</style></defs><path class="cls-1" d="M142.47,27.74l-7.46-2.46h-.25l-.25-.08c-6.1,5.51-17.21,6.02-29.76,5.09-5.51-.42-11.28-1.1-17.04-1.87-4.07-.42-8.22-.93-12.29-1.27-.23,0-.46-.02-.68-.08-.42,0-.93-.08-1.36-.08-4.58-.42-8.9-.68-12.89-.68-11.19.25-19.58,5.68-21.62,21.19v.34c-1.53,12.38,2.2,25.43,2.63,25.69.08,0,.08.08.17.08l6.19,1.19h.08s.09,0,.14-.01.08-.04.12-.07c8.48-7.71,28.32-5.68,47.39-3.73,9.83,1.1,19.92,2.12,28.23,1.78,1.36-.08,2.63-.17,3.9-.34,10.6-1.61,16.19-8.31,17.46-20.69,1.44-12.8-2.46-23.82-2.71-23.99h0ZM49.8,30.12c16.45-10.09,64.86,12.46,91.31-.85,0,0,9.58,29.93-7.63,39.08-17.38,9.33-69.6-10.85-91.22,3.48.17-.68-9.41-31.37,7.55-41.71ZM109.74,71.49c.34,0,.85.08,1.19.08-.34,0-.85-.08-1.19-.08Z"></path><path class="cls-1" d="M64.38,50.47c.67-.44,1.22-1.05,1.59-1.76.37-.71.55-1.51.53-2.31,0-3.56-2.29-5.43-6.78-5.43h-9.66v20.86h10c3.39,0,7.38-1.61,7.38-6.19,0-2.54-1.02-4.24-3.05-5.17h0ZM59.47,57.5h-4.24v-12.29h3.65c2.29,0,2.54.93,2.54,1.87,0,1.27-.76,1.95-2.2,1.95h-1.27l-1.78,3.82h3.39c1.87,0,2.63.76,2.63,2.37.17,1.02-.25,2.29-2.71,2.29"></path><path class="cls-1" d="M73.96,40.97h-5.26v20.86h5.26v-20.86Z"></path><path class="cls-1" d="M86.51,52.67l-2.63-11.78h-8.22v20.77h5.17v-12.72l3.05,12.72h5.26l3.05-12.89v12.89h5.17v-20.77h-8.22l-2.63,11.78Z"></path><path class="cls-1" d="M113.64,50.55c.67-.44,1.22-1.05,1.59-1.76.37-.71.55-1.51.53-2.31,0-3.56-2.29-5.43-6.78-5.43h-9.66v20.86h10c3.39,0,7.38-1.61,7.38-6.19.07-1.07-.19-2.13-.73-3.05-.54-.92-1.35-1.66-2.32-2.12h0ZM108.72,57.59h-4.24v-12.12h3.65c2.29,0,2.54.93,2.54,1.87,0,1.27-.76,1.95-2.2,1.95h-1.19l-1.95,3.82h3.39c1.87,0,2.63.76,2.63,2.37.17.93-.17,2.12-2.63,2.12"></path><path class="cls-1" d="M127.8,40.72c-2.06,0-4.08.61-5.79,1.76-1.71,1.15-3.05,2.77-3.84,4.68-.79,1.91-1,4-.59,6.02.4,2.02,1.4,3.88,2.85,5.34,1.46,1.46,3.32,2.45,5.34,2.85,2.02.4,4.12.2,6.02-.59,1.91-.79,3.53-2.13,4.68-3.84,1.15-1.71,1.76-3.73,1.76-5.79,0-1.37-.27-2.73-.79-3.99-.52-1.27-1.29-2.42-2.26-3.38-.97-.97-2.12-1.74-3.38-2.26-1.27-.52-2.62-.79-3.99-.79ZM127.8,56.65c-1.46,0-2.86-.58-3.9-1.61-1.03-1.03-1.61-2.44-1.61-3.9s.58-2.86,1.61-3.9c1.03-1.03,2.44-1.61,3.9-1.61,1.45.02,2.83.61,3.84,1.64,1.02,1.03,1.58,2.42,1.58,3.87s-.57,2.84-1.58,3.87c-1.02,1.03-2.39,1.62-3.84,1.64"></path><path class="cls-1" d="M56.92,38.26c-.45.26-.93.43-1.44.51-.5.1-1.01.16-1.53.17-.52,0-1.03-.09-1.53-.25-.42-.17-.82-.4-1.19-.68-.33-.31-.59-.69-.76-1.1-.34-.93-.34-1.95,0-2.88.17-.42.43-.79.76-1.1.34-.31.75-.54,1.19-.68.52-.16,1.06-.25,1.61-.25.51,0,1.02.06,1.53.17.44.14.84.37,1.19.68l-1.02,1.1c-.19-.19-.42-.33-.68-.42-.33-.11-.67-.17-1.02-.17-.29,0-.58.06-.85.17-.26.09-.49.23-.68.42-.19.19-.34.42-.42.68-.11.27-.16.56-.17.85,0,.29.06.58.17.85.09.26.23.49.42.68.19.19.42.34.68.42.27.1.56.15.85.17.29.02.57-.01.85-.08.2-.07.4-.15.59-.25v-1.1h-1.27v-1.36h2.71v3.48Z"></path><path class="cls-1" d="M57.86,32.15h2.71c.34-.01.68.01,1.02.08.3.06.59.18.85.34.24.15.44.36.59.59.15.29.2.61.17.93.02.42-.1.84-.34,1.19-.13.17-.3.31-.49.41-.19.1-.4.16-.61.18l1.78,2.8h-1.87l-1.44-2.63h-.76v2.63h-1.53v-6.53h-.08ZM59.38,34.87h1.36c.15.01.29-.02.42-.08.08-.08.25-.08.34-.25.08-.13.11-.28.08-.42.02-.15,0-.3-.08-.42l-.25-.25c-.1-.07-.22-.1-.34-.08h-1.44v1.53h-.08Z"></path><path class="cls-1" d="M69.64,36.22c0,.37-.07.74-.17,1.1-.12.31-.29.6-.51.85-.26.26-.58.47-.93.59-.42.1-.84.15-1.27.17-.43,0-.86-.06-1.27-.17-.34-.15-.66-.35-.93-.59-.25-.23-.42-.52-.51-.85-.1-.36-.16-.73-.17-1.1v-4.07h1.53v3.98c-.01.2.02.4.08.59.07.15.15.29.25.42.11.13.26.22.42.25.19.08.39.1.59.08.2.01.4-.02.59-.08.15-.07.29-.15.42-.25.08-.17.25-.25.25-.42.08-.19.1-.39.08-.59v-3.98h1.53v4.07Z"></path><path class="cls-1" d="M70.66,32.15h2.54c.34-.01.68.01,1.02.08.3.06.59.18.85.34.24.15.44.36.59.59.15.29.2.61.17.93,0,.32-.06.63-.17.93-.13.23-.3.43-.51.59-.26.16-.55.28-.85.34-.33.07-.68.1-1.02.08h-1.1v2.54h-1.53v-6.44ZM72.18,34.95h1.44c.08,0,.25-.08.34-.08l.25-.25c.08-.13.11-.28.08-.42.02-.15,0-.3-.08-.42-.1-.1-.21-.19-.34-.25-.13-.07-.28-.1-.42-.08h-1.19v1.53h-.08Z"></path><path class="cls-1" d="M76.42,35.46c0-.49.08-.98.25-1.44.17-.42.43-.79.76-1.1.34-.31.75-.54,1.19-.68.49-.18,1.01-.27,1.53-.25.52,0,1.03.09,1.53.25.42.17.82.4,1.19.68.33.31.59.69.76,1.1.34.93.34,1.95,0,2.88-.17.42-.43.79-.76,1.1-.34.31-.75.54-1.19.68-.49.18-1.01.27-1.53.25-.52,0-1.03-.09-1.53-.25-.42-.17-.82-.4-1.19-.68-.33-.31-.59-.69-.76-1.1-.17-.46-.26-.95-.25-1.44h0ZM78.03,35.46c0,.29.06.58.17.85.09.26.23.49.42.68.19.19.42.34.68.42.27.1.56.15.85.17.29,0,.58-.06.85-.17.26-.09.49-.23.68-.42.19-.19.34-.42.42-.68.1-.27.16-.56.17-.85,0-.29-.06-.58-.17-.85-.09-.26-.23-.49-.42-.68-.19-.19-.42-.34-.68-.42-.27-.1-.56-.15-.85-.17-.29,0-.58.06-.85.17-.26.09-.49.23-.68.42-.19.19-.34.42-.42.68-.14.26-.2.55-.17.85"></path><path class="cls-1" d="M140.69,72c0-.29.06-.58.17-.85.09-.28.27-.51.51-.68.21-.19.44-.36.68-.51.27-.1.56-.15.85-.17.29,0,.58.06.85.17.25.09.49.23.68.42.19.21.36.44.51.68.1.27.15.56.17.85,0,.29-.06.58-.17.85-.09.28-.27.51-.51.68-.21.19-.44.36-.68.51-.27.1-.56.15-.85.17-.29,0-.58-.06-.85-.17-.25-.09-.49-.23-.68-.42-.19-.21-.36-.44-.51-.68-.11-.27-.16-.56-.17-.85ZM141.11,72c.02.26.07.52.17.76.22.44.57.8,1.02,1.02.24.11.5.17.76.17s.52-.06.76-.17c.44-.22.8-.57,1.02-1.02.11-.24.17-.5.17-.76s-.06-.52-.17-.76c-.22-.44-.57-.8-1.02-1.02-.24-.11-.5-.17-.76-.17s-.52.06-.76.17c-.44.22-.8.57-1.02,1.02-.14.23-.2.5-.17.76h0ZM142.13,70.73h.93c.24,0,.47.05.68.17.09.07.16.16.2.26.04.1.06.22.05.33.01.19-.05.37-.17.51-.15.11-.33.17-.51.17l.76,1.1h-.42l-.68-1.1h-.42v1.1h-.34v-2.54h-.08ZM142.47,71.91h.68s.09,0,.14-.01.08-.04.12-.07c.08,0,.08-.08.17-.08,0-.08.08-.17.08-.25,0-.05,0-.09-.01-.14s-.04-.08-.07-.12c0-.08-.08-.08-.17-.08s-.08-.08-.17-.08h-.76v.85h0Z"></path></svg>