<svg width="222" height="283" viewBox="0 0 222 283" fill="none" xmlns="http://www.w3.org/2000/svg">
<path d="M559.944 12.2466C563.64 21.7937 564.889 32.8718 560.798 42.5194C556.719 52.1397 549.512 61.304 539.395 65.0507C526.096 69.9908 512.767 74.8515 499.425 79.6537C508.792 79.0695 519.296 81.0358 526.811 86.9758C529.43 89.4503 532.038 91.9332 534.658 94.4078C538.311 98.5843 540.661 103.332 541.746 108.636C543.156 111.882 543.686 115.27 543.338 118.781C543.903 123.971 543.172 129 541.142 133.906C539.519 136.964 537.896 140.021 536.264 143.068C531.96 149.02 526.459 153.471 519.739 156.438C468.355 172.4 416.953 188.361 365.569 204.323L211.398 252.209C182.408 261.21 153.437 270.212 124.447 279.212C119.621 281.511 114.587 282.492 109.345 282.157C104.167 282.686 99.1399 281.917 94.2263 279.849C89.0526 278.094 84.6783 275.209 81.1225 271.195C76.8312 267.777 73.6484 263.461 71.5826 258.26C67.8866 248.712 66.6376 237.634 70.7285 227.987C72.3517 224.929 73.9748 221.872 75.6064 218.825C77.7316 215.879 80.1504 213.318 82.8667 211.103C70.6193 212.809 58.3803 214.526 46.1479 216.271C36.1439 217.699 24.9946 215.063 16.7206 209.116C12.0562 205.999 8.50043 201.986 6.06162 197.086C2.8788 192.771 0.970254 187.89 0.334248 182.464C-0.799853 172.312 0.817528 161.281 7.26527 153.042C9.71708 150.437 12.1773 147.842 14.6291 145.237C20.2612 140.715 26.6311 137.91 33.7766 136.826C60.6866 130.233 87.5315 123.348 114.312 116.257C108.186 117.5 102.061 118.743 95.9271 119.975C90.7051 120.936 85.6341 120.601 80.6764 118.965C75.4821 118.159 70.7565 116.111 66.4997 112.82C63.8805 110.345 61.2717 107.863 58.6525 105.388C54.9992 101.212 52.6495 96.4639 51.5638 91.16C50.1545 87.9138 49.6247 84.5259 49.9726 81.0151C49.4077 75.8251 50.1382 70.7959 52.1683 65.8896C53.7915 62.8321 55.4147 59.7745 57.0464 56.7275C61.3504 50.7757 66.8516 46.3249 73.5707 43.3582C123.354 13.7009 174.005 -14.4822 225.477 -41.1198C239.989 -48.6295 254.564 -56.018 269.192 -63.277C274.018 -65.5754 279.052 -66.557 284.294 -66.2219C289.472 -66.7501 294.499 -65.9819 299.413 -63.9131C304.586 -62.1583 308.961 -59.2731 312.516 -55.2596C316.808 -51.8411 319.991 -47.5258 322.056 -42.3241C325.752 -32.7769 327.002 -21.699 322.911 -12.0514C322.1 -10.532 321.3 -9.02107 320.489 -7.50176C336 -10.6397 351.522 -13.7861 367.025 -16.9345C372.247 -17.8956 377.318 -17.5603 382.276 -15.9243C387.47 -15.1187 392.196 -13.0704 396.453 -9.77945C399.072 -7.30489 401.681 -4.82194 404.3 -2.34739C407.953 1.82907 410.303 6.57659 411.389 11.8806C412.734 15.0056 413.269 18.2514 412.993 21.6178C432.854 15.5301 452.656 9.28362 472.393 2.83029C483.977 -0.946314 495.539 -4.79189 507.088 -8.69596C511.914 -10.9943 516.958 -11.9843 522.19 -11.6408C527.368 -12.169 532.395 -11.4008 537.309 -9.33201C542.482 -7.57726 546.856 -4.69208 550.412 -0.678509C554.704 2.73995 557.886 7.05523 559.952 12.257L559.944 12.2466Z" fill="white"/>
</svg>
