<svg width="189" height="219" viewBox="0 0 189 219" fill="none" xmlns="http://www.w3.org/2000/svg">
<g filter="url(#filter0_d_22_972)">
<rect x="26" y="63" width="118" height="118" rx="16" fill="url(#paint0_linear_22_972)"/>
<g clip-path="url(#clip0_22_972)">
<path d="M128.798 60.5627C128.816 52.6565 122.407 46.2281 114.482 46.2073L57.125 46.057C49.2006 46.0362 42.7647 52.4303 42.7463 60.3358L42.4195 202.182C42.4014 210.089 48.8098 216.517 56.7348 216.538L114.092 216.688C122.017 216.709 128.453 210.315 128.471 202.409L128.798 60.5627Z" fill="url(#paint1_linear_22_972)" stroke="#292B2E" stroke-width="1.775"/>
<path d="M100.781 46.3374L67.5806 46.3126L67.5765 50.3872C67.5746 52.3249 69.1439 53.8968 71.0818 53.8983L97.2648 53.9178C99.2027 53.9193 100.775 52.3497 100.777 50.412L100.781 46.3374Z" fill="#292B2E"/>
<path d="M123.224 158.381L136.648 158.381L136.648 164.576C136.648 165.717 135.723 166.642 134.582 166.642L125.289 166.642C124.149 166.642 123.224 165.717 123.224 164.576L123.224 158.381Z" fill="#292B2E"/>
<path fill-rule="evenodd" clip-rule="evenodd" d="M135.615 159.413L124.257 159.413L124.257 164.576C124.257 165.147 124.719 165.609 125.289 165.609L134.582 165.609C135.153 165.609 135.615 165.147 135.615 164.576L135.615 159.413ZM123.224 158.381L123.224 164.576C123.224 165.717 124.149 166.642 125.289 166.642L134.582 166.642C135.723 166.642 136.648 165.717 136.648 164.576L136.648 158.381L123.224 158.381Z" fill="#292B2E"/>
<path d="M82.8903 158.381L96.3139 158.381L96.3139 164.576C96.3139 165.717 95.3892 166.642 94.2487 166.642L84.9554 166.642C83.8149 166.642 82.8903 165.717 82.8903 164.576L82.8903 158.381Z" fill="#292B2E"/>
<path fill-rule="evenodd" clip-rule="evenodd" d="M95.2813 159.413L83.9228 159.413L83.9228 164.576C83.9228 165.147 84.3851 165.609 84.9554 165.609L94.2487 165.609C94.819 165.609 95.2813 165.147 95.2813 164.576L95.2813 159.413ZM82.8903 158.381L82.8903 164.576C82.8903 165.717 83.8149 166.642 84.9554 166.642L94.2487 166.642C95.3892 166.642 96.3139 165.717 96.3139 164.576L96.3139 158.381L82.8903 158.381Z" fill="#292B2E"/>
<path d="M103.823 158.381L117.246 158.381L117.246 164.577C117.246 165.717 116.322 166.642 115.181 166.642L105.888 166.642C104.747 166.642 103.823 165.717 103.823 164.577L103.823 158.381Z" fill="#292B2E"/>
<path fill-rule="evenodd" clip-rule="evenodd" d="M116.214 159.414L104.855 159.414L104.855 164.577C104.855 165.147 105.318 165.609 105.888 165.609L115.181 165.609C115.751 165.609 116.214 165.147 116.214 164.577L116.214 159.414ZM103.823 158.381L103.823 164.577C103.823 165.717 104.747 166.642 105.888 166.642L115.181 166.642C116.322 166.642 117.246 165.717 117.246 164.577L117.246 158.381L103.823 158.381Z" fill="#292B2E"/>
<path d="M96.6746 82.8188L83.251 82.8188L83.251 76.6233C83.251 75.4828 84.1756 74.5582 85.3162 74.5582L94.6095 74.5582C95.75 74.5582 96.6746 75.4828 96.6746 76.6233L96.6746 82.8188Z" fill="#292B2E"/>
<path fill-rule="evenodd" clip-rule="evenodd" d="M84.2836 81.7863L95.642 81.7863L95.642 76.6233C95.642 76.0531 95.1797 75.5908 94.6095 75.5908L85.3162 75.5908C84.7459 75.5908 84.2836 76.0531 84.2836 76.6233L84.2836 81.7863ZM96.6746 82.8188L96.6746 76.6233C96.6746 75.4828 95.75 74.5582 94.6095 74.5582L85.3162 74.5582C84.1756 74.5582 83.251 75.4828 83.251 76.6233L83.251 82.8188L96.6746 82.8188Z" fill="#292B2E"/>
<path d="M137.009 82.8188L123.585 82.8188L123.585 76.6233C123.585 75.4828 124.51 74.5582 125.651 74.5582L134.944 74.5582C136.084 74.5582 137.009 75.4828 137.009 76.6233L137.009 82.8188Z" fill="#292B2E"/>
<path fill-rule="evenodd" clip-rule="evenodd" d="M124.618 81.7863L135.976 81.7863L135.976 76.6233C135.976 76.0531 135.514 75.5908 134.944 75.5908L125.651 75.5908C125.08 75.5908 124.618 76.0531 124.618 76.6233L124.618 81.7863ZM137.009 82.8188L137.009 76.6233C137.009 75.4828 136.084 74.5582 134.944 74.5582L125.651 74.5582C124.51 74.5582 123.585 75.4828 123.585 76.6233L123.585 82.8188L137.009 82.8188Z" fill="#292B2E"/>
<path d="M116.076 82.8188L102.653 82.8188L102.653 76.6233C102.653 75.4828 103.577 74.5582 104.718 74.5582L114.011 74.5582C115.152 74.5582 116.076 75.4828 116.076 76.6233L116.076 82.8188Z" fill="#292B2E"/>
<path fill-rule="evenodd" clip-rule="evenodd" d="M103.685 81.7863L115.044 81.7863L115.044 76.6233C115.044 76.0531 114.581 75.5908 114.011 75.5908L104.718 75.5908C104.147 75.5908 103.685 76.0531 103.685 76.6233L103.685 81.7863ZM116.076 82.8188L116.076 76.6233C116.076 75.4828 115.152 74.5582 114.011 74.5582L104.718 74.5582C103.577 74.5582 102.653 75.4828 102.653 76.6233L102.653 82.8188L116.076 82.8188Z" fill="#292B2E"/>
<path d="M73.6999 86.9951C73.6999 82.4328 77.3983 78.7344 81.9605 78.7344L149.079 78.7344C153.641 78.7344 157.339 82.4328 157.339 86.9951L157.339 154.113C157.339 158.675 153.641 162.374 149.079 162.374L81.9605 162.374C77.3983 162.374 73.6999 158.675 73.6999 154.113L73.6999 86.9951Z" fill="#292B2E"/>
<path fill-rule="evenodd" clip-rule="evenodd" d="M149.079 79.767L81.9605 79.767C77.9686 79.767 74.7324 83.0031 74.7324 86.9951L74.7324 154.113C74.7324 158.105 77.9686 161.341 81.9605 161.341L149.079 161.341C153.071 161.341 156.307 158.105 156.307 154.113L156.307 86.9951C156.307 83.0031 153.071 79.767 149.079 79.767ZM81.9605 78.7344C77.3983 78.7344 73.6999 82.4328 73.6999 86.9951L73.6999 154.113C73.6999 158.675 77.3983 162.374 81.9605 162.374L149.079 162.374C153.641 162.374 157.339 158.675 157.339 154.113L157.339 86.9951C157.339 82.4328 153.641 78.7344 149.079 78.7344L81.9605 78.7344Z" fill="#292B2E"/>
<path d="M67.573 86.9946C67.573 82.4323 71.2714 78.7339 75.8337 78.7339L142.952 78.7339C147.514 78.7339 151.212 82.4323 151.212 86.9946L151.212 154.113C151.212 158.675 147.514 162.373 142.952 162.373L75.8337 162.373C71.2714 162.373 67.573 158.675 67.573 154.113L67.573 86.9946Z" fill="white"/>
<path fill-rule="evenodd" clip-rule="evenodd" d="M142.952 79.7665L75.8337 79.7665C71.8417 79.7665 68.6056 83.0026 68.6056 86.9946L68.6056 154.113C68.6056 158.105 71.8417 161.341 75.8337 161.341L142.952 161.341C146.944 161.341 150.18 158.105 150.18 154.113L150.18 86.9946C150.18 83.0026 146.944 79.7665 142.952 79.7665ZM75.8337 78.7339C71.2714 78.7339 67.573 82.4323 67.573 86.9946L67.573 154.113C67.573 158.675 71.2714 162.373 75.8337 162.373L142.952 162.373C147.514 162.373 151.212 158.675 151.212 154.113L151.212 86.9946C151.212 82.4323 147.514 78.7339 142.952 78.7339L75.8337 78.7339Z" fill="#292B2E"/>
<path fill-rule="evenodd" clip-rule="evenodd" d="M93.6598 89.9779L81.9142 89.9779C80.2033 89.9779 78.8164 91.3648 78.8164 93.0757L78.8164 104.821C78.8164 106.532 80.2033 107.919 81.9142 107.919L93.6598 107.919C95.3706 107.919 96.7576 106.532 96.7576 104.821L96.7576 93.0757C96.7576 91.3648 95.3706 89.9779 93.6598 89.9779ZM81.9142 88.9453C79.633 88.9453 77.7838 90.7945 77.7838 93.0757L77.7838 104.821C77.7838 107.102 79.633 108.952 81.9142 108.952L93.6598 108.952C95.9409 108.952 97.7901 107.102 97.7901 104.821L97.7901 93.0757C97.7901 90.7945 95.9409 88.9453 93.6598 88.9453L81.9142 88.9453Z" fill="#292B2E"/>
<path fill-rule="evenodd" clip-rule="evenodd" d="M93.6601 133.886L81.9144 133.886C80.2036 133.886 78.8167 135.273 78.8167 136.984L78.8167 148.73C78.8167 150.44 80.2036 151.827 81.9144 151.827L93.6601 151.827C95.3709 151.827 96.7578 150.44 96.7578 148.73L96.7578 136.984C96.7578 135.273 95.3709 133.886 93.6601 133.886ZM81.9144 132.854C79.6333 132.854 77.7841 134.703 77.7841 136.984L77.7841 148.73C77.7841 151.011 79.6333 152.86 81.9144 152.86L93.6601 152.86C95.9412 152.86 97.7904 151.011 97.7904 148.73L97.7904 136.984C97.7904 134.703 95.9412 132.854 93.6601 132.854L81.9144 132.854Z" fill="#292B2E"/>
<path fill-rule="evenodd" clip-rule="evenodd" d="M137.567 89.9781L125.822 89.9781C124.111 89.9781 122.724 91.3651 122.724 93.0759L122.724 104.822C122.724 106.532 124.111 107.919 125.822 107.919L137.567 107.919C139.278 107.919 140.665 106.532 140.665 104.822L140.665 93.0759C140.665 91.3651 139.278 89.9781 137.567 89.9781ZM125.822 88.9456C123.541 88.9456 121.691 90.7948 121.691 93.0759L121.691 104.822C121.691 107.103 123.541 108.952 125.822 108.952L137.567 108.952C139.848 108.952 141.698 107.103 141.698 104.822L141.698 93.0759C141.698 90.7948 139.848 88.9456 137.567 88.9456L125.822 88.9456Z" fill="#292B2E"/>
<path fill-rule="evenodd" clip-rule="evenodd" d="M77.7844 113.974C77.7844 113.404 78.2467 112.942 78.8169 112.942L84.7543 112.942C85.3246 112.942 85.7869 113.404 85.7869 113.974L85.7869 120.944L78.8169 120.944C78.2467 120.944 77.7844 120.482 77.7844 119.912L77.7844 113.974ZM93.7894 120.944L93.7894 127.914C93.7894 128.484 93.3271 128.947 92.7568 128.947L86.8195 128.947C86.2492 128.947 85.7869 128.484 85.7869 127.914L85.7869 120.944L93.7894 120.944ZM93.7894 120.944L93.7894 113.974C93.7894 113.404 94.2517 112.942 94.822 112.942L112.763 112.942C113.333 112.942 113.796 113.404 113.796 113.974L113.796 119.912C113.796 120.482 113.333 120.944 112.763 120.944L108.826 120.944C108.256 120.944 107.794 121.406 107.794 121.977L107.794 127.914C107.794 128.484 107.332 128.947 106.761 128.947L100.824 128.947C100.254 128.947 99.7913 128.484 99.7913 127.914L99.7913 121.977C99.7913 121.406 99.329 120.944 98.7587 120.944L93.7894 120.944ZM133.802 113.974C133.802 113.404 133.34 112.942 132.769 112.942L126.832 112.942C126.262 112.942 125.8 113.404 125.8 113.974L125.8 119.912C125.8 120.482 125.337 120.944 124.767 120.944L116.829 120.944C116.259 120.944 115.796 121.406 115.796 121.977L115.796 127.914C115.796 128.484 116.259 128.947 116.829 128.947L128.768 128.947C129.339 128.947 129.801 128.484 129.801 127.914L129.801 121.977C129.801 121.406 130.263 120.944 130.833 120.944L132.769 120.944C133.34 120.944 133.802 121.406 133.802 121.977L133.802 129.915C133.802 130.485 134.264 130.947 134.835 130.947L140.772 130.947C141.342 130.947 141.805 130.485 141.805 129.915L141.805 119.976C141.805 119.406 141.342 118.944 140.772 118.944L134.835 118.944C134.264 118.944 133.802 118.481 133.802 117.911L133.802 113.974Z" fill="#292B2E"/>
<path fill-rule="evenodd" clip-rule="evenodd" d="M84.7543 113.974L78.8169 113.974L78.8169 119.912L84.7543 119.912L84.7543 113.974ZM92.7568 127.914L92.7568 121.977L86.8195 121.977L86.8195 127.914L92.7568 127.914ZM85.7869 120.944L93.7894 120.944L93.7894 127.914C93.7894 128.484 93.3271 128.947 92.7568 128.947L86.8195 128.947C86.2492 128.947 85.7869 128.484 85.7869 127.914L85.7869 120.944ZM93.7894 120.944L98.7587 120.944C99.329 120.944 99.7913 121.406 99.7913 121.977L99.7913 127.914C99.7913 128.484 100.254 128.947 100.824 128.947L106.761 128.947C107.332 128.947 107.794 128.484 107.794 127.914L107.794 121.977C107.794 121.406 108.256 120.944 108.826 120.944L112.763 120.944C113.333 120.944 113.796 120.482 113.796 119.912L113.796 113.974C113.796 113.404 113.333 112.942 112.763 112.942L94.822 112.942C94.2517 112.942 93.7894 113.404 93.7894 113.974L93.7894 120.944ZM94.822 119.912L98.7587 119.912C99.8993 119.912 100.824 120.836 100.824 121.977L100.824 127.914L106.761 127.914L106.761 121.977C106.761 120.836 107.686 119.912 108.826 119.912L112.763 119.912L112.763 113.974L94.822 113.974L94.822 119.912ZM78.8169 120.944C78.2467 120.944 77.7844 120.482 77.7844 119.912L77.7844 113.974C77.7844 113.404 78.2467 112.942 78.8169 112.942L84.7543 112.942C85.3246 112.942 85.7869 113.404 85.7869 113.974L85.7869 120.944L78.8169 120.944ZM132.769 113.974L126.832 113.974L126.832 119.912C126.832 121.052 125.908 121.977 124.767 121.977L116.829 121.977L116.829 127.914L128.768 127.914L128.768 121.977C128.768 120.836 129.693 119.912 130.833 119.912L132.769 119.912C133.91 119.912 134.835 120.836 134.835 121.977L134.835 129.915L140.772 129.915L140.772 119.976L134.835 119.976C133.694 119.976 132.769 119.052 132.769 117.911L132.769 113.974ZM132.769 112.942C133.34 112.942 133.802 113.404 133.802 113.974L133.802 117.911C133.802 118.481 134.264 118.944 134.835 118.944L140.772 118.944C141.342 118.944 141.805 119.406 141.805 119.976L141.805 129.915C141.805 130.485 141.342 130.947 140.772 130.947L134.835 130.947C134.264 130.947 133.802 130.485 133.802 129.915L133.802 121.977C133.802 121.406 133.34 120.944 132.769 120.944L130.833 120.944C130.263 120.944 129.801 121.406 129.801 121.977L129.801 127.914C129.801 128.484 129.339 128.947 128.768 128.947L116.829 128.947C116.259 128.947 115.796 128.484 115.796 127.914L115.796 121.977C115.796 121.406 116.259 120.944 116.829 120.944L124.767 120.944C125.337 120.944 125.8 120.482 125.8 119.912L125.8 113.974C125.8 113.404 126.262 112.942 126.832 112.942L132.769 112.942Z" fill="#292B2E"/>
<path d="M85.9527 98.1474C85.9527 97.5769 86.4151 97.1145 86.9855 97.1145L88.9221 97.1145C89.4925 97.1145 89.955 97.5769 89.955 98.1474L89.955 100.084C89.955 100.654 89.4925 101.117 88.9221 101.117L86.9855 101.117C86.4151 101.117 85.9527 100.654 85.9527 100.084L85.9527 98.1474Z" fill="#292B2E"/>
<path fill-rule="evenodd" clip-rule="evenodd" d="M88.9221 98.1474L86.9855 98.1474L86.9855 100.084L88.9221 100.084L88.9221 98.1474ZM86.9855 97.1145C86.4151 97.1145 85.9527 97.5769 85.9527 98.1474L85.9527 100.084C85.9527 100.654 86.4151 101.117 86.9855 101.117L88.9221 101.117C89.4925 101.117 89.955 100.654 89.955 100.084L89.955 98.1474C89.955 97.5769 89.4925 97.1145 88.9221 97.1145L86.9855 97.1145Z" fill="#292B2E"/>
<path d="M85.9529 142.056C85.9529 141.485 86.4154 141.023 86.9858 141.023L88.9224 141.023C89.4928 141.023 89.9552 141.485 89.9552 142.056L89.9552 143.992C89.9552 144.563 89.4928 145.025 88.9224 145.025L86.9858 145.025C86.4154 145.025 85.9529 144.563 85.9529 143.992L85.9529 142.056Z" fill="#292B2E"/>
<path fill-rule="evenodd" clip-rule="evenodd" d="M88.9224 142.056L86.9858 142.056L86.9858 143.992L88.9224 143.992L88.9224 142.056ZM86.9858 141.023C86.4154 141.023 85.9529 141.485 85.9529 142.056L85.9529 143.992C85.9529 144.563 86.4154 145.025 86.9858 145.025L88.9224 145.025C89.4928 145.025 89.9552 144.563 89.9552 143.992L89.9552 142.056C89.9552 141.485 89.4928 141.023 88.9224 141.023L86.9858 141.023Z" fill="#292B2E"/>
<path d="M129.861 98.1474C129.861 97.5769 130.323 97.1145 130.893 97.1145L132.83 97.1145C133.4 97.1145 133.863 97.5769 133.863 98.1474L133.863 100.084C133.863 100.654 133.4 101.117 132.83 101.117L130.893 101.117C130.323 101.117 129.861 100.654 129.861 100.084L129.861 98.1474Z" fill="#292B2E"/>
<path fill-rule="evenodd" clip-rule="evenodd" d="M132.83 98.1474L130.893 98.1474L130.893 100.084L132.83 100.084L132.83 98.1474ZM130.893 97.1145C130.323 97.1145 129.861 97.5769 129.861 98.1474L129.861 100.084C129.861 100.654 130.323 101.117 130.893 101.117L132.83 101.117C133.4 101.117 133.863 100.654 133.863 100.084L133.863 98.1474C133.863 97.5769 133.4 97.1145 132.83 97.1145L130.893 97.1145Z" fill="#292B2E"/>
<path fill-rule="evenodd" clip-rule="evenodd" d="M117.786 89.9781C117.786 89.4079 117.323 88.9456 116.753 88.9456L110.816 88.9456C110.246 88.9456 109.783 89.4079 109.783 89.9781L109.783 96.9481L102.813 96.9481C102.243 96.9481 101.781 97.4104 101.781 97.9807L101.781 107.919C101.781 108.49 102.243 108.952 102.813 108.952L109.783 108.952L116.753 108.952C117.323 108.952 117.786 108.49 117.786 107.919L117.786 101.982C117.786 101.412 117.323 100.949 116.753 100.949L110.816 100.949C110.246 100.949 109.783 100.487 109.783 99.9168L109.783 96.9481L116.753 96.9481C117.323 96.9481 117.786 96.4858 117.786 95.9155L117.786 89.9781Z" fill="#292B2E"/>
<path fill-rule="evenodd" clip-rule="evenodd" d="M116.753 89.9781L110.816 89.9781L110.816 95.9155L116.753 95.9155L116.753 89.9781ZM109.783 96.9481L116.753 96.9481C117.323 96.9481 117.786 96.4858 117.786 95.9155L117.786 89.9781C117.786 89.4079 117.323 88.9456 116.753 88.9456L110.816 88.9456C110.246 88.9456 109.783 89.4079 109.783 89.9781L109.783 96.9481L102.813 96.9481C102.243 96.9481 101.781 97.4104 101.781 97.9807L101.781 107.919C101.781 108.49 102.243 108.952 102.813 108.952L116.753 108.952C117.323 108.952 117.786 108.49 117.786 107.919L117.786 101.982C117.786 101.412 117.323 100.949 116.753 100.949L110.816 100.949C110.246 100.949 109.783 100.487 109.783 99.9168L109.783 96.9481ZM108.751 97.9807L102.813 97.9807L102.813 107.919L116.753 107.919L116.753 101.982L110.816 101.982C109.675 101.982 108.751 101.057 108.751 99.9168L108.751 97.9807Z" fill="#292B2E"/>
<path d="M105.212 146.813C105.245 147.165 105.36 147.501 105.559 147.82C105.757 148.14 106.021 148.399 106.352 148.597C106.693 148.784 107.073 148.878 107.492 148.878C108.02 148.878 108.455 148.751 108.797 148.498C109.149 148.244 109.386 147.952 109.507 147.622L111.176 148.134C110.923 148.839 110.482 149.412 109.854 149.852C109.237 150.293 108.45 150.513 107.492 150.513C106.71 150.513 105.999 150.326 105.36 149.952C104.733 149.577 104.231 149.059 103.857 148.399C103.493 147.738 103.312 146.989 103.312 146.152C103.312 145.337 103.493 144.599 103.857 143.938C104.231 143.277 104.733 142.759 105.36 142.385C105.999 141.999 106.704 141.807 107.475 141.807C108.257 141.807 108.94 141.988 109.524 142.352C110.119 142.704 110.576 143.2 110.895 143.839C111.214 144.478 111.374 145.215 111.374 146.053L111.374 146.813L105.212 146.813ZM109.623 145.293C109.601 145.017 109.507 144.736 109.342 144.45C109.177 144.164 108.934 143.927 108.615 143.74C108.307 143.541 107.932 143.442 107.492 143.442C106.864 143.442 106.352 143.624 105.955 143.987C105.57 144.34 105.327 144.775 105.228 145.293L109.623 145.293Z" fill="#292B2E"/>
<path d="M117.065 150.497C115.919 150.497 114.961 150.216 114.19 149.654C113.43 149.092 112.913 148.277 112.637 147.209L114.521 146.664C114.73 147.358 115.027 147.87 115.413 148.2C115.798 148.52 116.349 148.679 117.065 148.679C117.737 148.679 118.277 148.536 118.684 148.25C119.103 147.964 119.312 147.556 119.312 147.027C119.312 146.609 119.147 146.262 118.816 145.986C118.486 145.711 117.897 145.502 117.048 145.359C115.694 145.105 114.675 144.703 113.992 144.153C113.309 143.602 112.968 142.847 112.968 141.889C112.968 141.228 113.138 140.639 113.48 140.121C113.832 139.604 114.317 139.202 114.934 138.915C115.55 138.618 116.255 138.469 117.048 138.469C118.106 138.469 118.981 138.745 119.675 139.295C120.369 139.846 120.843 140.623 121.096 141.625L119.213 142.154C119.048 141.526 118.794 141.058 118.453 140.749C118.122 140.441 117.654 140.287 117.048 140.287C116.421 140.287 115.919 140.424 115.545 140.7C115.171 140.975 114.983 141.371 114.983 141.889C114.983 142.319 115.171 142.644 115.545 142.864C115.93 143.084 116.553 143.282 117.412 143.459C118.756 143.723 119.741 144.142 120.369 144.714C121.008 145.276 121.327 146.047 121.327 147.027C121.327 147.71 121.14 148.316 120.766 148.845C120.391 149.373 119.879 149.781 119.229 150.067C118.579 150.354 117.858 150.497 117.065 150.497Z" fill="#292B2E"/>
<path d="M123.154 138.717L125.17 138.717L125.17 150.282L123.154 150.282L123.154 138.717Z" fill="#292B2E"/>
<path d="M139.702 150.282L137.702 150.282L137.702 142.451L134.365 150.282L132.944 150.282L129.624 142.5L129.607 150.282L127.608 150.282L127.608 138.717L129.871 138.717L133.655 147.573L137.438 138.717L139.702 138.717L139.702 150.282Z" fill="#292B2E"/>
</g>
</g>
<defs>
<filter id="filter0_d_22_972" x="0" y="0" width="189" height="219" filterUnits="userSpaceOnUse" color-interpolation-filters="sRGB">
<feFlood flood-opacity="0" result="BackgroundImageFix"/>
<feColorMatrix in="SourceAlpha" type="matrix" values="0 0 0 0 0 0 0 0 0 0 0 0 0 0 0 0 0 0 127 0" result="hardAlpha"/>
<feOffset dy="12"/>
<feGaussianBlur stdDeviation="13"/>
<feColorMatrix type="matrix" values="0 0 0 0 0 0 0 0 0 0 0 0 0 0 0 0 0 0 0.06 0"/>
<feBlend mode="normal" in2="BackgroundImageFix" result="effect1_dropShadow_22_972"/>
<feBlend mode="normal" in="SourceGraphic" in2="effect1_dropShadow_22_972" result="shape"/>
</filter>
<linearGradient id="paint0_linear_22_972" x1="174" y1="221" x2="46.5" y2="46.5" gradientUnits="userSpaceOnUse">
<stop stop-color="#FFF7D1"/>
<stop offset="1" stop-color="#FFFDF6"/>
</linearGradient>
<linearGradient id="paint1_linear_22_972" x1="85.6085" y1="85.9961" x2="120.68" y2="195.252" gradientUnits="userSpaceOnUse">
<stop stop-color="white"/>
<stop offset="1" stop-color="#EEEEEE"/>
</linearGradient>
<clipPath id="clip0_22_972">
<rect x="26" y="14" width="137" height="167" rx="16" fill="white"/>
</clipPath>
</defs>
</svg>
