<svg width="44" height="14" viewBox="0 0 44 14" fill="none" xmlns="http://www.w3.org/2000/svg">
<path fill-rule="evenodd" clip-rule="evenodd" d="M33.1421 3.18838C32.9969 3.07755 32.8314 3.02152 32.6451 3.02152C32.2728 3.02152 32.0868 3.25921 32.0868 3.73438V4.46063H33.5369V5.87281H32.0868V11.1719H30.63V5.87281H29.645V4.46063H30.63V3.5461C30.63 2.92741 30.7939 2.44108 31.1217 2.08679C31.4495 1.73271 31.8561 1.55554 32.3416 1.55554C32.738 1.55554 33.0558 1.61612 33.2945 1.7371C33.4856 1.83413 33.6412 1.9384 33.7624 2.0497L33.1421 3.18838ZM20.3123 11.1715H21.9593V1.83794H20.3123V11.1715ZM17.1834 9.38173C16.8448 9.77084 16.4218 9.96543 15.9141 9.96543C15.3978 9.96543 14.9747 9.77311 14.6447 9.38843C14.3147 9.00396 14.1497 8.51193 14.1497 7.91251C14.1497 7.32221 14.3147 6.83472 14.6447 6.45004C14.9747 6.06552 15.3978 5.8731 15.9141 5.8731C16.4218 5.8731 16.8448 6.06552 17.1834 6.45004C17.5217 6.83472 17.6911 7.32221 17.6911 7.91251C17.6911 8.50291 17.5217 8.99261 17.1834 9.38173ZM17.6026 4.85313C17.1032 4.54017 16.5405 4.38358 15.9144 4.38358C15.2966 4.38358 14.7359 4.54017 14.2326 4.85313C13.729 5.16635 13.3355 5.59114 13.0521 6.12782C12.7685 6.66449 12.6269 7.25943 12.6269 7.91227C12.6269 8.56532 12.7685 9.16242 13.0521 9.70353C13.3355 10.2448 13.7268 10.6719 14.2262 10.9849C14.7254 11.2979 15.2881 11.4545 15.9144 11.4545C16.5405 11.4545 17.1032 11.2979 17.6026 10.9849C18.1018 10.6719 18.4953 10.2448 18.7831 9.70353C19.0707 9.16242 19.2146 8.56532 19.2146 7.91227C19.2146 7.25943 19.0707 6.66449 18.7831 6.12782C18.4953 5.59114 18.1018 5.16635 17.6026 4.85313ZM36.2329 11.1715H34.586V1.83794H36.2329V11.1715ZM42.1206 4.38358V7.82279C42.1206 8.37139 41.9872 8.79388 41.7207 9.09064C41.454 9.3873 41.1049 9.53568 40.6732 9.53568C40.2669 9.53568 39.9536 9.4143 39.7337 9.17155C39.5134 8.92879 39.4035 8.51971 39.4035 7.94417V4.38358H37.8799V8.21393C37.8799 9.16709 38.085 9.87754 38.4957 10.3449C38.9061 10.8126 39.4712 11.0462 40.1907 11.0462C40.6392 11.0462 41.0116 10.9676 41.308 10.8102C41.6042 10.653 41.8708 10.4214 42.1079 10.1156L42.1206 10.1561V10.8709C42.1206 11.4283 41.9872 11.8576 41.7207 12.1589C41.454 12.4601 41.0878 12.6108 40.6224 12.6108C39.9843 12.6108 39.5667 12.3605 39.3682 11.8622L38.1091 12.5497C38.2789 12.8856 38.5049 13.1736 38.7877 13.4132C39.249 13.8044 39.8606 14 40.6224 14C41.5702 14 42.311 13.7144 42.8443 13.1435C43.3776 12.5724 43.6442 11.8104 43.6442 10.8574V4.38358H42.1206ZM26.9932 8.91809C26.9932 9.30282 26.868 9.6047 26.6177 9.82377C26.3673 10.043 26.0565 10.1525 25.6855 10.1525C25.3315 10.1525 25.0531 10.0743 24.8504 9.91765C24.6474 9.76133 24.5462 9.55335 24.5462 9.2938C24.5462 9.01662 24.6388 8.8041 24.8245 8.65648C25.01 8.50887 25.3056 8.40385 25.7115 8.34115L26.9932 8.13992V8.91809ZM27.7831 5.00749C27.2737 4.59152 26.6307 4.38358 25.8538 4.38358C25.0942 4.38358 24.4987 4.5513 24.0671 4.88674C23.6389 5.21933 23.3343 5.72175 23.1525 6.393L24.5388 6.65366C24.599 6.34783 24.7197 6.11166 24.9022 5.94663C25.1049 5.76344 25.405 5.67167 25.8021 5.67167C26.5962 5.67167 26.9933 6.07872 26.9933 6.89257V6.97311L25.6079 7.17434C24.6582 7.30849 23.9959 7.57015 23.6204 7.95927C23.2449 8.34832 23.0572 8.82467 23.0572 9.38816C23.0572 9.7997 23.1563 10.162 23.355 10.475C23.5535 10.7882 23.8211 11.0297 24.1577 11.1995C24.4944 11.3693 24.8654 11.4545 25.2712 11.4545C26.1084 11.4545 26.7084 11.1907 27.0709 10.6628L27.2392 11.2666H28.547V6.86581C28.547 6.04294 28.2923 5.42341 27.7831 5.00749ZM5.56857 5.91449C7.34632 6.28012 8.62512 6.10752 9.44778 5.39638V1.83794H10.9796V11.1715H9.44778V7.17164V7.05172C8.81547 7.35873 8.07328 7.51316 7.21438 7.51316C6.70684 7.51316 6.15825 7.45895 5.56857 7.35196V11.1715H4.03731V6.98239C3.83603 6.92298 3.63125 6.85927 3.42196 6.78983C2.3237 6.42588 0.914587 6.60379 0.307203 6.87198L0 5.48221C0.879574 5.16889 2.44625 4.98075 3.81976 5.43609C3.89305 5.46036 3.9653 5.48357 4.03731 5.50653V1.83794H5.56857V5.66489V5.91449Z" fill="#292B2E"/>
</svg>
