<svg width="100" height="100" viewBox="0 0 100 100" fill="none" xmlns="http://www.w3.org/2000/svg">
<path d="M69.5998 11H34.3996C31.9695 11 29.9995 13.1828 29.9995 15.8751V84.1251C29.9995 86.8174 31.9695 89 34.3996 89H69.5998C72.0299 89 73.9998 86.8174 73.9998 84.1251V15.8751C73.9998 13.1828 72.0299 11 69.5998 11Z" fill="#292B2E" stroke="#292B2E" stroke-linecap="round" stroke-linejoin="round"/>
<path d="M65.6003 11H30.4001C27.9699 11 26 13.1828 26 15.8751V84.1251C26 86.8174 27.9699 89 30.4001 89H65.6003C68.0304 89 70.0003 86.8174 70.0003 84.1251V15.8751C70.0003 13.1828 68.0304 11 65.6003 11Z" fill="white" stroke="#292B2E" stroke-linecap="round" stroke-linejoin="round"/>
<path d="M42.9995 14.9746H52.9996" stroke="#292B2E" stroke-linecap="round" stroke-linejoin="round"/>
<rect x="33.3843" y="42.0947" width="29.5389" height="15.7061" rx="7.85303" fill="#292B2E" stroke="#292B2E" stroke-width="0.8" stroke-linecap="round" stroke-linejoin="round"/>
<path d="M40.6709 42.5947C44.6674 42.5948 47.9189 45.8809 47.9189 49.9482C47.9187 54.0153 44.6672 57.3007 40.6709 57.3008C36.6745 57.3008 33.4231 54.0154 33.4229 49.9482C33.4229 45.8809 36.6743 42.5947 40.6709 42.5947Z" fill="#F8F8FB" stroke="#292B2E"/>
</svg>
