<svg width="24" height="24" viewBox="0 0 24 24" fill="none" xmlns="http://www.w3.org/2000/svg">
<g clip-path="url(#clip0_6144_24368)">
<g clip-path="url(#clip1_6144_24368)">
<mask id="mask0_6144_24368" style="mask-type:luminance" maskUnits="userSpaceOnUse" x="-4" y="0" width="32" height="24">
<rect x="-4" width="32" height="24" fill="white"/>
</mask>
<g mask="url(#mask0_6144_24368)">
<path fill-rule="evenodd" clip-rule="evenodd" d="M-4 0V24H28V0H-4Z" fill="#E31D1C"/>
<mask id="mask1_6144_24368" style="mask-type:luminance" maskUnits="userSpaceOnUse" x="-4" y="0" width="32" height="24">
<path fill-rule="evenodd" clip-rule="evenodd" d="M-4 0V24H28V0H-4Z" fill="white"/>
</mask>
<g mask="url(#mask1_6144_24368)">
<path fill-rule="evenodd" clip-rule="evenodd" d="M-4 0V12H28V0H-4Z" fill="#2E42A5"/>
<path fill-rule="evenodd" clip-rule="evenodd" d="M0.79834 11.0533C0.79834 11.0533 2.005 11.8044 4.80118 11.8044C7.59735 11.8044 9.08155 11.0533 9.08155 11.0533C9.08155 11.0533 6.88871 9.77856 4.92803 9.77856C2.96734 9.77856 0.79834 11.0533 0.79834 11.0533Z" fill="#292B2E"/>
<path d="M0.870556 6.74228L0.654475 6.86802L0.726784 6.99228H0.870556H9.1958H9.37898L9.43418 6.81761L9.1958 6.74228C9.43418 6.81761 9.4342 6.81754 9.43423 6.81745L9.43429 6.81723L9.43447 6.81667L9.435 6.81497L9.43672 6.80938L9.44263 6.78964C9.44758 6.77277 9.45449 6.74859 9.46276 6.71786C9.4793 6.65646 9.50134 6.5687 9.52415 6.46081C9.56963 6.24568 9.61887 5.94718 9.63257 5.61597C9.6594 4.96776 9.5524 4.12262 8.92322 3.57567C8.28208 3.01831 7.46858 3.10507 6.76679 3.28047C6.52793 3.34017 6.28437 3.41517 6.0563 3.48541C5.9486 3.51858 5.84436 3.55068 5.74569 3.57961C5.42439 3.67381 5.15655 3.73632 4.94099 3.73632C4.72647 3.73632 4.49 3.6786 4.21238 3.5912C4.12818 3.5647 4.03876 3.53492 3.94574 3.50395C3.74604 3.43745 3.52973 3.36542 3.31273 3.30832C2.65393 3.13494 1.89352 3.06945 1.05065 3.54681C0.611667 3.79542 0.360669 4.14151 0.241822 4.52079C0.125303 4.89265 0.139913 5.28197 0.201944 5.62326C0.264236 5.966 0.377202 6.27583 0.473038 6.49798C0.521219 6.60966 0.56572 6.70067 0.598513 6.76435C0.614925 6.79622 0.628451 6.82134 0.638098 6.83888L0.649552 6.85942L0.652875 6.86525L0.653896 6.86702L0.654242 6.86762L0.654373 6.86784C0.654426 6.86793 0.654475 6.86802 0.870556 6.74228Z" fill="#FFD83D" stroke="#292B2E" stroke-width="0.5"/>
<path d="M-0.113869 6.906L0.00268555 7.12717C-0.113869 6.906 -0.113771 6.90595 -0.113668 6.90589L-0.113429 6.90577L-0.112838 6.90546L-0.111207 6.90461L-0.10614 6.902L-0.0887825 6.89331C-0.0739984 6.88602 -0.0527863 6.8758 -0.0251269 6.86308C0.0301928 6.83765 0.111298 6.80222 0.218341 6.76017C0.43244 6.67606 0.750232 6.56548 1.17292 6.45544C2.0185 6.2353 3.28278 6.01758 4.97516 6.01758C6.66754 6.01758 7.93181 6.2353 8.77739 6.45544C9.20008 6.56548 9.51787 6.67606 9.73197 6.76017C9.83902 6.80222 9.92012 6.83765 9.97544 6.86308C10.0031 6.8758 10.0243 6.88602 10.0391 6.89331L10.0565 6.902L10.0615 6.90461L10.0632 6.90546L10.0637 6.90577L10.064 6.90589C10.0641 6.90595 10.0642 6.906 9.94763 7.12717L10.0642 6.906L10.2589 7.0086L10.1818 7.21474L8.99689 10.3831L8.9143 10.6039L-0.113869 6.906ZM-0.113869 6.906L-0.30683 7.00769L-0.232243 7.21266L0.92072 10.381L1.00123 10.6023L1.22685 10.5352L-0.113869 6.906ZM8.68901 10.5344L8.68906 10.5344L1.22689 10.5352L1.22698 10.5351L1.22776 10.5349L1.23138 10.5338L1.24667 10.5294C1.26039 10.5255 1.28108 10.5196 1.30828 10.512C1.36269 10.497 1.4431 10.4752 1.54584 10.4491C1.7514 10.3968 2.04594 10.3269 2.40008 10.2569C3.10996 10.1167 4.0521 9.97775 4.9941 9.97775C5.93586 9.97775 6.86027 10.1166 7.55205 10.2567C7.89721 10.3266 8.18279 10.3964 8.38158 10.4486C8.48094 10.4747 8.55852 10.4964 8.61092 10.5114C8.63711 10.5189 8.657 10.5248 8.67016 10.5287L8.6848 10.5331L8.68823 10.5342L8.68895 10.5344L8.68901 10.5344Z" fill="#FFD83D" stroke="#292B2E" stroke-width="0.5"/>
<path d="M4.87393 4.26503C5.43365 4.26503 5.7962 3.71822 5.7962 3.16975C5.7962 2.62127 5.43365 2.07446 4.87393 2.07446C4.31421 2.07446 3.95166 2.62127 3.95166 3.16975C3.95166 3.71822 4.31421 4.26503 4.87393 4.26503Z" fill="#FFD83D" stroke="#292B2E" stroke-width="0.5"/>
<mask id="path-10-outside-1_6144_24368" maskUnits="userSpaceOnUse" x="3.11768" y="-1" width="4" height="5" fill="black">
<rect fill="white" x="3.11768" y="-1" width="4" height="5"/>
<path fill-rule="evenodd" clip-rule="evenodd" d="M5.12608 0H4.62188L4.68678 0.922722L4.11768 0.845283V1.47925L4.69552 1.39965L4.62188 2.85283H5.12608L5.05144 1.39721L5.63028 1.47925V0.845283L5.06193 0.926866L5.12608 0Z"/>
</mask>
<path fill-rule="evenodd" clip-rule="evenodd" d="M5.12608 0H4.62188L4.68678 0.922722L4.11768 0.845283V1.47925L4.69552 1.39965L4.62188 2.85283H5.12608L5.05144 1.39721L5.63028 1.47925V0.845283L5.06193 0.926866L5.12608 0Z" fill="#FFD83D"/>
<path d="M4.62188 0V-0.5H4.08547L4.12311 0.0350833L4.62188 0ZM5.12608 0L5.62489 0.0345249L5.66188 -0.5H5.12608V0ZM4.68678 0.922722L4.61937 1.41816L5.2287 1.50107L5.18555 0.887638L4.68678 0.922722ZM4.11768 0.845283L4.18509 0.349849L3.61768 0.27264V0.845283H4.11768ZM4.11768 1.47925H3.61768V2.05284L4.1859 1.97457L4.11768 1.47925ZM4.69552 1.39965L5.19488 1.42496L5.22544 0.821939L4.6273 0.904328L4.69552 1.39965ZM4.62188 2.85283L4.12252 2.82752L4.0959 3.35283H4.62188V2.85283ZM5.12608 2.85283V3.35283H5.65238L5.62542 2.82722L5.12608 2.85283ZM5.05144 1.39721L5.1216 0.902154L4.52103 0.817036L4.55209 1.42281L5.05144 1.39721ZM5.63028 1.47925L5.56012 1.9743L6.13028 2.05511V1.47925H5.63028ZM5.63028 0.845283H6.13028V0.268387L5.55924 0.350356L5.63028 0.845283ZM5.06193 0.926866L4.56312 0.892341L4.52039 1.50972L5.13297 1.42179L5.06193 0.926866ZM4.62188 0.5H5.12608V-0.5H4.62188V0.5ZM5.18555 0.887638L5.12065 -0.0350833L4.12311 0.0350833L4.18801 0.957805L5.18555 0.887638ZM4.05026 1.34072L4.61937 1.41816L4.7542 0.427287L4.18509 0.349849L4.05026 1.34072ZM4.61768 1.47925V0.845283H3.61768V1.47925H4.61768ZM4.6273 0.904328L4.04945 0.983922L4.1859 1.97457L4.76375 1.89497L4.6273 0.904328ZM5.12124 2.87814L5.19488 1.42496L4.19616 1.37434L4.12252 2.82752L5.12124 2.87814ZM5.12608 2.35283H4.62188V3.35283H5.12608V2.35283ZM4.55209 1.42281L4.62674 2.87844L5.62542 2.82722L5.55078 1.3716L4.55209 1.42281ZM5.70044 0.984193L5.1216 0.902154L4.98127 1.89226L5.56012 1.9743L5.70044 0.984193ZM5.13028 0.845283V1.47925H6.13028V0.845283H5.13028ZM5.13297 1.42179L5.70132 1.34021L5.55924 0.350356L4.99088 0.431939L5.13297 1.42179ZM4.62727 -0.0345249L4.56312 0.892341L5.56073 0.961391L5.62489 0.0345249L4.62727 -0.0345249Z" fill="#292B2E" mask="url(#path-10-outside-1_6144_24368)"/>
</g>
</g>
</g>
<g style="mix-blend-mode:hard-light" opacity="0.12">
<rect width="24" height="24" rx="12" fill="white"/>
</g>
<rect width="24" height="24" fill="url(#paint0_linear_6144_24368)" fill-opacity="0.64" style="mix-blend-mode:overlay"/>
</g>
<defs>
<linearGradient id="paint0_linear_6144_24368" x1="24" y1="1.19273e-06" x2="-4.48665" y2="16.0237" gradientUnits="userSpaceOnUse">
<stop stop-color="white" stop-opacity="0.3"/>
<stop offset="0.262741" stop-opacity="0.27"/>
<stop offset="0.369956" stop-color="white" stop-opacity="0.26"/>
<stop offset="0.487001" stop-opacity="0.55"/>
<stop offset="0.594445" stop-opacity="0.24"/>
<stop offset="0.736408" stop-color="white" stop-opacity="0.3"/>
<stop offset="0.901459" stop-color="#272727" stop-opacity="0.22"/>
<stop offset="1" stop-opacity="0.2"/>
</linearGradient>
<clipPath id="clip0_6144_24368">
<rect width="24" height="24" rx="12" fill="white"/>
</clipPath>
<clipPath id="clip1_6144_24368">
<rect width="24" height="24" fill="white"/>
</clipPath>
</defs>
</svg>
