<svg width="24" height="24" viewBox="0 0 24 24" fill="none" xmlns="http://www.w3.org/2000/svg">
<g clip-path="url(#clip0_6144_24398)">
<g clip-path="url(#clip1_6144_24398)">
<mask id="mask0_6144_24398" style="mask-type:luminance" maskUnits="userSpaceOnUse" x="-4" y="0" width="32" height="24">
<rect x="-4" width="32" height="24" fill="white"/>
</mask>
<g mask="url(#mask0_6144_24398)">
<path fill-rule="evenodd" clip-rule="evenodd" d="M-4 0H28V24H-4V0Z" fill="#F7FCFF"/>
<rect x="-3.9729" y="5" width="32" height="2.9" fill="#E31D1C"/>
<rect x="-3.9729" y="10.2" width="32" height="2.9" fill="#E31D1C"/>
<rect x="-3.88843" y="15.2" width="32" height="2.5" fill="#E31D1C"/>
<rect x="-3.88843" y="20.2" width="32" height="2.7" fill="#E31D1C"/>
<path fill-rule="evenodd" clip-rule="evenodd" d="M-4 0H28V2.5H-4V0Z" fill="#E31D1C"/>
<path fill-rule="evenodd" clip-rule="evenodd" d="M-4 0H12V12H-4V0Z" fill="#3D58DB"/>
<path fill-rule="evenodd" clip-rule="evenodd" d="M-0.406493 6.20216C-0.406493 7.57838 0.24173 8.87979 1.56048 8.87979C3.53906 8.87979 3.92399 8.45797 4.84724 7.876C5.06552 8.36627 4.32926 10.4644 1.53348 10.4644C-0.702781 10.4194 -2.51001 8.62282 -2.51001 6.20216C-2.51001 3.42364 -0.466434 1.9231 1.47736 1.94008C3.19338 1.94008 5.01341 2.91384 4.95764 4.15606C4.14909 3.36622 3.27115 3.36622 1.80966 3.36622C0.348176 3.36622 -0.406493 4.82576 -0.406493 6.20216Z" fill="#FECA00"/>
<path fill-rule="evenodd" clip-rule="evenodd" d="M7 7.30005L6.07295 8.65322L6.11832 7.01357L4.57295 7.5634L5.57342 6.26357L4 5.80005L5.57342 5.33652L4.57295 4.03669L6.11832 4.58652L6.07295 2.94688L7 4.30005L7.92705 2.94688L7.88168 4.58652L9.42705 4.03669L8.42658 5.33652L10 5.80005L8.42658 6.26357L9.42705 7.5634L7.88168 7.01357L7.92705 8.65322L7 7.30005Z" fill="#FECA00"/>
</g>
</g>
<g style="mix-blend-mode:hard-light" opacity="0.12">
<rect width="24" height="24" rx="12" fill="white"/>
</g>
<rect width="24" height="24" fill="url(#paint0_linear_6144_24398)" fill-opacity="0.64" style="mix-blend-mode:overlay"/>
</g>
<defs>
<linearGradient id="paint0_linear_6144_24398" x1="24" y1="1.19273e-06" x2="-4.48665" y2="16.0237" gradientUnits="userSpaceOnUse">
<stop stop-color="white" stop-opacity="0.3"/>
<stop offset="0.262741" stop-opacity="0.27"/>
<stop offset="0.369956" stop-color="white" stop-opacity="0.26"/>
<stop offset="0.487001" stop-opacity="0.55"/>
<stop offset="0.594445" stop-opacity="0.24"/>
<stop offset="0.736408" stop-color="white" stop-opacity="0.3"/>
<stop offset="0.901459" stop-color="#272727" stop-opacity="0.22"/>
<stop offset="1" stop-opacity="0.2"/>
</linearGradient>
<clipPath id="clip0_6144_24398">
<rect width="24" height="24" rx="12" fill="white"/>
</clipPath>
<clipPath id="clip1_6144_24398">
<rect width="24" height="24" fill="white"/>
</clipPath>
</defs>
</svg>
