<svg xmlns="http://www.w3.org/2000/svg" id="Layer_1" viewBox="0 0 184 100"><defs><style>.cls-1{fill:#56575a;stroke-width:0px;}</style></defs><path class="cls-1" d="M51.18,68.65c-3.12-.12-5.67-.98-7.67-2.56-.38-.3-1.29-1.21-1.59-1.59-.81-1.02-1.36-2.01-1.73-3.11-1.13-3.38-.55-7.82,1.66-12.7,1.89-4.17,4.82-8.31,9.91-14.04.75-.84,2.99-3.31,3-3.31,0,0-.12.21-.27.47-1.33,2.22-2.46,4.84-3.08,7.1-.99,3.63-.87,6.75.35,9.17.84,1.67,2.29,3.11,3.92,3.91,2.85,1.4,7.02,1.51,12.11.34.35-.08,17.72-4.69,38.61-10.25,20.88-5.56,37.97-10.1,37.97-10.09,0,0-48.52,20.77-73.71,31.54-3.99,1.71-5.06,2.14-6.93,2.79-4.79,1.68-9.09,2.49-12.56,2.35h0Z"></path></svg>