<svg xmlns="http://www.w3.org/2000/svg" id="Layer_1" data-name="Layer 1" viewBox="0 0 36 36"><defs><style>      .cls-1 {        fill: #292b2e;        stroke: #292b2e;        stroke-width: .2px;      }    </style></defs><path class="cls-1" d="M18,27.8c1,0,1.9-.2,2.8-.6.9-.4,1.7-.9,2.4-1.5.2-.2.3-.4.3-.6,0-.2,0-.4-.3-.6-.2-.2-.4-.2-.6-.2-.2,0-.4,0-.6.3-.6.5-1.2.8-1.9,1.1s-1.4.4-2.1.4-1.4-.1-2.1-.4c-.7-.3-1.3-.6-1.9-1.1-.2-.2-.4-.2-.6-.3-.2,0-.4,0-.6.2-.2.2-.3.4-.3.6,0,.2.1.4.3.6.7.6,1.6,1.2,2.4,1.5s1.8.6,2.8.6ZM18,35c-2.4,0-4.6-.4-6.6-1.3-2.1-.9-3.9-2.1-5.4-3.6-1.5-1.5-2.7-3.3-3.6-5.4-.9-2.1-1.3-4.3-1.3-6.6s.4-4.6,1.3-6.6c.9-2.1,2.1-3.9,3.6-5.4,1.5-1.5,3.3-2.7,5.4-3.6,2.1-.9,4.3-1.3,6.6-1.3s4.6.4,6.6,1.3c2.1.9,3.9,2.1,5.4,3.6,1.5,1.5,2.7,3.3,3.6,5.4.9,2.1,1.3,4.3,1.3,6.6s-.4,4.6-1.3,6.6c-.9,2.1-2.1,3.9-3.6,5.4-1.5,1.5-3.3,2.7-5.4,3.6-2.1.9-4.3,1.3-6.6,1.3ZM18,33.5c4.3,0,8-1.5,11-4.5,3-3,4.5-6.7,4.5-11s-1.5-8-4.5-11c-3-3-6.7-4.5-11-4.5s-8,1.5-11,4.5c-3,3-4.5,6.7-4.5,11s1.5,8,4.5,11c3,3,6.7,4.5,11,4.5ZM11.6,17.4c.9,0,1.7-.3,2.5-.9.7-.6,1.3-1.3,1.7-2.2,0-.2,0-.4,0-.6,0-.2-.3-.3-.5-.4-.2,0-.4,0-.6,0-.2.1-.4.3-.5.5-.2.5-.6.9-1,1.3-.4.4-.9.6-1.5.6s-1.1-.2-1.5-.6c-.4-.4-.8-.8-1-1.3,0-.2-.2-.4-.4-.5-.2-.1-.4-.1-.6,0-.2,0-.4.2-.5.4s0,.4,0,.7c.4.9.9,1.6,1.6,2.1.7.6,1.5.8,2.4.8ZM24.4,17.4c.9,0,1.7-.3,2.5-.9.7-.6,1.3-1.3,1.7-2.2,0-.2,0-.4,0-.6,0-.2-.3-.3-.5-.4-.2,0-.4,0-.6,0-.2.1-.4.3-.5.5-.2.5-.6.9-1,1.3-.4.4-.9.6-1.5.6s-1.1-.2-1.5-.6c-.4-.4-.8-.8-1-1.3,0-.2-.2-.4-.4-.5-.2-.1-.4-.1-.6,0-.2,0-.4.2-.5.4s0,.4,0,.7c.4.9.9,1.6,1.6,2.1s1.5.8,2.4.8Z"></path></svg>