<svg width="131" height="99" fill="none" xmlns="http://www.w3.org/2000/svg"><path d="M62.504 35.605 50.257 48.378s-15.6-13.116-27.178-18.833c-3.286-1.622-7.595-3.314-11.24-4.652-3.391-1.244-4.47-5.596-1.97-8.203l4.867-5.077c1.22-1.272 3.026-1.792 4.723-1.314 3.864 1.09 10.972 3.25 15.843 5.654C46.88 21.67 62.504 35.605 62.504 35.605Z" fill="#292B2E"/><rect x="18.89" y="78.465" width="54.924" height="94.788" rx=".874" transform="rotate(-90 18.89 78.465)" fill="#fff" stroke="#292B2E" stroke-width=".7"/><path d="M37.544 71.862h-8.807s.418-2.498-.927-3.709c-1.211-1.09-3.245-.927-3.245-.927V33.852s2.162.29 3.245-.927c.962-1.083.927-2.782.927-2.782h8.807" stroke="#292B2E" stroke-width=".7" stroke-linecap="round" stroke-linejoin="round"/><path d="m36.318 71.79 64.894-.01s-.418-2.498.928-3.709c1.21-1.09 3.244-.927 3.244-.927V33.77s-2.162.29-3.244-.928c-.963-1.082-.928-2.78-.928-2.78l-64.894.009" stroke="#292B2E" stroke-width=".7" stroke-linecap="round" stroke-linejoin="round"/><path d="M66.308 36.819c7.511 0 13.6 6.101 13.6 13.628s-6.089 13.629-13.6 13.629c-7.512 0-13.601-6.102-13.601-13.629 0-7.527 6.09-13.628 13.6-13.628ZM93.896 45.638a4.81 4.81 0 1 1 0 9.62 4.81 4.81 0 0 1 0-9.62ZM38.581 45.638a4.81 4.81 0 1 1 0 9.62 4.81 4.81 0 0 1 0-9.62Z" fill="#292B2E" stroke="#292B2E" stroke-width=".7" stroke-linecap="round"/><rect x="38.971" y="98.482" width="54.924" height="94.788" rx=".874" transform="rotate(-120 38.97 98.482)" fill="#fff" stroke="#292B2E" stroke-width=".7"/><path d="m51.824 83.437-7.627 4.403s-.886-2.372-2.657-2.748c-1.594-.338-3.274.82-3.274.82L21.58 57.009s2.018-.83 2.346-2.426c.293-1.418-.587-2.872-.587-2.872l7.627-4.403" stroke="#292B2E" stroke-width=".7" stroke-linecap="round" stroke-linejoin="round"/><path d="m50.726 83.987 56.195-32.456s-1.611-1.953-1.051-3.675c.504-1.55 2.347-2.425 2.347-2.425L91.529 16.528s-1.727 1.333-3.273.82c-1.375-.457-2.194-1.946-2.194-1.946L29.867 47.858" stroke="#292B2E" stroke-width=".7" stroke-linecap="round" stroke-linejoin="round"/><path d="M59.214 38.706c6.505-3.755 14.83-1.516 18.593 5.003 3.763 6.518 1.54 14.847-4.965 18.603-6.505 3.755-14.83 1.516-18.593-5.002-3.763-6.519-1.54-14.848 4.965-18.604ZM87.515 32.55a4.81 4.81 0 1 1 4.81 8.331 4.81 4.81 0 0 1-4.81-8.331ZM39.61 60.207a4.81 4.81 0 1 1 4.81 8.331 4.81 4.81 0 0 1-4.81-8.331Z" fill="#292B2E" stroke="#292B2E" stroke-width=".7" stroke-linecap="round"/><path d="m86.975 41.818-9.168 15.136s16.706 11.673 25.225 21.377c2.417 2.754 5.167 6.479 7.402 9.653 2.08 2.954 6.563 2.87 8.434-.22l3.622-5.98c.925-1.527.943-3.435-.021-4.937-1.9-2.959-5.491-8.208-10.269-13.651-8.519-9.704-25.225-21.378-25.225-21.378Z" fill="#292B2E"/><rect x="25.989" y="90.413" width="54.924" height="94.788" rx=".874" transform="rotate(-105 25.99 90.413)" fill="#fff" stroke="#292B2E" stroke-width=".7"/><path d="M106.512 58.614c-1.089 1.563.004 3.891.004 3.891L33.991 82.026s-.218-2.562-1.942-3.371c-1.551-.728-3.633 0-3.633 0l-8.757-32.678s2.336-.32 3.148-1.816c.72-1.33.239-2.983.239-2.983L95.57 21.657s.41 1.673 1.699 2.463c1.45.89 3.634 0 3.634 0l8.756 32.678s-2.168.41-3.147 1.816Z" stroke="#292B2E" stroke-width=".7" stroke-linecap="round" stroke-linejoin="round"/><path d="M61.013 37.913c7.256-1.944 14.717 2.373 16.665 9.644 1.948 7.27-2.355 14.74-9.61 16.684-7.256 1.944-14.717-2.374-16.665-9.644-1.948-7.27 2.355-14.74 9.61-16.684Z" fill="#fff" stroke="#292B2E" stroke-width=".7" stroke-linecap="round"/><path d="M69.274 52.154c.254.886.157 1.719-.293 2.5-.45.78-1.154 1.38-2.11 1.797l.32 1.115-1.59.457-.321-1.115c-.942.141-1.798.027-2.567-.344-.759-.373-1.394-.995-1.905-1.866l1.414-.887c.344.576.726.999 1.146 1.268.43.256.922.363 1.478.32l-1.124-3.902c-1.11.048-2.006-.103-2.686-.451-.684-.36-1.147-.96-1.39-1.802-.248-.864-.166-1.669.247-2.415.41-.757 1.07-1.343 1.98-1.76l-.312-1.081 1.59-.458.316 1.099c.855-.116 1.622.018 2.3.403.687.37 1.264.956 1.731 1.757l-1.397.881c-.289-.509-.611-.89-.968-1.142a1.93 1.93 0 0 0-1.231-.391l1.043 3.624c1.23-.047 2.195.12 2.895.498.698.367 1.176 1 1.434 1.895Zm-7.987-3.382c.113.393.324.676.634.847.318.157.76.237 1.33.239l-.944-3.28c-.44.245-.751.56-.936.944-.189.374-.217.79-.084 1.25Zm5.154 6.187c.496-.25.853-.572 1.071-.966.226-.408.267-.864.122-1.367a1.52 1.52 0 0 0-.649-.896c-.311-.218-.834-.328-1.568-.33l1.024 3.559Z" fill="#292B2E"/><path d="M89.943 39.29a4.81 4.81 0 1 1 2.49 9.293 4.81 4.81 0 0 1-2.49-9.293ZM36.513 53.607a4.81 4.81 0 1 1 2.49 9.292 4.81 4.81 0 0 1-2.49-9.292Z" fill="#fff" stroke="#292B2E" stroke-width=".7" stroke-linecap="round"/><mask id="a" fill="#fff"><path fill-rule="evenodd" clip-rule="evenodd" d="M40.008 54.39a1.224 1.224 0 0 1-1.384 1.383L10.5 51.785c-.999-.142-1.407-1.364-.693-2.077l5.665-5.665C13.3 42.2 9.521 38.769 7.563 35.68c-2.717-4.285-3.879-8.25-4.367-10.596-.288-1.383.232-2.765 1.23-3.763l9.37-9.37c.681-.681 1.864-.349 2.115.582.749 2.768 2.228 7.579 4.164 10.634 1.958 3.088 5.737 6.52 7.91 8.363l5.96-5.96c.713-.714 1.935-.306 2.076.693l3.987 28.125Z"/></mask><path fill-rule="evenodd" clip-rule="evenodd" d="M40.008 54.39a1.224 1.224 0 0 1-1.384 1.383L10.5 51.785c-.999-.142-1.407-1.364-.693-2.077l5.665-5.665C13.3 42.2 9.521 38.769 7.563 35.68c-2.717-4.285-3.879-8.25-4.367-10.596-.288-1.383.232-2.765 1.23-3.763l9.37-9.37c.681-.681 1.864-.349 2.115.582.749 2.768 2.228 7.579 4.164 10.634 1.958 3.088 5.737 6.52 7.91 8.363l5.96-5.96c.713-.714 1.935-.306 2.076.693l3.987 28.125Z" fill="#C5FFDB"/><path d="m38.624 55.773.099-.694-.099.694Zm1.384-1.384-.693.098.693-.098Zm-29.509-2.603-.098.693.098-.693Zm-.693-2.077-.495-.495.495.495Zm5.665-5.665.453-.534a.7.7 0 0 1 .042 1.029l-.495-.495ZM7.563 35.68l.59-.375-.59.375ZM3.196 25.085l.685-.143-.685.142Zm1.23-3.763.495.495-.495-.495Zm9.37-9.37-.496-.494.495.495Zm2.115.582.676-.182-.676.182Zm4.164 10.634-.59.375.59-.375Zm7.91 8.363.494.495a.7.7 0 0 1-.948.038l.453-.533Zm5.96-5.96-.496-.495.495.495Zm2.076.693-.693.098.693-.098Zm2.702 28.816a.524.524 0 0 0 .592-.593l1.386-.196a1.924 1.924 0 0 1-2.175 2.175l.197-1.386Zm-28.125-3.987 28.125 3.986-.197 1.387-28.125-3.987.197-1.386Zm-.297-.89a.524.524 0 0 0 .297.89l-.197 1.386c-1.57-.223-2.212-2.143-1.09-3.265l.99.99Zm5.665-5.664-5.665 5.665-.99-.99 5.665-5.665.99.99Zm-7.812-9.233c1.894 2.988 5.595 6.358 7.77 8.204l-.906 1.067c-2.169-1.84-6.026-5.333-8.047-8.521l1.183-.75ZM3.88 24.942c.476 2.285 1.612 6.167 4.273 10.364l-1.183.75c-2.771-4.373-3.96-8.423-4.46-10.829l1.37-.285Zm1.04-3.125c-.86.86-1.271 2.012-1.04 3.125l-1.37.285c-.344-1.65.284-3.264 1.42-4.4l.99.99Zm9.37-9.37-9.37 9.37-.99-.99 9.37-9.37.99.99Zm.945.27c-.116-.429-.657-.558-.946-.27l-.99-.99c1.075-1.075 2.9-.539 3.287.895l-1.351.365Zm4.248 10.826c-2-3.155-3.5-8.061-4.248-10.826l1.351-.365c.75 2.77 2.206 7.486 4.08 10.442l-1.183.749Zm8.047 8.522c-2.169-1.842-6.026-5.333-8.047-8.522l1.183-.75c1.894 2.988 5.595 6.358 7.77 8.204l-.906 1.068Zm6.908-6-5.96 5.96-.99-.99 5.96-5.96.99.99Zm.89.297a.524.524 0 0 0-.89-.296l-.99-.99c1.122-1.122 3.043-.48 3.265 1.09l-1.386.196Zm3.986 28.125-3.987-28.125 1.386-.196 3.987 28.125-1.386.196Z" fill="#292B2E" mask="url(#a)"/><mask id="b" fill="#fff"><path fill-rule="evenodd" clip-rule="evenodd" d="M49.07 62.156a1.224 1.224 0 0 0-.979 1.694l11.13 26.135c.396.928 1.682 1.006 2.186.132l4.191-7.259c5.01 2.367 18.827 8.644 28.972 10.89 5.235 1.158 12.632 1.94 16.743 2.314a4.804 4.804 0 0 0 4.591-2.4l6.337-10.978a1.237 1.237 0 0 0-.966-1.849c-3.746-.323-12.107-1.14-17.857-2.412-10.145-2.246-23.962-8.523-28.972-10.89l4.03-6.979c.504-.874-.206-1.948-1.208-1.827L49.07 62.156Z"/></mask><path fill-rule="evenodd" clip-rule="evenodd" d="M49.07 62.156a1.224 1.224 0 0 0-.979 1.694l11.13 26.135c.396.928 1.682 1.006 2.186.132l4.191-7.259c5.01 2.367 18.827 8.644 28.972 10.89 5.235 1.158 12.632 1.94 16.743 2.314a4.804 4.804 0 0 0 4.591-2.4l6.337-10.978a1.237 1.237 0 0 0-.966-1.849c-3.746-.323-12.107-1.14-17.857-2.412-10.145-2.246-23.962-8.523-28.972-10.89l4.03-6.979c.504-.874-.206-1.948-1.208-1.827L49.07 62.156Z" fill="#C5FFDB"/><path d="m48.091 63.85-.644.274.644-.274Zm.979-1.694-.085-.695.085.695ZM59.22 89.985l.645-.274-.645.274Zm2.186.132.606.35-.606-.35Zm4.191-7.259.3-.633a.7.7 0 0 0-.906.283l.606.35Zm28.972 10.89.151-.684-.151.684Zm16.743 2.314-.064.697.064-.697Zm4.591-2.4-.606-.35.606.35Zm6.337-10.978-.606-.35.606.35Zm-.966-1.849.06-.697-.06.697Zm-17.857-2.412.151-.684-.151.684Zm-28.972-10.89-.606-.35a.7.7 0 0 0 .307.983l.3-.633Zm4.03-6.979-.607-.35.607.35Zm-1.208-1.827.085.695-.085-.695Zm-28.532 4.849a.524.524 0 0 1 .418-.725l-.169-1.39a1.924 1.924 0 0 0-1.538 2.663l1.288-.548Zm11.13 26.135-11.13-26.135-1.289.548 11.13 26.135 1.289-.548Zm.935.056a.524.524 0 0 1-.935-.056l-1.288.548c.621 1.46 2.642 1.582 3.435.208l-1.212-.7Zm4.191-7.259-4.191 7.26 1.212.7 4.191-7.26-1.212-.7Zm29.73 10.556c-10.058-2.226-23.808-8.47-28.825-10.839l-.598 1.266c5.003 2.363 18.887 8.675 29.12 10.94l.302-1.367Zm16.654 2.3c-4.111-.374-11.468-1.152-16.655-2.3l-.302 1.367c5.283 1.17 12.72 1.953 16.83 2.328l.127-1.394Zm3.922-2.053a4.106 4.106 0 0 1-3.922 2.054l-.127 1.394a5.504 5.504 0 0 0 5.261-2.748l-1.212-.7Zm6.337-10.977-6.337 10.977 1.212.7 6.338-10.977-1.213-.7Zm-.42-.801a.537.537 0 0 1 .42.801l1.213.7c.709-1.228-.105-2.774-1.513-2.896l-.12 1.395Zm-17.948-2.427c5.801 1.284 14.204 2.104 17.948 2.427l.12-1.395c-3.749-.323-12.066-1.137-17.766-2.399l-.302 1.367Zm-29.12-10.94c5.003 2.363 18.887 8.675 29.12 10.94l.302-1.367C93.511 75.513 79.762 69.27 74.745 66.9l-.598 1.266Zm3.722-7.962-4.03 6.98 1.213.7 4.03-6.98-1.213-.7Zm-.516-.782a.524.524 0 0 1 .516.782l1.213.7c.793-1.374-.324-3.063-1.898-2.872l.169 1.39Zm-28.199 3.429 28.199-3.429-.17-1.39-28.198 3.429.17 1.39Z" fill="#292B2E" mask="url(#b)"/></svg>