<svg xmlns="http://www.w3.org/2000/svg" id="Layer_1" viewBox="0 0 184 100"><defs><style>.cls-1{fill:#56575a;stroke-width:0px;}</style></defs><path class="cls-1" d="M115.76,64.53c.54,0,.79.55,1,1.39,0,.41.21.97.35,1.58.49,2.69,1.19,5.34,2.08,7.92.41,1.06,1.03,1.58,1.74,1.58,1.08,0,2.19-1.28,2.82-3.28.82-2.65,5.85-24.46,7.92-33.59.03-.2.08-.4.14-.6.01-.14.13-.25.27-.27.11,0,.24.1.24.3h0c.16,9.25.62,25.48,1.32,27.14.36.92.95,1.41,1.58,1.41,1.07-.15,2.01-.79,2.55-1.73l1.32-1.93c1.19-1.77,2.53-3.8,2.95-4.23s1.28-.63,2.27,0l.49.35c1.44,1.05,3.05,1.84,4.75,2.34,1.35.32,2.74.46,4.14.43h1.79l.54-2.92h-1.74c-1.34.05-2.68-.09-3.98-.41-1.23-.51-2.37-1.23-3.37-2.11-.57-.43-1.14-.87-1.77-1.3-.56-.39-1.23-.62-1.92-.65-1.02.11-1.96.64-2.58,1.46-1.54,1.79-2.96,3.68-4.23,5.67-.04.09-.13.15-.22.16-.21,0-.21-.27-.21-.35,0-3.5-.6-22.67-.98-28.39-.16-2.53-.95-4.09-2.04-4.09s-2.19,1.16-3.01,4.45c-2.09,8.41-6.56,27.08-8.49,36.57,0,.25-.33.25-.4,0-.21-.97-.4-2.08-.57-2.99-.28-2.38-.98-4.7-2.06-6.84-1.11-1.58-2.76-1.68-4.75-.35-.43.3-.86.67-1.32,1.05-1.33,1.44-3.19,2.3-5.15,2.38h-23.56l-.57,3.17h24.8c2.32-.17,4.53-1.03,6.34-2.49.45-.41.99-.69,1.58-.81"></path><path class="cls-1" d="M48.5,52.73c-4.48-.25-3.09-9.63,1.68-9.38,4.77.25,3.3,9.65-1.68,9.38M54.57,41.45l-.4,2.04c-.92-1.55-2.64-2.45-4.44-2.31-4.23,0-6.75,3.5-7.16,7.22-.49,4.28,2.27,6.77,5.07,6.77,1.97.14,3.85-.83,4.9-2.5v.21c-.18.92.43,1.81,1.35,1.98.14.03.27.04.41.03h.86l2.36-13.44h-2.95Z"></path><path class="cls-1" d="M94.34,52.73c-4.48-.25-3.09-9.63,1.68-9.36s3.3,9.63-1.68,9.36M100.44,41.45l-.4,2.04c-.91-1.52-2.59-2.42-4.36-2.31-4.25,0-6.77,3.5-7.18,7.24-.49,4.26,2.27,6.75,5.07,6.75,1.97.14,3.85-.83,4.9-2.5v.21c-.18.92.43,1.81,1.35,1.98.14.03.27.04.41.03h.86l2.34-13.44h-2.99Z"></path><path class="cls-1" d="M76.45,41.43h-.76l-2.41,13.47h3.04l2.06-11.39c.15-.99-.52-1.91-1.51-2.06-.14-.02-.28-.03-.42-.02"></path><path class="cls-1" d="M79.3,36.7c-.62-.8-1.76-.94-2.56-.32-.8.62-.94,1.76-.32,2.56.7.72,1.85.75,2.58.05.61-.58.73-1.51.31-2.23"></path><path class="cls-1" d="M40.53,49.23c0-5.58-6.83-4.75-6.83-8.41.14-1.52,1.48-2.63,2.99-2.5.03,0,.06,0,.1.01,1.38-.05,2.74.39,3.83,1.24.13-.22,1.12-2,1.28-2.46-1.44-.91-3.14-1.34-4.85-1.2-4.31,0-6.54,3.09-6.54,5.47,0,5.59,6.91,4.83,6.91,8.29,0,2.3-2.11,2.98-3.95,2.98-1.52-.01-2.99-.58-4.14-1.58-.17.33-.93,1.74-1.35,2.49,1.64,1.08,3.57,1.63,5.53,1.58,3.88,0,7.05-2.5,7.05-5.96"></path><path class="cls-1" d="M110.2,43.14c1.06-.03,2.11.26,2.99.86.13-.24.87-1.58,1.08-2.04-1.14-.68-2.46-1.01-3.79-.93h0c-3.69,0-5.48,2.42-5.48,4.29,0,3.85,5.34,3.17,5.34,5.61,0,1.17-1.19,1.95-2.79,1.95-1.19-.06-2.33-.46-3.3-1.16-.13.25-.86,1.58-1.09,1.98,1.33.93,2.92,1.41,4.55,1.36,3.17,0,5.69-2.11,5.69-4.45,0-3.98-5.39-3.55-5.39-5.78,0-.87,1.03-1.68,2.23-1.68"></path><path class="cls-1" d="M85.01,43.68h3.34l.38-2.14h-3.33l.36-2.08c.2-.96-.42-1.9-1.38-2.1-.18-.04-.36-.05-.54-.03h-.76l-.74,4.12h-1.92l-.4,2.22h1.92l-1.28,7.26c-.61,1.7.27,3.58,1.98,4.2.5.18,1.04.24,1.57.16.78,0,1.55-.09,2.3-.3.16-.76.46-2.41.46-2.41-1.08.33-3.71.82-3.28-1.58l1.32-7.32Z"></path><path class="cls-1" d="M67.17,54.9h3.06l1.58-8.43c.57-3.17-1.08-5.31-3.66-5.31-1.95-.13-3.82.79-4.9,2.42.2-.96-.41-1.9-1.37-2.1-.14-.03-.29-.04-.44-.04h-.76l-2.42,13.45h3.04l1.27-6.97c.65-3.53,2.82-4.34,4.34-4.34.73,0,2.28.49,1.82,3.03-.65,3.61-1.58,8.29-1.58,8.29"></path></svg>