<svg xmlns="http://www.w3.org/2000/svg" id="Layer_1" data-name="Layer 1" viewBox="0 0 36 36"><defs><style>      .cls-1 {        fill: #292b2e;        stroke-width: 0px;      }    </style></defs><path class="cls-1" d="M27.8,36c2-.2,3.8-1.1,5.4-2.6,1.6-1.5,2.5-3.4,2.8-5.6,0-.2,0-.4-.2-.6-.2-.2-.3-.2-.6-.2s-.3,0-.5.2c-.2.1-.2.3-.3.5-.3,1.8-1,3.3-2.3,4.6-1.2,1.3-2.7,2-4.5,2.3-.2,0-.3.1-.5.3-.1.1-.2.3-.2.5s0,.4.2.6c.2.1.3.2.6.2ZM.8,9c.2,0,.3,0,.5-.2.2-.1.2-.3.3-.5.3-1.8,1-3.3,2.3-4.6,1.2-1.3,2.7-2,4.5-2.3.2,0,.3-.1.5-.3.1-.1.2-.3.2-.5s0-.4-.2-.6c-.2-.2-.3-.2-.6-.2-2.1.3-4,1.2-5.5,2.7C1.2,4.2.3,6.1,0,8.2c0,.2,0,.4.2.6.2.2.3.2.6.2ZM6.3,30.5c-2.4-2.4-3.6-5.1-3.6-8.2s1.2-5.8,3.6-8.2l6.2-6.2c.5-.5,1.1-.8,1.8-.8s1.3.3,1.8.8c.3.3.5.6.6,1,.1.4,0,.9-.1,1.3l5.8-5.8c.5-.5,1.1-.8,1.8-.8.7,0,1.3.3,1.8.8.3.3.5.6.6,1,0,.4,0,.8,0,1.1l1.4-1.4c.5-.5,1.1-.8,1.8-.7.7,0,1.3.3,1.9.8.6.6.8,1.3.7,2-.1.7-.6,1.5-1.4,2.3.3-.1.7-.1,1,0,.4,0,.7.3,1.1.7.5.5.8,1.1.8,1.8s-.3,1.3-.8,1.8l-2.8,2.9c.4-.2.8-.3,1.3-.2.4,0,.8.2,1.2.6.5.5.8,1.1.8,1.8,0,.7-.3,1.3-.8,1.8l-9.9,9.9c-2.4,2.4-5.2,3.6-8.2,3.6s-5.8-1.2-8.2-3.6ZM11.4,14.1l3.6-3.7c.2-.2.3-.5.3-.8,0-.3-.1-.5-.3-.7-.2-.2-.5-.4-.8-.4-.3,0-.6.1-.8.4l-6.2,6.2c-1.1,1.1-1.8,2.2-2.4,3.4-.5,1.2-.8,2.5-.8,3.8s.3,2.5.8,3.8c.5,1.2,1.3,2.4,2.4,3.4,1.1,1.1,2.2,1.8,3.4,2.4,1.2.5,2.5.8,3.8.8s2.5-.3,3.8-.8c1.2-.5,2.4-1.3,3.4-2.4l9.9-9.9c.2-.2.4-.5.4-.8s-.1-.6-.4-.8c-.2-.2-.5-.4-.8-.4s-.6.1-.8.4l-5.2,5.2c-.2.2-.5.3-.8.3-.3,0-.6-.1-.8-.3-.2-.2-.3-.5-.3-.8s.1-.6.3-.8l8.7-8.7c.2-.2.4-.5.4-.8s-.1-.6-.4-.8c-.2-.2-.5-.4-.8-.4-.3,0-.6.1-.8.4l-7.5,7.5c-.2.2-.5.3-.8.3s-.6-.1-.8-.3c-.2-.2-.3-.5-.3-.8,0-.3.1-.6.4-.8l9.3-9.3c.2-.2.4-.5.3-.8,0-.3-.1-.6-.3-.8-.2-.2-.5-.4-.8-.4s-.6.1-.8.4l-9.3,9.3c-.2.2-.5.3-.8.3s-.6-.1-.8-.3c-.2-.2-.3-.5-.3-.8s.1-.6.3-.8l7-6.9c.2-.2.3-.5.3-.8,0-.3-.1-.6-.3-.8-.2-.2-.5-.4-.8-.4s-.6.1-.8.4l-10.2,10.2c.5,1.3.8,2.6.8,3.9,0,1.3-.4,2.7-1.1,4-.2.3-.4.5-.7.5-.3,0-.6,0-.9-.3-.1-.1-.2-.3-.3-.6,0-.2,0-.4.1-.6.5-1,.8-2.1.8-3.2,0-1.1-.2-2.2-.7-3.3-.2-.3-.2-.7-.2-1.1,0-.4.2-.7.4-.9Z"></path></svg>