<svg width="168" height="24" viewBox="0 0 168 24" fill="none" xmlns="http://www.w3.org/2000/svg">
<path fill-rule="evenodd" clip-rule="evenodd" d="M79.7206 0.0647466C69.343 0.566776 49.417 5.18175 30.6736 11.4243C29.1622 11.9277 27.1709 12.5913 26.2487 12.899C13.8126 17.0483 7.12428 19.6649 2.4427 22.2127C0.615618 23.2072 0.458649 23.3277 0.506997 23.6992C0.57761 24.2414 0.874873 24.1577 4.26512 22.6405C7.77331 21.0707 10.9177 19.9308 19.5414 17.1027C48.3636 7.65063 61.8257 4.1855 76.9259 2.33209C79.8849 1.96885 84.6113 2.03211 84.6113 2.43488C84.6113 2.9729 81.6469 4.80777 74.7833 8.51804C66.3395 13.0826 61.1992 16.1105 60.7439 16.788C59.9661 17.9457 60.8216 18.7811 62.6729 18.6716C63.7308 18.609 63.971 18.5617 68.8212 17.4601C82.7468 14.2973 91.6467 12.692 103.708 11.1676C122.077 8.846 133.78 7.98955 155.783 7.35654C163.689 7.12915 164.098 7.09741 165.557 6.59954C166.12 6.40763 166.792 6.22008 167.05 6.18267C167.657 6.09518 167.649 5.98325 167.032 5.90073C166.763 5.86474 166.144 5.69301 165.658 5.51904C164.457 5.09011 163.662 5.0677 156.808 5.26965C133.83 5.94656 121.74 6.81224 104.221 9.03487C95.0069 10.2038 90.9013 10.8389 84.1921 12.1333C79.6054 13.0182 67.499 15.5942 65.8031 16.046C64.8777 16.2926 68.8944 13.9668 75.9494 10.1708C84.8737 5.3691 86.6504 4.06496 86.6587 2.3106C86.668 0.332287 85.046 -0.192756 79.7206 0.0647466Z" fill="#292B2E"/>
</svg>
