<svg xmlns="http://www.w3.org/2000/svg" id="Layer_1" viewBox="0 0 184 100"><defs><style>.cls-1{fill:#56575a;stroke-width:0px;}</style></defs><rect class="cls-1" x="40.59" y="29.96" width="102.81" height="17.14"></rect><path class="cls-1" d="M44.43,69.46h-3.57v-5.74h4.29s.42,2.21,1.75,2.21,2.06-.6,1.93-1.63-2.15-1.6-3.84-2.36c-1.69-.76-4.41-1.87-4.41-5.2s2.09-5.74,5.74-5.74c2.36,0,3.02,1.09,3.02,1.09v-.66h3.81v5.74h-4.08s-.42-2.21-2.12-2.21-1.75,1.75-1.3,2.21c.45.45,1.45.91,2.51,1.18s5.47,1.57,5.47,5.77-3.87,5.86-5.89,5.86-3.32-.97-3.32-.97v.45Z"></path><path class="cls-1" d="M63.5,51c-5.26,0-9.52,4.26-9.52,9.52s4.26,9.52,9.52,9.52,9.52-4.26,9.52-9.52-4.26-9.52-9.52-9.52ZM63.5,65.14c-2.54,0-4.62-2.06-4.62-4.62s2.06-4.62,4.62-4.62,4.62,2.06,4.62,4.62-2.06,4.62-4.62,4.62Z"></path><path class="cls-1" d="M81.18,69.98c4.32,0,7.1-3.75,7.1-6.35v-8.43h1.48v-3.84h-7.74v3.84h1.45v7.53c0,1.6-1.12,2.48-2.3,2.48s-2.3-.88-2.3-2.48v-7.53h1.45v-3.84h-7.74v3.84h1.48v8.43c0,2.63,2.78,6.35,7.1,6.35Z"></path><path class="cls-1" d="M101.04,51.36h-10.03v3.84h1.69v10.4h-1.69v4.11h9.94c3.23,0,8.22-2.42,8.22-9.22.03-6.83-4.9-9.13-8.13-9.13ZM100.98,65.38h-3.26v-9.67h3.26c1.3,0,3.63,1.81,3.63,4.78s-1.9,4.9-3.63,4.9Z"></path><path class="cls-1" d="M126.3,65.65l-5.95-14.26h-7.59v4.11h1.54l-4.29,10.15h-1.36v4.08h8.67v-4.08h-1.72l.42-.76h4.47l.42.76h-1.36v4.08h8.37v-4.08h-1.63ZM116.72,61.06l1.3-3.42,1.33,3.42h-2.63Z"></path><polygon class="cls-1" points="128.9 65.65 128.9 69.7 143.38 69.7 143.38 62.75 138.54 62.75 138.54 65.11 135.64 65.11 135.64 55.2 137.3 55.2 137.3 51.36 128.87 51.36 128.87 55.2 130.56 55.2 130.56 65.65 128.9 65.65"></polygon></svg>