<svg width="24" height="24" viewBox="0 0 24 24" fill="none" xmlns="http://www.w3.org/2000/svg">
<g clip-path="url(#clip0_6144_24454)">
<g clip-path="url(#clip1_6144_24454)">
<mask id="mask0_6144_24454" style="mask-type:luminance" maskUnits="userSpaceOnUse" x="-4" y="0" width="32" height="24">
<rect x="-4" width="32" height="24" fill="white"/>
</mask>
<g mask="url(#mask0_6144_24454)">
<path fill-rule="evenodd" clip-rule="evenodd" d="M-4 0H28V24H-4V0Z" fill="#3D58DB"/>
<path d="M-4 5H-5V6V18V19H-4H28H29V18V6V5H28H-4Z" fill="#C51918" stroke="#FFD018" stroke-width="2"/>
<path d="M3.14932 9.33112C3.02937 9.33112 2.93213 9.05992 2.93213 8.72537C2.93213 8.39083 3.02937 8.11963 3.14932 8.11963H20.5601C20.6801 8.11963 20.7773 8.39083 20.7773 8.72537C20.7773 9.05992 20.6801 9.33112 20.5601 9.33112H3.14932Z" fill="#FFD018"/>
<path fill-rule="evenodd" clip-rule="evenodd" d="M20.0952 8.60229L21.1063 7.3125L22.8952 8.60229L21.1063 9.926L20.0952 8.60229Z" fill="#F7FCFF"/>
<path d="M3.14932 13.3311C3.02937 13.3311 2.93213 13.0599 2.93213 12.7254C2.93213 12.3908 3.02937 12.1196 3.14932 12.1196H20.5601C20.6801 12.1196 20.7773 12.3908 20.7773 12.7254C20.7773 13.0599 20.6801 13.3311 20.5601 13.3311H3.14932Z" fill="#FFD018"/>
<path fill-rule="evenodd" clip-rule="evenodd" d="M20.0952 12.6023L21.1063 11.3125L22.8952 12.6023L21.1063 13.926L20.0952 12.6023Z" fill="#F7FCFF"/>
<path d="M0.345411 15.8219C0.184579 15.8219 0.0541992 15.5139 0.0541992 15.1341C0.0541992 14.7542 0.184579 14.4463 0.345411 14.4463H23.6896C23.8504 14.4463 23.9808 14.7542 23.9808 15.1341C23.9808 15.5139 23.8504 15.8219 23.6896 15.8219H0.345411Z" fill="#FFD018"/>
<path fill-rule="evenodd" clip-rule="evenodd" d="M4.81738 12.0528C4.81738 12.0528 7.65873 6.07275 11.7226 6.07275C15.7866 6.07275 18.7235 12.0528 18.7235 12.0528C18.7235 12.0528 15.1373 17.9542 11.7704 17.9542C8.40353 17.9542 4.81738 12.0528 4.81738 12.0528Z" fill="#F7FCFF"/>
<mask id="mask1_6144_24454" style="mask-type:luminance" maskUnits="userSpaceOnUse" x="4" y="6" width="15" height="12">
<path fill-rule="evenodd" clip-rule="evenodd" d="M4.81738 12.0528C4.81738 12.0528 7.65873 6.07275 11.7226 6.07275C15.7866 6.07275 18.7235 12.0528 18.7235 12.0528C18.7235 12.0528 15.1373 17.9542 11.7704 17.9542C8.40353 17.9542 4.81738 12.0528 4.81738 12.0528Z" fill="white"/>
</mask>
<g mask="url(#mask1_6144_24454)">
<path fill-rule="evenodd" clip-rule="evenodd" d="M11.9243 5.68018C11.9243 5.68018 10.997 6.80638 11.3061 7.8803C11.6152 8.95421 12.3354 8.84078 12.3354 9.78655C12.3354 10.7323 12.0027 11.6969 12.3354 11.6969C12.668 11.6969 12.7833 12.3495 12.4793 12.792C12.1752 13.2344 11.9063 13.2481 11.9243 13.9682C11.9423 14.6883 13.5163 15.3952 12.7538 15.3952C11.9913 15.3952 10.9864 16.1353 11.3061 16.1353C11.6259 16.1353 13.2987 16.7119 13.2987 17.4686C13.2987 18.2254 13.2987 18.831 13.2987 18.831H4.57129V5.68018H11.9243Z" fill="#292B2E"/>
<path fill-rule="evenodd" clip-rule="evenodd" d="M7.81915 9.9231H7.38477V11.6923H7.81915V9.9231ZM9.1006 9.9231H8.66621V11.6923H9.1006V9.9231ZM8.02549 9.9231H8.45988V11.6923H8.02549V9.9231ZM9.74133 9.9231H9.30694V11.6923H9.74133V9.9231ZM9.94766 9.9231H10.3821V11.6923H9.94766V9.9231ZM11.0228 9.9231H10.5884V11.6923H11.0228V9.9231ZM7.38477 12.4616H7.81915V14.2308H7.38477V12.4616ZM9.1006 12.4616H8.66621V14.2308H9.1006V12.4616ZM8.02549 12.4616H8.45988V14.2308H8.02549V12.4616ZM9.74133 12.4616H9.30694V14.2308H9.74133V12.4616ZM9.94766 12.4616H10.3821V14.2308H9.94766V12.4616ZM11.0228 12.4616H10.5884V14.2308H11.0228V12.4616Z" fill="#F7FCFF"/>
<path fill-rule="evenodd" clip-rule="evenodd" d="M12.9774 9.9231H12.543V11.6923H12.9774V9.9231ZM14.2588 9.9231H13.8244V11.6923H14.2588V9.9231ZM13.1837 9.9231H13.6181V11.6923H13.1837V9.9231ZM14.8995 9.9231H14.4651V11.6923H14.8995V9.9231ZM15.1059 9.9231H15.5403V11.6923H15.1059V9.9231ZM16.181 9.9231H15.7466V11.6923H16.181V9.9231ZM12.543 12.4616H12.9774V14.2308H12.543V12.4616ZM14.2588 12.4616H13.8244V14.2308H14.2588V12.4616ZM13.1837 12.4616H13.6181V14.2308H13.1837V12.4616ZM14.8995 12.4616H14.4651V14.2308H14.8995V12.4616ZM15.1059 12.4616H15.5403V14.2308H15.1059V12.4616ZM16.181 12.4616H15.7466V14.2308H16.181V12.4616Z" fill="#292B2E"/>
<path fill-rule="evenodd" clip-rule="evenodd" d="M9.23164 7.07169C8.62314 7.26022 8.34469 8.85603 8.4127 9.24176C8.48071 9.62749 8.68717 9.19336 8.68717 9.19336C8.68717 9.19336 9.10822 10.1085 9.15163 10.3547C9.19504 10.6009 9.41677 9.98251 9.41677 9.98251C9.41677 9.98251 10.1471 10.4856 10.2459 11.0462C10.3448 11.6069 10.4935 10.4047 10.4935 10.4047L10.6589 10.3755L10.5542 9.78194L10.8697 10.0517L10.7724 9.49968C10.7724 9.49968 11.01 9.8102 10.9497 9.46841C10.8895 9.12663 10.8558 8.93582 10.8558 8.93582L10.7735 8.46866L11.0857 8.4136C11.0857 8.4136 9.84014 6.88317 9.23164 7.07169Z" fill="#3D58DB"/>
</g>
<path fill-rule="evenodd" clip-rule="evenodd" d="M22.0884 13.6959C21.4564 13.7759 20.905 15.2991 20.905 15.6908C20.905 16.0825 21.1837 15.6908 21.1837 15.6908C21.1837 15.6908 21.4395 16.6651 21.4395 16.9151C21.4395 17.1651 21.7652 16.5947 21.7652 16.5947C21.7652 16.5947 22.3971 17.217 22.3971 17.7862C22.3971 18.3555 22.7522 17.1974 22.7522 17.1974H22.9202V16.5947L23.1841 16.9151V16.3546C23.1841 16.3546 23.3642 16.7016 23.3642 16.3546C23.3642 16.0075 23.3642 15.8138 23.3642 15.8138V15.3394H23.6813C23.6813 15.3394 22.7204 13.6159 22.0884 13.6959Z" fill="#3D58DB"/>
<path fill-rule="evenodd" clip-rule="evenodd" d="M1.59279 13.4652C2.22479 13.5452 2.77612 15.0684 2.77612 15.4601C2.77612 15.8518 2.49742 15.4601 2.49742 15.4601C2.49742 15.4601 2.24167 16.4344 2.24167 16.6844C2.24167 16.9344 1.91593 16.364 1.91593 16.364C1.91593 16.364 1.28408 16.9863 1.28408 17.5555C1.28408 18.1248 0.928909 16.9667 0.928909 16.9667H0.760922V16.364L0.497065 16.6844V16.1239C0.497065 16.1239 0.316988 16.4709 0.316988 16.1239C0.316988 15.7768 0.316988 15.5831 0.316988 15.5831V15.1087H-0.00010705C-0.00010705 15.1087 0.960801 13.3852 1.59279 13.4652Z" fill="#3D58DB"/>
</g>
</g>
<g style="mix-blend-mode:hard-light" opacity="0.12">
<rect width="24" height="24" rx="12" fill="white"/>
</g>
<rect width="24" height="24" fill="url(#paint0_linear_6144_24454)" fill-opacity="0.64" style="mix-blend-mode:overlay"/>
</g>
<defs>
<linearGradient id="paint0_linear_6144_24454" x1="24" y1="1.19273e-06" x2="-4.48665" y2="16.0237" gradientUnits="userSpaceOnUse">
<stop stop-color="white" stop-opacity="0.3"/>
<stop offset="0.262741" stop-opacity="0.27"/>
<stop offset="0.369956" stop-color="white" stop-opacity="0.26"/>
<stop offset="0.487001" stop-opacity="0.55"/>
<stop offset="0.594445" stop-opacity="0.24"/>
<stop offset="0.736408" stop-color="white" stop-opacity="0.3"/>
<stop offset="0.901459" stop-color="#272727" stop-opacity="0.22"/>
<stop offset="1" stop-opacity="0.2"/>
</linearGradient>
<clipPath id="clip0_6144_24454">
<rect width="24" height="24" rx="12" fill="white"/>
</clipPath>
<clipPath id="clip1_6144_24454">
<rect width="24" height="24" fill="white"/>
</clipPath>
</defs>
</svg>
