<svg width="144" height="144" viewBox="0 0 144 144" fill="none" xmlns="http://www.w3.org/2000/svg">
<path d="M29.7734 65.8048L50.3738 36.0373L81.1749 55.0577L94.8365 120.398L43.435 131.146L29.7734 65.8048Z" fill="#292B2E"/>
<mask id="path-2-inside-1_266_530" fill="white">
<path fill-rule="evenodd" clip-rule="evenodd" d="M51.7514 30.8886C50.7241 30.6116 49.6597 31.1876 49.3295 32.1991L37.5643 68.2425C37.3941 68.7639 37.4455 69.3324 37.7065 69.8149L72.0369 133.263C72.5625 134.235 73.7762 134.596 74.7477 134.071L123.121 107.897C124.092 107.372 124.454 106.158 123.928 105.187L89.5976 41.7379C89.3366 41.2555 88.8889 40.9014 88.3593 40.7587L51.7514 30.8886ZM61.9328 53.6324C63.3743 52.8524 63.9106 51.0516 63.1306 49.6101C62.3507 48.1685 60.5498 47.6323 59.1083 48.4122C57.6668 49.1922 57.1305 50.993 57.9105 52.4345C58.6904 53.876 60.4913 54.4123 61.9328 53.6324Z"/>
</mask>
<path fill-rule="evenodd" clip-rule="evenodd" d="M51.7514 30.8886C50.7241 30.6116 49.6597 31.1876 49.3295 32.1991L37.5643 68.2425C37.3941 68.7639 37.4455 69.3324 37.7065 69.8149L72.0369 133.263C72.5625 134.235 73.7762 134.596 74.7477 134.071L123.121 107.897C124.092 107.372 124.454 106.158 123.928 105.187L89.5976 41.7379C89.3366 41.2555 88.8889 40.9014 88.3593 40.7587L51.7514 30.8886ZM61.9328 53.6324C63.3743 52.8524 63.9106 51.0516 63.1306 49.6101C62.3507 48.1685 60.5498 47.6323 59.1083 48.4122C57.6668 49.1922 57.1305 50.993 57.9105 52.4345C58.6904 53.876 60.4913 54.4123 61.9328 53.6324Z" fill="white"/>
<path d="M88.3593 40.7587L87.9688 42.2069L88.3593 40.7587ZM123.121 107.897L123.835 109.217L123.121 107.897ZM74.7477 134.071L74.0339 132.751L74.7477 134.071ZM49.3295 32.1991L47.9036 31.7336L49.3295 32.1991ZM51.7514 30.8886L51.361 32.3369L51.7514 30.8886ZM37.5643 68.2425L38.9902 68.7079L37.5643 68.2425ZM38.9902 68.7079L50.7555 32.6645L47.9036 31.7336L36.1383 67.777L38.9902 68.7079ZM73.3562 132.55L39.0258 69.101L36.3873 70.5287L70.7176 133.977L73.3562 132.55ZM122.407 106.578L74.0339 132.751L75.4615 135.39L123.835 109.217L122.407 106.578ZM88.2784 42.4518L122.609 105.9L125.247 104.473L90.9169 41.0241L88.2784 42.4518ZM51.361 32.3369L87.9688 42.2069L88.7497 39.3104L52.1419 29.4404L51.361 32.3369ZM61.8114 50.3239C62.1971 51.0368 61.9319 51.9274 61.219 52.3131L62.6466 54.9516C64.8167 53.7774 65.6241 51.0663 64.4499 48.8962L61.8114 50.3239ZM59.8221 49.7315C60.535 49.3458 61.4256 49.611 61.8114 50.3239L64.4499 48.8962C63.2757 46.7261 60.5646 45.9188 58.3945 47.093L59.8221 49.7315ZM59.2297 51.7207C58.844 51.0078 59.1092 50.1172 59.8221 49.7315L58.3945 47.093C56.2244 48.2671 55.417 50.9782 56.5912 53.1484L59.2297 51.7207ZM61.219 52.3131C60.5061 52.6988 59.6155 52.4336 59.2297 51.7207L56.5912 53.1484C57.7654 55.3185 60.4765 56.1258 62.6466 54.9516L61.219 52.3131ZM90.9169 41.0241C90.4601 40.1799 89.6766 39.5603 88.7497 39.3104L87.9688 42.2069C88.1012 42.2426 88.2131 42.3311 88.2784 42.4518L90.9169 41.0241ZM123.835 109.217C125.535 108.297 126.167 106.173 125.247 104.473L122.609 105.9C122.74 106.143 122.65 106.447 122.407 106.578L123.835 109.217ZM70.7176 133.977C71.6375 135.677 73.7614 136.31 75.4615 135.39L74.0339 132.751C73.791 132.883 73.4876 132.793 73.3562 132.55L70.7176 133.977ZM50.7555 32.6645C50.838 32.4117 51.1041 32.2677 51.361 32.3369L52.1419 29.4404C50.344 28.9556 48.4814 29.9635 47.9036 31.7336L50.7555 32.6645ZM36.1383 67.777C35.8404 68.6896 35.9305 69.6844 36.3873 70.5287L39.0258 69.101C38.9605 68.9804 38.9477 68.8383 38.9902 68.7079L36.1383 67.777Z" fill="#292B2E" mask="url(#path-2-inside-1_266_530)"/>
<circle cx="70.5097" cy="82.8872" r="5.16074" transform="rotate(-28.4167 70.5097 82.8872)" stroke="#292B2E" stroke-width="1.5"/>
<circle cx="93.3165" cy="90.2604" r="5.16074" transform="rotate(-28.4167 93.3165 90.2604)" stroke="#292B2E" stroke-width="1.5"/>
<line x1="75.87" y1="105.215" x2="86.8935" y2="68.1978" stroke="#292B2E" stroke-width="1.5" stroke-linecap="round"/>
<path d="M58.6401 50.7206C62.6524 49.2982 62.7984 39.3822 58.9663 28.5726C55.1342 17.7629 48.7751 10.1531 44.7629 11.5754C40.7506 12.9978 40.6046 22.9138 44.4367 33.7234C45.2336 35.9715 46.5263 38.5812 47.498 40.5" stroke="#292B2E" stroke-width="1.5"/>
<line x1="78.9952" y1="21.0661" x2="81.5642" y2="12.5029" stroke="black" stroke-width="1.5" stroke-linecap="round"/>
<line x1="101.381" y1="25.9458" x2="108.444" y2="17.1171" stroke="black" stroke-width="1.5" stroke-linecap="round"/>
<line x1="116.744" y1="45.8179" x2="124.447" y2="40.9166" stroke="black" stroke-width="1.5" stroke-linecap="round"/>
<line x1="6.44673" y1="52.5257" x2="17.0237" y2="56.0513" stroke="black" stroke-width="1.5" stroke-linecap="round"/>
<line x1="1.19255" y1="79.0584" x2="11.7162" y2="78.4439" stroke="black" stroke-width="1.5" stroke-linecap="round"/>
<line x1="11.7771" y1="104.977" x2="17.4748" y2="101.721" stroke="black" stroke-width="1.5" stroke-linecap="round"/>
</svg>
