<svg width="307" height="307" viewBox="0 0 307 307" fill="none" xmlns="http://www.w3.org/2000/svg">
<g clip-path="url(#clip0_232_1417)">
<path d="M75.9596 269.683C78.2631 265.675 77.0049 260.627 73.1492 258.408C69.2936 256.188 64.3006 257.639 61.9971 261.647C59.6936 265.655 60.9518 270.703 64.8074 272.922C68.6631 275.141 73.656 273.691 75.9596 269.683Z" fill="#292B2E"/>
<path d="M68.6925 274.338C67.2688 274.338 65.8722 273.969 64.6148 273.246C60.5864 270.927 59.2641 265.64 61.6667 261.459C64.0693 257.279 69.3013 255.763 73.3297 258.082C77.3579 260.401 78.6804 265.688 76.2778 269.869C75.1151 271.892 73.2634 273.358 71.0637 273.996C70.2778 274.225 69.481 274.338 68.6925 274.338ZM69.2523 257.745C66.5198 257.745 63.8168 259.222 62.3159 261.833C60.1192 265.655 61.318 270.483 64.9882 272.596C66.7635 273.618 68.8471 273.859 70.8549 273.277C72.8675 272.692 74.5628 271.349 75.6282 269.495C77.8249 265.673 76.626 260.845 72.9559 258.732C71.7933 258.063 70.5197 257.745 69.2523 257.745Z" fill="#292B2E"/>
<path d="M112.518 213.11L87.8702 254.248C87.8702 254.248 81.8788 264.649 79.132 268.772C78.0369 270.416 75.5099 270.163 75.5099 270.163L41.5396 270.135C40.5998 270.079 39.6829 269.823 38.8507 269.382L23.5889 263.174C21.9164 262.177 21.3661 260.014 22.3587 258.339L54.4713 204.141C55.1094 203.064 56.0316 202.183 57.1366 201.596C58.2417 201.009 59.487 200.737 60.7361 200.811L87.6489 200.421C89.7691 200.546 91.8398 201.113 93.7286 202.085L111.763 210.211C112.78 210.797 113.12 212.102 112.518 213.11Z" fill="white"/>
<path d="M75.8886 270.552C75.7564 270.553 75.6243 270.548 75.4925 270.537L41.5395 270.51C41.5321 270.51 41.5248 270.509 41.5176 270.509C40.5305 270.452 39.5671 270.184 38.6925 269.722L23.4479 263.521C23.4305 263.514 23.4136 263.505 23.3975 263.496C21.5514 262.396 20.941 259.997 22.0367 258.148L54.1491 203.95C55.5252 201.627 58.0522 200.28 60.7441 200.436L87.6434 200.046C87.6526 200.046 87.6617 200.046 87.671 200.047C89.8535 200.176 91.9462 200.748 93.8912 201.748L111.917 209.869C111.929 209.874 111.94 209.88 111.95 209.886C112.236 210.049 112.485 210.268 112.684 210.529C112.883 210.791 113.028 211.089 113.11 211.408C113.194 211.725 113.213 212.057 113.167 212.382C113.12 212.708 113.009 213.02 112.84 213.302L112.839 213.302L88.1915 254.44C88.1348 254.539 82.1656 264.893 79.4437 268.979C78.5088 270.383 76.705 270.552 75.8886 270.552ZM41.5511 269.76L75.51 269.788C75.5225 269.788 75.5347 269.788 75.5471 269.79C75.5693 269.792 77.8655 269.997 78.8203 268.564C81.5289 264.498 87.4858 254.164 87.5457 254.06L112.197 212.917L112.197 212.917C112.315 212.721 112.392 212.503 112.425 212.276C112.457 212.049 112.444 211.818 112.385 211.597C112.329 211.377 112.23 211.172 112.094 210.991C111.958 210.811 111.787 210.659 111.592 210.544L93.5751 202.427C93.5691 202.425 93.5633 202.422 93.5575 202.419C91.7074 201.467 89.7166 200.921 87.6404 200.796L60.7416 201.186C60.7326 201.186 60.7232 201.186 60.7139 201.185C58.2974 201.041 56.0283 202.248 54.7934 204.332L22.6809 258.53C21.8002 260.017 22.2838 261.943 23.7569 262.837L38.9918 269.035C39.0034 269.04 39.0148 269.045 39.0258 269.051C39.807 269.466 40.6682 269.708 41.5511 269.76Z" fill="#292B2E"/>
<path d="M41.6757 270.496C41.6642 270.496 41.6529 270.495 41.6414 270.494C40.8514 270.422 40.2091 270.046 39.8791 269.463C39.5659 268.909 39.5651 268.222 39.8764 267.577C39.8813 267.567 39.8867 267.557 39.8924 267.548L73.1599 211.965C73.8796 210.762 75.193 210.065 76.5917 210.144L111.303 210.201C111.31 210.201 111.317 210.202 111.325 210.202C112.022 210.243 112.553 210.502 112.861 210.95C113.212 211.461 113.25 212.162 112.975 213.034C112.945 213.129 112.878 213.208 112.79 213.254C112.702 213.299 112.599 213.308 112.505 213.278C112.41 213.248 112.331 213.182 112.285 213.094C112.239 213.005 112.23 212.902 112.26 212.808C112.46 212.177 112.454 211.682 112.244 211.375C112.07 211.123 111.75 210.98 111.291 210.951L76.5799 210.894C76.5727 210.894 76.5655 210.894 76.5583 210.893C75.434 210.825 74.3801 211.385 73.8024 212.35L40.5439 267.918C40.3449 268.339 40.3402 268.756 40.5309 269.093C40.7413 269.465 41.1596 269.698 41.7092 269.748C41.8048 269.757 41.8931 269.803 41.9561 269.875C42.019 269.948 42.0517 270.042 42.0474 270.138C42.0431 270.234 42.0022 270.324 41.933 270.391C41.8638 270.458 41.7717 270.495 41.6757 270.496Z" fill="#292B2E"/>
<path d="M103.571 220.257H74.854C73.8082 220.257 73.1622 219.115 73.7 218.218L75.0896 215.9C75.3437 215.476 75.7032 215.125 76.1331 214.881C76.563 214.637 77.0486 214.509 77.5427 214.509H106.26C107.306 214.509 107.952 215.651 107.414 216.549L106.025 218.867C105.77 219.291 105.411 219.642 104.981 219.885C104.551 220.129 104.066 220.257 103.571 220.257Z" fill="white"/>
<path d="M103.572 220.632H74.8542C74.2263 220.632 73.6667 220.305 73.3575 219.758C73.0482 219.212 73.0563 218.564 73.3793 218.025L74.7688 215.707C75.35 214.737 76.4132 214.134 77.5432 214.134H106.261C106.889 214.134 107.448 214.461 107.757 215.008C108.067 215.554 108.059 216.202 107.736 216.741L106.346 219.059C105.765 220.029 104.702 220.632 103.572 220.632ZM77.5431 214.884C76.6747 214.884 75.8578 215.347 75.4111 216.092L74.0216 218.41C73.8393 218.715 73.8347 219.08 74.0092 219.389C74.1838 219.698 74.4998 219.882 74.8542 219.882H103.572C104.44 219.882 105.257 219.419 105.704 218.674L107.093 216.356C107.276 216.051 107.28 215.686 107.106 215.377C106.931 215.068 106.615 214.884 106.261 214.884H77.5431ZM53.1479 225.178L54.0714 225.727C54.7736 226.143 55.0052 227.051 54.5888 227.754L54.5366 227.842C54.1201 228.545 53.2133 228.776 52.5111 228.36C51.7895 227.931 50.8588 228.169 50.4314 228.89L42.044 243.042C41.6166 243.764 41.8537 244.696 42.5753 245.124C43.2775 245.541 43.5091 246.449 43.0927 247.151L43.0405 247.24C42.624 247.942 41.7172 248.174 41.015 247.757L40.0926 247.21C38.6354 246.345 38.1547 244.462 39.019 243.003L48.9464 226.253C49.8102 224.795 51.6913 224.314 53.1479 225.178Z" fill="#292B2E"/>
<path d="M41.7657 248.339C41.4444 248.339 41.1192 248.255 40.8235 248.08L39.9011 247.532C39.1102 247.063 38.5494 246.313 38.3219 245.422C38.0943 244.53 38.2273 243.603 38.6964 242.812L48.6239 226.061C49.0927 225.27 49.8414 224.709 50.732 224.481C51.6227 224.254 52.5485 224.387 53.3388 224.856L54.2623 225.404C55.1411 225.926 55.432 227.066 54.9107 227.945L54.8583 228.033C54.7347 228.243 54.5707 228.426 54.3759 228.572C54.1811 228.718 53.9593 228.824 53.7233 228.884C53.4877 228.945 53.2423 228.958 53.0013 228.924C52.7604 228.889 52.5287 228.807 52.3197 228.682C52.1907 228.605 52.0477 228.554 51.899 228.533C51.7503 228.511 51.5988 228.519 51.4532 228.557C51.3077 228.594 51.1709 228.659 51.0508 228.749C50.9306 228.839 50.8295 228.952 50.7533 229.081L42.3658 243.234C42.0442 243.777 42.2237 244.48 42.7661 244.802C43.6447 245.323 43.9358 246.463 43.4146 247.343L43.3622 247.431C43.0164 248.014 42.3988 248.339 41.7657 248.339ZM51.5881 225.123C51.3646 225.123 51.1395 225.151 50.9172 225.208C50.5744 225.295 50.2521 225.448 49.969 225.661C49.6859 225.873 49.4477 226.139 49.2682 226.444L39.3406 243.195C39.1593 243.499 39.0401 243.836 38.9898 244.186C38.9395 244.537 38.9591 244.893 39.0476 245.236C39.1342 245.58 39.288 245.902 39.5001 246.186C39.7122 246.469 39.9783 246.708 40.2831 246.887L41.2056 247.435C41.7291 247.746 42.4074 247.572 42.7179 247.048L42.7704 246.96C43.0805 246.437 42.9073 245.757 42.3838 245.447C41.4862 244.914 41.189 243.75 41.7213 242.851L50.1088 228.699C50.235 228.485 50.4024 228.298 50.6014 228.149C50.8003 228 51.0268 227.892 51.2678 227.831C51.7574 227.706 52.2667 227.779 52.7017 228.037C52.8262 228.112 52.9642 228.161 53.1077 228.181C53.2512 228.202 53.3974 228.194 53.5378 228.157C53.6784 228.122 53.8106 228.059 53.9266 227.972C54.0427 227.885 54.1403 227.776 54.2139 227.651L54.2663 227.562C54.3406 227.438 54.3894 227.3 54.41 227.156C54.4306 227.013 54.4226 226.866 54.3863 226.726C54.3508 226.585 54.2878 226.453 54.2008 226.337C54.1139 226.221 54.0048 226.123 53.8799 226.049L52.9564 225.501C52.5426 225.254 52.0699 225.123 51.5881 225.123ZM129.173 173.207C129.198 173.188 103.948 217.09 103.948 217.09C103.899 217.175 103.829 217.246 103.745 217.295C103.661 217.344 103.565 217.37 103.467 217.37H99.9637C99.6266 217.37 99.4156 217.005 99.5842 216.713L123.758 175.152C124.233 174.336 123.647 173.312 122.703 173.308C119.663 173.294 112.294 173.126 112.294 173.126C111.663 173.088 111.034 173.226 110.476 173.523C109.917 173.82 109.452 174.264 109.129 174.809L84.4543 217.094C84.4055 217.178 84.3355 217.248 84.2514 217.296C84.1673 217.345 84.0719 217.37 83.9748 217.37H80.4764C80.1381 217.37 79.9283 217.002 80.0994 216.711L106.484 171.675C107.585 169.905 109.333 169.28 110.754 169.28L126.892 169.225C128.942 169.21 130.222 171.443 129.173 173.207Z" fill="#292B2E"/>
<path d="M103.467 217.745H99.9639C99.8211 217.746 99.6805 217.709 99.5568 217.637C99.4331 217.566 99.3306 217.463 99.2599 217.338C99.1878 217.215 99.1497 217.075 99.1497 216.932C99.1497 216.789 99.1878 216.649 99.2599 216.526L123.435 174.964C123.59 174.698 123.591 174.379 123.438 174.112C123.285 173.845 123.01 173.684 122.702 173.683C119.693 173.669 112.359 173.502 112.286 173.5C112.281 173.5 112.277 173.5 112.272 173.5C111.12 173.43 110.04 174.006 109.452 175L84.7779 217.283C84.6957 217.423 84.5784 217.54 84.4376 217.621C84.2968 217.702 84.1372 217.745 83.9748 217.745H80.4764C80.3332 217.746 80.1924 217.708 80.0685 217.636C79.9446 217.565 79.8422 217.461 79.7718 217.336C79.6999 217.212 79.6623 217.071 79.6631 216.928C79.6639 216.784 79.7029 216.644 79.7762 216.521L106.161 171.485C107.168 169.866 108.883 168.905 110.754 168.905L126.891 168.85L126.915 168.85C128.003 168.85 128.977 169.414 129.52 170.362C130.067 171.317 130.058 172.452 129.496 173.399L129.493 173.397C129.472 173.441 129.449 173.483 129.428 173.519L129.217 173.888C129.033 174.209 128.762 174.681 128.418 175.282C127.728 176.482 126.743 178.197 125.561 180.254C122.671 185.283 119.781 190.311 116.889 195.339C110.582 206.308 104.273 217.277 104.273 217.277C104.192 217.419 104.074 217.537 103.933 217.619C103.791 217.701 103.631 217.745 103.467 217.745ZM112.31 172.751C112.567 172.757 119.743 172.92 122.706 172.933C123.284 172.936 123.801 173.237 124.088 173.739C124.376 174.242 124.373 174.84 124.083 175.341L99.9082 216.902C99.9026 216.911 99.8996 216.922 99.8997 216.933C99.8998 216.944 99.903 216.954 99.9089 216.964C99.9141 216.974 99.9221 216.982 99.9319 216.987C99.9416 216.993 99.9528 216.996 99.964 216.995H103.467C103.531 216.995 103.591 216.96 103.623 216.904C103.873 216.47 128.482 173.683 128.841 173.035C128.845 173.028 128.848 173.022 128.852 173.015C129.275 172.305 129.281 171.452 128.87 170.735C128.462 170.023 127.731 169.6 126.913 169.6L126.895 169.6L110.755 169.655C109.981 169.655 108.047 169.871 106.802 171.873L80.4227 216.9C80.4166 216.91 80.4134 216.921 80.4133 216.932C80.4133 216.943 80.4165 216.954 80.4224 216.964C80.4276 216.974 80.4354 216.982 80.445 216.987C80.4546 216.993 80.4656 216.996 80.4768 216.995H83.9752C84.039 216.995 84.0988 216.961 84.1314 216.905L108.806 174.62C109.538 173.384 110.877 172.667 112.31 172.751Z" fill="#292B2E"/>
<path d="M37.2535 269.685C39.5571 265.677 38.2988 260.629 34.4432 258.41C30.5876 256.19 25.5946 257.64 23.291 261.649C20.9875 265.657 22.2457 270.705 26.1014 272.924C29.957 275.143 34.95 273.693 37.2535 269.685Z" fill="#292B2E"/>
<path d="M29.9874 274.338C28.5637 274.338 27.1671 273.969 25.9097 273.246C21.8814 270.927 20.559 265.64 22.9616 261.459C25.3642 257.279 30.5961 255.763 34.6246 258.082C38.6528 260.401 39.9753 265.688 37.5727 269.869C36.4101 271.892 34.5583 273.358 32.3587 273.996C31.5727 274.225 30.7759 274.338 29.9874 274.338ZM30.5473 257.745C27.8147 257.745 25.1117 259.222 23.6109 261.833C21.4142 265.655 22.6129 270.483 26.2831 272.596C28.0584 273.618 30.1419 273.859 32.1498 273.277C34.1624 272.692 35.8577 271.349 36.9231 269.495C39.1198 265.673 37.9209 260.845 34.2508 258.732C33.0882 258.063 31.8147 257.745 30.5473 257.745Z" fill="#292B2E"/>
<path d="M33.7108 267.646C34.8453 265.672 34.2256 263.185 32.3265 262.092C30.4275 260.999 27.9682 261.713 26.8336 263.688C25.6991 265.662 26.3188 268.148 28.2179 269.241C30.1169 270.334 32.5762 269.62 33.7108 267.646Z" fill="white"/>
<path d="M30.1283 270.124C29.3907 270.125 28.6658 269.931 28.0265 269.563C25.9517 268.369 25.2687 265.648 26.5044 263.498C27.7401 261.348 30.4337 260.571 32.5085 261.765C34.5834 262.959 35.2662 265.68 34.0305 267.83C33.1881 269.296 31.668 270.124 30.1283 270.124ZM30.405 261.954C29.125 261.954 27.8578 262.647 27.1538 263.872C26.1241 265.663 26.6832 267.925 28.4001 268.913C30.1166 269.901 32.3512 269.248 33.3812 267.456C34.4108 265.664 33.8519 263.403 32.135 262.415C31.6088 262.112 31.0121 261.953 30.405 261.954Z" fill="#292B2E"/>
</g>
<g clip-path="url(#clip1_232_1417)">
<path d="M128.019 277.405C134.496 277.405 139.746 276.333 139.746 275.011C139.746 273.688 134.496 272.616 128.019 272.616C121.542 272.616 116.292 273.688 116.292 275.011C116.292 276.333 121.542 277.405 128.019 277.405Z" fill="#292B2E"/>
</g>
<g clip-path="url(#clip2_232_1417)">
<path d="M182.656 67.4835C175.035 64.8619 166.775 58.8733 170.912 57.8709C177.784 56.6225 183.333 58.3522 186.904 59.8683C189.457 60.9519 194.026 62.7396 196.306 65.7545C198.546 68.7156 188.119 69.3625 182.656 67.4835Z" fill="#292B2E"/>
<path d="M190.002 68.9179C187.276 68.9179 184.531 68.5246 182.534 67.8376C176.506 65.7639 169.317 61.2802 169.433 58.8223C169.454 58.3709 169.712 57.776 170.823 57.5069C170.83 57.5051 170.837 57.5036 170.844 57.5024C176.238 56.5223 181.539 57.1837 187.051 59.5235C187.209 59.5905 187.374 59.6601 187.546 59.7326C190.278 60.8824 194.405 62.6202 196.605 65.5287C197.231 66.3554 196.956 66.9856 196.737 67.2877C195.763 68.6287 192.236 68.8672 190.765 68.9075C190.511 68.9144 190.257 68.9179 190.002 68.9179ZM170.99 58.2373C170.201 58.4311 170.186 58.7518 170.181 58.8575C170.102 60.5501 176.196 64.8654 182.778 67.1294C184.85 67.8421 187.904 68.2367 190.744 68.1588C193.492 68.0836 195.606 67.569 196.13 66.8479C196.252 66.6804 196.348 66.4303 196.007 65.9804C193.929 63.2324 189.751 61.4737 187.255 60.423C187.082 60.3502 186.916 60.2802 186.758 60.2129C181.388 57.9337 176.23 57.2872 170.99 58.2373ZM196.105 151.997C199.59 152.935 203.875 155.173 204.228 156.938C204.238 157.926 201.991 158.819 195.87 158.585C189.749 158.35 148.408 158.316 148.172 153.61C147.861 147.383 184.91 148.985 196.105 151.997Z" fill="#292B2E"/>
<path d="M197.751 158.997C197.155 158.997 196.523 158.985 195.856 158.959C195.02 158.927 193.49 158.898 191.553 158.861C185.196 158.741 174.557 158.54 165.273 157.857C160.116 157.477 156.062 156.994 153.222 156.419C148.437 155.451 147.835 154.363 147.798 153.629C147.764 152.948 148.083 152.332 148.746 151.798C154.354 147.277 185.923 148.869 196.202 151.635C199.334 152.478 204.167 154.723 204.596 156.864C204.6 156.887 204.603 156.911 204.603 156.934C204.605 157.144 204.541 157.46 204.222 157.769C203.389 158.579 201.167 158.997 197.751 158.997ZM167.69 149.722C159.154 149.722 151.593 150.465 149.216 152.381C148.744 152.761 148.525 153.157 148.547 153.591C148.564 153.931 149.068 154.814 153.371 155.685C156.18 156.253 160.203 156.733 165.328 157.11C174.592 157.791 185.218 157.992 191.567 158.112C193.508 158.149 195.041 158.178 195.885 158.21C199.986 158.369 202.907 158.002 203.7 157.232C203.822 157.114 203.847 157.023 203.852 156.973C203.486 155.439 199.433 153.28 196.008 152.359C190.51 150.88 178.342 149.722 167.69 149.722ZM157.637 232.928C153.754 226.012 145.779 224.024 143.44 213.312C141.295 203.486 134.271 202.738 131.661 204.861C128.532 207.408 129.806 224.158 157.637 232.928Z" fill="#292B2E"/>
<path d="M157.636 233.303C157.599 233.303 157.561 233.297 157.524 233.286C148.852 230.553 142.007 226.828 137.179 222.215C133.494 218.694 131.059 214.635 130.321 210.784C129.786 207.99 130.219 205.552 131.424 204.571C132.791 203.458 134.998 203.201 137.046 203.916C138.957 204.584 142.376 206.681 143.806 213.232C145.22 219.709 148.742 222.949 152.148 226.083C154.355 228.114 156.441 230.033 157.963 232.745C157.995 232.802 158.012 232.866 158.012 232.932C158.011 232.997 157.993 233.061 157.96 233.118C157.927 233.174 157.88 233.221 157.823 233.254C157.766 233.286 157.702 233.303 157.636 233.303ZM134.711 204.262C133.623 204.262 132.617 204.566 131.897 205.152C131.109 205.793 130.51 207.786 131.057 210.644C132.013 215.635 135.627 219.696 137.697 221.674C142.264 226.038 148.687 229.599 156.799 232.265C155.388 230.083 153.561 228.402 151.64 226.634C148.149 223.422 144.539 220.1 143.074 213.393C141.721 207.198 138.562 205.239 136.799 204.624C136.103 204.381 135.391 204.262 134.711 204.262Z" fill="#292B2E"/>
<path d="M157.668 233.521C155.377 234.832 134.322 246.113 134.317 246.114L126.262 236.914L127.968 231.258C128.006 231.238 133.029 226.772 133.131 226.711C133.408 226.551 144.438 216.189 144.438 216.189C144.438 216.189 156.986 223.286 157.668 233.521Z" fill="white"/>
<path d="M134.317 246.488C134.263 246.488 134.21 246.477 134.162 246.455C134.113 246.433 134.07 246.4 134.035 246.36L125.98 237.161C125.938 237.113 125.909 237.056 125.896 236.993C125.882 236.931 125.885 236.867 125.903 236.806L127.609 231.149C127.632 231.074 127.677 231.008 127.74 230.96C127.834 230.881 128.69 230.123 129.597 229.321C132.691 226.583 132.872 226.43 132.939 226.39C132.938 226.39 132.929 226.395 132.919 226.403C133.282 226.13 139.853 219.982 144.181 215.916C144.24 215.862 144.314 215.827 144.393 215.817C144.473 215.808 144.553 215.824 144.623 215.863C144.655 215.881 147.837 217.695 151.055 220.745C155.34 224.806 157.756 229.215 158.042 233.496C158.046 233.566 158.031 233.636 157.998 233.698C157.965 233.759 157.915 233.811 157.854 233.846C156.663 234.527 150.376 237.916 145.312 240.638C134.487 246.458 134.444 246.468 134.403 246.478C134.375 246.485 134.346 246.488 134.317 246.488ZM126.681 236.824L134.403 245.643C136.761 244.38 154.381 234.934 157.276 233.312C156.844 228.254 153.394 223.997 150.552 221.3C147.9 218.785 145.276 217.128 144.49 216.655C141.144 219.797 133.957 226.537 133.351 227.012L133.352 227.013C133.212 227.123 131.41 228.718 130.094 229.882C128.935 230.907 128.484 231.307 128.296 231.469L126.681 236.824Z" fill="#292B2E"/>
<path d="M146.439 240.153C146.415 240.163 145.516 240.63 144.216 241.306C144.214 241.307 144.213 241.308 144.21 241.309C144.123 241.356 144.033 241.402 143.94 241.449C143.552 241.651 143.131 241.871 142.691 242.098C139.12 243.958 134.286 246.478 134.284 246.479L126.262 236.914L128.672 230.639V230.638L128.769 230.388C128.789 230.378 130.432 228.974 132.027 227.613C132.392 227.301 132.754 226.993 133.094 226.703C133.439 226.408 133.761 226.135 134.039 225.9C134.041 225.898 134.044 225.895 134.046 225.894C134.603 225.421 134.979 225.104 135.004 225.089L146.439 240.153Z" fill="#BFEBFF"/>
<path d="M143.941 241.449C143.552 241.651 143.131 241.871 142.691 242.098C142.681 242.088 142.671 242.077 142.662 242.065C142.66 242.062 142.657 242.058 142.655 242.055L132.092 227.721C132.076 227.699 132.062 227.677 132.049 227.653C132.041 227.641 132.034 227.627 132.027 227.613C132.392 227.301 132.755 226.993 133.094 226.703C133.103 226.708 133.112 226.714 133.119 226.721C133.172 226.761 133.218 226.808 133.259 226.863L143.822 241.196C143.878 241.272 143.917 241.356 143.938 241.442C143.941 241.444 143.941 241.447 143.941 241.449Z" fill="white"/>
<path d="M134.317 246.488C134.263 246.488 134.21 246.477 134.162 246.455C134.113 246.433 134.07 246.4 134.035 246.36L125.98 237.161C125.938 237.113 125.909 237.056 125.896 236.993C125.882 236.931 125.885 236.867 125.903 236.806L127.609 231.149C127.632 231.074 127.677 231.008 127.74 230.96C127.834 230.881 128.69 230.123 129.597 229.321C132.691 226.583 132.872 226.43 132.939 226.39C132.938 226.39 132.929 226.395 132.919 226.403C133.282 226.13 139.853 219.982 144.181 215.916C144.24 215.862 144.314 215.827 144.393 215.817C144.473 215.808 144.553 215.824 144.623 215.863C144.655 215.881 147.837 217.695 151.055 220.745C155.34 224.806 157.756 229.215 158.042 233.496C158.046 233.566 158.031 233.636 157.998 233.698C157.965 233.759 157.915 233.811 157.854 233.846C156.663 234.527 150.376 237.916 145.312 240.638C134.487 246.458 134.444 246.468 134.403 246.478C134.375 246.485 134.346 246.488 134.317 246.488ZM126.681 236.824L134.403 245.643C136.761 244.38 154.381 234.934 157.276 233.312C156.844 228.254 153.394 223.997 150.552 221.3C147.9 218.785 145.276 217.128 144.49 216.655C141.144 219.797 133.957 226.537 133.351 227.012L133.352 227.013C133.212 227.123 131.41 228.718 130.094 229.882C128.935 230.907 128.484 231.307 128.296 231.469L126.681 236.824Z" fill="#292B2E"/>
<path d="M201.426 148.192C201.684 156.179 201.673 163.204 201.657 170.316C201.625 185.485 201.68 192.292 200.572 198.568C195.9 225.032 157.917 233.895 157.293 234.145C146.173 226.904 143.198 217.559 141.086 212.077C137.954 203.948 133.09 203.113 131.305 204.683C135.834 200.565 152.122 197.011 156.289 197.318C183.031 193.073 162.915 156.869 169.287 144.884L201.426 148.192Z" fill="#BFEBFF"/>
<path d="M128.576 230.045C128.576 230.045 115.897 237.346 108.316 241.291C108.316 241.291 124.98 263.677 131.266 270.517C134.678 274.23 137.643 274.977 139.425 275.053C139.425 275.053 139.428 275.048 139.435 275.038C139.439 275.031 139.447 275.02 139.454 275.006C139.455 275.005 139.455 275.005 139.455 275.004L139.455 275.004C139.794 274.402 143.039 268.322 141.077 258.308C140.77 256.747 139.548 251.917 136.816 247.379C134.946 244.274 133.172 241.858 132.137 239.659C130.251 235.653 131.014 232.406 128.576 230.045Z" fill="white"/>
<path d="M139.424 275.428L139.409 275.428C135.848 275.276 132.865 272.811 130.99 270.771C124.762 263.994 108.182 241.738 108.015 241.514C107.983 241.471 107.96 241.421 107.949 241.368C107.938 241.315 107.939 241.26 107.951 241.207C107.963 241.154 107.986 241.105 108.02 241.062C108.053 241.019 108.095 240.984 108.143 240.958C115.629 237.063 128.262 229.793 128.389 229.72C128.459 229.68 128.541 229.663 128.622 229.673C128.703 229.683 128.778 229.719 128.837 229.776C130.323 231.216 130.677 232.925 131.087 234.905C131.372 236.281 131.695 237.841 132.476 239.499C133.12 240.868 134.056 242.324 135.141 244.01C135.783 245.008 136.447 246.041 137.137 247.186C140.22 252.308 141.328 257.644 141.444 258.236C143.41 268.265 140.206 274.429 139.789 275.173C139.787 275.178 139.784 275.184 139.781 275.189C139.773 275.203 139.764 275.218 139.755 275.232L139.748 275.244C139.714 275.299 139.667 275.346 139.61 275.378C139.553 275.41 139.49 275.427 139.424 275.428ZM108.879 241.419C111.032 244.301 125.771 263.984 131.542 270.264C134.634 273.629 137.383 274.529 139.212 274.666C139.823 273.507 142.53 267.675 140.709 258.38C140.595 257.802 139.511 252.584 136.494 247.572C135.81 246.436 135.149 245.409 134.51 244.415C133.412 242.707 132.463 241.232 131.797 239.819C130.979 238.079 130.646 236.474 130.353 235.057C129.988 233.294 129.67 231.759 128.512 230.514C126.721 231.542 115.819 237.787 108.879 241.419Z" fill="#292B2E"/>
<path d="M128.576 230.045C129.348 231.068 130.488 232.472 130.738 235.698C131.089 240.243 136.054 244.136 138.542 250.181C141.224 256.495 142.571 263.562 141.098 270.335L141.097 270.336C140.894 271.273 140.583 272.337 140.294 273.113C130.926 270.25 127.583 260.999 126.29 256.166C125.175 251.998 122.741 252.362 121.579 249.157C120.608 246.481 121.989 244.734 120.202 241.749C118.532 238.958 114.841 238.035 114.841 238.035C114.841 238.035 123.847 232.781 128.576 230.045Z" fill="#292B2E"/>
<path d="M117.304 247.939C116.956 247.939 116.579 247.858 116.187 247.697C115.383 247.366 114.592 246.727 113.958 245.895C112.584 244.092 112.39 242.009 113.516 241.152C114.643 240.295 116.601 241.037 117.975 242.84C118.608 243.671 119.015 244.603 119.12 245.465C119.233 246.399 118.984 247.151 118.417 247.583C118.105 247.82 117.726 247.939 117.304 247.939ZM114.634 241.55C114.371 241.55 114.143 241.616 113.971 241.748C113.289 242.267 113.361 243.875 114.555 245.442C115.109 246.169 115.789 246.724 116.472 247.004C117.086 247.257 117.616 247.251 117.962 246.987C118.309 246.723 118.456 246.215 118.376 245.556C118.287 244.824 117.933 244.021 117.379 243.293C116.487 242.124 115.408 241.55 114.634 241.55Z" fill="#292B2E"/>
<path d="M132.244 244.516C132.147 244.516 132.05 244.479 131.977 244.405C129.764 242.162 128.782 241.897 126.824 241.368C126.297 241.226 125.699 241.064 124.995 240.841C121.594 239.765 120.161 237.303 120.102 237.198C120.053 237.112 120.04 237.01 120.066 236.914C120.092 236.818 120.156 236.737 120.242 236.688C120.285 236.663 120.332 236.648 120.381 236.642C120.43 236.635 120.479 236.639 120.527 236.652C120.574 236.665 120.618 236.687 120.657 236.717C120.696 236.747 120.729 236.785 120.753 236.828C120.773 236.863 122.121 239.146 125.222 240.127C125.91 240.345 126.5 240.505 127.02 240.645C129.042 241.191 130.156 241.492 132.511 243.879C132.563 243.931 132.598 243.998 132.612 244.071C132.626 244.143 132.618 244.218 132.59 244.286C132.561 244.354 132.513 244.413 132.451 244.453C132.39 244.494 132.318 244.516 132.244 244.516Z" fill="white"/>
<path d="M139.897 254.364C139.686 254.365 139.481 254.293 139.316 254.162C135.524 251.158 130.677 251.972 130.629 251.98C130.12 252.07 129.633 251.732 129.542 251.223C129.451 250.715 129.788 250.229 130.296 250.137C130.528 250.095 136.01 249.153 140.48 252.694C140.633 252.815 140.744 252.98 140.798 253.167C140.852 253.354 140.847 253.553 140.783 253.736C140.719 253.92 140.599 254.079 140.441 254.192C140.282 254.304 140.092 254.364 139.897 254.364ZM141.124 258.895C140.906 258.896 140.695 258.82 140.527 258.68C136.558 255.397 131.902 256.175 131.855 256.183C131.346 256.272 130.86 255.935 130.768 255.427C130.677 254.919 131.013 254.433 131.521 254.34C131.745 254.299 137.062 253.382 141.722 257.238C141.871 257.361 141.978 257.526 142.028 257.712C142.079 257.898 142.071 258.095 142.006 258.277C141.941 258.458 141.821 258.615 141.663 258.725C141.505 258.836 141.317 258.895 141.124 258.895ZM141.869 263.332C141.647 263.332 141.432 263.253 141.263 263.11C137.742 260.125 133.73 260.693 133.69 260.699C133.179 260.776 132.701 260.427 132.622 259.917C132.583 259.673 132.644 259.423 132.789 259.223C132.935 259.022 133.154 258.888 133.399 258.849C133.596 258.818 138.277 258.122 142.476 261.682C142.665 261.842 142.783 262.072 142.803 262.319C142.824 262.567 142.745 262.812 142.584 263.001C142.496 263.105 142.387 263.189 142.263 263.246C142.14 263.303 142.005 263.332 141.869 263.332Z" fill="#BFEBFF"/>
<path d="M184.461 240.961C177.574 240.926 170.783 239.53 159.082 229.778C153.104 224.796 146.439 224.673 144.689 229.167C143.094 236.09 155.05 244.523 184.461 240.961Z" fill="#292B2E"/>
<path d="M171.395 242.184C166.836 242.184 162.702 241.823 159.027 241.103C151.543 239.634 147.92 237.046 146.199 235.134C144.496 233.242 143.848 231.15 144.324 229.083C144.329 229.065 144.334 229.048 144.34 229.031C144.99 227.362 146.286 226.233 148.089 225.769C151.278 224.948 155.582 226.373 159.323 229.491C164.717 233.987 169.425 236.988 173.714 238.665C177.977 240.332 181.54 240.571 184.463 240.586C184.558 240.587 184.65 240.623 184.719 240.689C184.788 240.755 184.83 240.844 184.835 240.939C184.841 241.034 184.81 241.128 184.748 241.201C184.687 241.274 184.601 241.321 184.506 241.332C179.819 241.9 175.439 242.184 171.395 242.184ZM145.049 229.278C144.641 231.088 145.231 232.939 146.756 234.633C148.401 236.461 151.891 238.939 159.171 240.367C164.971 241.505 171.942 241.734 179.941 241.052C177.982 240.79 175.819 240.292 173.44 239.362C169.075 237.655 164.3 234.614 158.842 230.066C155.284 227.1 151.235 225.732 148.276 226.494C146.726 226.894 145.611 227.856 145.049 229.278Z" fill="#292B2E"/>
<path d="M184.778 239.813C184.702 240.563 183.826 242.899 182.737 245.584C182.62 245.869 182.502 246.158 182.382 246.449L182.374 246.468C182.374 246.469 182.374 246.469 182.373 246.47C182.184 246.93 181.992 247.394 181.797 247.86C181.602 248.327 181.405 248.792 181.21 249.254C180.909 249.963 180.61 250.659 180.325 251.322C180.313 251.35 180.301 251.378 180.289 251.406C180.284 251.419 180.279 251.431 180.273 251.445C179.103 254.16 178.166 256.265 178.166 256.265L178.079 256.275L178.071 256.276L170.612 257.13L162.728 252.455C162.687 251.961 162.843 250.002 163.112 247.379C163.158 246.918 163.209 246.437 163.262 245.94C163.951 239.512 165.133 230.383 165.793 227.919C167.127 222.928 185.342 234.244 184.778 239.813Z" fill="white"/>
<path d="M170.612 257.505C170.545 257.505 170.479 257.487 170.421 257.452L162.537 252.777C162.485 252.747 162.442 252.704 162.41 252.654C162.379 252.603 162.36 252.546 162.355 252.486C162.299 251.818 162.571 248.976 162.739 247.341C162.78 246.933 162.825 246.507 162.871 246.069L162.889 245.9C163.527 239.953 164.737 230.413 165.431 227.822C165.67 226.929 166.482 225.962 168.998 226.421C171.748 226.923 175.802 229.025 179.328 231.775C181.178 233.218 185.45 236.895 185.151 239.85C185.08 240.55 184.404 242.472 183.084 245.725C182.967 246.01 182.848 246.3 182.728 246.592L182.721 246.61L182.721 246.61L182.717 246.618C182.378 247.444 182.034 248.268 181.685 249.091L181.555 249.4C181.261 250.09 180.966 250.78 180.67 251.469L180.633 251.555C180.627 251.571 180.62 251.586 180.613 251.602C179.46 254.279 178.518 256.396 178.509 256.417C178.482 256.477 178.44 256.529 178.388 256.567C178.335 256.606 178.273 256.63 178.209 256.637L178.128 256.646C178.124 256.647 178.119 256.648 178.114 256.649L170.655 257.502C170.641 257.504 170.626 257.505 170.612 257.505ZM163.096 252.238L170.695 256.744L177.91 255.918C178.591 254.381 179.263 252.841 179.928 251.297L179.981 251.172C180.265 250.511 180.564 249.817 180.864 249.108L180.995 248.8C181.147 248.44 181.299 248.078 181.451 247.716C181.646 247.25 181.838 246.787 182.026 246.328L182.03 246.319L182.035 246.306C182.155 246.016 182.273 245.727 182.389 245.442C183.977 241.53 184.362 240.201 184.405 239.775C184.796 235.914 174.55 228.197 168.863 227.158C167.295 226.872 166.384 227.16 166.155 228.016C165.535 230.332 164.386 238.968 163.634 245.98L163.616 246.148C163.57 246.584 163.525 247.009 163.484 247.417C163.238 249.829 163.097 251.581 163.096 252.238Z" fill="#292B2E"/>
<path d="M182.746 245.586L178.239 256.265L170.05 256.796L162.916 252.122C162.916 252.122 163.825 243.576 163.853 243.474L182.746 245.586Z" fill="#BFEBFF"/>
<path d="M181.797 247.86C181.602 248.327 181.405 248.792 181.21 249.254L181.199 249.253L163.42 247.41L163.112 247.379C163.158 246.918 163.209 246.437 163.262 245.94L163.575 245.972L181.787 247.858L181.797 247.86Z" fill="white"/>
<path d="M170.612 257.505C170.545 257.505 170.479 257.487 170.421 257.452L162.537 252.777C162.485 252.747 162.442 252.704 162.41 252.654C162.379 252.603 162.36 252.546 162.355 252.486C162.299 251.818 162.571 248.976 162.739 247.341C162.78 246.933 162.825 246.507 162.871 246.069L162.889 245.9C163.527 239.953 164.737 230.413 165.431 227.822C165.67 226.929 166.482 225.962 168.998 226.421C171.748 226.923 175.802 229.025 179.328 231.775C181.178 233.218 185.45 236.895 185.151 239.85C185.08 240.55 184.404 242.472 183.084 245.725C182.967 246.01 182.848 246.3 182.728 246.592L182.721 246.61L182.721 246.61L182.717 246.618C182.378 247.444 182.034 248.268 181.685 249.091L181.555 249.4C181.261 250.09 180.966 250.78 180.67 251.469L180.633 251.555C180.627 251.571 180.62 251.586 180.613 251.602C179.46 254.279 178.518 256.396 178.509 256.417C178.482 256.477 178.44 256.529 178.388 256.567C178.335 256.606 178.273 256.63 178.209 256.637L178.128 256.646C178.124 256.647 178.119 256.648 178.114 256.649L170.655 257.502C170.641 257.504 170.626 257.505 170.612 257.505ZM163.096 252.238L170.695 256.744L177.91 255.918C178.591 254.381 179.263 252.841 179.928 251.297L179.981 251.172C180.265 250.511 180.564 249.817 180.864 249.108L180.995 248.8C181.147 248.44 181.299 248.078 181.451 247.716C181.646 247.25 181.838 246.787 182.026 246.328L182.03 246.319L182.035 246.306C182.155 246.016 182.273 245.727 182.389 245.442C183.977 241.53 184.362 240.201 184.405 239.775C184.796 235.914 174.55 228.197 168.863 227.158C167.295 226.872 166.384 227.16 166.155 228.016C165.535 230.332 164.386 238.968 163.634 245.98L163.616 246.148C163.57 246.584 163.525 247.009 163.484 247.417C163.238 249.829 163.097 251.581 163.096 252.238Z" fill="#292B2E"/>
<path d="M190.261 216.872C188.762 224.592 188.446 231.423 184.861 241.011C174.015 242.007 165.619 236.024 159.24 230.708C153.262 225.726 145.423 225.781 144.299 229.276C145.548 226.28 147.416 222.996 147.984 221.417C151.67 212.548 154.419 205.432 156.289 197.318C159.942 182.496 158.305 173.509 154.417 161.039C150.062 147.07 153.87 141.53 151.771 141.53L193.651 146.382C193.651 146.382 193.753 198.897 190.261 216.872Z" fill="#BFEBFF"/>
<mask id="mask0_232_1417" style="mask-type:luminance" maskUnits="userSpaceOnUse" x="131" y="144" width="71" height="91">
<path d="M201.426 148.192C201.684 156.179 201.673 163.204 201.657 170.316C201.625 185.485 201.68 192.292 200.572 198.568C195.9 225.032 157.917 233.895 157.293 234.145C146.173 226.904 143.198 217.559 141.086 212.077C137.954 203.948 133.09 203.113 131.305 204.683C135.834 200.565 152.122 197.011 156.289 197.318C183.031 193.073 162.915 156.869 169.287 144.884L201.426 148.192Z" fill="white"/>
</mask>
<g mask="url(#mask0_232_1417)">
<path d="M190.403 219.164C190.349 219.164 190.295 219.152 190.246 219.13C190.197 219.107 190.153 219.074 190.118 219.033C190.083 218.992 190.057 218.943 190.042 218.891C190.027 218.839 190.024 218.784 190.033 218.731C195.214 186.067 193.291 153.641 193.271 153.317C193.268 153.268 193.275 153.219 193.291 153.172C193.307 153.126 193.332 153.083 193.365 153.046C193.397 153.009 193.437 152.979 193.481 152.958C193.525 152.936 193.573 152.923 193.622 152.92C193.827 152.909 194.007 153.064 194.02 153.271C194.04 153.596 195.967 186.104 190.773 218.848C190.759 218.936 190.714 219.016 190.646 219.074C190.579 219.132 190.492 219.164 190.403 219.164ZM145.798 225.406C145.727 225.406 145.656 225.385 145.596 225.347C145.536 225.308 145.488 225.253 145.458 225.189C145.428 225.124 145.417 225.052 145.427 224.981C145.436 224.91 145.466 224.843 145.513 224.789C146.058 224.028 153.707 207.076 156.175 194.374C156.194 194.277 156.251 194.191 156.334 194.135C156.416 194.08 156.517 194.059 156.615 194.078C156.712 194.097 156.798 194.154 156.854 194.236C156.91 194.319 156.93 194.42 156.911 194.517C155.588 201.328 152.833 209.147 150.756 214.507C148.52 220.275 146.383 224.947 146.075 225.284C146.04 225.322 145.997 225.353 145.95 225.374C145.902 225.395 145.85 225.406 145.798 225.406ZM145.521 224.779L145.516 224.786C145.517 224.783 145.519 224.781 145.521 224.779Z" fill="white"/>
</g>
<path d="M162.33 251.867C162.33 251.867 160.016 266.306 158.306 274.673C158.306 274.673 186.203 275.847 195.48 275.279C200.515 274.971 202.965 273.141 204.146 271.806C204.146 271.806 204.144 271.801 204.14 271.789C204.137 271.781 204.133 271.768 204.128 271.753C204.128 271.753 204.127 271.752 204.127 271.752C203.873 271.109 201.192 264.761 192.172 259.975C190.766 259.229 186.242 257.135 180.994 256.395C177.402 255.889 174.407 255.744 172.045 255.162C167.744 254.101 165.701 251.463 162.33 251.867Z" fill="white"/>
<path d="M188.332 275.807C176.518 275.807 158.515 275.056 158.291 275.047C158.236 275.045 158.183 275.031 158.135 275.006C158.087 274.981 158.045 274.946 158.011 274.903C157.978 274.861 157.954 274.811 157.942 274.758C157.929 274.706 157.928 274.651 157.939 274.598C159.628 266.335 161.937 251.952 161.961 251.808C161.973 251.728 162.012 251.654 162.071 251.597C162.13 251.541 162.205 251.505 162.286 251.495C164.342 251.249 165.893 252.052 167.69 252.981C168.939 253.627 170.354 254.359 172.136 254.798C173.606 255.16 175.327 255.351 177.32 255.572C178.501 255.703 179.721 255.838 181.046 256.024C186.969 256.859 191.815 259.361 192.348 259.643C201.367 264.43 204.144 270.786 204.468 271.595C204.477 271.616 204.485 271.637 204.492 271.659L204.499 271.678C204.521 271.741 204.527 271.809 204.514 271.876C204.502 271.942 204.472 272.003 204.427 272.054C202.066 274.721 198.271 275.483 195.503 275.653C193.707 275.763 191.202 275.807 188.332 275.807ZM158.761 274.317C162.357 274.462 186.941 275.427 195.458 274.905C200.021 274.626 202.453 273.06 203.711 271.727C203.195 270.523 200.369 264.748 191.997 260.305C191.476 260.029 186.738 257.582 180.942 256.766C179.628 256.581 178.413 256.446 177.238 256.316C175.218 256.093 173.474 255.899 171.956 255.525C170.089 255.065 168.632 254.311 167.346 253.646C165.746 252.818 164.354 252.099 162.655 252.213C162.326 254.25 160.31 266.644 158.761 274.317Z" fill="#292B2E"/>
<path d="M162.33 251.867C163.612 251.913 165.421 251.913 168.085 253.752C171.839 256.343 177.994 254.943 184.258 256.821C190.856 258.717 197.197 262.126 201.533 267.536V267.537C202.134 268.285 202.765 269.197 203.185 269.909C195.059 275.375 185.762 272.14 181.191 270.099C177.249 268.338 175.998 270.456 172.775 269.338C170.084 268.405 169.596 266.233 166.15 265.739C162.93 265.277 159.886 267.559 159.886 267.559C159.886 267.559 161.477 257.261 162.33 251.867Z" fill="#292B2E"/>
<path d="M165.648 273.199C165.579 273.199 165.51 273.198 165.44 273.196C164.394 273.164 163.414 272.892 162.678 272.43C161.88 271.93 161.453 271.262 161.475 270.55C161.519 269.137 163.333 268.085 165.596 268.154C166.641 268.187 167.622 268.459 168.358 268.92C169.155 269.421 169.582 270.088 169.56 270.8C169.538 271.512 169.071 272.152 168.244 272.602C167.532 272.99 166.617 273.199 165.648 273.199ZM165.379 268.9C163.514 268.9 162.25 269.746 162.224 270.574C162.211 271.009 162.513 271.443 163.076 271.796C163.701 272.188 164.549 272.419 165.463 272.447C166.376 272.476 167.237 272.297 167.885 271.944C168.469 271.627 168.797 271.212 168.811 270.777C168.824 270.342 168.522 269.908 167.959 269.555C167.334 269.163 166.487 268.931 165.572 268.903C165.508 268.901 165.444 268.9 165.379 268.9Z" fill="#292B2E"/>
<path d="M163.408 263.005C162.902 263.005 162.589 262.956 162.551 262.95C162.503 262.942 162.456 262.924 162.414 262.898C162.373 262.872 162.336 262.838 162.308 262.798C162.279 262.758 162.259 262.713 162.248 262.665C162.236 262.617 162.235 262.568 162.243 262.519C162.277 262.315 162.47 262.179 162.673 262.211C162.7 262.215 165.33 262.615 168.053 260.822C168.656 260.426 169.152 260.068 169.589 259.753C171.287 258.528 172.223 257.854 175.561 257.53C175.767 257.512 175.951 257.661 175.971 257.867C175.98 257.966 175.95 258.064 175.887 258.141C175.824 258.218 175.733 258.266 175.634 258.276C172.497 258.58 171.672 259.175 170.028 260.36C169.584 260.68 169.082 261.042 168.466 261.448C166.438 262.782 164.485 263.005 163.408 263.005Z" fill="white"/>
<path d="M179.85 264.577C179.697 264.577 179.542 264.54 179.399 264.461C179.182 264.341 179.021 264.14 178.952 263.902C178.883 263.664 178.911 263.408 179.03 263.191C179.143 262.985 181.865 258.138 187.434 256.9C187.675 256.851 187.925 256.899 188.131 257.032C188.337 257.166 188.483 257.375 188.536 257.614C188.589 257.854 188.546 258.105 188.416 258.313C188.286 258.522 188.079 258.671 187.841 258.728C183.117 259.778 180.696 264.051 180.672 264.094C180.591 264.241 180.472 264.363 180.327 264.448C180.183 264.533 180.018 264.577 179.85 264.577ZM183.889 266.274C183.732 266.274 183.577 266.234 183.439 266.158C182.986 265.909 182.82 265.342 183.068 264.889C183.178 264.69 185.815 259.987 191.747 258.799C191.99 258.754 192.24 258.806 192.445 258.943C192.649 259.081 192.791 259.294 192.839 259.536C192.888 259.777 192.839 260.028 192.703 260.234C192.568 260.44 192.357 260.584 192.115 260.635C187.063 261.647 184.734 265.749 184.711 265.791C184.63 265.937 184.51 266.059 184.366 266.144C184.221 266.229 184.057 266.274 183.889 266.274ZM188.566 267.676C188.401 267.676 188.239 267.632 188.097 267.548C187.65 267.289 187.498 266.719 187.756 266.272C187.856 266.1 190.264 262.029 195.676 261.014C195.919 260.97 196.17 261.025 196.374 261.165C196.578 261.305 196.718 261.52 196.763 261.763C196.809 262.006 196.757 262.257 196.618 262.462C196.479 262.666 196.265 262.807 196.022 262.855C191.483 263.706 189.398 267.177 189.377 267.212C189.294 267.353 189.176 267.47 189.033 267.552C188.891 267.633 188.73 267.676 188.566 267.676Z" fill="#BFEBFF"/>
<path d="M242.165 90.9351C244.085 89.7155 245.993 88.6214 247.914 87.6307C262.654 80.0315 272.949 79.0846 272.322 81.0027C272.114 81.6377 271.48 82.365 269.428 83.8472C271.931 82.8414 277.737 82.6272 270.321 87.2923C270.321 87.2923 277.786 86.4024 268.343 91.3748C271.661 90.6612 271.519 92.2647 262.282 97.7443C256.157 101.378 252.826 104.889 246.765 111.814C232.226 128.426 235.108 95.4175 242.165 90.9351Z" fill="white"/>
<path d="M240.064 116.827C239.765 116.827 239.479 116.786 239.206 116.704C237.629 116.234 236.579 114.427 236.17 111.479C235.709 108.168 236.083 103.694 237.17 99.5096C238.325 95.0607 240.072 91.8203 241.963 90.6191C243.859 89.4148 245.803 88.2973 247.741 87.2979C255.208 83.4483 260.926 81.5908 264.407 80.7104C268.552 79.6623 271.549 79.481 272.424 80.2256C272.695 80.4564 272.787 80.782 272.677 81.119C272.516 81.612 272.165 82.1384 271.14 83.0006C272.465 82.7804 273.868 82.8211 274.242 83.5521C274.593 84.2383 273.876 84.9988 273.64 85.2488C273.204 85.7113 272.545 86.2481 271.673 86.8511C272.477 86.878 273.286 87.0526 273.463 87.6183C273.636 88.1738 273.319 88.9994 270.02 90.8845C270.346 90.9546 270.551 91.11 270.646 91.3522C270.866 91.9117 270.354 92.6398 268.935 93.7867C267.559 94.8991 265.384 96.3389 262.473 98.0662C256.489 101.616 253.177 105.057 247.047 112.06C244.274 115.228 241.931 116.827 240.064 116.827ZM270.398 80.5246C269.189 80.5246 267.279 80.757 264.591 81.4366C261.147 82.3075 255.489 84.1467 248.085 87.9635C246.14 88.9666 244.269 90.042 242.365 91.2511C240.633 92.3516 239.004 95.4305 237.895 99.6976C236.848 103.731 236.472 108.205 236.912 111.376C237.375 114.706 238.532 115.721 239.42 115.986C241.077 116.482 243.519 114.953 246.483 111.568C252.668 104.501 256.013 101.028 262.09 97.4223C269.292 93.15 269.892 91.8519 269.94 91.6399C269.849 91.601 269.493 91.5105 268.422 91.7411C268.333 91.7601 268.241 91.7465 268.161 91.7027C268.082 91.6589 268.021 91.5879 267.99 91.5028C267.959 91.4178 267.96 91.3244 267.993 91.2399C268.026 91.1555 268.088 91.0858 268.168 91.0436C272.804 88.6022 272.751 87.8698 272.747 87.8398C272.642 87.6462 271.555 87.5226 270.365 87.6643C270.281 87.6742 270.195 87.6551 270.123 87.6102C270.051 87.5653 269.996 87.4973 269.968 87.4172C269.939 87.3372 269.939 87.2498 269.967 87.1696C269.995 87.0893 270.049 87.0208 270.121 86.9754C273.883 84.6091 273.578 83.8999 273.574 83.893C273.375 83.5039 271.28 83.5066 269.567 84.1947C269.482 84.2289 269.388 84.2308 269.302 84.2001C269.215 84.1695 269.143 84.1083 269.099 84.0282C269.055 83.9481 269.042 83.8546 269.062 83.7654C269.082 83.6762 269.134 83.5973 269.208 83.5437C271.38 81.9744 271.817 81.3393 271.965 80.8866C271.98 80.8397 271.979 80.8317 271.938 80.7961C271.755 80.6402 271.25 80.5246 270.398 80.5246Z" fill="#292B2E"/>
<path d="M263.869 86.3343C263.797 86.3344 263.726 86.3135 263.666 86.2743C263.605 86.235 263.557 86.1791 263.527 86.1133C263.507 86.0684 263.496 86.02 263.494 85.9709C263.493 85.9217 263.501 85.8728 263.519 85.8268C263.536 85.7808 263.562 85.7387 263.596 85.7029C263.63 85.6671 263.67 85.6383 263.715 85.6181C263.74 85.6068 266.278 84.4716 270.126 83.2312C270.221 83.2007 270.324 83.209 270.412 83.2544C270.501 83.2997 270.567 83.3782 270.598 83.4728C270.628 83.5673 270.62 83.6701 270.575 83.7585C270.529 83.8469 270.451 83.9137 270.356 83.9442C266.55 85.1707 264.048 86.29 264.023 86.3013C263.973 86.3237 263.921 86.3343 263.869 86.3343ZM263.793 90.227C263.709 90.2271 263.626 90.1986 263.56 90.1461C263.494 90.0936 263.447 90.0203 263.428 89.938C263.409 89.8558 263.418 89.7694 263.454 89.6929C263.49 89.6165 263.551 89.5544 263.626 89.5169C263.815 89.423 268.283 87.2161 270.682 86.8845C270.731 86.8778 270.781 86.8807 270.829 86.8931C270.876 86.9055 270.921 86.9272 270.96 86.9569C270.999 86.9866 271.032 87.0237 271.057 87.0662C271.082 87.1086 271.098 87.1555 271.105 87.2042C271.112 87.253 271.109 87.3025 271.097 87.3501C271.084 87.3977 271.062 87.4424 271.033 87.4816C271.003 87.5208 270.966 87.5538 270.923 87.5787C270.881 87.6036 270.834 87.6198 270.785 87.6266C268.506 87.9414 264.005 90.1653 263.96 90.1878C263.906 90.2142 263.849 90.227 263.793 90.227ZM264.119 93.2005C264.033 93.2004 263.949 93.1704 263.882 93.1157C263.815 93.061 263.769 92.9849 263.752 92.9003C263.735 92.8157 263.748 92.7278 263.788 92.6514C263.828 92.575 263.893 92.5148 263.973 92.481C264.108 92.424 267.287 91.0845 268.617 90.9397C268.716 90.9289 268.815 90.9578 268.893 91.02C268.97 91.0822 269.02 91.1726 269.031 91.2714C269.042 91.3701 269.013 91.4691 268.95 91.5466C268.888 91.624 268.798 91.6736 268.699 91.6844C267.478 91.8173 264.297 93.1572 264.265 93.1707C264.219 93.1904 264.169 93.2005 264.119 93.2005Z" fill="#292B2E"/>
<path d="M254.04 96.3197C257.811 92.6873 265.707 85.1849 264.109 84.4553C262.511 83.7259 252.374 88.3923 252.374 88.3923" fill="white"/>
<path d="M254.04 96.6941C253.965 96.6941 253.892 96.6718 253.83 96.63C253.768 96.5883 253.72 96.529 253.692 96.4597C253.664 96.3905 253.658 96.3145 253.673 96.2415C253.689 96.1684 253.726 96.1018 253.78 96.0499L254.259 95.5892C256.109 93.8087 258.643 91.3704 260.678 89.1895C263.868 85.7701 263.975 84.9514 263.946 84.793C262.909 84.3617 256.659 86.8323 252.531 88.7323C252.441 88.7716 252.339 88.7741 252.247 88.7392C252.156 88.7044 252.081 88.6349 252.04 88.5458C251.999 88.4567 251.995 88.3551 252.028 88.2628C252.061 88.1704 252.129 88.0948 252.217 88.0521C252.243 88.0403 254.793 86.8687 257.505 85.8017C262.539 83.8217 263.774 83.8904 264.265 84.1146C264.492 84.2182 264.64 84.4107 264.682 84.6564C264.92 86.052 261.231 89.9197 254.779 96.1287L254.3 96.5894C254.23 96.6567 254.137 96.6942 254.04 96.6941Z" fill="#292B2E"/>
<path d="M221.751 139.621C233.12 133.005 242.116 116.026 251.987 106.039C247.989 101.67 244.49 94.3041 243.616 90.0596C238.743 92.6812 225.124 101.17 215.753 110.034C215.753 110.034 206.133 70.8342 193.646 70.7579L204.259 143.741C204.259 143.741 213.151 144.625 221.751 139.621Z" fill="white"/>
<path d="M205.84 144.17C204.833 144.17 204.244 144.116 204.221 144.113C204.138 144.105 204.06 144.069 203.999 144.011C203.939 143.954 203.899 143.877 203.887 143.795L193.274 70.8119C193.267 70.7587 193.27 70.7045 193.286 70.6529C193.301 70.6013 193.327 70.5535 193.362 70.5129C193.397 70.4723 193.441 70.4397 193.49 70.4174C193.538 70.395 193.592 70.3835 193.645 70.3835H193.648C196.622 70.4018 199.659 72.5295 202.672 76.7081C205.041 79.9932 207.416 84.561 209.73 90.2843C213.095 98.6071 215.362 107.016 215.96 109.326C225.203 100.722 238.405 92.4378 243.438 89.7297C243.489 89.7021 243.546 89.6868 243.605 89.6852C243.663 89.6835 243.721 89.6955 243.774 89.7202C243.827 89.7449 243.873 89.7817 243.91 89.8275C243.946 89.8733 243.971 89.9269 243.983 89.984C244.85 94.1929 248.384 101.547 252.263 105.786C252.328 105.857 252.363 105.95 252.361 106.046C252.359 106.142 252.321 106.234 252.253 106.302C248.556 110.043 245.051 114.679 241.34 119.587C235.32 127.548 229.095 135.78 221.939 139.945C215.502 143.691 208.831 144.17 205.84 144.17ZM204.586 143.389C206.178 143.481 214.032 143.679 221.562 139.297C228.587 135.209 234.766 127.038 240.741 119.135C244.385 114.316 247.832 109.759 251.472 106.028C247.635 101.705 244.371 94.8826 243.358 90.6265C237.97 93.5903 224.965 101.836 216.011 110.306C215.963 110.351 215.905 110.383 215.841 110.398C215.777 110.413 215.71 110.412 215.648 110.393C215.585 110.375 215.528 110.34 215.482 110.293C215.437 110.245 215.405 110.187 215.389 110.123C215.295 109.739 205.929 72.1365 194.082 71.1523L204.586 143.389Z" fill="#292B2E"/>
<path d="M213.076 116.276C213.015 116.276 212.956 116.262 212.902 116.233C212.848 116.205 212.802 116.164 212.768 116.115C212.733 116.065 212.711 116.007 212.704 115.947C212.697 115.887 212.704 115.826 212.726 115.769C212.78 115.626 214.068 112.238 215.442 109.866C215.493 109.784 215.575 109.724 215.669 109.7C215.764 109.677 215.864 109.691 215.948 109.74C216.032 109.788 216.095 109.868 216.121 109.962C216.148 110.056 216.137 110.156 216.091 110.242C214.748 112.559 213.44 116 213.427 116.034C213.4 116.105 213.352 116.167 213.289 116.21C213.227 116.253 213.152 116.276 213.076 116.276ZM247.47 111.384C247.365 111.384 247.261 111.341 247.187 111.255C241.193 104.343 238.558 97.276 237.521 93.6787C237.507 93.6315 237.503 93.582 237.508 93.5331C237.514 93.4842 237.529 93.4369 237.553 93.3939C237.577 93.3508 237.609 93.3129 237.647 93.2822C237.686 93.2515 237.73 93.2287 237.777 93.2151C237.824 93.2015 237.874 93.1973 237.923 93.2028C237.972 93.2083 238.019 93.2234 238.062 93.2472C238.105 93.2709 238.143 93.303 238.174 93.3414C238.205 93.3799 238.227 93.424 238.241 93.4713C239.261 97.0095 241.854 103.961 247.753 110.765C247.8 110.819 247.831 110.885 247.841 110.957C247.851 111.028 247.841 111.1 247.811 111.165C247.781 111.231 247.733 111.286 247.673 111.325C247.612 111.364 247.542 111.384 247.47 111.384Z" fill="#292B2E"/>
<path d="M174.081 62.1075C174.081 62.1075 188.746 67.931 192.608 65.5079C192.161 68.3044 194.554 71.4147 196.306 74.6646C209.381 100.047 210.506 146.487 205.002 152.428C204.757 153.916 204.494 155.401 204.212 156.883C202.759 152.355 154.781 149.359 148.188 153.5C148.053 152.214 147.945 150.823 147.867 149.339C142.662 141.743 152.114 83.8359 174.081 62.1075Z" fill="white"/>
<path d="M204.211 157.257C204.132 157.257 204.054 157.232 203.99 157.185C203.926 157.138 203.879 157.072 203.855 156.997C203.796 156.816 203.476 156.327 201.766 155.704C197.202 154.04 185.842 152.584 173.497 152.079C160.558 151.549 150.937 152.216 148.387 153.817C148.333 153.851 148.271 153.871 148.208 153.874C148.144 153.877 148.081 153.865 148.023 153.837C147.966 153.809 147.917 153.767 147.88 153.715C147.844 153.663 147.821 153.602 147.815 153.539C147.682 152.266 147.575 150.895 147.498 149.461C145.774 146.777 146.008 139.602 146.304 135.533C146.827 128.343 148.289 119.607 150.42 110.934C152.837 101.096 156.027 91.6726 159.644 83.6818C163.897 74.2851 168.665 66.9371 173.817 61.8416C173.869 61.7904 173.934 61.7554 174.006 61.7408C174.077 61.7263 174.151 61.7328 174.219 61.7597C174.255 61.7742 177.919 63.2232 182.002 64.3575C188.724 66.2247 191.371 65.8416 192.408 65.191C192.469 65.1528 192.54 65.133 192.612 65.1339C192.684 65.1347 192.754 65.1563 192.814 65.196C192.874 65.2357 192.921 65.2918 192.95 65.3576C192.979 65.4235 192.989 65.4963 192.977 65.5673C192.648 67.6325 194.009 69.9528 195.45 72.4094C195.847 73.086 196.258 73.7857 196.636 74.4874C202.415 85.7061 206.554 102.587 207.994 120.808C209.225 136.366 208.138 149.377 205.353 152.597C205.113 154.052 204.855 155.504 204.579 156.953C204.564 157.035 204.521 157.109 204.459 157.164C204.396 157.219 204.317 157.252 204.234 157.257L204.211 157.257ZM165.36 151.155C167.924 151.155 170.668 151.213 173.527 151.33C183.859 151.753 196.676 153.051 202.023 155C202.92 155.327 203.57 155.656 203.995 156.003C204.221 154.788 204.434 153.569 204.632 152.368C204.643 152.295 204.676 152.228 204.726 152.174C207.394 149.295 208.454 136.128 207.247 120.867C205.814 102.741 201.705 85.9635 195.973 74.8361C195.604 74.1524 195.197 73.4588 194.804 72.7879C193.438 70.4609 192.142 68.2506 192.178 66.1271C190.278 66.818 186.793 66.4663 181.795 65.0774C178.263 64.0957 175.042 62.8811 174.172 62.5453C169.152 67.5694 164.494 74.7827 160.327 83.9906C156.729 91.94 153.555 101.319 151.148 111.113C149.026 119.746 147.572 128.438 147.051 135.588C146.554 142.424 146.964 147.359 148.176 149.127C148.215 149.184 148.237 149.251 148.241 149.319C148.307 150.571 148.396 151.775 148.505 152.907C150.126 152.158 153.186 151.641 157.618 151.368C159.923 151.226 162.532 151.155 165.36 151.155Z" fill="#292B2E"/>
<path d="M204.85 153.023C204.803 153.023 204.757 153.014 204.714 152.997C198.956 150.761 191.134 149.237 181.466 148.468C161.011 146.84 151.871 148.721 148.243 149.987C148.149 150.018 148.047 150.011 147.959 149.968C147.87 149.924 147.802 149.848 147.77 149.755C147.737 149.662 147.743 149.56 147.785 149.471C147.827 149.382 147.903 149.313 147.995 149.279C151.679 147.994 160.934 146.082 181.525 147.721C191.266 148.496 199.16 150.037 204.986 152.299C205.067 152.331 205.135 152.39 205.178 152.466C205.22 152.543 205.234 152.631 205.218 152.717C205.202 152.803 205.156 152.881 205.089 152.936C205.022 152.992 204.937 153.023 204.85 153.023Z" fill="#292B2E"/>
<path d="M174.285 73.2262C180.408 75.9727 196.15 79.4682 198.025 72.3523C198.025 72.3523 199.024 68.732 196.275 65.7358C196.275 65.7358 193.027 69.1065 185.905 67.4836C179.931 66.1222 173.286 61.9906 170.8 57.9026C169.788 58.2454 163.945 59.117 164.349 64.506C164.665 68.732 171.442 71.9505 174.285 73.2262Z" fill="white"/>
<path d="M189.558 76.9245C187.801 76.9245 186.044 76.7352 184.55 76.5031C180.179 75.8241 176.302 74.5415 174.132 73.5678C172.546 72.8567 170.202 71.7417 168.151 70.2771C165.525 68.401 164.119 66.4686 163.975 64.5339C163.591 59.4079 168.588 58.1019 170.23 57.6727C170.42 57.623 170.584 57.58 170.679 57.5478C170.76 57.5205 170.847 57.5215 170.928 57.5506C171.008 57.5797 171.075 57.6352 171.12 57.708C173.504 61.6281 180.035 65.7617 185.988 67.1183C192.794 68.6691 195.975 65.5072 196.006 65.475C196.041 65.4385 196.084 65.4095 196.131 65.39C196.179 65.3705 196.229 65.3608 196.28 65.3615C196.331 65.3622 196.382 65.3733 196.428 65.3941C196.475 65.415 196.517 65.4451 196.551 65.4826C199.407 68.5959 198.429 72.2958 198.386 72.4518C197.988 73.9619 196.985 75.1123 195.405 75.8666C193.754 76.6547 191.655 76.9244 189.558 76.9245ZM170.632 58.3412C170.567 58.3587 170.496 58.3773 170.419 58.3974C168.769 58.8287 164.385 59.9747 164.722 64.4781C164.93 67.2574 168.199 70.0856 174.439 72.8844C178.875 74.8744 189.839 77.6936 195.081 75.1907C196.453 74.5357 197.322 73.5487 197.662 72.257C197.672 72.2203 198.509 69.0115 196.242 66.2679C195.265 67.0686 191.932 69.2412 185.822 67.8486C182.869 67.1757 179.681 65.8205 176.844 64.0323C174.079 62.2889 171.886 60.2773 170.632 58.3412ZM180.314 39.6362C182.58 40.7181 186.778 46.9616 186.778 46.9616C186.778 46.9616 194.08 35.6811 198.149 35.3997C188.902 31.1227 181.075 36.9884 180.314 39.6362Z" fill="#292B2E"/>
<path d="M186.778 47.336C186.717 47.336 186.656 47.3209 186.602 47.292C186.548 47.2632 186.501 47.2214 186.467 47.1704C186.426 47.1088 182.3 40.9995 180.153 39.974C180.073 39.9357 180.009 39.8704 179.972 39.7896C179.936 39.7089 179.93 39.6178 179.954 39.5326C180.446 37.8227 182.947 35.9033 185.163 34.8908C187.565 33.7941 192.465 32.3578 198.307 35.0596C198.382 35.0945 198.444 35.1535 198.482 35.2274C198.521 35.3012 198.533 35.3857 198.518 35.4674C198.503 35.5492 198.461 35.6236 198.399 35.679C198.337 35.7344 198.258 35.7675 198.175 35.7732C194.99 35.9936 189.095 44.0711 187.093 47.1649C187.059 47.2169 187.013 47.2599 186.959 47.2897C186.904 47.3196 186.843 47.3355 186.781 47.336H186.778ZM180.778 39.4635C182.779 40.6873 185.789 44.8762 186.772 46.2905C188.092 44.3169 193.24 36.8959 196.998 35.3168C191.87 33.3266 187.622 34.5917 185.475 35.5724C182.996 36.7045 181.282 38.3494 180.778 39.4635Z" fill="#292B2E"/>
<path d="M204.625 51.3708C204.745 52.7825 203.998 54.2547 202.517 55.0932C198.659 57.2766 193.576 56.1156 193.576 56.1156C193.576 56.1156 192.189 63.295 192.902 67.8581C192.902 67.8581 185.11 70.2175 174.16 62.1154C177.443 58.0805 178.992 53.8856 180.349 49.6604C177.621 49.3051 174.563 46.5607 175.218 42.8662C175.592 40.7587 177.839 39.3168 180.013 39.6511C182.248 39.9944 183.726 41.8199 185.447 43.6721C187.393 45.766 187.968 44.0104 188.734 41.7982C189.226 40.377 189.795 38.7675 190.857 37.8684C193.257 35.8349 198.636 34.7556 198.636 34.7556C198.636 34.7556 198.917 36.7675 199.02 37.6864C199.155 38.9018 199.419 40.4415 199.908 41.0439C200.767 42.1009 201.61 41.9056 201.647 42.6053C201.679 43.2053 201.016 43.9426 200.632 44.2639C200.952 48.3587 204.348 48.0769 204.625 51.3708Z" fill="white"/>
<path d="M198.005 35.6674C198.095 36.3292 198.216 37.2396 198.275 37.7691C198.591 40.6106 199.144 41.2917 199.326 41.5161C199.839 42.1473 200.361 42.4228 200.706 42.6052C200.765 42.6364 200.839 42.6751 200.892 42.7066C200.841 42.9241 200.525 43.3764 200.151 43.6894C200.06 43.766 199.988 43.8634 199.941 43.9734C199.895 44.0835 199.876 44.203 199.885 44.322C200.076 46.7777 201.305 47.9054 202.292 48.8115C203.119 49.5704 203.772 50.1697 203.879 51.4337C203.979 52.6276 203.316 53.78 202.147 54.4414C200.346 55.461 198.225 55.6749 196.763 55.6749C195.043 55.6749 193.755 55.3882 193.743 55.3854C193.645 55.3631 193.544 55.3606 193.445 55.3783C193.346 55.3959 193.251 55.4333 193.167 55.4882C193.083 55.5431 193.01 55.6143 192.954 55.6977C192.898 55.7811 192.859 55.875 192.84 55.9737C192.785 56.2573 191.566 62.6537 192.068 67.2698C191.605 67.3465 190.892 67.4286 189.966 67.4286C187.979 67.4286 185.864 67.0672 183.68 66.3546C180.883 65.4418 178.044 63.9673 175.233 61.9677C178.316 57.9555 179.805 53.8076 181.063 49.8892C181.096 49.7847 181.107 49.6741 181.093 49.5652C181.079 49.4563 181.041 49.3518 180.982 49.2591C180.923 49.1664 180.845 49.0878 180.752 49.0288C180.659 48.9698 180.555 48.9319 180.446 48.9177C179.086 48.7407 177.7 47.8933 176.828 46.7064C176.266 45.9409 175.659 44.676 175.957 42.9971C176.22 41.514 177.723 40.3522 179.38 40.3522C179.554 40.3522 179.729 40.3654 179.9 40.3916C181.665 40.6629 182.941 42.0526 184.418 43.6618C184.577 43.8342 184.736 44.008 184.898 44.1819C185.645 44.9859 186.291 45.3603 186.93 45.3603C188.295 45.3603 188.839 43.7873 189.415 42.122L189.442 42.0433C189.877 40.7858 190.419 39.2209 191.342 38.4399C193.042 36.9985 196.467 36.0421 198.005 35.6674ZM198.636 34.7555C198.636 34.7555 193.257 35.8347 190.857 37.8683C189.795 38.7674 189.226 40.3769 188.734 41.7981C188.21 43.3114 187.776 44.6109 186.93 44.6109C186.54 44.6109 186.062 44.3335 185.447 43.6719C183.727 41.8198 182.248 39.9943 180.014 39.651C179.804 39.6188 179.592 39.6027 179.38 39.6028C177.421 39.6028 175.556 40.9632 175.219 42.8661C174.564 46.5606 177.621 49.305 180.349 49.6603C178.993 53.8855 177.443 58.0803 174.161 62.1153C181.08 67.2355 186.739 68.1775 189.967 68.1775C191.846 68.1775 192.902 67.8579 192.902 67.8579C192.189 63.2949 193.576 56.1155 193.576 56.1155C193.576 56.1155 194.926 56.4238 196.763 56.4238C198.49 56.4238 200.647 56.1512 202.517 55.093C203.999 54.2546 204.745 52.7824 204.626 51.3707C204.349 48.0768 200.952 48.3586 200.633 44.2638C201.017 43.9425 201.68 43.2052 201.648 42.6052C201.61 41.9055 200.768 42.1008 199.908 41.0438C199.419 40.4413 199.155 38.9017 199.02 37.6862C198.917 36.7675 198.636 34.7555 198.636 34.7555Z" fill="#292B2E"/>
<ellipse cx="197.631" cy="40.9332" rx="0.639583" ry="1.27917" fill="#292B2E"/>
<path d="M193.652 55.7486C193.652 55.7486 190.461 55.121 188.727 52.8241C188.055 53.224 187.461 57.3474 191.141 59.0879C191.804 59.4014 192.313 59.5078 192.702 59.469C192.652 55.1244 193.652 55.7486 193.652 55.7486Z" fill="#292B2E"/>
<path d="M192.728 59.8177C192.283 59.8177 191.77 59.6779 191.168 59.393C188.485 58.1241 188.089 55.7551 188.043 54.7954C188 53.8949 188.195 52.7827 188.723 52.4688C188.802 52.4215 188.896 52.4052 188.987 52.423C189.077 52.4408 189.158 52.4913 189.214 52.565C190.622 54.4314 193.099 55.1491 193.751 55.3105C193.865 55.3171 193.966 55.3528 194.037 55.3974C194.112 55.4436 194.168 55.5146 194.195 55.5979C194.223 55.6811 194.22 55.7714 194.188 55.853C194.156 55.9345 194.096 56.0022 194.019 56.0441C193.941 56.086 193.852 56.0996 193.766 56.0824L193.718 56.0724C193.618 56.173 193.232 56.7391 193.263 59.4311C193.264 59.5247 193.23 59.6154 193.168 59.6852C193.105 59.755 193.019 59.7988 192.926 59.8081C192.86 59.8146 192.794 59.8178 192.728 59.8177ZM188.948 53.4207C188.834 53.759 188.733 54.3459 188.819 55.0832C188.928 56.0198 189.419 57.7374 191.489 58.7159C191.881 58.9014 192.223 59.0143 192.512 59.0532C192.517 57.2389 192.717 56.3358 192.957 55.8663C191.948 55.5475 190.208 54.8309 188.948 53.4207ZM191.928 41.1819C191.101 36.6205 197.53 36.1411 196.204 38.4458C195.406 39.1562 194.654 39.7393 193.929 40.5328C193.508 41.0071 192.512 42.1911 191.96 41.2832C191.946 41.2505 191.935 41.2166 191.928 41.1819ZM199.809 48.0503C198.693 49.1273 196.646 48.6231 196.02 47.244C195.823 46.8293 195.515 45.6611 196.188 45.6143C196.242 45.6294 196.29 45.6614 196.326 45.7057C196.361 45.75 196.381 45.8044 196.383 45.8609C196.388 47.3617 198.177 48.3305 199.473 47.6417C199.728 47.4747 200.023 47.8341 199.809 48.0503Z" fill="#292B2E"/>
<path d="M179.927 45.087C179.839 45.1407 179.74 45.1874 179.622 45.2391C176.56 46.681 162.527 50.627 160.704 46.7852C159.249 43.7189 168.202 39.2823 172.427 37.3999C172.59 37.3261 172.744 37.2548 172.9 37.193C173.828 36.7844 174.444 36.5397 174.534 36.4955L174.544 36.493L179.927 45.087Z" fill="#BFEBFF"/>
<path d="M179.927 45.087C179.839 45.1407 179.74 45.1874 179.622 45.239C178.112 44.9896 173.595 43.3651 172.424 37.3904C172.588 37.3166 172.741 37.2453 172.898 37.1835C173.826 36.7749 174.442 36.5302 174.532 36.486L174.541 36.4835C174.544 36.493 176.61 42.7785 179.927 45.087Z" fill="#292B2E"/>
<path d="M198.639 34.7968C198.607 34.823 198.573 34.8504 198.537 34.8791C198.518 34.8954 198.498 34.9091 198.479 34.9241C198.181 35.1625 197.813 35.4384 197.466 35.6794C197.396 35.7293 197.331 35.7743 197.274 35.813L197.262 35.8217C196.51 36.336 195.603 36.9016 194.585 37.4833C194.5 37.532 194.426 37.5732 194.352 37.6144L194.342 37.6131C191.023 39.5157 186.732 41.5219 183.85 42.0724C182.888 42.2559 182.059 42.4058 181.343 42.5293C181.252 42.5481 181.171 42.5593 181.091 42.5693C180.646 42.6454 180.254 42.7079 179.893 42.7541C179.843 42.759 179.792 42.7728 179.742 42.7765L179.63 42.7928C179.569 42.8052 179.511 42.809 179.449 42.8215C179.318 42.8452 179.188 42.8589 179.067 42.8751C179.017 42.8789 178.977 42.8839 178.926 42.8976C178.464 42.9625 178.084 42.9962 177.764 43.0287C177.714 43.0324 177.674 43.0374 177.624 43.0412C177.574 43.0449 177.534 43.0512 177.493 43.0562L177.373 43.0711C177.333 43.0761 177.293 43.0811 177.253 43.0774C177.194 43.0799 177.144 43.0836 177.094 43.0886C177.063 43.0949 177.034 43.0911 177.013 43.0986C176.904 43.1049 176.804 43.1136 176.714 43.1223C172.06 37.537 174.464 27.9368 182.94 25.4937C183.033 25.465 183.125 25.4363 183.226 25.4188C183.236 25.42 183.238 25.41 183.248 25.4113C184.719 25.0006 186.25 24.8545 187.769 24.9631C192.431 25.4962 195.24 28.0279 196.834 30.4498C198.017 32.2463 198.532 33.9815 198.639 34.7968Z" fill="#BFEBFF"/>
<path d="M183.406 49.3817C181.657 49.7562 181.032 49.7562 180.349 49.6604C177.621 49.3051 174.564 46.5607 175.219 42.8662C175.592 40.7586 177.839 39.3167 180.014 39.6511C182.248 39.9944 183.684 42.2863 185.405 44.1384" fill="white"/>
<path d="M181.068 50.0888C180.792 50.0888 180.55 50.0667 180.297 50.0312C178.646 49.8164 176.968 48.7967 175.922 47.3707C175.23 46.4286 174.482 44.8709 174.849 42.8009C175.253 40.5199 177.646 38.9086 180.07 39.281C181.97 39.5729 183.32 41.1547 184.627 42.6845C184.968 43.0844 185.321 43.498 185.68 43.8836C185.747 43.9564 185.783 44.053 185.779 44.1522C185.776 44.2515 185.733 44.3452 185.66 44.4128C185.587 44.4804 185.49 44.5163 185.391 44.5126C185.292 44.5089 185.198 44.466 185.13 44.3932C184.761 43.9958 184.403 43.5764 184.056 43.1705C182.783 41.6794 181.581 40.2707 179.956 40.0212C177.958 39.7136 175.917 41.0741 175.587 42.9316C175.267 44.7409 175.921 46.1034 176.526 46.9278C177.456 48.1944 178.939 49.0993 180.397 49.289C180.984 49.3714 181.534 49.3994 183.327 49.0155C183.53 48.9729 183.729 49.101 183.772 49.3033C183.816 49.5055 183.687 49.7046 183.484 49.7479C182.312 49.9989 181.623 50.0888 181.068 50.0888Z" fill="#292B2E"/>
<path d="M182.716 46.8855C182.639 46.8854 182.565 46.8621 182.502 46.8187C182.439 46.7753 182.391 46.7138 182.365 46.6424C180.984 42.9637 178.255 43.2303 178.227 43.2326C178.178 43.239 178.128 43.2355 178.08 43.2223C178.032 43.2091 177.987 43.1866 177.948 43.156C177.909 43.1253 177.876 43.0872 177.852 43.0439C177.828 43.0005 177.812 42.9528 177.807 42.9035C177.801 42.8541 177.805 42.8041 177.819 42.7565C177.833 42.7088 177.856 42.6644 177.888 42.6257C177.919 42.5871 177.957 42.5551 178.001 42.5315C178.045 42.508 178.093 42.4933 178.142 42.4885C178.175 42.4841 181.483 42.1599 183.067 46.3794C183.088 46.436 183.095 46.497 183.088 46.5571C183.08 46.6172 183.058 46.6745 183.024 46.7243C182.989 46.774 182.943 46.8147 182.89 46.8428C182.836 46.8708 182.776 46.8855 182.716 46.8855ZM198.449 35.0469C198.416 35.0731 198.382 35.1006 198.346 35.1293C198.327 35.1455 198.307 35.1592 198.289 35.1742C197.958 35.4301 197.571 35.7198 197.275 35.9295C197.205 35.9794 197.14 36.0244 197.083 36.0631L197.072 36.0718C196.32 36.5862 195.412 37.1517 194.394 37.7334C194.309 37.7821 194.235 37.8233 194.162 37.8645C193.463 36.9919 192.856 35.1717 193.216 33.791C193.565 32.4577 194.986 31.3154 196.643 30.7C197.826 32.4964 198.341 34.2317 198.449 35.0469Z" fill="#292B2E"/>
<path d="M169.912 66.7344C167.413 64.6122 151.124 57.2194 135.803 85.3356C130.185 95.6443 124.223 110.581 121.819 150.307C121.246 159.766 117.61 162.333 115.348 166.811C113.561 167.066 110.785 170.07 110.351 175.287C110.074 178.625 111.872 179.8 113.453 179.473C113.453 179.473 114.083 182.099 117.526 181.287C117.526 181.287 118.839 183.791 121.644 182.31C121.644 182.31 123.674 187.653 132.622 173.413C138.156 164.607 146.703 144.994 151.543 121.534C153.766 116.867 180.657 77.4707 169.912 66.7344Z" fill="white"/>
<path d="M123.152 183.666C123.077 183.666 123.002 183.663 122.929 183.656C122.164 183.58 121.719 183.131 121.491 182.8C120.637 183.179 119.827 183.254 119.079 183.022C118.167 182.739 117.601 182.073 117.348 181.708C116.961 181.784 116.607 181.818 116.285 181.818C114.282 181.818 113.477 180.514 113.206 179.887C112.448 179.958 111.712 179.722 111.145 179.22C110.509 178.658 109.79 177.513 109.978 175.255C110.424 169.885 113.221 166.916 115.097 166.477C115.668 165.375 116.305 164.403 116.978 163.378C118.968 160.345 121.025 157.21 121.445 150.284C123.801 111.348 129.58 95.9718 135.473 85.1562C139.131 78.444 143.138 73.2299 147.382 69.6586C150.869 66.7246 154.52 64.8871 158.234 64.1971C164.474 63.0382 168.955 65.4294 170.155 66.4487C170.162 66.4553 170.17 66.4621 170.177 66.4693C172.366 68.6568 173.196 72.1354 172.644 76.8082C172.187 80.677 170.77 85.4596 168.434 91.023C164.235 101.024 158.12 111.183 154.466 117.252C153.186 119.379 152.255 120.926 151.901 121.655C146.609 147.268 137.494 166.364 132.94 173.612C128.746 180.287 125.455 183.666 123.152 183.666ZM121.644 181.935C121.72 181.935 121.795 181.958 121.857 182.001C121.92 182.044 121.968 182.106 121.995 182.177C122.005 182.201 122.269 182.844 123.014 182.911C124.143 183.014 126.853 181.89 132.305 173.214C135.343 168.378 138.875 160.95 141.993 152.834C145.821 142.869 148.997 132.019 151.176 121.459C151.182 121.429 151.192 121.4 151.205 121.373C151.559 120.629 152.509 119.051 153.824 116.867C157.467 110.814 163.564 100.685 167.743 90.7333C172.77 78.7617 173.414 70.78 169.658 67.0099C168.589 66.1123 164.272 63.8377 158.371 64.9335C154.786 65.5997 151.251 67.3821 147.865 70.2315C143.692 73.7425 139.745 78.8844 136.132 85.5144C130.28 96.2539 124.54 111.539 122.193 150.33C121.762 157.454 119.648 160.674 117.605 163.789C116.911 164.847 116.255 165.846 115.682 166.979C115.655 167.033 115.615 167.08 115.566 167.115C115.517 167.15 115.46 167.173 115.401 167.181C114.733 167.277 113.661 167.909 112.653 169.398C111.906 170.5 110.965 172.423 110.725 175.318C110.598 176.838 110.924 178.025 111.642 178.66C112.111 179.074 112.743 179.237 113.376 179.106C113.472 179.086 113.571 179.104 113.653 179.157C113.735 179.209 113.794 179.291 113.817 179.385C113.84 179.476 114.42 181.636 117.439 180.922C117.52 180.903 117.605 180.912 117.681 180.946C117.756 180.981 117.818 181.039 117.857 181.113C117.904 181.2 119.04 183.261 121.469 181.978C121.523 181.95 121.583 181.935 121.644 181.935Z" fill="#292B2E"/>
<path d="M173.161 67.9829C167.386 57.33 136.979 62.8078 123.92 98.5488C115.299 122.144 122.796 144.74 119.297 160.095C125.17 161.968 130.792 164.215 135.54 168.085C149.159 143.366 150.783 131.007 153.907 117.649C160.528 110.783 181.282 82.9637 173.161 67.9829Z" fill="white"/>
<path d="M135.54 168.459C135.454 168.459 135.37 168.429 135.303 168.375C132.53 166.114 128.446 163.405 119.184 160.452C119.094 160.423 119.019 160.362 118.972 160.281C118.926 160.199 118.911 160.103 118.932 160.012C120.31 153.963 119.959 146.589 119.587 138.781C119.005 126.563 118.345 112.715 123.568 98.4203C127.593 87.4059 133.709 78.2143 141.255 71.8389C147.577 66.4987 154.663 63.2936 161.209 62.814C166.976 62.3906 171.567 64.257 173.49 67.8044C175.412 71.3494 175.879 75.8453 174.878 81.1668C174.045 85.5984 172.2 90.5993 169.396 96.0306C164.459 105.592 157.666 114.268 154.248 117.834C153.878 119.421 153.522 121.023 153.178 122.573C150.563 134.336 147.86 146.5 135.869 168.265C135.836 168.324 135.789 168.373 135.731 168.407C135.673 168.441 135.607 168.459 135.54 168.459ZM119.737 159.843C128.516 162.673 132.639 165.293 135.427 167.513C147.184 146.087 149.859 134.052 152.446 122.411C152.798 120.826 153.162 119.187 153.542 117.564C153.557 117.498 153.59 117.438 153.637 117.389C157 113.902 163.794 105.245 168.729 95.6874C172.963 87.4878 177.111 76.0564 172.831 68.1613C171.053 64.8808 166.729 63.1613 161.264 63.5612C154.874 64.0293 147.94 67.1722 141.739 72.4112C134.292 78.7026 128.252 87.7852 124.272 98.6774C119.101 112.83 119.757 126.598 120.336 138.746C120.703 146.463 121.051 153.76 119.737 159.843Z" fill="#292B2E"/>
<path d="M153.92 118.044C153.904 118.044 153.888 118.043 153.871 118.041C147.132 117.168 142.031 114.385 141.981 114.357C141.894 114.308 141.83 114.228 141.803 114.133C141.776 114.037 141.787 113.935 141.835 113.849C141.883 113.762 141.963 113.698 142.059 113.67C142.154 113.642 142.256 113.654 142.343 113.701C142.393 113.728 147.376 116.444 153.968 117.298C154.066 117.31 154.156 117.362 154.216 117.441C154.277 117.519 154.304 117.619 154.291 117.717C154.28 117.807 154.235 117.89 154.167 117.95C154.099 118.01 154.011 118.044 153.92 118.044ZM139.67 160.389C139.602 160.389 139.536 160.371 139.478 160.336C132.5 156.155 123.753 154.428 120.317 153.879C120.22 153.862 120.133 153.808 120.076 153.728C120.019 153.647 119.996 153.548 120.011 153.451C120.027 153.354 120.08 153.267 120.159 153.208C120.239 153.15 120.338 153.125 120.435 153.139C123.915 153.695 132.773 155.445 139.863 159.693C139.934 159.735 139.988 159.799 140.019 159.876C140.049 159.952 140.054 160.036 140.032 160.115C140.01 160.194 139.963 160.263 139.897 160.313C139.832 160.362 139.752 160.389 139.67 160.389ZM121.645 182.684C121.565 182.684 121.487 182.659 121.423 182.611C121.358 182.564 121.311 182.498 121.287 182.422C121.263 182.345 121.264 182.264 121.29 182.188C121.316 182.113 121.365 182.047 121.431 182.002C123.168 180.794 125.209 176.947 125.23 176.909C125.253 176.865 125.284 176.827 125.322 176.795C125.36 176.764 125.403 176.74 125.45 176.725C125.497 176.711 125.547 176.706 125.596 176.71C125.645 176.715 125.693 176.729 125.736 176.752C125.78 176.775 125.818 176.806 125.85 176.844C125.881 176.882 125.905 176.925 125.92 176.972C125.934 177.019 125.939 177.069 125.935 177.118C125.93 177.167 125.916 177.214 125.893 177.258C125.806 177.422 123.746 181.305 121.859 182.617C121.796 182.661 121.721 182.684 121.645 182.684ZM117.526 181.662C117.443 181.662 117.363 181.635 117.297 181.585C117.232 181.535 117.184 181.464 117.163 181.384C117.142 181.305 117.147 181.22 117.179 181.144C117.21 181.068 117.266 181.004 117.338 180.963C119.652 179.625 121.061 175.554 121.075 175.513C121.109 175.421 121.177 175.346 121.266 175.304C121.354 175.262 121.455 175.256 121.548 175.287C121.64 175.319 121.717 175.385 121.761 175.473C121.806 175.56 121.814 175.661 121.785 175.754C121.724 175.932 120.269 180.134 117.713 181.611C117.656 181.644 117.592 181.662 117.526 181.662ZM113.453 179.847C113.365 179.847 113.279 179.816 113.212 179.76C113.144 179.703 113.098 179.624 113.083 179.538C113.068 179.451 113.084 179.361 113.128 179.285C113.172 179.209 113.242 179.15 113.325 179.12C115.533 178.32 117.166 174.635 117.182 174.598C117.223 174.508 117.297 174.438 117.389 174.402C117.481 174.367 117.583 174.369 117.674 174.408C117.764 174.448 117.835 174.521 117.872 174.613C117.908 174.704 117.908 174.806 117.869 174.897C117.798 175.061 116.092 178.914 113.581 179.825C113.54 179.84 113.497 179.847 113.453 179.847ZM112.439 174.097C112.361 174.097 112.285 174.072 112.221 174.027C112.158 173.982 112.11 173.918 112.085 173.845C112.059 173.771 112.057 173.691 112.079 173.617C112.101 173.542 112.146 173.476 112.207 173.428C113.553 172.371 114.64 168.36 114.945 166.904C114.966 166.807 115.024 166.722 115.107 166.668C115.191 166.613 115.292 166.594 115.389 166.614C115.486 166.635 115.572 166.693 115.626 166.776C115.68 166.859 115.699 166.96 115.679 167.058C115.632 167.282 114.506 172.576 112.67 174.017C112.601 174.071 112.52 174.097 112.439 174.097Z" fill="#292B2E"/>
</g>
<g clip-path="url(#clip3_232_1417)">
<path d="M273.309 107.538L257.849 104.033C257.659 103.99 257.494 103.873 257.39 103.708C257.286 103.543 257.251 103.344 257.295 103.154L264.405 71.8134C264.448 71.6232 264.565 71.4579 264.73 71.3539C264.895 71.2499 265.095 71.2157 265.285 71.2588L280.745 74.7634C280.935 74.8066 281.101 74.9235 281.205 75.0885C281.309 75.2535 281.343 75.4531 281.3 75.6433L274.189 106.983C274.146 107.174 274.029 107.339 273.864 107.443C273.699 107.547 273.499 107.581 273.309 107.538Z" fill="white"/>
<path d="M273.474 107.941C273.39 107.941 273.306 107.932 273.224 107.913L257.765 104.409C257.162 104.272 256.783 103.671 256.919 103.068L264.03 71.7283C264.062 71.5847 264.122 71.4488 264.207 71.3287C264.293 71.2085 264.401 71.1064 264.525 71.0282C264.65 70.9494 264.788 70.8961 264.934 70.8712C265.079 70.8464 265.227 70.8505 265.371 70.8834L280.83 74.3879C281.433 74.5246 281.812 75.1259 281.676 75.7282L274.565 107.068C274.533 107.212 274.473 107.348 274.388 107.468C274.303 107.588 274.194 107.69 274.07 107.768C273.892 107.881 273.685 107.941 273.474 107.941ZM265.122 71.6253C265.057 71.6253 264.993 71.6438 264.936 71.6794C264.897 71.7039 264.863 71.7358 264.836 71.7734C264.81 71.8111 264.791 71.8536 264.781 71.8985L257.67 103.238C257.65 103.329 257.666 103.424 257.716 103.503C257.765 103.582 257.844 103.637 257.935 103.658L273.394 107.163H273.395C273.44 107.173 273.486 107.174 273.531 107.166C273.577 107.159 273.62 107.142 273.659 107.117C273.698 107.093 273.732 107.061 273.759 107.023C273.785 106.986 273.804 106.943 273.814 106.898L280.925 75.5581C280.945 75.4674 280.929 75.3723 280.879 75.2936C280.83 75.2149 280.751 75.1592 280.66 75.1385L265.201 71.634C265.175 71.6282 265.149 71.6253 265.122 71.6253Z" fill="#292B2E"/>
<path d="M265.463 76.4287L278.479 79.3792L265.463 76.4287Z" fill="white"/>
<path d="M268.029 77.2669C268.01 77.2669 267.991 77.2648 267.972 77.2604L265.406 76.6789C265.374 76.6714 265.342 76.6576 265.315 76.6381C265.287 76.6186 265.264 76.5939 265.246 76.5654C265.228 76.5369 265.216 76.5052 265.21 76.472C265.205 76.4388 265.205 76.4048 265.213 76.3719C265.22 76.3391 265.234 76.308 265.254 76.2805C265.273 76.253 265.298 76.2296 265.326 76.2116C265.355 76.1937 265.387 76.1815 265.42 76.1758C265.453 76.1701 265.487 76.171 265.52 76.1785L268.085 76.7601C268.147 76.7739 268.201 76.81 268.238 76.8615C268.275 76.9129 268.291 76.976 268.284 77.0387C268.277 77.1014 268.247 77.1594 268.2 77.2015C268.153 77.2436 268.092 77.2669 268.029 77.2669ZM273.285 78.4584C273.266 78.4584 273.247 78.4563 273.228 78.4519L270.6 77.8561C270.534 77.8411 270.476 77.8003 270.44 77.7427C270.403 77.6851 270.392 77.6155 270.407 77.5492C270.422 77.4828 270.462 77.4252 270.52 77.3889C270.578 77.3526 270.647 77.3407 270.714 77.3557L273.342 77.9516C273.403 77.9655 273.458 78.0016 273.494 78.053C273.531 78.1044 273.547 78.1675 273.54 78.2303C273.533 78.293 273.503 78.351 273.456 78.3931C273.409 78.4351 273.348 78.4584 273.285 78.4584ZM278.479 79.6358C278.46 79.6358 278.441 79.6337 278.422 79.6293L275.856 79.0478C275.823 79.0403 275.792 79.0265 275.765 79.007C275.737 78.9875 275.714 78.9629 275.696 78.9343C275.678 78.9058 275.666 78.8741 275.66 78.8409C275.654 78.8077 275.655 78.7737 275.663 78.7408C275.67 78.7079 275.684 78.6768 275.703 78.6492C275.723 78.6217 275.748 78.5983 275.776 78.5803C275.805 78.5623 275.836 78.5502 275.87 78.5445C275.903 78.5389 275.937 78.5398 275.97 78.5474L278.535 79.1291C278.597 79.1431 278.651 79.1792 278.687 79.2306C278.724 79.282 278.74 79.345 278.733 79.4077C278.726 79.4703 278.696 79.5282 278.65 79.5703C278.603 79.6123 278.542 79.6356 278.479 79.6358Z" fill="#292B2E"/>
<path d="M270.028 104.821L255.599 101.55C254.884 101.388 254.435 100.677 254.598 99.9619L259.516 78.2834C259.678 77.5683 260.39 77.12 261.105 77.2822L275.534 80.5532C276.25 80.7154 276.698 81.4266 276.536 82.1418L271.617 103.82C271.455 104.535 270.744 104.984 270.028 104.821Z" fill="#85F4BF"/>
</g>
<g clip-path="url(#clip4_232_1417)">
<path d="M83.7419 217.228C83.9409 217.228 84.115 217.129 84.2144 216.955L108.798 174.845C109.457 173.737 110.663 173.09 111.944 173.165L112.69 173.178C113.325 172.954 114.319 171.336 114.568 169.346C114.506 169.358 110.415 169.346 110.415 169.346C108.997 169.346 107.256 169.968 106.162 171.734L79.8871 216.569C79.713 216.855 79.9244 217.228 80.2601 217.228H83.7419Z" fill="#292B2E"/>
<path d="M83.7417 217.602H80.2599C79.9615 217.602 79.7004 217.452 79.5636 217.191C79.4144 216.942 79.4144 216.631 79.5636 216.383L105.839 171.548C106.846 169.931 108.549 168.973 110.415 168.973H114.543C114.655 168.961 114.754 169.01 114.829 169.085C114.904 169.172 114.953 169.284 114.928 169.396C114.667 171.498 113.623 173.24 112.814 173.551C112.765 173.563 112.727 173.576 112.678 173.576L111.932 173.563H111.919C110.775 173.489 109.693 174.073 109.109 175.056L84.55 217.141C84.3759 217.428 84.0774 217.602 83.7417 217.602ZM110.415 169.719C109.644 169.719 107.716 169.931 106.485 171.934L80.2102 216.756C80.1978 216.781 80.1978 216.793 80.2102 216.818C80.2226 216.843 80.2351 216.855 80.2599 216.855H83.7417C83.8039 216.855 83.866 216.818 83.9034 216.768L108.475 174.658C109.208 173.427 110.539 172.717 111.969 172.792L112.628 172.805C113.051 172.568 113.847 171.337 114.145 169.707C113.635 169.719 112.591 169.719 110.415 169.719Z" fill="#292B2E"/>
</g>
<g clip-path="url(#clip5_232_1417)">
<path d="M253.725 96.5016C257.631 92.7419 265.804 84.977 264.149 84.2277C262.493 83.4654 252.005 88.2975 252.005 88.2975" fill="white"/>
<path d="M253.725 96.8893C253.622 96.8893 253.518 96.8505 253.441 96.773C253.298 96.6179 253.298 96.3725 253.454 96.2304L253.945 95.7523C255.872 93.9048 258.497 91.3724 260.605 89.1115C263.903 85.5843 264.02 84.7316 263.981 84.5636C262.907 84.1243 256.441 86.6825 252.173 88.6463C251.979 88.7368 251.746 88.6463 251.656 88.4525C251.565 88.2587 251.656 88.0262 251.85 87.9357C251.876 87.9228 254.514 86.7083 257.32 85.6101C262.532 83.5559 263.8 83.6334 264.317 83.8659C264.55 83.9693 264.705 84.176 264.744 84.4215C264.989 85.8685 261.174 89.8737 254.488 96.295L253.997 96.773C253.919 96.8505 253.829 96.8893 253.725 96.8893Z" fill="#292B2E"/>
</g>
<defs>
<clipPath id="clip0_232_1417">
<rect width="108.432" height="105.485" fill="white" transform="translate(21.4902 168.85)"/>
</clipPath>
<clipPath id="clip1_232_1417">
<rect width="23.4548" height="4.7892" fill="white" transform="translate(116.292 272.616)"/>
</clipPath>
<clipPath id="clip2_232_1417">
<rect width="166.394" height="250.88" fill="white" transform="translate(107.941 24.9283)"/>
</clipPath>
<clipPath id="clip3_232_1417">
<rect width="27.1388" height="37.0856" fill="white" transform="translate(254.564 70.8556)"/>
</clipPath>
<clipPath id="clip4_232_1417">
<rect width="35.4892" height="48.6288" fill="white" transform="translate(79.4517 168.973)"/>
</clipPath>
<clipPath id="clip5_232_1417">
<rect width="13.1396" height="13.1396" fill="white" transform="translate(251.617 83.7496)"/>
</clipPath>
</defs>
</svg>
