<svg width="69" height="18" viewBox="0 0 69 18" fill="none" xmlns="http://www.w3.org/2000/svg">
<path d="M18.7061 6.56104H25.6083V7.84595H22.8906V15.0892H21.401V7.84595H18.6947L18.7061 6.56104ZM25.3126 8.91481H26.5862V10.1088H26.6089C26.6544 9.9382 26.734 9.77901 26.8477 9.61981C26.9614 9.46062 27.0979 9.3128 27.2684 9.18772C27.4276 9.05126 27.6096 8.94893 27.8142 8.86933C28.0075 8.78973 28.2122 8.74425 28.4169 8.74425C28.5761 8.74425 28.6898 8.75562 28.7466 8.75562C28.8035 8.76699 28.8717 8.77837 28.9286 8.77837V10.086C28.8376 10.0633 28.7353 10.0519 28.6329 10.0405C28.5306 10.0292 28.4396 10.0178 28.3373 10.0178C28.1099 10.0178 27.8938 10.0633 27.6891 10.1542C27.4845 10.2452 27.3139 10.3817 27.1547 10.5522C27.0069 10.7342 26.8818 10.9502 26.7908 11.2117C26.6999 11.4733 26.6544 11.7803 26.6544 12.1214V15.0551H25.2899L25.3126 8.91481ZM35.1826 15.0892H33.8408V14.225H33.8181C33.6475 14.5434 33.3974 14.7822 33.0676 14.9755C32.7378 15.1688 32.3967 15.2598 32.0556 15.2598C31.2482 15.2598 30.657 15.0665 30.2931 14.6571C29.9292 14.2591 29.7473 13.6451 29.7473 12.8378V8.91481H31.1118V12.7013C31.1118 13.2471 31.2141 13.6337 31.4302 13.8498C31.6349 14.0772 31.9305 14.1909 32.3057 14.1909C32.59 14.1909 32.8288 14.1454 33.0221 14.0545C33.2154 13.9635 33.3746 13.8498 33.4883 13.702C33.6134 13.5542 33.693 13.3722 33.7499 13.1675C33.8067 12.9629 33.8294 12.7354 33.8294 12.4967V8.91481H35.194V15.0892H35.1826ZM37.5023 13.1107C37.5477 13.5087 37.6956 13.7816 37.9571 13.9521C38.2186 14.1113 38.537 14.1909 38.9009 14.1909C39.026 14.1909 39.1738 14.1796 39.333 14.1568C39.4922 14.1341 39.6514 14.1 39.7878 14.0431C39.9356 13.9862 40.0493 13.9066 40.1403 13.7929C40.2313 13.6792 40.2768 13.5428 40.2654 13.3722C40.254 13.2017 40.1972 13.0538 40.0721 12.9401C39.947 12.8264 39.7992 12.7468 39.6172 12.6672C39.4353 12.599 39.2193 12.5421 38.9805 12.4967C38.7417 12.4512 38.5029 12.3943 38.2527 12.3375C38.0026 12.2806 37.7524 12.2124 37.5136 12.1328C37.2748 12.0532 37.0702 11.9508 36.8769 11.803C36.6949 11.6666 36.5357 11.496 36.4334 11.28C36.3197 11.0639 36.2628 10.8138 36.2628 10.4954C36.2628 10.1542 36.3424 9.88134 36.513 9.65392C36.6722 9.42651 36.8882 9.24457 37.1384 9.10812C37.3885 8.97167 37.6728 8.86933 37.9798 8.81248C38.2868 8.75562 38.5825 8.73288 38.8554 8.73288C39.1738 8.73288 39.4808 8.76699 39.7651 8.83522C40.0493 8.90345 40.3222 9.00578 40.5497 9.16498C40.7885 9.3128 40.9818 9.51747 41.1296 9.75626C41.2888 9.99505 41.3797 10.2907 41.4252 10.6318H40.0039C39.9356 10.3021 39.7878 10.086 39.5604 9.97231C39.3216 9.8586 39.0601 9.80175 38.7531 9.80175C38.6621 9.80175 38.537 9.81312 38.4119 9.82449C38.2755 9.84723 38.1618 9.86997 38.0367 9.91546C37.923 9.96094 37.8206 10.0292 37.741 10.1088C37.6614 10.1884 37.616 10.3021 37.616 10.4385C37.616 10.6091 37.6728 10.7342 37.7865 10.8365C37.9002 10.9388 38.0481 11.0184 38.2414 11.098C38.4233 11.1663 38.6393 11.2231 38.8781 11.2686C39.1169 11.3141 39.3671 11.3709 39.6172 11.4278C39.8674 11.4846 40.1062 11.5529 40.345 11.6325C40.5838 11.7121 40.7998 11.8144 40.9818 11.9622C41.1637 12.0987 41.3229 12.2692 41.4366 12.4739C41.5503 12.6786 41.6072 12.9401 41.6072 13.2358C41.6072 13.5996 41.5276 13.9067 41.357 14.1682C41.1864 14.4183 40.9704 14.6344 40.7089 14.7936C40.4473 14.9528 40.1403 15.0665 39.8219 15.1461C39.4922 15.2143 39.1738 15.2598 38.8554 15.2598C38.4688 15.2598 38.1049 15.2143 37.7752 15.1233C37.4454 15.0324 37.1498 14.8959 36.911 14.7254C36.6722 14.5434 36.4789 14.3274 36.3424 14.0545C36.206 13.7929 36.1264 13.4746 36.115 13.0993H37.4909V13.1107H37.5023ZM41.9938 8.91481H43.0285V7.04998H44.393V8.90344H45.6211V9.91546H44.393V13.213C44.393 13.3608 44.4044 13.4746 44.4158 13.5883C44.4271 13.6906 44.4613 13.7816 44.4954 13.8498C44.5409 13.918 44.6091 13.9749 44.6887 14.009C44.7796 14.0431 44.8934 14.0658 45.0525 14.0658C45.1435 14.0658 45.2459 14.0658 45.3368 14.0545C45.4278 14.0431 45.5301 14.0317 45.6211 14.009V15.0665C45.4733 15.0892 45.3255 15.1006 45.1776 15.112C45.0298 15.1347 44.8934 15.1347 44.7342 15.1347C44.3703 15.1347 44.086 15.1006 43.87 15.0324C43.6539 14.9641 43.4834 14.8618 43.3583 14.7367C43.2332 14.6003 43.1536 14.4411 43.1081 14.2478C43.0626 14.0545 43.0399 13.8157 43.0285 13.5655V9.92683H41.9938V8.89207V8.91481ZM46.5763 8.91481H47.8612V9.75626H47.8839C48.0772 9.39239 48.3387 9.14223 48.6799 8.98304C49.021 8.82385 49.3849 8.74425 49.7942 8.74425C50.2832 8.74425 50.7039 8.82385 51.0678 9.00578C51.4316 9.17635 51.7273 9.40376 51.9661 9.71078C52.2049 10.0064 52.3868 10.3589 52.5005 10.7569C52.6142 11.1549 52.6824 11.587 52.6824 12.0304C52.6824 12.4512 52.6256 12.8492 52.5232 13.2358C52.4095 13.6224 52.2503 13.9749 52.0343 14.2705C51.8182 14.5662 51.5453 14.805 51.2042 14.9869C50.8631 15.1688 50.4765 15.2598 50.0216 15.2598C49.8283 15.2598 49.6237 15.237 49.4304 15.2029C49.237 15.1688 49.0437 15.112 48.8618 15.0324C48.6799 14.9528 48.5093 14.8504 48.3615 14.7254C48.2023 14.6003 48.0772 14.4525 47.9749 14.2933H47.9521V17.3748H46.5876V8.91481H46.5763ZM51.3407 12.0077C51.3407 11.7348 51.3066 11.4619 51.227 11.2004C51.1587 10.9388 51.045 10.7114 50.8972 10.5067C50.7494 10.3021 50.5674 10.1429 50.3628 10.0178C50.1467 9.89271 49.8966 9.83586 49.6237 9.83586C49.0551 9.83586 48.623 10.0292 48.3274 10.4271C48.0431 10.8251 47.8953 11.3596 47.8953 12.0191C47.8953 12.3375 47.9294 12.6217 48.009 12.8833C48.0886 13.1448 48.1909 13.3722 48.3501 13.5655C48.4979 13.7588 48.6799 13.9066 48.8959 14.0204C49.112 14.1341 49.3508 14.1909 49.635 14.1909C49.9534 14.1909 50.2036 14.1227 50.4196 13.9976C50.6357 13.8725 50.8062 13.702 50.9541 13.5087C51.0905 13.304 51.1928 13.0766 51.2497 12.815C51.3066 12.5421 51.3407 12.2806 51.3407 12.0077ZM53.7399 6.56104H55.1044V7.84595H53.7399V6.56104ZM53.7399 8.91481H55.1044V15.0892H53.7399V8.91481ZM56.3211 6.56104H57.6856V15.0892H56.3211V6.56104ZM61.8474 15.2598C61.3585 15.2598 60.915 15.1802 60.5284 15.0096C60.1418 14.8391 59.8234 14.623 59.5505 14.3387C59.2889 14.0545 59.0843 13.702 58.9478 13.304C58.8114 12.906 58.7318 12.4625 58.7318 11.9963C58.7318 11.5301 58.8 11.098 58.9478 10.7001C59.0843 10.3021 59.2889 9.96094 59.5505 9.6653C59.812 9.38102 60.1418 9.1536 60.5284 8.99441C60.915 8.83522 61.3585 8.74425 61.8474 8.74425C62.3363 8.74425 62.7798 8.82385 63.1664 8.99441C63.553 9.1536 63.8714 9.38102 64.1443 9.6653C64.4059 9.94957 64.6105 10.3021 64.747 10.7001C64.8834 11.098 64.963 11.5301 64.963 11.9963C64.963 12.4739 64.8948 12.906 64.747 13.304C64.5992 13.702 64.4059 14.0431 64.1443 14.3387C63.8828 14.623 63.553 14.8504 63.1664 15.0096C62.7798 15.1688 62.3477 15.2598 61.8474 15.2598ZM61.8474 14.1796C62.143 14.1796 62.416 14.1113 62.632 13.9862C62.8594 13.8612 63.03 13.6906 63.1778 13.4859C63.3256 13.2812 63.428 13.0425 63.4962 12.7923C63.5644 12.5308 63.5985 12.2692 63.5985 11.9963C63.5985 11.7348 63.5644 11.4733 63.4962 11.2117C63.428 10.9502 63.3256 10.7228 63.1778 10.5181C63.03 10.3134 62.848 10.1542 62.632 10.0292C62.4046 9.90409 62.143 9.83586 61.8474 9.83586C61.5518 9.83586 61.2789 9.90409 61.0628 10.0292C60.8354 10.1542 60.6648 10.3248 60.517 10.5181C60.3692 10.7228 60.2668 10.9502 60.1986 11.2117C60.1304 11.4733 60.0963 11.7348 60.0963 11.9963C60.0963 12.2692 60.1304 12.5308 60.1986 12.7923C60.2668 13.0538 60.3692 13.2812 60.517 13.4859C60.6648 13.6906 60.8468 13.8612 61.0628 13.9862C61.2902 14.1227 61.5518 14.1796 61.8474 14.1796ZM65.3724 8.91481H66.4071V7.04998H67.7717V8.90344H68.9997V9.91546H67.7717V13.213C67.7717 13.3608 67.783 13.4746 67.7944 13.5883C67.8058 13.6906 67.8399 13.7816 67.874 13.8498C67.9195 13.918 67.9877 13.9749 68.0673 14.009C68.1583 14.0431 68.272 14.0658 68.4312 14.0658C68.5221 14.0658 68.6245 14.0658 68.7154 14.0545C68.8064 14.0431 68.9087 14.0317 68.9997 14.009V15.0665C68.8519 15.0892 68.7041 15.1006 68.5562 15.112C68.4084 15.1347 68.272 15.1347 68.1128 15.1347C67.7489 15.1347 67.4646 15.1006 67.2486 15.0324C67.0325 14.9641 66.862 14.8618 66.7369 14.7367C66.6118 14.6003 66.5322 14.4411 66.4867 14.2478C66.4413 14.0545 66.4185 13.8157 66.4071 13.5655V9.92683H65.3724V8.89207V8.91481Z" fill="#292B2E"/>
<path d="M17.1142 6.56111H10.8716L8.94989 0.625488L7.01684 6.56111L0.7742 6.54974L5.82289 10.2225L3.88983 16.1582L8.93852 12.4854L13.9872 16.1582L12.0655 10.2225L17.1142 6.56111Z" fill="#51B37F"/>
<path d="M12.4975 11.5644L12.0654 10.2227L8.94978 12.4855L12.4975 11.5644Z" fill="white"/>
</svg>
