<svg width="24" height="24" viewBox="0 0 24 24" fill="none" xmlns="http://www.w3.org/2000/svg">
<g clip-path="url(#clip0_6144_24471)">
<g clip-path="url(#clip1_6144_24471)">
<mask id="mask0_6144_24471" style="mask-type:luminance" maskUnits="userSpaceOnUse" x="-4" y="0" width="32" height="24">
<rect x="-4" width="32" height="24" fill="white"/>
</mask>
<g mask="url(#mask0_6144_24471)">
<path fill-rule="evenodd" clip-rule="evenodd" d="M-4 0V24H28V0H-4Z" fill="#F9CF2D"/>
<mask id="mask1_6144_24471" style="mask-type:luminance" maskUnits="userSpaceOnUse" x="-4" y="0" width="32" height="24">
<path fill-rule="evenodd" clip-rule="evenodd" d="M-4 0V24H28V0H-4Z" fill="white"/>
</mask>
<g mask="url(#mask1_6144_24471)">
<rect x="-4" width="32" height="4" fill="#292B2E"/>
<rect x="-4" y="8" width="32" height="4" fill="#EB611B"/>
<rect x="-4" y="12" width="32" height="4" fill="#292B2E"/>
<rect x="-4" y="20" width="32" height="4" fill="#EB611B"/>
<path fill-rule="evenodd" clip-rule="evenodd" d="M12 17C14.7614 17 17 14.7614 17 12C17 9.23858 14.7614 7 12 7C9.23858 7 7 9.23858 7 12C7 14.7614 9.23858 17 12 17Z" fill="#F7FCFF"/>
<path fill-rule="evenodd" clip-rule="evenodd" d="M10.5036 9.65071L9.82286 9.87406L10.5036 9.93234C10.5036 9.93234 10.6136 10.2015 10.5036 10.4116C10.4756 10.465 10.4036 10.5333 10.3116 10.6205C10.0412 10.8769 9.59875 11.2965 9.59875 11.9783C9.59875 12.8919 11.362 13.3062 11.362 13.3062V13.7403C11.362 13.7403 11.5667 13.8674 10.399 13.8674C9.38641 13.8674 9.44974 14.2518 9.48441 14.4622C9.48972 14.4944 9.49436 14.5226 9.49436 14.5446C9.49436 14.7108 9.98105 14.3785 10.2089 14.0477C10.3288 13.8735 10.831 13.8827 11.3465 13.9305C11.3871 13.9343 11.763 14.7303 11.4367 15.1416C11.2996 15.3144 10.8263 15.3369 10.5306 15.3509C10.3798 15.3581 10.2752 15.3631 10.2849 15.3847C10.2921 15.4009 10.3813 15.3955 10.511 15.3878C10.6727 15.3781 10.8975 15.3647 11.1047 15.3847C11.1362 15.3877 11.0142 15.4935 10.8909 15.6005C10.764 15.7107 10.6356 15.8222 10.6717 15.8239C10.7124 15.8258 10.9502 15.6941 11.1662 15.5744C11.3449 15.4754 11.5088 15.3847 11.5338 15.3847C11.6968 15.3847 11.844 15.4048 11.9731 15.4224C12.1889 15.4519 12.3541 15.4745 12.4582 15.3847C12.4902 15.357 12.3044 15.3125 12.1151 15.2671C11.92 15.2204 11.721 15.1727 11.7523 15.1416C11.9317 14.9636 11.8568 14.5906 11.7978 14.2968C11.7713 14.1649 11.748 14.0491 11.7523 13.9739C11.7677 13.7071 12.05 13.847 12.2718 13.9571C12.369 14.0052 12.4545 14.0477 12.501 14.0477C12.9211 14.0477 12.3995 13.5163 12.1131 13.2246C12.0881 13.1991 12.0648 13.1753 12.0441 13.154C11.8985 13.0036 12.0006 13.0238 12.2315 13.0695C12.4077 13.1043 12.6588 13.154 12.932 13.154C13.5631 13.154 14.0238 12.9489 13.8638 12.3937C13.7582 12.0275 13.1801 11.9028 12.5762 11.7726C12.2647 11.7054 11.9463 11.6368 11.6824 11.5328C11.0329 11.2768 11.066 10.9035 11.094 10.5879C11.0995 10.5266 11.1047 10.4674 11.1047 10.4116C11.1047 10.0693 11.6824 9.65071 11.6824 9.65071C11.6824 9.65071 11.4187 9.20898 10.9816 9.20898C10.5444 9.20898 10.5036 9.65071 10.5036 9.65071ZM11.6927 13.6704V13.3476C11.6927 13.3476 11.9626 13.3387 12.0573 13.5658C12.152 13.7929 11.6927 13.6704 11.6927 13.6704Z" fill="#292B2E"/>
<path fill-rule="evenodd" clip-rule="evenodd" d="M10.1157 8.60972L10.7678 9.38304L11.1056 9.30361L10.9436 8.52295L10.1157 8.60972Z" fill="#EB611B"/>
<path fill-rule="evenodd" clip-rule="evenodd" d="M10.9624 8.42284L11.0044 9.58549L11.5613 9.44847L11.7984 8.68701L10.9624 8.42284Z" fill="#FFD018"/>
<path fill-rule="evenodd" clip-rule="evenodd" d="M10.4376 10.3647C10.5606 10.3647 10.6603 10.2675 10.6603 10.1476C10.6603 10.0276 10.5606 9.93042 10.4376 9.93042C10.3146 9.93042 10.2148 10.0276 10.2148 10.1476C10.2148 10.2675 10.3146 10.3647 10.4376 10.3647Z" fill="#EB611B"/>
<path fill-rule="evenodd" clip-rule="evenodd" d="M11.8525 8.64056L11.2042 9.41706L11.3411 9.73585L12.0817 9.44079L11.8525 8.64056Z" fill="#EB611B"/>
<path fill-rule="evenodd" clip-rule="evenodd" d="M13.3596 14.5175C13.3596 14.5175 14.5 14.008 14.5 13.2956C14.5 12.5832 12.6483 11.8071 12.6483 11.8071C12.6483 11.8071 11.559 12.0564 12.05 12.39C12.5409 12.7236 13.1987 12.8518 13.1987 13.2956C13.1987 13.7394 13.3789 14.1626 13.0136 14.1626C12.6483 14.1626 13.3596 14.5175 13.3596 14.5175Z" fill="#EB611B"/>
<path fill-rule="evenodd" clip-rule="evenodd" d="M11.7144 11.677C11.7144 11.677 11.3111 11.7478 11.3302 11.8134C11.3832 11.9945 11.9346 12.2303 12.175 12.3937C12.6659 12.7273 13.1314 12.6898 13.4777 12.4727C13.824 12.2556 11.7144 11.677 11.7144 11.677Z" fill="#FFFDFF"/>
</g>
</g>
</g>
<g style="mix-blend-mode:hard-light" opacity="0.12">
<rect width="24" height="24" rx="12" fill="white"/>
</g>
<rect width="24" height="24" fill="url(#paint0_linear_6144_24471)" fill-opacity="0.64" style="mix-blend-mode:overlay"/>
</g>
<defs>
<linearGradient id="paint0_linear_6144_24471" x1="24" y1="1.19273e-06" x2="-4.48665" y2="16.0237" gradientUnits="userSpaceOnUse">
<stop stop-color="white" stop-opacity="0.3"/>
<stop offset="0.262741" stop-opacity="0.27"/>
<stop offset="0.369956" stop-color="white" stop-opacity="0.26"/>
<stop offset="0.487001" stop-opacity="0.55"/>
<stop offset="0.594445" stop-opacity="0.24"/>
<stop offset="0.736408" stop-color="white" stop-opacity="0.3"/>
<stop offset="0.901459" stop-color="#272727" stop-opacity="0.22"/>
<stop offset="1" stop-opacity="0.2"/>
</linearGradient>
<clipPath id="clip0_6144_24471">
<rect width="24" height="24" rx="12" fill="white"/>
</clipPath>
<clipPath id="clip1_6144_24471">
<rect width="24" height="24" fill="white"/>
</clipPath>
</defs>
</svg>
