<svg xmlns="http://www.w3.org/2000/svg" id="Layer_1" viewBox="0 0 184 100"><defs><style>.cls-1{fill:#56575a;stroke-width:0px;}</style></defs><path class="cls-1" d="M42.66,43.29c-2.08,0-4.16.9-5.54,2.42-1.45,1.52-2.22,3.6-2.08,5.68.28,3.81,3.33,6.86,7.14,7.14,2.15.14,4.16-.62,5.68-2.08s2.42-3.46,2.42-5.54c0-4.23-3.39-7.62-7.62-7.62Z"></path><path class="cls-1" d="M52.98,42.81c-2.49-.35-4.71-1.94-5.82-4.23-1.87-3.88-7.21-3.74-9.01,0-1.11,2.29-3.33,3.88-5.82,4.23-4.16.55-5.82,5.61-2.77,8.59,2.22,2.15,2.56,4.99,2.22,6.93-.76,4.16,3.6,7.34,7.27,5.33,2.15-1.18,4.85-1.25,7.21,0,3.67,2.01,8.04-1.18,7.27-5.33-.35-1.94-.21-4.64,2.22-6.93,3.05-2.91,1.39-8.04-2.77-8.59ZM48.13,56.8c-1.52,1.45-3.46,2.22-5.54,2.22s-.35,0-.48,0c-4.02-.28-7.27-3.46-7.55-7.55-.14-2.22.62-4.36,2.15-6.03,1.52-1.59,3.67-2.56,5.89-2.56,4.43,0,8.04,3.6,8.04,8.04s-.9,4.36-2.56,5.89h.07Z"></path><path class="cls-1" d="M127.87,49.8c0,2.29-1.39,2.77-2.49,2.77s-2.49-.48-2.49-2.77v-6.58h-3.39v7c0,3.39,2.29,5.54,5.89,5.54s5.89-2.15,5.89-5.54v-7h-3.39v6.58Z"></path><path class="cls-1" d="M141.66,43.08h-.35c-.42-.14-1.11-.14-1.25-.14-4.5,0-6.72,2.01-6.72,6.17v6.3h3.39v-4.64c0-2.91.14-4.57,2.91-4.64.28,0,1.04,0,1.45.14l.55.21v-3.39Z"></path><path class="cls-1" d="M97.18,42.88c-4.5,0-6.72,2.01-6.72,6.17v6.3h3.39v-4.64c0-2.91.14-4.57,2.91-4.64.28,0,1.04,0,1.45.14l.55.21v-3.33h-.35c-.42-.14-1.11-.14-1.25-.14v-.07Z"></path><rect class="cls-1" x="100.85" y="43.08" width="3.39" height="12.26"></rect><path class="cls-1" d="M74.53,43.08h-3.46v.35s-.48,3.95-3.33,7.55c-2.77-3.67-3.26-7.55-3.26-7.55v-.35h-3.53v.42c0,.28.62,7.14,6.51,11.99l.28.21.28-.21c5.89-4.85,6.44-11.71,6.51-11.99v-.42Z"></path><path class="cls-1" d="M113.53,47.79l-2.01-.35c-.9-.14-1.39-.55-1.32-.9,0-.42.76-.83,1.87-.76h0c.97,0,1.73.28,2.29.55l.21.14,2.49-2.08-.42-.28c-1.04-.76-2.42-1.11-4.36-1.25h0c-2.7-.14-5.54,1.04-5.68,3.67-.07,1.45.48,3.33,4.02,3.88l2.01.35c.9.14,1.45.48,1.39.97,0,.69-1.45.9-2.36.83h0c-1.11-.07-2.01-.35-2.7-.83l-.28-.21-2.63,2.15.35.35c1.39,1.11,2.98,1.45,4.92,1.59h.69c1.25,0,2.42-.21,3.33-.62,1.39-.62,2.15-1.73,2.22-3.12.14-2.08-1.39-3.6-4.09-4.09h.07Z"></path><path class="cls-1" d="M152.67,50.91v.14c-.42.83-1.66,1.45-3.12,1.45-2.15-.07-2.77-1.52-2.98-2.36h9.42v-.35c0-4.57-2.36-7.21-6.51-7.21h0c-4.5,0-6.51,3.26-6.51,6.44s2.7,6.51,6.65,6.51,4.99-1.94,5.61-2.91l-2.56-1.8v.07ZM149.56,45.37c1.52,0,2.56.9,2.77,2.29h-5.61c.21-1.25,1.45-2.29,2.84-2.29Z"></path><path class="cls-1" d="M85.33,50.91v.14c-.42.83-1.66,1.45-3.12,1.45-2.15-.07-2.77-1.52-2.98-2.36h9.42v-.35c0-4.57-2.36-7.21-6.51-7.21h0c-4.5,0-6.51,3.26-6.51,6.44s2.7,6.51,6.65,6.51,4.99-1.94,5.61-2.91l-2.56-1.8v.07ZM82.22,45.37c1.52,0,2.56.9,2.77,2.29h-5.61c.21-1.25,1.45-2.29,2.84-2.29Z"></path></svg>