<svg xmlns="http://www.w3.org/2000/svg" id="Layer_1" viewBox="0 0 184 100"><defs><style>.cls-1{fill:#56575a;stroke-width:0px;}</style></defs><g id="layer1"><g id="g950"><path id="path944" class="cls-1" d="M106.32,66.03c-.35-.3-2.03-2.01-2.27-2.31-.13-.16-.16-.23-.14-.3.02-.05.18-.26.37-.45,1.54-1.62,2.75-3.5,3.52-5.44.56-1.41.84-2.42,1.22-4.27.63-3.11,1.08-5.87,1.08-6.59v-.32h-2.74l.03-.47c.02-.26.06-.63.09-.83s.1-.69.16-1.1c.05-.41.1-.81.12-.89l.02-.14h.65c1.2,0,2.03-.05,2.13-.13.06-.05.12-.23.22-.69.43-2.04.85-3.18,1.47-4.06.15-.21.52-.64.82-.94,1.21-1.21,2.56-1.85,4.31-2.02.65-.06,1.67-.05,2.21.02.67.09,1.79.45,2.68.86.33.15.36.18.34.27-.08.26-1.17,2.34-1.51,2.89-.15.24-.24.24-.73.03-.83-.36-1.8-.5-2.5-.35-1.15.24-1.92,1.15-2.31,2.72-.15.61-.25,1.36-.19,1.39.03,0,.88.02,1.91.03,1.02,0,1.87.03,1.89.04.02.02-.04.25-.13.51-.13.38-.89,2.45-1.01,2.75-.03.06-.18.08-1.29.1-1.93.05-2.04.07-2.09.41-.38,2.61-.86,5.43-1.16,6.89-.68,3.31-1.69,6.08-3.02,8.29-.47.79-.86,1.32-1.43,1.99-.53.62-2.15,2.27-2.3,2.35-.09.04-.13.02-.4-.21h0ZM63.28,59.06c-.59-.05-1.64-.22-2.21-.37-.56-.15-1.22-.41-2.03-.8-.79-.38-.75-.27-.4-1.05.25-.55,1.05-2.13,1.18-2.35l.09-.14.17.07c.09.04.48.22.87.4,1.32.62,2.07.82,3.07.82.63,0,.71,0,1.04-.12.7-.24,1.03-.52,1.1-.95.1-.64-.3-1.13-1.7-2.07-2.8-1.88-3.42-2.67-3.61-4.54-.07-.71-.03-1.56.1-1.96.2-.64.69-1.41,1.22-1.92.3-.28.9-.69,1.25-.85.58-.26,1.44-.48,2.33-.6.55-.08,2.35-.08,2.91,0,.53.07,1.49.26,1.81.34.32.09,1.24.42,1.29.46.02.02.02.18-.01.38-.07.44-.56,2.89-.62,3.11l-.05.16-.34-.15c-.59-.27-1.66-.59-2.41-.72-1.5-.26-2.6-.02-2.86.62-.17.42-.07.93.25,1.29.23.26.93.8,1.71,1.32,1.81,1.2,2.7,2.12,3.04,3.14.25.77.3,2.11.1,2.91-.46,1.85-2.25,3.15-4.79,3.5-.62.09-1.84.12-2.47.07h0ZM78.51,59.08c-2.18-.28-3.85-1.47-4.85-3.47-.7-1.4-.94-3.18-.67-5.01.1-.67.37-1.72.57-2.25.2-.5.57-1.26.8-1.62,1.07-1.68,2.77-2.98,4.82-3.68,1.8-.62,4.75-.68,6.59-.14.37.11,1.29.44,1.33.48.01.01-.07.4-.18.85-.11.46-.3,1.26-.42,1.8s-.23.97-.24.98c0,0-.22-.09-.47-.21-.93-.46-1.7-.65-2.71-.69-1.3-.05-2.05.09-2.88.54-.54.29-.72.43-1.16.84-.8.78-1.28,1.71-1.49,2.94-.11.62-.12,1.46-.02,2.03.31,1.94,1.38,2.88,3.35,2.96,1.11.04,2-.15,3.23-.69.61-.27.64-.27.72-.04.2.53.67,2.17.73,2.54.03.21.03.23-.08.31-.46.32-2.04.95-3.09,1.22-.67.17-1.71.29-2.73.31-.55,0-1.06,0-1.15,0h0ZM122.13,59.04c-.86-.13-1.5-.35-2.03-.7-.37-.24-.95-.85-1.13-1.17-.6-1.07-.74-2.84-.32-4.24.13-.44.36-.95.55-1.25.23-.36.98-1.12,1.41-1.44.41-.31,1.32-.77,1.89-.96,1.29-.43,2.68-.65,4.63-.75.48-.02,1.08-.06,1.33-.07l.45-.03v-.43c0-.66-.2-1.13-.66-1.56-.26-.25-.54-.39-.97-.5-.44-.11-1.69-.11-2.4,0-.64.1-1.74.38-2.26.57-.38.14-.74.25-.86.25-.03,0-.08-.11-.12-.25-.09-.34-.31-1.54-.4-2.21-.07-.53-.07-.55,0-.61.13-.09,1.38-.49,2.29-.72,1.29-.33,1.94-.4,3.65-.4,1.78,0,2.5.1,3.5.5,1.02.4,1.96,1.26,2.38,2.16.66,1.41.55,3.31-.38,6.82-.13.5-.3,1.17-.37,1.5-.25,1.13-.36,2.76-.27,3.87.03.35.04.67.03.71-.02.05-.11.11-.23.16-.36.12-3.18.73-3.41.73-.05,0-.1-.11-.19-.39-.13-.43-.31-1.2-.38-1.66-.03-.17-.06-.34-.07-.37-.01-.04-.21.13-.54.44-.64.62-1.19,1.02-1.88,1.36-.61.3-1.14.49-1.77.61-.51.1-.87.11-1.46.02h0ZM125.26,55.32c.51-.17.88-.37,1.28-.7.81-.67,1.43-1.61,1.67-2.57.06-.24.1-.45.09-.46-.02-.04-1.52.02-2.17.08-.72.07-1.18.16-1.71.33-.82.27-1.28.62-1.55,1.16-.15.31-.17.37-.18.79-.01.42,0,.48.1.69.13.27.45.59.73.73.39.2,1.05.18,1.74-.04h0ZM97.03,58.88c.01-.06.06-.27.09-.48.07-.35.61-2.94.66-3.16.01-.05.16-.2.32-.33.94-.73,1.43-1.43,1.82-2.59.45-1.36.56-3.03.26-4.1-.2-.7-.57-1.22-1.2-1.67l-.35-.24.03-.62c.09-2.05.12-2.46.14-2.75l.03-.32h.23c.24,0,1.12.22,1.63.42,1.99.75,3.25,2.2,3.81,4.36.21.83.28,1.44.25,2.53-.03,1.19-.15,1.89-.53,3.04-.17.53-.69,1.57-1.03,2.09-.49.74-1.35,1.68-2.02,2.19-1.17.89-2.74,1.58-3.87,1.69q-.3.03-.28-.08h0ZM37.04,58.59c-.11-.53-1.61-7.14-2.88-12.79-.63-2.8-1.28-5.66-1.43-6.37s-.36-1.6-.46-2c-.1-.4-.18-.74-.18-.76,0-.04,3.67-.05,4.43,0l.53.03.25,1.28c.14.71.67,3.42,1.19,6.04.52,2.62,1.09,5.52,1.27,6.44s.34,1.68.35,1.68.24-.43.5-.96c.93-1.88,1.49-2.94,4.24-7.9,2.58-4.66,2.94-5.32,3.3-5.93.32-.56.35-.58.52-.63.13-.03.87-.05,2.43-.04,1.23,0,2.25.01,2.26.02s-1.29,2.28-2.88,5.05c-1.59,2.77-3.83,6.69-4.98,8.7-1.15,2.01-2.72,4.74-3.49,6.07l-1.39,2.41h-1.75s-1.75,0-1.75,0l-.07-.34h0ZM51.08,58.76c-.1-.02-.2-.04-.21-.06-.02-.02.07-.47.2-1.01s.79-3.56,1.48-6.71c.69-3.15,1.37-6.25,1.51-6.89l.26-1.17h2.18c1.2-.02,2.22,0,2.27.01.08.03.08.07-.17,1.16-.14.62-.44,1.95-.65,2.95-.22,1.01-.68,3.13-1.03,4.71-.35,1.59-.83,3.78-1.06,4.87-.32,1.49-.45,2-.51,2.07-.08.09-.15.09-2.08.09-1.1,0-2.08,0-2.18-.02h0ZM135.04,58.72s.28-1.28.6-2.74c.32-1.47.85-3.92,1.19-5.46.84-3.82,1.35-6.13,1.47-6.75.13-.65.19-.76.41-.82.1-.03.79-.05,1.74-.05h1.58s-.02.21-.02.21c-.01.12-.04.77-.05,1.46l-.03,1.26.79-.77c1.29-1.27,1.91-1.7,3.06-2.12.73-.27,1.31-.36,2.25-.36.71,0,.86.01,1.21.1.86.22,1.51.66,1.97,1.32.52.75.72,1.48.72,2.7,0,1.15-.1,1.71-1.13,6.32-.29,1.31-.69,3.13-.89,4.05l-.36,1.67-1.34.03c-1.79.05-3.13.03-3.22-.05-.06-.05-.05-.11.04-.51.25-1.05.8-3.5,1.2-5.34.88-4.03,1.04-5.1.81-5.66-.08-.2-.38-.51-.61-.63-.26-.14-.88-.13-1.37.03-.92.3-1.85,1.1-2.6,2.24-.28.43-.79,1.47-.97,1.96-.29.81-1.14,4.36-1.68,7.01-.09.42-.17.82-.18.87l-.02.1h-2.29c-2.16,0-2.29,0-2.27-.08h0ZM89.84,57.18c-.57-.65-.75-.92-1.07-1.57-.61-1.27-.83-2.34-.77-3.81.1-2.49.73-4.3,2.05-5.97.48-.6,1.51-1.56,1.89-1.76l.12-.06.03.38c.09,1.23-.19,4.66-.62,7.5-.34,2.24-1.02,5.64-1.16,5.78-.02.02-.23-.2-.48-.48h0ZM56.49,40.76c-.55-.15-1.1-.57-1.45-1.11-.29-.44-.34-.65-.34-1.31s.08-.99.36-1.47c.22-.37.75-.91,1.11-1.12.5-.29.88-.39,1.44-.4.56,0,.84.06,1.29.27,1.04.49,1.59,1.78,1.28,2.99-.09.36-.34.88-.56,1.15-.34.43-1.01.82-1.66.99-.42.11-1.12.12-1.47.02h0Z"></path><path id="path946" class="cls-1" d="M82.17,75.61c-.94-.25-1.64-.66-2.42-1.45-1.67-1.68-2.97-4.65-3.78-8.62-.09-.42-.16-.83-.15-.9,0-.07.16.35.37.97.66,1.99,1.21,3.13,2.08,4.31.89,1.21,2.1,2.04,3.25,2.26.56.1,1.27.07,1.8-.09.53-.16,1.26-.54,1.8-.94.5-.37,1.53-1.38,1.98-1.95.37-.46,1.21-1.72,1.55-2.31,2.38-4.16,4.32-11.02,5.06-17.89.06-.56.13-1.33.16-1.72.03-.39.06-.82.07-.97.01-.15.04-1.16.07-2.26.06-2.84-.01-4.81-.25-6.55-.71-5.2-2.29-8.54-4.58-9.65-.59-.29-.92-.37-1.6-.4-.92-.04-1.57.1-2.41.52-.8.4-1.47.91-2.25,1.72-.86.89-1.78,2.08-2.47,3.21-.21.34-.36.55-.37.5-.02-.09.57-1.31,1.06-2.18,1.15-2.07,2.31-3.6,3.83-5.04.74-.7,1.15-.99,2-1.42,1-.5,1.11-.52,2.33-.5,1.09.02,1.17.04,1.9.41.57.29.93.55,1.4.99.77.73,1.35,1.54,1.94,2.73.84,1.69,1.43,3.54,1.94,6.1.56,2.82.67,4.35.63,9.38-.03,3.8-.08,4.58-.45,7.18-1.03,7.25-3.04,13.63-5.74,18.26-1.95,3.34-4.06,5.42-6.22,6.14-.84.28-1.8.33-2.53.14h0Z"></path></g></g></svg>