<svg xmlns="http://www.w3.org/2000/svg" width="44" height="44" fill="none"><path fill="#DCF4FF" d="M22.002 44C34.152 44 44 34.15 44 22.001 44 9.852 34.15.004 22.002.004 9.853.004.004 9.853.004 22.002c0 12.149 9.85 21.997 21.998 21.997Z"/><mask id="a" width="44" height="44" x="0" y="0" maskUnits="userSpaceOnUse" style="mask-type:luminance"><path fill="#fff" d="M21.998 44c12.149 0 21.998-9.85 21.998-21.998 0-12.15-9.85-21.998-21.998-21.998C9.848.004 0 9.853 0 22.002 0 34.15 9.849 44 21.998 44Z"/></mask><g mask="url(#a)"><path fill="#DCF4FF" d="M135.298-97h-270.353V98.773h270.353V-97Z"/><path fill="#90C6DE" d="M4.043 52.77c0 1.138 1.415 1.822 1.415 2.504 1.415 2.048 0 2.048 2.83 2.504.47 1.821 1.413 0 2.827.683 1.65.91 2.358 1.82 3.537-.455.472-1.139.943-2.277 1.415-3.642.235-.683.471-1.139.707-1.594.472-.227 1.415.228 1.65-.682-1.886 0-1.886-3.187-2.122-3.87.236-.456 2.358-.91 2.358-1.593 0-.683-1.414-.683-1.886-.911-.707-.455-.236-2.731-1.65-1.366-.708.684-1.18 1.594-1.65 2.277-.237.455-1.886.682-2.359 1.138-.942.91-2.357 1.366-3.064 2.276-.472.455-.472 1.366-1.178 1.82-.708.456-2.83 0-2.83.911ZM27.62 40.249c-.235.456-1.414 3.187-2.12 1.822-.944-2.05-3.301 2.958-2.122 2.958.471 0 .471-1.593.943-1.821.942.683 1.65-.682 1.65.911 0 .91 1.178 1.82 1.886 1.82.707 0 0-1.593.471-2.048.236.455.236.455.236.228 0 .455.235.682.472.91-.237-.683.942-4.78-1.416-4.78.237 0 0 .228 0 0ZM17.01 41.842c1.414-.228 2.121-1.822 3.3-2.504-.235-.228-.471-.455-.471-.683-.943.683-2.594 2.276-2.83 3.187ZM19.372 33.193c0 .91 1.178.684 1.65.455-.235.456-.472.91 0 1.366l2.594.91c-.236-.227-.236-.455 0-.91l1.886 1.593c.942 0-.708-1.365-.708-1.138 0-.227.236-.227.236-.455-.471 0-2.122-1.138-2.122-.227-1.414-.683-1.179-2.049-.471-3.187.707-1.139-.471-2.049-.471-3.187-1.18.456-.472-.227-1.416-.455-.471.228-1.178 4.552-1.178 5.235 0 .227 0-.683 0 0ZM27.15 36.833a1.547 1.547 0 0 0-1.414 0c.471.227.706.682 1.179 1.139-.236.227-.473.455-.944.227.236.683.708 1.593 1.179 1.593-.235-.228-.471-.91-.471-1.138 1.65 0 .471-.91.471-1.82 0 .226-.471 0 0 0ZM23.144 37.747c-.708-.683-.236 2.05-.236 2.05 1.178-.911 1.886-1.366.236-2.05.471 0 0-.228 0 0Z"/><path fill="#90C6DE" d="M24.555 38.883c-1.885.228.472 2.959.472 2.276-.236-.455.471-2.504-.472-2.276.472 0-.236 0 0 0Z"/><path fill="#90C6DE" d="M25.025 40.478c.235-.228.943-1.138.943-1.593-.943 0-.943 1.137-.943 1.593ZM26.445 40.022c-.47-.227-.943 0-.943.683-.235.456.944-.228.944-.683 0 .455-.237.228 0 0ZM25.5 37.744c0-.683-.707-1.138-1.179-1.138 0 1.138 1.18.455 1.18 1.138 0 .227 0-.683 0 0ZM21.728 36.836c.944 0-.47-1.593-1.178-1.593.236.455.707 1.593 1.178 1.593.237 0-.235 0 0 0ZM22.202 35.697h.463c0-.225-.23-.225-.463 0ZM21.495 18.174c-2.122 0-1.886 5.234-.472 4.097.472-.456 2.122-4.097.472-4.097Z"/><path fill="#176C93" d="M21.495 18.174c-2.122 0-1.886 5.234-.472 4.097.472-.456 2.122-4.097.472-4.097Z"/><path fill="#90C6DE" d="M6.877 26.364c0-1.821-3.536.455-3.536.683.471 2.276 3.536 1.138 3.536-.683ZM33.514 6.335c0 .683 1.179.683 1.179 0 .235.91-.471 2.732.471 2.504 0 .228 0 .228.235.455 1.18 0 1.65-2.731 1.18-3.186 0 0-3.065-1.822-3.065.227ZM37.995 6.791c.472 0 3.772-2.504 1.887-2.504-1.18 0-3.301 2.504-1.887 2.504Z"/><path fill="#90C6DE" d="M43.409.875c-.708 0-.708 1.592-1.65 1.592-.472.228-1.651 0-2.122 0-.943 0-4.48 1.138-4.48 2.277 0 .455 4.245-.228 4.48-.91 1.179-1.594 1.65 1.82 2.358 2.048.471-.911.942-1.138 1.65-1.366-.236 0-.944-1.138-.236-1.138s.943 1.366 1.885.683c.944-.683.473-.227 1.18-.227.236-.684.707-.91 1.414-1.139-.236.228-.236.455 0 .683 2.121-.683.472-5.007 1.886-5.462 1.414-.456 1.18-4.78-.236-4.78-.235 0 0 .454.236.454-.943.684-1.65.228-1.65 2.277 0 1.366-.943 2.73-2.122 3.414-.235.227-3.3 1.594-2.122.227.236.228 0 1.367-.471 1.367Z"/><path fill="#90C6DE" d="M108.951-59.22c-4.715-2.504-10.844-5.463-16.502-4.552-1.65.227-.471 3.186-1.179 2.959-.943-.456-1.885-2.049-3.064-2.049-2.83 0-5.895-.227-8.723-.227-.708 0-2.122.227-2.83 0-.706-2.732-3.064-3.415-5.657-3.415-2.122 0-4.95 1.138-6.365-.91-1.415-2.049-3.537-2.276-5.893-2.731-2.594-.456-5.894-1.139-8.488-.228-.942.228-2.593 3.414-2.593 3.414-2.357 0-5.421.455-7.78 0-.942 0-1.414-.683-2.356-.91-1.65-.683-.944.682-1.65 1.593-1.415 2.276-3.537-2.276-3.537-3.414 0-.91 1.65-1.366 0-2.276-1.886-.911-4.243-1.139-6.13-1.139-2.357-.227-1.178 1.821-3.536 1.821-3.065 0-5.422-.227-8.486-.682-1.887-.228-3.772-.683-5.423-1.366-.471-.228-1.179-.455-1.414-.91-1.179.91-2.358 2.048-3.772 2.73-1.414.684-1.65-.454-.707-1.137 2.357-1.594 5.658-2.276 7.78-4.325 2.592-2.276-2.593-3.87-4.244-3.87h-4.48c-1.65 0-2.121-2.73-4.478-2.73-.237 0-12.73 7.055-11.787 3.869-3.536 1.138-7.073 1.138-10.373 2.731-1.887.91-1.887 2.276-3.3 3.642-.944.91-3.773.227-4.716.227-1.179 0-3.065.228-3.536 1.594-.707 1.365 1.65 3.186-.943 2.959-1.179-.228-2.358-.228-3.3-.228-.236.455-1.18 1.821-2.122 1.593-1.178-.227-.707-2.276-1.414-2.959-.237 1.366-1.415 2.277-2.594 2.96.472 1.365 2.593 2.73.943 4.324-.706.683 1.65 5.463 0 4.552-1.885-1.138-1.885-5.007-2.122-6.828 0-.91.943-4.097.472-4.325-2.829-1.593-6.13.456-7.78 2.732-2.121 3.186 1.887 4.78 2.358 7.511.235 1.138-4.48-1.366-4.95-1.593-1.18-.683-5.894-2.504-6.837-1.138-.236.455.943 3.414-.707 2.959-.708-.228-1.18-1.139-1.886-1.139-1.65 0-3.3 1.139-4.951 1.139-2.593.227-3.065-1.594-5.894-.228-2.121 1.138-4.007 2.731-6.365 3.414-2.593.683-.943-2.959-1.886-3.87-.471-.682-1.178.684-1.414.911-1.179 2.049-.236 2.276-.236 3.87 0 1.82-3.772 0-4.715 1.82-1.178 2.504-2.829 2.96-5.658 1.822.236.682-.235 1.365 0 1.82-2.829-.227-2.357-2.959-3.536-4.552 2.358 0 5.658 1.138 8.016.228 2.357-.91 2.121-2.732 0-4.097-3.065-1.594-6.601-2.732-9.902-3.87-2.122-.683-4.479-.227-6.129-1.593.943-.228 1.65 0 1.886-1.138-.943-.455-1.886-1.366-2.593 0-.472-.228-.708-.683-.472-1.138-1.414.91-1.414 1.82-2.122.455-.707.455-1.178 1.593-2.121 1.366.471-.456.707-.91.943-1.594 0 .683-4.715-.227-4.715.683 0 .455.471.455.707.683-.943.455-1.886.228-2.358 1.366v-.91c-.943 0-.942 1.137-1.885 1.365v-.683c-.708 0-1.415.228-2.122.683l.471.455c-.943.455-1.414-.227-2.121.91h.707c-1.65.911-1.179 1.594-2.593-.227-.472.455-1.415.455-1.65 1.366.235 0 .471.227.707.227-.472.228-.708.456-.943.683 1.178 0 1.886-.683 3.064-.91-.707 2.731-4.243 3.186-5.186 5.69-1.179 2.276-2.829 5.235-5.658 5.918.472 0 .707.228 1.179.228-1.65-.228-4.244 1.82-5.187 2.959-.707 1.138-1.178.455-.942 2.504 0 .682.235 1.593.707 2.048-.472.455-.707.683-.707 1.138.471-.227.943-.227 1.414-.227-.471 1.138-1.179 1.365.236 2.276 2.357 1.365 4.715-.683 5.893-2.732 1.415 1.821 2.122 4.78 2.829 7.056.472 1.367.943 2.504 2.358 1.139.943-1.139 1.886-.684 2.829-1.594 1.886-1.593 0-1.593.471-3.414.472-1.593 3.301-1.593 3.301-3.187 0-1.82-2.594-1.365-2.594-3.186 0-1.366.708-2.96 2.122-3.642 1.179-.683 3.065-1.366 4.008-2.504.707-1.138-.236-2.504 1.179-3.187 1.178-.682 3.771-.91 4.714.228 1.179 1.366-2.121 2.504-2.829 3.414-.943 1.138-3.3 1.821-3.3 3.187 0 .455.236 1.593.943 1.82-.471.684-1.179.911-.471 2.05.943 1.137 3.064 1.593 4.479 1.137 1.178-.227 4.715-.227 5.422-1.365a6.915 6.915 0 0 1 1.178 1.593c-2.357 1.593-4.479.228-6.836 1.138-3.3 1.366 2.122 3.414-.236 4.325-1.886.683-2.357-2.731-4.007.455-.943 2.276-.943 5.007-4.008 5.007 0-2.73-7.544 3.187-7.072 0-1.651-.227-5.658 2.049-5.658-1.137 0-1.367 1.65-1.594 1.65-2.504 0-.455-.943-1.138-.707-2.504-1.179.91-3.301 1.138-3.301 2.96 0 1.365 1.415 2.73 1.415 4.097 0 .91-4.715 1.365-5.187 2.048-1.886 1.593-1.414 3.87-4.715 3.87-.707 2.275-3.064 3.413-4.95 2.275.235.683.471 1.593-.236 1.822 0 0-5.658-.229-3.536 1.137.707.455 1.886.683 2.593.911.943.227.471 1.138 1.179 1.82 1.178.911 1.65 2.277.707 4.098-.943 1.82-2.122 1.137-4.243 1.137-1.179 0-3.772 0-4.715-.455-2.829-1.365-1.886 3.642-1.886 4.326-.236 1.137-.943 2.503-.943 3.64 0 .912.707.457.707 1.594 0 2.732 1.886 0 3.3 1.367.943.91.708 2.047 2.358 1.365.943-.455 2.357-1.138 3.536-.91.707-.228 4.243-2.732 3.3-3.415-1.886-2.048 3.537-3.87 4.008-4.325.943-.683 0-1.593.236-1.82 0-2.049 3.3-.683 4.243-.683 2.593 0 4.244-4.098 6.365-.684 1.179 2.049 3.065 3.415 5.187 4.326.707.227 4.243 4.324 1.65 4.324 0 1.138 2.357-1.365 2.357-1.365 0-.684-1.65-1.366-.471-2.049.943-.683 1.65.455 2.357.455.236-2.049-3.3-1.365-3.3-3.187-3.3 0-1.886-2.504-4.243-3.186-2.594-.91-.472-2.732.471-3.187.236.228 0 1.366.707 1.366 1.415.683.943-.91 1.65.91.708 1.593 3.065 2.277 4.244 2.96 2.357 1.137 2.357 7.738 5.422 7.283-.707 1.138-.236 2.504 1.65 2.277-.235-.228-.235-2.049-.235-2.277.707.683 1.414.91 2.357.455-.943-.91-1.414-2.048-1.886-2.73-1.65-1.822.236-.684 1.179-.684.707-3.187 4.715.228 7.072-2.049-.471-.682-1.65-1.138-1.65-2.048 0-1.137 1.414-1.594 1.414-2.504 0-1.82 1.179-2.73 2.122-3.641 3.065-3.187 4.715 6.145 8.958 1.137-4.95 0 1.18-2.503 2.83-3.186-1.887.91.47 2.504-2.358 3.186.471.91 8.487 5.236 7.308 6.146-.707.228-7.78 2.504-7.78.228-1.886 0-3.3-1.366-5.422-.228-.236.228-4.715 1.366-4.715 1.139 0 .227.236.455.472.682-1.179.683-3.301 0-4.244 1.138-.707.683 1.415.91-.471 2.732.471.227 3.536 2.504 2.593 2.73.943-.226 1.415 0 2.122.456 1.414 1.138 1.414-.682 2.593-.682 1.414 0 1.886 1.82 3.536.91 1.415-.455 1.886-.683 3.3-1.138-.47 1.138.472 2.732-.47 3.869-.944 1.366-2.358 3.642-1.887 5.236 0 0-3.536-.684-4.243-.684-3.065 0-4.715.91-8.016-.227-1.178-.455-4.479-.455-4.479-2.048-1.414-.228-4.007.227-4.007 1.82-.943 1.139-.472 2.504-3.065 1.139-1.886-.91-3.065-2.732-4.951-3.187-1.65-.456-3.064.455-4.243-1.366-.943-1.365.236-3.87.471-5.236-1.178.229-2.121-1.137-3.3-.227-.472.456-4.008.684-4.715.684-1.886 0-3.065-.457-5.186.227-1.886.455-4.48 2.503-6.365 2.503-1.415 0-4.244-1.593-4.715-.683-.943 1.367-2.358 2.732-3.537 4.098-1.65 1.821-1.178 2.731-1.886 5.007-.707 2.504-3.771 1.822-5.186 3.414-2.122 2.959-5.422 7.284-4.243 10.927.707 2.047.707 3.869-.472 5.69-.707 1.138-1.414.91-.707 2.276.236.455.471 1.82.471 2.276.943 1.82 4.008 3.642 5.423 5.917 1.886 3.188 6.129 6.375 9.901 5.008 2.122-.682 3.3.228 5.422.228 1.414 0 3.772-1.593 5.186-2.049 4.244-1.365 4.715 2.276 8.487 2.276 1.65 0 2.829.683 3.536 2.049-.471.455-.707 2.504-.471 3.187-4.008 2.275 3.3 7.056 3.536 9.332.472 2.731 3.301 6.6 1.65 9.333-.707 1.365-2.121 2.275-2.593 3.869-.707 2.504.707 5.234 2.122 7.283 2.121 3.415 1.65 7.056 3.772 10.698.943 1.594 1.886 3.187 3.064 4.553.472.682.943 1.365.472 2.048-.707 1.366.471 1.366.471 2.959.943-.455 1.651.911 3.065.683 1.415-.456 3.301-1.821 4.951-1.138 2.357 1.366 6.365-2.277 7.543-3.869.708-1.138 5.423-6.374 4.48-7.511-.943-1.367 1.178-2.732 2.829-2.732 1.414 0 1.414-3.187.943-4.097-.472-1.139-1.886-2.05-.708-3.188.943-.91 1.65-2.047 2.83-2.73 1.178-.683 7.543-2.96 4.95-5.236 0-1.592.943-4.78-.236-6.145-1.178-1.366-1.179-2.732-1.414-4.552-.236-2.277.943-2.277 1.65-4.097.943-3.643 4.243-5.008 7.072-6.829 3.3-2.276 5.894-6.6 7.544-10.015.707-1.366 1.415-3.187.707-4.552-2.121.455-4.243 1.593-6.6 1.365-2.122-.228-2.358 1.82-4.008-.455-.708-.455-.943-.91-.472-1.365-.471-1.367-.707-.683-1.65-1.594-.943-1.138-1.179-1.821-2.593-2.504-2.122-1.138-1.179-3.414-3.065-4.78-1.414-.91-1.414-1.593-1.414-3.186 0-1.366-.943-1.822-1.65-2.959-.943-1.822-1.651-3.642-2.829-5.69-.708-1.366-2.594-3.188-2.358-4.78.943.91 1.415 2.959 2.829 3.186.236-.91.707-1.594.943-2.504-.236 1.594 2.358 7.511 3.772 7.74 1.179 0 2.122 2.048 2.122 2.958 0 2.504 1.65 2.504 2.357 4.098.707 1.365 2.122 2.275 2.829 3.64.471 1.14 0 2.277.471 3.643 1.415 3.642 2.358 1.138 4.951 1.138 1.415 0 8.016-2.732 8.016-3.414 0-1.138 2.828-1.593 3.536-1.593.943-.228 2.593-1.594 3.064-2.504.472-.683 5.187-5.008 3.772-5.463-.943-.455-1.178-1.366-2.593-1.821-1.65-.682-2.357-1.82-2.122-3.641-1.414 1.137-2.121 2.73-4.243 3.186-3.536.683-2.593-.91-3.065-2.96-.235.229-.707.684-.943.91-.235-1.592-2.121-2.275-2.829-3.868-1.414-2.96 1.18-4.553 3.065-1.82 1.179 1.593 2.358 3.185 4.48 3.868 1.65.456 2.357-.683 3.535-.683 1.18 0 .943 1.367 1.65 1.822.472.455 2.122.455 2.83.455 1.885.227 3.536.455 5.422.455.471-.455 4.007-.455 4.479-.228.707.228.943 1.366 1.414 1.822.943 1.593 2.593 1.365 4.008 1.82-.707.683-1.178.455-1.886.91.708.683 2.122 3.187 3.772 2.049.707-.682.707-1.594 1.65-2.049 0 4.098.472 8.422 3.065 12.292 1.65 2.504 3.3 11.38 6.13 5.008.235-.456 1.178-.456 1.178-.684.235-.683-.236-1.365 0-2.048.472-1.594 0-2.504 0-4.098 0-1.137 2.357-1.82 3.3-2.503 2.122-1.82 5.894-3.87 6.6-6.373.945-2.276 5.423.683 5.423-2.504 2.122.455 1.415 1.593 2.357 2.959.944 1.593 2.358 2.277 3.066 4.097.235.91-.236 2.049.235 2.96.943 1.82 2.83-1.594 3.3-1.821 2.83 2.73 2.123 8.193 2.123 11.835 0 .683.706 0 1.178.683.942 1.138 1.415 3.186 1.65 4.325.708 2.732 2.83 5.235 5.658 5.007-1.414-2.959-.943-5.462-4.008-7.056-1.65-.91-4.243-4.78-2.829-6.373.944-1.138.236-1.82.471-2.959.237-.683 2.595 1.366 3.066 1.366 1.65.455 1.65 2.503 3.065 2.731 1.178.228.942 2.504 1.414 2.504.707 0 1.179-1.138 1.179-1.821 0 .228 0 .228.235.455 1.179 0 4.244-3.186 4.48-4.096.943-2.732-1.415-4.553-2.83-6.374-1.414-1.82-3.536-3.186-.942-5.008.706-.455 1.65-.91 2.121-1.82.707.227 1.65.455 2.357.455-.235.455 0 .91.237 1.138.471-.228.471-.683.706-.91.473-.456 2.358-.912 3.066-1.139.235 0 1.65-1.365 1.65-1.365 1.178 0 1.178.682 2.357.227 3.772-.91 4.715-4.552 6.837-7.056 2.593-3.186 2.357-5.918.235-9.332-.235-.455-1.885-2.049-.943-2.732 1.18-.682 3.301-1.82 4.244-2.959-.471-.455-1.65-.455-2.358-.682-1.178-.911-.707.91-1.414.91-.708 0-3.301-1.365-3.301-2.276 0-.683 3.772-2.05 4.244-2.96.471-.454.707-.91 1.414-.226.944.91-.707 1.593-.707 2.503 1.18 0 2.122-.91 3.065-1.138 1.414-.455 1.414.228 2.83.228-.708 1.365-.945 2.73.706 2.73 1.65 0 .707 4.098.707 5.464 3.536 0 5.658-2.96 3.3-6.146-1.885-2.276-1.65-2.048.708-3.87 1.885-1.365 1.414-3.869 4.007-3.414 5.658.91 6.602-4.324 9.902-7.51 1.886-1.821 2.121-3.643 2.358-5.919.235-2.503 2.357-3.869 0-6.146-1.887-1.82-2.594.455-4.715-.227-1.887-.683-2.122-2.276-.708-3.642 3.772-3.414 6.837-6.828 12.258-7.284 4.244-.455 7.78.456 11.788.456 1.886 0 1.65-2.504 2.829-3.642 1.65-1.594 4.715-1.594 6.837-1.366-1.415 1.138-.236 2.504 1.414 1.138.944-.683 2.358-3.187 3.537-2.731 1.885.91-.708 2.731-1.416 3.186-1.885 1.138-2.828.91-4.243 2.732-1.414 2.048-3.536 2.959-4.95 4.78-1.414 2.048-.708 9.104 1.414 10.698 1.886-2.732 3.536-4.325 5.422-6.601 2.358-2.731 1.65-6.146 4.244-9.105 1.886-1.82 3.771-1.82 5.893-.683 3.065 1.366 6.6-2.048 8.722-3.642 1.18-.682 7.78-1.82 7.309-2.959-1.178-2.048-3.772-2.731.236-4.324 1.179-.456 1.179-2.504 1.885-2.504 1.887 0 3.301 1.366 4.715 2.504 4.244 3.186 4.008-.683 8.016-2.049-3.772-2.959-8.723-3.414-12.023-5.235 2.828 1.593-3.772-2.049 0 0Zm-227.494 40.06c.708.91-.235 1.139 1.179 1.139-.943 0-1.179-.228-1.179-1.139Zm9.194-37.101c0-.91 1.415-1.82.707-2.731-.471-.456-1.414-.683-1.414-1.366 0 .91 1.65.91 1.65 1.82-.236 1.139-.707 1.822-.943 2.277 0 .91.943 1.366.943 2.504 0-.91-.943-1.366-.943-2.504Zm30.883 45.523c.943 1.365 2.357 2.277 2.357 4.097 1.415-.683 2.593-.91 2.593 1.139-.471-.228-1.65-.228-2.121.227-.943 1.138 1.414 1.366 1.414 2.959 0 2.731.472 3.187-3.064 3.187-1.415 0-1.415-.91-2.358-1.139-2.122-.455-.707-1.137-2.122-2.276-.471-.455 0-1.821-.943-1.593-.707 0-1.414.91-2.121 1.138 2.121 0 1.178-2.048 2.829-.455-.236.455.471.455.707.455.471-.683.471-1.821 1.414-2.276-2.829-1.366-5.186-6.601-3.536-9.105.472-.91 3.536-1.82 4.48-1.82 2.828-.456 4.007.454 5.657 2.503-.943.683-3.536 0-4.95.683-2.122 1.138-.943.91-.236 2.276.943 1.593-.236-.682 0 0Zm5.893 9.56c-6.365 6.146 7.309-6.828 0 0Zm8.016 6.601c0-.228 0-.228 0 0Zm1.414-2.959c-.471 0-1.178 1.82-1.178 2.049.471-1.367.942-1.367.942-2.732 0 .683.708 1.138 1.65 1.138-.706 0-.942-.228-1.414-.455Zm4.95-2.732c.237-.227.708-.455.944-.455-.236.228-.707.228-.943.455.236-.227.236-.227 0 0Zm4.244.455c-.235 0-2.593-.682-2.593-.682.236.455 2.122.455 2.593.682Zm2.593-1.137c-.235 0 .237 0 .472-.455l-.472.455Zm2.593 1.365-.47-.455c.707.227.707.455.47.455Zm1.651-.455c.235-.228.708-.455 1.179-.455-.471.227-.944.227-1.179.455Zm4.007.682c-1.179-.455-1.414-.91-2.828-.91h1.65c0 .91 1.65.91 1.178.91Zm5.187 8.878c-.235 0-.472 0-.707-.228 0 0 1.886.455.707.228.236 0-.235 0 0 0Zm1.65-22.534c0 2.731-.943 5.69-3.772 6.828-1.178.684-2.593.91-4.008.91-.942 0-2.593 2.96-1.65 3.188-.943-.228.471-2.504.943-2.96.944-.91 3.537-.454 4.715-1.138 1.415-.683 2.593-2.048 3.065-3.414.236-.683.47-1.365.47-2.276.237-2.048.473-.91 1.888-2.048-.472.455-.943.682-1.65.91.707-.228 0 5.463 0 0Zm24.753 32.55c0-1.822 1.415-1.822 1.415-3.87-.236 2.048-1.415 2.048-1.415 3.87Zm-14.38-5.463c-1.886.227-2.83-.228-4.479-1.139 2.122 1.366 3.065.91 5.422.91-.235 0-.707.229-.943.229Zm4.479-36.192c-1.65.91-7.544 1.594-7.78 3.87-.235 3.187-3.064 1.138-4.479 2.958.943-1.365 2.122-.455 3.536-1.137.943-.456.708-1.593.943-2.503.236-1.139 2.83-1.822 3.772-2.05.943 0 4.715-1.593 4.008-1.137.236-.229-2.357 1.365 0 0Zm7.544.227c-2.358 0-4.951-2.503-6.837-.682 2.83-2.503 7.309 3.414 9.43-1.365-.707.91-1.179 2.047-2.593 2.047Zm2.122 50.531c.471 1.139 2.122 2.504.707 3.87 1.178-1.593-.236-2.503-.707-3.87.235.456.235.456 0 0Zm.707 4.326c0-.91.47.682.943 1.138-.472-.228-.944-.683-.944-1.139Zm1.65 4.324c.236-.227 0-1.139-.235-1.366.235.227.706 1.139.235 1.366.236 0 .236 0 0 0Zm2.122-13.657c.236-.228.236-.456.471-.683-1.179 0-1.885 0-2.357-1.138.235 1.138 1.178 1.365 2.357 1.138-.235.455-.471.455-.471.683Zm8.25-2.048c-.47 0-1.178-.228-1.65-.456 1.416.456 1.18.228 1.887 1.366 0-.228 0-.683-.236-.91 0 .455-.708 0 0 0Zm4.952-42.109c-2.83 0-4.48-2.504-7.308-2.504 2.357 0 3.77 1.82 5.893 2.276 2.829.683 5.657-1.366 8.487-1.366-2.358.227-4.715 1.594-7.072 1.594Zm14.144-4.78c.943-1.821 2.358-2.731 4.48-2.731-1.887 0-3.537 1.137-4.48 2.73Zm14.381 5.235c-.944-.91-3.066-.683-3.772-1.822-1.18-1.592-1.414-4.096-3.065-5.234 1.65 1.138 2.122 3.642 3.065 5.235.943 1.366 3.3 1.138 4.243 2.731-.236-.455-.471-.683-.471-.91 0 .227-.944-.91 0 0Zm1.414 7.739c-.236-.228.707.683.707 1.138 0-.455-.235-.91-.707-1.139Z"/></g></svg>