<svg width="24" height="24" viewBox="0 0 24 24" fill="none" xmlns="http://www.w3.org/2000/svg">
<g clip-path="url(#clip0_6144_24237)">
<g clip-path="url(#clip1_6144_24237)">
<mask id="mask0_6144_24237" style="mask-type:luminance" maskUnits="userSpaceOnUse" x="-4" y="0" width="32" height="24">
<rect x="-4" width="32" height="24" fill="white"/>
</mask>
<g mask="url(#mask0_6144_24237)">
<path fill-rule="evenodd" clip-rule="evenodd" d="M-4 0V24H28V0H-4Z" fill="#2E42A5"/>
<mask id="mask1_6144_24237" style="mask-type:luminance" maskUnits="userSpaceOnUse" x="-4" y="0" width="32" height="24">
<path fill-rule="evenodd" clip-rule="evenodd" d="M-4 0V24H28V0H-4Z" fill="white"/>
</mask>
<g mask="url(#mask1_6144_24237)">
<path fill-rule="evenodd" clip-rule="evenodd" d="M16.9431 11.8562L16.9463 12.2066C16.9732 15.1566 17.0821 17.0865 17.2757 18.011C17.4365 18.7787 18.0209 20.0518 18.7083 21.0726C19.5726 22.3561 20.4947 23.1368 21.3772 23.1368C22.2628 23.1368 23.1856 22.4108 24.0462 21.2011C24.7525 20.2082 25.3574 18.9486 25.5983 18.0204C25.8964 16.8714 26.0353 14.9356 26.0184 12.2035L26.0163 11.8556L25.6984 12.0202C25.0577 12.3518 24.3679 12.5174 23.6258 12.5174C22.8923 12.5174 22.1844 12.2982 21.4978 11.8563L21.38 11.7805L21.2606 11.8537C20.536 12.2979 19.8552 12.5174 19.217 12.5174C18.5706 12.5174 17.9206 12.3521 17.2648 12.0194L16.9431 11.8562ZM17.4887 17.9695C17.2987 17.0627 17.1904 15.1411 17.1636 12.2048C17.8497 12.5529 18.5341 12.7269 19.217 12.7269C19.8998 12.7269 20.6199 12.4948 21.3772 12.0306C22.0985 12.4948 22.848 12.7269 23.6258 12.7269C24.4036 12.7269 25.1287 12.5529 25.8012 12.2048C25.8179 14.9205 25.68 16.842 25.3875 17.9695C24.9486 19.6607 23.1084 22.9273 21.3772 22.9273C19.6459 22.9273 17.7736 19.3297 17.4887 17.9695Z" fill="#FBE625"/>
<path fill-rule="evenodd" clip-rule="evenodd" d="M17.1636 12.2047C17.1636 12.2047 17.2037 16.6092 17.4887 17.9694C17.7736 19.3297 19.6459 22.9272 21.3771 22.9272C23.1084 22.9272 24.9486 19.6606 25.3875 17.9694C25.8263 16.2783 25.8011 12.2047 25.8011 12.2047C25.8011 12.2047 24.7924 12.7269 23.6258 12.7269C22.4591 12.7269 21.3771 12.0305 21.3771 12.0305C21.3771 12.0305 20.2412 12.7269 19.2169 12.7269C18.1927 12.7269 17.1636 12.2047 17.1636 12.2047Z" fill="#F5FBFF"/>
<mask id="mask2_6144_24237" style="mask-type:luminance" maskUnits="userSpaceOnUse" x="17" y="12" width="9" height="11">
<path fill-rule="evenodd" clip-rule="evenodd" d="M17.1636 12.2047C17.1636 12.2047 17.2037 16.6092 17.4887 17.9694C17.7736 19.3297 19.6459 22.9272 21.3771 22.9272C23.1084 22.9272 24.9486 19.6606 25.3875 17.9694C25.8263 16.2783 25.8011 12.2047 25.8011 12.2047C25.8011 12.2047 24.7924 12.7269 23.6258 12.7269C22.4591 12.7269 21.3771 12.0305 21.3771 12.0305C21.3771 12.0305 20.2412 12.7269 19.2169 12.7269C18.1927 12.7269 17.1636 12.2047 17.1636 12.2047Z" fill="white"/>
</mask>
<g mask="url(#mask2_6144_24237)">
<path fill-rule="evenodd" clip-rule="evenodd" d="M20.6399 15.4883C20.6399 15.776 20.2289 16.6134 19.9907 16.8277C19.8145 16.9864 19.8689 16.6179 19.9091 16.3459L19.9091 16.3459C19.9232 16.2504 19.9356 16.1668 19.9356 16.1221L19.9356 16.1025C19.9356 16.046 19.9357 16.0152 19.93 15.9855C19.9232 15.9499 19.9083 15.9159 19.8754 15.8411L19.8754 15.8411C19.8631 15.8131 19.8483 15.7793 19.8304 15.7376C19.4489 14.9237 19.7188 14.534 19.8387 14.3609C19.8571 14.3344 19.8719 14.313 19.8804 14.2959C19.8985 14.2593 19.9325 14.2264 19.9706 14.1897C20.0663 14.0974 20.1872 13.9809 20.1416 13.7195C20.0779 13.3544 20.464 12.886 20.464 12.886C20.464 12.886 20.3704 13.7944 20.8141 13.5718C21.1025 13.4272 21.6252 13.6347 22.0901 13.8193C22.3405 13.9187 22.5741 14.0115 22.7453 14.039C23.0911 14.0946 23.2805 13.9493 23.3978 13.8594C23.4464 13.8222 23.4826 13.7944 23.5124 13.7944C23.6141 13.7944 23.734 13.8148 23.734 13.889C23.734 13.9632 23.2786 14.1805 23.0496 14.2483C22.8771 14.2994 23.0541 14.4402 23.2025 14.5581C23.251 14.5967 23.2964 14.6328 23.3256 14.6626C23.4438 14.7833 23.5521 15.4416 23.2786 15.0275C23.0051 14.6133 22.4228 14.3365 21.9279 14.2959C21.433 14.2553 20.809 14.631 20.734 15.0275C20.6591 15.424 21.3195 15.3513 21.3195 15.3513C21.3195 15.3513 21.2712 15.4132 21.0583 15.4883C20.8453 15.5634 20.6399 15.4883 20.6399 15.4883ZM20.1421 15.4572C20.1421 15.515 20.0934 15.5619 20.0334 15.5619C19.9734 15.5619 19.9248 15.515 19.9248 15.4572C19.9248 15.3993 19.9734 15.3524 20.0334 15.3524C20.0934 15.3524 20.1421 15.3993 20.1421 15.4572ZM22.5821 17.4011C22.2792 17.2967 21.3475 17.3432 21.0959 17.4827C21.0959 17.4827 21.062 17.2666 20.8931 17.1168C20.7241 16.967 20.6466 16.9548 20.6466 16.9548C20.6466 16.9548 21.0303 17.4971 20.6472 17.6238C20.2641 17.7505 19.633 17.3868 19.4286 16.9343C19.2241 16.4818 19.184 15.8383 19.4136 15.3983C19.6432 14.9582 19.1199 15.3722 19.0717 15.5341C19.0598 15.574 19.0502 15.6312 19.04 15.6924C19.0088 15.8793 18.9715 16.1024 18.8431 15.9763C18.6728 15.8089 18.262 15.5159 18.197 15.5519C18.1321 15.5879 18.1725 15.7026 18.2218 15.7916C18.2362 15.8177 18.278 15.8359 18.3342 15.8603C18.4697 15.9192 18.6885 16.0145 18.8076 16.3439C18.8665 16.507 18.8986 16.7563 18.9331 17.0234C18.997 17.5195 19.0689 18.0773 19.3353 18.2594C19.745 18.5397 18.9051 18.8981 18.9051 18.8981C18.9051 18.8981 19.502 19.0087 19.7905 18.776C19.9969 18.6095 20.1575 18.6587 20.2846 18.6977C20.3352 18.7131 20.3804 18.727 20.4212 18.7251C20.4403 18.7242 20.4662 18.7268 20.4982 18.73C20.7078 18.7509 21.1795 18.7981 21.7064 18.0698C21.7342 18.034 21.7565 18.0047 21.775 17.9803L21.7751 17.9803C21.8246 17.9153 21.8471 17.8857 21.8749 17.8625C21.8981 17.8432 21.9251 17.8283 21.9745 17.801L21.9745 17.801L21.9745 17.801L21.9917 17.7915C22.0308 17.7698 22.1099 17.74 22.2002 17.7061L22.2002 17.7061L22.2002 17.7061C22.4576 17.6094 22.8063 17.4784 22.5821 17.4011ZM21.3288 17.8817C21.3794 17.8536 21.444 17.8734 21.4731 17.9259C21.5022 17.9784 21.4848 18.0436 21.4342 18.0717C21.3836 18.0997 21.319 18.0799 21.2899 18.0275C21.2608 17.975 21.2782 17.9097 21.3288 17.8817ZM21.8419 14.8743C21.9193 15.1852 22.4657 15.9413 22.7198 16.0763C22.7198 16.0763 22.557 16.2224 22.5234 16.4457C22.4897 16.669 22.5217 16.7406 22.5217 16.7406C22.5217 16.7406 22.7675 16.1234 23.0824 16.3757C23.3974 16.6281 23.4361 17.3554 23.1679 17.7733C22.8998 18.1912 22.3819 18.5754 21.8878 18.6225C21.3938 18.6695 22.0259 18.883 22.188 18.8352C22.2279 18.8235 22.2812 18.8003 22.338 18.7756C22.5118 18.7 22.7192 18.6097 22.6833 18.7861C22.6357 19.0201 22.6137 19.5242 22.6793 19.5591C22.7448 19.5939 22.8191 19.4976 22.8668 19.4078C22.8808 19.3815 22.8733 19.3365 22.8632 19.2761C22.8389 19.1304 22.7996 18.8949 23.011 18.6157C23.1157 18.4774 23.3073 18.3147 23.5125 18.1403C23.8938 17.8165 24.3224 17.4524 24.3301 17.1298C24.3419 16.6335 25.1 17.1427 25.1 17.1427C25.1 17.1427 24.8677 16.5819 24.5154 16.4667C24.2633 16.3843 24.2171 16.2228 24.1806 16.095C24.166 16.0442 24.153 15.9986 24.1292 15.9655C24.1181 15.95 24.1061 15.9268 24.0913 15.8982C23.9948 15.7111 23.7774 15.2898 22.8797 15.2445C22.8345 15.2407 22.7977 15.238 22.7671 15.2357C22.6857 15.2296 22.6486 15.2268 22.614 15.2161C22.5851 15.2071 22.558 15.1926 22.5081 15.1661C22.5026 15.1631 22.4969 15.1601 22.4908 15.1568C22.4513 15.1359 22.3833 15.0857 22.3057 15.0284L22.3057 15.0284C22.0844 14.8653 21.7846 14.6442 21.8419 14.8743ZM22.962 15.7034C22.9109 15.6762 22.8923 15.6113 22.9205 15.5583C22.9486 15.5053 23.0129 15.4844 23.064 15.5115C23.1151 15.5387 23.1336 15.6037 23.1055 15.6566C23.0773 15.7096 23.0131 15.7306 22.962 15.7034Z" fill="#FF9800"/>
<path fill-rule="evenodd" clip-rule="evenodd" d="M17.426 19.7522H24.705V23.2093H17.426V19.7522Z" fill="#36C6FF"/>
</g>
<rect x="-4" width="18" height="14" fill="#2B409A"/>
<mask id="mask3_6144_24237" style="mask-type:luminance" maskUnits="userSpaceOnUse" x="-4" y="0" width="18" height="14">
<rect x="-4" width="18" height="14" fill="white"/>
</mask>
<g mask="url(#mask3_6144_24237)">
<path d="M-6.00415 12.9999L-2.0432 14.7371L14.09 1.88878L16.1793 -0.692749L11.9436 -1.27337L5.3633 4.26332L0.0667939 7.99375L-6.00415 12.9999Z" fill="#F7FCFF"/>
<path d="M-5.46191 14.217L-3.44399 15.2251L15.429 -0.932617H12.5956L-5.46191 14.217Z" fill="#E31D1C"/>
<path d="M16.0044 12.9999L12.0434 14.7371L-4.08975 1.88878L-6.17906 -0.692749L-1.9434 -1.27337L4.63695 4.26332L9.93345 7.99375L16.0044 12.9999Z" fill="#F7FCFF"/>
<path d="M15.8691 13.8732L13.8512 14.8813L5.81489 7.96339L3.43229 7.19046L-6.3802 -0.684069H-3.54681L6.26018 7.00356L8.86513 7.93038L15.8691 13.8732Z" fill="#E31D1C"/>
<mask id="path-16-outside-1_6144_24237" maskUnits="userSpaceOnUse" x="-6" y="-2" width="22" height="18" fill="black">
<rect fill="white" x="-6" y="-2" width="22" height="18"/>
<path fill-rule="evenodd" clip-rule="evenodd" d="M5.98451 0H3.98451V6H-4V8H3.98451V14H5.98451V8H14V6H5.98451V0Z"/>
</mask>
<path fill-rule="evenodd" clip-rule="evenodd" d="M5.98451 0H3.98451V6H-4V8H3.98451V14H5.98451V8H14V6H5.98451V0Z" fill="#E31D1C"/>
<path d="M3.98451 0V-1.5H2.48451V0H3.98451ZM5.98451 0H7.48451V-1.5H5.98451V0ZM3.98451 6V7.5H5.48451V6H3.98451ZM-4 6V4.5H-5.5V6H-4ZM-4 8H-5.5V9.5H-4V8ZM3.98451 8H5.48451V6.5H3.98451V8ZM3.98451 14H2.48451V15.5H3.98451V14ZM5.98451 14V15.5H7.48451V14H5.98451ZM5.98451 8V6.5H4.48451V8H5.98451ZM14 8V9.5H15.5V8H14ZM14 6H15.5V4.5H14V6ZM5.98451 6H4.48451V7.5H5.98451V6ZM3.98451 1.5H5.98451V-1.5H3.98451V1.5ZM5.48451 6V0H2.48451V6H5.48451ZM-4 7.5H3.98451V4.5H-4V7.5ZM-2.5 8V6H-5.5V8H-2.5ZM3.98451 6.5H-4V9.5H3.98451V6.5ZM5.48451 14V8H2.48451V14H5.48451ZM5.98451 12.5H3.98451V15.5H5.98451V12.5ZM4.48451 8V14H7.48451V8H4.48451ZM14 6.5H5.98451V9.5H14V6.5ZM12.5 6V8H15.5V6H12.5ZM5.98451 7.5H14V4.5H5.98451V7.5ZM4.48451 0V6H7.48451V0H4.48451Z" fill="#F7FCFF" mask="url(#path-16-outside-1_6144_24237)"/>
</g>
</g>
</g>
</g>
<g style="mix-blend-mode:hard-light" opacity="0.12">
<rect width="24" height="24" rx="12" fill="white"/>
</g>
<rect width="24" height="24" fill="url(#paint0_linear_6144_24237)" fill-opacity="0.64" style="mix-blend-mode:overlay"/>
</g>
<defs>
<linearGradient id="paint0_linear_6144_24237" x1="24" y1="1.19273e-06" x2="-4.48665" y2="16.0237" gradientUnits="userSpaceOnUse">
<stop stop-color="white" stop-opacity="0.3"/>
<stop offset="0.262741" stop-opacity="0.27"/>
<stop offset="0.369956" stop-color="white" stop-opacity="0.26"/>
<stop offset="0.487001" stop-opacity="0.55"/>
<stop offset="0.594445" stop-opacity="0.24"/>
<stop offset="0.736408" stop-color="white" stop-opacity="0.3"/>
<stop offset="0.901459" stop-color="#272727" stop-opacity="0.22"/>
<stop offset="1" stop-opacity="0.2"/>
</linearGradient>
<clipPath id="clip0_6144_24237">
<rect width="24" height="24" rx="12" fill="white"/>
</clipPath>
<clipPath id="clip1_6144_24237">
<rect width="24" height="24" fill="white"/>
</clipPath>
</defs>
</svg>
