<svg width="46" height="35" viewBox="0 0 46 35" fill="none" xmlns="http://www.w3.org/2000/svg">
<g clip-path="url(#clip0_219_4162)">
<g clip-path="url(#clip1_219_4162)">
<mask id="mask0_219_4162" style="mask-type:luminance" maskUnits="userSpaceOnUse" x="0" y="0" width="46" height="35">
<rect y="0.3125" width="46" height="34.5" fill="white"/>
</mask>
<g mask="url(#mask0_219_4162)">
<rect y="0.3125" width="46" height="34.5" fill="#0E7842"/>
<path fill-rule="evenodd" clip-rule="evenodd" d="M20.3208 10.375C20.2999 10.3744 20.2686 10.3863 20.2248 10.4128C20.1262 10.48 19.931 10.6873 19.925 10.9257C19.9191 11.0602 19.8941 11.0597 19.9806 11.1453C20.0431 11.2371 20.1054 11.2281 20.2316 11.1608C20.304 11.1065 20.3284 11.0718 20.3528 10.9806C20.3829 10.8278 20.1949 11.053 20.1709 10.8829C20.1289 10.725 20.2489 10.66 20.3629 10.5071C20.3656 10.4352 20.3668 10.3764 20.3208 10.375ZM22.1567 10.3853C22.1215 10.3901 22.0784 10.4361 22.0186 10.5466C21.9757 10.6623 21.7908 10.8374 21.9242 11.1985C22.0334 11.4275 22.0782 11.7996 22.0287 12.2142C21.9531 12.332 21.9358 12.3726 21.8367 12.4904C21.6974 12.643 21.5465 12.604 21.4308 12.547C21.3226 12.4728 21.2376 12.4347 21.1883 12.1988C21.1972 11.8227 21.2187 11.2073 21.1512 11.0767C21.0517 10.8745 20.8877 10.947 20.8177 11.0081C20.481 11.3217 20.3146 11.8512 20.213 12.2724C20.1196 12.5796 20.0201 12.4907 19.9502 12.3669C19.7801 12.2045 19.7682 10.9348 19.5628 11.1436C19.234 12.101 19.7516 13.1499 20.1102 13.048C20.369 13.1571 20.5332 12.6554 20.6391 12.1061C20.7116 11.9519 20.7669 11.9343 20.8042 12.0135C20.7946 12.744 20.8556 12.9069 21.04 13.1286C21.4512 13.4518 21.7915 13.1696 21.8182 13.1423L22.1382 12.8163C22.2095 12.74 22.3036 12.7354 22.4043 12.8026C22.5021 12.8932 22.4896 13.0493 22.6991 13.1578C22.8753 13.2296 23.2518 13.1752 23.3391 13.0206C23.4566 12.8154 23.4851 12.7449 23.5395 12.6671C23.6234 12.5534 23.767 12.6038 23.767 12.6397C23.7536 12.7031 23.6693 12.7656 23.7266 12.8799C23.8263 12.9561 23.8494 12.9071 23.9084 12.8901C24.1171 12.7886 24.2739 12.3274 24.2739 12.3274C24.2832 12.1555 24.1871 12.1685 24.1257 12.2039C24.0456 12.2537 24.0407 12.2707 23.9606 12.3205C23.8586 12.336 23.661 12.4045 23.5631 12.2502C23.4632 12.0646 23.4627 11.806 23.3863 11.6189C23.3863 11.6052 23.2528 11.3246 23.3762 11.3066C23.4384 11.3184 23.5724 11.3536 23.5934 11.2397C23.6588 11.1286 23.4525 10.8136 23.3122 10.6547C23.1903 10.5184 23.022 10.5018 22.8591 10.641C22.745 10.7479 22.7619 10.8674 22.7395 10.9806C22.7104 11.1107 22.716 11.2719 22.8456 11.4439C22.9595 11.6727 23.1665 11.9663 23.0983 12.3806C23.0983 12.3806 22.978 12.5777 22.7665 12.5522C22.6783 12.5326 22.5346 12.4937 22.4582 11.9191C22.4004 11.4841 22.4727 10.8748 22.2915 10.5894C22.2505 10.4818 22.2155 10.3773 22.1567 10.3853ZM21.5757 10.4315C21.5209 10.4363 21.4601 10.5013 21.4106 10.627C21.3681 10.7225 21.3163 11.2224 21.3247 11.2224C21.2908 11.3711 21.4773 11.4341 21.5622 11.2429C21.6895 10.8925 21.6901 10.7431 21.6986 10.5945C21.6788 10.4812 21.6305 10.4266 21.5757 10.4315ZM23.7215 10.4709C23.6652 10.4761 23.6203 10.5097 23.6036 10.5944C23.5811 10.7937 23.5926 10.902 23.6255 11.0679C23.6507 11.1785 23.8088 11.3638 23.8866 11.4711C24.2583 11.98 24.6158 12.4913 24.9612 13.0204C25.0148 13.4054 25.0546 13.7922 25.0808 14.1801C25.1368 15.0192 25.1537 16.0638 25.1027 16.9475C25.257 16.9537 25.5043 16.6936 25.5911 16.3127C25.6476 15.7858 25.571 14.7107 25.5658 14.3997C25.5622 14.2707 25.5544 14.1166 25.5456 13.9554C25.9669 14.6563 26.3586 15.3753 26.7196 16.1102C26.8591 16.0427 26.8282 15.2429 26.7466 15.1306C26.4405 14.4593 26.0174 13.7967 25.8826 13.5419C25.8339 13.4498 25.6681 13.193 25.4716 12.8968C25.4355 12.4741 25.3961 12.1161 25.3705 12.008C25.3073 11.5613 25.5508 12.0584 25.5171 11.7988C25.4381 11.3526 25.1963 11.0494 24.9108 10.6407C24.8186 10.5078 24.8204 10.4807 24.6783 10.6733C24.5933 10.8696 24.5944 11.033 24.6193 11.1862C24.5725 11.1164 24.5225 11.0489 24.4694 10.9838C24.2228 10.7683 24.2075 10.7565 24.0028 10.5806C23.9383 10.534 23.8154 10.4621 23.7216 10.4708L23.7215 10.4709ZM30.0815 10.5379C30.0541 10.5335 30.0242 10.5472 29.9905 10.5979C29.9262 10.6553 29.8571 10.7593 29.8592 10.893C29.8748 11.1284 29.916 11.3695 29.9316 11.605C29.9371 11.6365 29.9429 11.6678 29.9484 11.6993C29.93 11.6749 29.9103 11.6514 29.8895 11.629C29.4389 11.1468 30.0965 11.5502 29.8036 11.1778C29.5559 10.9007 29.4834 10.8125 29.2714 10.6459C29.165 10.5759 29.1008 10.4422 29.0658 10.6699C29.0519 10.87 29.0375 11.1017 29.0507 11.2705C29.0499 11.3642 29.1452 11.5406 29.2275 11.6444C29.5403 12.0366 29.8458 12.4347 30.1438 12.8385C30.2088 13.6904 30.2261 14.4713 30.292 15.3245C30.2827 15.6894 30.1725 16.1741 30.068 16.22C30.068 16.22 29.9085 16.3134 29.8019 16.2098C29.7244 16.178 29.4145 15.683 29.4145 15.683C29.2559 15.5349 29.1501 15.5772 29.0372 15.683C28.7259 15.9892 28.5851 16.5627 28.3736 16.9578C28.3191 17.0459 28.1655 17.1209 27.9947 16.9509C27.5608 16.3472 27.8145 15.4879 27.7605 15.7088C27.3741 16.1523 27.5453 16.8872 27.6325 17.0453C27.7599 17.3049 27.863 17.471 28.1109 17.5995C28.3367 17.7687 28.5124 17.6631 28.6094 17.5446C28.8366 17.3047 28.8396 16.6914 28.9463 16.5701C29.0211 16.3472 29.2086 16.3855 29.3 16.4843C29.3886 16.614 29.4932 16.6985 29.6234 16.7691C29.8353 16.9595 30.0882 16.9941 30.3375 16.8205C30.5079 16.7232 30.6184 16.5967 30.7182 16.347C30.8253 16.0555 30.7723 14.5275 30.7485 13.6775C30.9086 13.9071 31.0666 14.1418 31.2235 14.3791C31.2924 15.1253 31.3237 15.8601 31.301 16.5649C31.2848 16.705 31.781 16.1465 31.7776 15.882C31.7754 15.6506 31.7781 15.4408 31.7776 15.2455C32.0184 15.6369 32.2514 16.035 32.4716 16.4379C32.6081 16.3642 32.5613 15.5771 32.475 15.4685C32.2444 15.0745 31.9491 14.6485 31.7204 14.319C31.6752 13.9032 31.6137 13.4125 31.5857 13.2622C31.542 13.0278 31.4983 12.6757 31.4324 12.3975C31.4143 12.2889 31.3597 11.9419 31.3768 11.9086C31.4037 11.8309 31.5053 11.911 31.5553 11.8211C31.6302 11.7379 31.2956 10.8549 31.1258 10.6029C31.0648 10.49 30.9543 10.5291 30.8176 10.7127C30.6908 10.8336 30.7372 11.1093 30.7856 11.3715C30.9113 12.0399 31.0235 12.7205 31.1123 13.3994C30.9266 13.118 30.7391 12.8377 30.5497 12.5588C30.5444 12.5308 30.5245 12.4281 30.5245 12.4267C30.5245 12.4147 30.4973 11.88 30.4739 11.7525C30.4699 11.7008 30.4578 11.6858 30.511 11.6924C30.5675 11.7408 30.5752 11.7434 30.6104 11.7594C30.6674 11.77 30.7172 11.6718 30.6828 11.581C30.5066 11.2498 30.3302 10.9171 30.154 10.5858C30.1327 10.5646 30.1089 10.5422 30.0815 10.5379ZM13.6678 10.555C13.5701 10.5521 13.4623 10.6138 13.5044 10.7334C13.4799 10.7986 13.6956 11.0189 13.7335 11.14C13.7675 11.2262 13.6998 11.5038 13.7705 11.5295C13.8356 11.5582 13.9251 11.3373 13.9592 11.1331C13.978 11.0213 13.9638 10.6386 13.7082 10.5601C13.695 10.557 13.6814 10.5554 13.6678 10.555ZM32.3657 10.5572C32.3435 10.5594 32.3164 10.5961 32.2748 10.6858C32.1748 10.8526 32.1404 11.1513 32.1805 11.415C32.4211 13.0731 32.6 14.6788 32.6369 16.1485C32.6162 16.2879 32.6102 16.3622 32.546 16.5379C32.4039 16.7234 32.2472 16.9559 32.0996 17.068C31.9521 17.1801 31.638 17.2869 31.5353 17.37C31.2096 17.5618 31.208 17.7823 31.4713 17.7903C31.9252 17.7367 32.4623 17.6987 32.8323 17.1298C32.9313 16.9704 33.0479 16.5382 33.0529 16.2737C33.0875 14.7229 33.0334 13.2066 32.8053 12.0858C32.7907 11.9766 32.7433 11.7257 32.7616 11.6929C32.7909 11.6162 32.9394 11.7006 32.9922 11.6123C33.0699 11.5316 32.6082 10.9296 32.4466 10.6721C32.4142 10.6075 32.3943 10.5543 32.3657 10.5572ZM27.6058 10.5829C27.5871 10.5862 27.5594 10.6153 27.5082 10.6841C27.3814 11.1064 27.3368 11.4512 27.3852 11.7135C27.7109 13.4447 28.0446 15.022 27.9915 16.67C28.146 16.6711 28.3246 16.3101 28.4008 15.9529C28.4426 15.4608 28.373 15.1613 28.3604 14.872C28.3479 14.5828 28.039 12.236 27.9764 12.0172C27.9009 11.6034 28.2768 11.9628 28.2358 11.7221C28.1059 11.4187 27.7814 10.9768 27.68 10.7133C27.6419 10.6427 27.6371 10.5774 27.6059 10.5829H27.6058ZM16.0161 10.6155C15.976 10.6226 15.9374 10.6561 15.9234 10.7116C15.9146 10.7479 15.9388 10.8082 15.9066 10.8265C15.888 10.8456 15.8178 10.8328 15.8207 10.7322C15.8207 10.7001 15.7976 10.6667 15.7836 10.6464C15.7696 10.6371 15.7601 10.6343 15.7348 10.6343C15.7039 10.6356 15.7046 10.6439 15.6876 10.6704C15.6801 10.6973 15.6704 10.7236 15.6704 10.7544C15.6665 10.7902 15.6524 10.8023 15.6266 10.8076C15.5976 10.8076 15.6045 10.8108 15.5811 10.7956C15.5672 10.7801 15.5508 10.774 15.5508 10.7475C15.5508 10.7201 15.5437 10.6764 15.5357 10.6583C15.5233 10.6418 15.5039 10.6332 15.4818 10.6275C15.3606 10.6279 15.3518 10.7696 15.3588 10.823C15.3497 10.8331 15.3452 11.0843 15.5103 11.1541C15.7321 11.2618 16.1478 11.2163 16.1302 10.8522C16.1302 10.82 16.1232 10.7118 16.1201 10.6823C16.0974 10.6287 16.0557 10.6084 16.0156 10.6154L16.0161 10.6155ZM18.9906 10.6189C18.92 10.6229 18.8511 10.6422 18.7885 10.6755C18.6416 10.8188 18.6071 11.0486 18.7228 11.1919C18.8354 11.2461 18.9478 11.3616 18.8727 11.4253C18.5542 11.7718 17.7253 12.3507 17.6836 12.4564C17.6832 12.4572 17.6821 12.459 17.682 12.4598C17.6818 12.4605 17.682 12.4625 17.682 12.4632C17.682 12.4636 17.6818 12.4647 17.682 12.4649C17.6824 12.4661 17.6829 12.4673 17.6836 12.4684C17.6838 12.4686 17.685 12.4699 17.6853 12.47C17.6856 12.4703 17.6866 12.4699 17.6869 12.47C17.6873 12.4703 17.6883 12.4717 17.6886 12.4718C17.689 12.4719 17.6899 12.4717 17.6903 12.4718L17.692 12.4735C17.7341 12.5023 18.2527 12.5016 18.3102 12.4752C18.3106 12.475 18.3115 12.4737 18.3118 12.4735C18.312 12.4734 18.3134 12.4736 18.3135 12.4735C18.3136 12.4734 18.3134 12.4719 18.3135 12.4718C18.4918 12.4049 19.3376 11.4201 19.3376 11.4201C19.2937 11.3819 19.2534 11.3537 19.2096 11.3155C19.1627 11.2741 19.1674 11.2334 19.2096 11.1919C19.419 11.0678 19.3527 10.7946 19.2433 10.6704C19.1526 10.6289 19.0673 10.615 18.9906 10.6189ZM26.7655 10.6223C26.7432 10.6246 26.7161 10.6595 26.6745 10.7493C26.5746 10.9161 26.5066 11.2065 26.5145 11.4784C26.731 13.0055 26.7974 14.3418 26.939 15.8688C26.9504 16.0165 26.9292 16.2311 26.8328 16.3166C26.4763 16.6957 25.9623 17.1634 25.4029 17.3786C25.3427 17.4474 25.5525 17.7409 25.8239 17.7406C26.2778 17.6869 26.6767 17.4274 27.0468 16.7438C27.1457 16.5844 27.3196 16.2431 27.3247 15.9786C27.3593 14.4278 27.248 13.2221 27.0198 12.1013C27.0053 11.9921 27.0152 11.8629 27.0333 11.8302C27.0627 11.7944 27.1624 11.831 27.2152 11.7427C27.2928 11.6619 27.008 10.993 26.8464 10.7356C26.814 10.6709 26.7941 10.6194 26.7655 10.6223H26.7655ZM14.7208 10.669C14.6581 10.6765 14.5992 10.7284 14.5709 10.7977C14.5604 11.0426 14.559 11.2874 14.586 11.5131C14.6954 11.909 14.73 12.2572 14.7831 12.6626C14.7978 13.2056 14.4753 12.8975 14.49 12.6283C14.5645 12.2786 14.5444 11.7282 14.4782 11.5886C14.4257 11.4491 14.365 11.4147 14.2374 11.4376C14.136 11.4313 13.8743 11.7218 13.8011 12.2028C13.8011 12.2028 13.7402 12.4497 13.7135 12.6695C13.6777 12.9179 13.5162 13.0938 13.4036 12.6352C13.3063 12.3018 13.2465 11.4805 13.0836 11.6727C13.0369 12.3139 12.9815 13.4424 13.5165 13.5582C14.1635 13.6216 13.8061 12.4441 14.0403 12.2303C14.0846 12.1247 14.1666 12.1227 14.1734 12.256V13.2563C14.1674 13.5814 14.3775 13.678 14.5405 13.7452C14.7102 13.7319 14.8227 13.7366 14.8892 13.9048C14.9157 14.4813 14.9435 15.0593 14.9701 15.6358C14.9701 15.6358 15.3623 15.7506 15.381 14.663C15.3998 14.0244 15.2562 13.4885 15.3406 13.3643C15.3436 13.2423 15.4972 13.2362 15.6034 13.2957C15.7725 13.4172 15.8475 13.5667 16.1103 13.5067C16.5103 13.3945 16.7512 13.1968 16.7571 12.8839C16.7338 12.5866 16.7 12.2891 16.5735 11.9918C16.5912 11.9377 16.497 11.7971 16.5146 11.743C16.5865 11.8577 16.6952 11.8482 16.7201 11.743C16.652 11.5145 16.546 11.2956 16.3748 11.2009C16.2333 11.0739 16.0262 11.1008 15.9504 11.3656C15.9152 11.6707 16.0589 12.0325 16.2771 12.328C16.3234 12.4435 16.3882 12.6356 16.3596 12.8084C16.2435 12.8759 16.1284 12.8478 16.0311 12.7432C16.0311 12.7432 15.7128 12.5005 15.7128 12.4464C15.7973 11.8955 15.731 11.8324 15.6842 11.6795C15.6515 11.4685 15.5533 11.4017 15.4737 11.2574C15.394 11.1715 15.286 11.1715 15.2345 11.2574C15.0938 11.5059 15.1598 12.0393 15.2614 12.2783C15.3349 12.498 15.4475 12.6351 15.3946 12.6351C15.3508 12.7593 15.2598 12.7304 15.1941 12.5871C15.1003 12.2909 15.0812 11.8494 15.0812 11.6504C15.0531 11.4036 15.0217 10.8765 14.8623 10.7429C14.8197 10.6838 14.7695 10.6632 14.7208 10.669ZM16.9929 10.6725C16.9608 10.6766 16.9253 10.6952 16.8834 10.705C16.7459 10.7497 16.6171 10.8708 16.6577 11.1065C16.8203 12.113 16.9263 12.8811 17.0889 13.8876C17.1139 14.0054 17.0169 14.1608 16.8919 14.1449C16.6792 13.9984 16.6265 13.7016 16.2636 13.7143C16.001 13.7175 15.7015 14.0086 15.664 14.2891C15.6202 14.5119 15.6046 14.7535 15.664 14.9479C15.8486 15.1739 16.0697 15.1498 16.2636 15.0988C16.423 15.032 16.5542 14.8719 16.6106 14.9101C16.6108 14.9103 16.6121 14.9099 16.6122 14.9101C16.6124 14.9103 16.6121 14.9116 16.6122 14.9118C16.647 14.9737 16.609 15.4972 15.861 15.9017C15.4014 16.112 15.0355 16.1622 14.8386 15.7799C14.7167 15.5411 14.8475 14.6311 14.5473 14.8414C13.6593 17.1729 16.6276 17.4983 16.9592 14.9375C16.9807 14.8653 17.0461 14.7928 17.0922 14.8106C17.1125 14.8193 17.1311 14.8473 17.1377 14.8998C17.0689 17.2185 14.8413 17.3774 14.463 16.648C14.3692 16.4761 14.3411 16.0934 14.3317 15.864C14.3145 15.7252 14.2803 15.6452 14.2407 15.6135C14.1505 15.5444 14.0291 15.7245 14.0032 16.0373C13.9657 16.2889 13.9763 16.3579 13.9763 16.6C14.0951 18.4314 16.9616 17.6445 17.4274 16.1316C17.6581 15.3495 17.4228 14.7595 17.4999 14.6871C17.5005 14.6865 17.5026 14.6859 17.5032 14.6854L17.5066 14.6837C17.5074 14.6834 17.5091 14.6822 17.51 14.6819C17.5133 14.681 17.5167 14.6805 17.5201 14.6803C17.8047 14.9924 18.204 14.7199 18.2915 14.6117C18.329 14.5574 18.4229 14.5227 18.4885 14.5927C18.7105 14.7552 19.0996 14.6786 19.1808 14.392C19.2277 14.1117 19.2674 13.8232 19.2768 13.5239C19.1322 13.5696 19.0156 13.6039 18.9686 13.6543C18.9574 13.6668 18.9492 13.6805 18.9467 13.6955C18.9341 13.7784 18.9222 13.8614 18.9097 13.9442C18.9083 13.9511 18.9061 13.9574 18.9029 13.9631C18.8961 13.9738 18.8868 13.9826 18.876 13.9889C18.8248 14.0173 18.7357 14.001 18.7311 13.9254C18.6623 13.6069 18.3793 13.5654 18.2072 14.0592C18.0915 14.1547 17.8806 14.1734 17.8586 14.03C17.8868 13.6988 17.7557 13.6543 17.4931 13.8104C17.4087 13.1543 17.3249 12.5279 17.2405 11.8718C17.3499 11.8685 17.4503 11.9494 17.5504 11.822C17.4421 11.479 17.213 10.781 17.0838 10.7155C17.0828 10.7149 17.0815 10.7141 17.0804 10.7138C17.0724 10.7042 17.0634 10.6955 17.0535 10.688C17.0511 10.6863 17.0475 10.6842 17.0451 10.6829C17.0397 10.68 17.034 10.6777 17.0282 10.676C17.0168 10.6724 17.0048 10.6712 16.9929 10.6726L16.9929 10.6725ZM25.8506 10.6776C25.737 10.6742 25.6113 10.7471 25.6603 10.892C25.6317 10.9711 25.9043 11.2393 25.9483 11.3861C26.0274 11.6117 25.8879 11.8269 25.9702 11.8579C26.0459 11.8928 26.1513 11.6251 26.1908 11.3776C26.2365 11.1775 26.0964 10.7674 25.8978 10.6827C25.8822 10.6794 25.8664 10.6777 25.8506 10.6776ZM18.95 10.9246C19.0017 10.9193 19.0642 10.9677 19.0948 11.0361C19.1275 11.1092 19.1111 11.179 19.0578 11.1923C19.0044 11.2056 18.9354 11.1572 18.9028 11.0842C18.8701 11.0112 18.8865 10.9397 18.9399 10.9263C18.9432 10.9255 18.9465 10.925 18.95 10.9247V10.9246ZM31.7509 11.2626C31.6473 11.2589 31.5344 11.339 31.5791 11.4959C31.5531 11.5816 31.8001 11.8723 31.8401 12.0312C31.8762 12.1443 31.7853 12.5088 31.8603 12.5425C31.9294 12.5802 32.0264 12.2907 32.0624 12.0226C32.0824 11.876 31.9757 11.3611 31.7947 11.2695C31.7804 11.2654 31.7657 11.2631 31.7509 11.2626ZM24.6734 11.441C24.6829 11.4841 24.6924 11.5274 24.6987 11.5714C24.72 11.6665 24.7382 11.7609 24.7577 11.8545C24.6759 11.7399 24.6082 11.6472 24.5791 11.6144C24.3941 11.3904 24.5833 11.4673 24.6734 11.441ZM26.3039 12.2577C26.2638 12.2648 26.2252 12.3001 26.2112 12.3555C26.2024 12.3917 26.2284 12.4505 26.1961 12.4687C26.1775 12.4878 26.1055 12.4767 26.1085 12.3761C26.1085 12.344 26.0854 12.3089 26.0714 12.2886C26.0574 12.2793 26.048 12.2766 26.0226 12.2766C25.9917 12.2778 25.9924 12.2862 25.9754 12.3126C25.9682 12.3395 25.9586 12.3661 25.9586 12.3967C25.9547 12.4325 25.9423 12.4446 25.9165 12.4498C25.8876 12.4498 25.8927 12.4531 25.8693 12.4379C25.8554 12.4223 25.839 12.4162 25.839 12.3898C25.839 12.3624 25.8319 12.3187 25.8239 12.3006C25.8116 12.2841 25.7922 12.2772 25.77 12.2714C25.6488 12.2718 25.6417 12.4119 25.6487 12.4653C25.6396 12.4754 25.6334 12.7283 25.7985 12.7981C26.0203 12.9058 26.4377 12.8586 26.4201 12.4945C26.4201 12.4622 26.4115 12.3541 26.4083 12.3246C26.3856 12.2709 26.3439 12.2506 26.3039 12.2577ZM18.8594 12.3332C18.8321 12.3304 18.7962 12.3406 18.755 12.3658C18.5589 12.4738 18.483 12.7942 18.6051 12.9818C18.7191 13.1468 18.8994 13.0863 18.9234 13.0863C19.1155 13.1108 19.23 12.7192 19.23 12.7192C19.23 12.7192 19.2357 12.6091 19.0076 12.817C18.9116 12.8353 18.8986 12.8 18.8746 12.745C18.8546 12.6431 18.8589 12.5398 18.9049 12.4379C18.9261 12.3768 18.905 12.3379 18.8594 12.3332ZM29.3831 12.383C29.2742 12.3776 29.1584 12.4494 29.1287 12.6009C29.1292 12.6902 29.1684 12.7393 29.1608 12.8205C29.1494 12.8668 29.1026 12.8973 28.9907 12.8428C29.0081 12.8263 28.9182 12.6969 28.9182 12.6969C28.831 12.6428 28.7145 12.6998 28.6386 12.7501C28.5969 12.8273 28.566 12.9598 28.6134 13.0949C28.7386 13.3306 29.1681 13.7327 29.373 13.7366C29.3768 13.5241 29.3971 13.2416 29.4084 13.0658C29.4132 12.9994 29.4285 12.9263 29.4909 12.9097C29.5533 12.893 29.6615 12.9736 29.6627 12.9045C29.6513 12.7694 29.6248 12.5698 29.5499 12.4756C29.5114 12.4177 29.4484 12.3862 29.3831 12.383ZM20.672 13.1224C20.6691 13.1235 20.6663 13.126 20.6636 13.1275C20.6623 13.1283 20.6598 13.13 20.6585 13.131C20.6369 13.1476 20.6113 13.1858 20.5541 13.2271C20.4577 13.3388 20.4404 13.4166 20.4464 13.6405C20.4518 13.6642 20.6294 14.1671 20.7798 14.5206C20.8813 14.8881 20.9751 15.3088 20.9062 15.7062C20.6687 16.2315 20.1913 16.7026 19.7305 16.9585C19.4957 17.0351 19.293 17.0091 19.2387 16.9568L19.237 16.9551C19.1022 16.8628 19.0991 16.6984 19.1073 16.6703V16.6686L19.109 16.6669C19.4978 16.391 19.942 16.1678 20.2897 15.4231C20.3924 15.1385 20.4237 14.9676 20.3217 14.5275C20.2819 14.3636 20.2328 14.2286 20.123 14.1123L20.1246 14.1107C20.1908 14.0784 20.3625 14.2073 20.3891 14.1261C20.3484 13.916 20.2087 13.6339 20.0506 13.4895C19.912 13.3614 19.7613 13.3466 19.6345 13.4638C19.4916 13.5448 19.4613 13.8355 19.5301 14.09C19.6065 14.2816 19.8127 14.3152 19.9596 14.7008V14.7025C19.9626 14.7267 20.01 14.9903 19.936 15.0971C19.8759 15.2878 19.1047 15.9074 19.05 15.9446C19.0494 15.9452 19.0455 15.9475 19.0449 15.9481L19.0433 15.9498C19.0431 15.9499 19.042 15.9511 19.0416 15.9515L19.0399 15.9532H19.0365C19.036 15.9527 19.0354 15.9521 19.0349 15.9516V15.9498C19.0345 15.9493 19.0335 15.947 19.0332 15.9463C19.0309 15.9309 19.035 15.8915 19.0332 15.828C19.0281 15.7119 19.0753 15.4493 19.0719 15.4042V15.4026L19.0703 15.4008V15.3991H19.0685C18.8136 15.5668 18.7294 16.0807 18.6828 16.2329C18.0374 16.6872 17.3044 17.0251 16.8823 17.4853C16.6625 17.835 18.3971 17.0837 18.5987 16.9929C18.6004 16.9942 18.6021 16.9964 18.6037 16.9981C18.642 17.041 18.6453 17.1908 18.7604 17.3258C18.9406 17.5745 19.3239 17.7278 19.6968 17.6328C20.3222 17.4026 20.6825 16.9684 21.0494 16.4868C21.1018 16.4091 21.184 16.3479 21.2599 16.4079C21.512 16.9827 22.2387 17.3917 23.1784 17.4339C23.3958 17.1645 23.2918 17.0321 23.2036 16.9758C23.1765 16.9574 22.7363 16.7826 22.668 16.6087C22.625 16.4467 22.7296 16.3031 22.9392 16.1952C23.5425 16.1209 24.1355 16.0383 24.7095 15.8504C24.7153 15.6539 24.8288 15.3602 24.9048 15.2327C24.9576 15.1442 24.9915 15.1355 25.0042 15.1229L25.0059 15.1212C25.0061 15.121 25.0074 15.1197 25.0075 15.1195C25.0079 15.1192 25.009 15.1181 25.0092 15.1178V15.1143C25.0096 15.1105 25.0092 15.1037 25.0076 15.0972L24.9098 15.0388L22.9846 15.0303C22.9609 15.0209 22.9432 15.0116 22.9325 15.0028C22.9316 15.0021 22.9298 15.0001 22.9291 14.9994L22.9274 14.9977L22.9257 14.996C22.9255 14.9954 22.9243 14.9931 22.9241 14.9925L22.9223 14.9909V14.9891L22.9207 14.9874V14.9857V14.9839V14.9805V14.9788V14.9771V14.9754V14.9737C22.921 14.9733 22.9221 14.9723 22.9223 14.972C22.9228 14.9711 22.9234 14.9694 22.9241 14.9686C22.9334 14.9557 22.9562 14.9435 22.9847 14.9325C23.4444 14.8687 24.2611 14.7323 24.3153 13.9323C24.3068 13.5156 24.1402 13.2427 23.6383 13.1671C23.2694 13.1961 23.0063 13.5596 23.0487 13.9597C23.0311 14.0675 23.0845 14.2789 22.9763 14.3028C22.2687 14.3687 21.4964 14.8203 21.4705 15.1435H21.4688L21.4671 15.1452L21.4637 15.1469H21.4603C21.4593 15.1473 21.4565 15.1483 21.4553 15.1486H21.4503C21.4486 15.1486 21.4469 15.1486 21.4452 15.1486C21.4434 15.1483 21.4401 15.1473 21.4385 15.1469C21.3924 15.1339 21.3331 15.0565 21.3425 14.9479C21.3155 14.3892 21.137 13.757 20.8574 13.27C20.7576 13.1684 20.7141 13.1272 20.6856 13.1225C20.6846 13.1224 20.6831 13.1225 20.6822 13.1225H20.6721L20.672 13.1224ZM22.5147 13.4175C22.4747 13.4245 22.436 13.4581 22.4221 13.5136C22.4133 13.5498 22.4392 13.6102 22.4069 13.6285C22.3884 13.6475 22.3164 13.6365 22.3193 13.5359C22.3193 13.5038 22.2962 13.4687 22.2822 13.4484C22.2682 13.439 22.2605 13.4363 22.2351 13.4363C22.2042 13.4377 22.2032 13.4459 22.1862 13.4724C22.1791 13.4993 22.1694 13.5259 22.1694 13.5564C22.1656 13.5923 22.1532 13.6044 22.1273 13.6097C22.0984 13.6097 22.1052 13.6128 22.0818 13.5976C22.0679 13.5822 22.0498 13.5761 22.0498 13.5496C22.0498 13.5222 22.0444 13.4785 22.0364 13.4604C22.0241 13.4439 22.0029 13.437 21.9808 13.4312C21.8597 13.4317 21.8525 13.5717 21.8595 13.625C21.8504 13.6351 21.8443 13.8881 22.0094 13.9579C22.2311 14.0656 22.7595 14.0022 22.6309 13.6543C22.6309 13.6221 22.6223 13.5139 22.6191 13.4844C22.5965 13.4307 22.5547 13.4104 22.5147 13.4175ZM29.9511 13.728C29.9449 13.727 29.9385 13.7275 29.9325 13.7297C29.9325 13.7297 28.9053 14.4742 28.8799 14.5C28.778 14.5923 28.829 14.9167 28.8799 14.8792C28.9535 14.908 29.9877 14.1941 29.9679 14.1106C30.0131 14.1133 30.0347 13.7433 29.9511 13.728ZM23.4854 13.8384C23.5273 13.8338 23.5823 13.8483 23.6353 13.8796C23.712 13.9247 23.7593 13.993 23.7532 14.0426C23.753 14.0439 23.7535 14.0464 23.7532 14.0477C23.7529 14.049 23.7502 14.0515 23.7498 14.0528C23.7494 14.0541 23.7487 14.0567 23.7482 14.058C23.7478 14.0588 23.7469 14.0606 23.7465 14.0614L23.7448 14.0648C23.7419 14.0692 23.7385 14.0733 23.7347 14.0769C23.6978 14.1119 23.6128 14.1069 23.5326 14.0597C23.4566 14.0149 23.4097 13.9461 23.4147 13.8967C23.4149 13.8954 23.4161 13.8928 23.4163 13.8916C23.4176 13.8854 23.42 13.8798 23.4231 13.8744C23.4242 13.8725 23.4252 13.8693 23.4265 13.8675L23.4282 13.8658C23.4308 13.8628 23.4336 13.8599 23.4366 13.8573C23.4488 13.8474 23.4661 13.8405 23.4854 13.8384ZM14.4892 14.0271C13.9569 14.037 13.1774 14.7378 13.1569 15.1268C13.7186 14.8521 14.2703 14.5877 14.8412 14.3033C14.7491 14.1632 14.8356 14.037 14.4892 14.0271V14.0271ZM16.214 14.2707C16.2661 14.2713 16.3212 14.2976 16.3504 14.372C16.3767 14.4401 16.3516 14.5115 16.3201 14.5469C16.3199 14.5472 16.3203 14.5484 16.3201 14.5486C16.3196 14.5495 16.3189 14.5514 16.3184 14.5521C16.2961 14.5814 16.2176 14.5692 16.1617 14.5692C16.0942 14.5662 16.0608 14.5549 16.0203 14.4989C16.0009 14.4366 16.0599 14.3755 16.086 14.329C16.0862 14.3286 16.0874 14.3278 16.0876 14.3274C16.0905 14.323 16.0951 14.3178 16.0995 14.3137C16.1197 14.2948 16.1546 14.2771 16.1921 14.2725C16.1994 14.2715 16.2065 14.2706 16.214 14.2707ZM29.7511 14.4865C29.6565 14.4983 29.5665 14.5895 29.608 14.7352C29.582 14.8209 29.7363 15.1202 29.7764 15.2791C29.8124 15.3922 29.73 15.7121 29.805 15.7457C29.8741 15.7835 30.0556 15.5558 30.0492 15.2705C30.0692 15.1238 29.9979 14.5833 29.8168 14.4916C29.7955 14.4855 29.7731 14.4838 29.7511 14.4864V14.4865ZM18.254 15.0149C18.1704 15.0208 18.0957 15.0664 18.1294 15.1865C18.1244 15.2735 18.3658 15.3794 18.3804 15.581C18.4149 15.6642 18.3287 15.9303 18.4006 15.9551C18.4665 15.9827 18.558 15.7711 18.5926 15.5742C18.6117 15.4663 18.5098 15.0891 18.3365 15.0218C18.3095 15.0156 18.2817 15.0132 18.254 15.0149ZM21.6951 15.4936C21.7015 15.4931 21.7071 15.4936 21.7137 15.4936H21.717C21.9315 15.5529 22.2477 15.5591 22.5221 15.5879C22.7457 15.6024 22.8562 15.7806 22.6468 15.8555C22.4403 15.9276 22.2418 15.9839 22.2409 16.2879C22.268 16.4385 22.2623 16.5175 22.2392 16.5538C22.2374 16.5566 22.2345 16.5602 22.2324 16.5624L22.2308 16.5641L22.2291 16.5658L22.2274 16.5675L22.2258 16.5692L22.2224 16.571C22.2192 16.573 22.2158 16.5747 22.2123 16.5761C22.2094 16.5771 22.2052 16.5773 22.2021 16.5778C22.1531 16.5852 22.0817 16.5375 22.0286 16.5092C21.9013 16.4161 21.5439 16.1905 21.4931 15.7063C21.4858 15.597 21.5661 15.5028 21.6952 15.4935L21.6951 15.4936ZM13.2902 15.8658C13.2768 15.8663 13.25 15.9071 13.2144 15.9534C12.8978 16.4672 12.8696 17.2342 13.0443 17.4631C13.1371 17.5713 13.2902 17.6188 13.4031 17.5849C13.6019 17.4971 13.6894 17.0866 13.6422 16.9364C13.5759 16.8306 13.5233 16.8138 13.457 16.9039C13.3169 17.1934 13.2587 16.9953 13.2464 16.8335C13.2249 16.5266 13.2541 16.2441 13.2869 16.0203C13.3043 15.9056 13.3036 15.8655 13.2902 15.8659V15.8658ZM24.0785 16.5405C24.0529 16.5389 24.0273 16.5443 24.0044 16.556C23.9994 16.556 23.7777 16.7087 23.7063 16.8151C23.6627 16.8489 23.6676 16.8782 23.681 16.9369C23.715 17.0164 23.7748 16.9915 23.8427 16.954C23.9328 16.9415 23.9764 17.0016 23.969 17.1119C23.9274 17.2494 23.9876 17.3006 23.9876 17.3092C23.9876 17.3178 24.0744 17.3937 24.1762 17.3332C24.3912 17.2496 24.5252 17.1683 24.8264 17.1016C24.9054 17.1 24.9008 16.8845 24.7758 16.8769C24.6127 16.8852 24.4622 16.8937 24.2991 17.0244C24.1988 17.048 24.1816 16.9858 24.1594 16.9301C24.1339 16.7916 24.2167 16.6941 24.1998 16.5903C24.2043 16.5949 24.1491 16.5444 24.0785 16.5405ZM30.9861 16.8031C30.9462 16.8043 30.904 16.81 30.843 16.8151C30.777 16.8294 30.7539 16.8588 30.7419 16.9403C30.7467 17.064 30.8209 17.0578 30.8969 17.1067C30.9409 17.1638 30.9695 17.2154 30.8935 17.3092C30.8215 17.3764 30.7702 17.4135 30.6981 17.4808C30.6642 17.5398 30.6429 17.6306 30.747 17.6592C30.9391 17.7142 31.3836 17.42 31.3836 17.4138C31.4557 17.3588 31.4318 17.2543 31.4257 17.2543C31.3838 17.2054 31.2889 17.2348 31.2253 17.2268C31.195 17.2268 31.0954 17.2118 31.1428 17.1222C31.1823 17.0664 31.1968 17.033 31.2236 16.9644C31.2536 16.8971 31.2272 16.8518 31.1192 16.815C31.0642 16.8049 31.0261 16.8018 30.9861 16.8031ZM28.1004 22.7543C28.1 22.7545 28.0992 22.7557 28.0987 22.756C27.7792 22.8395 27.7892 23.1774 27.9943 23.3256C24.6206 23.3256 19.4433 23.2673 18.333 23.2673C17.7118 23.2673 15.7466 23.1918 15.7088 23.1918C16.1303 23.8197 16.7408 23.9476 17.5397 23.9604C19.0381 23.9604 25.9813 23.9415 27.9572 23.9415C27.8167 24.1956 27.9699 24.6044 28.0801 24.6793C28.0825 24.6808 28.0862 24.6832 28.0886 24.6844C28.0927 24.6865 28.0981 24.6886 28.102 24.6896C28.1033 24.6899 28.1058 24.6894 28.107 24.6896C28.2379 24.721 28.2955 24.6245 28.3395 24.5541C28.5517 24.5731 29.7461 24.5907 29.8554 24.5523C29.8558 24.5521 29.8567 24.5508 29.8571 24.5507C29.931 24.6614 30.0044 24.7662 30.1451 24.7479C30.3914 24.6941 30.5853 24.6668 30.5914 24.1577C30.5914 24.1577 30.5663 23.2902 30.007 23.3445C29.8746 23.3649 29.5033 23.4029 29.5033 23.4029C29.0737 23.3508 28.7585 23.3455 28.2755 23.3274C28.3201 23.2698 28.3988 23.0362 28.3025 22.9517C28.2773 22.9304 28.2399 22.9185 28.1879 22.9225H28.1863C28.1855 22.9225 28.1836 22.9226 28.1829 22.9225C28.1825 22.9224 28.1815 22.9209 28.1812 22.9208C28.1798 22.9203 28.1774 22.9199 28.1761 22.9191C28.173 22.9166 28.1702 22.9137 28.1677 22.9105C28.1671 22.9097 28.1649 22.9079 28.1643 22.907C28.1399 22.8708 28.1266 22.782 28.1104 22.7595L28.1088 22.7578L28.1071 22.7561C28.106 22.7554 28.1049 22.7549 28.1037 22.7544H28.102C28.1018 22.7544 28.1005 22.7543 28.1004 22.7544L28.1004 22.7543ZM28.3295 23.9947C28.33 23.9945 28.3306 23.995 28.3312 23.9947C28.8234 24.0192 29.2858 23.9995 29.778 24.0239C29.8561 24.0914 29.817 24.2462 29.7662 24.2744C29.7635 24.2758 29.7607 24.2769 29.7578 24.2778C29.756 24.2782 29.7529 24.2778 29.7511 24.2778C29.7492 24.2778 29.7462 24.2782 29.7443 24.2778C29.5842 24.2737 29.4917 24.2699 29.3317 24.2658C29.3316 24.2577 29.3304 24.2496 29.3283 24.2418C29.2904 24.1273 29.0157 24.1349 28.951 24.2247L28.9476 24.2298C28.9466 24.2316 28.9452 24.2348 28.9443 24.2366C28.9432 24.239 28.9417 24.2428 28.9409 24.2452C28.9399 24.2486 28.9397 24.2536 28.9392 24.2572C28.9388 24.2613 28.9372 24.2666 28.9376 24.2709C28.7215 24.2974 28.527 24.2636 28.311 24.2556C28.2476 24.1751 28.2549 24.0297 28.3295 23.9948V23.9947Z" fill="white"/>
</g>
</g>
<g style="mix-blend-mode:hard-light" opacity="0.12">
<rect y="0.3125" width="46" height="34.5" fill="white"/>
</g>
<rect width="46" height="34.5" transform="translate(0 0.3125)" fill="url(#paint0_linear_219_4162)" fill-opacity="0.64" style="mix-blend-mode:overlay"/>
</g>
<defs>
<linearGradient id="paint0_linear_219_4162" x1="46" y1="1.71455e-06" x2="2.31409e-06" y2="34.5" gradientUnits="userSpaceOnUse">
<stop stop-color="white" stop-opacity="0.3"/>
<stop offset="0.262741" stop-opacity="0.27"/>
<stop offset="0.369956" stop-color="white" stop-opacity="0.26"/>
<stop offset="0.487001" stop-opacity="0.55"/>
<stop offset="0.594445" stop-opacity="0.24"/>
<stop offset="0.736408" stop-color="white" stop-opacity="0.3"/>
<stop offset="0.901459" stop-color="#272727" stop-opacity="0.22"/>
<stop offset="1" stop-opacity="0.2"/>
</linearGradient>
<clipPath id="clip0_219_4162">
<rect width="46" height="34.5" fill="white" transform="translate(0 0.3125)"/>
</clipPath>
<clipPath id="clip1_219_4162">
<rect width="46" height="34.5" fill="white" transform="translate(0 0.3125)"/>
</clipPath>
</defs>
</svg>
