<svg xmlns="http://www.w3.org/2000/svg" id="Layer_1" viewBox="0 0 184 100"><defs><style>.cls-1{fill:#56575a;stroke-width:0px;}</style></defs><path class="cls-1" d="M61.13,64.83c-.33-.16-.84-.24-1.53-.24-.52,0-1.04.06-1.55.16-.55.11-.96.26-1.22.46v-3.98c0-.27-.11-.41-.33-.41h-.75c-.22,0-.33.14-.33.41v11.07c0,.24.11.36.33.36h.74c.23,0,.35-.12.35-.36h0v-5.4c0-.17.02-.33.08-.49.08-.11.19-.19.31-.23.62-.23,1.28-.34,1.94-.33.42,0,.72.04.91.13.18.08.33.24.39.43.06.19.09.51.09.97v4.92c0,.24.11.36.33.36h.75c.22,0,.33-.12.33-.36v-5.2c0-.74-.05-1.26-.16-1.54-.12-.32-.36-.58-.68-.72Z"></path><path class="cls-1" d="M42.48,71.56s0,0,0,0c-.45-.06-.75-.2-.9-.41-.12-.17-.17-.48-.17-.93h0v-8.99c0-.24-.1-.36-.31-.36h-.75c-.23,0-.35.12-.35.36v9.16c0,.68.09,1.17.27,1.46.34.55,1.01.83,2.03.83.22,0,.35-.08.39-.24.05-.19.07-.39.06-.58.01-.16-.1-.3-.26-.31Z"></path><path class="cls-1" d="M34.66,64.56c-.88,0-1.76.13-2.61.38-.19.05-.28.16-.28.33,0,.21.04.42.11.63.03.12.14.21.27.22.04,0,.24-.04.58-.11.56-.12,1.14-.18,1.71-.19.9,0,1.42.2,1.57.6.07.18.11.5.11.97v.65c-.54-.05-1.09-.07-1.63-.06-1.13,0-1.95.15-2.45.46-.6.37-.9,1-.9,1.89,0,.77.2,1.39.61,1.84.4.45,1.14.68,2.21.68,1.29,0,2.27-.16,2.95-.49.18-.08.34-.2.45-.36.11-.15.16-.37.16-.66h0s0-4.11,0-4.11c0-1.03-.17-1.71-.52-2.06-.38-.39-1.16-.58-2.34-.58ZM36.05,71.18c-.06.12-.17.22-.3.27-.39.16-.92.24-1.61.24-.63,0-1.06-.12-1.29-.35s-.35-.58-.35-1.05c0-.45.13-.75.38-.91.29-.2.88-.3,1.76-.3.52,0,1.01.02,1.47.06v1.5c0,.18-.01.36-.06.54Z"></path><path class="cls-1" d="M44.95,61.34c-.57,0-.85.3-.86.91,0,.59.28.88.85.88.56,0,.85-.3.85-.9h0c0-.6-.28-.89-.85-.89Z"></path><path class="cls-1" d="M45.67,65.11c0-.24-.11-.36-.33-.36h-.75c-.22,0-.33.13-.33.38v7.16c0,.24.11.36.33.36h.74c.23,0,.35-.12.35-.36h0v-7.18Z"></path><path class="cls-1" d="M27.52,66.81c.57-.19.99-.48,1.26-.89s.4-.95.39-1.64c0-.82-.2-1.44-.6-1.88-.4-.43-1.02-.69-1.87-.78-.54-.06-1.09-.1-1.64-.1h-1.75c-.52,0-.9.13-1.12.39-.22.26-.34.65-.34,1.16v8.03c0,.55.12.93.35,1.16s.61.35,1.14.35h1.67c1.35,0,2.32-.11,2.9-.34,1.07-.43,1.6-1.39,1.6-2.88,0-1.41-.66-2.28-1.99-2.59ZM23.31,63.36c0-.39.17-.58.5-.58h1.4c.69,0,1.16.04,1.41.13.31.1.58.28.79.53.18.23.27.59.28,1.09,0,.79-.28,1.32-.85,1.57-.23.11-.73.17-1.51.17h-2.03v-2.91ZM27.06,71.15c-.34.14-.92.2-1.76.2h-1.38c-.41,0-.61-.21-.61-.63v-3.24s2.07,0,2.07,0c.79,0,1.33.07,1.65.2.66.28.99.82.99,1.6,0,.97-.32,1.59-.96,1.85Z"></path><path class="cls-1" d="M53.28,71.35c-.14.02-.28.04-.42.08-.53.12-1.07.18-1.62.17-.81,0-1.35-.24-1.64-.71-.29-.48-.43-1.21-.43-2.21h0c0-.95.15-1.67.44-2.15.29-.48.89-.72,1.79-.72.43,0,.85.04,1.27.13.14.04.29.06.44.06.13,0,.24-.08.27-.2.07-.23.12-.47.14-.71,0-.16-.11-.3-.27-.31-.6-.15-1.22-.22-1.84-.2-1.33,0-2.28.34-2.84,1.01-.56.68-.84,1.76-.84,3.25s.28,2.5.84,3.1c.56.6,1.41.9,2.54.9.9,0,1.66-.11,2.28-.33.16-.04.26-.18.25-.35-.03-.21-.08-.41-.14-.61-.01-.11-.11-.19-.22-.19Z"></path><path class="cls-1" d="M139.91,64.75h-.74c-.23,0-.35.12-.35.36v5.58c0,.24-.03.4-.09.49-.08.09-.18.16-.3.2-.41.14-.99.2-1.74.2-.82,0-1.3-.19-1.46-.58-.08-.18-.13-.55-.13-1.13v-4.76c0-.24-.11-.36-.33-.36h-.75c-.22,0-.33.12-.33.36v4.95c0,.8.07,1.37.2,1.73.26.69,1.1,1.04,2.53,1.04s2.56-.17,3.3-.5c.35-.16.52-.48.52-.96v-6.25c0-.24-.11-.36-.33-.36Z"></path><path class="cls-1" d="M148.79,60.87h-.71c-.24,0-.36.12-.36.36v3.58c-.38-.17-.93-.25-1.66-.25-1.32,0-2.27.31-2.87.93-.59.62-.89,1.74-.89,3.38,0,1.47.26,2.49.79,3.08.52.59,1.37.88,2.55.88,1.24,0,2.2-.16,2.9-.49.22-.08.4-.25.5-.45.06-.18.09-.37.08-.57h0v-10.09c0-.1-.02-.2-.07-.28-.07-.06-.17-.09-.26-.08ZM147.72,70.64c0,.16-.02.32-.06.47-.06.12-.16.22-.28.27-.4.16-.96.24-1.68.24s-1.26-.22-1.54-.65c-.28-.44-.42-1.15-.42-2.14,0-1.13.16-1.92.49-2.36.32-.44.97-.66,1.92-.66.6,0,1.04.06,1.32.19.18.07.27.25.27.54v4.11Z"></path><path class="cls-1" d="M132.06,71.54c-.89-.04-1.44-.23-1.65-.55-.18-.26-.27-.72-.27-1.37v-3.61h1.66c.24,0,.36-.12.36-.35v-.55c0-.22-.13-.33-.38-.33h-1.65v-1.74c0-.26-.1-.39-.3-.39h-.72c-.19,0-.29.13-.32.39-.03.82-.05,1.4-.05,1.74h-.96c-.23,0-.35.12-.35.35v.55c0,.22.11.33.31.33h.96v3.55c0,1.18.17,1.98.52,2.39.26.31.6.53.99.63.41.12.98.17,1.71.17.22,0,.35-.09.38-.28.02-.23.03-.43.03-.6,0-.21-.1-.32-.3-.33Z"></path><path class="cls-1" d="M123.71,66.57h-.01s-1.38-.39-1.38-.39c-.72-.21-1.2-.45-1.43-.72-.24-.3-.36-.67-.35-1.05,0-.57.16-1.02.48-1.33.32-.31.91-.46,1.78-.46.73,0,1.47.08,2.18.24.14.04.29.06.44.08.16,0,.26-.09.31-.27.07-.21.11-.43.13-.65,0-.18-.1-.3-.31-.38-.69-.21-1.57-.31-2.64-.31-1.36,0-2.35.27-2.95.82-.61.55-.91,1.35-.92,2.4,0,1.55.78,2.54,2.33,2.97l1.48.41c.81.22,1.33.46,1.57.73s.36.62.36,1.06c0,.21-.02.43-.08.64-.06.21-.17.4-.31.57-.15.19-.4.35-.75.45-.42.12-.85.18-1.29.17-.84,0-1.68-.13-2.48-.41-.15-.06-.31-.1-.47-.13-.19,0-.31.11-.38.31-.08.21-.13.42-.16.65,0,.19.11.32.33.39.88.31,1.93.47,3.14.47,1.41,0,2.42-.28,3.03-.84.61-.56.91-1.38.92-2.45,0-.87-.19-1.51-.56-1.92-.37-.41-1.04-.76-2.02-1.04Z"></path><path class="cls-1" d="M153.05,65.11c0-.24-.11-.36-.33-.36h-.75c-.22,0-.33.13-.33.38v7.16c0,.24.11.36.33.36h.74c.23,0,.35-.12.35-.36h0v-7.18Z"></path><path class="cls-1" d="M161.95,66.5c-.13-.55-.35-.96-.66-1.24-.3-.28-.66-.47-1.05-.57-.51-.11-1.03-.15-1.55-.14-.49,0-.98.05-1.45.17-.41.12-.79.33-1.12.61-.34.29-.6.71-.76,1.26-.18.68-.27,1.37-.25,2.07,0,1.1.13,1.95.38,2.56.26.61.63,1.02,1.11,1.25.48.22,1.14.34,1.98.34,1.29,0,2.21-.3,2.75-.9s.82-1.7.82-3.3c.02-.71-.05-1.42-.2-2.12ZM160.61,70.24c-.05.33-.2.63-.42.88-.18.19-.4.32-.65.39-.31.07-.62.1-.93.09-.52,0-.93-.07-1.2-.22-.28-.14-.49-.43-.65-.86-.15-.43-.23-1.06-.23-1.89,0-1.11.17-1.86.5-2.26.34-.4.87-.59,1.61-.59.81,0,1.35.19,1.64.56s.43,1.15.43,2.35h0c.01.52-.03,1.03-.13,1.54Z"></path><path class="cls-1" d="M77.37,61.53c-.3-.04-.61-.06-.91-.05-.2,0-.33.14-.39.42-1.2,5.12-1.9,8.18-2.07,9.17-.28-1.17-1.06-4-2.34-8.49-.04-.21-.14-.4-.28-.55-.12-.11-.3-.16-.55-.16h-.33c-.2-.02-.39.05-.54.17-.14.16-.23.35-.28.55-1.37,4.67-2.17,7.5-2.4,8.48-.21-1.12-.91-4.2-2.09-9.24-.05-.24-.18-.36-.38-.36-.31,0-.62,0-.93.05-.14.01-.25.14-.24.28,0,.16.02.32.06.47l2.31,9.63c.13.5.43.75.91.75h.38c.28,0,.49-.06.64-.17.17-.16.29-.37.34-.6,1.08-3.74,1.86-6.51,2.34-8.31h0c.28,1.09,1.05,3.85,2.29,8.29.05.23.16.43.32.6.14.13.36.19.65.19h.35c.49,0,.8-.26.93-.78l2.34-9.6c.04-.16.07-.32.08-.49,0-.16-.07-.25-.2-.27Z"></path><path class="cls-1" d="M152.33,61.33c-.56,0-.85.3-.85.91,0,.59.28.88.85.88.57,0,.85-.3.85-.9,0-.6-.28-.9-.85-.9Z"></path><path class="cls-1" d="M93.21,64.83c-.33-.16-.84-.23-1.53-.23-.65,0-1.3.06-1.94.17-.59.08-1.17.25-1.72.49-.35.16-.52.47-.52.93v6.11c0,.24.11.36.33.36h.74c.23,0,.35-.12.35-.36h0v-5.48c-.01-.15.02-.31.09-.44.08-.1.18-.17.3-.22.49-.21,1.14-.31,1.94-.31.42,0,.73.04.92.13.19.08.33.23.39.42.08.32.11.66.09.99v4.92c0,.24.11.36.33.36h.75c.22,0,.33-.12.33-.36v-5.2c0-.74-.05-1.26-.16-1.54-.12-.32-.37-.58-.68-.72Z"></path><path class="cls-1" d="M85.24,66.5c-.13-.55-.35-.96-.66-1.24-.3-.28-.66-.47-1.05-.57-.51-.11-1.03-.15-1.55-.14-.49,0-.98.05-1.45.17-.41.12-.79.34-1.11.62-.34.29-.59.71-.76,1.26-.18.67-.27,1.37-.25,2.07,0,1.1.13,1.95.38,2.56.26.61.63,1.02,1.11,1.25.48.22,1.14.34,1.98.34,1.29,0,2.21-.3,2.75-.9.54-.6.81-1.7.82-3.3h0c.02-.72-.05-1.44-.2-2.13ZM83.91,70.24c-.05.33-.2.63-.42.88-.17.19-.4.32-.65.39-.31.07-.62.1-.94.09-.52,0-.92-.07-1.2-.22-.28-.14-.49-.43-.65-.86-.15-.43-.23-1.06-.23-1.89,0-1.11.17-1.86.5-2.26s.87-.59,1.62-.59c.81,0,1.35.19,1.64.56.29.37.43,1.15.43,2.35h0c.01.52-.03,1.03-.12,1.54Z"></path><path class="cls-1" d="M111.34,66.14c-.09-.32-.26-.62-.49-.86-.25-.23-.56-.41-.89-.51-.45-.14-.91-.21-1.38-.2-1.22,0-2.12.33-2.72.98-.59.66-.89,1.71-.9,3.17,0,1.45.28,2.49.83,3.13.55.64,1.5.97,2.83.97,1.06,0,1.91-.14,2.56-.41.17-.07.25-.18.25-.31-.02-.21-.07-.42-.16-.61-.04-.12-.15-.19-.27-.19-.14.02-.27.04-.41.08-.6.16-1.21.23-1.83.22-.81,0-1.4-.17-1.78-.51-.38-.34-.58-1-.59-1.97h0s4.74.01,4.74.01c.12,0,.23-.03.33-.09.08-.07.13-.23.13-.49,0-.53-.02-.98-.05-1.33-.03-.37-.11-.73-.22-1.08ZM110.24,68h-3.82c.02-.73.19-1.29.5-1.67s.84-.57,1.57-.56c.68,0,1.14.15,1.39.45.25.3.37.77.37,1.41,0,.12,0,.24-.02.36Z"></path><path class="cls-1" d="M102.6,60.87h-.7c-.24,0-.36.12-.36.36v3.58c-.38-.17-.93-.25-1.67-.25-1.32,0-2.27.31-2.87.93-.59.62-.89,1.74-.89,3.38,0,1.47.26,2.49.79,3.08.52.59,1.37.88,2.54.88,1.24,0,2.2-.16,2.9-.49.22-.08.4-.25.5-.45.06-.18.09-.37.08-.57h0v-10.09c.01-.1-.01-.2-.07-.28-.07-.06-.17-.09-.26-.08ZM101.46,71.11c-.06.12-.16.22-.28.27-.4.16-.96.24-1.68.24s-1.26-.22-1.54-.65-.43-1.15-.43-2.14c0-1.13.16-1.92.49-2.36s.96-.66,1.92-.66c.6,0,1.04.06,1.32.19.18.07.27.25.27.54v4.11c0,.16-.01.32-.06.47Z"></path><path class="cls-1" d="M117.69,64.66c-.26-.05-.53-.07-.8-.06-.57,0-1.14.08-1.7.23-.59.16-.99.33-1.21.52-.13.1-.23.23-.31.37-.07.18-.1.37-.09.56v6.02c0,.24.11.36.33.36h.74c.23,0,.35-.12.35-.36h0v-5.44c-.01-.15,0-.31.06-.46.07-.1.16-.18.27-.23.32-.2.81-.3,1.46-.3.06,0,.19,0,.39.02.2.01.32.02.36.02.14.02.27-.08.3-.22.05-.24.07-.49.06-.74.01-.14-.08-.26-.22-.28Z"></path><path class="cls-1" d="M70.89,50.6c0,.67.54,1.22,1.22,1.22.15,0,.3-.03.44-.07l11.74-4.51s3.76,3.77,3.76,3.77v5.43c0,.43.23.83.6,1.05.2.11.41.18.63.18s.41-.06.59-.15l15.43-8.45c.39-.22.64-.63.64-1.08v-8.19c0-.29,0-.57-.03-.84l1.45-.56v3.08c0,.68.55,1.22,1.22,1.22.22,0,.45-.06.64-.18l21.49-13.07c.54-.34.74-1.02.46-1.59-.27-.57-.94-.83-1.53-.61l-15.16,5.82v-3.19c0-.67-.54-1.22-1.22-1.22-.11,0-.22.02-.34.05l-11.45,3.28-1.76-1.76c-.82-.79-1.92-1.22-3.05-1.22-.43,0-.86.04-1.27.16l-9.77,2.15c-.71.15-2.07.91-2.07,2.68v.06c-.18.04-.36.09-.53.16-.99.39-1.56,1.21-1.56,2.21v1.29l-1.64.47v-4.77c0-.68-.55-1.22-1.22-1.22-.24,0-.48.07-.67.2l-25.3,16.66c-.57.36-.72,1.13-.36,1.69.3.46.87.66,1.39.5l17.23-5.4v4.77ZM84.77,34c0-1.25,1.09-1.49,1.09-1.49l1.36-.3.25.07,5.89,5.9c.17.15.43.14.59-.02.15-.16.15-.4,0-.56l-5.53-5.53.04-.14,2.46-.53.25.07,5.59,5.59c.17.16.43.15.59-.02.14-.16.15-.4,0-.56l-5.23-5.23.04-.14,2.3-.5.25.07,5.3,5.3c.07.08.19.13.29.13.23,0,.42-.2.41-.42,0-.11-.04-.22-.11-.29l-4.94-4.94.04-.14s.22-.1.93-.1c.81,0,1.61.31,2.2.88l4.71,4.7c.54.6,1.14,1.47,1.14,3.98v8.19l-15.43,8.45v-5.94l-4.07-4.07,2.69-1.06c.29-.12.47-.48.47-.79v-7.45c0-.98-.99-.65-.99-.65l-2.61.72v-3.21ZM82.69,36.42c0-.51.25-.86.79-1.08.18-.07.36-.12.54-.15v2.22l-1.33.36v-1.36Z"></path></svg>