<svg xmlns="http://www.w3.org/2000/svg" id="Layer_1" viewBox="0 0 184 100"><defs><style>.cls-1{fill:#56575a;stroke-width:0px;}</style></defs><path class="cls-1" d="M31.31,52.91c.17,3.1,0,6.26.06,9.36,3.6.06,7.2-.11,10.8.11-.5-.33-1.16-.39-1.72-.55-3.71-1.11-7.14-3.71-8.58-7.42-.17-.5-.22-1.11-.55-1.49M51.35,37.74c.89.5,1.94.61,2.88,1.11.11,1.72,0,3.43,0,5.15-2.27-.89-4.71-1.55-7.14-1.66-2.71-.11-5.59.78-7.47,2.82-2.21,2.44-2.33,6.37-.5,9.08,1.55,2.44,4.54,3.76,7.42,3.54,2.66-.28,5.26-1,7.7-1.99,0,1.72.06,3.43.06,5.2-1.11.61-2.38.83-3.49,1.33,1.72-.17,3.43-.06,5.09-.06.06-8.14.06-16.33,0-24.47-1.49,0-3.05.11-4.54-.06M31.42,37.85c-.11,3.1.11,6.26-.11,9.36.33-.66.44-1.38.78-1.99,1.61-3.54,5.04-5.92,8.69-6.98.39-.17.83-.11,1.16-.39-3.54.06-7.03-.06-10.52,0M29.76,36.19h27.74l.06.11c-.06,8.14,0,16.22-.06,24.36h0c.06,1.05,0,2.05.06,3.1l-.17.06h-27.68c.06-9.14.06-18.38.06-27.63"></path><path class="cls-1" d="M149.35,39.29h3.76v11.29h-3.82c.06-3.71.06-7.47.06-11.29M136.39,39.29h11.41v2.44h-3.88l-.11.17c.06,2.88,0,5.7,0,8.58h-3.49c0-2.88-.06-5.76,0-8.58-1.27-.28-2.66,0-3.99-.11.06-.83.06-1.66.06-2.49M123.55,39.29h11.41c-.06.83.11,1.66-.06,2.44-1.33,0-2.6-.06-3.93.06.06,2.77,0,5.54,0,8.3-.06.11-.11.33-.11.44-1.11-.06-2.21-.06-3.27,0-.28-2.88,0-5.87-.11-8.75h-3.93c-.06-.83-.06-1.66,0-2.49M113.19,39.45l.11-.17h8.14c.28.78,0,1.72.11,2.55-1.44.06-2.88,0-4.26.06,0,.61-.06,1.22,0,1.83h3.88v2.38c-1.27.11-2.66-.11-3.88.11.06.61,0,1.22,0,1.83h4.37v2.55c-2.82,0-5.7.11-8.53-.06.11-3.65.06-7.36.06-11.07M86.56,39.29c1.44,0,2.88-.06,4.26.06,1.27,1.94,2.6,3.88,3.88,5.81.11.39.61.22.78,0-.17-1.94-.11-3.88-.11-5.81h3.88l.11.17c-.06,3.71.06,7.42-.06,11.13h-4.15c-1.44-1.94-2.71-3.99-4.1-6.03-.17.06-.44.11-.61.17.11,1.94.11,3.88.11,5.81-1.33.06-2.66,0-4.04,0,.06-3.71.06-7.53.06-11.29M103.89,40.17c2.44-1.33,5.37-1.44,7.97-.66.11,1.16,0,2.38.06,3.6-1.55-.94-3.71-1.22-5.26-.06-1.27,1-1.22,3.21.17,4.1,1.55,1,3.54.55,5.09-.28,0,1.22-.06,2.44-.17,3.65-2.88.83-6.2.66-8.64-1.16-1.44-1-2.38-2.66-2.33-4.43.06-2.05,1.38-3.82,3.1-4.76M76.6,42.66c-1.33.78-1.61,2.77-.72,3.99.72,1,2.27,1.22,3.32.61,1.61-.94,1.61-3.65,0-4.6-.78-.39-1.83-.39-2.6,0M76.04,39.23c2.44-.61,5.26,0,6.98,1.94,1.88,1.99,1.94,5.37.11,7.47-2.55,3.05-7.92,3.1-10.52.06-1.49-1.72-1.72-4.32-.72-6.37.89-1.55,2.44-2.66,4.15-3.1M61.32,41.5c2.21-2.55,6.03-2.99,9.08-2.05l.17.17v3.38c-1.44-.83-3.43-1.16-4.87-.11-1.38,1-1.27,3.32.17,4.21,1.49.94,3.38.39,4.82-.28-.11,1.16-.11,2.33-.17,3.49-.22.33-.72.22-1.05.39-2.82.61-6.15,0-8.14-2.27-1.72-1.83-1.72-4.98,0-6.92"></path><path class="cls-1" d="M150.34,55.56c0,.5-.06,1,.06,1.55.55-.06,1.11.06,1.61-.17.55-.22.5-1.16-.06-1.27-.55-.17-1.05-.11-1.61-.11M148.46,54.35h3.54c.89,0,1.83.44,2.16,1.27.39.94-.11,2.05-1.05,2.44-.89.39-1.83.22-2.77.28-.06.89,0,1.77-.06,2.71h-1.88c.06-2.27.06-4.48.06-6.7M139.27,54.35h1.88c.06,1.33,0,2.71,0,4.04.28,1.83,3.54,1.77,3.71-.11v-3.99h1.88c0,1.44.06,2.93-.06,4.37-.17,1.27-1.33,2.16-2.55,2.27-1.33.17-2.82.17-3.93-.66-.72-.5-1.05-1.38-1-2.21.06-1.22.06-2.49.06-3.71M132.52,55.9c-1.33.55-1.49,2.55-.33,3.32,1.38,1.05,4.15.33,3.93-1.72-.06-1.72-2.27-2.27-3.6-1.61M131.91,54.51c1.33-.44,2.88-.39,4.15.22,1.16.55,2.1,1.77,1.99,3.1-.06,1.55-1.44,2.71-2.88,3.1-2.05.55-4.82-.11-5.65-2.27-.61-1.77.72-3.65,2.38-4.15M124.43,55.56c0,.5-.06,1,.06,1.49.5-.06,1.05.11,1.55-.11.55-.22.5-1.11-.06-1.27-.5-.22-1.05-.11-1.55-.11M122.5,54.35c1.72.17,3.6-.44,5.15.5,1.11.72.83,2.55-.39,2.99.83.89,1.38,2.05,1.88,3.16-.72-.06-1.44.06-2.1-.06-.61-1.05-1-2.88-2.55-2.66-.11.89,0,1.83-.06,2.71h-1.88c-.06-2.21-.06-4.43-.06-6.64M113.25,57.56c0-1.55,1.33-2.71,2.71-3.05,1.55-.44,3.27-.28,4.82.28.06.5,0,1,0,1.49-1.44-.55-3.16-.94-4.6-.22-1.05.5-1.38,2.1-.5,2.93s2.21.89,3.32.5c0-.17.06-.55.06-.72-.39-.06-.72-.06-1.11-.06v-1.22h2.99v2.66c-1.16,1-2.93,1-4.37.89h-58.3c-.17-.06-.5-.22-.66-.33h0c.28-.11.78-.28,1.05-.39,18.77,0,37.48-.06,56.25,0-1-.55-1.72-1.61-1.66-2.77M40.17,46.04c1.83-2.33,5.04-3.32,7.86-2.66,0,1.44-.06,2.88.06,4.32-1.44-.83-3.49-.5-4.48.89-1.16,1.49-.44,3.93,1.27,4.6v-1.83h-.78v-2.49h3.82l.11.17v7.58c-3.43.94-7.47-.83-8.86-4.15-.83-2.16-.44-4.71,1-6.42"></path></svg>