<svg width="32" height="32" viewBox="0 0 32 32" fill="none" xmlns="http://www.w3.org/2000/svg">
<rect x="2" y="2" width="28" height="28" rx="14" fill="#C4F8D9"/>
<rect x="2" y="2" width="28" height="28" rx="14" stroke="#EBFCF4" stroke-width="4"/>
<path d="M13.7465 18.0704L20.5915 11.2254C20.7418 11.0751 20.939 11 21.1831 11C21.4272 11 21.6244 11.0751 21.7746 11.2254C21.9249 11.3756 22 11.5728 22 11.8169C22 12.061 21.9249 12.2582 21.7746 12.4085L14.4507 19.7042C14.2441 19.9108 14.0094 20.0141 13.7465 20.0141C13.4836 20.0141 13.2488 19.9108 13.0423 19.7042L10.2254 16.9155C10.0751 16.7653 10 16.5681 10 16.3239C10 16.0798 10.0751 15.8826 10.2254 15.7324C10.3756 15.5822 10.5728 15.507 10.8169 15.507C11.061 15.507 11.2582 15.5822 11.4085 15.7324L13.7465 18.0704Z" fill="#156F49"/>
</svg>
