<svg width="24" height="24" viewBox="0 0 24 24" fill="none" xmlns="http://www.w3.org/2000/svg">
<g clip-path="url(#clip0_6144_24330)">
<g clip-path="url(#clip1_6144_24330)">
<mask id="mask0_6144_24330" style="mask-type:luminance" maskUnits="userSpaceOnUse" x="-4" y="0" width="32" height="24">
<rect x="-4" width="32" height="24" fill="white"/>
</mask>
<g mask="url(#mask0_6144_24330)">
<path fill-rule="evenodd" clip-rule="evenodd" d="M18 0H28V24H18V0Z" fill="#58A5FF"/>
<path fill-rule="evenodd" clip-rule="evenodd" d="M-4 0H8V24H-4V0Z" fill="#58A5FF"/>
<path fill-rule="evenodd" clip-rule="evenodd" d="M6 0H18V24H6V0Z" fill="white"/>
<path fill-rule="evenodd" clip-rule="evenodd" d="M8.87695 14.8341L9.26422 15.3411L11.023 12.957V12.5349L8.87695 14.8341Z" fill="#6C301F"/>
<path d="M10.0911 12.1747L10.2196 11.9976C11.8851 13.2498 13.0651 14.2112 13.7249 15.0123L13.3129 15.3516C12.6858 14.5902 11.7256 13.4037 10.0911 12.1747Z" fill="#979797"/>
<path d="M12.7758 11.128L12.5842 10.9422L13.6344 9.85907L13.8644 10.0826L14.9547 9.06738L15.1365 9.26269L13.8605 10.4509L13.64 10.2366L12.7758 11.128Z" fill="#979797"/>
<path fill-rule="evenodd" clip-rule="evenodd" d="M9.42414 9.43554C9.36809 9.19184 9.30487 8.89087 9.30487 8.89087C9.16425 9.21164 9.11997 9.50348 9.17643 9.76444C9.11664 9.84669 9.06252 9.92374 9.01404 9.99562C8.86283 9.79587 8.67416 9.4223 8.67416 9.4223C8.68071 9.53107 8.67773 9.64204 8.67484 9.7498V9.7498V9.7498V9.7498V9.7498V9.7498V9.7498V9.7498V9.7498V9.7498V9.7498V9.7498V9.7498V9.7498V9.7498V9.7498V9.7498V9.74981C8.66803 10.003 8.66171 10.2385 8.7806 10.3859L8.77919 10.3888C8.75546 10.4377 8.73299 10.4864 8.71176 10.5351C8.54789 10.3717 8.27595 10.077 8.27595 10.077C8.29722 10.4303 8.39499 10.7088 8.57267 10.9074C8.5405 11.011 8.51397 11.114 8.49295 11.2163C8.35555 11.0742 8.22304 10.9338 8.22304 10.9338C8.24245 11.2561 8.29639 11.4691 8.43648 11.6481C8.43365 11.699 8.43221 11.7497 8.43213 11.8002C8.28697 11.6505 8.1394 11.4941 8.1394 11.4941C8.15988 11.8343 8.29252 12.0581 8.46722 12.2445C8.48455 12.3522 8.50824 12.4588 8.53814 12.5641L8.55411 12.6197C8.35656 12.5242 8.14065 12.4158 8.14065 12.4158C8.26956 12.713 8.45777 12.8768 8.67185 12.9914C8.71762 13.1246 8.76593 13.2533 8.81655 13.3773C8.58476 13.3143 8.2387 13.2108 8.2387 13.2108C8.44394 13.5215 8.69573 13.645 8.96626 13.716C9.02152 13.8315 9.07893 13.9419 9.13828 14.0467C8.91868 13.985 8.66094 13.9079 8.66094 13.9079C8.86028 14.2097 9.10352 14.3349 9.3652 14.4069C9.53781 14.6523 9.72265 14.8539 9.91545 15.0048C9.70297 15.1013 9.43541 15.2168 9.43541 15.2168C9.73756 15.3066 9.97901 15.2722 10.1994 15.1871L10.2253 15.1998C10.3205 15.2454 10.427 15.2884 10.5472 15.3303C10.3729 15.4078 10.207 15.4794 10.207 15.4794C10.5021 15.5672 10.7394 15.5364 10.9557 15.4555L10.979 15.4619C11.0851 15.4908 11.1931 15.5185 11.3353 15.5538C11.2413 15.5305 11.5885 15.6161 11.659 15.634C11.8848 15.6915 12.0134 15.7318 12.0751 15.7666C12.0809 15.7699 12.0851 15.7725 12.0877 15.7742C12.0905 15.7759 12.0916 15.7766 12.091 15.7758L12.2637 15.6504C12.2437 15.6228 12.2159 15.6009 12.1799 15.5806C12.0952 15.5329 11.9578 15.4898 11.7117 15.4272C11.6417 15.4093 11.3053 15.3264 11.3815 15.3452C11.2433 15.311 11.1381 15.284 11.0351 15.256C11.0045 15.2476 10.9745 15.2393 10.9452 15.231C10.9698 15.0039 10.9412 14.7687 10.7864 14.5065C10.7864 14.5065 10.7191 14.916 10.6733 15.1477C10.5368 15.1021 10.4192 15.0559 10.3176 15.0073C10.2833 14.9908 10.249 14.9725 10.2149 14.9523C10.2013 14.7207 10.1332 14.4903 9.93206 14.2552C9.93206 14.2552 9.93506 14.5155 9.93392 14.7411C9.79361 14.6129 9.65728 14.4536 9.52741 14.2665L9.61849 14.3147C9.6285 14.0259 9.58399 13.7412 9.33412 13.4492C9.33412 13.4492 9.33737 13.7308 9.33583 13.9621C9.25469 13.8204 9.17692 13.6673 9.10324 13.5039C9.17167 13.2793 9.1882 13.0373 9.07825 12.744C9.07825 12.744 9.01288 12.9303 8.94433 13.1181C8.92425 13.0647 8.90458 13.0105 8.88534 12.9553C9.02532 12.7204 9.11515 12.4602 9.04841 12.102C9.04841 12.102 8.8893 12.3851 8.76798 12.5903C8.75971 12.5623 8.75156 12.5341 8.74351 12.5058C8.718 12.4159 8.69737 12.325 8.68174 12.2332C8.88122 12.0642 9.0425 11.8536 9.09972 11.5096C9.09972 11.5096 8.83294 11.7388 8.64705 11.8907C8.64449 11.8143 8.64532 11.7373 8.64962 11.6598C8.86445 11.5294 9.04942 11.3514 9.16106 11.0352C9.16106 11.0352 8.89794 11.1912 8.69258 11.3074C8.70716 11.2296 8.72518 11.1514 8.74671 11.0728L8.74698 11.0804C9.00212 10.9446 9.22639 10.7638 9.35433 10.4014C9.35433 10.4014 9.08998 10.5581 8.88441 10.6744C8.91105 10.6105 8.93997 10.5464 8.97122 10.4821C9.00838 10.4056 9.06111 10.3143 9.12936 10.2084C9.35714 10.1362 9.56917 10.0111 9.74949 9.74824C9.74949 9.74824 9.56736 9.7993 9.37846 9.84985C9.488 9.70069 9.61646 9.5338 9.76376 9.3494L9.59695 9.21616C9.53625 9.29216 9.47864 9.36528 9.42414 9.43554Z" fill="#5AB92D"/>
<path fill-rule="evenodd" clip-rule="evenodd" d="M14.7153 9.43554C14.7713 9.19184 14.8345 8.89087 14.8345 8.89087C14.9752 9.21164 15.0194 9.50348 14.963 9.76444C15.0228 9.84669 15.0769 9.92374 15.1254 9.99562C15.2766 9.79587 15.4652 9.4223 15.4652 9.4223C15.4587 9.53107 15.4617 9.64204 15.4646 9.7498V9.7498V9.7498V9.7498V9.7498V9.7498V9.7498V9.7498V9.7498V9.7498V9.7498V9.7498V9.7498V9.7498V9.7498V9.7498V9.7498V9.74981C15.4714 10.003 15.4777 10.2385 15.3588 10.3859L15.3602 10.3888C15.3839 10.4377 15.4064 10.4864 15.4276 10.5351C15.5915 10.3717 15.8635 10.077 15.8635 10.077C15.8422 10.4303 15.7444 10.7088 15.5667 10.9074C15.5989 11.011 15.6254 11.114 15.6465 11.2163C15.7839 11.0742 15.9164 10.9338 15.9164 10.9338C15.897 11.2561 15.843 11.4691 15.7029 11.6481C15.7058 11.699 15.7072 11.7497 15.7073 11.8002C15.8524 11.6505 16 11.4941 16 11.4941C15.9795 11.8343 15.8469 12.0581 15.6722 12.2445C15.6549 12.3522 15.6312 12.4588 15.6013 12.5641L15.5853 12.6197C15.7828 12.5242 15.9988 12.4158 15.9988 12.4158C15.8698 12.713 15.6816 12.8768 15.4676 12.9914C15.4218 13.1246 15.3735 13.2533 15.3229 13.3773C15.5546 13.3143 15.9007 13.2108 15.9007 13.2108C15.6955 13.5215 15.4437 13.645 15.1731 13.716C15.1179 13.8315 15.0605 13.9419 15.0011 14.0467C15.2207 13.985 15.4785 13.9079 15.4785 13.9079C15.2791 14.2097 15.0359 14.3349 14.7742 14.4069C14.6016 14.6523 14.4168 14.8539 14.224 15.0048C14.4364 15.1013 14.704 15.2168 14.704 15.2168C14.4018 15.3066 14.1604 15.2722 13.94 15.1871L13.9141 15.1998C13.8189 15.2454 13.7124 15.2884 13.5922 15.3303C13.7665 15.4078 13.9324 15.4794 13.9324 15.4794C13.6373 15.5672 13.4 15.5364 13.1837 15.4555L13.1604 15.4619C13.0543 15.4908 12.9463 15.5185 12.8041 15.5538C12.8982 15.5305 12.5509 15.6161 12.4804 15.634C12.2546 15.6915 12.126 15.7318 12.0643 15.7666C12.0585 15.7699 12.0543 15.7725 12.0517 15.7742C12.0489 15.7759 12.0479 15.7766 12.0484 15.7758L11.8757 15.6504C11.8957 15.6228 11.9236 15.6009 11.9595 15.5806C12.0442 15.5329 12.1816 15.4898 12.4277 15.4272C12.4977 15.4093 12.8341 15.3264 12.7579 15.3452C12.8961 15.311 13.0013 15.284 13.1043 15.256C13.1349 15.2476 13.1649 15.2393 13.1942 15.231C13.1696 15.0039 13.1982 14.7687 13.353 14.5065C13.353 14.5065 13.4203 14.916 13.4661 15.1477C13.6026 15.1021 13.7202 15.0559 13.8218 15.0073C13.8561 14.9908 13.8904 14.9725 13.9245 14.9523C13.9381 14.7207 14.0062 14.4903 14.2073 14.2552C14.2073 14.2552 14.2043 14.5155 14.2055 14.7411C14.3458 14.6129 14.4821 14.4536 14.612 14.2665L14.5209 14.3147C14.5109 14.0259 14.5554 13.7412 14.8053 13.4492C14.8053 13.4492 14.802 13.7308 14.8036 13.9621C14.8847 13.8204 14.9625 13.6673 15.0362 13.5039C14.9677 13.2793 14.9512 13.0373 15.0612 12.744C15.0612 12.744 15.1265 12.9303 15.1951 13.1181C15.2152 13.0647 15.2348 13.0105 15.2541 12.9553C15.1141 12.7204 15.0242 12.4602 15.091 12.102C15.091 12.102 15.2501 12.3851 15.3714 12.5903C15.3797 12.5623 15.3878 12.5341 15.3959 12.5058C15.4214 12.4159 15.442 12.325 15.4577 12.2332C15.2582 12.0642 15.0969 11.8536 15.0397 11.5096C15.0397 11.5096 15.3065 11.7388 15.4924 11.8907C15.4949 11.8143 15.4941 11.7373 15.4898 11.6598C15.275 11.5294 15.09 11.3514 14.9783 11.0352C14.9783 11.0352 15.2415 11.1912 15.4468 11.3074C15.4322 11.2296 15.4142 11.1514 15.3927 11.0728L15.3924 11.0804C15.1373 10.9446 14.913 10.7638 14.7851 10.4014C14.7851 10.4014 15.0494 10.5581 15.255 10.6744C15.2284 10.6105 15.1994 10.5464 15.1682 10.4821C15.131 10.4056 15.0783 10.3143 15.01 10.2084C14.7823 10.1362 14.5702 10.0111 14.3899 9.74824C14.3899 9.74824 14.572 9.7993 14.7609 9.84985C14.6514 9.70069 14.5229 9.5338 14.3756 9.3494L14.5425 9.21616C14.6032 9.29216 14.6608 9.36528 14.7153 9.43554Z" fill="#5AB92D"/>
<path fill-rule="evenodd" clip-rule="evenodd" d="M10.1008 10.0869L10.9969 12.4616H10.3382C10.3382 12.4616 10.1008 13.211 10.5488 13.211C10.9969 13.211 13.3057 13.211 13.3057 13.211C13.3057 13.211 13.6058 13.0231 13.4557 12.4616C13.3057 11.9001 12.5474 10.3501 12.5474 10.3501C12.5474 10.3501 12.8714 10.0928 12.8714 9.90212C12.8714 9.71143 12.5474 9.69043 12.5474 9.69043H10.502C10.2409 9.73274 10.1008 10.0869 10.1008 10.0869Z" fill="#EFE298"/>
<path d="M10.8628 10.9612L12.2545 10.8748L10.8628 10.9612Z" fill="#C5A042"/>
<path d="M10.8628 10.9612L12.2545 10.8748" stroke="#B47D00" stroke-width="0.5"/>
<path d="M11.2017 11.7186L12.5934 11.6321L11.2017 11.7186Z" fill="#C5A042"/>
<path d="M11.2017 11.7186L12.5934 11.6321" stroke="#B47D00" stroke-width="0.5"/>
<path d="M11.4661 12.4759L12.8578 12.3895L11.4661 12.4759Z" fill="#C5A042"/>
<path d="M11.4661 12.4759L12.8578 12.3895" stroke="#B47D00" stroke-width="0.5"/>
<path fill-rule="evenodd" clip-rule="evenodd" d="M11.9292 8.79883C11.9292 8.79883 11.7149 8.84237 11.7149 8.97777C11.7149 9.11317 11.657 9.22861 11.657 9.22861C11.657 9.22861 11.7224 9.84616 12.2111 9.98946C12.6997 10.1328 12.9862 10.1672 13.1919 10.4546C13.3976 10.7421 14.0287 11.5536 13.7756 12.2536C13.5225 12.9535 13.3238 13.3106 13.3238 13.3106C13.3238 13.3106 14.2469 12.4411 14.2469 12.0289C14.2469 11.6166 14.1105 11.2172 13.7016 10.6937C13.2926 10.1703 13.1024 9.86431 12.7977 9.62846C12.493 9.39262 12.0565 9.17499 12.0565 9.17499C12.0565 9.17499 12.2118 9.00885 12.1342 8.93073C12.0565 8.85261 11.9292 8.79883 11.9292 8.79883Z" fill="#5AB92D"/>
</g>
</g>
<g style="mix-blend-mode:hard-light" opacity="0.12">
<rect width="24" height="24" rx="12" fill="white"/>
</g>
<rect width="24" height="24" fill="url(#paint0_linear_6144_24330)" fill-opacity="0.64" style="mix-blend-mode:overlay"/>
</g>
<defs>
<linearGradient id="paint0_linear_6144_24330" x1="24" y1="1.19273e-06" x2="-4.48665" y2="16.0237" gradientUnits="userSpaceOnUse">
<stop stop-color="white" stop-opacity="0.3"/>
<stop offset="0.262741" stop-opacity="0.27"/>
<stop offset="0.369956" stop-color="white" stop-opacity="0.26"/>
<stop offset="0.487001" stop-opacity="0.55"/>
<stop offset="0.594445" stop-opacity="0.24"/>
<stop offset="0.736408" stop-color="white" stop-opacity="0.3"/>
<stop offset="0.901459" stop-color="#272727" stop-opacity="0.22"/>
<stop offset="1" stop-opacity="0.2"/>
</linearGradient>
<clipPath id="clip0_6144_24330">
<rect width="24" height="24" rx="12" fill="white"/>
</clipPath>
<clipPath id="clip1_6144_24330">
<rect width="24" height="24" fill="white"/>
</clipPath>
</defs>
</svg>
