<svg width="24" height="24" viewBox="0 0 24 24" fill="none" xmlns="http://www.w3.org/2000/svg">
<g clip-path="url(#clip0_6144_24336)">
<g clip-path="url(#clip1_6144_24336)">
<mask id="mask0_6144_24336" style="mask-type:luminance" maskUnits="userSpaceOnUse" x="-4" y="0" width="32" height="24">
<rect x="-4" width="32" height="24" fill="white"/>
</mask>
<g mask="url(#mask0_6144_24336)">
<path fill-rule="evenodd" clip-rule="evenodd" d="M-4 0V24H28V0H-4Z" fill="#F7FCFF"/>
<mask id="mask1_6144_24336" style="mask-type:luminance" maskUnits="userSpaceOnUse" x="-4" y="0" width="32" height="24">
<path fill-rule="evenodd" clip-rule="evenodd" d="M-4 0V24H28V0H-4Z" fill="white"/>
</mask>
<g mask="url(#mask1_6144_24336)">
<path fill-rule="evenodd" clip-rule="evenodd" d="M-4 0V8H28V0H-4Z" fill="#4564F9"/>
<path fill-rule="evenodd" clip-rule="evenodd" d="M-4 16V24H28V16H-4Z" fill="#4564F9"/>
<path fill-rule="evenodd" clip-rule="evenodd" d="M12.4021 12.6708L11.5356 13.118L11.7011 12.1708L11 11.4309H11.9688L12.4021 10.5L12.8354 11.4309H13.8042L13.1032 12.1708L13.2687 13.118L12.4021 12.6708Z" fill="#4564F9"/>
<path fill-rule="evenodd" clip-rule="evenodd" d="M6.31813 10.5026L5.45158 10.9498L5.61707 10.0026L4.91602 9.26269H5.88485L6.31813 8.33179L6.75141 9.26269H7.72024L7.01919 10.0026L7.18468 10.9498L6.31813 10.5026Z" fill="#4564F9"/>
<path fill-rule="evenodd" clip-rule="evenodd" d="M6.31813 14.7026L5.45158 15.1498L5.61707 14.2026L4.91602 13.4626H5.88485L6.31813 12.5317L6.75141 13.4626H7.72024L7.01919 14.2026L7.18468 15.1498L6.31813 14.7026Z" fill="#4564F9"/>
<path fill-rule="evenodd" clip-rule="evenodd" d="M18.3181 10.5026L17.4516 10.9498L17.6171 10.0026L16.916 9.26269H17.8849L18.3181 8.33179L18.7514 9.26269H19.7202L19.0192 10.0026L19.1847 10.9498L18.3181 10.5026Z" fill="#4564F9"/>
<path fill-rule="evenodd" clip-rule="evenodd" d="M18.3181 14.7026L17.4516 15.1498L17.6171 14.2026L16.916 13.4626H17.8849L18.3181 12.5317L18.7514 13.4626H19.7202L19.0192 14.2026L19.1847 15.1498L18.3181 14.7026Z" fill="#4564F9"/>
</g>
</g>
</g>
<g style="mix-blend-mode:hard-light" opacity="0.12">
<rect width="24" height="24" rx="12" fill="white"/>
</g>
<rect width="24" height="24" fill="url(#paint0_linear_6144_24336)" fill-opacity="0.64" style="mix-blend-mode:overlay"/>
</g>
<defs>
<linearGradient id="paint0_linear_6144_24336" x1="24" y1="1.19273e-06" x2="-4.48665" y2="16.0237" gradientUnits="userSpaceOnUse">
<stop stop-color="white" stop-opacity="0.3"/>
<stop offset="0.262741" stop-opacity="0.27"/>
<stop offset="0.369956" stop-color="white" stop-opacity="0.26"/>
<stop offset="0.487001" stop-opacity="0.55"/>
<stop offset="0.594445" stop-opacity="0.24"/>
<stop offset="0.736408" stop-color="white" stop-opacity="0.3"/>
<stop offset="0.901459" stop-color="#272727" stop-opacity="0.22"/>
<stop offset="1" stop-opacity="0.2"/>
</linearGradient>
<clipPath id="clip0_6144_24336">
<rect width="24" height="24" rx="12" fill="white"/>
</clipPath>
<clipPath id="clip1_6144_24336">
<rect width="24" height="24" fill="white"/>
</clipPath>
</defs>
</svg>
