<svg width="768" height="456" viewBox="0 0 768 456" fill="none" xmlns="http://www.w3.org/2000/svg">
<g clip-path="url(#clip0_184_54643)">
<path d="M0 32C0 14.3269 14.3269 0 32 0H736C753.673 0 768 14.3269 768 32V424C768 441.673 753.673 456 736 456H32C14.3269 456 0 441.673 0 424V32Z" fill="#FFF8EC"/>
<path opacity="0.5" d="M578.419 294.674C575.181 275.038 563.87 262.658 544.409 256.386C546.726 254.069 548.33 252.465 549.756 251.039C572.392 228.402 594.008 204.745 613.785 179.249C626.74 162.617 638.701 145.347 647.472 125.956C650.803 118.949 653.343 111.507 655.296 103.836C656.666 98.7892 656.837 92.9 656.269 87.3412C654.85 74.8719 645.838 65.5032 633.443 62.3766C626.659 60.583 619.8 60.4976 613.607 61.7899C602.723 64.0959 592.043 66.6061 581.62 70.0855C553.51 79.4059 526.934 91.6858 500.766 104.374C468.509 119.885 436.66 135.804 404.607 151.519C402.772 152.536 400.555 153.528 397.6 154.849C398.183 152.224 398.639 150.542 399.096 148.86C400.719 141.927 400.073 135.221 394.532 129.324C388.584 123.019 381.621 121.404 374.51 123.205C368.903 124.727 362.966 126.988 357.819 129.684C336.85 140.442 317.771 153.802 298.692 167.163C262.368 192.866 227.5 220.382 194.701 250.323C166.739 275.833 140.182 302.391 118.321 333.645C110.178 345.465 102.648 357.897 97.8722 371.659C95.3323 379.1 93.3791 386.772 93.5684 395.16C93.7207 414.206 104.653 429.416 123.401 436.4C132.967 439.906 142.759 441.142 152.473 441.231C171.518 441.383 189.743 437.863 207.329 433.348C210.133 432.587 213.319 431.851 216.939 431.907C215.87 432.976 214.8 434.046 213.909 434.937C194.708 452.096 176.145 470.251 160.824 491.29C153.85 500.715 147.872 510.778 143.705 522.296C140.835 530.477 138.756 539.092 139.379 548.271C140.523 565.1 148.648 578.215 163.753 587.617C172.302 592.957 181.28 596.232 190.868 597.264C202.19 598.605 213.512 599.945 224.525 599.552C242.754 598.887 260.496 596.666 278.673 595.237C281.324 595.036 283.593 594.81 287.953 594.535C286.018 596.878 285.153 598.152 283.905 599.399C273.211 610.094 262.312 620.584 252.23 631.891C246.553 637.977 241.718 645.263 237.266 652.574C234.518 656.956 232.587 662.154 231.421 667.405C227.136 685.578 235.877 702.162 254.195 711.211C264.042 716.068 274.447 717.917 284.978 718.823C288.624 719.261 292.245 719.317 296.835 719.629C295.613 721.259 294.926 722.354 294.035 723.246C290.14 727.549 286.04 731.649 282.553 736.361C280.11 739.621 278.101 743.673 276.857 747.776C273.482 759.729 279.82 771.771 292.167 776.988C297.065 779.034 302.676 780.367 307.443 780.501C316.393 780.538 325.52 780.397 334.161 778.7C351.621 775.128 368.876 771.351 385.85 766.223C410.978 757.842 435.493 748.849 460.239 740.442C464.52 739.02 468.98 737.419 473.492 736.584C514.505 729.473 552.782 715.704 589.117 698.567C648.893 670.65 704.021 635.945 754.5 594.453C774.875 577.754 793.82 559.626 809.32 538.408C815.428 530.257 820.746 521.672 823.868 511.605C825.417 506.38 826.939 500.773 826.932 495.062C827.322 481.193 818.688 468.995 804.838 464.056C799.175 461.958 793.182 460.599 787.471 460.592C775.462 460.347 763.505 460.866 751.804 462.356C728.581 465.155 706.305 470.685 684.233 476.418C681.99 477.027 679.926 477.458 676.662 477.045C678.24 475.059 679.64 473.25 681.014 471.06C683.583 466.856 686.357 462.857 688.34 458.423C695.533 441.019 684.166 425.018 664.534 424.636C658.441 424.602 652.017 425.308 646.205 426.626C633.461 429.567 620.769 433.273 608.459 437.005C597.654 440.458 587.052 444.116 575.456 447.135C576.321 445.861 577.364 444.409 578.434 443.34C596.841 422.891 614.457 402.007 629.648 379.055C637.587 367.031 645.322 354.803 650.275 340.864C652.332 334.722 654.364 328.197 654.865 321.569C656.168 304.336 644.601 290.986 626.93 288.643C621.371 288.075 615.66 288.068 610.179 288.647C601.308 289.757 592.897 292.041 584.256 293.738C582.548 293.812 580.662 294.065 578.419 294.674Z" fill="#FFEAC0"/>
<path d="M665.83 76.1364C665.328 75.7755 664.921 75.4779 664.47 75.2059C662.099 73.8526 659.547 73.3147 656.811 73.1785C652.995 73.0144 649.321 73.7155 645.718 74.849C639.775 76.7423 634.354 79.7538 629.41 83.4954C622.071 89.0344 616.061 95.7587 611.259 103.56C608.576 107.949 606.409 112.514 605.181 117.483C604.734 119.28 604.471 121.088 604.278 122.916C604.179 123.979 604.403 125.092 604.558 126.186C604.603 126.574 604.648 126.962 604.293 127.167C604.001 127.277 603.57 127.348 603.29 127.273C602.636 127.059 602.305 126.481 602.246 125.864C602.06 124.611 601.759 123.364 601.871 122.116C602.006 120.086 602.326 118.067 602.829 116.06C603.64 112.219 605.194 108.541 607.104 105.072C613.814 92.9729 623.049 83.3217 635.128 76.4667C640.523 73.4108 646.27 71.2764 652.47 70.6551C657.896 70.1258 663.02 70.7178 667.641 74.1439C667.99 73.8244 668.269 73.486 668.573 73.1921C672.291 69.2704 676.371 65.672 680.923 62.6892C685.341 59.7833 690.046 57.4809 695.262 56.4814C696.918 56.1761 698.606 56.0298 700.256 56.0237C708.356 56.14 714.129 60.8539 716.05 68.7389C716.741 71.5941 716.861 74.4832 716.709 77.4115C716.371 83.1091 714.967 88.5943 713.074 93.9476C712.562 95.4261 711.956 96.8413 711.4 98.3454C711.28 98.6513 711.205 98.9317 711.047 99.3778C711.574 99.3695 712.056 99.3868 712.469 99.3852C716.43 99.2878 720.334 99.8143 724 101.366C728.581 103.278 732.129 106.377 734.36 110.888C735.66 113.569 736.301 116.335 736.472 119.313C736.742 124.009 735.856 128.544 734.392 132.998C734.197 133.585 734.001 134.171 733.742 134.853C734.231 134.985 734.695 135.072 735.114 135.185C739.413 136.194 743.15 138.178 745.944 141.713C747.993 144.258 749.148 147.2 749.745 150.406C750.508 154.521 750.282 158.557 749.484 162.627C748.41 168.276 746.377 173.592 743.664 178.649C743.481 179.051 743.253 179.478 743.007 179.976C743.54 180.082 743.934 180.15 744.397 180.238C749.141 180.99 753.827 181.953 758.325 183.617C760.408 184.366 762.409 185.282 764.392 186.267C765.853 186.962 767.195 187.963 768.276 189.231C769.11 190.17 769.359 190.914 769.304 191.952C769.234 191.933 769.12 191.94 769.12 191.94C768.419 190.51 767.198 189.617 765.87 188.846C763.83 187.657 761.651 186.844 759.434 186.171C753.762 184.416 747.92 183.292 742.028 182.493C741.914 182.5 741.8 182.507 741.546 182.476C741.356 182.763 741.121 183.076 740.913 183.433C735.465 191.963 728.637 199.218 720.397 205.041C716.036 208.15 711.344 210.681 706.123 211.98C704.27 212.458 702.449 212.681 700.545 212.656C699.097 212.604 697.707 212.342 696.392 211.8C693.475 210.525 691.833 208.278 691.56 205.122C691.365 202.927 691.913 200.895 692.76 198.868C694.516 194.718 697.258 191.36 700.622 188.47C708.188 182.091 716.967 178.857 726.824 178.845C730.722 178.844 734.69 179.274 738.601 179.502C739.039 179.545 739.477 179.588 739.915 179.631C740.022 179.509 740.111 179.458 740.174 179.362C743.546 173.393 746.072 167.082 747.054 160.243C747.611 156.371 747.623 152.578 746.51 148.782C744.638 142.526 739.608 138.389 732.726 137.511C732.561 137.842 732.334 138.269 732.15 138.671C728.479 146.59 723.656 153.634 717.283 159.621C714.628 162.101 711.821 164.313 708.568 165.955C706.697 166.916 704.75 167.745 702.675 167.937C701.514 168.075 700.276 168.079 699.139 167.848C696.498 167.362 694.761 165.465 694.286 162.781C694.06 161.254 694.203 159.752 694.6 158.28C695.281 155.757 696.501 153.455 698.007 151.343C701.526 146.352 706.051 142.498 711.339 139.563C717.248 136.27 723.515 134.426 730.359 134.617C730.473 134.61 730.587 134.604 730.816 134.59C730.935 134.284 731.1 133.952 731.22 133.647C732.526 130.052 733.458 126.319 733.673 122.467C733.844 119.469 733.54 116.568 732.506 113.733C731.114 109.862 728.563 106.957 725.01 104.984C722.284 103.422 719.299 102.542 716.144 102.293C714.347 102.147 712.564 102.23 710.773 102.198C709.993 102.176 709.555 102.547 709.208 103.28C706.882 108.291 704.175 113.049 701.112 117.598C696.493 124.585 691.276 131.147 685.067 136.803C682.038 139.557 678.831 142 675.153 143.828C673.302 144.719 671.392 145.408 669.311 145.485C665.947 145.593 663.676 143.59 663.346 140.231C663.223 139.296 663.259 138.328 663.435 137.399C663.718 135.934 664.096 134.532 664.614 133.168C665.769 130.134 667.464 127.321 669.402 124.724C676.143 115.565 684.609 108.488 694.997 103.733C698.84 101.988 702.893 100.713 707.049 100.029C707.639 99.925 708.09 99.7833 708.349 99.1014C710.629 93.7021 712.586 88.253 713.583 82.4702C714.173 79.1712 714.465 75.8668 714.16 72.552C714.003 70.6305 713.619 68.7225 712.898 66.9494C711.098 62.3672 707.779 59.6682 702.979 58.7122C699.524 58.044 696.136 58.5212 692.799 59.501C688.358 60.8222 684.357 63.0138 680.592 65.72C676.694 68.5031 673.21 71.6983 669.973 75.2236C669.777 75.3962 669.65 75.5876 669.505 75.8491C669.658 76.1158 669.741 76.3638 669.913 76.5604C671.727 79.0041 672.754 81.7243 672.951 84.7468C673.088 86.7384 673.137 88.7813 672.906 90.7488C671.876 99.154 668.52 106.594 663.094 113.1C661.827 114.6 660.37 115.974 658.684 116.948C658.151 117.255 657.618 117.562 657.06 117.826C653.547 119.322 650.573 117.843 649.449 114.232C648.995 112.719 648.928 111.16 649.046 109.613C649.18 107.169 649.753 104.767 650.51 102.377C652.389 96.3813 655.304 90.8523 658.836 85.6775C660.778 82.7807 663.007 80.0739 665.071 77.2849C665.229 76.8388 665.507 76.5004 665.83 76.1364ZM738.485 181.876C736.986 181.735 735.672 181.607 734.314 181.503C729.94 181.189 725.572 180.989 721.232 181.66C712.894 182.983 705.62 186.473 699.685 192.503C697.474 194.726 695.695 197.291 694.629 200.274C694.092 201.708 693.74 203.154 693.876 204.732C694.097 206.971 695.154 208.609 697.307 209.378C698.336 209.731 699.454 210.032 700.552 209.99C702.132 209.965 703.751 209.8 705.311 209.431C709.721 208.364 713.728 206.287 717.481 203.766C725.671 198.268 732.423 191.293 737.865 183.062C738.029 182.731 738.168 182.355 738.485 181.876ZM706.49 102.66C706.103 102.706 705.919 102.694 705.716 102.752C702.613 103.419 699.619 104.378 696.733 105.63C689.421 108.846 682.988 113.389 677.375 119.055C673.606 122.888 670.314 127.037 667.956 131.889C667.198 133.451 666.63 135.14 666.176 136.822C665.893 137.873 665.889 139 665.999 140.119C666.161 141.742 667.242 142.597 668.848 142.617C669.629 142.639 670.377 142.503 671.145 142.296C673.359 141.728 675.337 140.645 677.214 139.384C680.085 137.49 682.734 135.309 685.16 132.844C693.813 124.238 700.648 114.316 706.168 103.437C706.25 103.272 706.351 103.036 706.49 102.66ZM729.653 137.096C729.284 137.072 729.005 136.996 728.732 137.035C727.431 137.136 726.123 137.121 724.829 137.336C717.1 138.485 710.442 141.915 704.689 147.13C701.901 149.686 699.565 152.514 697.928 155.944C697.169 157.507 696.62 159.125 696.516 160.901C696.408 163.804 697.947 165.46 700.861 165.493C702.467 165.513 704.021 165.03 705.499 164.413C708.772 163.115 711.586 161.017 714.202 158.678C720.722 152.843 725.614 145.817 729.312 137.943C729.438 137.752 729.514 137.472 729.653 137.096ZM667.598 77.7783C667.338 78.0466 667.142 78.2191 666.99 78.3661C661.931 84.4822 657.564 91.0858 654.431 98.3977C653.117 101.464 652.012 104.587 651.562 107.923C651.349 109.407 651.302 110.973 651.502 112.455C651.914 115.649 653.916 116.564 656.763 115.039C658.563 114.058 660.021 112.685 661.306 111.114C666.061 105.292 669.075 98.6997 670.254 91.2742C670.692 88.5358 670.718 85.7989 670.104 83.0771C669.674 81.1948 668.909 79.4473 667.598 77.7783Z" fill="white"/>
</g>
<defs>
<clipPath id="clip0_184_54643">
<path d="M0 32C0 14.3269 14.3269 0 32 0H736C753.673 0 768 14.3269 768 32V424C768 441.673 753.673 456 736 456H32C14.3269 456 0 441.673 0 424V32Z" fill="white"/>
</clipPath>
</defs>
</svg>
