<svg width="375" height="586" viewBox="0 0 375 586" fill="none" xmlns="http://www.w3.org/2000/svg">
<g clip-path="url(#clip0_51_106888)">
<path d="M0 32C0 14.3269 14.3269 0 32 0H343C360.673 0 375 14.3269 375 32V554C375 571.673 360.673 586 343 586H32C14.3269 586 0 571.673 0 554V32Z" fill="#FFF8EC"/>
<path opacity="0.5" d="M315.749 271.574C313.389 257.259 305.142 248.233 290.954 243.66C292.643 241.971 293.813 240.801 294.852 239.762C311.356 223.258 327.115 206.01 341.533 187.422C350.979 175.296 359.699 162.705 366.094 148.568C368.522 143.459 370.374 138.034 371.798 132.441C372.797 128.761 372.921 124.468 372.507 120.415C371.473 111.324 364.902 104.494 355.866 102.214C350.919 100.906 345.919 100.844 341.404 101.786C333.469 103.468 325.683 105.298 318.083 107.834C297.589 114.63 278.213 123.583 259.135 132.833C235.618 144.141 212.397 155.747 189.028 167.205C187.691 167.946 186.075 168.669 183.92 169.633C184.345 167.719 184.678 166.493 185.011 165.266C186.194 160.212 185.723 155.323 181.684 151.023C177.347 146.426 172.27 145.249 167.086 146.562C162.998 147.672 158.669 149.321 154.917 151.286C139.629 159.129 125.719 168.87 111.809 178.61C85.327 197.35 59.9059 217.411 35.9927 239.239C15.607 257.838 -3.75525 277.201 -19.6929 299.987C-25.6299 308.605 -31.1202 317.669 -34.6017 327.702C-36.4535 333.127 -37.8775 338.72 -37.7395 344.836C-37.6285 358.721 -29.6583 369.81 -15.9894 374.903C-9.01551 377.458 -1.87651 378.36 5.20567 378.425C19.0912 378.536 32.3784 375.969 45.1999 372.677C47.2439 372.122 49.5667 371.586 52.2063 371.627C51.4266 372.406 50.6469 373.186 49.9971 373.836C35.9979 386.346 22.4644 399.582 11.2942 414.921C6.20999 421.792 1.85133 429.129 -1.18621 437.527C-3.27893 443.491 -4.79502 449.772 -4.34021 456.464C-3.50639 468.733 2.41707 478.295 13.4302 485.15C19.6623 489.043 26.2084 491.431 33.1985 492.183C41.4529 493.161 49.7073 494.138 57.7371 493.851C71.027 493.366 83.9622 491.748 97.2142 490.705C99.1472 490.559 100.801 490.394 103.98 490.194C102.569 491.902 101.938 492.83 101.029 493.74C93.2318 501.537 85.2861 509.185 77.9358 517.429C73.7965 521.866 70.2716 527.177 67.0256 532.508C65.0222 535.703 63.6145 539.493 62.7644 543.321C59.6402 556.57 66.0131 568.661 79.3679 575.258C86.5476 578.799 94.1333 580.147 101.811 580.808C104.47 581.127 107.109 581.168 110.455 581.395C109.565 582.584 109.064 583.383 108.414 584.032C105.574 587.17 102.585 590.159 100.043 593.594C98.2618 595.971 96.7972 598.925 95.8902 601.916C93.4293 610.631 98.0506 619.411 107.052 623.214C110.623 624.706 114.714 625.678 118.19 625.775C124.714 625.803 131.369 625.7 137.669 624.462C150.398 621.858 162.979 619.105 175.354 615.366C193.673 609.256 211.547 602.699 229.588 596.569C232.709 595.533 235.961 594.366 239.25 593.757C269.152 588.572 297.058 578.534 323.549 566.04C367.13 545.686 407.322 520.384 444.124 490.134C458.979 477.959 472.791 464.742 484.092 449.273C488.545 443.331 492.422 437.071 494.699 429.732C495.828 425.923 496.937 421.835 496.932 417.671C497.216 407.56 490.922 398.666 480.824 395.066C476.695 393.536 472.326 392.545 468.162 392.54C459.407 392.361 450.69 392.74 442.159 393.826C425.228 395.867 408.987 399.898 392.895 404.078C391.26 404.522 389.755 404.836 387.375 404.536C388.526 403.087 389.546 401.769 390.548 400.172C392.421 397.107 394.444 394.191 395.889 390.959C401.133 378.27 392.846 366.604 378.533 366.326C374.091 366.301 369.407 366.816 365.17 367.777C355.879 369.921 346.625 372.623 337.651 375.343C329.773 377.861 322.044 380.528 313.589 382.729C314.22 381.8 314.98 380.742 315.76 379.962C329.18 365.053 342.023 349.828 353.099 333.094C358.887 324.328 364.526 315.413 368.137 305.25C369.637 300.772 371.118 296.015 371.484 291.183C372.434 278.619 364.001 268.886 351.117 267.178C347.064 266.764 342.9 266.758 338.904 267.181C332.437 267.99 326.305 269.655 320.005 270.892C318.76 270.946 317.385 271.131 315.749 271.574Z" fill="#FFEAC0"/>
<path d="M314.879 116.134C314.377 115.774 313.97 115.476 313.519 115.204C311.148 113.851 308.595 113.313 305.859 113.177C302.044 113.012 298.37 113.714 294.767 114.847C288.823 116.74 283.402 119.752 278.459 123.493C271.12 129.032 265.11 135.757 260.308 143.559C257.625 147.947 255.457 152.512 254.23 157.481C253.783 159.278 253.52 161.086 253.327 162.914C253.227 163.977 253.452 165.09 253.606 166.184C253.652 166.572 253.697 166.96 253.342 167.165C253.05 167.275 252.619 167.346 252.339 167.271C251.685 167.057 251.354 166.479 251.295 165.862C251.109 164.609 250.808 163.362 250.919 162.114C251.055 160.084 251.375 158.065 251.878 156.058C252.689 152.217 254.243 148.539 256.153 145.07C262.863 132.971 272.098 123.32 284.176 116.465C289.572 113.409 295.318 111.274 301.519 110.653C306.945 110.124 312.069 110.716 316.69 114.142C317.039 113.822 317.317 113.484 317.621 113.19C321.339 109.268 325.42 105.67 329.971 102.687C334.39 99.7813 339.095 97.4789 344.311 96.4794C345.967 96.1742 347.655 96.0279 349.305 96.0217C357.405 96.1381 363.178 100.852 365.099 108.737C365.79 111.592 365.91 114.481 365.757 117.41C365.42 123.107 364.016 128.592 362.122 133.946C361.611 135.424 361.005 136.839 360.449 138.343C360.329 138.649 360.254 138.93 360.096 139.376C360.623 139.368 361.105 139.385 361.518 139.383C365.478 139.286 369.383 139.812 373.049 141.364C377.63 143.276 381.178 146.375 383.409 150.886C384.709 153.567 385.349 156.333 385.521 159.311C385.79 164.007 384.905 168.542 383.441 172.996C383.246 173.583 383.05 174.169 382.791 174.851C383.28 174.983 383.744 175.07 384.163 175.183C388.462 176.192 392.199 178.176 394.992 181.711C397.042 184.256 398.197 187.198 398.793 190.404C399.557 194.519 399.331 198.555 398.533 202.625C397.459 208.274 395.426 213.59 392.713 218.647C392.53 219.049 392.302 219.476 392.056 219.974C392.589 220.08 392.983 220.148 393.446 220.236C398.189 220.988 402.876 221.951 407.373 223.615C409.457 224.364 411.458 225.28 413.441 226.265C414.902 226.96 416.243 227.961 417.325 229.229C418.159 230.168 418.408 230.912 418.353 231.95C418.283 231.931 418.169 231.938 418.169 231.938C417.467 230.508 416.247 229.615 414.919 228.844C412.879 227.655 410.7 226.842 408.483 226.169C402.811 224.414 396.969 223.29 391.077 222.491C390.963 222.498 390.848 222.505 390.594 222.474C390.405 222.761 390.17 223.074 389.962 223.431C384.514 231.961 377.686 239.216 369.446 245.039C365.085 248.148 360.393 250.68 355.172 251.978C353.319 252.456 351.498 252.679 349.593 252.654C348.146 252.603 346.755 252.34 345.44 251.798C342.524 250.523 340.882 248.276 340.609 245.12C340.414 242.925 340.962 240.893 341.809 238.866C343.565 234.716 346.306 231.358 349.671 228.469C357.237 222.089 366.015 218.855 375.873 218.843C379.771 218.842 383.739 219.273 387.649 219.5C388.087 219.543 388.526 219.586 388.964 219.629C389.071 219.507 389.16 219.456 389.223 219.36C392.594 213.391 395.12 207.08 396.103 200.241C396.66 196.369 396.671 192.576 395.559 188.78C393.687 182.524 388.657 178.387 381.775 177.509C381.61 177.84 381.383 178.268 381.199 178.669C377.528 186.588 372.705 193.632 366.332 199.619C363.677 202.099 360.87 204.311 357.617 205.953C355.746 206.914 353.799 207.743 351.724 207.935C350.562 208.073 349.325 208.078 348.188 207.846C345.546 207.36 343.81 205.463 343.334 202.779C343.109 201.252 343.252 199.75 343.649 198.278C344.329 195.755 345.55 193.453 347.056 191.341C350.575 186.35 355.1 182.496 360.387 179.561C366.297 176.268 372.564 174.424 379.407 174.615C379.522 174.608 379.636 174.602 379.864 174.588C379.984 174.282 380.149 173.951 380.269 173.645C381.575 170.05 382.507 166.317 382.721 162.466C382.893 159.467 382.589 156.566 381.555 153.731C380.163 149.86 377.612 146.955 374.059 144.982C371.333 143.42 368.348 142.54 365.193 142.291C363.396 142.145 361.612 142.228 359.822 142.196C359.042 142.174 358.604 142.545 358.257 143.278C355.931 148.289 353.224 153.047 350.161 157.596C345.542 164.583 340.325 171.145 334.115 176.801C331.087 179.555 327.88 181.998 324.202 183.826C322.351 184.718 320.441 185.406 318.359 185.483C314.995 185.591 312.725 183.589 312.395 180.229C312.272 179.294 312.308 178.327 312.484 177.397C312.767 175.932 313.145 174.53 313.662 173.166C314.818 170.132 316.513 167.319 318.45 164.722C325.192 155.563 333.658 148.486 344.045 143.732C347.888 141.986 351.942 140.711 356.098 140.027C356.688 139.923 357.139 139.781 357.398 139.099C359.678 133.7 361.635 128.251 362.632 122.468C363.222 119.169 363.514 115.865 363.209 112.55C363.052 110.629 362.667 108.721 361.947 106.947C360.147 102.365 356.828 99.6662 352.028 98.7103C348.573 98.0421 345.184 98.5192 341.848 99.4991C337.407 100.82 333.406 103.012 329.641 105.718C325.743 108.501 322.258 111.696 319.022 115.222C318.826 115.394 318.699 115.586 318.554 115.847C318.707 116.114 318.79 116.362 318.961 116.558C320.775 119.002 321.803 121.722 322 124.745C322.137 126.736 322.185 128.779 321.955 130.747C320.924 139.152 317.569 146.592 312.143 153.098C310.876 154.598 309.419 155.972 307.732 156.946C307.2 157.253 306.667 157.561 306.109 157.824C302.596 159.32 299.622 157.841 298.498 154.23C298.044 152.717 297.977 151.158 298.095 149.611C298.229 147.167 298.802 144.765 299.559 142.375C301.438 136.379 304.353 130.85 307.884 125.676C309.827 122.779 312.056 120.072 314.12 117.283C314.277 116.837 314.556 116.498 314.879 116.134ZM387.534 221.874C386.035 221.733 384.721 221.605 383.362 221.502C378.988 221.187 374.621 220.987 370.28 221.658C361.942 222.981 354.669 226.471 348.733 232.501C346.523 234.724 344.744 237.289 343.678 240.272C343.141 241.706 342.789 243.152 342.925 244.73C343.145 246.969 344.202 248.607 346.356 249.376C347.385 249.729 348.503 250.03 349.601 249.988C351.181 249.963 352.8 249.798 354.36 249.429C358.77 248.362 362.777 246.285 366.53 243.764C374.72 238.266 381.472 231.291 386.914 223.06C387.078 222.729 387.217 222.353 387.534 221.874ZM355.539 142.658C355.152 142.704 354.967 142.692 354.764 142.75C351.662 143.417 348.668 144.376 345.782 145.628C338.47 148.844 332.036 153.387 326.424 159.053C322.655 162.886 319.363 167.035 317.005 171.887C316.247 173.449 315.679 175.138 315.225 176.82C314.942 177.871 314.938 178.998 315.048 180.118C315.21 181.74 316.291 182.595 317.897 182.615C318.677 182.637 319.426 182.501 320.194 182.294C322.408 181.726 324.386 180.643 326.262 179.382C329.134 177.488 331.783 175.307 334.209 172.842C342.862 164.236 349.697 154.314 355.217 143.435C355.299 143.27 355.4 143.034 355.539 142.658ZM378.701 177.094C378.333 177.07 378.054 176.994 377.781 177.033C376.48 177.134 375.172 177.119 373.878 177.334C366.149 178.483 359.491 181.913 353.738 187.128C350.95 189.684 348.614 192.512 346.977 195.943C346.218 197.505 345.669 199.123 345.565 200.899C345.457 203.802 346.996 205.458 349.91 205.491C351.516 205.511 353.07 205.028 354.548 204.411C357.82 203.113 360.634 201.015 363.251 198.676C369.771 192.841 374.663 185.815 378.36 177.941C378.487 177.75 378.563 177.47 378.701 177.094ZM316.647 117.776C316.387 118.045 316.191 118.217 316.039 118.364C310.98 124.48 306.613 131.084 303.48 138.396C302.166 141.462 301.061 144.585 300.611 147.921C300.398 149.405 300.351 150.971 300.55 152.453C300.963 155.647 302.965 156.562 305.812 155.037C307.612 154.056 309.069 152.683 310.355 151.112C315.11 145.29 318.124 138.698 319.302 131.272C319.741 128.534 319.767 125.797 319.152 123.075C318.723 121.193 317.958 119.445 316.647 117.776Z" fill="white"/>
</g>
<defs>
<clipPath id="clip0_51_106888">
<path d="M0 32C0 14.3269 14.3269 0 32 0H343C360.673 0 375 14.3269 375 32V554C375 571.673 360.673 586 343 586H32C14.3269 586 0 571.673 0 554V32Z" fill="white"/>
</clipPath>
</defs>
</svg>
