<svg width="80" height="81" viewBox="0 0 80 81" fill="none" xmlns="http://www.w3.org/2000/svg">
<line x1="33.7493" y1="61.4934" x2="32.4689" y2="64.5665" stroke="#292B2E" stroke-miterlimit="10" stroke-linecap="round" stroke-linejoin="round"/>
<path d="M32.1482 66.8337C33.2517 66.8337 34.1462 65.9392 34.1462 64.8357C34.1462 63.7322 33.2517 62.8376 32.1482 62.8376C31.0447 62.8376 30.1501 63.7322 30.1501 64.8357C30.1501 65.9392 31.0447 66.8337 32.1482 66.8337Z" fill="white" stroke="#292B2E" stroke-miterlimit="10" stroke-linecap="round" stroke-linejoin="round"/>
<path d="M49.2981 55.5114L57.1238 33.533H65.4489L59.9543 55.5114H49.2981Z" fill="#292B2E" stroke="#292B2E" stroke-linejoin="round"/>
<path d="M54.1266 55.5115H24.822L22.158 61.1726H62.1188" stroke="#292B2E" stroke-miterlimit="10" stroke-linecap="round" stroke-linejoin="round"/>
<path d="M33.1472 55.5115L30.4832 61.1726" stroke="#292B2E" stroke-miterlimit="10" stroke-linecap="round" stroke-linejoin="round"/>
<path d="M24.8221 55.5115L19.3275 33.5331H59.6213L54.1267 55.5115H24.8221Z" fill="#EBF3FF"/>
<path d="M19.3275 33.5331L24.8221 55.5115H54.1267L59.6213 33.5331H51.7957H31.4822H19.3275ZM19.3275 33.5331L17.3295 26.3734H13.3334" stroke="#292B2E" stroke-miterlimit="10" stroke-linecap="round" stroke-linejoin="round"/>
<path d="M28.9847 33.5331L26.9867 26.3734H22.9906" stroke="#292B2E" stroke-miterlimit="10" stroke-linecap="round" stroke-linejoin="round"/>
<line x1="25.7571" y1="61.4934" x2="24.4767" y2="64.5665" stroke="#292B2E" stroke-miterlimit="10" stroke-linecap="round" stroke-linejoin="round"/>
<line x1="0.5" y1="-0.5" x2="3.82909" y2="-0.5" transform="matrix(-0.384615 0.923077 -0.923077 -0.384616 51.1296 60.8396)" stroke="#292B2E" stroke-miterlimit="10" stroke-linecap="round" stroke-linejoin="round"/>
<line x1="0.5" y1="-0.5" x2="3.82909" y2="-0.5" transform="matrix(-0.384615 0.923077 -0.923077 -0.384616 59.4548 60.8396)" stroke="#292B2E" stroke-miterlimit="10" stroke-linecap="round" stroke-linejoin="round"/>
<path d="M24.156 66.8337C25.2595 66.8337 26.154 65.9392 26.154 64.8357C26.154 63.7322 25.2595 62.8376 24.156 62.8376C23.0525 62.8376 22.158 63.7322 22.158 64.8357C22.158 65.9392 23.0525 66.8337 24.156 66.8337Z" fill="white" stroke="#292B2E" stroke-miterlimit="10" stroke-linecap="round" stroke-linejoin="round"/>
<path d="M49.7976 66.8337C50.9011 66.8337 51.7956 65.9392 51.7956 64.8357C51.7956 63.7322 50.9011 62.8376 49.7976 62.8376C48.6941 62.8376 47.7996 63.7322 47.7996 64.8357C47.7996 65.9392 48.6941 66.8337 49.7976 66.8337Z" fill="white" stroke="#292B2E" stroke-miterlimit="10" stroke-linecap="round" stroke-linejoin="round"/>
<path d="M58.1229 66.8337C59.2264 66.8337 60.121 65.9392 60.121 64.8357C60.121 63.7322 59.2264 62.8376 58.1229 62.8376C57.0194 62.8376 56.1249 63.7322 56.1249 64.8357C56.1249 65.9392 57.0194 66.8337 58.1229 66.8337Z" fill="white" stroke="#292B2E" stroke-miterlimit="10" stroke-linecap="round" stroke-linejoin="round"/>
<line x1="16.6641" y1="66.6667" x2="66.2811" y2="66.6668" stroke="#292B2E" stroke-miterlimit="10" stroke-linecap="round" stroke-linejoin="round"/>
<path d="M41.4002 13.3002V26.1002M41.4002 26.1002L36.8002 21.455M41.4002 26.1002L46.0002 21.455" stroke="#292B2E" stroke-linecap="round" stroke-linejoin="round"/>
</svg>
