<svg width="80" height="80" viewBox="0 0 80 80" fill="none" xmlns="http://www.w3.org/2000/svg">
<path d="M55.6799 8.80005H27.52C25.5759 8.80005 24 10.5463 24 12.7001V67.3001C24 69.454 25.5759 71.2001 27.52 71.2001H55.6799C57.624 71.2001 59.2 69.454 59.2 67.3001V12.7001C59.2 10.5463 57.624 8.80005 55.6799 8.80005Z" fill="#292B2E" stroke="#292B2E" stroke-linecap="round" stroke-linejoin="round"/>
<path d="M52.48 8.80005H24.3201C22.376 8.80005 20.8 10.5463 20.8 12.7001V67.3001C20.8 69.454 22.376 71.2 24.3201 71.2H52.48C54.4241 71.2 56 69.454 56 67.3001V12.7001C56 10.5463 54.4241 8.80005 52.48 8.80005Z" fill="white" stroke="#292B2E" stroke-linecap="round" stroke-linejoin="round"/>
<rect x="26.707" y="33.6758" width="23.6309" height="12.5649" rx="6.28243" fill="#EBF3FF" stroke="#292B2E" stroke-width="0.8" stroke-linecap="round" stroke-linejoin="round"/>
<path d="M44.5088 34.1758C47.6495 34.1758 50.2069 36.7582 50.207 39.958C50.207 43.1579 47.6495 45.7402 44.5088 45.7402C41.3681 45.7402 38.8105 43.1579 38.8105 39.958C38.8107 36.7582 41.3681 34.1758 44.5088 34.1758Z" fill="#292B2E" stroke="#292B2E"/>
<path d="M34.4 11.9797H42.4" stroke="#292B2E" stroke-linecap="round" stroke-linejoin="round"/>
</svg>
