<svg xmlns="http://www.w3.org/2000/svg" id="Layer_1" viewBox="0 0 184 100"><defs><style>.cls-1{fill:#56575a;stroke-width:0px;}</style></defs><path class="cls-1" d="M87.92,52.57c-.6-.85-1.17-1.53-1.68-2.04,1.83-.64,2.96-2.19,2.96-4.06,0-1.08-.38-2.08-1.06-2.79-.96-.98-2.42-1.42-4.81-1.42h-9.4c-.21,2.17-.34,4.74-.34,7.06s.11,4.59.34,7.06h4.36c-.19-1.83-.28-3.4-.34-5.23h4.38c.32.36.85,1.02,1.4,1.89.64,1,1.13,2,1.68,3.34h4.89c-.64-1.23-1.34-2.34-2.38-3.81,0,0,0,0,0,0ZM83.79,48.53h-5.85c0-1.04.04-2.23.13-3.61h3.83c1.4,0,2.1.17,2.53.64.26.26.43.68.43,1.13.02.74-.38,1.42-1.06,1.85ZM32.44,49.45c0,2.4-.09,4.7-.34,6.93h-3.76c-.23-2.25-.34-4.55-.34-6.93s.13-5.17.34-7.17h3.76c.21,1.98.34,4.68.34,7.17h0,0ZM97.59,49.45c0,2.4-.09,4.7-.34,6.93h-3.76c-.23-2.25-.34-4.55-.34-6.93s.13-5.17.34-7.17h3.76c.21,1.98.34,4.68.34,7.17h0ZM115.13,48.77c-1.38-2.7-2.59-4.83-3.76-6.51h-4.47c-1.11,1.68-2.36,3.81-3.72,6.49-1.38,2.72-2.62,5.51-3.4,7.61h4.61c.28-.89.62-1.79.98-2.62h7.57c.36.83.68,1.68,1,2.62h4.61c-.85-2.1-2.04-4.87-3.42-7.59h0ZM106.42,51.15c.94-2.08,1.79-3.81,2.74-5.55.96,1.7,1.81,3.42,2.74,5.55h-5.49,0ZM50.43,48.77c1.02-.57,1.68-1.68,1.68-2.89,0-1.11-.32-1.89-1.04-2.51-1.21-1.04-3.44-1.13-5.8-1.13h-7.99c-.23,2.13-.34,4.78-.34,7.08s.11,4.53.34,7.06h8.31c2.93,0,4.76-.34,5.89-1.11.87-.6,1.4-1.79,1.4-3.08,0-1.55-.89-2.79-2.45-3.42h0ZM41.42,44.94h3.7c1.49,0,2,.11,2.42.55.21.21.34.62.34,1.04,0,.6-.23,1.11-.68,1.45h-5.91c.02-1.06.04-2.04.13-3.04,0,0,0,0,0,0ZM48.14,53.15c-.4.38-1,.55-2.02.55h-4.7c-.09-1.13-.13-2.25-.13-3.19h5.32c.77,0,1.17.11,1.51.4.32.28.47.62.47,1.08s-.15.87-.45,1.15ZM69.95,56.38h-13.46c-.19-2.25-.34-4.76-.34-7.06s.13-4.83.34-7.06h13.46c-.09,1-.15,1.83-.19,2.81h-9.16c-.09.94-.11,2.06-.11,2.85h8.46v2.66h-8.46c0,.96.04,1.91.11,2.98h9.16c.06,1.02.11,1.89.19,2.83Z"></path><path class="cls-1" d="M125.17,60.99c8.16-8.23,19.86-12.8,27.62-13.01l-2.66,6.93c-3.17,7.36-8.59,12.78-31.6,12.78,0,0,6.63-6.7,6.63-6.7Z"></path><path class="cls-1" d="M133.1,52.89l7.46-7.55c3.59-3.59,5.02-5.87,15.44-5.87l-1.7,4.47c-7.02.81-14.12,3.87-21.2,8.95h0Z"></path></svg>