<svg xmlns="http://www.w3.org/2000/svg" xmlns:xlink="http://www.w3.org/1999/xlink" id="Layer_1" viewBox="0 0 98 80"><defs><style>.cls-1{mask:url(#mask-10);}.cls-2{fill:#292b2e;}.cls-2,.cls-3,.cls-4,.cls-5,.cls-6{stroke-width:0px;}.cls-7{mask:url(#mask-2);}.cls-8{clip-path:url(#clippath-2);}.cls-9{mask:url(#mask-13);}.cls-10{clip-path:url(#clippath-6);}.cls-11{mask:url(#mask-3);}.cls-3{fill:none;}.cls-12{clip-path:url(#clippath-7);}.cls-13{mask:url(#mask-9);}.cls-14{clip-path:url(#clippath-1);}.cls-15{clip-path:url(#clippath-4);}.cls-16{mask:url(#mask-12);}.cls-17{mask:url(#mask-5);}.cls-18{mask:url(#mask-8);}.cls-19{mask:url(#mask-4);}.cls-20{clip-path:url(#clippath);}.cls-21{mask:url(#mask-15);}.cls-22{mask:url(#mask-6);}.cls-23{clip-path:url(#clippath-3);}.cls-24{mask:url(#mask-16);}.cls-4{fill:#fff;}.cls-25{mask:url(#mask-1);}.cls-26{mask:url(#mask);}.cls-5{fill:#bfebff;}.cls-27{clip-path:url(#clippath-5);}.cls-28{mask:url(#mask-7);}.cls-6{fill:#fff7d1;}.cls-29{mask:url(#mask-14);}.cls-30{mask:url(#mask-11);}</style><clipPath id="clippath"><rect class="cls-3" width="98" height="80"></rect></clipPath><clipPath id="clippath-1"><rect class="cls-3" x="4.6" y="3.92" width="83.46" height="70.56"></rect></clipPath><mask id="mask" x="45.67" y="3.98" width="18.21" height="17.06" maskUnits="userSpaceOnUse"><g id="mask0_2670_17672"><path class="cls-4" d="M61.88,6.2c-1.08-.45-2.24-.59-3.25.01-1.48-3.52-6.24-2.49-6.74.34-3.51-2.38-7.43,1.62-5.87,4.62.57,1.1,1.54,3.42,1.14,5.36,1.68.65,4.98,4.5,4.98,4.5,0,0,6.57-6.79,9.33-7.79,3.44-1.26,2.85-6.03.41-7.04Z"></path></g></mask><mask id="mask-1" x="37.1" y="29.77" width="36.4" height="12.89" maskUnits="userSpaceOnUse"><g id="mask1_2670_17672"><path class="cls-4" d="M37.1,29.77c1.07,0,5.6,1.23,6.73,2.34.02.01.12.11.14.12,0,0,1.75,3.06,7.1,2.65,3.82-.29,5.51-1.99,5.51-1.99,2.73-1.8,6.25-2.5,8.36-2.24.05,0,5.4,1.14,7.73,2.96,2.97,2.32-1.4,9.82-22.78,8.98-10.59-.4-12.81-12.82-12.79-12.82Z"></path></g></mask><mask id="mask-2" x="37.1" y="29.77" width="36.4" height="12.89" maskUnits="userSpaceOnUse"><g id="mask2_2670_17672"><path class="cls-4" d="M37.1,29.77c1.07,0,5.6,1.23,6.73,2.34.02.01.12.11.14.12,0,0,1.75,3.06,7.1,2.65,3.82-.29,5.51-1.99,5.51-1.99,2.73-1.8,6.25-2.5,8.36-2.24.05,0,5.4,1.14,7.73,2.96,2.97,2.32-1.4,9.82-22.78,8.98-10.59-.4-12.81-12.82-12.79-12.82Z"></path></g></mask><mask id="mask-3" x="37.1" y="29.77" width="36.4" height="14.1" maskUnits="userSpaceOnUse"><g id="mask3_2670_17672"><path class="cls-4" d="M37.1,29.77c1.07,0,5.6,1.23,6.73,2.34.02.01.12.11.14.12,0,0,1.75,3.06,7.1,2.65,3.82-.29,5.51-1.99,5.51-1.99,2.73-1.8,6.25-2.5,8.36-2.24.05,0,5.4,1.14,7.73,2.96,2.97,2.32-1.4,9.82-22.78,8.98-10.59-.4-12.81-12.82-12.79-12.82Z"></path></g></mask><mask id="mask-4" x="37.1" y="29.77" width="36.4" height="12.89" maskUnits="userSpaceOnUse"><g id="mask4_2670_17672"><path class="cls-4" d="M37.1,29.77c1.07,0,5.6,1.23,6.73,2.34.02.01.12.11.14.12,0,0,1.75,3.06,7.1,2.65,3.82-.29,5.51-1.99,5.51-1.99,2.73-1.8,6.25-2.5,8.36-2.24.05,0,5.4,1.14,7.73,2.96,2.97,2.32-1.4,9.82-22.78,8.98-10.59-.4-12.81-12.82-12.79-12.82Z"></path></g></mask><clipPath id="clippath-2"><rect class="cls-3" x="51.51" y="45.95" width="8.96" height="8.51"></rect></clipPath><mask id="mask-5" x="51.51" y="45.95" width="8.96" height="8.51" maskUnits="userSpaceOnUse"><g id="mask6_2670_17672"><path class="cls-4" d="M58.36,47.82c-1.79-1.72-3.95-2.37-4.84-1.45l-1.37,1.42c-.89.92-.16,3.07,1.62,4.79,1.79,1.72,3.95,2.37,4.84,1.45l1.37-1.42c.89-.92.16-3.07-1.62-4.79Z"></path></g></mask><clipPath id="clippath-3"><rect class="cls-3" x="41.7" y="63.77" width="21.91" height="9.36"></rect></clipPath><mask id="mask-6" x="54.57" y="70.76" width="9.03" height="2.32" maskUnits="userSpaceOnUse"><g id="mask7_2670_17672"><path class="cls-4" d="M62.51,73.07h-7.54c-.07,0-.13-.03-.18-.07-.05-.05-.07-.11-.07-.18v-1.8c0-.07.03-.13.07-.18.05-.05.11-.07.18-.07h7.54s.07,0,.1.02c.03.01.06.03.08.06.02.02.04.05.05.08.01.03.02.06.02.1v1.8s0,.07-.02.1c-.01.03-.03.06-.05.08-.02.02-.05.04-.08.06s-.06.02-.1.02Z"></path></g></mask><mask id="mask-7" x="54.72" y="70.58" width="8.05" height="2.49" maskUnits="userSpaceOnUse"><g id="mask8_2670_17672"><path class="cls-4" d="M62.51,73.07h-7.54c-.07,0-.13-.03-.18-.07-.05-.05-.07-.11-.07-.18v-1.8c0-.07.03-.13.07-.18.05-.05.11-.07.18-.07h7.54s.07,0,.1.02c.03.01.06.03.08.06.02.02.04.05.05.08.01.03.02.06.02.1v1.8s0,.07-.02.1c-.01.03-.03.06-.05.08-.02.02-.05.04-.08.06s-.06.02-.1.02Z"></path></g></mask><mask id="mask-8" x="42.86" y="64" width="9.03" height="2.32" maskUnits="userSpaceOnUse"><g id="mask9_2670_17672"><path class="cls-4" d="M50.79,66.31h-7.54c-.07,0-.13-.03-.18-.07-.05-.05-.07-.11-.07-.18v-1.8c0-.07.03-.13.07-.18.05-.05.11-.07.18-.07h7.54c.07,0,.13.03.18.07.05.05.07.11.07.18v1.8c0,.07-.03.13-.07.18-.05.05-.11.07-.18.07Z"></path></g></mask><mask id="mask-9" x="43" y="63.77" width="8.05" height="2.54" maskUnits="userSpaceOnUse"><g id="mask10_2670_17672"><path class="cls-4" d="M50.79,66.31h-7.54c-.07,0-.13-.03-.18-.07-.05-.05-.07-.11-.07-.18v-1.8c0-.07.03-.13.07-.18.05-.05.11-.07.18-.07h7.54c.07,0,.13.03.18.07.05.05.07.11.07.18v1.8c0,.07-.03.13-.07.18-.05.05-.11.07-.18.07Z"></path></g></mask><mask id="mask-10" x="41.69" y="66.28" width="9.03" height="2.32" maskUnits="userSpaceOnUse"><g id="mask11_2670_17672"><path class="cls-4" d="M49.63,68.58h-7.54c-.07,0-.13-.03-.18-.07-.05-.05-.07-.11-.07-.18v-1.8c0-.07.03-.13.07-.18.05-.05.11-.07.18-.07h7.54s.07,0,.1.02c.03.01.06.03.08.06.02.02.04.05.05.08.01.03.02.06.02.1v1.8c0,.07-.03.13-.07.18-.05.05-.11.07-.18.07Z"></path></g></mask><mask id="mask-11" x="41.83" y="66.09" width="8.05" height="2.49" maskUnits="userSpaceOnUse"><g id="mask12_2670_17672"><path class="cls-4" d="M49.63,68.58h-7.54c-.07,0-.13-.03-.18-.07-.05-.05-.07-.11-.07-.18v-1.8c0-.07.03-.13.07-.18.05-.05.11-.07.18-.07h7.54s.07,0,.1.02c.03.01.06.03.08.06.02.02.04.05.05.08.01.03.02.06.02.1v1.8c0,.07-.03.13-.07.18-.05.05-.11.07-.18.07Z"></path></g></mask><mask id="mask-12" x="43.34" y="68.55" width="9.03" height="2.31" maskUnits="userSpaceOnUse"><g id="mask13_2670_17672"><path class="cls-4" d="M51.28,70.85h-7.54c-.07,0-.13-.03-.18-.07-.05-.05-.07-.11-.07-.18v-1.8c0-.07.03-.13.07-.18.05-.05.11-.07.18-.07h7.54c.07,0,.13.03.18.07.05.05.07.11.07.18v1.8c0,.07-.03.13-.07.18-.05.05-.11.07-.18.07Z"></path></g></mask><mask id="mask-13" x="43.49" y="68.27" width="8.05" height="2.59" maskUnits="userSpaceOnUse"><g id="mask14_2670_17672"><path class="cls-4" d="M51.28,70.85h-7.54c-.07,0-.13-.03-.18-.07-.05-.05-.07-.11-.07-.18v-1.8c0-.07.03-.13.07-.18.05-.05.11-.07.18-.07h7.54c.07,0,.13.03.18.07.05.05.07.11.07.18v1.8c0,.07-.03.13-.07.18-.05.05-.11.07-.18.07Z"></path></g></mask><mask id="mask-14" x="42.13" y="70.82" width="9.03" height="2.32" maskUnits="userSpaceOnUse"><g id="mask15_2670_17672"><path class="cls-4" d="M50.06,73.12h-7.54c-.07,0-.13-.03-.18-.07-.05-.05-.07-.11-.07-.18v-1.8c0-.07.03-.13.07-.18.05-.05.11-.07.18-.07h7.54c.07,0,.13.03.18.07.05.05.07.11.07.18v1.8c0,.07-.03.13-.07.18-.05.05-.11.07-.18.07Z"></path></g></mask><mask id="mask-15" x="42.27" y="70.68" width="8.05" height="2.45" maskUnits="userSpaceOnUse"><g id="mask16_2670_17672"><path class="cls-4" d="M50.06,73.12h-7.54c-.07,0-.13-.03-.18-.07-.05-.05-.07-.11-.07-.18v-1.8c0-.07.03-.13.07-.18.05-.05.11-.07.18-.07h7.54c.07,0,.13.03.18.07.05.05.07.11.07.18v1.8c0,.07-.03.13-.07.18-.05.05-.11.07-.18.07Z"></path></g></mask><clipPath id="clippath-4"><rect class="cls-3" x="5.9" y="12.03" width="33.64" height="34.27"></rect></clipPath><mask id="mask-16" x="10.81" y="17.37" width="27.48" height="28.7" maskUnits="userSpaceOnUse"><g id="mask17_2670_17672"><path class="cls-4" d="M29.58,32.89c4.82-2.79,8.27-5.63,8.68-7.58.07-.36.04-.64-.13-.82-.17-.18-.39-.31-.63-.37-.56-.16-1.33-.11-2.23.14.88-1.17,1.21-4.48-.9-5.97-1.68-1.19-4.15-1.32-7.6.24-4.34,1.96-7.21,5.42-9.35,8.76-4.36,6.81-6.38,13.99-6.6,18.79,7.94-8.11,12.25-10.13,18.77-13.18Z"></path></g></mask><clipPath id="clippath-5"><rect class="cls-3" x="62.21" y="45.05" width="31.76" height="28.04"></rect></clipPath><clipPath id="clippath-6"><rect class="cls-3" x="83.98" y="63.77" width="8.51" height="9.41"></rect></clipPath><clipPath id="clippath-7"><rect class="cls-3" x="9.17" y="42.63" width="49.64" height="31.9"></rect></clipPath></defs><g class="cls-20"><g class="cls-14"><path class="cls-2" d="M61.87,6.21c-1.08-.45-2.31-.38-3.32.21-1.34-3.61-6.17-2.69-6.67.14-3.51-2.38-7.43,1.62-5.87,4.62.57,1.1,1.54,3.42,1.14,5.36,1.68.65,4.98,4.5,4.98,4.5,0,0,6.57-6.79,9.33-7.79,3.44-1.26,2.85-6.03.41-7.04Z"></path><path class="cls-2" d="M52.13,21.18s-.08-.02-.11-.05c-.03-.04-3.29-3.83-4.92-4.46-.06-.02-.1-.09-.09-.16.14-.66.3-2.51-1.13-5.27-.38-.74-.47-1.57-.25-2.41.2-.77.67-1.51,1.3-2.07.67-.59,1.46-.95,2.3-1.04.87-.09,1.74.12,2.55.62.33-1.29,1.58-2.26,3.11-2.4,1.31-.12,2.96.43,3.72,2.28,1-.54,2.22-.59,3.3-.14,1.27.52,2.12,2.05,2.09,3.73-.04,1.68-.97,3.02-2.5,3.57-2.7.98-9.21,7.69-9.28,7.76-.02.02-.05.04-.09.04ZM47.31,16.45c1.57.7,4.27,3.73,4.83,4.38.88-.91,6.68-6.78,9.28-7.72.75-.27,1.34-.73,1.74-1.36.36-.56.56-1.24.57-1.96.03-1.56-.75-2.98-1.92-3.46-1.05-.44-2.24-.36-3.19.2-.04.02-.08.02-.12.01-.04,0-.07-.04-.08-.08-.68-1.83-2.25-2.36-3.5-2.25-1.49.13-2.68,1.11-2.91,2.37,0,.05-.04.08-.08.1-.04.02-.09.01-.13-.01-1.82-1.23-3.61-.66-4.68.3-.59.53-1.02,1.21-1.21,1.93-.2.77-.12,1.54.22,2.21.23.44.66,1.34.94,2.39.3,1.11.37,2.1.23,2.95Z"></path><path class="cls-4" d="M64.05,24.22c.08,1-.44,2.03-1.49,2.62-2.72,1.54-6.3.71-6.3.71,0,0-.02,2.35.43,5.6-.56,1.02-2.69,2.53-6.57,2.27-3.38-.23-5.78-1.94-6.57-3.01.81-1.96,2.37-5.52,4.22-9.36-1.92-.25-4.9-2.26-4.44-4.86.26-1.49,1.84-2.66,3.38-2.22,1.5.43,2.07,1.32,3.28,2.63,1.12,1.22,1.49.49,2.23-.99.66-1.31,1.62-2.41,2.37-3.05,1.69-1.43,4.77-1.48,6.83-1.26,0,1.57.16,3.09.37,4.64.36,2.73,2.07,3.95,2.26,6.27Z"></path><path class="cls-2" d="M59.69,13.45c.49,0,1,.02,1.52.07.01,1.49.12,2.99.32,4.47.19,1.43.72,2.44,1.24,3.42.48.9.93,1.75,1.02,2.85h0c.04.45-.06.9-.29,1.31-.24.43-.6.8-1.06,1.05-1.05.6-2.37.9-3.9.9-1.25,0-2.18-.21-2.19-.21-.02,0-.04,0-.06,0-.06,0-.12.02-.17.06-.06.05-.11.13-.11.21,0,.02-.02,2.36.42,5.55-.29.47-.89.95-1.62,1.31-1.04.5-2.35.77-3.78.77-.28,0-.57,0-.87-.03-1.84-.12-3.27-.7-4.15-1.16-.89-.47-1.67-1.06-2.12-1.62.76-1.85,2.28-5.3,4.15-9.2.04-.08.04-.18,0-.25-.04-.08-.12-.13-.21-.14-1.1-.14-2.68-.93-3.58-2.17-.56-.76-.76-1.56-.62-2.37.21-1.17,1.31-2.12,2.46-2.12.19,0,.39.03.57.08,1.17.33,1.73.97,2.59,1.93.18.2.36.4.56.62.46.5.81.71,1.16.71.62,0,.95-.67,1.46-1.67l.03-.05c.66-1.31,1.65-2.41,2.35-3,1.25-1.06,3.35-1.28,4.9-1.28ZM59.69,13.17c-1.8,0-3.83.3-5.08,1.36-.75.63-1.75,1.78-2.42,3.09-.48.95-.78,1.57-1.24,1.57-.25,0-.55-.19-.95-.62-1.21-1.31-1.78-2.2-3.28-2.63-.22-.06-.43-.09-.65-.09-1.31,0-2.5,1.08-2.73,2.36-.46,2.61,2.52,4.61,4.44,4.86-1.85,3.84-3.42,7.4-4.22,9.36.79,1.06,3.19,2.78,6.57,3.01.31.02.6.03.88.03,3.32,0,5.18-1.36,5.69-2.3-.45-3.26-.43-5.6-.43-5.6,0,0,.96.22,2.26.22,1.22,0,2.73-.19,4.04-.93,1.05-.59,1.57-1.63,1.49-2.62-.19-2.32-1.9-3.55-2.26-6.27-.21-1.55-.31-3.12-.32-4.68-.54-.06-1.15-.09-1.79-.09Z"></path><path class="cls-2" d="M56.27,27.41s-2.32-.7-3.53-1.93c-.47.28-.21,3.65,3.54,4.76-.56-3.14-.01-2.82-.01-2.82Z"></path><path class="cls-2" d="M56.28,30.38s-.03,0-.04,0c-1.21-.36-2.17-.97-2.85-1.82-.69-.87-.89-1.7-.94-2.13-.05-.42-.02-.92.22-1.06.06-.03.12-.02.17.02,1.08,1.11,3.13,1.79,3.43,1.89.02,0,.05.01.06.02.06.04.08.11.06.18-.03.06-.09.09-.15.08-.05.08-.2.51.18,2.67,0,.05,0,.1-.05.13-.02.02-.06.03-.09.03ZM52.76,25.69c-.04.12-.08.34-.03.7.08.67.41,1.39.88,1.99.61.75,1.45,1.31,2.5,1.66-.28-1.67-.24-2.31-.13-2.57-.24-.08-.63-.23-1.08-.43-.92-.41-1.64-.86-2.14-1.34ZM60.25,21.55c-.22.14-.47.23-.73.23-.26.01-.52-.03-.75-.13-.23-.11-.43-.28-.58-.49-.15-.21-.25-.46-.26-.72h0c0-.09-.08-.15-.16-.14-.07,0-.12.06-.14.12-.05.34.02.69.2.98.09.15.19.28.32.39.38.35.91.5,1.42.42.17-.02.33-.07.48-.14.16-.07.3-.18.41-.31.06-.06.05-.16-.02-.21-.05-.05-.13-.05-.19,0h0ZM59.96,19.68s.07,0,.11-.02c.45-.31.66-.56.69-.83.04-.34-.24-.62-.55-.95-.7-.74-.56-1.23-.56-1.24.02-.07-.02-.14-.09-.17-.07-.02-.14.01-.17.08,0,.03-.2.64.62,1.5.31.32.49.54.48.74-.02.18-.2.38-.57.64-.06.04-.07.12-.03.19,0,.03.04.05.07.06Z"></path><path class="cls-2" d="M59.99,19.7s-.02,0-.03,0c-.04,0-.07-.03-.09-.06-.02-.03-.03-.07-.02-.12,0-.04.03-.08.06-.1.36-.25.55-.45.56-.62.02-.19-.16-.4-.47-.72-.83-.87-.63-1.5-.62-1.53.03-.08.12-.12.19-.1.08.03.12.12.1.19,0,0-.13.5.56,1.21.31.33.59.62.56.97-.03.27-.25.53-.7.85-.04.02-.06.03-.1.03ZM59.97,19.66s.06,0,.09-.02c.44-.31.65-.56.68-.81.03-.32-.23-.61-.54-.93-.71-.75-.57-1.25-.56-1.26.02-.06-.01-.12-.07-.14-.06-.02-.12.01-.14.07,0,.02-.2.63.62,1.48.31.33.5.55.48.75-.02.18-.21.4-.58.66-.02.02-.04.04-.05.07,0,.03,0,.06.02.08.01.02.04.04.06.05Z"></path><g class="cls-26"><path class="cls-4" d="M57.05,8.55h-.02c-.07-.01-.13-.08-.12-.16,0-.03.1-.64.5-1.31.37-.62,1.08-1.39,2.35-1.56.07,0,.15.04.16.12,0,.07-.04.15-.12.16-.93.13-1.66.61-2.15,1.43-.37.62-.47,1.21-.47,1.21-.01.06-.07.11-.14.11Z"></path></g><path class="cls-2" d="M48.69,20.71c-.06,0-.11-.04-.13-.1-.35-1.09-.98-1.83-1.86-2.2-.65-.27-1.21-.23-1.21-.23-.08,0-.14-.05-.15-.12,0-.08.05-.14.12-.15.02,0,.62-.05,1.34.25.66.28,1.55.91,2.01,2.37.02.07-.02.15-.09.18,0,0-.02,0-.04,0ZM48.22,23.09c-.25,0-.42-.02-.43-.02-.07,0-.13-.08-.12-.16,0-.07.08-.13.16-.12,0,0,.63.09,1.29-.09.07-.02.15.02.17.1.02.07-.02.15-.1.17-.37.09-.71.12-.97.12Z"></path><path class="cls-5" d="M69.12,62.93c-.09,2.18,0,6.62,0,8.98H26.14c.25-3.81.49-9.83.49-11.82,2.73-15.13,11.84-25.69,17.07-28.09,5.18,4.44,10.5,2.92,12.89.89,6.13,4.24,10.29,17.71,12.54,30.04Z"></path><g class="cls-25"><path class="cls-4" d="M47.72,41.66c-.22,0-.44-.04-.67-.12-1.93-.67-2.78-2.91-3.14-4.67-.44-2.15-.34-4.23-.17-5.04.01-.07.09-.12.17-.11.07.01.12.09.11.17-.18.85-.24,2.93.17,4.93.35,1.69,1.15,3.84,2.96,4.46.56.19,1.08.11,1.55-.25,1.67-1.28,2.29-5.55,2.15-7.47,0-.08.05-.14.13-.15.08,0,.14.05.15.13.08,1.12-.08,2.73-.42,4.11-.54,2.22-1.3,3.18-1.84,3.61-.36.27-.74.41-1.15.41Z"></path></g><g class="cls-7"><path class="cls-4" d="M55.6,41.32c-.83,0-1.61-.43-2.3-1.27-.58-.7-1.11-1.68-1.57-2.93-.78-2.11-1.12-4.28-1.12-4.3,0-.07.04-.15.12-.16.07,0,.15.04.16.12.01.08,1.32,8.48,4.85,8.26.43-.03.76-.21,1-.57,1.45-2.15-.89-9.37-.92-9.45-.02-.07.01-.15.09-.18.07-.02.15.01.18.09,0,.02.61,1.87,1.02,3.96.56,2.84.51,4.77-.14,5.72-.29.43-.7.66-1.21.69-.04,0-.1,0-.15,0Z"></path></g><g class="cls-11"><path class="cls-4" d="M52.05,43.87c-.07,0-.13-.05-.14-.12l-1.39-12.31c0-.07.05-.14.12-.15.07,0,.14.05.15.12l1.39,12.31c0,.07-.05.14-.12.15,0,0,0,0-.01,0Z"></path></g><g class="cls-19"><path class="cls-4" d="M50.49,41.95c.23,0,.42-.19.42-.42s-.19-.42-.42-.42-.42.19-.42.42.19.42.42.42Z"></path></g><path class="cls-2" d="M69.14,62.92c4.4-8.79,14.87-14.05,18.04-11.71,2.68,3.43-3.94,9.82-18.04,11.71Z"></path><path class="cls-2" d="M69.14,63.06s-.09-.02-.11-.06c-.03-.04-.03-.1,0-.14,1.89-3.77,4.65-6.46,6.63-8.06,2.49-2,5.26-3.48,7.6-4.04,1.76-.42,3.16-.31,4.03.34,0,0,.02.01.03.03.69.88.8,1.95.33,3.11-.73,1.79-2.78,3.62-5.77,5.16-3.38,1.74-7.77,3-12.7,3.66-.02,0-.02,0-.03,0ZM85.15,50.79c-.55,0-1.17.08-1.84.24-2.3.55-5.03,2-7.49,3.98-1.92,1.54-4.57,4.13-6.43,7.73,4.79-.66,9.05-1.91,12.34-3.6,2.93-1.51,4.94-3.29,5.64-5.02.43-1.05.33-2.03-.28-2.82-.48-.34-1.13-.52-1.94-.52Z"></path><path class="cls-5" d="M87.33,51.21c-4.3-2.54-15.36,7.03-18.14,11.85-8.65-12.22-10.73-25.08-12.54-30.22,2.49-1.66,5.47-2.7,8.44-2.17,10.3,1.84,21.89,19.48,22.24,20.54Z"></path><path class="cls-4" d="M69.14,63.06s-.09-.02-.12-.06c-.03-.04-2.96-4.24-5.89-10.25-.03-.07,0-.15.06-.18.07-.03.15,0,.19.06,2.92,5.98,5.83,10.17,5.87,10.21.04.07.03.15-.03.2-.03.01-.06.02-.08.02Z"></path><path class="cls-2" d="M24.15,58.58c-5.69-2.74-16.52-8.89-19.06-5.89-2.04,2.97,4.9,7.28,19.06,5.89Z"></path><path class="cls-2" d="M18.89,58.99c-2.94,0-5.6-.27-7.88-.82-3.05-.73-5.27-1.92-6.07-3.29-.46-.78-.44-1.56.04-2.27,0,0,0,0,0,0,2.26-2.67,10.52,1.49,16.55,4.52.96.49,1.87.94,2.67,1.33.06.03.09.09.07.15,0,.06-.06.11-.12.12-1.83.18-3.59.27-5.27.27ZM5.2,52.78c-.42.61-.43,1.3-.03,1.97.77,1.3,2.92,2.45,5.89,3.16,3.43.81,7.77,1.02,12.58.58-.69-.34-1.44-.72-2.23-1.11-2.89-1.45-6.49-3.26-9.57-4.36-1.66-.59-3.04-.92-4.11-.99-1.19-.07-2.04.18-2.53.75Z"></path><path class="cls-4" d="M26.74,60.34s-.03,0-.05,0c-.07-.03-.11-.11-.08-.18.03-.08,3.14-7.84,5.75-11.87.04-.06.13-.08.19-.04.06.04.08.13.04.19-2.6,4.01-5.7,11.75-5.72,11.82-.02.06-.07.09-.13.09Z"></path><path class="cls-4" d="M57.69,47.29c-.14.06-.28.12-.43.13-.18.02-.36.03-.54.02h-.01c.42.47.43,1.04-.2,1.66-.13.12-.28.23-.45.3-.13.06-.27.11-.42.14,0,0,0,0,0,0,.62.62.67,1.29-.29,1.81-.19.1-.38.18-.59.24-.17.05-.33.08-.5.1h0c.47.61.51,1.27-.14,1.88-.76.71-3.09.96-3.78,1.03-1.24.14-2.14.18-2.84.14-.21-.01-.4-.03-.58-.06,0,0-.01,0-.02,0-.22.2-.43.42-.63.63-1.84,1.98-8.13,14.43-19.97,18.27-7.84,2.54-14.9-1.3-17.03-6.25-2.49-5.79-.29-11.89,1.17-14.97.99.25,5.08,1.87,6.75,2.5,4.44,1.67,6.01,2.85,6.51,3.08,10.46-9.07,19.81-15,27.04-15.14,6.5-.13,9.52,3.29,6.96,4.49Z"></path><path class="cls-2" d="M21.29,74.52c-.23,0-.45,0-.68-.01-1.76-.08-3.45-.45-5.03-1.12-2.99-1.25-5.34-3.44-6.44-6.01-1.1-2.56-1.41-5.45-.91-8.58.34-2.12,1.04-4.31,2.07-6.51.03-.06.1-.09.16-.07.74.19,3.14,1.11,5.07,1.85.68.26,1.27.49,1.7.65,3.51,1.32,5.23,2.33,6.06,2.82.17.1.3.18.39.23,11.59-10.04,20.44-14.98,27.06-15.12,1.49-.03,3.67.11,5.59.96,1.33.59,2.2,1.39,2.38,2.19.15.66-.19,1.25-.95,1.6-.17.08-.33.13-.48.14-.1.01-.19.02-.29.02.3.51.17,1.07-.38,1.61-.14.14-.31.25-.49.33-.07.03-.15.06-.23.09.26.31.37.63.33.93-.05.36-.32.67-.81.93-.19.11-.4.19-.62.25-.1.03-.2.06-.31.07.41.66.31,1.31-.29,1.88-.78.73-3.06.98-3.81,1.06h-.05c-1.2.14-2.14.19-2.86.14-.2-.01-.38-.03-.54-.05-.2.19-.39.38-.57.58-.34.36-.85,1.12-1.5,2.08-2.88,4.25-8.87,13.1-18.53,16.23-1.67.54-3.36.81-5.04.81ZM10.49,52.52c-1,2.14-1.67,4.27-2,6.33-.49,3.08-.19,5.92.89,8.42,1.07,2.5,3.37,4.63,6.3,5.86,1.55.65,3.22,1.02,4.94,1.1,1.86.08,3.76-.18,5.62-.79,9.57-3.1,15.53-11.89,18.39-16.12.68-1.01,1.18-1.74,1.53-2.12.2-.21.41-.43.63-.64.03-.03.07-.04.11-.04,0,0,0,0,.01,0h0c.17.03.36.05.56.06.7.04,1.62,0,2.81-.14h.05c1.95-.22,3.18-.56,3.65-1,.55-.52.6-1.09.13-1.69-.03-.04-.04-.09-.02-.13.02-.05.06-.08.1-.09,0,0,.01,0,.02,0,.16-.02.32-.05.48-.1.19-.06.38-.14.56-.23.4-.21.62-.46.66-.72.05-.32-.19-.65-.41-.86-.04-.04-.05-.1-.03-.15.02-.04.06-.07.1-.08h0c.13-.03.26-.07.39-.13.15-.07.29-.16.41-.27.53-.52.6-1.01.19-1.47-.04-.04-.05-.11-.02-.15.02-.05.08-.08.13-.07h.02c.17,0,.34,0,.5-.02.12-.01.25-.05.39-.12.64-.3.92-.76.8-1.29-.17-.7-1-1.45-2.23-2-1.03-.46-2.82-1-5.47-.94-6.57.13-15.38,5.08-26.95,15.11-.04.04-.1.04-.15.02-.12-.05-.27-.15-.5-.28-.82-.48-2.52-1.49-6.01-2.8-.43-.16-1.02-.39-1.71-.65-1.83-.7-4.09-1.57-4.92-1.81Z"></path><path class="cls-2" d="M20.7,60.74s-.07-.01-.1-.05c-.05-.06-.05-.14,0-.19,2.11-1.97,3.65-3.24,3.66-3.24.06-.05.15-.04.19.02.05.06.04.15-.02.19-.01.01-1.55,1.27-3.65,3.24-.02.02-.06.04-.09.04Z"></path><path class="cls-5" d="M14.59,54.18c-4.37-1.8-8.31-2.94-9.57-1.63.72-1.62,19.19-21.04,27.38-22.07,3.82-1.23,8.12-1.12,11.3,1.52-13.05,16.38-16.93,28.18-16.93,28.18,0,0-10.01-5.1-12.18-6.01Z"></path><path class="cls-4" d="M26.74,60.34s-.03,0-.05,0c-.07-.03-.11-.11-.08-.18.03-.08,3.14-7.84,5.75-11.87.04-.06.13-.08.19-.04.06.04.08.13.04.19-2.6,4.01-5.7,11.75-5.72,11.82-.02.06-.07.09-.13.09Z"></path><path class="cls-2" d="M56.79,47.69s-.08-.02-.11-.06c-1.74-2.23-5.35-2.04-5.39-2.04-.08,0-.14-.06-.15-.13,0-.07.06-.14.13-.15.04,0,.96-.06,2.11.18,1.54.32,2.75.99,3.51,1.96.05.06.04.15-.02.19-.02.03-.06.04-.08.04ZM55.73,49.78s-.07-.01-.1-.04c-1.74-1.78-5.03-1.59-5.07-1.59-.08,0-.14-.05-.15-.13,0-.08.05-.14.13-.15.04,0,.87-.06,1.94.12.99.17,2.38.57,3.34,1.55.06.06.05.14,0,.19-.03.03-.06.04-.1.04ZM54.29,51.9s-.09-.02-.12-.06c-.96-1.44-4.27-1.11-4.3-1.11-.07,0-.14-.05-.15-.12,0-.07.05-.14.12-.15.14-.01,3.51-.35,4.56,1.23.04.06.02.15-.04.19-.03.01-.06.02-.08.02ZM46.75,54.96s-.06,0-.09-.04c-.06-.05-.06-.14-.01-.19.02-.03.57-.64,1.57-1.13.92-.45,2.4-.88,4.26-.34.07.02.12.1.09.17-.02.07-.1.12-.17.09-1.42-.41-2.78-.31-4.05.32-.95.47-1.49,1.06-1.49,1.07-.03.03-.06.05-.1.05Z"></path><path class="cls-4" d="M20.7,60.6c.88-.79,2.27-2.04,2.98-2.67,10.46-9.06,19.81-14.99,27.04-15.14,6.5-.13,9.52,3.29,6.96,4.49-.14.06-.28.12-.43.13-.18.02-.36.03-.54.02h-.01c.42.47.43,1.04-.2,1.66-.13.12-.28.23-.45.3-.13.06-.27.11-.42.14,0,0,0,0,0,0,.62.62.67,1.29-.29,1.81-.19.1-.38.18-.59.24-.17.05-.33.08-.5.1h0c.47.61.51,1.27-.14,1.88-.76.71-3.09.96-3.78,1.03-1.24.14-2.14.18-2.84.14-.21-.01-.4-.03-.58-.06,0,0-.01,0-.02,0-.22.2-.43.42-.63.63-1.84,1.98-8.13,14.43-19.97,18.27-7.84,2.54-14.9-1.3-17.03-6.25"></path><path class="cls-2" d="M21.28,74.52c-.23,0-.45,0-.68-.01-1.76-.08-3.45-.45-5.03-1.11-2.99-1.25-5.34-3.44-6.44-6.01-.03-.07,0-.15.07-.18.07-.03.15,0,.18.07,1.07,2.5,3.37,4.63,6.3,5.86,1.55.65,3.22,1.02,4.94,1.1,1.86.08,3.76-.18,5.62-.79,9.57-3.1,15.53-11.89,18.39-16.12.68-1.01,1.18-1.74,1.53-2.11.2-.21.41-.43.63-.64.03-.03.07-.04.11-.04,0,0,0,0,.01,0h0c.17.03.36.05.56.06.7.04,1.62,0,2.81-.14h.05c1.95-.22,3.18-.56,3.66-.99.55-.52.6-1.09.13-1.69-.03-.04-.04-.09-.02-.13.02-.05.06-.08.1-.09,0,0,.01,0,.02,0,.16-.02.32-.05.48-.1.19-.06.38-.13.56-.23.4-.21.62-.46.66-.72.05-.32-.19-.65-.41-.86-.04-.04-.05-.1-.03-.15.02-.04.06-.07.1-.08h0c.13-.03.26-.07.39-.13.15-.07.29-.16.41-.27.53-.52.6-1.01.19-1.47-.04-.04-.05-.11-.02-.15.02-.05.07-.08.13-.07h.02c.17,0,.34,0,.5-.02.12-.01.25-.05.39-.12.64-.3.92-.76.8-1.29-.17-.7-1-1.45-2.23-2-1.03-.46-2.82-1-5.47-.94-6.57.13-15.38,5.08-26.95,15.11-.52.46-1.41,1.25-2.19,1.95-.29.25-.56.5-.8.71-.06.05-.14.05-.19-.01-.05-.06-.05-.14,0-.19.24-.21.51-.45.8-.71.78-.7,1.67-1.5,2.19-1.96,11.63-10.08,20.51-15.05,27.14-15.18,2.7-.06,4.53.5,5.59.96,1.33.59,2.2,1.39,2.38,2.19.15.66-.19,1.25-.95,1.6-.17.08-.33.13-.48.14-.1.01-.19.02-.29.02.3.51.17,1.07-.38,1.61-.14.14-.31.25-.49.33-.07.03-.15.07-.23.09.26.31.37.63.33.93-.05.36-.32.67-.81.93-.19.11-.4.19-.62.25-.1.03-.2.06-.31.07.41.66.31,1.31-.29,1.88-.78.73-3.06.98-3.81,1.06h-.05c-1.2.14-2.14.18-2.86.14-.2-.01-.38-.03-.54-.05-.2.19-.39.38-.57.58-.34.37-.85,1.12-1.5,2.08-2.88,4.25-8.87,13.1-18.53,16.23-1.67.54-3.36.81-5.04.81Z"></path><path class="cls-2" d="M56.79,47.69s-.08-.02-.11-.06c-1.74-2.23-5.35-2.04-5.39-2.04-.08,0-.14-.06-.15-.13,0-.07.06-.14.13-.15.04,0,.96-.06,2.11.18,1.54.32,2.75.99,3.51,1.96.05.06.04.15-.02.19-.02.03-.06.04-.08.04ZM55.73,49.78s-.07-.01-.1-.04c-1.74-1.78-5.03-1.59-5.07-1.59-.08,0-.14-.05-.15-.13,0-.08.05-.14.13-.15.04,0,.87-.06,1.94.12.99.17,2.38.57,3.34,1.55.06.06.05.14,0,.19-.03.03-.06.04-.1.04ZM54.29,51.9s-.09-.02-.12-.06c-.96-1.44-4.27-1.11-4.3-1.11-.07,0-.14-.05-.15-.12,0-.07.05-.14.12-.15.14-.01,3.51-.35,4.56,1.23.04.06.02.15-.04.19-.03.01-.06.02-.08.02ZM46.75,54.96s-.06,0-.09-.04c-.06-.05-.06-.14-.01-.19.02-.03.57-.64,1.57-1.13.92-.45,2.4-.88,4.26-.34.07.02.12.1.09.17-.02.07-.1.12-.17.09-1.42-.41-2.78-.31-4.05.32-.95.47-1.49,1.06-1.49,1.07-.03.03-.06.05-.1.05Z"></path><path class="cls-2" d="M54.25,16.11v-.16s0-.1.02-.14c.01-.09.03-.19.06-.28.05-.18.12-.36.21-.52.19-.35.46-.65.79-.87.17-.12.36-.22.56-.28.2-.07.41-.11.62-.11.21,0,.42.02.61.08.19.06.37.16.53.29.06.05.1.11.13.18.03.07.04.14.03.22,0,.07-.03.15-.07.21-.04.06-.09.12-.16.15l-.08.04c-.15.09-.28.14-.39.21-.12.06-.21.12-.31.17-.18.1-.35.19-.52.3-.18.1-.36.23-.57.37l-.33.23c-.06.04-.12.08-.18.12-.14.1-.29.17-.47.18-.09,0-.18,0-.26-.03-.11-.05-.19-.15-.21-.27,0-.03,0-.05,0-.08ZM59.34,14.41c.03.05.08.1.13.13.04.02.08.04.12.05l.08.02c.15.04.28.05.39.08.11.02.22.05.31.06.19.04.35.08.53.12.15.04.3.08.47.14-.04-.71-.05-1.24-.06-1.63,0,0,.01,0,.02,0-.17-.05-.35-.09-.54-.1-.16,0-.33,0-.49.04-.03,0-.05.01-.08.02-.18.05-.36.13-.51.23-.15.1-.28.23-.38.39-.09.15-.08.32,0,.46Z"></path><ellipse class="cls-2" cx="57.72" cy="17.01" rx=".36" ry=".72" transform="translate(-1.61 6.98) rotate(-6.82)"></ellipse><ellipse class="cls-2" cx="60.62" cy="16.7" rx=".36" ry=".72" transform="translate(-1.55 7.32) rotate(-6.82)"></ellipse></g><g class="cls-8"><path class="cls-6" d="M58.36,47.83c-1.79-1.72-3.95-2.37-4.84-1.45l-1.37,1.42c-.89.92-.16,3.07,1.62,4.79s3.95,2.37,4.84,1.45l1.37-1.42c.89-.92.16-3.07-1.62-4.79Z"></path><g class="cls-17"><path class="cls-2" d="M53.19,48.83c-.04-.11-.08-.22-.12-.33-.33-1.02-.28-1.92.23-2.44l.23.22c-.42.44-.45,1.22-.15,2.12.3.94.96,1.92,1.85,2.78.89.86,1.9,1.48,2.84,1.75.91.26,1.65.16,2.07-.28l.23.22c-.51.53-1.36.65-2.38.36-.99-.28-2.05-.93-2.98-1.82-.82-.79-1.45-1.7-1.81-2.58Z"></path><path class="cls-2" d="M58.99,53.46c-.32,0-.66-.05-1.03-.16-1.01-.29-2.07-.94-3.01-1.84-.83-.8-1.46-1.7-1.83-2.6-.04-.11-.09-.22-.12-.34-.36-1.09-.27-1.99.24-2.52l.05-.05.33.32-.05.05c-.39.4-.44,1.13-.14,2.05.3.92.95,1.9,1.83,2.75.88.85,1.88,1.46,2.81,1.73.88.25,1.59.16,2-.26l.05-.05.33.32-.05.05c-.34.36-.83.54-1.43.54ZM53.26,48.8c.35.87.99,1.78,1.79,2.55.92.89,1.96,1.53,2.95,1.81.97.28,1.77.17,2.26-.29l-.12-.12c-.45.42-1.19.5-2.09.25-.96-.27-1.98-.9-2.87-1.77-.9-.86-1.56-1.86-1.87-2.81-.3-.94-.26-1.69.12-2.14l-.12-.12c-.43.5-.49,1.32-.16,2.32.04.11.08.22.12.33Z"></path><path class="cls-2" d="M53.62,52.48l1.32-1.37.23.22-1.32,1.37-.23-.22Z"></path><path class="cls-2" d="M53.84,52.8l-.33-.32,1.42-1.48.33.32-1.42,1.48ZM53.72,52.47l.12.12,1.22-1.27-.12-.12-1.22,1.27ZM51.61,49.46l1.39-1.44.23.22-1.39,1.44-.23-.22Z"></path><path class="cls-2" d="M51.84,49.78l-.33-.32,1.49-1.55.33.32-1.49,1.55ZM51.71,49.46l.12.12,1.29-1.34-.12-.12-1.29,1.34ZM52.41,51.18l1.37-1.42.23.22-1.37,1.42-.23-.22Z"></path><path class="cls-2" d="M52.64,51.5l-.33-.32,1.47-1.53.33.32-1.47,1.53ZM52.51,51.17l.12.12,1.27-1.32-.12-.12-1.27,1.32ZM55.78,54.07l1.37-1.42.23.22-1.37,1.42-.23-.22Z"></path><path class="cls-2" d="M56.01,54.39l-.33-.32,1.47-1.53.33.32-1.47,1.53ZM55.89,54.07l.12.12,1.27-1.32-.12-.12-1.27,1.32Z"></path></g><path class="cls-2" d="M55.99,48.34c0-.18,0-.38.02-.59,0-.03.02-.06.04-.08.02-.02.06-.03.09-.03.03,0,.06.02.08.04.02.02.03.06.03.09-.09,1.25.11,1.78.33,1.87.14.05.34-.06.53-.31.25-.32.47-.28.58-.22.45.23.58,1.5.35,2.28,0,.03-.03.06-.06.07-.03.01-.06.02-.09,0-.03,0-.06-.03-.07-.06-.02-.03-.02-.06-.01-.09h0c.23-.75.06-1.85-.23-1.99-.09-.05-.2.06-.28.16-.27.35-.56.49-.81.39-.33-.13-.5-.65-.5-1.52Z"></path><path class="cls-2" d="M57.92,51.53s-.06,0-.09-.02c-.03-.01-.05-.03-.07-.06-.02-.02-.03-.05-.04-.08,0-.03,0-.06,0-.09h0c.1-.33.13-.78.07-1.19-.05-.43-.17-.67-.26-.71-.03-.01-.1.02-.19.14-.29.37-.61.52-.89.41-.37-.14-.55-.68-.55-1.59,0-.18,0-.38.02-.6,0-.03,0-.05.02-.07.01-.02.03-.04.05-.06.02-.02.04-.03.07-.04.02,0,.05-.01.08,0,.05,0,.1.03.13.07.03.04.05.09.05.14-.09,1.29.13,1.74.28,1.79.1.04.28-.07.45-.29.3-.38.57-.3.67-.24.49.25.63,1.55.38,2.36,0,.03-.02.05-.04.07-.02.02-.04.04-.06.05-.03.01-.06.02-.09.02ZM57.53,49.23s.06,0,.08.02c.34.17.48,1.34.26,2.08,0,0,0,.01,0,.02,0,0,0,.01,0,.02,0,0,0,.01.01.01,0,0,.01,0,.02,0s.01,0,.02,0c0,0,.01,0,.02,0,0,0,.01,0,.01-.01,0,0,0-.01,0-.02.24-.8.07-1.99-.31-2.19-.11-.06-.28-.07-.49.2-.22.28-.44.4-.61.33-.31-.12-.45-.85-.37-1.94,0,0,0-.01,0-.02,0,0,0-.01,0-.02,0,0,0,0-.01-.01,0,0-.01,0-.02,0,0,0-.01,0-.02,0s-.01,0-.02.01,0,0-.01.01c0,0,0,.01,0,.02-.01.21-.02.41-.02.59,0,.83.16,1.33.46,1.45.22.08.47-.05.73-.36.12-.15.22-.2.29-.2Z"></path><path class="cls-2" d="M55.4,48.07s0-.05.02-.07c.01-.02.03-.04.05-.04.02,0,.05-.01.07,0,.02,0,.05.01.06.03l.55.53s.04.05.04.08c0,.03-.01.06-.03.09-.02.02-.05.04-.08.04-.03,0-.06-.01-.09-.03h0s-.55-.53-.55-.53c-.01-.01-.02-.03-.03-.04,0-.01,0-.03,0-.05Z"></path><path class="cls-2" d="M56.07,48.79s-.1-.02-.13-.05h0s-.55-.53-.55-.53c-.02-.02-.03-.04-.04-.06-.01-.02-.02-.05-.02-.08,0-.05.02-.1.06-.14.04-.04.09-.06.14-.06s.1.02.13.05l.55.52s.06.08.06.13c0,.05-.02.1-.05.14-.02.02-.04.04-.06.05-.02.01-.05.02-.08.02ZM55.52,48.02s-.03,0-.03.01c0,0-.01.02-.01.03,0,.01,0,.03.01.04l.55.52s.05.02.07,0c0,0,.01-.02.01-.03,0-.01,0-.03-.02-.03l-.55-.53s-.02-.01-.03-.01ZM57.91,50.46s0-.05.02-.07c.01-.02.03-.04.05-.04.02,0,.05-.01.07,0,.02,0,.05.01.06.03l.56.53s.04.05.04.08c0,.03-.01.06-.03.09-.02.02-.05.04-.08.04-.03,0-.06-.01-.09-.03l-.56-.53s-.02-.03-.03-.04,0-.03,0-.05Z"></path><path class="cls-2" d="M58.59,51.18s-.1-.02-.13-.05l-.56-.53s-.03-.04-.04-.06c-.01-.02-.02-.05-.02-.08,0-.03,0-.05.01-.07,0-.02.02-.04.04-.06.02-.02.04-.03.06-.04.02-.01.05-.01.07-.01h0s.1.02.13.05l.56.53s.06.08.06.14c0,.05-.02.1-.05.14-.02.02-.04.03-.06.04-.02.01-.05.02-.07.02h0ZM57.98,50.45s0,.03.02.03l.56.53s.02.01.03.01c0,0,.02,0,.03,0,0,0,.01-.01.02-.02,0,0,0-.02,0-.03,0-.01,0-.02-.01-.03l-.56-.53s-.02-.01-.03-.01h0s-.01,0-.02,0c0,0-.01,0-.02.01,0,0,0,.01-.01.02,0,0,0,.01,0,.02Z"></path></g><g class="cls-23"><path class="cls-6" d="M62.51,73.06h-7.54c-.07,0-.13-.03-.18-.07-.05-.05-.07-.11-.07-.18v-1.8c0-.07.03-.13.07-.18.05-.05.11-.07.18-.07h7.54s.07,0,.1.02c.03.01.06.03.08.06.02.02.04.05.05.08.01.03.02.06.02.1v1.8s0,.07-.02.1c-.01.03-.03.06-.05.08-.02.02-.05.04-.08.06s-.06.02-.1.02Z"></path><g class="cls-22"><path class="cls-2" d="M63.46,73.08h-8.74s-.08-.01-.1-.04c-.03-.03-.04-.06-.04-.1s.02-.07.04-.1c.03-.03.06-.04.1-.04h8.74s.08.01.1.04c.03.03.04.06.04.1,0,.04-.02.07-.04.1-.03.03-.06.04-.1.04Z"></path></g><g class="cls-28"><path class="cls-2" d="M56.45,72.98s-.08-.02-.1-.04c-.03-.03-.04-.06-.04-.1v-2.07s.02-.08.04-.1c.03-.03.06-.04.1-.04s.08.01.1.04c.03.03.04.06.04.1v2.07s-.02.07-.04.1c-.03.03-.06.04-.1.04ZM61.15,72.98s-.08-.02-.1-.04c-.03-.03-.04-.06-.04-.1v-2.07s.02-.08.04-.1c.03-.03.06-.04.1-.04s.08.01.1.04c.03.03.04.06.04.1v2.07s-.02.07-.04.1c-.03.03-.06.04-.1.04ZM58.87,72.94s-.08-.01-.1-.04c-.03-.03-.04-.06-.04-.1v-2.07s.02-.07.04-.1c.03-.03.06-.04.1-.04s.08.01.1.04c.03.03.04.06.04.1v2.07s-.02.08-.04.1c-.03.03-.06.04-.1.04Z"></path></g><path class="cls-6" d="M50.79,66.31h-7.54c-.07,0-.13-.03-.18-.07-.05-.05-.07-.11-.07-.18v-1.8c0-.07.03-.13.07-.18.05-.05.11-.07.18-.07h7.54c.07,0,.13.03.18.07.05.05.07.11.07.18v1.8c0,.07-.03.13-.07.18-.05.05-.11.07-.18.07Z"></path><g class="cls-18"><path class="cls-2" d="M51.74,66.32h-8.74s-.08-.02-.1-.04c-.03-.03-.04-.06-.04-.1s.02-.08.04-.1c.03-.03.06-.04.1-.04h8.74s.08.01.1.04c.03.03.04.06.04.1s-.02.07-.04.1c-.03.03-.06.04-.1.04Z"></path></g><g class="cls-13"><path class="cls-2" d="M44.72,66.17s-.08-.02-.1-.04c-.03-.03-.04-.06-.04-.1v-2.07s.02-.08.04-.1c.03-.03.06-.04.1-.04s.08.01.1.04c.03.03.04.06.04.1v2.07s-.02.07-.04.1c-.03.03-.06.04-.1.04ZM49.27,66.22s-.08-.01-.1-.04c-.03-.03-.04-.07-.04-.1v-2.08s.02-.07.04-.1c.03-.03.06-.04.1-.04s.08.02.1.04c.03.03.04.06.04.1v2.08s-.02.07-.04.1c-.03.03-.06.04-.1.04ZM47.04,66.14s-.08-.02-.1-.04c-.03-.03-.04-.06-.04-.1v-2.07s.02-.07.04-.1c.03-.03.06-.04.1-.04s.08.01.1.04c.03.03.04.06.04.1v2.07s-.02.08-.04.1c-.03.03-.06.04-.1.04Z"></path></g><path class="cls-6" d="M49.63,68.58h-7.54c-.07,0-.13-.03-.18-.07-.05-.05-.07-.11-.07-.18v-1.8c0-.07.03-.13.07-.18.05-.05.11-.07.18-.07h7.54s.07,0,.1.02c.03.01.06.03.08.06.02.02.04.05.05.08.01.03.02.06.02.1v1.8c0,.07-.03.13-.07.18-.05.05-.11.07-.18.07Z"></path><g class="cls-1"><path class="cls-2" d="M50.58,68.59h-8.74s-.08-.02-.1-.04c-.03-.03-.04-.06-.04-.1s.02-.07.04-.1c.03-.03.06-.04.1-.04h8.74s.08.01.1.04c.03.03.04.06.04.1s-.02.08-.04.1c-.03.03-.06.04-.1.04Z"></path></g><g class="cls-30"><path class="cls-2" d="M43.5,68.49s-.08-.02-.1-.04c-.03-.03-.04-.06-.04-.1v-2.07s.02-.08.04-.1c.03-.03.06-.04.1-.04s.08.01.1.04c.03.03.04.06.04.1v2.07s-.02.08-.04.1c-.03.03-.06.04-.1.04ZM48.21,68.54s-.08-.01-.1-.04c-.03-.03-.04-.06-.04-.1v-2.08s.02-.07.04-.1c.03-.03.06-.04.1-.04s.08.02.1.04c.03.03.04.06.04.1v2.08s-.02.07-.04.1c-.03.03-.06.04-.1.04ZM45.88,68.46s-.08-.01-.1-.04c-.03-.03-.04-.06-.04-.1v-2.07s.02-.08.04-.1c.03-.03.06-.04.1-.04s.08.01.1.04c.03.03.04.06.04.1v2.07s-.02.08-.04.1c-.03.03-.06.04-.1.04Z"></path></g><path class="cls-6" d="M51.28,70.85h-7.54c-.07,0-.13-.03-.18-.07-.05-.05-.07-.11-.07-.18v-1.8c0-.07.03-.13.07-.18.05-.05.11-.07.18-.07h7.54c.07,0,.13.03.18.07.05.05.07.11.07.18v1.8c0,.07-.03.13-.07.18-.05.05-.11.07-.18.07Z"></path><g class="cls-16"><path class="cls-2" d="M52.23,70.86h-8.74s-.08-.01-.1-.04c-.03-.03-.04-.07-.04-.1s.02-.08.04-.1c.03-.03.06-.04.1-.04h8.74s.08.01.1.04c.03.03.04.07.04.1s-.02.07-.04.1c-.03.03-.06.04-.1.04Z"></path></g><g class="cls-9"><path class="cls-2" d="M45.25,70.81s-.08-.01-.1-.04c-.03-.03-.04-.06-.04-.1v-2.07s.02-.08.04-.1c.03-.03.06-.04.1-.04s.08.02.1.04c.03.03.04.06.04.1v2.07s-.02.08-.04.1c-.03.03-.06.04-.1.04ZM49.91,70.77s-.08-.02-.1-.04c-.03-.03-.04-.06-.04-.1v-2.08s.02-.07.04-.1c.03-.03.06-.04.1-.04s.08.01.1.04c.03.03.04.06.04.1v2.08s-.02.07-.04.1c-.03.03-.06.04-.1.04ZM47.58,70.63s-.08-.02-.1-.04c-.03-.03-.04-.06-.04-.1v-2.07s.02-.08.04-.1c.03-.03.06-.04.1-.04s.08.02.1.04c.03.03.04.06.04.1v2.07s-.02.07-.04.1c-.03.03-.06.04-.1.04Z"></path></g><path class="cls-6" d="M50.07,73.12h-7.54c-.07,0-.13-.03-.18-.07-.05-.05-.07-.11-.07-.18v-1.8c0-.07.03-.13.07-.18.05-.05.11-.07.18-.07h7.54c.07,0,.13.03.18.07.05.05.07.11.07.18v1.8c0,.07-.03.13-.07.18-.05.05-.11.07-.18.07Z"></path><g class="cls-29"><path class="cls-2" d="M51.01,73.14h-8.74s-.08-.02-.1-.04c-.03-.03-.04-.06-.04-.1s.02-.07.04-.1c.03-.03.06-.04.1-.04h8.74s.08.02.1.04c.03.03.04.06.04.1s-.02.08-.04.1c-.03.03-.06.04-.1.04Z"></path></g><g class="cls-21"><path class="cls-2" d="M44.13,73.09s-.08-.02-.1-.04c-.03-.03-.04-.06-.04-.1v-2.07s.02-.08.04-.1c.03-.03.06-.04.1-.04s.08.01.1.04c.03.03.04.06.04.1v2.07s-.02.08-.04.1c-.03.03-.06.04-.1.04ZM48.64,73.04s-.08-.01-.1-.04c-.03-.03-.04-.06-.04-.1v-2.07s.02-.08.04-.1c.03-.03.06-.04.1-.04s.08.01.1.04c.03.03.04.06.04.1v2.07s-.02.08-.04.1c-.03.03-.06.04-.1.04ZM46.46,73.05s-.08-.01-.1-.04c-.03-.03-.04-.06-.04-.1v-2.07s0-.04.01-.06c0-.02.02-.03.03-.05.01-.01.03-.02.05-.03.02,0,.04-.01.06-.01s.04,0,.06.01c.02,0,.03.02.05.03.01.01.02.03.03.05,0,.02.01.04.01.06v2.07s-.02.08-.04.1c-.03.03-.06.04-.1.04Z"></path></g></g><g class="cls-15"><path class="cls-2" d="M33.18,18.43c.32.81-.08.12-.21.68-.19.82-4.24.02-5.82-1.47-1.35-1.27-1.72-3.14-.53-4.64,1.49-1.68,2.8-.93,3.23.35,1.24,3.68,1.38,3.87,3.33,5.08ZM28.05,32.57c1.1.89,1.21.28,3.18-.05,3.33-.56,4.54.25,5.12.7.79.62.8,1.62,1.56,1.8,1.01.24,1.52-1.8,1-3.25-.88-2.41-4.51-3.17-4.51-3.17,0,0-7.45,3.08-6.35,3.97Z"></path><path class="cls-2" d="M38.07,35.18c-.06,0-.13,0-.19-.02-.48-.12-.69-.5-.92-.91-.18-.32-.36-.65-.7-.92-.44-.34-1.59-1.25-5.01-.68-.63.11-1.06.24-1.4.34-.75.23-1.08.33-1.89-.32-.13-.1-.18-.24-.16-.38.03-.19.11-.77,3.37-2.38,1.58-.78,3.17-1.44,3.18-1.45.03,0,.06-.01.08,0,.04,0,.94.2,1.96.69,1.36.66,2.28,1.55,2.65,2.57.38,1.07.24,2.52-.33,3.15-.19.21-.41.32-.64.32ZM33.27,32.19c2,0,2.81.64,3.17.92.38.3.58.67.76,1,.21.38.38.69.74.77.21.05.4-.02.57-.2.5-.55.63-1.89.28-2.86-.79-2.18-3.96-2.98-4.36-3.08-2.41,1-6.23,2.84-6.34,3.59,0,.04,0,.08.06.13.69.56.93.49,1.63.27.35-.11.79-.24,1.44-.35.81-.13,1.49-.19,2.07-.19ZM10.27,45.44s.05.01.08.02h.04c.07.03.14.05.22.07.03,0,.06.01.09.02.02,0,.04,0,.06.01.02,0,.03,0,.05,0l-.25-2.37-.05-.44c-.05,0-.2,0-.34,0s-.27,0-.31,0h0c-1.08-.07-2.11-.51-2.93-1.23-.57-.51-1.18-.44-.75.58.7,1.63,2.41,2.84,4.09,3.33Z"></path><path class="cls-2" d="M10.81,45.71s-.02,0-.03,0h-.05s-.04-.02-.06-.02c-.03,0-.06-.01-.09-.02-.07-.02-.14-.03-.22-.06h-.05s-.05-.03-.07-.03c-1.88-.54-3.52-1.88-4.17-3.41-.27-.63-.14-.9,0-1.01.22-.16.6-.05.96.28.79.7,1.8,1.12,2.85,1.2h.05c.06,0,.15,0,.25,0,.25,0,.31,0,.33,0,.07,0,.14.05.15.13l.29,2.81s-.01.09-.05.12c-.03.02-.06.03-.1.03ZM6.31,41.36s-.06,0-.08.02c-.06.04-.11.23.09.68.63,1.46,2.19,2.73,4,3.25h0s.04.01.06.02h.05c.07.03.14.05.21.07,0,0,0,0,0,0l-.26-2.49h-.22c-.1,0-.19,0-.25,0h-.07c-1.11-.08-2.18-.53-3.01-1.26-.23-.2-.42-.28-.53-.28Z"></path><path class="cls-4" d="M29.58,32.89c4.82-2.79,8.27-5.63,8.68-7.58.07-.36.04-.64-.13-.82-.17-.18-.39-.31-.63-.37-.56-.16-1.33-.11-2.23.14.88-1.17,1.21-4.48-.9-5.97-1.68-1.19-4.15-1.32-7.6.24-4.34,1.96-7.42,5.45-11.04,10.41-4.76,6.53-5.93,12.79-4.92,17.23,8.12-8.38,12.25-10.22,18.77-13.28Z"></path><path class="cls-2" d="M10.81,46.31s-.02,0-.04,0c-.05-.01-.09-.06-.1-.1-.53-2.35-.43-5.09.3-7.9.82-3.16,2.38-6.34,4.65-9.44,2.11-2.9,3.68-4.79,5.26-6.35,1.89-1.86,3.74-3.16,5.83-4.11,3.26-1.47,5.86-1.55,7.74-.23,1.07.76,1.45,1.89,1.57,2.7.18,1.12,0,2.36-.45,3.16.79-.18,1.46-.2,1.96-.05.26.07.51.21.7.41.2.21.25.53.17.94h0c-.2.98-1.12,2.18-2.73,3.56-1.49,1.28-3.56,2.71-6.01,4.12,0,0,0,0,0,0l-.39.19c-6.26,2.93-10.4,4.87-18.34,13.06-.03.02-.06.04-.1.04ZM31.31,17.51c-1.3,0-2.8.38-4.48,1.14-2.06.93-3.89,2.22-5.75,4.05-1.57,1.54-3.13,3.43-5.23,6.31-2.24,3.08-3.79,6.23-4.6,9.35-.7,2.67-.81,5.26-.35,7.52,7.86-8.08,12-10.02,18.24-12.93l.38-.18c5.09-2.96,8.23-5.68,8.61-7.49h0c.07-.33.03-.57-.1-.7-.15-.16-.35-.27-.56-.33h0c-.52-.15-1.27-.11-2.16.14-.06.01-.12,0-.15-.06-.03-.05-.03-.12,0-.16.45-.6.8-1.92.59-3.26-.12-.76-.47-1.82-1.46-2.52-.83-.59-1.83-.89-2.98-.89Z"></path><path class="cls-2" d="M13.31,32.83c1.52.32,2.57,2.99,1.81,5.72-.76,2.73-2.58,5.09-4.65,4.1.12-3.37,1.14-6.63,2.85-9.82Z"></path><path class="cls-2" d="M39.25,24.37c.29-.69.16-1.4-.29-1.59-.45-.19-1.05.22-1.34.91-.29.69-.16,1.4.29,1.59.45.19,1.05-.22,1.34-.91Z"></path><path class="cls-2" d="M38.15,25.46c-.1,0-.2-.02-.29-.06-.53-.22-.69-1-.36-1.77.32-.77,1-1.2,1.52-.98.26.11.44.37.51.71.06.33,0,.7-.14,1.06-.27.63-.77,1.04-1.23,1.04ZM38.73,22.87c-.35,0-.76.35-.98.87-.26.61-.16,1.26.21,1.41.37.16.9-.22,1.16-.83.13-.31.18-.63.13-.9-.05-.25-.17-.43-.34-.5-.06-.03-.12-.04-.18-.04Z"></path><path class="cls-2" d="M34.23,24.31c.24-.43.15-.92-.19-1.11-.34-.19-.8,0-1.04.43-.24.43-.15.92.19,1.11.34.19.8,0,1.04-.43Z"></path><path class="cls-2" d="M32.98,28.13c.27.03.55.02.82-.03.09-.01.14-.1.13-.19-.01-.08-.1-.14-.18-.13-.61.1-1.01.04-1.14-.17-.18-.27.06-.79.18-.96.05-.07.02-.18-.05-.22-.07-.05-.18-.02-.22.05-.08.14-.15.29-.2.44-.12.36-.11.65.04.87.13.19.33.31.64.34ZM28.52,18.94c1.5.71,2.6.32,3.2,1.23.88,1.37-2.5,3.93-6.68,4.09-3.57.13-7.11-1.35-7.07-5.53.04-4.66,3.29-5.13,4.93-4.18,1.4.81,2.47,3.28,5.63,4.4Z"></path><path class="cls-4" d="M20.79,37.39c2.83-.47,5.15.19,5.95.53,1.06.45,1.05,1.78,1.94,1.93,1.18.19,1.59-2.2.87-3.82-1.21-2.69-5.44-3.25-5.44-3.25"></path><path class="cls-2" d="M28.81,40.01c-.05,0-.1,0-.15-.01-.51-.08-.75-.49-1.01-.92-.24-.4-.48-.81-.96-1.01-.94-.4-3.24-.96-5.87-.52-.07.01-.15-.04-.16-.12-.01-.07.04-.15.12-.16,2.7-.44,5.06.13,6.03.54.57.24.85.71,1.09,1.13.23.39.43.73.81.79.25.04.47-.06.65-.29.52-.68.56-2.24.07-3.33-1.17-2.59-5.29-3.16-5.33-3.16-.07,0-.13-.08-.12-.16,0-.07.08-.13.16-.12.04,0,1.09.15,2.3.62,1.61.63,2.74,1.57,3.25,2.71.53,1.19.49,2.84-.1,3.61-.21.28-.47.42-.76.42Z"></path><g class="cls-24"><path class="cls-2" d="M17.6,38.15c-.06,0-.12-.04-.13-.1-.02-.07.02-.15.1-.17.03,0,2.98-.81,5.35-.79.08,0,.14.06.14.14,0,.08-.06.14-.14.14-2.34-.02-5.25.77-5.27.78-.02,0-.03,0-.04,0Z"></path></g></g><g class="cls-27"><path class="cls-4" d="M93.47,61.97c.2-.33.37-.91.37-2.21,0-1.16-.14-1.84-.37-2.2-.47-.74-1.58-.93-3.44-1.58v7.58c1.86-.65,2.98-.84,3.44-1.58Z"></path><path class="cls-2" d="M90.03,63.7s-.04,0-.05-.01c-.02,0-.03-.02-.05-.03-.01-.01-.02-.03-.03-.05,0-.02-.01-.04-.01-.05v-7.58s.02-.09.06-.11c.02-.01.04-.02.06-.02.02,0,.04,0,.07,0,.42.15.81.27,1.15.38,1.19.39,1.98.64,2.37,1.26.26.42.39,1.16.39,2.27s-.12,1.85-.39,2.29c-.39.62-1.17.87-2.37,1.26-.34.11-.73.24-1.15.38-.01,0-.03,0-.05,0ZM90.17,56.17v7.19c.35-.12.68-.23.97-.32,1.17-.38,1.88-.61,2.22-1.14.24-.38.35-1.06.35-2.14s-.12-1.76-.35-2.12c-.33-.53-1.04-.76-2.22-1.14-.29-.09-.62-.2-.97-.32Z"></path><path class="cls-4" d="M91.38,59.77c0,3.24-1.6,6.17-4.19,8.26v2.55c0,1.31-1.06,2.38-2.37,2.38h-1.21c-1.21,0-2.21-.91-2.35-2.09-1.17.27-2.4.41-3.67.41-1.11,0-2.19-.11-3.22-.32-.18,1.13-1.16,1.99-2.34,1.99h-1.21c-1.31,0-2.37-1.06-2.37-2.38v-2.19c-2.5-1.85-4.19-4.44-4.57-7.37-.77-.42-1.5-1.01-1.52-1.76-.04-1.3,1.39-2.19,1.91-2.47,1.57-4.91,6.94-8.53,13.32-8.53.75,0,1.49.05,2.21.15.75-.72,3.67-3.34,5.96-3.22,1.89.1,2.04,4.35,1.97,6.77,2.27,2.05,3.66,4.79,3.66,7.81Z"></path><path class="cls-2" d="M84.82,73.09h-1.21c-1.22,0-2.25-.88-2.47-2.06-1.15.25-2.35.38-3.55.38-1.05,0-2.09-.1-3.11-.29-.25,1.15-1.26,1.97-2.45,1.97h-1.21c-1.38,0-2.51-1.13-2.51-2.52v-2.12c-2.56-1.91-4.17-4.51-4.56-7.35-1-.56-1.51-1.18-1.53-1.85-.04-1.32,1.3-2.22,1.93-2.57,1.65-5.05,7.17-8.57,13.44-8.57.72,0,1.45.05,2.16.14.89-.85,3.73-3.33,6.01-3.21.9.05,1.52.93,1.85,2.63.26,1.38.28,3.04.25,4.22,2.36,2.15,3.66,4.94,3.66,7.87,0,1.61-.38,3.16-1.14,4.62-.72,1.39-1.74,2.64-3.05,3.7v2.48c0,1.39-1.13,2.52-2.51,2.52ZM81.25,70.72s.07.01.09.03c.03.02.04.05.05.09.13,1.12,1.09,1.97,2.22,1.97h1.21c1.23,0,2.23-1,2.23-2.24v-2.55s.02-.08.05-.11c1.3-1.05,2.31-2.28,3.03-3.65.74-1.42,1.11-2.93,1.11-4.49,0-2.86-1.28-5.6-3.62-7.71-.01-.01-.03-.03-.03-.05,0-.02-.01-.04-.01-.06.06-1.96,0-6.53-1.83-6.63-.95-.05-2.11.38-3.47,1.27-1.11.73-2.04,1.58-2.38,1.91-.02.01-.03.03-.05.03-.02,0-.04,0-.06,0-.73-.1-1.46-.15-2.19-.15-6.18,0-11.6,3.47-13.19,8.43-.01.03-.03.06-.07.08-1.74.94-1.85,2.03-1.84,2.34.02.72.8,1.29,1.45,1.64.02.01.04.03.05.04.01.02.02.04.02.06.36,2.81,1.97,5.39,4.51,7.27.02.01.03.03.04.05,0,.02.01.04.01.06v2.19c0,1.23,1,2.24,2.23,2.24h1.21c1.1,0,2.03-.79,2.2-1.87,0-.02,0-.04.02-.05.01-.02.02-.03.04-.04.02-.01.03-.02.05-.02.02,0,.04,0,.06,0,1.04.21,2.11.31,3.19.31,1.23,0,2.46-.14,3.64-.41.01,0,.02,0,.03,0Z"></path><path class="cls-2" d="M86.03,58.79c.46,0,.84-.63.84-1.4s-.37-1.4-.84-1.4-.84.63-.84,1.4.37,1.4.84,1.4Z"></path><path class="cls-2" d="M70.4,52.18s-.06-.01-.08-.03c-.02-.02-.04-.04-.05-.07,0-.03,0-.06,0-.09.01-.03.03-.05.05-.07.04-.02.93-.62,2.41-1.13,1.36-.47,3.49-.96,5.9-.59.04,0,.07.03.09.06.02.03.03.07.02.1,0,.04-.03.07-.05.09-.03.02-.07.03-.1.03-2.35-.36-4.43.11-5.76.57-1.45.5-2.35,1.09-2.36,1.1-.02.02-.05.02-.08.02ZM83.95,46.59s-.06-.01-.08-.03c-.02-.02-.04-.04-.05-.07,0-.03,0-.06,0-.09.01-.03.03-.05.06-.07.55-.32,1.17-.49,1.77-.48.02,0,.04,0,.05.01.02,0,.03.02.04.03.01.01.02.03.03.05,0,.02.01.03.01.05,0,.08-.06.14-.14.14-.54,0-1.12.15-1.62.44-.02.01-.05.02-.07.02ZM82.99,47.14s-.06-.01-.08-.03-.04-.04-.05-.07c0-.03,0-.06,0-.09.01-.03.03-.05.06-.07.11-.07.22-.13.33-.2.03-.02.07-.02.1-.01.04,0,.06.03.08.06.02.03.02.07.01.1,0,.04-.03.07-.06.08-.11.06-.21.12-.31.19-.02.01-.05.02-.07.02Z"></path><path class="cls-2" d="M87.62,53.75s-.04,0-.06-.01-.03-.02-.05-.03c-.01-.01-.02-.03-.03-.05,0-.02,0-.04,0-.06,0-.06.56-6.12-.93-7.84-.24-.27-.5-.41-.81-.43-.04,0-.07-.02-.1-.05-.02-.03-.04-.06-.04-.1,0-.04.02-.07.05-.1.03-.03.06-.04.1-.04.39.02.73.2,1.01.53.66.77,1.03,2.36,1.09,4.73.05,1.75-.1,3.3-.1,3.32,0,.03-.02.07-.04.09-.03.02-.06.04-.09.04ZM77.58,71.41c-1.79,0-3.53-.28-5.18-.83-.02,0-.03-.01-.05-.03-.01-.01-.03-.03-.03-.04,0-.02-.01-.04-.01-.05,0-.02,0-.04,0-.06,0-.02.02-.03.03-.05s.03-.03.04-.03c.02,0,.03-.01.05-.01.02,0,.04,0,.05,0,1.62.54,3.33.82,5.09.82,1.95,0,3.83-.33,5.59-.99.02,0,.04-.01.05,0,.02,0,.04,0,.05.01.02,0,.03.02.04.03.01.01.02.03.03.05s0,.04,0,.05c0,.02,0,.04-.01.05,0,.02-.02.03-.03.04-.01.01-.03.02-.05.03-1.79.67-3.7,1.01-5.68,1.01Z"></path></g><g class="cls-10"><path class="cls-4" d="M84.11,71.83c-.06.53,1.48,1.3,3.38,1.22,1.69-.07,2.41-1.83.87-1.85-1.84-.02-4.17-.15-4.25.62Z"></path><path class="cls-2" d="M87.23,73.18c-1.43,0-2.62-.46-3.05-.92-.14-.15-.2-.3-.19-.44.08-.8,1.87-.77,3.75-.74.21,0,.42,0,.62,0,.89,0,.96.54.97.7,0,.62-.74,1.34-1.83,1.39-.09,0-.18,0-.27,0ZM86.72,71.31c-.51,0-.99.01-1.4.06-.7.08-1.07.24-1.1.48,0,.07.04.16.12.25.43.46,1.72.9,3.14.84,1-.04,1.61-.69,1.6-1.14,0-.29-.27-.46-.73-.46-.2,0-.41,0-.62,0-.34,0-.68,0-1.02,0Z"></path><path class="cls-4" d="M84.74,70.3c-.02.33.94,1.15,4.23,1.05,1.82-.06,2.42-2.39.6-2.24-2.17.18-4.78.27-4.83,1.19Z"></path><path class="cls-2" d="M88.39,71.47c-2.59,0-3.4-.62-3.6-.82-.12-.12-.18-.25-.17-.36.06-.92,2.07-1.08,4.21-1.25.25-.02.5-.04.74-.06.5-.04.89.1,1.09.39.19.29.19.7-.01,1.09-.24.46-.8.97-1.66,1-.21,0-.41,0-.59,0ZM84.86,70.31s.02.1.1.18c.4.41,1.66.82,4.01.74.76-.02,1.25-.46,1.46-.86.16-.31.17-.63.02-.85-.15-.22-.45-.32-.87-.28-.24.02-.49.04-.74.06-.98.07-1.99.15-2.75.31-.8.16-1.21.4-1.23.7Z"></path><path class="cls-4" d="M85.29,68.43c.11.26,1.09.89,4.29.68,2.79-.19,3.05-2.97.95-2.72-2.17.24-5.59,1.2-5.24,2.05Z"></path><path class="cls-2" d="M88.35,69.27c-2.22,0-3.05-.49-3.18-.79-.06-.14-.04-.29.04-.43.48-.82,3.43-1.58,5.29-1.79.6-.07,1.08.09,1.33.45.23.33.25.78.05,1.21-.35.74-1.21,1.22-2.31,1.3-.45.03-.86.05-1.23.05ZM85.4,68.39c.08.18,1,.82,4.17.6,1.01-.07,1.8-.5,2.11-1.16.16-.35.15-.71-.03-.97-.2-.29-.6-.41-1.11-.36-2.04.23-4.72,1.01-5.11,1.67-.06.1-.04.17-.03.21Z"></path><path class="cls-4" d="M86.52,66.6c.2.37,1.29.57,4.11.18,2.83-.4,1.86-3.5-.31-2.78-2.07.69-4.16,1.94-3.8,2.6Z"></path><path class="cls-2" d="M88.1,67.11c-.96,0-1.52-.15-1.69-.46-.07-.13-.07-.27-.01-.43.31-.78,2.23-1.79,3.88-2.34.69-.23,1.34-.11,1.78.33.39.39.53.96.36,1.47-.21.63-.86,1.07-1.78,1.2-1.03.15-1.88.22-2.54.22ZM86.63,66.54c.08.15.61.59,3.98.11,1.13-.16,1.48-.72,1.58-1.04.14-.42.02-.9-.3-1.23-.37-.38-.93-.47-1.53-.27-1.82.61-3.49,1.59-3.73,2.2-.04.09-.04.17,0,.23Z"></path></g><g class="cls-12"><path class="cls-4" d="M20.75,60.6c.88-.79,2.27-2.04,2.99-2.67,10.46-9.07,19.82-15,27.05-15.15,6.5-.13,9.52,3.29,6.97,4.49-.14.06-.28.11-.44.13-.18.02-.36.03-.54.02h-.01c.42.47.43,1.04-.2,1.66-.13.12-.28.23-.45.3-.13.06-.27.11-.42.14,0,0,0,0,0,0,.62.62.67,1.29-.29,1.81-.19.1-.38.18-.59.24-.17.05-.33.08-.5.1h0c.47.61.51,1.27-.14,1.88-.76.71-3.09.96-3.78,1.03-1.24.14-2.14.18-2.84.14-.21-.01-.4-.03-.58-.06,0,0-.01,0-.02,0-.22.2-.43.42-.63.63-1.84,1.98-8.14,14.44-19.98,18.28-7.84,2.54-14.9-1.3-17.03-6.25"></path><path class="cls-2" d="M21.34,74.53c-.23,0-.45,0-.68-.01-1.76-.08-3.45-.45-5.04-1.12-3-1.26-5.35-3.45-6.45-6.02-.03-.07,0-.15.07-.18.07-.03.15,0,.18.07,1.08,2.5,3.37,4.64,6.3,5.86,3.24,1.36,6.99,1.47,10.56.31,9.58-3.11,15.53-11.91,18.39-16.14.68-1.01,1.18-1.74,1.53-2.12.2-.21.41-.43.63-.64.03-.03.07-.04.11-.04,0,0,0,0,.01,0h0c.17.03.36.05.56.06.7.04,1.62,0,2.81-.14h.04c1.95-.22,3.18-.56,3.66-1,.55-.52.6-1.09.13-1.69-.03-.04-.04-.09-.02-.13.02-.05.06-.08.1-.09,0,0,.01,0,.02,0,.16-.02.32-.05.48-.1.19-.06.38-.14.56-.23.4-.21.62-.46.66-.72.05-.32-.19-.65-.41-.86-.04-.04-.05-.1-.03-.15.02-.04.06-.07.1-.08h0c.13-.03.26-.07.39-.13.15-.07.29-.16.41-.27.53-.52.6-1.01.19-1.47-.04-.04-.05-.1-.02-.15.02-.05.07-.08.13-.07h.02c.17,0,.34,0,.5-.02.12-.01.25-.05.39-.12.64-.3.92-.76.8-1.29-.17-.7-.99-1.45-2.23-2-1.03-.46-2.82-1-5.47-.94-6.55.14-15.37,5.08-26.95,15.12-.52.46-1.41,1.25-2.19,1.95-.29.25-.56.5-.8.71-.06.05-.14.05-.19,0-.05-.06-.05-.14,0-.19.24-.21.51-.45.8-.71.78-.7,1.67-1.5,2.19-1.96,11.63-10.09,20.5-15.05,27.14-15.19,2.71-.06,4.54.5,5.59.96,1.33.59,2.2,1.39,2.38,2.19.15.66-.19,1.25-.95,1.6-.17.08-.33.13-.48.14-.1.01-.19.02-.29.02.3.51.17,1.07-.38,1.61-.14.14-.31.25-.49.33-.07.03-.15.07-.23.09.26.32.37.63.33.93-.05.36-.32.67-.81.93-.19.11-.4.19-.62.25-.1.03-.2.06-.31.07.41.66.31,1.32-.29,1.88-.78.73-3.06.98-3.81,1.07h-.04c-1.2.14-2.14.18-2.86.14-.2-.01-.38-.03-.54-.05-.2.19-.39.38-.57.58-.34.37-.85,1.12-1.5,2.08-2.88,4.25-8.87,13.11-18.53,16.24-1.68.54-3.37.81-5.04.81Z"></path><path class="cls-2" d="M56.86,47.68s-.08-.02-.11-.06c-1.74-2.23-5.35-2.04-5.39-2.04-.08,0-.14-.06-.15-.13,0-.08.06-.14.13-.15.04,0,.96-.06,2.11.18,1.54.31,2.75.99,3.51,1.96.05.06.04.15-.02.19-.02.03-.06.04-.08.04Z"></path><path class="cls-2" d="M55.8,49.76s-.07-.01-.1-.04c-1.74-1.78-5.04-1.59-5.07-1.59-.08,0-.14-.05-.15-.13,0-.08.05-.14.13-.15.14,0,3.46-.2,5.28,1.68.06.06.05.14,0,.19-.03.03-.06.04-.1.04Z"></path><path class="cls-2" d="M54.36,51.89s-.09-.02-.12-.06c-.96-1.44-4.27-1.11-4.3-1.11-.08,0-.14-.05-.15-.12,0-.07.05-.14.12-.15.14-.01,3.51-.35,4.56,1.23.04.07.02.15-.04.19-.03.01-.06.02-.08.02Z"></path><path class="cls-2" d="M46.82,54.94s-.06,0-.09-.04c-.06-.05-.06-.14-.01-.19.02-.03.57-.64,1.57-1.13.92-.45,2.4-.89,4.26-.34.07.02.12.1.09.17-.02.07-.1.12-.17.09-1.42-.41-2.78-.31-4.05.32-.95.47-1.49,1.07-1.49,1.07-.03.03-.06.05-.1.05Z"></path></g></g></svg>