<svg width="44" height="44" viewBox="0 0 44 44" fill="none" xmlns="http://www.w3.org/2000/svg">
<path d="M22.0159 43.9872C34.1574 43.9872 44 34.1403 44 21.9936C44 9.84687 34.1574 0 22.0159 0C9.87437 0 0.0317383 9.84687 0.0317383 21.9936C0.0317383 34.1403 9.87437 43.9872 22.0159 43.9872Z" fill="#DCF4FF"/>
<mask id="mask0_4558_35139" style="mask-type:alpha" maskUnits="userSpaceOnUse" x="0" y="0" width="44" height="44">
<path d="M22.0159 43.9872C34.1574 43.9872 44 34.1403 44 21.9936C44 9.84687 34.1574 0 22.0159 0C9.87437 0 0.0317383 9.84687 0.0317383 21.9936C0.0317383 34.1403 9.87437 43.9872 22.0159 43.9872Z" fill="#DCF4FF"/>
</mask>
<g mask="url(#mask0_4558_35139)">
<path d="M38.1094 15.5887L37.5925 15.6414L37.8722 15.3474L38.1094 15.5887Z" fill="#90C6DE"/>
<path d="M36.4233 16.313L36.7496 16.4139C36.7496 16.4139 36.5631 16.8484 36.1903 16.8484C35.8174 16.8484 36.1903 16.5105 36.4276 16.313H36.4233Z" fill="#90C6DE"/>
<path d="M35.3003 17.0938L35.7198 17.1421C35.7198 17.1421 34.6436 17.9671 34.4063 17.8706C34.1775 17.7697 35.1563 17.0982 35.3003 17.0982V17.0938Z" fill="#90C6DE"/>
<path d="M33.8513 18.0551L34.0885 18.1561C34.0885 18.1561 33.7623 18.7353 33.3852 18.9284C33.0081 19.1259 33.5716 18.3009 33.8513 18.0551Z" fill="#90C6DE"/>
<path d="M33.1945 19.3408C33.2072 19.433 33.2114 19.5164 33.1987 19.5603C33.1479 19.7534 32.2157 19.7534 32.025 20.1395C31.8386 20.5213 31.3217 20.6223 31.1819 20.4774C31.042 20.3326 30.2497 20.3326 30.1099 20.4774C29.97 20.6223 30.5293 21.9783 30.6692 22.8472C30.809 23.7204 30.1989 24.4006 29.7752 24.9799C29.3557 25.5592 29.915 26.6782 29.5464 26.8669C29.1693 27.06 27.4871 27.4023 26.8304 28.0298C26.1779 28.6574 25.6186 28.6574 25.6186 27.9816C25.6186 27.3058 24.0255 28.0737 23.7458 28.0737C23.4662 28.0737 23.2374 28.4643 23.2797 28.653C23.3263 28.8505 23.2331 29.478 23.1399 30.1055C23.0425 30.7375 22.4366 30.7857 22.3942 30.54C22.3433 30.303 22.3942 29.6667 22.2544 29.3332C22.1145 28.9953 21.8349 29.2849 21.7841 29.0436C21.7374 28.7978 22.3433 28.3634 22.3433 28.3634C22.3433 28.3634 23.0001 28.0255 23.4196 27.4462C23.839 26.8669 24.9195 26.9108 25.4788 26.7177C26.0381 26.5246 26.4109 26.1384 26.5508 25.6996C26.6906 25.2652 27.5338 25.1203 28.1439 25.0194C28.7498 24.9273 28.9871 23.0841 28.9871 22.7462C28.9871 22.4083 29.1735 21.9212 29.3133 21.6316C29.4531 21.342 29.076 21.004 28.9871 20.5169C28.8896 20.0342 29.8302 19.4549 30.2497 19.117C30.6692 18.7747 30.4785 17.6118 30.5293 17.1291C30.5759 16.6464 31.5123 18.0024 31.5123 18.1472C31.5123 18.235 31.9064 18.3403 32.3089 18.4105C32.7623 18.4939 33.1267 18.8581 33.1902 19.3365L33.1945 19.3408Z" fill="#176C93"/>
<path d="M32.025 11.9552C32.4445 13.2147 32.0758 13.026 31.6987 12.8811C31.3216 12.7363 31.2327 14.1889 31.2327 14.7681C31.2327 15.3474 31.792 16.2207 31.6521 16.168C31.5123 16.1198 31.042 15.8784 31.042 16.0759C31.042 16.2734 30.5336 16.9492 30.4361 16.7034C30.3387 16.4577 30.7624 15.3957 30.6225 14.6716C30.4827 13.9431 30.5335 13.8466 30.5335 13.3639C30.5335 12.8811 30.6225 10.7045 30.4827 9.83121C30.3429 8.95792 30.8598 7.79939 31.2327 7.21573C31.6013 6.63647 31.5123 8.13291 31.5123 9.48892C31.5123 9.48892 31.6013 10.7045 32.0208 11.9596L32.025 11.9552Z" fill="#90C6DE"/>
<path d="M24.5043 27.986C25.7161 27.7402 25.5297 28.5653 25.25 28.7145C24.9577 28.8637 24.7331 28.7627 24.5933 28.7627C24.4535 28.7627 24.267 29.0085 24.267 29.2981C24.267 29.5877 23.6611 29.2981 23.6611 29.2981C23.6611 29.2981 23.7077 28.5696 23.9874 28.4248C23.9874 28.4248 24.0043 28.0869 24.5043 27.9904V27.986Z" fill="#176C93"/>
<path d="M22.2545 19.9552L22.3731 20.043L22.4536 20.5301C21.7926 21.1094 21.1062 21.9607 20.8393 22.3996C20.4961 22.9525 20.6952 23.4703 20.9749 23.9838L20.5936 24.2164L19.8521 24.2515L19.5724 24.721L18.564 24.743C18.3522 24.6201 18.2335 24.4446 18.3183 24.1374C18.492 23.4879 18.5979 22.6848 17.8225 22.8296C17.8013 22.834 17.7759 22.8428 17.7505 22.8472L18.5259 21.9212L19.0513 21.7413L19.6783 20.8329L19.958 21.1928L20.6275 21.3376V20.6442L21.1232 20.574L21.6443 20.1747L21.7842 19.5954L22.263 19.9421L22.2545 19.9552Z" fill="#90C6DE"/>
<path d="M21.3563 24.6945C21.7418 25.4537 22.5511 26.7966 21.0088 27.3802C19.4665 27.9595 19.153 28.5826 19.2547 27.8586C19.3606 27.1301 20.2038 25.3133 19.5343 25.0983C19.1827 24.9842 18.8056 24.9052 18.5598 24.756L19.5682 24.734L19.8479 24.2645L20.5894 24.2294L20.9707 23.9968C21.0936 24.2294 21.2419 24.462 21.3563 24.6989V24.6945Z" fill="#176C93"/>
<path d="M17.9538 46.0923C18.0513 46.6276 16.7886 46.2897 17.1573 46.0923C17.5344 45.8992 17.1106 45.4164 17.0174 45.219C16.9285 45.0259 15.9455 45.1707 15.526 45.2716C15.1065 45.3638 15.2887 44.8372 14.9667 44.3983C14.6362 43.9639 14.5896 43.2837 14.776 42.8449C14.8989 42.564 15.0006 42.1427 15.0811 41.7346C15.1531 41.3704 15.4582 41.1027 15.8141 41.0851C15.9327 41.072 16.0599 41.0676 16.1785 41.0544C16.6488 41.0017 16.6488 41.6819 16.6488 42.1647C16.6488 42.6474 16.0387 43.4724 16.0895 43.8147C16.1361 44.1526 16.8352 44.4905 17.2123 44.587C17.581 44.688 17.8648 45.5569 17.9581 46.0879L17.9538 46.0923Z" fill="#90C6DE"/>
<path d="M16.2717 35.8322C16.509 35.8322 16.0345 36.7055 16.0345 36.8942C16.0345 37.0829 15.4286 38.4916 15.2421 38.4477C15.0515 38.395 14.9625 37.7192 14.9116 37.2848C14.865 36.8503 15.382 36.1701 15.7548 35.8805C15.7548 35.8805 16.0345 35.8322 16.2717 35.8322Z" fill="#90C6DE"/>
<path d="M14.543 15.4439C14.632 15.8783 14.4456 15.931 14.4456 15.931L12.9965 15.7861L12.899 16.1679L12.2423 16.3127L11.8228 17.0895H11.1195L10.1873 17.717L9.01365 17.5239L8.59419 18.1998L8.87383 19.0248L8.31454 19.3144C8.31454 19.3144 7.80609 20.0429 7.38238 20.1877C6.96292 20.3325 5.60281 20.2886 5.60281 20.2886C5.60281 20.2886 3.96308 21.1619 3.82326 21.1619C3.68343 21.1619 3.63682 20.6748 3.63682 20.6748L2.84026 20.8723L1.01832 20.0955C1.01832 20.0955 -2.06626 20.0473 -2.43912 19.8059C-2.81622 19.5689 -2.85859 18.3534 -2.85859 18.3534C-2.85859 18.3534 -3.51533 18.3051 -3.84158 17.9189C-4.17207 17.5371 -5.05762 17.4362 -5.71437 17.5371C-6.36688 17.6293 -6.36687 17.3923 -6.08299 16.4663C-5.80334 15.5492 -6.22281 15.4482 -6.5533 14.7768C-6.87955 14.0966 -7.81594 14.1976 -8.18457 13.7587C-8.371 13.5437 -8.35406 13.2058 -8.28627 12.9161H-8.28203C-8.18457 12.8328 -8.1083 12.7187 -8.1083 12.7187L-7.43885 12.609L-5.261 10.9765L-4.63391 11.1915L-4.60002 11.4065C-4.60002 11.4065 -3.93057 11.1169 -3.75685 11.5557C-3.57889 11.9858 -3.01536 12.1701 -2.60013 12.0253C-2.17218 11.8805 -1.65103 12.3149 -1.33325 12.35C-1.01971 12.3851 -0.812095 11.5909 -0.951918 11.367C-1.09174 11.152 -1.26546 10.4235 -0.392623 9.48004L0.242936 9.80917L0.204803 10.0593L1.08612 10.0988L1.81912 10.4586C1.81912 10.4586 1.88692 11.0028 2.34453 11.5865C2.79789 12.1657 3.9207 11.6918 4.62405 11.5514C5.32741 11.4022 5.57316 12.1306 5.57316 12.1306C5.57316 12.1306 5.99262 12.056 6.13245 12.4203C6.27227 12.7801 7.14935 12.9995 8.02218 12.9995C8.89502 12.9995 9.6704 12.7099 10.1661 12.1262C10.6534 11.547 10.861 11.8717 11.0432 12.0516C11.2169 12.2316 11.6025 11.977 12.094 12.1613C12.2126 12.2008 12.3355 12.2491 12.4584 12.2886L11.4033 14.1844L11.6406 14.6188L12.4372 14.474L12.8058 14.7637C12.8058 14.7637 12.9456 14.3292 13.1829 14.2765C13.4202 14.2283 14.4456 15.005 14.5388 15.4395L14.543 15.4439Z" fill="#90C6DE"/>
<path d="M7.99678 39.9441C8.55608 40.045 8.04338 40.4268 7.85695 40.9622C7.67052 41.4976 6.78075 41.3001 6.59432 41.0632C6.40789 40.8174 6.83158 40.0933 7.29766 39.8037C7.29766 39.8037 7.43748 39.852 8.00101 39.9485L7.99678 39.9441Z" fill="#90C6DE"/>
<path d="M-8.16751 33.4538L-8.20564 33.4406L-8.62087 33.6249L-9.50218 33.1115L-10.625 32.677L-10.9046 32.3874L-11.358 32.5322L-12.2351 31.7291L-12.7944 31.3342L-13.074 31.3473L-13.5359 31.3693L-14.2689 30.9699L-14.9722 29.9869L-14.7265 29.9518L-14.7604 28.6441V27.9507L-15.3536 26.8975H-15.8493L-16.4425 26.4631L-17.0145 25.8004L-17.5992 25.4845L-17.4975 25.1948L-17.3916 24.8657L-17.7051 24.2864L-18.5483 23.9266L-18.6458 23.2288L-18.4847 23.1981L-18.3788 22.6188L-17.7856 22.5442L-17.6458 22.2195L-17.2263 22.1098L-17.1924 22.3643L-16.451 22.3994L-16.3493 21.9299L-15.6417 21.2365H-14.9468L-14.5951 20.9469L-13.8282 20.4422V19.7137L-13.4003 19.3495L-13.9257 17.6073L-12.769 17.2826L-12.1758 17.3923L-12.3156 16.734L-11.7563 15.1367L-10.5614 15.615C-10.5614 15.615 -10.036 15.615 -10.0022 14.9216C-9.96826 14.2283 -10.0022 14.0834 -10.0022 14.0834L-9.15898 13.6139L-9.19287 13.1794L-8.73104 12.9117C-8.6124 12.9644 -8.50647 12.9995 -8.45563 12.9995C-8.40478 12.9995 -8.34547 12.96 -8.28615 12.9074C-8.35394 13.197 -8.37088 13.5349 -8.18445 13.7499C-7.81583 14.1844 -6.8752 14.0878 -6.55318 14.768C-6.22269 15.4438 -5.80323 15.5404 -6.08287 16.4576C-6.36252 17.3835 -6.36252 17.6205 -5.71425 17.5283C-5.05751 17.4274 -4.17196 17.5283 -3.84147 17.9101C-3.51521 18.3007 -2.85848 18.3446 -2.85848 18.3446C-2.85848 18.3446 -2.81186 19.5601 -2.439 19.7971C-2.07038 20.0429 1.01844 20.0867 1.01844 20.0867L2.84037 20.8635L3.63694 20.666C3.63694 20.666 3.68355 21.1531 3.82337 21.1531C3.9632 21.1531 5.60293 20.2798 5.60293 20.2798C5.60293 20.2798 6.9588 20.3281 7.3825 20.1789C7.80197 20.0341 8.31466 19.3056 8.31466 19.3056L8.87394 19.016L8.59431 18.191L9.01377 17.5152L10.1874 17.7082L11.1196 17.0807H11.8229L12.2424 16.304L12.8991 16.1591L12.9966 15.7774L14.4457 15.9222C14.4457 15.9222 14.6321 15.8695 14.5431 15.4351C14.4457 15.0006 13.4203 14.2283 13.1873 14.2721C12.95 14.3248 12.8102 14.7593 12.8102 14.7593L12.4416 14.4696L11.645 14.6144L11.4077 14.18L12.4627 12.2842C12.861 12.4159 13.289 12.53 13.6067 12.4466C14.0262 12.3369 14.2762 11.7883 14.1999 11.6435C14.1321 11.4987 14.5135 10.7702 14.5855 10.4455C14.6575 10.1207 15.2889 9.60729 15.2889 9.60729L15.2211 9.02803C15.2211 9.02803 14.7931 9.17284 14.9033 8.73839C15.0092 8.30394 15.7126 8.12402 15.9202 8.12402C16.1278 8.12402 16.6956 7.76417 17.9582 8.08891C19.2208 8.41365 19.3268 9.46686 19.4666 9.46686C19.6064 9.46686 19.6064 10.6693 19.6064 10.6693L20.1657 11.7225L20.3394 12.4817L21.0724 12.5914L21.5258 12.7011L22.0215 13.2409L22.3012 13.3506C22.3012 13.3506 22.441 14.0791 22.369 14.3687C22.3012 14.6583 23.0384 14.6583 23.4918 14.6583C23.9452 14.6583 24.1274 14.1888 24.1274 14.1888L25.3222 13.9693V14.6978C25.3222 14.6978 24.8265 15.242 24.9366 15.5009C25.0426 15.751 24.657 16.4093 24.335 17.0237C24.0214 17.6468 23.9875 17.5678 23.6401 17.3133C23.2884 17.0632 22.7969 17.6029 22.6529 17.7477C22.5173 17.8926 22.8986 18.5157 22.8986 18.5157L22.7969 19.7839L22.2546 19.9507L21.7758 19.604L21.636 20.1833L21.1148 20.5826L20.6191 20.6528V21.3462L19.9496 21.2014L19.67 20.8416L19.0429 21.7499L18.5175 21.9299L17.7421 22.8558C17.0303 23.0357 16.1024 23.9178 15.8354 23.7686C15.8143 23.7554 15.7973 23.7379 15.7846 23.7116C15.6066 23.3517 16.7252 21.0961 14.9753 22.4784C13.2212 23.8564 12.8695 25.2387 14.0601 25.0193C14.4118 24.9535 14.8397 24.914 15.2338 24.914C16.1575 24.914 16.882 25.1509 15.9202 25.8882C14.5558 26.9458 14.1364 26.8712 15.0431 28.4335C15.9583 29.9913 17.437 31.6589 14.7974 34.8932C12.361 37.8904 9.95015 38.6277 8.05195 38.8427C7.87823 38.8603 7.70452 38.8778 7.54351 38.891C7.44606 38.8954 7.35707 38.9041 7.27233 38.9085C6.80202 38.9436 6.47577 38.9743 6.23002 39.0095L5.92495 38.6364L5.19193 38.0923L5.29786 37.8378L4.6623 37.6227L4.20895 37.2585L3.29374 37.8816L2.77258 37.7017L2.56072 38.1318L2.00143 37.9167L1.97178 38.1142V38.1713L1.50994 38.0265L1.64976 38.6057L1.75569 38.9656L1.25994 38.8602V38.4609L0.988779 38.711L0.522701 38.6759L0.243053 38.4214L0.0693321 37.8421L-0.358603 37.2629L-0.494192 36.7231L-1.30347 36.6134L-1.37551 36.3589L-1.02382 35.4505L-0.570456 35.3057L-0.536564 33.8882H-0.744177L-1.26958 33.0588L-1.46024 33.1159L-1.72294 33.1992L-2.3246 32.4795L-2.84575 32.44H-3.51522L-4.04061 32.7692L-4.91768 33.3484L-5.16343 33.9628L-5.18038 34.1076L-5.54477 33.8531L-5.79051 33.3089L-6.34981 33.3484L-6.56166 33.2387H-6.943L-7.60398 33.9804L-7.78194 33.5635L-8.16751 33.4625V33.4538Z" fill="#90C6DE"/>
<path d="M8.05199 38.8471L7.99692 39.1499L7.78506 39.6546L7.43762 39.2904L7.27661 38.913C7.36135 38.9086 7.45034 38.8998 7.54779 38.8954C7.7088 38.8822 7.88251 38.8647 8.05623 38.8471H8.05199Z" fill="#90C6DE"/>
<path d="M6.17889 43.0734C7.14918 44.5742 7.85253 45.9785 5.75095 47.5363C3.39938 49.2785 4.00105 48.6993 3.29346 47.3564L3.92902 47.2116L4.00104 46.8869L4.66202 46.8474L4.59424 46.3076L4.94167 46.2681L4.97557 45.9434L5.43741 45.9083L5.71706 45.5835L5.81874 44.6356L5.66621 44.188L5.85687 44.131L5.9628 43.6526L5.64502 43.363L5.75095 43.0734H6.17889Z" fill="#90C6DE"/>
<path d="M5.92477 38.6365L6.22984 39.0095C5.60276 39.1017 5.56886 39.2597 5.25955 39.7643C4.54349 40.9667 4.16639 39.9925 5.81885 42.5246C5.94172 42.7089 6.06036 42.8888 6.179 43.0688H5.75105L5.43751 42.924L5.12397 42.7747L5.08583 42.2701L3.85709 40.9623L3.44186 40.7078L3.16221 40.2383L3.7554 40.3831L3.89522 39.8389L3.57744 39.5493L3.68336 39.2948L3.23001 39.2597L2.98425 39.3694L2.63681 39.1894L2.49699 38.5751L2.28514 38.5356L1.97583 38.1187L2.00549 37.9212L2.56479 38.1362L2.77664 37.7062L3.2978 37.8861L4.213 37.2629L4.66636 37.6272L5.30192 37.8422L5.196 38.0967L5.92901 38.6409L5.92477 38.6365Z" fill="#90C6DE"/>
<path d="M5.66632 44.1833L5.40361 44.2711L4.94601 44.1921L4.77229 44.3808L4.8062 44.7055L4.34859 44.5607L4.17064 44.2755L4.3147 44.2711L4.41638 43.3583L3.85709 42.7395V42.055L3.16221 41.2519L2.63258 41.3221L2.38683 41.7653L1.79364 41.5108L1.15808 41.8004L1.29791 40.3128H0.772507L0.670822 39.8344L0.47168 39.5755L1.01826 38.7066H0.997071L1.26401 38.4565V38.8602L1.75975 38.9655L1.64958 38.6057L1.50976 38.022L1.96736 38.1669L1.9716 38.1098L2.2809 38.5267L2.49275 38.5706L2.63258 39.185L2.98002 39.3649L3.23001 39.2552L3.68336 39.2903L3.57744 39.5448L3.89522 39.8344L3.7554 40.383L3.16221 40.2382L3.44186 40.7077L3.85709 40.9622L5.08583 42.27L5.12398 42.7747L5.43751 42.9282L5.75105 43.0643L5.64513 43.3583L5.96715 43.6479L5.86122 44.1219L5.66632 44.1833Z" fill="#90C6DE"/>
<path d="M4.17065 44.2755L2.70039 44.3414L2.0733 45.1795L2.23431 45.8905C1.85298 45.535 1.48859 45.3639 1.19623 45.3639C0.636936 45.3639 0.175103 45.8422 0.208999 46.7813C0.247133 47.7248 -0.244368 48.1987 0.670837 49.252C1.1581 49.8137 1.65807 50.1647 2.05635 50.4588L1.79366 50.7791L1.20047 50.9941L1.12843 50.3798L0.708969 50.2701L0.327636 50.3534C0.136969 49.6425 -0.1681 49.0106 -0.519776 48.8175C-0.833318 48.6508 -0.710447 48.2251 -0.642654 47.4966L-0.163864 46.6365L-0.0240469 45.6886L-0.2359 44.7144L-0.862976 43.806L-0.655365 43.5515L-0.477402 42.6782L-0.93924 41.8751L-1.49854 41.1159L-1.25279 41.0062L-1.11296 40.5717V40.0671L-0.553679 39.7028L0.429322 39.6677L0.480164 39.5844L0.675078 39.8477L0.776763 40.326H1.30215L1.16234 41.8136L1.7979 41.524L2.39108 41.7785L2.63683 41.3353L3.16223 41.2651L3.8571 42.0682V42.7528L4.4164 43.3671L4.31471 44.2799H4.17065V44.2755Z" fill="#90C6DE"/>
<path d="M0.997086 38.7066H1.01828L0.475935 39.5712L0.42508 39.6545L-0.557908 39.6896L-1.1172 40.0539V40.5585L-1.25702 40.993L-1.50278 41.1027L-0.943482 41.8619L-0.481644 42.665L-0.659606 43.5383L-0.867218 43.7928L-0.240129 44.7012L-0.0282755 45.6754L-0.168106 46.6233L-0.646896 47.4834C-0.579103 46.8383 -0.562147 45.9431 -0.943482 44.7714C-1.75276 42.3007 -1.22313 41.9014 -1.92648 42.5245C-2.62983 43.1389 -3.81197 43.7972 -3.50267 41.8663C-3.36285 40.993 -5.04495 39.8345 -5.15088 39.1806C-5.15088 39.1806 -5.0958 39.0226 -5.07886 38.8383L-4.93903 38.891L-4.69752 38.1888V38.1669L-4.45177 37.9123L-4.27805 36.6748L-3.78232 36.7845L-3.36284 35.8761L-3.43488 35.4417L-3.0493 34.8273V34.6079L-2.31629 34.0286L-1.79089 34.1383L-1.71887 33.6688L-1.47736 33.6337L-1.45616 33.1115L-1.2655 33.0544L-0.740111 33.8838H-0.532487L-0.566391 35.3013L-1.01975 35.4461L-1.37143 36.3545L-1.29939 36.609L-0.490114 36.7187L-0.354537 37.2585L0.0734096 37.8377L0.24713 38.417L0.526778 38.6715L0.992857 38.7066H0.997086Z" fill="#90C6DE"/>
<path d="M46.3748 -0.800873C46.3485 -0.775802 46.3225 -0.748284 46.2966 -0.717865L46.199 -0.595795C45.8508 -0.123011 45.5261 0.468952 45.3328 0.98819C45.2362 1.24768 45.1714 1.48966 45.1541 1.69034C45.1367 1.89025 45.1658 2.05337 45.2595 2.14932C45.345 2.23797 45.4603 2.40376 45.5759 2.60928C45.6915 2.81473 45.807 3.05939 45.8943 3.30362C45.9816 3.54792 46.0407 3.79133 46.0427 3.996C46.0445 4.17527 46.0025 4.32204 45.9021 4.41495L45.8552 4.45206C45.7161 4.54155 45.5786 4.61502 45.4519 4.68448C45.3254 4.75387 45.2085 4.81932 45.113 4.89053C45.0175 4.96177 44.9421 5.04056 44.8972 5.13663C44.8523 5.23297 44.839 5.34573 44.866 5.48526C44.8926 5.62199 44.9206 5.74589 44.9392 5.86026C44.9578 5.9744 44.9668 6.07758 44.9539 6.17081C44.941 6.26346 44.9065 6.34689 44.8396 6.42276C44.7723 6.49895 44.6711 6.56869 44.5232 6.63174C44.2269 6.75887 43.995 6.86826 43.8308 7.0712C43.6665 7.27436 43.5707 7.56894 43.5388 8.06143C43.5211 8.30148 43.3911 8.61618 43.199 8.95401C43.0072 9.29125 42.7543 9.64978 42.4939 9.97842C42.2335 10.3069 41.9658 10.6054 41.7429 10.8212C41.6314 10.9292 41.5308 11.017 41.449 11.0771C41.4081 11.107 41.372 11.13 41.3416 11.1454C41.3107 11.161 41.2868 11.1679 41.2703 11.1679C41.2659 11.1678 41.2584 11.1653 41.2478 11.1552C41.2373 11.1452 41.2257 11.1296 41.2126 11.1083C41.1866 11.0658 41.1575 11.0025 41.1257 10.9208C41.0622 10.7576 40.989 10.5229 40.9128 10.2372C40.7605 9.66586 40.595 8.89235 40.4597 8.08487C40.3245 7.27727 40.2202 6.43557 40.1912 5.72842C40.1766 5.37481 40.1811 5.05496 40.2097 4.78995C40.2312 4.59071 40.2656 4.42317 40.3162 4.29581L40.3718 4.18253C40.7059 3.63723 41.5029 2.62941 42.3044 1.64835C43.1052 0.668277 43.9108 -0.285013 44.2605 -0.721771C44.4363 -0.93419 44.6496 -1.16413 44.8757 -1.39853L46.3748 -0.800873Z" fill="#90C6DE" stroke="white" stroke-width="0.03"/>
<mask id="path-25-inside-1_4558_35139" fill="white">
<path d="M-38.2042 20.776L-38.4288 20.6926L-38.7084 20.1133L-38.8821 19.9729L-39.3779 20.0431L-39.7974 20.1879L-40.005 19.9729L-40.8481 19.4287L-41.4413 19.4638L-42.3904 19.1391L-42.6447 19.2444C-43.3311 18.6739 -43.9073 18.0639 -44.1361 18.0113C-44.4412 17.9411 -44.6445 17.432 -44.3437 16.8703C-44.0386 16.313 -43.6404 15.7293 -43.526 15.6635C-43.4073 15.5889 -42.848 15.2993 -43.4073 15.2993C-43.5853 15.2993 -43.7844 15.33 -43.9836 15.3739C-43.9158 15.093 -43.8141 14.7288 -43.7251 14.6366C-43.5683 14.4742 -43.1065 14.4918 -42.865 14.4918C-42.6235 14.4918 -42.6701 14.2724 -42.6531 14.11C-42.6362 13.9476 -43.0048 13.7502 -43.0048 13.7502L-42.6192 13.3859L-43.0387 13.1884L-42.6531 13.1138C-42.6531 13.1138 -42.5472 12.7715 -42.5302 12.6969C-42.5133 12.6267 -42.7929 12.6092 -42.9158 12.6092C-43.0387 12.6092 -43.3522 12.4293 -43.3522 12.4293L-43.831 12.0299C-43.831 12.0299 -43.9666 12.1001 -44.1107 12.2098C-44.2463 12.3195 -44.5471 11.613 -44.5471 11.613C-44.5471 11.613 -44.9496 11.8675 -45.0852 11.8675C-45.2293 11.8675 -45.564 11.5209 -45.564 11.5209L-45.8267 11.7754L-46.0004 11.376L-46.0174 11.0337L-46.1572 11.0513L-46.1402 10.6168L-46.8732 10.6695L-46.9283 10.1122H-46.6317L-47.0131 9.58119L-47.208 9.29156L-47.5554 9.45393L-47.7673 9.58119L-47.8011 9.43637L-48.1867 9.37933V9.70846L-48.657 9.72162V9.1643H-48.8435L-48.8731 8.37L-48.1952 8.46215L-47.8181 8.00137L-48.0766 7.78634V7.5406L-48.5426 7.66347L-48.496 7.0842L-48.8435 7.05349L-49.0045 6.404L-49.2841 6.23724L-49.1485 5.87301L-49.3773 5.63603L-49.2163 5.41661L-49.1951 5.14892L-49.4536 5.05677L-49.64 4.78908L-50.0171 5.02605L-50.2459 5.14892L-50.2756 4.73642L-50.7205 4.78908L-51.1739 4.52577L-51.2543 3.50328L-51.6399 3.61299L-51.534 2.91963L-51.7458 2.70021L-51.7289 2.66071L-51.4662 1.94101C-51.4662 1.94101 -51.712 0.997517 -51.6781 0.778095C-51.6399 0.563065 -51.1188 0.0847321 -51.1188 0.0847321L-51.2543 -0.200512C-50.8518 -0.367271 -50.6527 -0.788559 -50.4112 -0.788559C-50.0976 -0.788559 -49.6104 -0.788555 -49.7841 -0.968479C-49.9578 -1.1484 -50.5595 -1.21862 -50.6612 -1.36782C-50.7459 -1.47314 -50.8857 -1.76278 -51.4916 -1.70573C-50.7883 -2.61412 -49.0553 -4.87414 -48.8053 -5.36125C-48.4918 -5.97563 -49.8561 -6.88841 -49.8561 -6.88841L-49.4748 -7.42818L-49.7883 -7.79242L-49.8222 -8.6657H-50.1019L-50.2078 -8.92023L-50.0002 -9.17037L-50.1739 -9.31518L-50.1019 -10.1885L-49.7883 -10.2631C-49.7883 -10.2631 -50.5976 -12.4748 -50.5976 -12.5889C-50.5976 -12.703 -50.1358 -13.3174 -50.1019 -13.4622C-50.068 -13.607 -49.8222 -14.1556 -50.1019 -14.4803C-50.3815 -14.8051 -50.9111 -15.0245 -50.9111 -15.0245L-50.8052 -16.1479C-50.8052 -16.1479 -50.8179 -16.3059 -50.801 -16.5253L-50.4917 -16.6921L-50.318 -17.2362L-49.7926 -17.4864V-17.9647L-49.5129 -17.7804H-49.1994L-49.2163 -18.1358C-48.6274 -17.7804 -47.7927 -17.3591 -47.2037 -17.3108C-46.2885 -17.2406 -45.5894 -17.0958 -44.5725 -16.0777C-43.5556 -15.0596 -41.8735 -14.4803 -41.8354 -13.4973C-41.8015 -12.5143 -41.5939 -12.3344 -42.3311 -11.6103C-43.0641 -10.8818 -43.4878 -10.5571 -45.0979 -11.3207C-46.7122 -12.0799 -47.6232 -12.5538 -47.8351 -12.6635C-48.0469 -12.7732 -48.2545 -12.9532 -47.8011 -12.2642C-47.3393 -11.5796 -46.4326 -11.211 -46.3987 -10.6712C-46.3648 -10.127 -46.2928 -8.7403 -46.1529 -8.27075C-46.0131 -7.80119 -45.2038 -7.10783 -44.8183 -7.07272C-44.4369 -7.03323 -43.9751 -7.03323 -44.0853 -7.39746C-44.1954 -7.7617 -44.6106 -8.01184 -44.8945 -8.48578C-45.1742 -8.96411 -45.0005 -9.46878 -44.3352 -9.02994C-43.6658 -8.59549 -41.9837 -8.19176 -42.3735 -8.88512C-42.759 -9.57849 -43.1828 -9.75841 -42.7591 -10.1226C-42.3396 -10.4825 -41.2846 -12.0799 -40.5812 -11.72C-39.8779 -11.3558 -39.4584 -11.2505 -39.4584 -11.7902C-39.4584 -12.0272 -39.5474 -12.33 -39.6448 -12.6679L-38.5135 -12.8698C-38.4669 -12.7864 -38.4033 -12.725 -38.3059 -12.6723C-37.7466 -12.3827 -38.0263 -12.2905 -36.8568 -13.7431C-35.6832 -15.1956 -34.001 -16.7403 -32.8782 -16.1611C-31.7554 -15.5818 -31.6156 -15.9241 -30.7724 -16.0162C-29.9292 -16.1172 -29.0903 -16.1611 -28.298 -16.5034C-27.5014 -16.8413 -27.9209 -18.0481 -28.387 -18.2938C-28.8573 -18.5396 -28.387 -19.0223 -27.404 -18.5835C-26.421 -18.149 -25.1159 -18.0042 -24.2728 -17.03C-23.4296 -16.0645 -22.7729 -15.3404 -22.4932 -15.3404C-22.2136 -15.3404 -21.328 -15.5335 -22.2136 -16.793C-23.1076 -18.0481 -23.8067 -19.5533 -23.527 -20.2774C-23.2474 -21.0058 -22.4508 -22.6032 -22.0271 -24.0996C-21.6034 -25.5961 -21.4678 -26.0349 -20.7179 -25.8418C-19.9679 -25.6487 -18.7561 -25.3591 -19.1756 -23.4721C-19.595 -21.5851 -18.9849 -21.3876 -19.0358 -20.4661C-19.0824 -19.5489 -19.4044 -16.3015 -18.9383 -16.3015C-18.4722 -16.3015 -17.6757 -15.867 -17.9129 -17.4161C-18.1417 -18.9696 -18.4722 -22.0634 -17.396 -22.7436C-16.3198 -23.4194 -14.8707 -24.5341 -14.4936 -24.2883C-14.125 -24.0514 -13.1844 -22.8358 -12.7225 -22.8358C-12.2607 -22.8358 -11.926 -23.2264 -12.3454 -23.8539C-12.7649 -24.4858 -13.7945 -26.2763 -13.5615 -26.9038C-13.3242 -27.5358 -9.44306 -27.3909 -9.11681 -28.1194C-8.79055 -28.8479 -10.2396 -29.572 -9.39645 -30.634C-8.55328 -31.6959 -7.47706 -33.2012 -6.26526 -33.2012C-5.05346 -33.2012 -4.62552 -33.7804 -4.01962 -34.0218C-3.40948 -34.2675 -2.37988 -34.5089 -1.35451 -34.5572C-0.320667 -34.6054 -0.278297 -35.2856 0.378445 -35.5753C1.03095 -35.8649 1.3106 -36.2555 1.50126 -37.2209C1.68769 -38.1907 2.24699 -39.4019 2.99272 -39.6433C3.74268 -39.889 5.14514 -39.1606 4.86549 -38.8183C4.58585 -38.4804 3.64945 -37.708 4.06892 -37.7563C4.48839 -37.8046 5.93747 -37.5632 6.03068 -37.0278C6.1239 -36.4924 8.50937 -36.9269 8.97544 -36.4486C9.44152 -35.9702 11.4033 -33.6883 10.2381 -32.2357C9.07289 -30.7832 6.82725 -28.7952 7.1069 -28.4134C7.38654 -28.0229 8.45852 -28.1238 9.58134 -27.9263C10.7042 -27.7332 13.6489 -27.8342 14.2082 -27.0091C14.7675 -26.1841 17.4326 -25.0739 17.4326 -26.1359C17.4326 -27.1978 17.153 -27.9263 19.3054 -26.9609C21.4536 -25.991 21.6909 -25.5566 21.4112 -24.8281C21.1316 -24.0996 20.8519 -23.4238 21.2714 -22.6954C21.6908 -21.9669 22.9026 -19.5006 23.2797 -21.3394C23.6568 -23.1825 23.4196 -23.5204 24.4026 -22.7436C25.3856 -21.9669 28.7964 -21.8177 29.0294 -22.6427C29.2667 -23.4677 28.7498 -25.2099 30.7116 -24.9203C32.6733 -24.6306 35.1562 -24.5297 35.7621 -23.8056C36.368 -23.0772 36.8383 -22.5988 37.4442 -21.6729C38.0501 -20.7557 39.2238 -20.7557 40.0119 -20.9971C40.8085 -21.234 43.3761 -21.1419 43.427 -20.172C43.4736 -19.2022 43.0965 -17.7014 44.5921 -17.8945C46.0921 -18.092 47.5369 -18.092 48.003 -17.8023C48.4733 -17.5127 49.1258 -18.2368 49.4563 -18.285C49.7826 -18.3333 52.2104 -19.347 54.0832 -18.6229C55.9517 -17.8945 58.2906 -16.1084 59.5532 -15.2351C60.8158 -14.3618 61.6082 -13.9756 61.6082 -13.6377C61.6082 -13.2998 61.4218 -12.1852 61.748 -12.1852C62.0743 -12.1852 62.337 -12.7996 62.337 -12.7996C62.5446 -12.7996 63.7521 -12.6767 63.8072 -12.5845C63.9132 -12.4046 65.1758 -10.952 65.1758 -10.952C64.8961 -10.4737 64.6165 -10.3728 64.6504 -10.2192C64.6843 -10.0788 64.0233 -10.0042 63.8072 -9.67942C63.5954 -9.35029 63.214 -7.5335 62.9979 -7.60372C62.7903 -7.67832 60.9684 -8.40679 60.9345 -8.80613C60.8964 -9.20547 60.4091 -9.96906 59.7735 -9.82424C59.1465 -9.67942 58.6507 -10.5527 58.7228 -10.7677C58.7906 -10.9872 58.1973 -11.3821 58.1296 -10.9872C58.0575 -10.5878 58.5448 -9.67942 58.0575 -9.17037C57.5703 -8.6657 56.6551 -8.18737 56.3415 -8.41118C56.0238 -8.6306 55.4263 -8.73592 55.6721 -8.34096C55.9178 -7.94162 56.2653 -7.82752 56.583 -7.42818C56.9008 -7.02884 56.7949 -6.66899 57.1084 -6.30475C57.422 -5.94052 57.8118 -4.95752 57.494 -4.703C57.1805 -4.45286 56.1974 -5.03212 55.7398 -4.81271C55.2865 -4.59768 51.2189 -2.12701 51.185 -1.58286C51.1511 -1.0387 50.7317 -0.529644 50.13 -1.72767C49.5368 -2.9257 48.5538 -0.45504 47.9945 -0.599857C47.4861 -0.731506 47.0073 -1.37221 46.3971 -0.784168L44.8676 -1.39415C45.554 -2.09629 46.359 -2.86865 46.5963 -3.57957C46.9141 -4.52308 47.4395 -5.46658 46.4904 -5.06723C45.5497 -4.66789 45.9692 -4.40897 44.8464 -3.0003C43.7236 -1.58286 43.7914 -1.18351 43.6854 -1.76278C43.5837 -2.34205 43.9651 -3.69367 43.0583 -3.69367C42.1516 -3.69367 40.2873 -1.84177 39.8339 -1.1133C39.3806 -0.384823 40.5034 0.269043 39.3085 0.374367C38.1179 0.484074 37.7662 0.194439 35.0333 0.0847321C32.2962 -0.0205917 31.2793 -0.240005 28.8218 2.91963C26.3686 6.07927 25.4957 6.76824 27.1058 7.05787C28.7201 7.3475 30.0506 6.4435 30.1565 8.08036C30.2624 9.71284 29.3811 15.2685 27.038 17.6295C24.6864 19.9948 24.4068 20.4644 23.7712 19.9948C23.4916 19.7842 22.9747 20.0826 22.4493 20.5521L22.3688 20.065L22.2501 19.9773L22.7925 19.8105L22.8942 18.5423C22.8942 18.5423 22.5128 17.9191 22.6484 17.7743C22.7925 17.6295 23.284 17.0897 23.6357 17.3399C23.9831 17.5944 24.017 17.669 24.3305 17.0502C24.6483 16.4358 25.0381 15.7776 24.9322 15.5275C24.8263 15.2729 25.3178 14.7244 25.3178 14.7244V13.9959L24.1229 14.2153C24.1229 14.2153 23.9492 14.6849 23.4874 14.6849C23.0255 14.6849 22.2968 14.6849 22.3646 14.3952C22.4366 14.1056 22.2968 13.3771 22.2968 13.3771L22.0171 13.2674L21.5214 12.7277L21.068 12.618L20.335 12.5082L20.1613 11.7491L19.602 10.6958C19.602 10.6958 19.602 9.49342 19.4622 9.49342C19.3223 9.49342 19.2164 8.44021 17.9538 8.11547C16.6911 7.79073 16.1318 8.15058 15.9157 8.15058C15.6997 8.15058 15.0048 8.3305 14.8988 8.76495C14.7929 9.1994 15.2166 9.05458 15.2166 9.05458L15.2844 9.63385C15.2844 9.63385 14.6573 10.1473 14.5811 10.472C14.509 10.7968 14.1277 11.5252 14.1955 11.6701C14.2675 11.8149 14.0218 12.3634 13.6023 12.4731C13.2845 12.5565 12.8566 12.4424 12.4583 12.3108C12.3354 12.2713 12.2126 12.223 12.0939 12.1835C11.6067 11.9992 11.2169 12.2537 11.0431 12.0738C10.8652 11.8939 10.6576 11.5691 10.1661 12.1484C9.67032 12.7277 8.89917 13.0217 8.02211 13.0217C7.14503 13.0217 6.27219 12.8023 6.13237 12.4424C5.99254 12.0782 5.57309 12.1528 5.57309 12.1528C5.57309 12.1528 5.32733 11.4199 4.62397 11.5735C3.92062 11.7139 2.80205 12.1879 2.34445 11.6086C1.88261 11.0294 1.81904 10.4808 1.81904 10.4808L1.08604 10.121L0.204727 10.0815L0.242859 9.83133L-0.3927 9.5022C-1.26977 10.4501 -1.09606 11.1742 -0.951996 11.3892C-0.812172 11.6086 -1.01979 12.4073 -1.33333 12.3722C-1.65111 12.3371 -2.1765 11.9026 -2.6002 12.0475C-3.01544 12.1923 -3.57473 12.008 -3.75693 11.5779C-3.93065 11.1347 -4.6001 11.4287 -4.6001 11.4287L-4.63399 11.2137L-5.26108 10.9986L-7.43893 12.6311L-8.10838 12.7408C-8.10838 12.7408 -8.18889 12.8549 -8.2821 12.9383H-8.28635C-8.34143 12.991 -8.40498 13.0305 -8.45583 13.0305C-8.50667 13.0305 -8.61259 12.9954 -8.73123 12.9427C-8.94308 12.8418 -9.19307 12.6969 -9.19307 12.6311C-9.19307 12.5214 -9.15918 12.302 -9.15918 12.302C-9.15918 12.302 -9.57865 12.9251 -9.96846 12.6662C-10.354 12.4117 -10.5277 12.008 -10.5277 12.008L-11.0235 11.6481C-11.0235 11.6481 -11.1252 10.9986 -11.6167 11.0337C-12.1039 11.0689 -12.2776 11.2488 -12.2776 11.2488L-12.803 11.2137L-13.0827 11.0689C-13.0827 11.0689 -13.3284 10.3404 -13.4344 10.5247C-13.5403 10.709 -13.9937 11.2532 -13.9937 11.2532C-13.9937 11.2532 -15.2224 8.60258 -15.3241 8.49287C-15.43 8.38755 -16.413 7.43966 -16.413 7.43966C-16.413 7.43966 -16.5189 7.15003 -16.3791 7.04032C-16.2393 6.935 -15.7859 6.42595 -16.6249 6.8955C-17.468 7.36506 -18.0951 7.69858 -18.0951 7.69858L-18.6544 8.02332C-18.6544 8.02332 -18.8281 7.62397 -18.6544 7.55376C-18.4807 7.47916 -18.307 7.26413 -18.307 7.26413L-19.3239 7.33434L-19.7095 6.93938C-19.7095 6.93938 -20.3365 7.44405 -20.3704 7.11931C-20.4043 6.79018 -20.3365 6.20652 -20.4425 6.13631C-20.5484 6.06609 -20.4425 5.66676 -20.5823 5.66676C-20.7221 5.66676 -20.8619 5.84668 -21.2433 5.77646C-21.6288 5.70186 -21.9509 5.37712 -21.9509 5.37712L-22.2983 5.77646L-22.472 6.0266L-24.4761 6.35573L-24.5439 6.78579L-25.6329 6.9701L-26.5735 7.36506L-27.0353 7.32995L-27.4887 7.22463L-27.7683 7.72929L-27.315 7.94432L-27.4887 8.19885L-26.7853 8.56309L-27.6285 8.48848C-27.6285 8.48848 -27.7344 8.92294 -27.6963 9.10286C-27.6624 9.28717 -27.7344 9.35738 -28.048 9.58119C-28.3615 9.79622 -28.1878 10.0508 -28.1878 10.0508C-28.1878 10.0508 -27.7683 10.1605 -27.5183 10.415C-27.2684 10.6695 -27.0311 11.3892 -27.4845 11.3892C-27.9378 11.3892 -28.3997 11.1347 -28.3997 11.1347L-28.6412 11.534C-28.6412 11.534 -29.3742 11.0645 -29.4504 10.9196C-29.5225 10.7748 -29.9377 10.845 -29.9377 10.845L-30.1157 11.1742L-30.497 10.845C-30.497 10.845 -30.8826 10.9943 -31.0563 11.2093C-31.2343 11.4243 -31.3359 11.6086 -31.3359 11.6086L-32.1452 10.9504L-32.2512 11.5296L-32.6367 10.8363L-33.0901 10.3667H-33.6494L-33.8231 10.0771C-33.8231 10.0771 -34.2849 10.3667 -34.4163 10.4413C-34.5603 10.5115 -34.5603 10.1868 -34.5603 10.1868L-34.9417 10.1517L-35.9247 10.8802L-35.9628 11.24L-36.5221 11.4199C-36.5221 11.4199 -36.2764 12.3327 -36.4501 12.2932C-36.6238 12.2581 -37.217 11.6437 -37.217 11.6437L-37.7127 12.223L-37.6788 13.1314L-37.9924 13.9345L-37.5729 14.0047L-37.6068 14.6629H-36.9373L-36.2425 15.7161L-36.7297 15.7864L-35.9204 16.3086C-35.9204 16.3086 -35.9247 16.313 -35.9332 16.3217C-36.4713 16.7562 -37.5263 17.5593 -37.5263 17.8752C-37.5263 18.1912 -37.1958 18.6037 -37.1746 19.1347C-37.1534 19.6613 -37.1068 20.3678 -36.6874 20.754C-36.6196 20.8111 -36.5518 20.8857 -36.4924 20.9734L-37.0136 21.4913L-37.467 21.3464L-37.7805 20.9471L-38.1915 20.8067L-38.2042 20.776Z"/>
</mask>
<path d="M-38.2042 20.776L-38.4288 20.6926L-38.7084 20.1133L-38.8821 19.9729L-39.3779 20.0431L-39.7974 20.1879L-40.005 19.9729L-40.8481 19.4287L-41.4413 19.4638L-42.3904 19.1391L-42.6447 19.2444C-43.3311 18.6739 -43.9073 18.0639 -44.1361 18.0113C-44.4412 17.9411 -44.6445 17.432 -44.3437 16.8703C-44.0386 16.313 -43.6404 15.7293 -43.526 15.6635C-43.4073 15.5889 -42.848 15.2993 -43.4073 15.2993C-43.5853 15.2993 -43.7844 15.33 -43.9836 15.3739C-43.9158 15.093 -43.8141 14.7288 -43.7251 14.6366C-43.5683 14.4742 -43.1065 14.4918 -42.865 14.4918C-42.6235 14.4918 -42.6701 14.2724 -42.6531 14.11C-42.6362 13.9476 -43.0048 13.7502 -43.0048 13.7502L-42.6192 13.3859L-43.0387 13.1884L-42.6531 13.1138C-42.6531 13.1138 -42.5472 12.7715 -42.5302 12.6969C-42.5133 12.6267 -42.7929 12.6092 -42.9158 12.6092C-43.0387 12.6092 -43.3522 12.4293 -43.3522 12.4293L-43.831 12.0299C-43.831 12.0299 -43.9666 12.1001 -44.1107 12.2098C-44.2463 12.3195 -44.5471 11.613 -44.5471 11.613C-44.5471 11.613 -44.9496 11.8675 -45.0852 11.8675C-45.2293 11.8675 -45.564 11.5209 -45.564 11.5209L-45.8267 11.7754L-46.0004 11.376L-46.0174 11.0337L-46.1572 11.0513L-46.1402 10.6168L-46.8732 10.6695L-46.9283 10.1122H-46.6317L-47.0131 9.58119L-47.208 9.29156L-47.5554 9.45393L-47.7673 9.58119L-47.8011 9.43637L-48.1867 9.37933V9.70846L-48.657 9.72162V9.1643H-48.8435L-48.8731 8.37L-48.1952 8.46215L-47.8181 8.00137L-48.0766 7.78634V7.5406L-48.5426 7.66347L-48.496 7.0842L-48.8435 7.05349L-49.0045 6.404L-49.2841 6.23724L-49.1485 5.87301L-49.3773 5.63603L-49.2163 5.41661L-49.1951 5.14892L-49.4536 5.05677L-49.64 4.78908L-50.0171 5.02605L-50.2459 5.14892L-50.2756 4.73642L-50.7205 4.78908L-51.1739 4.52577L-51.2543 3.50328L-51.6399 3.61299L-51.534 2.91963L-51.7458 2.70021L-51.7289 2.66071L-51.4662 1.94101C-51.4662 1.94101 -51.712 0.997517 -51.6781 0.778095C-51.6399 0.563065 -51.1188 0.0847321 -51.1188 0.0847321L-51.2543 -0.200512C-50.8518 -0.367271 -50.6527 -0.788559 -50.4112 -0.788559C-50.0976 -0.788559 -49.6104 -0.788555 -49.7841 -0.968479C-49.9578 -1.1484 -50.5595 -1.21862 -50.6612 -1.36782C-50.7459 -1.47314 -50.8857 -1.76278 -51.4916 -1.70573C-50.7883 -2.61412 -49.0553 -4.87414 -48.8053 -5.36125C-48.4918 -5.97563 -49.8561 -6.88841 -49.8561 -6.88841L-49.4748 -7.42818L-49.7883 -7.79242L-49.8222 -8.6657H-50.1019L-50.2078 -8.92023L-50.0002 -9.17037L-50.1739 -9.31518L-50.1019 -10.1885L-49.7883 -10.2631C-49.7883 -10.2631 -50.5976 -12.4748 -50.5976 -12.5889C-50.5976 -12.703 -50.1358 -13.3174 -50.1019 -13.4622C-50.068 -13.607 -49.8222 -14.1556 -50.1019 -14.4803C-50.3815 -14.8051 -50.9111 -15.0245 -50.9111 -15.0245L-50.8052 -16.1479C-50.8052 -16.1479 -50.8179 -16.3059 -50.801 -16.5253L-50.4917 -16.6921L-50.318 -17.2362L-49.7926 -17.4864V-17.9647L-49.5129 -17.7804H-49.1994L-49.2163 -18.1358C-48.6274 -17.7804 -47.7927 -17.3591 -47.2037 -17.3108C-46.2885 -17.2406 -45.5894 -17.0958 -44.5725 -16.0777C-43.5556 -15.0596 -41.8735 -14.4803 -41.8354 -13.4973C-41.8015 -12.5143 -41.5939 -12.3344 -42.3311 -11.6103C-43.0641 -10.8818 -43.4878 -10.5571 -45.0979 -11.3207C-46.7122 -12.0799 -47.6232 -12.5538 -47.8351 -12.6635C-48.0469 -12.7732 -48.2545 -12.9532 -47.8011 -12.2642C-47.3393 -11.5796 -46.4326 -11.211 -46.3987 -10.6712C-46.3648 -10.127 -46.2928 -8.7403 -46.1529 -8.27075C-46.0131 -7.80119 -45.2038 -7.10783 -44.8183 -7.07272C-44.4369 -7.03323 -43.9751 -7.03323 -44.0853 -7.39746C-44.1954 -7.7617 -44.6106 -8.01184 -44.8945 -8.48578C-45.1742 -8.96411 -45.0005 -9.46878 -44.3352 -9.02994C-43.6658 -8.59549 -41.9837 -8.19176 -42.3735 -8.88512C-42.759 -9.57849 -43.1828 -9.75841 -42.7591 -10.1226C-42.3396 -10.4825 -41.2846 -12.0799 -40.5812 -11.72C-39.8779 -11.3558 -39.4584 -11.2505 -39.4584 -11.7902C-39.4584 -12.0272 -39.5474 -12.33 -39.6448 -12.6679L-38.5135 -12.8698C-38.4669 -12.7864 -38.4033 -12.725 -38.3059 -12.6723C-37.7466 -12.3827 -38.0263 -12.2905 -36.8568 -13.7431C-35.6832 -15.1956 -34.001 -16.7403 -32.8782 -16.1611C-31.7554 -15.5818 -31.6156 -15.9241 -30.7724 -16.0162C-29.9292 -16.1172 -29.0903 -16.1611 -28.298 -16.5034C-27.5014 -16.8413 -27.9209 -18.0481 -28.387 -18.2938C-28.8573 -18.5396 -28.387 -19.0223 -27.404 -18.5835C-26.421 -18.149 -25.1159 -18.0042 -24.2728 -17.03C-23.4296 -16.0645 -22.7729 -15.3404 -22.4932 -15.3404C-22.2136 -15.3404 -21.328 -15.5335 -22.2136 -16.793C-23.1076 -18.0481 -23.8067 -19.5533 -23.527 -20.2774C-23.2474 -21.0058 -22.4508 -22.6032 -22.0271 -24.0996C-21.6034 -25.5961 -21.4678 -26.0349 -20.7179 -25.8418C-19.9679 -25.6487 -18.7561 -25.3591 -19.1756 -23.4721C-19.595 -21.5851 -18.9849 -21.3876 -19.0358 -20.4661C-19.0824 -19.5489 -19.4044 -16.3015 -18.9383 -16.3015C-18.4722 -16.3015 -17.6757 -15.867 -17.9129 -17.4161C-18.1417 -18.9696 -18.4722 -22.0634 -17.396 -22.7436C-16.3198 -23.4194 -14.8707 -24.5341 -14.4936 -24.2883C-14.125 -24.0514 -13.1844 -22.8358 -12.7225 -22.8358C-12.2607 -22.8358 -11.926 -23.2264 -12.3454 -23.8539C-12.7649 -24.4858 -13.7945 -26.2763 -13.5615 -26.9038C-13.3242 -27.5358 -9.44306 -27.3909 -9.11681 -28.1194C-8.79055 -28.8479 -10.2396 -29.572 -9.39645 -30.634C-8.55328 -31.6959 -7.47706 -33.2012 -6.26526 -33.2012C-5.05346 -33.2012 -4.62552 -33.7804 -4.01962 -34.0218C-3.40948 -34.2675 -2.37988 -34.5089 -1.35451 -34.5572C-0.320667 -34.6054 -0.278297 -35.2856 0.378445 -35.5753C1.03095 -35.8649 1.3106 -36.2555 1.50126 -37.2209C1.68769 -38.1907 2.24699 -39.4019 2.99272 -39.6433C3.74268 -39.889 5.14514 -39.1606 4.86549 -38.8183C4.58585 -38.4804 3.64945 -37.708 4.06892 -37.7563C4.48839 -37.8046 5.93747 -37.5632 6.03068 -37.0278C6.1239 -36.4924 8.50937 -36.9269 8.97544 -36.4486C9.44152 -35.9702 11.4033 -33.6883 10.2381 -32.2357C9.07289 -30.7832 6.82725 -28.7952 7.1069 -28.4134C7.38654 -28.0229 8.45852 -28.1238 9.58134 -27.9263C10.7042 -27.7332 13.6489 -27.8342 14.2082 -27.0091C14.7675 -26.1841 17.4326 -25.0739 17.4326 -26.1359C17.4326 -27.1978 17.153 -27.9263 19.3054 -26.9609C21.4536 -25.991 21.6909 -25.5566 21.4112 -24.8281C21.1316 -24.0996 20.8519 -23.4238 21.2714 -22.6954C21.6908 -21.9669 22.9026 -19.5006 23.2797 -21.3394C23.6568 -23.1825 23.4196 -23.5204 24.4026 -22.7436C25.3856 -21.9669 28.7964 -21.8177 29.0294 -22.6427C29.2667 -23.4677 28.7498 -25.2099 30.7116 -24.9203C32.6733 -24.6306 35.1562 -24.5297 35.7621 -23.8056C36.368 -23.0772 36.8383 -22.5988 37.4442 -21.6729C38.0501 -20.7557 39.2238 -20.7557 40.0119 -20.9971C40.8085 -21.234 43.3761 -21.1419 43.427 -20.172C43.4736 -19.2022 43.0965 -17.7014 44.5921 -17.8945C46.0921 -18.092 47.5369 -18.092 48.003 -17.8023C48.4733 -17.5127 49.1258 -18.2368 49.4563 -18.285C49.7826 -18.3333 52.2104 -19.347 54.0832 -18.6229C55.9517 -17.8945 58.2906 -16.1084 59.5532 -15.2351C60.8158 -14.3618 61.6082 -13.9756 61.6082 -13.6377C61.6082 -13.2998 61.4218 -12.1852 61.748 -12.1852C62.0743 -12.1852 62.337 -12.7996 62.337 -12.7996C62.5446 -12.7996 63.7521 -12.6767 63.8072 -12.5845C63.9132 -12.4046 65.1758 -10.952 65.1758 -10.952C64.8961 -10.4737 64.6165 -10.3728 64.6504 -10.2192C64.6843 -10.0788 64.0233 -10.0042 63.8072 -9.67942C63.5954 -9.35029 63.214 -7.5335 62.9979 -7.60372C62.7903 -7.67832 60.9684 -8.40679 60.9345 -8.80613C60.8964 -9.20547 60.4091 -9.96906 59.7735 -9.82424C59.1465 -9.67942 58.6507 -10.5527 58.7228 -10.7677C58.7906 -10.9872 58.1973 -11.3821 58.1296 -10.9872C58.0575 -10.5878 58.5448 -9.67942 58.0575 -9.17037C57.5703 -8.6657 56.6551 -8.18737 56.3415 -8.41118C56.0238 -8.6306 55.4263 -8.73592 55.6721 -8.34096C55.9178 -7.94162 56.2653 -7.82752 56.583 -7.42818C56.9008 -7.02884 56.7949 -6.66899 57.1084 -6.30475C57.422 -5.94052 57.8118 -4.95752 57.494 -4.703C57.1805 -4.45286 56.1974 -5.03212 55.7398 -4.81271C55.2865 -4.59768 51.2189 -2.12701 51.185 -1.58286C51.1511 -1.0387 50.7317 -0.529644 50.13 -1.72767C49.5368 -2.9257 48.5538 -0.45504 47.9945 -0.599857C47.4861 -0.731506 47.0073 -1.37221 46.3971 -0.784168L44.8676 -1.39415C45.554 -2.09629 46.359 -2.86865 46.5963 -3.57957C46.9141 -4.52308 47.4395 -5.46658 46.4904 -5.06723C45.5497 -4.66789 45.9692 -4.40897 44.8464 -3.0003C43.7236 -1.58286 43.7914 -1.18351 43.6854 -1.76278C43.5837 -2.34205 43.9651 -3.69367 43.0583 -3.69367C42.1516 -3.69367 40.2873 -1.84177 39.8339 -1.1133C39.3806 -0.384823 40.5034 0.269043 39.3085 0.374367C38.1179 0.484074 37.7662 0.194439 35.0333 0.0847321C32.2962 -0.0205917 31.2793 -0.240005 28.8218 2.91963C26.3686 6.07927 25.4957 6.76824 27.1058 7.05787C28.7201 7.3475 30.0506 6.4435 30.1565 8.08036C30.2624 9.71284 29.3811 15.2685 27.038 17.6295C24.6864 19.9948 24.4068 20.4644 23.7712 19.9948C23.4916 19.7842 22.9747 20.0826 22.4493 20.5521L22.3688 20.065L22.2501 19.9773L22.7925 19.8105L22.8942 18.5423C22.8942 18.5423 22.5128 17.9191 22.6484 17.7743C22.7925 17.6295 23.284 17.0897 23.6357 17.3399C23.9831 17.5944 24.017 17.669 24.3305 17.0502C24.6483 16.4358 25.0381 15.7776 24.9322 15.5275C24.8263 15.2729 25.3178 14.7244 25.3178 14.7244V13.9959L24.1229 14.2153C24.1229 14.2153 23.9492 14.6849 23.4874 14.6849C23.0255 14.6849 22.2968 14.6849 22.3646 14.3952C22.4366 14.1056 22.2968 13.3771 22.2968 13.3771L22.0171 13.2674L21.5214 12.7277L21.068 12.618L20.335 12.5082L20.1613 11.7491L19.602 10.6958C19.602 10.6958 19.602 9.49342 19.4622 9.49342C19.3223 9.49342 19.2164 8.44021 17.9538 8.11547C16.6911 7.79073 16.1318 8.15058 15.9157 8.15058C15.6997 8.15058 15.0048 8.3305 14.8988 8.76495C14.7929 9.1994 15.2166 9.05458 15.2166 9.05458L15.2844 9.63385C15.2844 9.63385 14.6573 10.1473 14.5811 10.472C14.509 10.7968 14.1277 11.5252 14.1955 11.6701C14.2675 11.8149 14.0218 12.3634 13.6023 12.4731C13.2845 12.5565 12.8566 12.4424 12.4583 12.3108C12.3354 12.2713 12.2126 12.223 12.0939 12.1835C11.6067 11.9992 11.2169 12.2537 11.0431 12.0738C10.8652 11.8939 10.6576 11.5691 10.1661 12.1484C9.67032 12.7277 8.89917 13.0217 8.02211 13.0217C7.14503 13.0217 6.27219 12.8023 6.13237 12.4424C5.99254 12.0782 5.57309 12.1528 5.57309 12.1528C5.57309 12.1528 5.32733 11.4199 4.62397 11.5735C3.92062 11.7139 2.80205 12.1879 2.34445 11.6086C1.88261 11.0294 1.81904 10.4808 1.81904 10.4808L1.08604 10.121L0.204727 10.0815L0.242859 9.83133L-0.3927 9.5022C-1.26977 10.4501 -1.09606 11.1742 -0.951996 11.3892C-0.812172 11.6086 -1.01979 12.4073 -1.33333 12.3722C-1.65111 12.3371 -2.1765 11.9026 -2.6002 12.0475C-3.01544 12.1923 -3.57473 12.008 -3.75693 11.5779C-3.93065 11.1347 -4.6001 11.4287 -4.6001 11.4287L-4.63399 11.2137L-5.26108 10.9986L-7.43893 12.6311L-8.10838 12.7408C-8.10838 12.7408 -8.18889 12.8549 -8.2821 12.9383H-8.28635C-8.34143 12.991 -8.40498 13.0305 -8.45583 13.0305C-8.50667 13.0305 -8.61259 12.9954 -8.73123 12.9427C-8.94308 12.8418 -9.19307 12.6969 -9.19307 12.6311C-9.19307 12.5214 -9.15918 12.302 -9.15918 12.302C-9.15918 12.302 -9.57865 12.9251 -9.96846 12.6662C-10.354 12.4117 -10.5277 12.008 -10.5277 12.008L-11.0235 11.6481C-11.0235 11.6481 -11.1252 10.9986 -11.6167 11.0337C-12.1039 11.0689 -12.2776 11.2488 -12.2776 11.2488L-12.803 11.2137L-13.0827 11.0689C-13.0827 11.0689 -13.3284 10.3404 -13.4344 10.5247C-13.5403 10.709 -13.9937 11.2532 -13.9937 11.2532C-13.9937 11.2532 -15.2224 8.60258 -15.3241 8.49287C-15.43 8.38755 -16.413 7.43966 -16.413 7.43966C-16.413 7.43966 -16.5189 7.15003 -16.3791 7.04032C-16.2393 6.935 -15.7859 6.42595 -16.6249 6.8955C-17.468 7.36506 -18.0951 7.69858 -18.0951 7.69858L-18.6544 8.02332C-18.6544 8.02332 -18.8281 7.62397 -18.6544 7.55376C-18.4807 7.47916 -18.307 7.26413 -18.307 7.26413L-19.3239 7.33434L-19.7095 6.93938C-19.7095 6.93938 -20.3365 7.44405 -20.3704 7.11931C-20.4043 6.79018 -20.3365 6.20652 -20.4425 6.13631C-20.5484 6.06609 -20.4425 5.66676 -20.5823 5.66676C-20.7221 5.66676 -20.8619 5.84668 -21.2433 5.77646C-21.6288 5.70186 -21.9509 5.37712 -21.9509 5.37712L-22.2983 5.77646L-22.472 6.0266L-24.4761 6.35573L-24.5439 6.78579L-25.6329 6.9701L-26.5735 7.36506L-27.0353 7.32995L-27.4887 7.22463L-27.7683 7.72929L-27.315 7.94432L-27.4887 8.19885L-26.7853 8.56309L-27.6285 8.48848C-27.6285 8.48848 -27.7344 8.92294 -27.6963 9.10286C-27.6624 9.28717 -27.7344 9.35738 -28.048 9.58119C-28.3615 9.79622 -28.1878 10.0508 -28.1878 10.0508C-28.1878 10.0508 -27.7683 10.1605 -27.5183 10.415C-27.2684 10.6695 -27.0311 11.3892 -27.4845 11.3892C-27.9378 11.3892 -28.3997 11.1347 -28.3997 11.1347L-28.6412 11.534C-28.6412 11.534 -29.3742 11.0645 -29.4504 10.9196C-29.5225 10.7748 -29.9377 10.845 -29.9377 10.845L-30.1157 11.1742L-30.497 10.845C-30.497 10.845 -30.8826 10.9943 -31.0563 11.2093C-31.2343 11.4243 -31.3359 11.6086 -31.3359 11.6086L-32.1452 10.9504L-32.2512 11.5296L-32.6367 10.8363L-33.0901 10.3667H-33.6494L-33.8231 10.0771C-33.8231 10.0771 -34.2849 10.3667 -34.4163 10.4413C-34.5603 10.5115 -34.5603 10.1868 -34.5603 10.1868L-34.9417 10.1517L-35.9247 10.8802L-35.9628 11.24L-36.5221 11.4199C-36.5221 11.4199 -36.2764 12.3327 -36.4501 12.2932C-36.6238 12.2581 -37.217 11.6437 -37.217 11.6437L-37.7127 12.223L-37.6788 13.1314L-37.9924 13.9345L-37.5729 14.0047L-37.6068 14.6629H-36.9373L-36.2425 15.7161L-36.7297 15.7864L-35.9204 16.3086C-35.9204 16.3086 -35.9247 16.313 -35.9332 16.3217C-36.4713 16.7562 -37.5263 17.5593 -37.5263 17.8752C-37.5263 18.1912 -37.1958 18.6037 -37.1746 19.1347C-37.1534 19.6613 -37.1068 20.3678 -36.6874 20.754C-36.6196 20.8111 -36.5518 20.8857 -36.4924 20.9734L-37.0136 21.4913L-37.467 21.3464L-37.7805 20.9471L-38.1915 20.8067L-38.2042 20.776Z" fill="#90C6DE" stroke="white" stroke-width="0.06" mask="url(#path-25-inside-1_4558_35139)"/>
</g>
</svg>
