<svg width="24" height="24" viewBox="0 0 24 24" fill="none" xmlns="http://www.w3.org/2000/svg">
<g clip-path="url(#clip0_6144_24354)">
<g clip-path="url(#clip1_6144_24354)">
<mask id="mask0_6144_24354" style="mask-type:luminance" maskUnits="userSpaceOnUse" x="-4" y="0" width="32" height="24">
<rect x="-4" width="32" height="24" fill="white"/>
</mask>
<g mask="url(#mask0_6144_24354)">
<path fill-rule="evenodd" clip-rule="evenodd" d="M-4 0V8H28V0H-4Z" fill="#292B2E"/>
<path fill-rule="evenodd" clip-rule="evenodd" d="M-4 16V24H28V16H-4Z" fill="#4E8B1D"/>
<path d="M-4 7H-5V8V16V17H-4H28H29V16V8V7H28H-4Z" fill="#E31D1C" stroke="#F7FCFF" stroke-width="2"/>
</g>
<path d="M14.4155 5.45481C14.5678 5.14265 14.9771 4.80178 15.6435 4.43219C15.6664 4.41949 15.694 4.41876 15.7176 4.43024C15.7574 4.44967 15.7739 4.4977 15.7543 4.53743L8.84926 18.6948L8.48975 18.5195L14.5765 6.03984C14.3008 5.99494 14.2472 5.79993 14.4155 5.45481Z" fill="white"/>
<path d="M9.57702 5.45481C9.74535 5.79993 9.6917 5.99494 9.41607 6.03984L15.5028 18.5195L15.1433 18.6948L8.23825 4.53743C8.21862 4.4977 8.23516 4.44967 8.27498 4.43024C8.29852 4.41876 8.32618 4.41949 8.34908 4.43219C9.01546 4.80178 9.42477 5.14265 9.57702 5.45481Z" fill="white"/>
<path fill-rule="evenodd" clip-rule="evenodd" d="M12 18.3117C12.7974 18.3117 16 15.4463 16 11.9117C16 8.3771 12.7974 5.51172 12 5.51172C11.2026 5.51172 8 8.3771 8 11.9117C8 15.4463 11.2026 18.3117 12 18.3117Z" fill="#E31D1C"/>
<mask id="mask1_6144_24354" style="mask-type:luminance" maskUnits="userSpaceOnUse" x="8" y="5" width="8" height="14">
<path fill-rule="evenodd" clip-rule="evenodd" d="M12 18.3117C12.7974 18.3117 16 15.4463 16 11.9117C16 8.3771 12.7974 5.51172 12 5.51172C11.2026 5.51172 8 8.3771 8 11.9117C8 15.4463 11.2026 18.3117 12 18.3117Z" fill="white"/>
</mask>
<g mask="url(#mask1_6144_24354)">
<path d="M4.40005 17.5118C7.49284 17.5118 10 15.0046 10 11.9118C10 8.81897 7.49284 6.31177 4.40005 6.31177C1.30725 6.31177 -1.19995 8.81897 -1.19995 11.9118C-1.19995 15.0046 1.30725 17.5118 4.40005 17.5118Z" fill="#292B2E"/>
<path d="M19.6 17.5118C22.6928 17.5118 25.2 15.0046 25.2 11.9118C25.2 8.81897 22.6928 6.31177 19.6 6.31177C16.5072 6.31177 14 8.81897 14 11.9118C14 15.0046 16.5072 17.5118 19.6 17.5118Z" fill="#292B2E"/>
<path fill-rule="evenodd" clip-rule="evenodd" d="M12.1599 11.0557C12.5251 10.7963 12.8 9.66631 12.8 8.31164C12.8 6.95698 12.5251 5.82701 12.1599 5.56763V11.0557ZM11.7599 10.9834C11.4354 10.6266 11.2 9.56533 11.2 8.31164C11.2 7.05796 11.4354 5.99671 11.7599 5.63987V10.9834ZM11.7599 12.84V18.1835C11.4354 17.8266 11.2 16.7654 11.2 15.5117C11.2 14.2581 11.4354 13.1969 11.7599 12.84ZM12.1599 18.2558V12.7677C12.5251 13.027 12.8 14.157 12.8 15.5117C12.8 16.8665 12.5251 17.9965 12.1599 18.2558Z" fill="#F7FCFF"/>
<path d="M12 11.1117C12.4418 11.1117 12.8 11.4698 12.8 11.9117C12.8 12.3535 12.4418 12.7117 12 12.7117C11.5581 12.7117 11.2 12.3535 11.2 11.9117C11.2 11.4698 11.5581 11.1117 12 11.1117Z" fill="#F7FCFF"/>
</g>
</g>
<g style="mix-blend-mode:hard-light" opacity="0.12">
<rect width="24" height="24" rx="12" fill="white"/>
</g>
<rect width="24" height="24" fill="url(#paint0_linear_6144_24354)" fill-opacity="0.64" style="mix-blend-mode:overlay"/>
</g>
<defs>
<linearGradient id="paint0_linear_6144_24354" x1="24" y1="1.19273e-06" x2="-4.48665" y2="16.0237" gradientUnits="userSpaceOnUse">
<stop stop-color="white" stop-opacity="0.3"/>
<stop offset="0.262741" stop-opacity="0.27"/>
<stop offset="0.369956" stop-color="white" stop-opacity="0.26"/>
<stop offset="0.487001" stop-opacity="0.55"/>
<stop offset="0.594445" stop-opacity="0.24"/>
<stop offset="0.736408" stop-color="white" stop-opacity="0.3"/>
<stop offset="0.901459" stop-color="#272727" stop-opacity="0.22"/>
<stop offset="1" stop-opacity="0.2"/>
</linearGradient>
<clipPath id="clip0_6144_24354">
<rect width="24" height="24" rx="12" fill="white"/>
</clipPath>
<clipPath id="clip1_6144_24354">
<rect width="24" height="24" fill="white"/>
</clipPath>
</defs>
</svg>
