<svg width="24" height="24" viewBox="0 0 24 24" fill="none" xmlns="http://www.w3.org/2000/svg">
<g clip-path="url(#clip0_6144_24387)">
<g clip-path="url(#clip1_6144_24387)">
<mask id="mask0_6144_24387" style="mask-type:luminance" maskUnits="userSpaceOnUse" x="-4" y="0" width="32" height="24">
<rect x="-4" width="32" height="24" fill="white"/>
</mask>
<g mask="url(#mask0_6144_24387)">
<path fill-rule="evenodd" clip-rule="evenodd" d="M-4 0V24H28V0H-4Z" fill="#1C9975"/>
<mask id="mask1_6144_24387" style="mask-type:luminance" maskUnits="userSpaceOnUse" x="-4" y="0" width="32" height="24">
<path fill-rule="evenodd" clip-rule="evenodd" d="M-4 0V24H28V0H-4Z" fill="white"/>
</mask>
<g mask="url(#mask1_6144_24387)">
<path fill-rule="evenodd" clip-rule="evenodd" d="M11.9028 7.93457L10.7757 8.61498L11.0328 7.28722L10.0942 6.29353L11.3651 6.2398L11.9028 5L12.4405 6.2398H13.7092L12.7728 7.28722L13.0547 8.61498L11.9028 7.93457Z" fill="#FECA00"/>
<path fill-rule="evenodd" clip-rule="evenodd" d="M8.70226 8.43877L8.00537 8.85948L8.16433 8.0385L7.58398 7.42408L8.3698 7.39086L8.70226 6.62427L9.03472 7.39086H9.8192L9.2402 8.0385L9.41451 8.85948L8.70226 8.43877Z" fill="#FECA00"/>
<path fill-rule="evenodd" clip-rule="evenodd" d="M15.048 8.43877L14.3511 8.85948L14.51 8.0385L13.9297 7.42408L14.7155 7.39086L15.048 6.62427L15.3804 7.39086H16.1649L15.5859 8.0385L15.7602 8.85948L15.048 8.43877Z" fill="#FECA00"/>
<path fill-rule="evenodd" clip-rule="evenodd" d="M6.89738 9.83621L6.33815 10.1738L6.46571 9.51501L6 9.02195L6.63059 8.99529L6.89738 8.38013L7.16417 8.99529H7.79369L7.32906 9.51501L7.46894 10.1738L6.89738 9.83621Z" fill="#FECA00"/>
<path fill-rule="evenodd" clip-rule="evenodd" d="M17.1034 9.83621L16.5442 10.1738L16.6718 9.51501L16.2061 9.02195L16.8366 8.99529L17.1034 8.38013L17.3702 8.99529H17.9997L17.5351 9.51501L17.675 10.1738L17.1034 9.83621Z" fill="#FECA00"/>
<mask id="mask2_6144_24387" style="mask-type:luminance" maskUnits="userSpaceOnUse" x="6" y="7" width="12" height="12">
<path fill-rule="evenodd" clip-rule="evenodd" d="M11.8877 18.3836C14.9358 18.3836 17.4068 15.9126 17.4068 12.8645C17.4068 9.81642 14.9358 7.34546 11.8877 7.34546C8.83962 7.34546 6.36865 9.81642 6.36865 12.8645C6.36865 15.9126 8.83962 18.3836 11.8877 18.3836Z" fill="white"/>
</mask>
<g mask="url(#mask2_6144_24387)">
<path fill-rule="evenodd" clip-rule="evenodd" d="M9.59814 17.7378H14.1778V18.4776H9.59814V17.7378Z" fill="#F7FCFF"/>
<path fill-rule="evenodd" clip-rule="evenodd" d="M7.71924 16.6313H16.5262V17.3095H7.71924V16.6313Z" fill="#F7FCFF"/>
<path d="M9.55609 16.3284H6.8623V15.6385L9.55124 15.6385C10.5038 15.6251 11.1998 15.3531 11.6642 14.8297L11.8956 14.5688L12.1539 14.8031C12.7742 15.3654 13.3937 15.6385 14.0204 15.6385H16.9899V16.3284H14.0204C13.3004 16.3284 12.6053 16.0575 11.9406 15.5272C11.3519 16.049 10.5526 16.3144 9.55609 16.3284Z" fill="#F7FCFF"/>
</g>
<path fill-rule="evenodd" clip-rule="evenodd" d="M11.9115 8.45483C11.9115 8.45483 10.7326 9.61935 10.7326 11.2175C10.7326 11.5594 10.7866 11.8824 10.8714 12.179C10.4918 11.3373 10.4655 10.4247 10.7932 9.42923L10.3471 9.28235C10.0137 10.2952 10.0122 11.2474 10.3432 12.1299C9.65841 11.7173 8.87053 11.4401 8.06184 11.3507L8.01023 11.8175C8.71674 11.8956 9.40633 12.1312 10.0118 12.4798C9.86247 12.4196 9.70589 12.3673 9.54255 12.3256C8.05037 11.9448 6.58643 12.4848 6.58643 12.4848C6.58643 12.4848 7.4309 14.3793 9.06654 14.6587C9.14782 14.6726 9.22817 14.6834 9.30749 14.6914L9.29587 14.6915C8.51602 14.6915 7.79081 14.3726 7.11171 13.7249L6.78751 14.0647C7.55029 14.7923 8.38925 15.1612 9.29587 15.1612C10.1824 15.1612 11.0057 14.8085 11.7581 14.1126C11.879 14.0396 11.9498 13.9873 11.9611 13.9788L11.9907 14.0039C11.9751 14.0306 11.9674 14.0451 11.9674 14.0451C11.9674 14.0451 12.0416 14.09 12.1753 14.1533C12.9183 14.7291 13.8478 15.1612 14.5833 15.1612C15.4899 15.1612 16.3288 14.7924 17.0916 14.0648L16.7674 13.7249C16.0883 14.3727 15.3631 14.6915 14.5833 14.6915C14.2983 14.6915 14.0191 14.6458 13.7453 14.5536C14.1287 14.5743 14.5512 14.5397 14.9885 14.406C16.5997 13.9134 17.2713 12.4235 17.2713 12.4235C17.2713 12.4235 16.4143 11.9611 15.3257 11.9558C15.5695 11.8929 15.824 11.8469 16.0892 11.8175L16.0376 11.3507C15.0164 11.4636 14.1328 11.8083 13.3917 12.3835C13.825 11.4307 13.8586 10.3929 13.493 9.28235L13.0468 9.42923C13.3455 10.3366 13.3502 11.1752 13.0611 11.9539C13.1106 11.7236 13.1399 11.4776 13.1399 11.2175C13.1399 9.53273 11.9115 8.45483 11.9115 8.45483ZM12.43 13.3859L12.4131 13.4103L12.4338 13.3856L12.43 13.3859ZM11.2908 13.2758L11.3368 13.2334C11.3787 13.303 11.4205 13.3685 11.4614 13.4297C11.4084 13.3798 11.3515 13.3282 11.2908 13.2758Z" fill="#F7FCFF"/>
</g>
</g>
</g>
<g style="mix-blend-mode:hard-light" opacity="0.12">
<rect width="24" height="24" rx="12" fill="white"/>
</g>
<rect width="24" height="24" fill="url(#paint0_linear_6144_24387)" fill-opacity="0.64" style="mix-blend-mode:overlay"/>
</g>
<defs>
<linearGradient id="paint0_linear_6144_24387" x1="24" y1="1.19273e-06" x2="-4.48665" y2="16.0237" gradientUnits="userSpaceOnUse">
<stop stop-color="white" stop-opacity="0.3"/>
<stop offset="0.262741" stop-opacity="0.27"/>
<stop offset="0.369956" stop-color="white" stop-opacity="0.26"/>
<stop offset="0.487001" stop-opacity="0.55"/>
<stop offset="0.594445" stop-opacity="0.24"/>
<stop offset="0.736408" stop-color="white" stop-opacity="0.3"/>
<stop offset="0.901459" stop-color="#272727" stop-opacity="0.22"/>
<stop offset="1" stop-opacity="0.2"/>
</linearGradient>
<clipPath id="clip0_6144_24387">
<rect width="24" height="24" rx="12" fill="white"/>
</clipPath>
<clipPath id="clip1_6144_24387">
<rect width="24" height="24" fill="white"/>
</clipPath>
</defs>
</svg>
