<svg xmlns="http://www.w3.org/2000/svg" id="Layer_1" viewBox="0 0 184 100"><defs><style>.cls-1{fill:#56575a;stroke-width:0px;}</style></defs><path class="cls-1" d="M126,30.63h-3.68v3.75h3.71v-3.71l-.03-.04ZM135.31,27.89h-3.71v3.71h3.71v-3.71ZM132.52,36.25h-3.71v3.71h3.71v-3.71ZM139.96,36.25h-2.79v2.79h2.79v-2.79ZM145.73,32.35h-2.7v2.7h2.7v-2.7ZM139.04,42.74h-1.87v1.87h1.87v-1.87ZM143.67,49.26h-.92v.92h.92v-.92ZM145.54,41.82h-2.79v2.79h2.79v-2.79ZM151.11,39.03h-2.79v2.79h2.79v-2.79ZM151.11,47.39h-2.79v2.79h2.79v-2.79ZM155.48,44.61h-1.59v1.59h1.59v-1.59ZM117.67,36.25h-2.79v2.79h2.79v-2.79ZM110.9,40.23h-1.59v1.59h1.59v-1.59Z"></path><path class="cls-1" d="M42.42,55.29l-7.22-16.26-6.69,25.07h3.73l3.71-14.07,6.49,14.07,6.52-13.93,3.62,13.93h3.79l-6.66-25.07-7.24,16.3-.06-.04ZM64.74,47.39c-2.31,0-4.29.84-5.93,2.48-1.55,1.53-2.43,3.62-2.42,5.8-.14,4.52,3.41,8.3,7.93,8.44.14,0,.28,0,.42,0,3.06,0,5.57-1.2,7.38-3.54l.17-.22-2.84-2.15-.14.22c-1.77,2.39-5.14,2.88-7.52,1.11,0,0,0,0,0,0-.84-.61-1.42-1.59-1.7-2.84h13.01v-.31c.14-2.41-.74-4.76-2.42-6.49-1.62-1.67-3.62-2.51-5.91-2.51h-.03ZM60.56,53.49c.92-1.67,2.28-2.51,4.23-2.51,1.78,0,3.09.84,4.1,2.51h-8.36.03ZM79.5,41.82h-3.62v22.29h3.62v-22.29ZM89.87,47.39c-2.37,0-4.32.84-5.96,2.48-1.57,1.52-2.45,3.61-2.45,5.8-.14,4.52,3.41,8.3,7.93,8.44.14,0,.28,0,.42,0,3.09,0,5.57-1.2,7.41-3.54l.2-.22-2.87-2.15-.2.22c-1.78,2.37-5.13,2.87-7.52,1.11-.84-.61-1.42-1.59-1.73-2.84h13.07v-.31c.14-2.41-.75-4.77-2.45-6.49-1.53-1.67-3.57-2.51-5.85-2.51ZM85.58,53.49c.95-1.67,2.31-2.51,4.29-2.51,1.78,0,3.06.84,4.07,2.51h-8.36ZM116.5,47.39h-5.1l-3.43,4.35-3.54-4.35h-5.1l6.13,7.58-7.3,9.14h5.01l4.74-5.57,4.74,5.57h5.01l-7.24-9.14,6.1-7.58h-.03ZM124.08,41.82h-3.62v2.79h3.62v-2.79ZM124.08,47.39h-3.62v16.72h3.62v-16.72ZM132.41,53.74c-1.95-.78-2.23-1.39-2.23-1.7,0-.53.17-1.11,1.59-1.11.5,0,.89.08,1.25.28.36.17.84.45,1.39.86l.17.14,2.54-2.26-.28-.25c-1.81-1.53-3.45-2.31-4.93-2.31s-2.73.47-3.73,1.34c-1,.89-1.5,2.06-1.5,3.4,0,1.11.36,2.03,1.09,2.79.7.75,1.92,1.45,3.68,2.15,1.56.59,2.37,1.28,2.37,1.98,0,.39-.17.7-.59,1.03-.45.33-1,.49-1.56.47-.84,0-1.67-.42-2.51-1.23l-.11-.14-3.01,1.5.22.31c1.39,2.09,3.23,3.12,5.46,3.12,1.45,0,2.73-.5,3.82-1.53,1.11-1.03,1.64-2.23,1.64-3.57,0-1.17-.42-2.2-1.11-3.04-.81-.84-2.03-1.56-3.65-2.23Z"></path></svg>