<svg width="24" height="24" viewBox="0 0 24 24" fill="none" xmlns="http://www.w3.org/2000/svg">
<g clip-path="url(#clip0_6144_24405)">
<g clip-path="url(#clip1_6144_24405)">
<mask id="mask0_6144_24405" style="mask-type:luminance" maskUnits="userSpaceOnUse" x="-4" y="0" width="32" height="24">
<rect x="-4" width="32" height="24" fill="white"/>
</mask>
<g mask="url(#mask0_6144_24405)">
<path fill-rule="evenodd" clip-rule="evenodd" d="M-4 0V24H28V0H-4Z" fill="#F7FCFF"/>
<mask id="mask1_6144_24405" style="mask-type:luminance" maskUnits="userSpaceOnUse" x="-4" y="0" width="32" height="24">
<path fill-rule="evenodd" clip-rule="evenodd" d="M-4 0V24H28V0H-4Z" fill="white"/>
</mask>
<g mask="url(#mask1_6144_24405)">
<path fill-rule="evenodd" clip-rule="evenodd" d="M-4 0V8H28V0H-4Z" fill="#0080EC"/>
<path fill-rule="evenodd" clip-rule="evenodd" d="M-4 16V24H28V16H-4Z" fill="#0080EC"/>
<path fill-rule="evenodd" clip-rule="evenodd" d="M12 8C12.1885 8 12.3739 8.01303 12.5554 8.03825L12.3573 9.31426C12.2404 9.29886 12.1211 9.29091 12 9.29091C11.8239 9.29091 11.6516 9.30772 11.4849 9.33982L11.3923 8.04587C11.5905 8.01566 11.7934 8 12 8ZM13.1521 8.16841L12.8045 9.41237C13.9079 9.75505 14.7091 10.784 14.7091 12C14.7091 12.0299 14.7086 12.0597 14.7076 12.0893L15.9952 12.1985C15.9984 12.1327 16 12.0666 16 12C16 10.1914 14.7996 8.66311 13.1521 8.16841ZM15.5134 13.9136C14.8796 15.075 13.6866 15.8874 12.2963 15.9892V14.6931C13.037 14.6125 13.688 14.2334 14.1265 13.6786L15.5134 13.9136ZM8.57679 14.0704C9.24076 15.1658 10.4158 15.9171 11.7712 15.9936V14.6996C10.9812 14.6335 10.2876 14.2285 9.83628 13.6304L8.57679 14.0704ZM8.00361 12.1715C8.00121 12.1146 8 12.0575 8 12C8 10.3016 9.05856 8.85037 10.5519 8.27017L10.8858 9.52992C9.95086 9.95231 9.29859 10.8899 9.29098 11.9807L8.00361 12.1715Z" fill="#D0AB00"/>
<path fill-rule="evenodd" clip-rule="evenodd" d="M11.9749 8.94971L9.23804 13.6805H14.7548L11.9749 8.94971Z" fill="#7CDFFF"/>
<mask id="mask2_6144_24405" style="mask-type:luminance" maskUnits="userSpaceOnUse" x="9" y="8" width="6" height="6">
<path fill-rule="evenodd" clip-rule="evenodd" d="M11.9749 8.94971L9.23804 13.6805H14.7548L11.9749 8.94971Z" fill="white"/>
</mask>
<g mask="url(#mask2_6144_24405)">
<path d="M12 15.1182C13.3205 15.1182 14.3909 14.0478 14.3909 12.7273C14.3909 11.4069 13.3205 10.3364 12 10.3364C10.6796 10.3364 9.60913 11.4069 9.60913 12.7273C9.60913 14.0478 10.6796 15.1182 12 15.1182Z" stroke="#E31D1C"/>
<path d="M12 15.1182C13.3205 15.1182 14.3909 14.0478 14.3909 12.7273C14.3909 11.4069 13.3205 10.3364 12 10.3364C10.6796 10.3364 9.60913 11.4069 9.60913 12.7273C9.60913 14.0478 10.6796 15.1182 12 15.1182Z" stroke="#FFD018"/>
<path d="M12 15.1182C13.3205 15.1182 14.3909 14.0478 14.3909 12.7273C14.3909 11.4069 13.3205 10.3364 12 10.3364C10.6796 10.3364 9.60913 11.4069 9.60913 12.7273C9.60913 14.0478 10.6796 15.1182 12 15.1182Z" stroke="#4EDD00"/>
<path d="M12 15.1182C13.3205 15.1182 14.3909 14.0478 14.3909 12.7273C14.3909 11.4069 13.3205 10.3364 12 10.3364C10.6796 10.3364 9.60913 11.4069 9.60913 12.7273C9.60913 14.0478 10.6796 15.1182 12 15.1182Z" stroke="#3D58DB"/>
<rect x="9.01831" y="12.2183" width="6.25455" height="1.81818" fill="#3D58DB"/>
<path fill-rule="evenodd" clip-rule="evenodd" d="M9.43701 12.9909L10.6836 11.7513L11.0662 12.3711L11.3334 11.6152L11.6303 12.1818L11.942 11.7513L12.3454 12.1818L12.7153 11.6152L13.0314 12.1818L13.3941 11.7513L14.2417 12.652L14.3943 12.9909L9.43701 13.2424V12.9909Z" fill="#97C923"/>
</g>
</g>
</g>
</g>
<g style="mix-blend-mode:hard-light" opacity="0.12">
<rect width="24" height="24" rx="12" fill="white"/>
</g>
<rect width="24" height="24" fill="url(#paint0_linear_6144_24405)" fill-opacity="0.64" style="mix-blend-mode:overlay"/>
</g>
<defs>
<linearGradient id="paint0_linear_6144_24405" x1="24" y1="1.19273e-06" x2="-4.48665" y2="16.0237" gradientUnits="userSpaceOnUse">
<stop stop-color="white" stop-opacity="0.3"/>
<stop offset="0.262741" stop-opacity="0.27"/>
<stop offset="0.369956" stop-color="white" stop-opacity="0.26"/>
<stop offset="0.487001" stop-opacity="0.55"/>
<stop offset="0.594445" stop-opacity="0.24"/>
<stop offset="0.736408" stop-color="white" stop-opacity="0.3"/>
<stop offset="0.901459" stop-color="#272727" stop-opacity="0.22"/>
<stop offset="1" stop-opacity="0.2"/>
</linearGradient>
<clipPath id="clip0_6144_24405">
<rect width="24" height="24" rx="12" fill="white"/>
</clipPath>
<clipPath id="clip1_6144_24405">
<rect width="24" height="24" fill="white"/>
</clipPath>
</defs>
</svg>
