<svg width="24" height="24" viewBox="0 0 24 24" fill="none" xmlns="http://www.w3.org/2000/svg">
<g clip-path="url(#clip0_6144_24443)">
<g clip-path="url(#clip1_6144_24443)">
<mask id="mask0_6144_24443" style="mask-type:luminance" maskUnits="userSpaceOnUse" x="-4" y="0" width="32" height="24">
<rect x="-4" width="32" height="24" fill="white"/>
</mask>
<g mask="url(#mask0_6144_24443)">
<path fill-rule="evenodd" clip-rule="evenodd" d="M-4 0V24H28V0H-4Z" fill="#3D58DB"/>
<mask id="mask1_6144_24443" style="mask-type:luminance" maskUnits="userSpaceOnUse" x="-4" y="0" width="32" height="24">
<path fill-rule="evenodd" clip-rule="evenodd" d="M-4 0V24H28V0H-4Z" fill="white"/>
</mask>
<g mask="url(#mask1_6144_24443)">
<path fill-rule="evenodd" clip-rule="evenodd" d="M-4 0V8H28V0H-4Z" fill="#F7FCFF"/>
<path fill-rule="evenodd" clip-rule="evenodd" d="M-4 16V24H28V16H-4Z" fill="#E31D1C"/>
<path d="M11.604 6.03027L12.1012 5.97737L12.0537 5.53027H11.604H2.34495H1.87753L1.84608 5.99663L2.34495 6.03027L1.84608 5.99672L1.84606 5.99694L1.84601 5.99774L1.8458 6.00081L1.84501 6.01273L1.84196 6.05899L1.83062 6.23518C1.82096 6.38756 1.80742 6.60681 1.79183 6.87476C1.76066 7.41051 1.72128 8.14173 1.68846 8.92289C1.62378 10.4625 1.58089 12.2649 1.69291 13.1066C1.91148 14.7491 2.91162 18.4362 6.77994 20.1072L6.98169 20.1943L7.18231 20.1046C10.8565 18.4617 12.0854 15.1531 12.3688 13.1093C12.5119 12.0779 12.4392 10.2731 12.3388 8.77326C12.2879 8.01324 12.2286 7.31489 12.182 6.8067C12.1587 6.5525 12.1385 6.34563 12.1242 6.20211C12.117 6.13034 12.1113 6.07439 12.1074 6.03627L12.1028 5.99271L12.1017 5.98142L12.1013 5.97848L12.1013 5.9777L12.1012 5.97748C12.1012 5.97742 12.1012 5.97737 11.604 6.03027Z" fill="#E31D1C" stroke="white"/>
<mask id="mask2_6144_24443" style="mask-type:luminance" maskUnits="userSpaceOnUse" x="1" y="5" width="12" height="16">
<path d="M11.604 6.03027L12.1012 5.97737L12.0537 5.53027H11.604H2.34495H1.87753L1.84608 5.99663L2.34495 6.03027L1.84608 5.99672L1.84606 5.99694L1.84601 5.99774L1.8458 6.00081L1.84501 6.01273L1.84196 6.05899L1.83062 6.23518C1.82096 6.38756 1.80742 6.60681 1.79183 6.87476C1.76066 7.41051 1.72128 8.14173 1.68846 8.92289C1.62378 10.4625 1.58089 12.2649 1.69291 13.1066C1.91148 14.7491 2.91162 18.4362 6.77994 20.1072L6.98169 20.1943L7.18231 20.1046C10.8565 18.4617 12.0854 15.1531 12.3688 13.1093C12.5119 12.0779 12.4392 10.2731 12.3388 8.77326C12.2879 8.01324 12.2286 7.31489 12.182 6.8067C12.1587 6.5525 12.1385 6.34563 12.1242 6.20211C12.117 6.13034 12.1113 6.07439 12.1074 6.03627L12.1028 5.99271L12.1017 5.98142L12.1013 5.97848L12.1013 5.9777L12.1012 5.97748C12.1012 5.97742 12.1012 5.97737 11.604 6.03027Z" fill="white" stroke="white"/>
</mask>
<g mask="url(#mask2_6144_24443)">
<path fill-rule="evenodd" clip-rule="evenodd" d="M6.25712 6.5896C6.25712 6.5896 6.4636 6.90422 6.55605 7.3853C6.64849 7.86639 6.66443 8.7093 6.66443 8.7093L4.70555 8.46812V9.95341L6.70819 9.69836L6.67564 11.1081C6.67564 11.1081 6.07652 11.1702 5.58514 11.1081C5.09376 11.046 4.12573 10.7858 4.12573 10.7858V12.4862C4.12573 12.4862 5.10923 12.1715 5.58514 12.0993C6.06105 12.0271 6.67564 12.0993 6.67564 12.0993V14.1877H7.48867V12.0993C7.48867 12.0993 8.37743 12.0221 8.9076 12.1057C9.43778 12.1894 9.94069 12.4862 9.94069 12.4862V10.7858C9.94069 10.7858 9.43119 11.0396 8.95064 11.1028C8.47009 11.166 7.48867 11.1081 7.48867 11.1081L7.52122 9.69836C7.52122 9.69836 8.18645 9.62949 8.55967 9.68016C8.93289 9.73082 9.40001 9.95341 9.40001 9.95341V8.46812C9.40001 8.46812 8.94472 8.71586 8.58649 8.7608C8.22826 8.80574 7.47746 8.7093 7.47746 8.7093C7.47746 8.7093 7.49076 7.83944 7.56779 7.41588C7.64482 6.99232 7.86294 6.5896 7.86294 6.5896H6.25712Z" fill="#F7FCFF"/>
<path fill-rule="evenodd" clip-rule="evenodd" d="M2.89746 16.2452C2.89746 16.2452 3.33695 15.302 4.05209 15.1226C4.76722 14.9433 5.5171 15.6839 5.5171 15.6839C5.5171 15.6839 5.975 14.1875 7.09111 14.1875C8.20721 14.1875 8.59891 15.6839 8.59891 15.6839C8.59891 15.6839 9.0751 15.1226 9.75988 15.1226C10.4447 15.1226 11.0791 16.2452 11.0791 16.2452C11.0791 16.2452 9.03368 19.9587 6.98828 19.9587C4.94287 19.9587 2.89746 16.2452 2.89746 16.2452Z" fill="#2E42A5"/>
</g>
</g>
</g>
</g>
<g style="mix-blend-mode:hard-light" opacity="0.12">
<rect width="24" height="24" rx="12" fill="white"/>
</g>
<rect width="24" height="24" fill="url(#paint0_linear_6144_24443)" fill-opacity="0.64" style="mix-blend-mode:overlay"/>
</g>
<defs>
<linearGradient id="paint0_linear_6144_24443" x1="24" y1="1.19273e-06" x2="-4.48665" y2="16.0237" gradientUnits="userSpaceOnUse">
<stop stop-color="white" stop-opacity="0.3"/>
<stop offset="0.262741" stop-opacity="0.27"/>
<stop offset="0.369956" stop-color="white" stop-opacity="0.26"/>
<stop offset="0.487001" stop-opacity="0.55"/>
<stop offset="0.594445" stop-opacity="0.24"/>
<stop offset="0.736408" stop-color="white" stop-opacity="0.3"/>
<stop offset="0.901459" stop-color="#272727" stop-opacity="0.22"/>
<stop offset="1" stop-opacity="0.2"/>
</linearGradient>
<clipPath id="clip0_6144_24443">
<rect width="24" height="24" rx="12" fill="white"/>
</clipPath>
<clipPath id="clip1_6144_24443">
<rect width="24" height="24" fill="white"/>
</clipPath>
</defs>
</svg>
