<svg width="24" height="24" viewBox="0 0 24 24" fill="none" xmlns="http://www.w3.org/2000/svg">
<g clip-path="url(#clip0_6144_24487)">
<g clip-path="url(#clip1_6144_24487)">
<mask id="mask0_6144_24487" style="mask-type:luminance" maskUnits="userSpaceOnUse" x="-4" y="0" width="32" height="24">
<rect x="-4" width="32" height="24" fill="white"/>
</mask>
<g mask="url(#mask0_6144_24487)">
<path fill-rule="evenodd" clip-rule="evenodd" d="M-4 0H28V24H-4V0Z" fill="#F7FCFF"/>
<path fill-rule="evenodd" clip-rule="evenodd" d="M-4 0V8H28V0H-4Z" fill="#E31D1C"/>
<path fill-rule="evenodd" clip-rule="evenodd" d="M-4 16V24H28V16H-4Z" fill="#3D58DB"/>
<mask id="path-6-outside-1_6144_24487" maskUnits="userSpaceOnUse" x="-6" y="-7" width="36" height="38" fill="black">
<rect fill="white" x="-6" y="-7" width="36" height="38"/>
<path fill-rule="evenodd" clip-rule="evenodd" d="M11.4286 10L-4 -2V26L11.4286 14H28V10H11.4286Z"/>
</mask>
<path fill-rule="evenodd" clip-rule="evenodd" d="M11.4286 10L-4 -2V26L11.4286 14H28V10H11.4286Z" fill="#5EAA22"/>
<path d="M-4 -2L-2.77212 -3.5787L-6 -6.08928V-2H-4ZM11.4286 10L10.2007 11.5787L10.7424 12H11.4286V10ZM-4 26H-6V30.0893L-2.77212 27.5787L-4 26ZM11.4286 14V12H10.7424L10.2007 12.4213L11.4286 14ZM28 14V16H30V14H28ZM28 10H30V8H28V10ZM-5.22788 -0.421296L10.2007 11.5787L12.6565 8.4213L-2.77212 -3.5787L-5.22788 -0.421296ZM-2 26V-2H-6V26H-2ZM10.2007 12.4213L-5.22788 24.4213L-2.77212 27.5787L12.6565 15.5787L10.2007 12.4213ZM28 12H11.4286V16H28V12ZM26 10V14H30V10H26ZM11.4286 12H28V8H11.4286V12Z" fill="#F7FCFF" mask="url(#path-6-outside-1_6144_24487)"/>
<path d="M-3.4 5.2L-5 4V6V18V20L-3.4 18.8L4.6 12.8L5.66667 12L4.6 11.2L-3.4 5.2Z" fill="#292B2E" stroke="#FECA00" stroke-width="2"/>
</g>
</g>
<g style="mix-blend-mode:hard-light" opacity="0.12">
<rect width="24" height="24" rx="12" fill="white"/>
</g>
<rect width="24" height="24" fill="url(#paint0_linear_6144_24487)" fill-opacity="0.64" style="mix-blend-mode:overlay"/>
</g>
<defs>
<linearGradient id="paint0_linear_6144_24487" x1="24" y1="1.19273e-06" x2="-4.48665" y2="16.0237" gradientUnits="userSpaceOnUse">
<stop stop-color="white" stop-opacity="0.3"/>
<stop offset="0.262741" stop-opacity="0.27"/>
<stop offset="0.369956" stop-color="white" stop-opacity="0.26"/>
<stop offset="0.487001" stop-opacity="0.55"/>
<stop offset="0.594445" stop-opacity="0.24"/>
<stop offset="0.736408" stop-color="white" stop-opacity="0.3"/>
<stop offset="0.901459" stop-color="#272727" stop-opacity="0.22"/>
<stop offset="1" stop-opacity="0.2"/>
</linearGradient>
<clipPath id="clip0_6144_24487">
<rect width="24" height="24" rx="12" fill="white"/>
</clipPath>
<clipPath id="clip1_6144_24487">
<rect width="24" height="24" fill="white"/>
</clipPath>
</defs>
</svg>
