<svg xmlns="http://www.w3.org/2000/svg" id="Layer_1" viewBox="0 0 184 100"><defs><style>.cls-1{fill:#56575a;stroke-width:0px;}</style></defs><path class="cls-1" d="M52.49,47.31h-.02c-.22.43-.51.96-.72,1.29l-1.85,3.03h2.66l-.07-3.03c0-.36-.03-.81,0-1.29Z"></path><path class="cls-1" d="M101.61,47.31h-.02c-.22.44-.46.87-.72,1.29l-1.85,3.03h2.66l-.07-3.03c0-.36-.03-.81,0-1.29Z"></path><path class="cls-1" d="M124.49,38.55l.26-.99H40.04l-6.66,24.87h84.72l6.39-23.85v-.03ZM52.92,58.3l-.23-3.75h-4.78l-2.48,3.75h-3.98l10.9-15.8h3.19l1.41,15.8h-4.03ZM73.07,46.09c-1.11-.6-1.97-.81-3.27-.81-3.79,0-6.14,2.96-6.45,5.76-.29,2.58.9,4.44,3.61,4.44.94,0,1.97-.19,3.3-.76l.16,2.68c-1.89.86-3.51,1.15-5.36,1.15-4.42,0-6.21-3.27-5.83-6.74.67-6.05,5.8-9.42,11.03-9.42,1.3,0,2.74.21,3.83.72l-1.03,2.99ZM78.43,58.3h-3.72l4.23-12.76h-4.65l.98-2.99h13.08l-1.46,2.99h-4.22l-4.23,12.76ZM84.89,58.3l5.23-15.75h3.72l-5.23,15.75h-3.72ZM102.04,58.3l-.23-3.75h-4.78l-2.48,3.75h-3.98l10.9-15.8h3.19l1.41,15.8h-4.03ZM115.09,45.44c-.21,1.87-1.79,3.29-3.65,3.29s-3.06-1.42-2.85-3.29c.21-1.87,1.68-3.29,3.6-3.29s3.12,1.42,2.91,3.29Z"></path><path class="cls-1" d="M112.09,42.8c-1.45,0-2.63,1.16-2.8,2.65-.17,1.49.75,2.65,2.21,2.65s2.63-1.16,2.8-2.65c.17-1.49-.75-2.65-2.21-2.65ZM112.31,47.24c-.46-.92-.69-1.5-.84-1.5h-.18l-.17,1.5h-.66l.41-3.68h1.03c.81,0,1.2.43,1.13,1-.07.6-.56.86-.91.97h.01c.15.07.52.78.94,1.7h-.78Z"></path><path class="cls-1" d="M111.74,44.12h-.27l-.12,1.07h.22c.38,0,.72-.18.76-.56.04-.35-.17-.52-.6-.52Z"></path><polygon class="cls-1" points="137.67 53.84 139.74 46.16 132.05 46.16 129.99 53.84 137.67 53.84 137.67 53.84"></polygon><polygon class="cls-1" points="139.98 45.25 142.04 37.57 134.35 37.57 132.29 45.25 139.98 45.25"></polygon><polygon class="cls-1" points="121.4 53.84 129.08 53.84 131.14 46.16 123.46 46.16 121.4 53.84"></polygon><polygon class="cls-1" points="131.39 45.25 133.45 37.57 125.76 37.57 123.7 45.25 131.39 45.25"></polygon><polygon class="cls-1" points="129.75 54.75 129.75 54.75 127.69 62.43 135.37 62.43 137.43 54.75 129.75 54.75"></polygon><polygon class="cls-1" points="121.15 54.75 121.15 54.75 119.1 62.43 126.78 62.43 128.84 54.75 121.15 54.75"></polygon><polygon class="cls-1" points="138.34 54.75 136.28 62.43 143.96 62.43 146.02 54.75 138.34 54.75 138.34 54.75"></polygon><polygon class="cls-1" points="138.58 53.84 146.26 53.84 146.26 53.84 148.33 46.16 140.64 46.16 138.58 53.84"></polygon><polygon class="cls-1" points="142.94 37.57 140.88 45.25 148.57 45.25 150.63 37.57 142.94 37.57"></polygon></svg>