<svg xmlns="http://www.w3.org/2000/svg" id="Layer_1" viewBox="0 0 184 100"><defs><style>.cls-1{fill:#56575a;stroke-width:0px;}</style></defs><path class="cls-1" d="M31.29,61.5c5.06-8.4,10.12-16.82,15.2-25.21.88-1.45,2.28-2.19,3.98-2.25,1.51-.06,3.03,0,4.54-.04.62-.02.84.17.96.8,1.28,7.18,2.59,14.36,3.9,21.53.52,2.85,1.02,5.7,1.57,8.54.14.68.06.98-.75.94-1.43-.07-2.88,0-4.31-.03-1.73-.04-2.66-.81-2.88-2.55-.77-6.28-1.5-12.58-2.26-18.87-.16-1.38-.33-2.76-.5-4.21-.46.18-.56.62-.75.95-2.68,4.57-5.34,9.14-8.02,13.71-.21.37-.38.76-.76,1-3.25,1.95-6.51,3.9-9.75,5.85-.06-.06-.12-.12-.17-.17h0Z"></path><path class="cls-1" d="M73.83,65.99c-1.98-.13-3.95-.1-5.93-.35-.56-.08-.8-.13-.61-.81,1.49-5.5,2.94-11.02,4.4-16.53.26-.97.91-1.59,1.86-1.68,4.06-.4,8.13-.64,12.14.38,5.31,1.34,7.51,5.49,5.72,10.64-1.48,4.25-4.8,6.37-8.93,7.48-2.83.76-5.74.84-8.66.88h0ZM79.32,50.36c-.39.02-.89.07-1.39.08-.49,0-.73.19-.85.71-.84,3.32-1.71,6.63-2.63,9.93-.19.72.1.77.66.78,1.32.03,2.63,0,3.93-.25,4.1-.76,6.48-3.55,6.24-7.35-.1-1.61-.88-2.74-2.42-3.36-1.1-.45-2.27-.46-3.53-.56v.02Z"></path><path class="cls-1" d="M111.1,54c-.72,3.79-.9,3.94-4.58,3.94-1.78,0-3.57.02-5.35,0-.55,0-.85.13-.97.7-.18.9-.44,1.79-.69,2.79,3.37,0,6.65.05,9.94-.03,1.07-.02,1.17.24.91,1.19-.88,3.16-.93,3.22-4.17,3.22-4.27,0-8.54-.02-12.81.02-.77,0-1.01-.14-.78-.96,1.46-5.43,2.87-10.88,4.3-16.32.37-1.38.96-1.88,2.38-1.89,4.46-.02,8.93,0,13.39-.02.77,0,.9.2.71.94-.83,3.25-.96,3.37-4.3,3.37-1.98,0-3.96.03-5.94,0-.69,0-1,.15-1.18.89-.53,2.2-.58,2.19,1.72,2.19h7.43,0Z"></path><path class="cls-1" d="M122,54.11c2.15-2.01,4.32-4,6.43-6.05,1.01-.98,2.14-1.46,3.54-1.42,1.54.04,3.08,0,4.66,0-.14.56-.56.74-.87.99-2.58,2.17-5.16,4.34-7.77,6.46-.61.49-.64.86-.3,1.53,1.57,3.06,3.06,6.15,4.63,9.21.42.82.28,1.05-.64,1-1.2-.06-2.41,0-3.61-.02-1.08,0-1.83-.49-2.26-1.5-.85-2.02-1.74-4.03-2.66-6.15-1.03.86-2.04,1.65-2.96,2.52-.68.65-.63,1.63-.86,2.47-.73,2.66-.71,2.66-3.51,2.66-.77,0-1.56-.04-2.33,0-.69.04-.74-.18-.57-.79,1.46-5.52,2.89-11.05,4.32-16.57.3-1.18,1.06-1.76,2.25-1.8,1.08-.03,2.18.03,3.26-.02.75-.03.83.23.66.89-.57,2.12-1.08,4.26-1.63,6.39-.03.13-.12.34-.07.37.16.12.19-.11.28-.17h.03Z"></path><path class="cls-1" d="M134.04,65.81c0-.51.27-.76.45-1.04,3.36-5.37,6.76-10.72,10.09-16.11.86-1.4,2.01-2.05,3.64-2.02,1.55.03,3.11.04,4.66,0,.7-.02.9.19.99.89.7,5.87,1.44,11.72,2.2,17.58.08.6-.11.74-.66.73-1.55-.03-3.11-.04-4.66,0-.6,0-.83-.18-.85-.77-.03-1.08-.14-2.16-.17-3.24-.02-.58-.24-.79-.85-.78-1.7.04-3.42.04-5.12,0-.56,0-.84.24-1.07.7-.42.82-.88,1.63-1.31,2.45-.57,1.11-1.5,1.63-2.73,1.64h-4.6ZM145.18,57.14h3.57c.32,0,.65,0,.61-.46-.14-2.03-.26-4.06-.4-6.09-.09,0-.16,0-.25,0-1.14,2.12-2.29,4.24-3.55,6.56h.02Z"></path><path class="cls-1" d="M51.07,55.19c.2,1.71-.13,2.55-1.56,3.41-3.12,1.88-6.13,3.93-9.15,5.95-1.31.88-2.69,1.29-4.26,1.27-2.7-.04-5.4,0-8.1,0-.02-.06-.05-.13-.07-.18,1.1-.68,2.21-1.36,3.31-2.03,6.12-3.73,12.24-7.45,18.36-11.17,1.08-.66.95-.64,1.2.59"></path><path class="cls-1" d="M72.5,43.46c-3.96,2.59-7.93,5.2-12.05,7.9-.29-1.6-.54-3.05-.83-4.49-.12-.58.35-.7.67-.94,2.76-2.07,5.79-3.18,9.31-2.74.94.12,1.91.02,2.86.02,0,.09.03.16.04.25h0Z"></path><path class="cls-1" d="M31.46,61.68c-.07.17-.25.25-.36.14-.15-.15.12-.2.17-.31.06.06.12.12.17.17h0Z"></path><path class="cls-1" d="M122,54.11c-.1.07-.13.29-.28.17-.05-.03.04-.24.07-.37.07.07.15.14.21.2h0Z"></path></svg>