<svg xmlns="http://www.w3.org/2000/svg" fill="none" viewBox="0 0 44 44" height="44" width="44">
<path fill="#DCF4FF" d="M22.0159 43.9872C34.1574 43.9872 44 34.1403 44 21.9936C44 9.84687 34.1574 0 22.0159 0C9.87437 0 0.0317383 9.84687 0.0317383 21.9936C0.0317383 34.1403 9.87437 43.9872 22.0159 43.9872Z"></path>
<mask height="44" width="44" y="0" x="0" maskUnits="userSpaceOnUse" style="mask-type:luminance" id="mask0_491_24066">
<path fill="white" d="M43.9702 22.0055C43.9702 34.1311 34.1392 44 21.9851 44C9.86467 44 0 34.1648 0 22.0055C0 9.87982 9.831 0.0109015 21.9851 0.0109015C34.1392 0.0109015 43.9702 9.87982 43.9702 22.0055Z"></path>
</mask>
<g mask="url(#mask0_491_24066)">
<path fill="#DCF4FF" d="M54.0898 0.0510111H-7.90601V44.9445H54.0898V0.0510111Z"></path>
<path fill="#90C6DE" d="M84.8487 -6.30774C83.5667 -6.98745 81.9 -7.79073 80.3615 -7.54357C79.9128 -7.48177 80.2333 -6.67849 79.9769 -6.74028C79.7204 -6.86386 79.4641 -7.29641 79.1435 -7.29641C78.3744 -7.29641 77.5411 -7.3582 76.7718 -7.3582C76.5796 -7.3582 76.1948 -7.29639 76.0026 -7.3582C75.8102 -8.09969 75.1692 -8.28504 74.4642 -8.28504C73.8872 -8.28504 73.1181 -7.9761 72.7333 -8.53222C72.3487 -9.08834 71.7718 -9.15012 71.1309 -9.27371C70.4257 -9.3972 69.5283 -9.58258 68.8231 -9.33548C68.5668 -9.27369 68.1181 -8.40863 68.1181 -8.40863C67.477 -8.40863 66.6438 -8.28504 66.0027 -8.40863C65.7462 -8.40863 65.6181 -8.594 65.3616 -8.65581C64.9129 -8.84118 65.1053 -8.47043 64.9129 -8.22326C64.5284 -7.60536 63.9514 -8.84118 63.9514 -9.15012C63.9514 -9.3972 64.4001 -9.52085 63.9514 -9.82987C63.4386 -10.077 62.7975 -10.1387 62.2847 -10.1387C61.6438 -10.2006 61.9643 -9.64449 61.3232 -9.64449C60.4899 -9.64449 59.7847 -9.70622 59.0156 -9.82987C58.5028 -9.89159 57.9899 -10.0152 57.5412 -10.2006C57.413 -10.2623 57.2208 -10.3241 57.1567 -10.4477C56.836 -10.2006 56.5156 -9.89159 56.131 -9.70622C55.7465 -9.52085 55.6823 -9.82987 55.9386 -10.0152C56.5797 -10.4477 57.4771 -10.6331 58.0541 -11.1892C58.7591 -11.8071 57.3489 -12.3014 56.9002 -12.3014C56.5156 -12.3014 56.131 -12.3014 55.6823 -12.3014C55.2336 -12.3014 55.1054 -13.0429 54.4643 -13.0429C54.4002 -13.0429 51.0028 -11.1275 51.2593 -11.9924C50.2976 -11.6836 49.3361 -11.6836 48.4387 -11.2509C47.9259 -11.0038 47.9259 -10.6331 47.5413 -10.2623C47.285 -10.0152 46.5157 -10.2006 46.2594 -10.2006C45.9387 -10.2006 45.4259 -10.1387 45.2978 -9.76795C45.1055 -9.3972 45.7465 -8.90296 45.0413 -8.96475C44.7209 -9.02655 44.4003 -9.02653 44.1439 -9.02653C44.0798 -8.90297 43.8233 -8.53222 43.567 -8.594C43.2466 -8.65579 43.3746 -9.21191 43.1824 -9.3972C43.1183 -9.02653 42.7979 -8.77938 42.4772 -8.594C42.6055 -8.22326 43.1824 -7.85251 42.7337 -7.41998C42.5414 -7.23461 43.1824 -5.93702 42.7337 -6.18417C42.2209 -6.49312 42.2209 -7.54357 42.1568 -8.03789C42.1568 -8.28506 42.4131 -9.15012 42.285 -9.21191C41.5157 -9.64449 40.6183 -9.08834 40.1696 -8.47043C39.5927 -7.60535 40.6824 -7.17282 40.8107 -6.43133C40.8746 -6.12237 39.5927 -6.80208 39.4644 -6.86386C39.144 -7.04924 37.8618 -7.54357 37.6055 -7.17282C37.5414 -7.04924 37.8618 -6.24596 37.4131 -6.36955C37.2209 -6.43133 37.0927 -6.67849 36.9003 -6.67849C36.4516 -6.67849 36.0029 -6.36955 35.5542 -6.36955C34.8492 -6.30776 34.721 -6.80208 33.9516 -6.43133C33.3747 -6.12237 32.8621 -5.68984 32.221 -5.50447C31.5158 -5.3191 31.9645 -6.30775 31.7082 -6.5549C31.5799 -6.74028 31.3875 -6.36955 31.3236 -6.30774C31.003 -5.75163 31.2595 -5.68984 31.2595 -5.25731C31.2595 -4.76298 30.2338 -5.25731 29.9773 -4.76298C29.6569 -4.08329 29.2082 -3.9597 28.4388 -4.26866C28.503 -4.08329 28.3749 -3.89792 28.4388 -3.77433C27.6697 -3.83611 27.798 -4.5776 27.4773 -5.01013C28.1184 -5.01013 29.0158 -4.70119 29.6569 -4.94835C30.2979 -5.19553 30.2338 -5.68984 29.6569 -6.06059C28.8236 -6.49314 27.8621 -6.80208 26.9645 -7.11104C26.3878 -7.29641 25.7467 -7.17282 25.298 -7.54357C25.5543 -7.60535 25.7467 -7.54357 25.8108 -7.85251C25.5543 -7.9761 25.298 -8.22326 25.1056 -7.85251C24.9773 -7.91432 24.9134 -8.03788 24.9773 -8.16147C24.5928 -7.91432 24.5928 -7.66714 24.4006 -8.03789C24.2082 -7.91432 24.08 -7.60535 23.8237 -7.66714C23.9517 -7.79073 24.0158 -7.9143 24.08 -8.09967C24.08 -7.9143 22.798 -8.16147 22.798 -7.91432C22.798 -7.79073 22.9261 -7.79073 22.9902 -7.72894C22.7339 -7.60535 22.4774 -7.66714 22.3493 -7.3582C22.3493 -7.41998 22.3493 -7.48178 22.3493 -7.60535C22.0928 -7.60535 22.0928 -7.29639 21.8365 -7.23461C21.8365 -7.29639 21.8365 -7.3582 21.8365 -7.41998C21.6441 -7.41998 21.4517 -7.3582 21.2595 -7.23461C21.3237 -7.17282 21.3237 -7.17282 21.3878 -7.11104C21.1313 -6.98745 21.003 -7.17282 20.8108 -6.86386C20.875 -6.86386 20.9391 -6.86386 21.003 -6.86386C20.5543 -6.61671 20.6826 -6.43133 20.298 -6.92567C20.1698 -6.80208 19.9135 -6.80208 19.8493 -6.5549C19.9135 -6.5549 19.9774 -6.49312 20.0415 -6.49312C19.9135 -6.43133 19.8493 -6.36955 19.7852 -6.30774C20.1056 -6.30774 20.298 -6.49312 20.6185 -6.5549C20.4263 -5.81343 19.4646 -5.68984 19.2083 -5.01013C18.8878 -4.39223 18.4391 -3.58895 17.6698 -3.40358C17.798 -3.40358 17.8622 -3.3418 17.9902 -3.3418C17.5415 -3.40358 16.8365 -2.84746 16.58 -2.53852C16.3878 -2.22956 16.2596 -2.41493 16.3237 -1.85882C16.3237 -1.67344 16.3878 -1.42628 16.5159 -1.3027C16.3878 -1.17913 16.3237 -1.11732 16.3237 -0.993754C16.452 -1.05554 16.58 -1.05554 16.7083 -1.05554C16.58 -0.746596 16.3878 -0.684793 16.7724 -0.437636C17.4135 -0.0668907 18.0544 -0.623009 18.375 -1.17913C18.7596 -0.684793 18.9517 0.118482 19.1441 0.736385C19.2724 1.10713 19.4006 1.41607 19.7852 1.04535C20.0415 0.736385 20.298 0.859974 20.5543 0.612798C21.0672 0.118483 20.5543 0.180267 20.6826 -0.314048C20.8108 -0.746597 21.58 -0.746578 21.58 -1.17913C21.58 -1.67344 20.875 -1.54987 20.875 -2.04419C20.875 -2.41493 21.0672 -2.84746 21.4517 -3.03284C21.7724 -3.21821 22.2852 -3.40358 22.5415 -3.71254C22.7339 -4.0215 22.4774 -4.39223 22.8621 -4.5776C23.1826 -4.76298 23.8878 -4.82478 24.1441 -4.51582C24.4645 -4.14507 23.5671 -3.83613 23.375 -3.58896C23.1184 -3.28001 22.4774 -3.09464 22.4774 -2.7239C22.4774 -2.60031 22.5415 -2.29135 22.7339 -2.22956C22.6056 -2.04419 22.4134 -1.9824 22.6056 -1.67344C22.8621 -1.3645 23.4389 -1.24091 23.8237 -1.3645C24.1441 -1.42628 25.1056 -1.42628 25.298 -1.73525C25.426 -1.61166 25.5543 -1.42628 25.6184 -1.3027C24.9774 -0.870167 24.4006 -1.24091 23.7595 -0.993754C22.8621 -0.623009 24.3365 -0.0668907 23.6954 0.180267C23.1826 0.36564 23.0543 -0.561224 22.6056 0.303855C22.3493 0.921759 22.3493 1.66325 21.5159 1.66325C21.5159 0.921759 19.4646 2.52831 19.5928 1.66325C19.1441 1.60145 18.0544 2.21937 18.0544 1.35429C18.0544 0.983543 18.503 0.921759 18.503 0.674602C18.503 0.551013 18.2467 0.36564 18.3109 -0.00510597C17.9902 0.242051 17.4135 0.303855 17.4135 0.79817C17.4135 1.16892 17.798 1.53966 17.798 1.91041C17.798 2.15758 16.5159 2.28115 16.3878 2.46653C15.875 2.89906 16.0031 3.51696 15.1057 3.51696C14.9135 4.13488 14.2724 4.44382 13.7596 4.13488C13.8237 4.32023 13.8879 4.56741 13.6955 4.6292C13.6955 4.6292 12.157 4.56741 12.734 4.93816C12.9263 5.06173 13.2468 5.12353 13.4392 5.18531C13.6955 5.24712 13.5672 5.49428 13.7596 5.67963C14.08 5.92681 14.2083 6.29755 13.952 6.79187C13.6955 7.2862 13.375 7.10083 12.7981 7.10083C12.4776 7.10083 11.7724 7.10083 11.5159 6.97724C10.7468 6.60649 11.0031 7.96589 11.0031 8.15127C10.9392 8.46022 10.7468 8.83097 10.7468 9.13992C10.7468 9.32529 10.9392 9.2635 10.9392 9.57246C10.9392 10.3139 11.452 9.57246 11.8366 9.9432C12.0929 10.1904 12.0287 10.4993 12.4776 10.2522C12.734 10.1286 13.1185 9.9432 13.4392 10.005C13.6313 9.9432 14.5929 9.2635 14.3365 9.07813C13.8237 8.52201 15.2981 8.02769 15.4263 7.90411C15.6826 7.71874 15.4263 7.47157 15.4902 7.40979C15.4902 6.85367 16.3878 7.2244 16.6441 7.2244C17.2852 7.2244 17.798 6.11218 18.375 7.03904C18.6954 7.59516 19.2083 7.9659 19.7852 8.21306C19.9774 8.27485 20.9391 9.38708 20.2339 9.38708C20.2339 9.69604 20.875 9.01634 20.875 9.01634C20.875 8.83097 20.4263 8.64559 20.7467 8.46022C21.003 8.27485 21.1954 8.58381 21.3878 8.58381C21.4517 8.02769 20.4902 8.21306 20.4902 7.71873C19.5928 7.71873 19.9774 7.03904 19.3365 6.85367C18.6313 6.60651 19.2083 6.11218 19.4646 5.98859C19.5287 6.05037 19.4646 6.35934 19.6569 6.35934C20.0415 6.54471 19.9135 6.11218 20.1056 6.60649C20.298 7.03904 20.9389 7.22442 21.2595 7.40979C21.9006 7.71874 21.9006 9.51066 22.7339 9.38708C22.5415 9.69604 22.6697 10.0668 23.1826 10.005C23.1184 9.9432 23.1184 9.44887 23.1184 9.38708C23.3108 9.57245 23.503 9.63425 23.7595 9.51067C23.503 9.26351 23.375 8.95455 23.2467 8.76917C22.798 8.27485 23.3108 8.58381 23.5671 8.58381C23.7595 7.71874 24.8493 8.6456 25.4902 8.02769C25.3621 7.84232 25.0415 7.71874 25.0415 7.47157C25.0415 7.16261 25.426 7.03904 25.426 6.79187C25.426 6.29755 25.7467 6.0504 26.003 5.80324C26.8365 4.93816 27.2851 7.47157 28.4388 6.11218C27.0928 6.11218 28.7595 5.43247 29.2082 5.2471C28.6954 5.49428 29.3364 5.92681 28.5671 6.11218C28.6954 6.35934 30.8749 7.53337 30.5543 7.78053C30.3621 7.84232 28.4388 8.46022 28.4388 7.84231C27.926 7.84231 27.5415 7.47157 26.9645 7.78053C26.9006 7.84232 25.6826 8.15127 25.6826 8.08948C25.6826 8.15127 25.7467 8.21306 25.8108 8.27485C25.4902 8.46023 24.9134 8.27485 24.6569 8.58381C24.4645 8.76918 25.0415 8.83097 24.5287 9.32529C24.6569 9.38708 25.4902 10.005 25.2339 10.0668C25.4902 10.005 25.6184 10.0668 25.8108 10.1904C26.1954 10.4375 26.1954 10.005 26.5158 10.005C26.9004 10.005 27.0286 10.4993 27.4773 10.2522C27.8621 10.1286 27.9902 10.1286 28.3749 9.9432C28.2467 10.2522 28.503 10.6847 28.2467 10.9936C27.9902 11.3644 27.6056 11.9823 27.7338 12.4148C27.7338 12.4148 26.7723 12.2295 26.5799 12.2295C25.7467 12.2295 25.298 12.4766 24.4006 12.1677C24.08 12.0441 23.1826 12.0441 23.1826 11.6115C22.798 11.5498 22.0928 11.6733 22.0928 12.1059C21.8365 12.4148 21.9645 12.7856 21.2595 12.4148C20.7467 12.1677 20.4263 11.6733 19.9135 11.5498C19.4646 11.4262 19.08 11.6733 18.7596 11.179C18.5031 10.8083 18.8237 10.1286 18.8878 9.75783C18.5672 9.81962 18.3109 9.44887 17.9902 9.69603C17.8622 9.81961 16.9007 9.88141 16.7083 9.88141C16.1955 9.88141 15.875 9.75783 15.2981 9.9432C14.7852 10.0668 14.08 10.6229 13.5672 10.6229C13.1826 10.6229 12.4135 10.1904 12.2853 10.4375C12.0287 10.8083 11.6442 11.179 11.3237 11.5498C10.875 12.0441 11.0031 12.2912 10.8109 12.9092C10.6185 13.5889 9.78528 13.4035 9.40071 13.836C8.82376 14.6393 7.92637 15.8133 8.24681 16.802C8.43919 17.3581 8.43919 17.8524 8.11856 18.3467C7.92637 18.6557 7.73399 18.5939 7.92637 18.9646C7.9905 19.0882 8.05443 19.459 8.05443 19.5825C8.31094 20.0769 9.1442 20.5712 9.52877 21.1891C10.0416 22.0542 11.1955 22.9192 12.2211 22.5485C12.7981 22.3631 13.1185 22.6103 13.6955 22.6103C14.08 22.6103 14.7211 22.1778 15.1057 22.0542C16.2596 21.6834 16.3878 22.6721 17.4135 22.6721C17.8622 22.6721 18.1826 22.8575 18.375 23.2282C18.2467 23.3518 18.1826 23.9079 18.2467 24.0933C17.157 24.7112 19.1441 26.0088 19.2083 26.6267C19.3365 27.3682 20.1056 28.4187 19.6569 29.1602C19.4646 29.5309 19.08 29.778 18.9519 30.2105C18.7596 30.8902 19.1441 31.6317 19.5287 32.1878C20.1056 33.1147 19.9774 34.1033 20.5543 35.0921C20.8108 35.5246 21.0672 35.957 21.3878 36.3278C21.5159 36.5132 21.6441 36.6985 21.5159 36.8839C21.3237 37.2546 21.6441 37.2546 21.6441 37.6873C21.9006 37.5637 22.0928 37.9344 22.4774 37.8108C22.8621 37.6873 23.375 37.3166 23.8237 37.5019C24.4645 37.8727 25.5543 36.8839 25.8749 36.4514C26.0671 36.1424 27.3493 34.7213 27.0928 34.4123C26.8365 34.0416 27.4132 33.6708 27.8621 33.6708C28.2467 33.6708 28.2467 32.8057 28.1184 32.5586C27.9902 32.2496 27.6056 32.0025 27.926 31.6935C28.1825 31.4464 28.3749 31.1373 28.6954 30.952C29.0158 30.7666 30.7466 30.1487 30.0414 29.5309C30.0414 29.0982 30.298 28.2333 29.9773 27.8625C29.6569 27.4918 29.6569 27.121 29.5927 26.6267C29.5286 26.0088 29.8493 26.0088 30.0414 25.5144C30.298 24.5258 31.1953 24.1551 31.9645 23.6607C32.8619 23.0428 33.5671 21.8688 34.0158 20.9419C34.2081 20.5712 34.4003 20.0769 34.2081 19.7061C33.6312 19.8297 33.0542 20.1387 32.4132 20.0769C31.8364 20.0151 31.7723 20.5712 31.3236 19.9533C31.1312 19.8297 31.0671 19.7061 31.1953 19.5825C31.0671 19.2118 31.003 19.3972 30.7466 19.15C30.4901 18.8411 30.426 18.6557 30.0414 18.4703C29.4645 18.1614 29.721 17.5435 29.2082 17.1727C28.8236 16.9256 28.8236 16.7402 28.8236 16.3076C28.8236 15.9369 28.5671 15.8133 28.3749 15.5044C28.1184 15.01 27.926 14.5157 27.6056 13.9596C27.4134 13.5889 26.9006 13.0945 26.9645 12.662C27.221 12.9092 27.3493 13.4653 27.7338 13.5271C27.798 13.2799 27.926 13.0945 27.9902 12.8474C27.926 13.2799 28.6312 14.8864 29.0158 14.9482C29.3364 14.9482 29.5927 15.5044 29.5927 15.7515C29.5927 16.4312 30.0414 16.4312 30.2338 16.8638C30.426 17.2345 30.8108 17.4817 31.003 17.8524C31.1312 18.1614 31.003 18.4703 31.1312 18.8411C31.5158 19.8297 31.7723 19.15 32.4773 19.15C32.8621 19.15 34.6568 18.4085 34.6568 18.2232C34.6568 17.9142 35.426 17.7906 35.6184 17.7906C35.8747 17.7288 36.3236 17.3581 36.4516 17.1109C36.5799 16.9256 37.8618 15.7515 37.4773 15.6279C37.2209 15.5044 37.1568 15.2572 36.7722 15.1336C36.3236 14.9483 36.1312 14.6393 36.1953 14.145C35.8107 14.4539 35.6184 14.8864 35.0414 15.01C34.0799 15.1954 34.3364 14.7629 34.2081 14.2068C34.144 14.2685 34.0158 14.3921 33.9516 14.4539C33.8875 14.0214 33.3747 13.836 33.1825 13.4035C32.7979 12.6002 33.5029 12.1677 34.0158 12.9092C34.3364 13.3417 34.6568 13.7742 35.2338 13.9596C35.6825 14.0832 35.8747 13.7742 36.1953 13.7742C36.5157 13.7742 36.4516 14.145 36.644 14.2685C36.7722 14.3921 37.2209 14.3921 37.4131 14.3921C37.926 14.4539 38.3746 14.5157 38.8875 14.5157C39.0157 14.3921 39.9772 14.3921 40.1055 14.4539C40.2979 14.5157 40.3618 14.8247 40.4901 14.9482C40.7466 15.3808 41.1953 15.319 41.5798 15.4426C41.3875 15.6279 41.2594 15.5662 41.067 15.6897C41.2594 15.8751 41.644 16.5548 42.0927 16.2458C42.285 16.0605 42.285 15.8133 42.5414 15.6897C42.5414 16.802 42.6696 17.976 43.3746 19.0264C43.8233 19.7061 44.2722 22.116 45.0413 20.3858C45.1055 20.2622 45.3618 20.2622 45.3618 20.2005C45.4259 20.0151 45.2978 19.8297 45.3618 19.6443C45.49 19.2118 45.3618 18.9646 45.3618 18.5321C45.3618 18.2232 46.0028 18.0378 46.2594 17.8524C46.8361 17.3581 47.8618 16.802 48.0541 16.1223C48.3105 15.5044 49.5285 16.3076 49.5285 15.4426C50.1054 15.5662 49.913 15.8751 50.1696 16.2458C50.4259 16.6784 50.8104 16.8638 51.0028 17.3581C51.0669 17.6053 50.9387 17.9142 51.0669 18.1614C51.3233 18.6557 51.8361 17.7288 51.9643 17.667C52.7337 18.4085 52.5413 19.8915 52.5413 20.8801C52.5413 21.0655 52.7337 20.8801 52.8617 21.0655C53.1182 21.3745 53.2465 21.9306 53.3104 22.2395C53.5028 22.981 54.0797 23.6607 54.8489 23.5989C54.4643 22.7957 54.5926 22.116 53.7591 21.6834C53.3104 21.4363 52.6054 20.3858 52.99 19.9533C53.2465 19.6443 53.0541 19.459 53.1182 19.15C53.1824 18.9646 53.8232 19.5208 53.9515 19.5208C54.4002 19.6443 54.4002 20.2005 54.7847 20.2622C55.1054 20.324 55.0413 20.9419 55.1695 20.9419C55.3617 20.9419 55.4899 20.633 55.4899 20.4476C55.4899 20.5094 55.4899 20.5094 55.5541 20.5712C55.8745 20.5712 56.708 19.7061 56.7719 19.459C57.0284 18.7175 56.3873 18.2231 56.0028 17.7288C55.6182 17.2345 55.0413 16.8637 55.7465 16.3694C55.9386 16.2458 56.1952 16.1223 56.3232 15.8751C56.5156 15.9369 56.7719 15.9987 56.9643 15.9987C56.9002 16.1223 56.9643 16.2459 57.0284 16.3076C57.1567 16.2459 57.1567 16.1223 57.2208 16.0605C57.3489 15.9369 57.8617 15.8133 58.0541 15.7515C58.1182 15.7515 58.5028 15.3808 58.5028 15.3808C58.8232 15.3808 58.8232 15.5662 59.1438 15.4426C60.1695 15.1954 60.4258 14.2068 61.0027 13.5271C61.7079 12.662 61.6438 11.9205 61.0669 10.9936C61.0027 10.8701 60.554 10.4375 60.8104 10.2522C61.131 10.0668 61.7079 9.75783 61.9642 9.44888C61.836 9.32529 61.5156 9.32529 61.3232 9.2635C61.0027 9.01634 61.131 9.51067 60.9386 9.51067C60.7462 9.51067 60.0412 9.13993 60.0412 8.89276C60.0412 8.70739 61.0669 8.39844 61.1951 8.08948C61.3232 7.9659 61.3873 7.84232 61.5797 8.02769C61.836 8.27485 61.3873 8.46023 61.3873 8.70739C61.7079 8.70739 61.9643 8.46023 62.2208 8.39844C62.6053 8.27485 62.6053 8.46022 62.9899 8.46022C62.7975 8.83097 62.7334 9.20172 63.1823 9.20172C63.631 9.20172 63.3745 10.3139 63.3745 10.6847C64.336 10.6847 64.9129 9.88141 64.2719 9.01634C63.759 8.39844 63.8232 8.46023 64.4642 7.9659C64.9771 7.59516 64.8488 6.91545 65.554 7.03904C67.0925 7.2862 67.3488 5.86502 68.2462 4.99994C68.759 4.50563 68.8231 4.01129 68.8872 3.39339C68.9514 2.71368 69.5283 2.34294 68.8872 1.72503C68.3744 1.23072 68.1822 1.84862 67.6053 1.66325C67.0925 1.47788 67.0283 1.04535 67.4129 0.674602C68.4386 -0.252263 69.2718 -1.17913 70.7462 -1.3027C71.9001 -1.42628 72.8616 -1.17913 73.9513 -1.17913C74.4 -1.17913 74.4 -1.85882 74.7205 -2.16778C75.1692 -2.60031 76.0026 -2.60031 76.5796 -2.53852C76.1948 -2.22956 76.5154 -1.85882 76.9641 -2.22956C77.2205 -2.41493 77.6052 -3.09464 77.9257 -2.97105C78.4385 -2.7239 77.7333 -2.22956 77.5411 -2.10597C77.0283 -1.79703 76.7718 -1.85882 76.3872 -1.3645C76.0026 -0.808382 75.4257 -0.561205 75.0411 -0.0668898C74.6565 0.489228 74.8487 2.40474 75.4257 2.83727C75.9385 2.09578 76.3872 1.66325 76.9 1.04535C77.5411 0.303855 77.3487 -0.623009 78.0539 -1.42628C78.5667 -1.92062 79.0796 -1.9206 79.6563 -1.61166C80.4898 -1.17913 81.4513 -2.16778 82.0282 -2.60031C82.3487 -2.78568 84.1435 -3.09464 84.0154 -3.40358C83.6948 -3.9597 82.9897 -4.14507 84.0795 -4.5776C84.4 -4.70119 84.4 -5.25731 84.5923 -5.25731C85.105 -5.25731 85.4897 -4.88657 85.8743 -4.5776C87.0282 -3.71254 86.9641 -4.763 88.0538 -5.13372C87.0921 -5.68984 85.6819 -5.81343 84.8487 -6.30774C85.6178 -5.87521 83.7589 -6.86386 84.8487 -6.30774ZM22.9263 4.56741C23.1184 4.81457 22.8621 4.87637 23.2467 4.87637C23.0543 4.87637 22.9263 4.81457 22.9263 4.56741ZM23.1826 3.82592C23.6313 3.51696 23.3108 3.45518 23.2467 2.96086C23.3108 3.39339 23.6313 3.45517 23.1826 3.82592ZM25.4902 -5.44268C25.4902 -5.68984 25.8749 -5.93702 25.6826 -6.18417C25.5543 -6.30774 25.298 -6.36953 25.298 -6.5549C25.298 -6.24596 25.7467 -6.30776 25.7467 -6.06059C25.6184 -5.81343 25.5543 -5.62806 25.4902 -5.44268ZM33.8875 6.85367C34.144 7.22442 34.5286 7.47157 34.5286 7.9659C34.9131 7.78053 35.2338 7.71874 35.2338 8.27485C35.1055 8.21306 34.7851 8.21306 34.6568 8.33664C34.4003 8.6456 35.0414 8.70739 35.0414 9.13992C35.0414 9.88141 35.1697 10.005 34.2081 10.005C33.8236 10.005 33.8236 9.75782 33.5671 9.69603C32.9901 9.57245 33.3747 9.38708 32.9901 9.07813C32.8621 8.95454 32.9901 8.5838 32.7338 8.6456C32.5414 8.6456 32.3492 8.89276 32.1569 8.95455C32.7338 8.95455 32.4773 8.39844 32.926 8.83097C32.8619 8.95455 33.0542 8.95455 33.1184 8.95455C33.2466 8.76918 33.2466 8.46022 33.5029 8.33664C32.7338 7.9659 32.0927 6.54471 32.5414 5.86502C32.6697 5.61785 33.5029 5.37069 33.7594 5.37069C34.5286 5.2471 34.8492 5.49428 35.2979 6.05039C35.0414 6.23577 34.3364 6.05039 33.9516 6.23577C33.3747 6.54471 33.6953 6.48293 33.8875 6.85367C34.144 7.2862 33.7594 6.73008 33.8875 6.85367ZM35.4901 9.44888C33.7594 11.1172 37.4773 7.59515 35.4901 9.44888V9.44888ZM35.8747 9.32529C35.9388 9.32529 36.067 9.26351 36.1312 9.20172C36.067 9.26351 36.0029 9.32529 35.8747 9.32529ZM37.6055 11.2408C37.6696 11.179 37.6696 11.179 37.6055 11.2408V11.2408ZM37.9901 10.4993C37.8618 10.4993 37.6696 10.9936 37.6696 11.0554C37.7979 10.6847 37.926 10.6847 37.926 10.3139C37.926 10.4993 38.1183 10.6229 38.3747 10.6229C38.2466 10.5611 38.1183 10.4993 37.9901 10.4993ZM39.4003 9.69603C39.4644 9.63424 39.5927 9.57246 39.6568 9.57246C39.5285 9.63425 39.4644 9.69603 39.4003 9.69603C39.4644 9.63424 39.4644 9.63424 39.4003 9.69603ZM40.5542 9.81962C40.4901 9.81962 39.849 9.63425 39.849 9.63425C39.849 9.75783 40.4259 9.75783 40.5542 9.81962ZM41.1953 9.51067C41.1311 9.51067 41.2594 9.51066 41.3235 9.38708C41.3235 9.44887 41.2594 9.44888 41.1953 9.51067ZM41.9644 9.88141C41.9003 9.81962 41.9003 9.81962 41.8361 9.75783C41.9644 9.81962 42.0285 9.88141 41.9644 9.88141ZM42.349 9.75783C42.4131 9.69604 42.5414 9.63425 42.6696 9.63425C42.5414 9.69604 42.4772 9.69604 42.349 9.75783ZM43.4387 9.9432C43.1183 9.81962 43.0542 9.69603 42.6696 9.69603C42.7979 9.69603 43.1183 9.69603 43.1183 9.69603C43.1824 9.9432 43.6311 9.9432 43.4387 9.9432C43.5029 9.9432 43.2466 9.88141 43.4387 9.9432ZM44.9131 12.353C44.8489 12.353 44.785 12.353 44.7209 12.2912C44.7209 12.353 45.1696 12.4148 44.9131 12.353ZM45.2978 6.23577C45.2978 6.97726 45.0413 7.78053 44.2722 8.08948C43.9516 8.27485 43.567 8.33664 43.1824 8.33664C42.9259 8.33664 42.4772 9.13993 42.7337 9.20172C42.4772 9.13993 42.8618 8.52202 42.99 8.39844C43.2465 8.15127 43.9516 8.27485 44.2722 8.08948C44.6568 7.90411 44.9772 7.53337 45.1055 7.16261C45.1696 6.97726 45.2337 6.79189 45.2337 6.54471C45.2978 5.98859 45.3618 6.29755 45.7465 5.98859C45.6824 6.11218 45.49 6.17396 45.2978 6.23577C45.49 6.17396 45.2978 7.71874 45.2978 6.23577ZM53.4387 3.02264C53.1823 2.89907 52.6695 2.83727 52.4771 2.83727C52.6054 2.83727 53.1182 2.89907 53.4387 3.02264ZM48.1824 13.5889C47.6696 13.6506 47.4131 13.5271 46.9644 13.2799C47.5413 13.6506 47.7978 13.5271 48.4387 13.5271C48.3104 13.5271 48.2465 13.5889 48.1824 13.5889ZM49.4002 3.76414C48.9515 4.01129 47.3489 4.19666 47.285 4.81457C47.2209 5.67965 46.4515 5.12353 46.067 5.61785C46.3233 5.24712 46.6439 5.49428 47.0285 5.3089C47.2848 5.18531 47.2209 4.87635 47.285 4.6292C47.3489 4.32025 48.0541 4.13488 48.3104 4.07308C48.567 4.07308 49.5285 3.64055 49.4002 3.76414C49.4002 3.70235 48.6952 4.13488 49.4002 3.76414ZM51.4515 3.82592C50.8104 3.82592 50.1054 3.14623 49.5926 3.64055C50.3617 2.96086 51.5798 4.56741 52.1567 3.2698C51.9643 3.51698 51.7721 3.82592 51.4515 3.82592ZM51.9643 17.4199C51.9643 17.2345 52.0285 17.1109 52.0926 16.9873C51.9643 17.1109 51.9643 17.2345 51.9643 17.4199ZM51.9643 17.5435C52.0926 17.8524 52.5413 18.2232 52.1567 18.5939C52.5413 18.2232 52.1567 17.9142 51.9643 17.5435C52.0285 17.667 52.0285 17.667 51.9643 17.5435ZM52.1567 18.7175C52.1567 18.4703 52.2848 18.9028 52.413 19.0264C52.2848 18.9646 52.2208 18.8411 52.1567 18.7175ZM53.1824 16.1841C53.2465 16.1223 53.2465 16.0605 53.3104 15.9987C52.99 15.9987 52.7976 15.9987 52.6695 15.6897C52.7337 15.9987 52.99 16.0605 53.3104 15.9987C53.2465 16.1223 53.2465 16.1841 53.1824 16.1841ZM53.3745 16.0605C53.3745 16.1223 53.3745 16.1841 53.4387 16.1841C53.3745 16.1223 53.3745 16.1223 53.3745 16.0605ZM55.4899 15.6279C55.3617 15.6279 55.1695 15.5662 55.0413 15.5044C55.4258 15.6279 55.3617 15.5662 55.5541 15.8751C55.4899 15.8133 55.4899 15.6897 55.4899 15.6279C55.4899 15.7515 55.2976 15.6279 55.4899 15.6279ZM56.7719 4.19667C56.0028 4.19667 55.5541 3.51696 54.7847 3.51696C55.4258 3.51696 55.8104 4.01129 56.3873 4.13488C57.1567 4.32023 57.9258 3.76414 58.6951 3.76414C58.1182 3.82592 57.4771 4.19667 56.7719 4.19667ZM60.6823 2.89906C60.9386 2.40474 61.3232 2.15756 61.9001 2.15756C61.3232 2.15756 60.9386 2.46653 60.6823 2.89906ZM64.5284 4.32025C64.2719 4.07308 63.6951 4.13488 63.5027 3.82592C63.1823 3.39339 63.1182 2.7137 62.6695 2.40474C63.1182 2.7137 63.2462 3.39339 63.5027 3.82592C63.759 4.19666 64.4001 4.13488 64.6566 4.56741C64.6566 4.44384 64.5925 4.38204 64.5284 4.32025C64.5925 4.38204 64.2719 4.13488 64.5284 4.32025ZM64.9129 6.42114C64.8488 6.35934 65.1053 6.60651 65.1053 6.73008C65.1053 6.60651 65.0412 6.48293 64.9129 6.42114Z"></path>
<path fill="#90C6DE" d="M0.443329 26.3888C0.0575981 26.2647 -0.13517 26.3888 -0.456581 26.0787C-0.777988 25.8306 -1.03527 25.4584 -1.54945 25.5205C-2.06363 25.5825 -2.51368 25.2724 -2.96373 25.5205C-2.96373 25.0243 -3.47791 24.9003 -3.92796 24.7142C-4.50646 24.5281 -4.44214 25.3344 -4.82787 25.3344C-5.02063 25.3344 -5.27792 24.9623 -5.47069 24.9003C-6.04919 24.7142 -5.2136 24.156 -5.02064 23.9699C-5.02064 23.7838 -5.59933 22.9776 -5.66346 22.9155C-5.98487 22.6674 -6.17783 22.6054 -6.56356 22.4193C-6.88497 22.2953 -7.27069 22.2953 -7.59211 22.2953C-8.04196 22.2333 -8.23492 21.9232 -8.49202 21.6751C-8.81342 21.365 -10.2918 20.8688 -9.84197 20.4967C-10.2918 20.3726 -10.4205 20.5587 -10.7419 20.6827C-11.1276 20.8068 -11.1919 20.5587 -11.5133 20.5587C-12.1562 20.5587 -12.3489 20.0005 -12.9274 20.0005C-12.8631 20.1245 -12.799 20.1865 -12.6703 20.2486C-13.6346 20.0625 -13.0561 21.1169 -13.3132 21.1169C-13.8917 21.1169 -13.2488 20.1245 -13.2488 20.0005C-13.2488 19.6904 -14.1489 20.1865 -14.3417 20.2486C-14.9845 20.4346 -15.2416 21.1169 -15.6917 21.427C-15.4346 21.1789 -16.1415 20.9308 -16.3988 20.9308C-16.7843 20.9308 -17.2344 21.427 -17.5558 20.9928C-17.7488 20.6827 -18.1986 20.7447 -18.1986 20.3106C-18.1986 20.0005 -18.1986 19.6904 -18.1343 19.3803C-17.9415 18.4499 -18.8414 18.5119 -19.6129 18.5739C-20.5128 18.636 -19.9343 18.1398 -19.9343 17.5196C-19.8057 17.5816 -19.87 17.5196 -19.8057 17.5816C-19.6129 17.2715 -19.4843 16.7133 -19.4199 16.3411C-19.87 16.3411 -20.4485 16.0931 -20.7699 16.5272C-21.1556 17.0234 -20.9629 17.3955 -21.6056 17.3955C-21.7985 17.3955 -22.3127 17.7056 -22.4413 17.5196C-22.6342 17.3335 -22.9556 17.0854 -23.1484 16.8373C-23.4056 16.5892 -23.5984 16.1551 -23.5984 15.7829C-23.5984 15.2247 -23.727 13.6122 -23.0841 13.3641C-22.7627 13.24 -22.1199 12.6818 -21.7985 12.8679C-21.6699 12.9299 -20.5771 13.178 -20.4485 13.116C-20.5771 12.9919 -20.5771 12.8679 -20.4485 12.6818C-20.5128 12.7438 -20.5771 12.7438 -20.6415 12.6818C-20.32 12.5578 -19.87 12.7438 -19.6772 12.6198C-19.4199 12.4957 -19.1629 12.6818 -18.9701 12.8059C-18.6487 12.9919 -18.713 12.6818 -18.4557 12.6818C-18.0059 12.6818 -17.4274 15.1627 -16.913 14.6665C-16.2702 13.9843 -17.6201 12.8059 -17.1701 12.0616C-16.7202 11.2553 -15.6917 11.2553 -15.1773 10.6351C-15.3703 10.325 -15.1132 10.5731 -15.3059 10.2009C-14.9845 10.2009 -15.3703 9.3326 -15.3059 9.08451L-15.1132 9.76676C-14.7274 9.76676 -14.8559 9.08451 -14.9202 8.96047C-14.7274 9.02249 -14.5988 8.83642 -14.406 8.58833C-14.2774 8.34024 -14.4703 8.52631 -14.4703 8.27822C-14.4703 8.15417 -13.8273 8.15417 -13.7632 8.15417C-13.8917 8.09215 -14.0846 8.15417 -14.2131 8.15417C-13.8275 7.90608 -13.0561 7.90609 -12.7347 7.72002C-13.2488 7.84406 -13.0561 7.0998 -12.7347 6.85171C-12.4132 6.60361 -11.5775 6.60361 -11.7061 6.23148C-11.2561 6.47958 -10.999 5.98339 -10.6776 5.92136C-10.7419 6.10743 -10.6776 6.16946 -10.4848 6.10743C-11.449 6.16946 -11.1919 7.0998 -10.8705 6.85171C-10.6776 6.72767 -9.39192 6.16946 -9.39192 6.04542C-9.39192 5.67327 -10.9347 5.92136 -10.7419 4.86698C-10.8705 4.86698 -10.999 4.86698 -11.0633 4.80496C-10.9347 4.68092 -9.97042 4.18473 -10.8705 4.18473C-11.5133 4.18473 -11.8989 4.55688 -12.4776 4.61889C-12.3489 4.30879 -11.3847 3.68855 -10.999 3.62654C-10.3562 3.56451 -9.3276 3.93664 -8.7491 3.56451C-8.36337 3.25441 -7.59211 3.13035 -7.33482 2.82025C-7.07774 2.51013 -7.59211 2.01394 -7.59211 1.70384C-7.78487 1.82788 -8.87774 2.32407 -9.00619 2.07597C-8.81342 1.95192 -7.27069 1.51776 -8.23492 1.45575C-8.55634 1.45575 -9.00619 1.26968 -9.00619 0.897554C-9.13483 0.773499 -9.45625 0.711472 -9.64901 0.525407C-9.07051 0.215304 -9.84197 -0.156825 -9.97042 -0.466946C-10.1634 -0.839076 -10.1634 -1.1492 -10.5491 -1.45932C-10.8705 -1.70739 -11.1919 -0.528975 -11.7704 -0.528975C-12.3489 -0.528975 -12.5417 -1.33526 -12.606 -1.70739C-12.606 -1.83145 -13.5059 -2.32763 -13.6346 -2.38964C-14.2774 -2.8238 -14.5345 -2.57571 -15.3059 -2.8238C-16.4629 -3.19593 -15.6273 -2.20358 -16.0131 -1.95548C-16.2058 -1.83145 -15.4346 -1.1492 -16.2702 -0.839076C-15.756 -0.0327892 -14.9202 1.26968 -16.5916 1.57981C-16.2702 1.70384 -16.2702 2.07597 -16.2058 2.38607C-16.1415 2.82023 -16.3345 2.69619 -16.3345 3.06833C-16.7843 3.06833 -16.5273 3.44047 -17.0416 3.00632C-17.5558 2.51013 -17.4915 2.26204 -17.6201 1.64181C-17.7488 1.02159 -18.6487 1.26968 -19.0985 1.02159C-19.5486 0.773499 -19.9986 0.587435 -20.4485 0.401369C-20.5771 0.339341 -20.7056 0.277313 -20.8342 0.215304C-21.1556 0.0912485 -21.2199 0.339341 -21.5414 0.339341C-21.5414 -0.342891 -21.7985 -0.715039 -22.377 -0.590984C-22.2485 -0.901105 -22.377 -1.21121 -22.377 -1.52133C-22.3127 -1.95548 -21.927 -2.2656 -21.7342 -2.63773C-21.477 -3.07189 -21.2843 -2.76177 -20.9629 -3.07189C-20.5771 -3.38199 -21.477 -3.50605 -21.6056 -3.56808C-21.6056 -3.56808 -21.477 -3.63009 -21.4127 -3.63009C-21.2199 -3.56808 -20.9629 -3.56808 -20.7699 -3.50605C-20.4485 -3.44402 -20.7056 -3.81617 -20.5128 -3.81617C-20.0628 -3.94021 -19.87 -4.00222 -19.4843 -4.31234C-19.4843 -4.7465 -20.3842 -4.4984 -20.6415 -4.93256C-20.2557 -4.87053 -19.9343 -4.4984 -19.5486 -4.68447C-19.4199 -4.7465 -19.0344 -5.30471 -19.2915 -5.30471C-19.0344 -5.30471 -18.9058 -5.05662 -18.713 -5.05662C-18.4557 -5.05662 -18.2629 -5.36672 -18.2629 -5.36672C-17.9415 -5.36672 -17.8772 -5.24268 -17.5558 -5.61481C-17.1701 -5.98694 -17.6201 -5.98694 -17.6844 -6.35909C-17.7488 -6.66919 -17.363 -6.60716 -17.363 -6.85526C-17.4274 -7.16538 -17.5558 -7.04134 -17.7488 -7.22741C-17.9415 -7.35144 -18.9058 -7.72357 -18.9058 -7.22741C-18.8414 -7.10335 -18.7771 -6.97931 -18.713 -6.85526C-18.713 -6.73122 -19.0344 -6.73122 -19.0985 -6.60718C-19.2915 -6.17302 -19.6129 -5.42875 -20.0628 -6.23503C-20.2557 -6.60716 -19.6129 -6.66919 -20.2557 -7.10335C-20.6415 -7.41347 -20.5771 -6.60718 -20.8985 -6.60718C-20.8985 -6.91728 -21.3486 -7.10335 -21.0913 -7.28942C-21.2843 -7.41347 -21.6056 -7.28942 -21.7985 -7.47548C-21.2843 -7.72357 -21.7342 -8.28177 -21.9913 -8.65392C-22.5056 -9.27414 -22.7627 -8.65392 -23.0841 -8.59189C-23.2127 -8.52988 -23.277 -7.66154 -23.0841 -7.59953C-22.6984 -7.41347 -22.0556 -7.41347 -22.4413 -6.79323C-21.5414 -7.28942 -23.2127 -5.67684 -23.0841 -6.111C-22.8913 -7.10335 -24.1127 -6.17301 -24.3055 -6.17301C-25.0769 -6.17301 -26.6197 -5.98694 -26.9411 -6.97931C-27.2625 -6.91728 -27.7125 -6.97931 -27.9696 -6.73122C-28.3553 -6.4211 -27.2625 -6.60716 -27.1339 -6.66919C-27.1339 -6.79325 -28.1625 -5.73885 -27.7125 -5.73885C-28.0982 -5.73885 -28.3553 -6.23503 -28.9339 -6.23503C-29.2553 -6.23503 -30.6695 -5.92493 -30.6695 -6.29706C-30.6695 -6.42112 -30.2195 -6.35909 -30.1552 -6.4211C-30.6695 -7.10335 -31.1837 -6.60716 -31.8908 -6.85526C-32.2766 -6.97931 -32.598 -7.22741 -32.9837 -7.35144C-33.4336 -7.4755 -34.0765 -6.97931 -34.205 -7.59953C-34.4622 -7.53751 -34.4622 -7.22741 -34.7193 -7.22741C-34.9764 -7.22741 -35.1693 -7.59954 -35.3621 -7.7856C-35.555 -7.97167 -35.6192 -7.66156 -35.7478 -7.53751C-35.8764 -7.35144 -36.3264 -7.59954 -36.5192 -7.53751C-36.6478 -7.53751 -38.1263 -7.16538 -38.062 -7.22741C-38.062 -7.22741 -38.9619 -6.73122 -38.5762 -6.73122C-39.2833 -6.73122 -39.8619 -7.16538 -40.4404 -7.28942C-40.4404 -5.36672 -40.4404 -3.50605 -40.4404 -1.58335C-40.4404 -3.44402 -40.4404 -5.30471 -40.4404 -7.16538C-40.4404 -7.72357 -41.6618 -7.47548 -41.9189 -7.47548C-42.5618 -7.47548 -43.076 -7.7856 -43.6546 -7.7856C-43.9117 -7.7856 -44.1688 -7.7856 -44.426 -7.7856C-44.6188 -7.7856 -44.7474 -8.03369 -44.9402 -8.03369C-45.1331 -8.03369 -45.3259 -8.03369 -45.5188 -8.03369C-45.9045 -8.15773 -45.9045 -7.90966 -46.1616 -7.97167C-45.7759 -8.59189 -47.3187 -8.03369 -47.5758 -7.97167C-48.2829 -7.72357 -48.99 -6.73122 -49.5686 -6.73122C-49.9543 -6.73122 -50.5971 -6.4211 -49.9543 -6.23503C-49.5686 -6.111 -49.44 -6.04897 -49.2472 -5.67684C-48.99 -5.30471 -48.4758 -5.42875 -48.2829 -4.93256C-48.6043 -4.87053 -49.1829 -4.80852 -49.1829 -5.24268C-49.6328 -5.30469 -50.2757 -4.87055 -50.6614 -4.68447C-50.5971 -4.56043 -50.4685 -4.43639 -50.2757 -4.4984C-50.34 -4.37437 -50.34 -4.31234 -50.2114 -4.1883C-49.9543 -3.87818 -49.89 -4.00222 -49.44 -4.00222C-48.99 -4.00222 -48.7972 -3.81615 -48.4115 -4.06425C-48.1544 -4.25031 -48.0258 -4.12627 -48.0258 -3.94021C-48.0901 -4.00224 -48.1544 -4.00224 -48.2186 -3.94021C-48.0901 -3.63009 -47.8329 -3.63009 -48.2186 -3.38199C-48.5401 -3.19593 -48.8615 -3.13392 -49.2472 -3.00987C-49.5686 -2.94786 -50.0828 -2.69976 -50.0828 -2.32761C-50.0828 -2.14155 -49.1829 -1.70739 -49.7614 -1.70739C-49.5686 -1.4593 -49.2472 -1.27323 -48.99 -1.1492C-48.7972 -1.02516 -48.4758 -1.52133 -48.4758 -1.1492C-48.4115 -1.08717 -48.6043 -0.528975 -48.3472 -0.528975C-48.0901 -0.528975 -48.0258 -0.653011 -47.9615 -0.839076C-47.7687 -0.715039 -47.5758 -0.590983 -47.3187 -0.466946C-47.2544 -0.715039 -46.483 -0.715039 -46.1616 -0.777067C-46.483 -0.590983 -46.483 -0.156826 -46.8044 0.0292387C-47.1901 0.277332 -47.6401 0.401369 -47.8972 0.773499C-48.0901 1.02159 -48.5401 0.835526 -48.7329 1.20766C-48.99 1.51778 -49.44 1.39372 -49.6328 1.70384C-49.1829 1.82788 -48.1544 1.26968 -47.7044 1.08362C-47.1901 0.897555 -46.5473 0.463397 -46.2259 0.0292387C-46.033 -0.218854 -45.7116 -0.156844 -45.5188 -0.404938C-45.3902 -0.591002 -45.4545 -0.839094 -45.3902 -1.02516C-45.1974 -1.52133 -44.6188 -2.01751 -44.0403 -1.95548C-44.0403 -1.70741 -44.7474 -1.33526 -44.7474 -0.901104C-44.7474 -0.839076 -43.076 -1.08717 -43.3974 -1.70739C-42.7546 -2.01751 -41.9189 -1.27323 -41.0833 -1.27323C-40.6976 -1.27323 -40.2476 -1.08717 -39.8619 -0.963132C-39.5405 -0.839076 -38.9619 0.0292206 -38.7048 -0.528975C-38.512 -0.34291 -37.9334 -0.404919 -38.1263 -0.156826C-38.512 0.339341 -37.6763 0.0292387 -37.612 0.0292387C-37.9334 0.835526 -37.162 0.277313 -37.162 0.897554C-37.162 1.64181 -35.6835 1.39372 -36.5835 0.711471C-36.0692 1.08362 -36.5192 1.45575 -36.3264 2.01394C-36.2621 2.26204 -35.4907 2.57216 -35.4264 2.88226C-35.2978 3.19238 -35.2978 3.56451 -34.8479 3.56451C-34.7836 3.87463 -34.2693 3.68857 -34.205 3.99867C-34.0765 4.43283 -32.9194 4.24676 -33.5622 5.05305C-33.6908 4.80496 -34.3979 4.74293 -34.0764 5.17709C-33.6908 5.7353 -33.9479 6.04542 -34.0764 6.66564C-34.205 7.28587 -34.205 9.3326 -33.2408 9.45665C-33.3051 10.0149 -32.7908 10.2629 -32.7265 10.7591C-32.6622 11.0692 -31.5052 11.3173 -31.248 11.7515C-31.1837 11.8755 -30.2838 14.0463 -30.0266 13.9223C-30.0909 13.9223 -30.2195 13.9223 -30.2838 13.9223C-29.9624 14.3564 -29.2553 14.2324 -29.2553 14.9146C-29.2553 15.1007 -28.4839 15.7829 -28.3553 15.7829C-28.2267 15.7829 -28.9981 14.4805 -29.1267 14.2944C-29.3838 13.9843 -29.4481 13.5501 -29.7052 13.302C-29.9624 13.054 -30.6695 12.5578 -30.3481 12.1236C-30.1552 12.2477 -29.9624 12.3097 -29.7052 12.3717C-29.641 12.4958 -29.5767 12.6818 -29.5124 12.8059C-29.2553 13.054 -29.1267 13.4261 -28.8696 13.7362C-28.6767 13.5501 -27.9696 14.7906 -27.841 14.8526C-27.4554 15.0387 -27.0697 15.4728 -26.8125 15.845C-26.4911 16.3412 -26.6197 16.4032 -26.6197 16.8373C-26.6197 17.3955 -25.334 17.5816 -24.9483 17.8917C-24.5626 18.2638 -23.5984 18.2638 -23.1484 18.5119C-22.827 18.698 -22.7627 18.3259 -22.5056 18.3259C-22.0556 18.3259 -21.7985 18.698 -21.5414 18.9461C-21.2199 19.2562 -20.7056 19.2562 -20.32 19.4423C-20.1271 19.5663 -19.9343 19.5663 -19.7414 19.4423C-19.6129 19.5043 -19.4843 19.7524 -19.3558 19.8764C-19.0344 20.1245 -18.8414 20.9308 -18.713 20.6827C-18.3916 20.6827 -16.9773 22.2333 -16.7843 21.551C-17.1058 21.427 -16.4629 20.9308 -16.2702 21.1789C-16.0774 21.427 -16.1415 21.551 -15.9488 21.7991C-15.4987 22.2333 -15.756 23.1636 -16.1415 23.4117C-16.5273 23.6598 -16.7202 24.28 -16.913 24.5901C-17.2344 25.0863 -17.1059 25.1483 -16.7202 25.3964C-16.8487 25.8926 -17.5558 25.9546 -17.1701 26.6369C-17.1058 26.7609 -16.7202 27.2571 -16.5916 27.3811C-16.1415 27.7533 -15.3703 29.1177 -15.3703 29.738C-15.3703 30.4823 -13.5059 30.7924 -13.1204 31.2885C-12.606 31.9709 -12.9918 32.9011 -12.9918 33.6454C-12.9918 34.3897 -13.3775 35.0719 -13.3775 35.8162C-13.3775 36.4984 -13.3775 37.3048 -13.5702 37.987C-13.6989 38.6692 -14.3417 39.1033 -14.2131 39.9097C-14.1489 40.2818 -14.1489 40.0957 -14.2774 40.5298C-14.3417 40.654 -14.406 41.2741 -14.1489 41.2741C-14.0203 41.2741 -13.956 41.1501 -13.8275 41.1501C-13.8275 41.8323 -14.1489 42.5766 -14.2774 43.3209C-14.4703 43.3209 -14.5988 42.8867 -14.7918 43.1969C-14.8559 43.3209 -14.7274 43.5689 -14.6631 43.5689C-14.4703 44.0031 -14.9202 43.9412 -14.9202 44.3132C-14.9202 44.6234 -14.7918 45.1815 -14.7274 45.4917C-14.7274 45.7397 -14.3417 45.7397 -14.3417 46.0498C-14.3417 46.2981 -14.5988 46.36 -14.5988 46.5461C-14.5988 47.1664 -12.9917 47.1664 -12.7347 47.6625C-12.5417 48.0966 -11.1276 47.9726 -10.8705 47.6005C-11.8348 47.1664 -11.8989 46.7322 -12.4776 45.9879C-12.7347 45.6778 -12.4132 45.1815 -12.0918 45.1196C-11.7704 45.0575 -11.8348 44.5614 -11.5133 44.3753C-10.4848 43.755 -12.2846 43.5691 -11.7061 42.8867C-11.3204 42.5147 -11.1276 42.8248 -10.999 42.2666C-10.9347 42.0805 -10.8705 41.8944 -10.7419 41.7704C-10.8705 41.7704 -10.8705 41.7083 -10.8705 41.5843C-10.7419 41.5843 -10.3562 41.8323 -10.3562 41.5223C-10.3562 41.2741 -10.6776 41.5223 -10.8062 41.3981C-11.5775 40.3439 -9.9061 41.3362 -9.9061 40.778C-9.9061 39.3515 -8.87774 40.4058 -8.10628 39.6617C-7.91351 39.4756 -7.39914 38.9793 -7.78487 38.7934C-7.84919 38.7934 -8.36337 38.0491 -8.36337 38.0491C-8.36337 38.1731 -6.69201 38.3592 -6.43491 37.9251C-5.98486 37.3048 -5.47069 36.7466 -5.14928 36.0642C-4.76355 35.5681 -4.69923 35.4441 -4.6351 34.8239C-4.6351 34.0176 -3.67087 33.6454 -3.02786 33.2733C-2.64232 33.0872 -2.25659 33.2733 -1.87086 33.0251C-1.67809 32.9011 -1.61377 32.529 -1.48513 32.3429C-1.16372 31.8468 -0.777992 30.9785 -0.777992 30.3583C-0.777992 29.9241 -1.03527 29.5519 -0.585224 29.2419C-0.328133 29.0558 -0.199493 28.7456 -0.00672531 28.5595C0.379005 28.1875 1.47188 26.6369 0.443329 26.3888C0.764736 26.4508 0.250561 26.3268 0.443329 26.3888ZM-12.0918 5.11508C-12.0918 5.1771 -12.0275 5.23911 -12.0275 5.23911C-12.0275 5.30114 -12.2203 4.92901 -12.0918 5.11508ZM-13.1845 5.98339C-13.3775 6.16946 -12.9917 5.79733 -13.1845 5.98339V5.98339ZM-14.7274 6.16946C-14.5988 6.10743 -15.6917 7.0998 -14.9202 6.29349C-14.8559 6.29349 -14.7918 6.23149 -14.7274 6.16946ZM-16.5916 6.97575C-16.2702 6.91374 -15.4987 6.85171 -15.3059 6.72765C-15.6273 6.97574 -15.563 7.16183 -16.0774 7.16183C-16.2058 7.16183 -16.7843 7.03777 -16.7202 7.22384C-16.7843 7.03777 -16.7843 7.03777 -16.5916 6.97575C-16.3345 6.85171 -16.6559 6.97575 -16.5916 6.97575ZM-16.6559 7.4099C-16.5916 7.47193 -16.6559 7.47193 -16.8487 7.53395C-16.7843 7.47193 -16.7202 7.47193 -16.6559 7.4099ZM-16.8487 7.53395C-17.1058 7.65799 -18.0702 8.2162 -18.0702 7.53395C-17.9415 7.72002 -17.8129 7.72002 -17.6844 7.53395C-17.4274 7.34788 -17.0416 7.65799 -16.8487 7.53395C-16.913 7.53395 -17.1701 7.65799 -16.8487 7.53395ZM-22.3127 4.55686C-21.7985 4.55686 -21.6056 4.68092 -21.1556 4.80496C-20.8342 4.86698 -20.4485 4.86698 -20.1271 4.74295C-19.8057 4.55686 -19.9986 4.3708 -19.6129 4.74295C-19.6129 4.68092 -19.6129 4.61889 -19.6129 4.55686C-18.8414 4.68092 -18.9058 5.54923 -18.1986 5.7353C-18.0059 5.79733 -17.4272 5.85935 -17.2987 5.92136C-16.7843 6.23148 -16.9773 6.78968 -17.4274 6.29349C-17.4915 6.47956 -17.5558 7.16183 -17.8129 7.16183C-17.9415 7.03777 -18.0059 6.91372 -18.0059 6.72765C-18.0702 6.78968 -18.1986 6.78968 -18.2629 6.78968C-18.0059 5.54923 -19.3558 5.85935 -19.3558 6.85171C-19.3558 7.03777 -19.2272 7.84406 -19.6129 7.84406C-20.2557 7.84406 -19.8057 6.54159 -19.6129 6.29349C-19.7414 6.35552 -19.87 6.41755 -19.9343 6.47958C-19.87 5.85934 -18.3916 5.85934 -18.4557 5.67327C-18.9701 5.67327 -19.6772 5.61124 -20.1271 5.48721C-20.0628 5.36317 -19.9986 5.30114 -19.9986 5.17709C-20.32 5.23911 -20.6415 5.61126 -20.9629 5.61126C-21.1556 5.61126 -21.3486 5.48721 -21.6056 5.54923C-21.3486 5.1771 -20.8985 5.05305 -20.5128 4.80496C-21.0272 4.80496 -22.2485 4.68092 -22.5699 4.30879C-22.5056 4.3708 -22.4413 4.43283 -22.3127 4.55686ZM-39.0262 -0.839076C-39.1548 -0.901104 -39.2191 -0.963132 -39.3476 -0.963132C-38.9619 -0.653011 -38.9619 -0.839076 -38.7691 -1.08717C-38.8334 -0.963132 -38.8977 -0.901104 -39.0262 -0.839076ZM-38.3834 -1.21121C-38.1263 -1.02514 -37.9334 -0.777067 -37.7406 -0.528975C-37.9334 -0.777067 -38.1905 -1.02514 -38.3834 -1.21121ZM-37.2906 0.0292387C-37.3549 -0.0327892 -37.3549 -0.0948172 -37.4834 -0.156826C-37.2906 0.0292387 -37.2263 0.463397 -36.9692 0.587434C-37.0977 0.463397 -37.2263 0.215304 -37.2906 0.0292387C-37.2263 0.153276 -37.2906 -0.0948162 -37.2906 0.0292387ZM-36.9049 0.525407C-36.8406 0.525407 -36.7763 0.525406 -36.712 0.587434C-36.7763 0.587434 -36.8406 0.587435 -36.9049 0.525407ZM-30.4123 11.6895C-29.8981 11.8135 -29.4481 11.9996 -28.9339 12.1236C-29.4481 11.9996 -29.8981 11.8755 -30.4123 11.6895ZM-25.4626 12.8059C-25.0769 12.8059 -24.884 13.054 -24.6912 13.3641C-24.884 13.054 -25.1412 12.8059 -25.4626 12.8059Z"></path>
<path fill="#90C6DE" d="M19.8587 9.40383C19.7674 9.40383 19.0837 9.48696 19.0837 9.48696C19.0837 9.65323 19.6764 10.1521 19.7219 10.1521C19.7674 10.1521 19.8132 9.48696 19.8587 9.40383Z"></path>
<path fill="#176C93" d="M27.8235 13.0762C27.8439 12.9551 27.9109 12.9086 28.0357 12.9423C28.2632 13.0037 28.4611 12.9841 28.5838 12.7491C28.6168 12.686 28.6955 12.6851 28.7586 12.6826C28.9234 12.6753 28.9495 12.5065 29.0622 12.437C29.1026 12.4122 29.0357 12.3687 29.0104 12.3393C28.9265 12.2429 28.8399 12.1487 28.7534 12.0532C29.4649 11.6733 30.0243 11.7368 30.715 12.2719C30.8959 12.4122 31.0977 12.5321 31.2552 12.6941C31.5426 12.9904 31.9045 13.0233 32.282 13.0348C32.4608 13.0403 32.6474 12.9892 32.7674 13.21C32.8222 13.3103 32.998 13.2309 33.1167 13.2518C33.1967 13.535 33.4181 13.7094 33.6334 13.8859C33.6773 13.9217 33.7413 13.9354 33.7169 14.0113C33.6799 14.1695 33.6347 14.3302 33.8517 14.4048C33.917 14.4462 33.9453 14.5093 33.9618 14.5801C33.9727 14.7545 34.1253 14.7737 34.2454 14.8283C34.2519 14.8564 34.194 14.8833 34.2441 14.9119C34.2628 14.9336 34.2419 14.9037 34.2606 14.9255C34.806 15.5626 34.5224 15.412 35.4036 15.5293C35.7924 15.5809 35.9094 15.7416 35.7968 16.1028C35.5945 16.7514 35.7037 16.6196 35.04 16.8652C34.5885 17.0324 34.1249 17.1215 33.6508 17.174C33.2776 17.2149 32.9719 17.359 32.7727 17.6831C32.6891 17.8187 32.5974 17.8443 32.4308 17.785C32.1603 17.6886 31.8645 17.6997 31.5774 17.681C31.5274 17.6775 31.4757 17.692 31.4261 17.6839C31.2404 17.6549 31.0838 17.649 31.0629 17.9023C31.0568 17.9765 30.9824 18.0848 30.8702 17.9654C30.7824 17.7918 30.7097 17.6153 30.5427 17.4857C30.4088 17.382 30.3409 17.217 30.28 17.0597C30.1878 16.8217 30.0612 16.6239 29.7981 16.5275C29.6189 16.4619 29.4097 15.9958 29.4484 15.8043C29.4967 15.5651 29.2844 15.1332 29.0548 15.0261C28.8847 14.9472 28.7503 14.8607 28.7786 14.6428C28.7925 14.5345 28.6646 14.537 28.6085 14.4812C28.6059 14.4108 28.5416 14.4667 28.5185 14.439C28.5394 14.3307 28.5281 14.2364 28.4559 14.1396C28.291 13.9183 28.1414 13.6868 27.9853 13.4591C27.9566 13.3972 27.8987 13.4139 27.8531 13.4198C27.7678 13.4314 27.7487 13.4024 27.7787 13.329C27.8017 13.2459 27.783 13.1559 27.8235 13.0757V13.0762Z"></path>
<path fill="#176C93" d="M26.6236 23.5587C26.5754 23.4538 26.3622 23.5211 26.4027 23.2904C26.4749 22.8777 26.444 22.919 26.8894 22.9357C27.1734 22.9463 27.5161 22.9638 27.7423 22.6909C27.8132 22.6056 27.9141 22.5655 28.0167 22.528C28.109 22.4943 28.1781 22.4645 28.252 22.5805C28.2999 22.6555 28.423 22.6905 28.5221 22.6858C28.7153 22.6768 28.8775 22.7357 29.0154 22.8589C29.2194 23.041 29.4821 23.0077 29.7226 23.0589C29.8017 23.0755 29.8204 23.0188 29.8596 22.9813C30.0083 22.8397 30.1471 22.6756 30.3824 22.861C30.4281 22.8973 30.5211 22.876 30.592 22.8811C30.5968 22.9408 30.569 22.9877 30.532 23.0167C30.2989 23.1988 30.291 23.4465 30.3084 23.7062C30.3171 23.8405 30.3158 23.9757 30.3084 24.11C30.291 24.4311 30.1888 24.5014 30.4232 24.7607C30.2753 24.8648 30.2478 25.107 30.1027 25.3342C30.0652 25.5142 29.9975 25.5415 29.9583 25.6451C29.857 25.915 29.6539 26.1291 29.5677 26.4075C29.5134 26.5836 29.4999 26.712 29.6604 26.8297C29.7613 26.9034 29.8248 26.9755 29.7243 27.1192C29.6552 27.2185 29.6969 27.4045 29.7261 27.4906C29.8087 27.7362 29.8825 27.693 29.9994 27.9049C30.0625 27.7614 30.1236 28.2551 30.144 28.2829C29.8787 28.4969 29.5864 28.6368 29.2307 28.6078C29.2111 28.6061 29.185 28.6112 29.1715 28.6231C28.9358 28.8355 28.6818 28.7737 28.4117 28.6969C28.2912 28.6628 28.1477 28.7054 28.0146 28.7135C27.8623 28.682 27.8489 28.5583 27.8297 28.4415C27.8023 28.276 27.7919 28.1055 27.6614 27.9758C27.2721 27.879 26.8759 27.7997 26.5432 27.5567C26.3857 27.4381 26.3322 27.259 26.2735 27.0881C26.2396 26.99 26.2087 26.9017 26.1117 26.8501C26.0034 26.7926 25.9603 26.7056 25.9773 26.5857C25.993 26.4719 25.9621 26.3606 25.9482 26.2485C25.939 26.173 25.9073 26.0945 25.9777 26.0293C26.2322 25.9645 26.2574 25.6822 26.4449 25.5534C26.4527 25.5479 26.4557 25.5172 26.4505 25.5142C26.2483 25.3892 26.3927 25.2477 26.4236 25.107C26.4579 24.9517 26.3396 24.8485 26.2583 24.7262C26.2152 24.7624 26.1774 24.8204 26.1313 24.8272C26.0652 24.8375 25.9343 24.8737 25.9456 24.7607C25.9769 24.452 25.9782 24.1258 26.2365 23.8883C26.2544 23.8716 26.2896 23.8729 26.3166 23.8657C26.4092 23.7535 26.551 23.6896 26.6236 23.5587Z"></path>
<path fill="#176C93" d="M20.8374 35.2946C20.8992 35.2614 20.9535 35.2337 20.9818 35.1535C21.0292 35.0196 21.1432 35.1062 21.1432 35.1599C21.1436 35.4029 21.3611 35.3931 21.4802 35.3995C21.666 35.4093 21.8721 35.4609 22.05 35.2853C22.1396 35.197 22.1948 35.1377 22.1931 35.0136C22.187 34.5979 22.1909 34.1821 22.1909 33.7604C22.4154 33.8555 22.5511 34.1664 22.4615 34.3663C22.4101 34.4815 22.4358 34.5305 22.5676 34.5442C22.8329 34.5714 23.1421 34.38 23.2296 34.1229C23.3057 33.8998 23.4101 33.861 23.6128 33.9928C23.7241 34.0653 23.8498 34.0986 23.9729 34.1233C24.2047 34.1693 24.3113 34.0947 24.3909 33.8683C24.4026 33.835 24.4017 33.7762 24.4209 33.7694C24.7132 33.6683 24.791 33.3741 24.9846 33.1869C25.0833 33.0914 25.1968 32.9933 25.3103 32.9212C25.5191 32.7886 25.7413 32.6134 26.0254 32.7468C26.1019 32.7827 26.1811 32.7886 26.2581 32.7758C26.4638 32.7421 26.5612 32.8296 26.6008 33.0236C26.6665 33.3442 26.8535 33.6402 26.79 33.9877C26.7682 34.1067 26.8083 34.2691 26.6004 34.1203C26.5408 34.0777 26.4816 34.1092 26.4525 34.1608C26.3881 34.2742 26.255 34.3719 26.312 34.5211C26.3716 34.6776 26.4916 34.7753 26.6743 34.7748C26.7095 34.7748 26.7691 34.78 26.7682 34.7458C26.7622 34.4657 26.9866 34.5761 27.1232 34.5382C27.0501 34.8819 27.0601 35.255 26.6778 35.4682C26.4781 35.5795 26.4233 35.8208 26.3016 36.0025C25.9406 36.5415 25.4565 36.9564 24.9167 37.312C24.7988 37.3896 24.6636 37.4476 24.5079 37.4147C24.4522 37.4028 24.3896 37.4071 24.3774 37.4877C24.3748 37.5056 24.35 37.5367 24.3469 37.5354C24.193 37.4702 24.052 37.6297 23.9298 37.5883C23.6937 37.5081 23.4431 37.5081 23.2331 37.558C22.9129 37.6343 22.5632 37.6339 22.2736 37.8126C22.1609 37.8821 22.047 37.877 21.9869 37.7985C21.9104 37.6987 21.7447 37.7243 21.7125 37.5823C21.7103 37.5721 21.6681 37.5576 21.6577 37.564C21.4807 37.6757 21.5303 37.5584 21.559 37.4698C21.6003 37.3414 21.482 37.2843 21.4363 37.1947C21.3906 37.1052 21.2628 37.0378 21.4685 36.9423C21.6155 36.8741 21.5546 36.6587 21.4733 36.5628C21.1553 36.1871 21.0827 35.7006 20.8391 35.2942L20.8374 35.2946Z"></path>
<path fill="#176C93" d="M12.4067 10.1455C12.4354 10.1327 12.4637 10.1199 12.4924 10.1067C12.6768 10.415 12.9443 10.5169 13.3214 10.3975C13.4005 10.3723 13.4466 10.3344 13.5066 10.4163C13.558 10.4862 13.6423 10.4329 13.7089 10.4525C13.989 10.6273 13.9068 10.922 13.9525 11.1723C13.9725 11.2831 13.9951 11.3872 14.0721 11.4742C14.1125 11.5198 14.2025 11.5296 14.1347 11.6371C14.0803 11.7236 14.0451 11.7782 13.9316 11.7612C13.8255 11.7449 13.7032 11.7168 13.6119 11.7522C13.4723 11.8064 13.3653 11.9287 13.2035 11.9577C13.18 11.962 13.1195 12.0575 13.1739 12.1411C13.2531 12.2618 13.187 12.33 13.06 12.3713C12.846 12.4404 12.6563 12.5509 12.5202 12.7325C12.4745 12.7935 12.435 12.8067 12.3462 12.8042C12.0322 12.7956 11.719 12.8118 11.4455 13.0088C11.3163 13.1014 11.2389 13.1952 11.2628 13.3576C11.2754 13.4433 11.2758 13.5261 11.1393 13.5248C10.6478 13.5197 10.2086 13.7009 9.71709 13.7001C9.67925 13.7001 9.64663 13.6886 9.62793 13.6523C9.65794 13.6199 9.69317 13.6007 9.73927 13.5943C10.2329 13.527 10.5025 13.037 10.7826 12.6694C10.8531 12.5769 10.8905 12.4907 10.8131 12.3624C10.743 12.246 10.7504 12.069 10.8252 11.9646C10.9679 11.7654 10.9966 11.5062 11.2032 11.339C11.2924 11.2669 11.3702 11.1851 11.482 11.1539C11.8556 11.049 12.0674 10.7992 12.1896 10.447C12.2284 10.3352 12.2149 10.1621 12.4067 10.1455Z"></path>
<path fill="#176C93" d="M18.9492 11.3385C18.9448 11.4012 18.9222 11.4698 18.9405 11.5257C18.9696 11.6165 18.937 11.6587 18.8583 11.6869C18.7613 11.7214 18.6895 11.7909 18.6108 11.8527C18.4894 11.9491 18.395 12.0301 18.462 12.219C18.5047 12.3393 18.385 12.4497 18.2685 12.5154C18.1989 12.5546 18.1523 12.5401 18.1363 12.448C18.1119 12.3094 18.0688 12.1738 18.0414 12.0357C18.0084 11.8719 17.9083 11.7662 17.797 11.64C17.6487 11.4719 17.473 11.3056 17.3921 11.0775C17.3381 10.9261 17.4477 10.8494 17.5239 10.7974C17.6878 10.6865 17.6987 10.5398 17.6944 10.3769C17.6904 10.2256 17.6861 10.0742 17.6787 9.9228C17.6739 9.82728 17.7783 9.79573 17.7983 9.71557C17.9284 9.66056 18.0375 9.55865 18.1854 9.54543C18.3063 9.53434 18.4307 9.51387 18.4633 9.68614C18.4842 9.79616 18.5547 9.73774 18.6182 9.71855C18.6691 9.7032 18.7039 9.59148 18.7747 9.68017C18.8304 9.74968 18.7565 9.79402 18.7256 9.84477C18.7112 9.86907 18.7004 9.9002 18.6786 9.91427C18.4977 10.0311 18.5455 10.1236 18.6973 10.2277C18.8891 10.359 18.7578 10.5078 18.7025 10.6494L18.7056 10.646C18.6317 10.6997 18.5608 10.7581 18.4833 10.8063C18.3964 10.8601 18.3576 10.9249 18.4233 11.0123C18.4794 11.0865 18.5421 11.1253 18.6308 11.0336C18.6956 10.9667 18.7508 10.9824 18.7634 11.0895C18.7769 11.2029 18.8326 11.2946 18.95 11.3368L18.9492 11.3385Z"></path>
<path fill="#176C93" d="M29.787 26.7769C29.6544 26.7394 29.6011 26.6715 29.6249 26.5538C29.6327 26.5149 29.6617 26.4731 29.6903 26.503C29.7566 26.5721 29.8112 26.6553 29.787 26.7769Z"></path>
<path fill="#176C93" d="M29.7793 26.3876C29.8582 26.3047 29.7763 26.2278 29.853 26.1823C29.8625 26.1768 29.8996 26.1925 29.9022 26.2031C29.9168 26.269 29.9349 26.3396 29.7793 26.3876Z"></path>
<path fill="#176C93" d="M30.7017 17.9614C30.6205 17.9399 30.548 17.9525 30.523 17.8685C30.5196 17.8568 30.5437 17.8232 30.5561 17.8223C30.6369 17.8181 30.6742 17.866 30.7017 17.9614Z"></path>
<path fill="#176C93" d="M29.9046 27.1838C29.9249 27.294 29.8865 27.3368 29.8628 27.3842C29.8459 27.3739 29.8179 27.3671 29.8136 27.353C29.7911 27.2812 29.8632 27.2658 29.9046 27.1838Z"></path>
<path fill="#176C93" d="M18.7029 10.6513C18.7396 10.6576 18.7764 10.6635 18.8131 10.6698C18.8016 10.6842 18.793 10.7061 18.7781 10.712C18.7157 10.7361 18.7187 10.6821 18.7059 10.6483L18.7029 10.6517V10.6513Z"></path>
<path fill="#176C93" d="M27.4863 25.2131C27.4305 25.1455 27.3275 25.2127 27.2729 25.1408C27.3578 25.1408 27.4422 25.1387 27.527 25.1421C27.5677 25.1438 27.5694 25.174 27.5456 25.1969C27.533 25.2093 27.5066 25.208 27.4863 25.2131Z"></path>
<path fill="#176C93" d="M27.2834 24.2901C27.2276 24.3359 27.1778 24.4264 27.1013 24.3132C27.1554 24.2551 27.2225 24.2953 27.2834 24.2901Z"></path>
<path fill="#176C93" d="M27.2401 25.1222C27.1601 25.085 27.2032 25.0516 27.2467 25.0262C27.3223 24.9826 27.3202 25.0414 27.3258 25.0879C27.2971 25.0993 27.2688 25.1108 27.2401 25.1226V25.1222Z"></path>
</g>
</svg>
