<svg width="24" height="24" viewBox="0 0 24 24" fill="none" xmlns="http://www.w3.org/2000/svg">
<g clip-path="url(#clip0_6144_24233)">
<g clip-path="url(#clip1_6144_24233)">
<mask id="mask0_6144_24233" style="mask-type:luminance" maskUnits="userSpaceOnUse" x="-4" y="0" width="32" height="24">
<rect x="-4" width="32" height="24" fill="white"/>
</mask>
<g mask="url(#mask0_6144_24233)">
<path fill-rule="evenodd" clip-rule="evenodd" d="M4 0H20V24H4V0Z" fill="#FFD018"/>
<path fill-rule="evenodd" clip-rule="evenodd" d="M-4 0H4V24H-4V0Z" fill="#2E42A5"/>
<path fill-rule="evenodd" clip-rule="evenodd" d="M20 0H28V24H20V0Z" fill="#E31D1C"/>
<path fill-rule="evenodd" clip-rule="evenodd" d="M12.2928 17.8298C12.4669 17.7809 12.6166 17.4782 12.6166 17.4782C12.6166 17.4782 12.7303 17.567 12.9105 17.6575C13.0907 17.7479 13.2782 17.4782 13.2782 17.4782C13.2782 17.4782 13.5341 17.4782 13.6464 17.1762C13.7586 16.8742 13.4224 16.7447 13.4224 16.7447C13.4224 16.7447 13.8154 16.3318 14.4791 16.3318C15.1429 16.3318 15.6594 16.3318 16.0925 16.148C16.5256 15.9641 16.9464 15.648 17.1038 14.9917C17.2613 14.3353 16.763 13.9219 16.763 13.9219C16.763 13.9219 16.8733 13.9568 17.1038 13.7683C17.3344 13.5797 16.9627 12.9729 16.763 12.9729C16.5632 12.9729 16.5394 13.0852 16.5394 13.0852C16.5394 13.0852 16.4159 12.9781 16.2468 12.6138C16.0777 12.2496 16.4159 11.9299 16.4159 11.9299C16.4159 11.9299 16.6013 12.0361 16.763 11.8609C16.9246 11.6857 16.679 11.4172 16.679 11.4172C16.679 11.4172 17.4572 11.1523 17.3447 10.1567C17.2322 9.16108 16.206 9.2177 16.206 9.2177C16.206 9.2177 16.2371 9.05216 16.0925 8.95782C15.9479 8.86349 15.8408 9.05216 15.8408 9.05216C15.7273 8.78956 16.06 8.43032 16.3262 8.14283C16.4087 8.05375 16.4849 7.97155 16.5394 7.90125C16.7697 7.6041 16.6251 7.23698 15.7835 6.83628C14.942 6.43559 14.4825 6.97412 14.4151 7.16494C14.3476 7.35577 14.6087 7.47386 14.6087 7.47386C14.3958 7.66075 13.9839 7.73212 13.7031 7.60299C13.4224 7.47385 13.5468 7.08115 13.6049 6.97412C13.6112 6.9624 13.6196 6.94821 13.6294 6.93182C13.7088 6.79842 13.8747 6.51952 13.7031 6.24831C13.5105 5.94376 13.1769 5.94376 12.9105 6.1167C12.6825 6.26471 12.3583 6.3432 12.2696 6.36275C12.1809 6.3432 11.8567 6.26471 11.6287 6.1167C11.3622 5.94376 11.0287 5.94376 10.836 6.24831C10.6645 6.51952 10.8304 6.79842 10.9098 6.93182C10.9195 6.94821 10.928 6.9624 10.9343 6.97412C10.9924 7.08115 11.1168 7.47385 10.836 7.60299C10.5553 7.73212 10.1434 7.66075 9.93043 7.47386C9.93043 7.47386 10.1915 7.35577 10.1241 7.16494C10.0566 6.97412 9.59719 6.43559 8.75564 6.83628C7.91409 7.23698 7.76947 7.6041 7.99981 7.90125C8.0543 7.97155 8.13042 8.05375 8.21293 8.14283C8.47917 8.43033 8.81186 8.78956 8.6984 9.05216C8.6984 9.05216 8.59126 8.86349 8.44668 8.95782C8.30209 9.05216 8.33321 9.2177 8.33321 9.2177C8.33321 9.2177 7.30698 9.16108 7.19447 10.1567C7.08196 11.1523 7.86019 11.4172 7.86019 11.4172C7.86019 11.4172 7.61455 11.6857 7.77622 11.8609C7.93789 12.0361 8.12324 11.9299 8.12324 11.9299C8.12324 11.9299 8.46147 12.2496 8.29235 12.6138C8.12324 12.9781 7.99981 13.0852 7.99981 13.0852C7.99981 13.0852 7.97598 12.9729 7.77622 12.9729C7.57646 12.9729 7.20481 13.5797 7.43534 13.7683C7.66587 13.9568 7.77622 13.9219 7.77622 13.9219C7.77622 13.9219 7.2779 14.3353 7.43534 14.9917C7.59278 15.648 8.01359 15.9641 8.44668 16.148C8.87977 16.3318 9.39632 16.3318 10.06 16.3318C10.7237 16.3318 11.1168 16.7447 11.1168 16.7447C11.1168 16.7447 10.7805 16.8742 10.8928 17.1762C11.0051 17.4782 11.261 17.4782 11.261 17.4782C11.261 17.4782 11.4485 17.7479 11.6287 17.6575C11.8089 17.567 11.9226 17.4782 11.9226 17.4782C11.9226 17.4782 12.0723 17.7809 12.2464 17.8298V17.8365C12.2541 17.8365 12.2619 17.8359 12.2696 17.8348C12.2773 17.8359 12.285 17.8365 12.2928 17.8365V17.8298Z" fill="#BF9937"/>
<path fill-rule="evenodd" clip-rule="evenodd" d="M9.28345 8.22778H12.2159H12.2901H15.2225V13.7648C15.2225 13.7648 15.2215 14.2535 14.7048 14.4672C14.1881 14.6809 13.5804 14.6044 13.5804 14.6044C13.5804 14.6044 12.9989 14.4793 12.6919 14.6044C12.5038 14.681 12.3675 14.7189 12.2901 14.7368V14.7514C12.2901 14.7514 12.2775 14.7497 12.253 14.7448C12.2285 14.7497 12.2159 14.7514 12.2159 14.7514V14.7368C12.1385 14.7189 12.0022 14.681 11.8141 14.6044C11.5071 14.4793 10.9256 14.6044 10.9256 14.6044C10.9256 14.6044 10.3178 14.6809 9.80116 14.4672C9.28449 14.2535 9.28345 13.7648 9.28345 13.7648V8.22778Z" fill="#BF9937"/>
<mask id="mask1_6144_24233" style="mask-type:luminance" maskUnits="userSpaceOnUse" x="9" y="8" width="7" height="7">
<path fill-rule="evenodd" clip-rule="evenodd" d="M9.28345 8.22778H12.2159H12.2901H15.2225V13.7648C15.2225 13.7648 15.2215 14.2535 14.7048 14.4672C14.1881 14.6809 13.5804 14.6044 13.5804 14.6044C13.5804 14.6044 12.9989 14.4793 12.6919 14.6044C12.5038 14.681 12.3675 14.7189 12.2901 14.7368V14.7514C12.2901 14.7514 12.2775 14.7497 12.253 14.7448C12.2285 14.7497 12.2159 14.7514 12.2159 14.7514V14.7368C12.1385 14.7189 12.0022 14.681 11.8141 14.6044C11.5071 14.4793 10.9256 14.6044 10.9256 14.6044C10.9256 14.6044 10.3178 14.6809 9.80116 14.4672C9.28449 14.2535 9.28345 13.7648 9.28345 13.7648V8.22778Z" fill="white"/>
</mask>
<g mask="url(#mask1_6144_24233)">
<rect x="9.20044" y="8.1582" width="2.87984" height="3.07182" fill="#D00F3A"/>
<path fill-rule="evenodd" clip-rule="evenodd" d="M12.4004 8.1582H15.3869V11.23H12.4004V8.1582Z" fill="#FEDF00"/>
<path fill-rule="evenodd" clip-rule="evenodd" d="M12.4004 11.5713H15.2802V14.7569H12.4004V11.5713Z" fill="#FEDF00"/>
<rect x="9.20044" y="11.5713" width="2.87984" height="3.1856" fill="#FEDF00"/>
</g>
</g>
</g>
<g style="mix-blend-mode:hard-light" opacity="0.12">
<rect width="24" height="24" rx="12" fill="white"/>
</g>
<rect width="24" height="24" fill="url(#paint0_linear_6144_24233)" fill-opacity="0.64" style="mix-blend-mode:overlay"/>
</g>
<defs>
<linearGradient id="paint0_linear_6144_24233" x1="24" y1="1.19273e-06" x2="-4.48665" y2="16.0237" gradientUnits="userSpaceOnUse">
<stop stop-color="white" stop-opacity="0.3"/>
<stop offset="0.262741" stop-opacity="0.27"/>
<stop offset="0.369956" stop-color="white" stop-opacity="0.26"/>
<stop offset="0.487001" stop-opacity="0.55"/>
<stop offset="0.594445" stop-opacity="0.24"/>
<stop offset="0.736408" stop-color="white" stop-opacity="0.3"/>
<stop offset="0.901459" stop-color="#272727" stop-opacity="0.22"/>
<stop offset="1" stop-opacity="0.2"/>
</linearGradient>
<clipPath id="clip0_6144_24233">
<rect width="24" height="24" rx="12" fill="white"/>
</clipPath>
<clipPath id="clip1_6144_24233">
<rect width="24" height="24" fill="white"/>
</clipPath>
</defs>
</svg>
