<svg xmlns="http://www.w3.org/2000/svg" id="Layer_1" viewBox="0 0 184 100"><defs><style>.cls-1{fill:#56575a;stroke-width:0px;}</style></defs><g id="Layer_2"><path class="cls-1" d="M118.31,31.8v18.31h-6.1v-18.31h-18.33l-9.83,18.31h-29.19v.02c-2.26-.11-4.06-1.97-4.06-4.26s1.91-4.27,4.27-4.27h31.29v-9.79h-31.29s0,0,0,0h-.2c-7.66.12-13.86,6.38-13.86,14.06s6.31,14.06,14.06,14.06v-.03h23.73l-4.46,8.3h12.38l4.54-8.3h10.87v8.3h10.1v-8.3h6.1v8.3h9.79v-8.3h12.12v-9.79h-12.12v-8.52h14.91v-9.79s-24.7,0-24.7,0ZM96.59,50.11l5.51-10.08v10.08h-5.51Z"></path></g></svg>