<svg width="24" height="24" viewBox="0 0 24 24" fill="none" xmlns="http://www.w3.org/2000/svg">
<g clip-path="url(#clip0_6144_24280)">
<g clip-path="url(#clip1_6144_24280)">
<mask id="mask0_6144_24280" style="mask-type:luminance" maskUnits="userSpaceOnUse" x="-4" y="0" width="32" height="24">
<rect x="-4" width="32" height="24" fill="white"/>
</mask>
<g mask="url(#mask0_6144_24280)">
<path fill-rule="evenodd" clip-rule="evenodd" d="M-4 0H10V14H-4V0Z" fill="#465BC5"/>
<path fill-rule="evenodd" clip-rule="evenodd" d="M3.12683 9.24812C3.03649 9.19971 2.92757 9.20133 2.83872 9.25241L0.739068 10.4594C0.502794 10.5953 0.223708 10.3675 0.309362 10.1088L0.978843 8.08661C1.01545 7.97605 0.984007 7.85429 0.89845 7.77528L-0.504109 6.4799C-0.700644 6.29838 -0.575599 5.96994 -0.308109 5.96508L1.63334 5.92986C1.74947 5.92775 1.85369 5.85811 1.90008 5.75163L2.80325 3.67828C2.90878 3.43602 3.25445 3.44206 3.35146 3.68785L4.17896 5.78443C4.22301 5.89603 4.32991 5.97014 4.44987 5.97224L6.36823 6.00572C6.63691 6.01041 6.76156 6.34122 6.56279 6.52205L5.11397 7.84007C5.02512 7.92089 4.99375 8.0473 5.03449 8.1603L5.71503 10.0479C5.80729 10.3038 5.53539 10.5387 5.29562 10.4102L3.12683 9.24812Z" fill="#F7FCFF"/>
<path fill-rule="evenodd" clip-rule="evenodd" d="M10 -2H28V14H10V-2Z" fill="#F7FCFF"/>
<path fill-rule="evenodd" clip-rule="evenodd" d="M-4 14H28V24H-4V14Z" fill="#E33534"/>
</g>
</g>
<g style="mix-blend-mode:hard-light" opacity="0.12">
<rect width="24" height="24" rx="12" fill="white"/>
</g>
<rect width="24" height="24" fill="url(#paint0_linear_6144_24280)" fill-opacity="0.64" style="mix-blend-mode:overlay"/>
</g>
<defs>
<linearGradient id="paint0_linear_6144_24280" x1="24" y1="1.19273e-06" x2="-4.48665" y2="16.0237" gradientUnits="userSpaceOnUse">
<stop stop-color="white" stop-opacity="0.3"/>
<stop offset="0.262741" stop-opacity="0.27"/>
<stop offset="0.369956" stop-color="white" stop-opacity="0.26"/>
<stop offset="0.487001" stop-opacity="0.55"/>
<stop offset="0.594445" stop-opacity="0.24"/>
<stop offset="0.736408" stop-color="white" stop-opacity="0.3"/>
<stop offset="0.901459" stop-color="#272727" stop-opacity="0.22"/>
<stop offset="1" stop-opacity="0.2"/>
</linearGradient>
<clipPath id="clip0_6144_24280">
<rect width="24" height="24" rx="12" fill="white"/>
</clipPath>
<clipPath id="clip1_6144_24280">
<rect width="24" height="24" fill="white"/>
</clipPath>
</defs>
</svg>
