<svg width="44" height="44" viewBox="0 0 44 44" fill="none" xmlns="http://www.w3.org/2000/svg">
<g id="asia">
<path id="Vector" d="M22.0026 43.9954C34.1516 43.9954 44.0003 34.1467 44.0003 21.9977C44.0003 9.84871 34.1516 0 22.0026 0C9.85359 0 0.00488281 9.84871 0.00488281 21.9977C0.00488281 34.1467 9.85359 43.9954 22.0026 43.9954Z" fill="#DCF4FF"/>
<g id="Clip path group">
<mask id="mask0_8958_57" style="mask-type:luminance" maskUnits="userSpaceOnUse" x="0" y="0" width="44" height="44">
<g id="SVGID_10_">
<path id="Vector_2" d="M21.9978 44C34.1469 44 43.9957 34.1512 43.9957 22.0022C43.9957 9.85309 34.1469 0.00431824 21.9978 0.00431824C9.84876 0.00431824 0 9.85309 0 22.0022C0 34.1512 9.84876 44 21.9978 44Z" fill="white"/>
</g>
</mask>
<g mask="url(#mask0_8958_57)">
<g id="Group">
<path id="Vector_3" d="M51.1984 0.00431824H-8.84668V43.4853H51.1984V0.00431824Z" fill="#DCF4FF"/>
<path id="Vector_4" d="M3.09448 37.3623C2.88504 37.7162 2.83267 37.969 2.46616 38.2723C2.20438 38.4744 1.73315 38.5251 1.57608 38.8284C1.41901 39.1823 1.7855 39.4351 1.68078 39.7384C1.57608 39.9912 1.20958 40.2944 1.26192 40.5977C1.36664 41.1538 1.94259 42.266 2.57088 41.2044C2.98976 40.4462 3.35627 39.3844 3.35627 38.4744C3.40864 38.4744 3.46099 38.5251 3.56571 38.5251C3.51334 38.2218 3.46099 37.4129 3.09448 37.3623C3.46099 37.3623 3.04211 37.4129 3.09448 37.3623Z" fill="#90C6DE"/>
<path id="Vector_5" d="M12.7793 31.3976C12.7793 31.8022 13.2505 31.7515 13.3552 31.4483C13.5646 31.0439 13.0936 30.8415 12.9365 30.5383C12.9365 30.8415 12.7793 31.0944 12.7793 31.3976Z" fill="#90C6DE"/>
<path id="Vector_6" d="M21.0012 35.1388C21.0012 34.5321 21.1059 34.5321 20.6871 34.0267C20.5824 33.9254 20.2681 33.4199 20.2681 33.3693C20.2681 33.0156 18.9068 32.6617 18.8021 32.3078C18.5402 31.8023 18.1739 31.9538 17.7549 31.8023C17.8074 32.2067 18.2261 32.156 18.3308 32.4088C18.4355 32.611 19.0115 33.4706 19.1686 33.4706C19.4305 33.521 19.6921 34.3299 19.9017 34.5321C19.9017 34.5828 21.0012 35.5936 21.0012 35.1388Z" fill="#90C6DE"/>
<path id="Vector_7" d="M22.0469 33.2681C22.0469 33.5209 22.361 33.6727 22.361 33.8242C22.6753 34.2792 22.361 34.2792 22.9894 34.3803C23.0941 34.7849 23.3035 34.3803 23.6176 34.532C23.9841 34.7342 24.1413 34.9364 24.4031 34.4309C24.5078 34.1781 24.6125 33.9253 24.7172 33.622C24.7694 33.4705 24.8219 33.3692 24.8744 33.2681C24.9791 33.2177 25.1885 33.3188 25.2407 33.1166C24.8219 33.1166 24.8219 32.4088 24.7694 32.257C24.8219 32.1559 25.2932 32.0549 25.2932 31.9033C25.2932 31.7516 24.9791 31.7516 24.8744 31.7009C24.7172 31.5999 24.8219 31.0944 24.5078 31.3977C24.3507 31.5494 24.246 31.7516 24.1413 31.9033C24.0888 32.0044 23.7225 32.0549 23.6176 32.1559C23.4082 32.3583 23.0941 32.4594 22.9369 32.6616C22.8322 32.7627 22.8322 32.9649 22.6753 33.0659C22.5181 33.167 22.0469 33.0659 22.0469 33.2681Z" fill="#90C6DE"/>
<path id="Vector_8" d="M25.974 33.3685C26.4975 33.3685 26.9688 33.5203 27.1781 32.9642C26.6022 33.1157 26.7069 33.2168 26.0787 33.1157C25.4503 33.0146 25.4503 33.6718 25.2931 34.0764C25.1884 34.2786 25.0838 34.5311 25.3981 34.5818C25.3981 34.7335 25.2931 35.0872 25.4503 35.1886C25.6597 35.3907 25.7644 34.9357 25.7644 34.784C25.7644 34.4301 25.555 34.4301 25.9216 34.2785C25.8169 34.5818 25.974 34.9861 26.2356 34.8346C26.6547 34.6325 26.0263 34.329 26.0263 33.9751C26.2356 33.9751 26.55 33.7225 26.6022 33.5707C26.445 33.5707 25.974 33.7225 25.974 33.7225C25.7122 34.0764 25.2931 33.3685 25.974 33.3685Z" fill="#90C6DE"/>
<path id="Vector_9" d="M23.828 36.0991C23.9851 36.0991 24.0898 36.2508 24.1945 36.0484C23.9327 35.9473 23.4092 35.8969 23.1998 35.6947C23.252 35.7452 23.6186 35.6947 23.6186 35.6441C23.5139 35.6441 23.3045 35.6947 23.1998 35.6947C23.0951 35.6947 22.9902 35.6441 22.8855 35.543C22.6239 35.3912 22.6239 35.6441 22.362 35.6441C22.0479 35.6441 21.2101 34.9362 20.9482 35.543C21.2101 35.543 21.2626 35.8462 21.5242 35.8462C21.7336 35.8462 22.362 35.8462 22.5192 35.998C22.7285 36.2002 23.7757 36.0991 23.828 36.0991Z" fill="#90C6DE"/>
<path id="Vector_10" d="M26.1835 36.2504C26.3404 36.2504 26.4451 36.1493 26.4976 36.0482C26.3404 36.0989 25.5551 36.0989 25.5551 36.1493C25.5029 36.301 26.0788 36.2504 26.1835 36.2504Z" fill="#90C6DE"/>
<path id="Vector_11" d="M24.9805 36.0482C24.9805 36.301 24.5615 35.8965 24.5615 36.1999C24.5615 36.301 25.1375 36.1999 25.2424 36.1999C25.0852 36.0989 25.2946 36.0482 24.9805 36.0482Z" fill="#90C6DE"/>
<path id="Vector_12" d="M25.6071 36.3514C25.5548 36.3514 25.293 36.3009 25.293 36.402L25.6595 36.6548C25.8689 36.5031 25.6071 36.6548 25.6071 36.3514Z" fill="#90C6DE"/>
<path id="Vector_13" d="M24.4031 36.0482C24.2478 36.2483 24.5068 36.2483 24.5068 36.0984C24.4551 36.0984 24.4551 36.0984 24.4031 36.0482Z" fill="#90C6DE"/>
<path id="Vector_14" d="M27.1269 36.4022C27.3362 36.4022 27.6503 36.3515 27.8075 36.1493C27.4934 35.9472 27.1269 36.3011 26.865 36.4022C26.7603 36.4526 26.4984 36.7561 26.7603 36.7561C26.9175 36.7054 27.1269 36.4022 27.1269 36.4022Z" fill="#90C6DE"/>
<path id="Vector_15" d="M30.2154 35.3403C30.2154 35.2897 30.2154 35.2393 30.1631 35.2393C30.1107 35.2393 29.9013 35.6943 30.0584 35.6943C30.0584 35.6436 30.2154 35.3403 30.2154 35.3403Z" fill="#90C6DE"/>
<path id="Vector_16" d="M27.4414 34.4809C27.4414 34.582 27.5983 34.7335 27.7033 34.6324C27.8602 34.4302 27.4414 34.3798 27.4414 34.4809Z" fill="#90C6DE"/>
<path id="Vector_17" d="M28.0166 34.481C28.1213 34.481 28.9069 34.5821 28.9069 34.6328C28.9591 34.3293 28.0166 34.3293 28.0166 34.481Z" fill="#90C6DE"/>
<path id="Vector_18" d="M27.9632 32.8133C27.8063 32.9144 27.911 33.6727 28.1204 33.6727C27.8585 33.3694 28.0682 33.5716 28.0157 33.4201C28.1204 33.4201 28.1729 33.4201 28.2776 33.4201C28.2776 33.2683 28.2776 33.2683 28.2776 33.1166C28.1204 33.0662 28.0157 32.9651 27.9632 32.8133C28.0157 32.9651 27.911 32.864 27.9632 32.8133Z" fill="#90C6DE"/>
<path id="Vector_19" d="M34.6133 35.1893C34.6657 35.3408 34.8751 35.2904 34.9274 35.3915C35.4511 35.5936 35.8699 34.7343 35.7127 34.7343C35.608 34.7847 35.5558 34.8354 35.5558 34.9365C35.4511 35.1386 35.1892 35.0882 35.0321 35.1386C34.8751 35.1893 34.7704 35.1893 34.6133 35.1893Z" fill="#90C6DE"/>
<path id="Vector_20" d="M34.0363 35.29C33.7222 35.1382 33.3557 34.7845 33.0938 34.5821C32.8322 34.38 32.361 34.481 32.0991 34.2284C32.0466 34.1778 31.5231 34.026 31.366 33.9756C31.1044 33.8745 30.6853 34.2284 30.5284 34.4306C30.2666 34.7339 30.0047 34.1274 30.0047 33.925C30.0047 33.5206 28.9053 33.6217 28.9053 33.8745C28.9053 34.1778 29.6906 34.2284 29.8478 34.1778C29.7428 34.3295 29.4288 34.2789 29.2718 34.38C29.3241 34.5821 29.6381 34.936 29.7953 34.5821C29.9 34.7845 30.1619 34.8856 30.4237 34.936C30.6331 34.9867 30.79 35.0371 30.9994 35.0878C31.4185 35.29 31.1566 35.5428 31.4707 35.7954C30.6853 36.1493 31.8372 35.9978 31.9419 36.0989C32.2038 36.2504 32.3085 36.4021 32.6226 36.4021C32.9369 36.4021 32.8322 36.2504 32.9891 36.0482C33.4082 35.4921 34.6123 37.1604 35.2929 36.7054C35.136 36.655 34.6123 36.4528 34.5076 36.301C34.4551 36.2 34.141 35.846 34.141 35.745C34.1935 35.29 34.5076 35.5428 34.0363 35.29C34.141 35.3406 33.7745 35.1889 34.0363 35.29Z" fill="#90C6DE"/>
<path id="Vector_21" d="M35.8709 34.5826C35.7662 34.4308 35.6091 34.3298 35.4521 34.2793C35.5044 34.3804 36.0281 34.8858 36.0803 34.8858C36.0281 34.7343 36.0281 34.7343 35.8709 34.5826C35.9756 34.6837 35.7662 34.4815 35.8709 34.5826Z" fill="#90C6DE"/>
<path id="Vector_22" d="M36.6035 35.1892C36.6035 35.2397 36.7604 35.5936 36.8129 35.5936C37.0748 35.5432 36.6557 35.1892 36.6035 35.1892C36.6557 35.1892 36.6035 35.2903 36.6035 35.1892Z" fill="#90C6DE"/>
<path id="Vector_23" d="M38.751 36.6043C38.751 36.7053 38.8032 36.8064 38.9079 36.8064C38.8557 36.7053 38.9079 36.7053 38.751 36.6043C38.8557 36.6547 38.751 36.6547 38.751 36.6043Z" fill="#90C6DE"/>
<path id="Vector_24" d="M38.2783 36.4532C38.2783 36.6553 38.5402 36.6047 38.6449 36.6047C38.5402 36.4532 38.4355 36.4025 38.2783 36.4532C38.4355 36.4532 38.2783 36.5543 38.2783 36.4532Z" fill="#90C6DE"/>
<path id="Vector_25" d="M38.332 35.9982C38.332 36.0993 38.5414 36.3521 38.6461 36.3521C38.5939 36.2004 38.489 36.0993 38.332 35.9982Z" fill="#90C6DE"/>
<path id="Vector_26" d="M37.6504 35.7952C37.7029 35.8963 37.8598 36.048 38.0694 35.9974C38.0169 35.8458 37.7551 35.7952 37.6504 35.7952Z" fill="#90C6DE"/>
<path id="Vector_27" d="M37.127 35.4923C37.1792 35.5427 37.2316 35.5934 37.3888 35.6438C37.3363 35.5934 37.2316 35.5427 37.127 35.4923Z" fill="#90C6DE"/>
<path id="Vector_28" d="M29.0114 37.1609C29.0636 37.1104 29.1683 37.1609 29.116 37.0093C28.9589 37.0093 28.802 37.0093 28.6973 37.0598C28.802 37.1104 28.9067 37.1609 29.0114 37.1609Z" fill="#90C6DE"/>
<path id="Vector_29" d="M35.8701 41.3052C35.6082 41.0526 35.2417 40.5469 35.0323 40.4965C34.7704 40.4458 34.8229 40.0415 34.6657 39.8897C34.4564 39.6876 34.0376 39.6369 33.9329 39.3337C33.8282 39.0808 33.671 38.1711 33.4616 38.0193C33.2522 37.9182 33.0426 37.9687 32.9904 37.7161C32.9379 37.3621 32.781 37.1093 32.7285 36.8061C32.205 37.0589 32.4667 37.7161 32.4144 38.1204C32.362 38.3732 32.362 38.7776 32.1003 38.9293C31.8907 39.0808 31.4719 38.6765 31.2625 38.5754C30.6341 38.3732 30.4247 38.2215 30.5294 37.615C30.5294 37.5643 31.0531 37.16 30.5819 37.16C30.0582 37.16 29.7966 37.16 29.2728 36.9576C29.3253 37.0589 29.3775 37.16 29.4822 37.2104C29.2206 37.2611 28.9063 37.3115 28.6969 37.4126C28.435 37.5643 28.54 37.9687 28.435 38.1711C28.2781 38.1204 28.1734 37.9687 28.0162 38.2215C27.964 37.7665 27.6497 37.8171 27.3356 37.9687C27.0215 38.1204 26.9168 38.6765 26.6025 38.5247C26.6025 38.6765 26.5503 38.7776 26.4978 38.8787C26.2362 38.4237 26.1837 39.2832 25.8696 39.4854C25.3459 39.7887 24.8224 39.738 24.2465 39.9404C23.9846 40.0415 23.8275 40.3952 23.5134 40.4458C23.5134 40.193 23.3564 40.4458 23.3564 40.5469C23.3564 40.7491 23.5658 41.7098 23.5134 41.8108C23.1468 41.4569 23.6705 42.5184 23.7228 42.6702C23.8799 43.1756 24.2987 43.7824 23.9324 44.2374C23.6181 44.5913 24.613 44.7934 24.8747 44.6924C25.5553 44.4902 25.9218 44.3891 26.655 44.2878C26.7597 43.7317 27.5975 43.8834 28.0162 43.7317C28.54 43.5802 28.8016 43.4284 29.43 43.5802C30.0059 43.7317 30.0059 43.9845 30.32 44.3891C30.6866 44.8439 30.8437 44.2374 31.1578 43.8834C31.1578 44.0856 31.1054 44.5913 30.8438 44.6417C30.8438 44.8945 31.2625 44.5913 31.2625 44.3891C31.4197 44.5406 31.3672 44.6417 31.3148 44.8439C31.4197 44.7934 31.5244 44.8439 31.6813 44.7934C31.6813 45.0967 31.8907 45.6024 32.1526 45.7539C32.362 45.855 32.5716 45.956 32.781 46.0067C33.1475 46.0574 33.1475 45.8045 33.4092 45.8045C33.5139 46.411 34.9801 45.6024 35.0848 45.3495C35.0848 44.5913 35.9748 44.0352 35.9748 43.3274C36.027 42.6195 36.2367 42.0634 35.8701 41.3052Z" fill="#90C6DE"/>
<path id="Vector_30" d="M43.9339 39.0813C43.8815 38.8791 43.5674 38.7273 43.5674 39.0813C43.5674 39.1823 43.8815 39.1319 43.9339 39.0813Z" fill="#90C6DE"/>
<path id="Vector_31" d="M27.2836 30.4872C27.2313 30.5885 26.9695 31.195 26.8125 30.8918C26.6029 30.4368 26.0794 31.5489 26.3413 31.5489C26.446 31.5489 26.446 31.195 26.5507 31.1444C26.7601 31.2961 26.9172 30.9929 26.9172 31.3468C26.9172 31.5489 27.1789 31.7511 27.336 31.7511C27.4932 31.7511 27.336 31.3972 27.4407 31.2961C27.4932 31.3972 27.4932 31.3972 27.4932 31.3468C27.4932 31.4479 27.5454 31.4983 27.5979 31.5489C27.5454 31.3972 27.8073 30.4872 27.2836 30.4872C27.336 30.4872 27.2836 30.5379 27.2836 30.4872Z" fill="#90C6DE"/>
<path id="Vector_32" d="M24.9268 30.841C25.2411 30.7904 25.398 30.4365 25.6599 30.285C25.6076 30.2343 25.5552 30.1839 25.5552 30.1332C25.3458 30.285 24.9792 30.6386 24.9268 30.841Z" fill="#90C6DE"/>
<path id="Vector_33" d="M25.4512 28.9202C25.4512 29.1223 25.7128 29.0719 25.8177 29.0212C25.7653 29.1223 25.7128 29.2234 25.8177 29.3245L26.3937 29.5267C26.3412 29.4762 26.3412 29.4256 26.3937 29.3245L26.8125 29.6784C27.0219 29.6784 26.6553 29.3752 26.6553 29.4256C26.6553 29.3752 26.7078 29.3752 26.7078 29.3245C26.6031 29.3245 26.2365 29.0719 26.2365 29.2741C25.9224 29.1223 25.9747 28.8191 26.1318 28.5662C26.2887 28.3134 26.0271 28.1112 26.0271 27.8584C25.7653 27.9597 25.9224 27.808 25.7128 27.7573C25.6081 27.808 25.4512 28.7684 25.4512 28.9202C25.4512 28.9706 25.4512 28.7684 25.4512 28.9202Z" fill="#90C6DE"/>
<path id="Vector_34" d="M27.1793 29.7286C27.0746 29.6779 26.9699 29.6779 26.8652 29.7286C26.9699 29.779 27.0222 29.8801 27.1271 29.9814C27.0746 30.0318 27.0222 30.0825 26.9175 30.0318C26.9699 30.1836 27.0746 30.3858 27.1793 30.3858C27.1271 30.3351 27.0746 30.1836 27.0746 30.1329C27.4412 30.1329 27.1793 29.9308 27.1793 29.7286C27.1793 29.779 27.0746 29.7286 27.1793 29.7286Z" fill="#90C6DE"/>
<path id="Vector_35" d="M26.2888 29.9316C26.1316 29.7799 26.2363 30.3866 26.2363 30.3866C26.4982 30.1845 26.6553 30.0834 26.2888 29.9316C26.3935 29.9316 26.2888 29.881 26.2888 29.9316Z" fill="#90C6DE"/>
<path id="Vector_36" d="M26.6028 30.1838C26.184 30.2345 26.7075 30.841 26.7075 30.6893C26.655 30.5882 26.8122 30.1332 26.6028 30.1838C26.7075 30.1838 26.5503 30.1838 26.6028 30.1838Z" fill="#90C6DE"/>
<path id="Vector_37" d="M26.707 30.5382C26.7593 30.4875 26.9164 30.2853 26.9164 30.1842C26.707 30.1842 26.707 30.4368 26.707 30.5382Z" fill="#90C6DE"/>
<path id="Vector_38" d="M27.0222 30.4368C26.9175 30.3864 26.8126 30.4368 26.8126 30.5886C26.7603 30.6897 27.0222 30.5379 27.0222 30.4368C27.0222 30.5379 26.9697 30.4875 27.0222 30.4368Z" fill="#90C6DE"/>
<path id="Vector_39" d="M26.8126 29.9309C26.8126 29.7792 26.6555 29.6781 26.5508 29.6781C26.5508 29.9309 26.8126 29.7792 26.8126 29.9309C26.8126 29.9814 26.8126 29.7792 26.8126 29.9309Z" fill="#90C6DE"/>
<path id="Vector_40" d="M25.9745 29.7293C26.1841 29.7293 25.8698 29.3754 25.7129 29.3754C25.7651 29.4764 25.8698 29.7293 25.9745 29.7293C26.027 29.7293 25.9223 29.7293 25.9745 29.7293Z" fill="#90C6DE"/>
<path id="Vector_41" d="M26.0801 29.4762H26.1831C26.1831 29.4263 26.1317 29.4263 26.0801 29.4762Z" fill="#90C6DE"/>
<path id="Vector_42" d="M25.9233 25.5843C25.4521 25.5843 25.5046 26.7469 25.8187 26.4943C25.9233 26.393 26.2899 25.5843 25.9233 25.5843Z" fill="#90C6DE"/>
<path id="Vector_43" d="M22.676 27.4034C22.676 26.9989 21.8906 27.5045 21.8906 27.5549C21.9953 28.0606 22.676 27.8078 22.676 27.4034Z" fill="#90C6DE"/>
<path id="Vector_44" d="M21.1049 34.1775C21.1574 34.3293 21.2621 34.3797 21.419 34.3797C21.3668 34.2786 20.8955 33.6721 20.8955 34.0258C20.948 34.1269 21.0002 34.1775 21.1049 34.1775C21.1049 34.2282 21.0527 34.1269 21.1049 34.1775Z" fill="#90C6DE"/>
<path id="Vector_45" d="M21.7863 34.4815C21.8388 34.4815 21.891 34.4308 21.891 34.3298C21.7863 34.2793 21.7863 34.2793 21.6816 34.2793C21.6816 34.2793 21.6816 34.4815 21.7863 34.4815Z" fill="#90C6DE"/>
<path id="Vector_46" d="M18.9591 33.8242C18.9591 33.8242 18.7495 34.0768 19.0638 34.1275C19.0638 34.0264 19.0113 33.8746 18.9591 33.8242Z" fill="#90C6DE"/>
<path id="Vector_47" d="M18.4873 33.1664C18.4873 33.1157 18.4873 33.4192 18.6445 33.4192C18.7492 33.4192 18.5398 33.1664 18.4873 33.1664Z" fill="#90C6DE"/>
<path id="Vector_48" d="M28.5928 22.9549C28.5928 23.1066 28.8546 23.1066 28.8546 22.9549C28.9069 23.1571 28.7499 23.5616 28.9593 23.511C28.9593 23.5616 28.9593 23.5616 29.0116 23.6121C29.2734 23.6121 29.3781 23.0055 29.2734 22.9045C29.2734 22.9045 28.5928 22.4999 28.5928 22.9549Z" fill="#90C6DE"/>
<path id="Vector_49" d="M29.5876 23.0562C29.6923 23.0562 30.4254 22.5002 30.0066 22.5002C29.7448 22.5002 29.2735 23.0562 29.5876 23.0562Z" fill="#90C6DE"/>
<path id="Vector_50" d="M30.7905 21.7422C30.6334 21.7422 30.6334 22.0959 30.424 22.0959C30.3193 22.1465 30.0574 22.0959 29.9527 22.0959C29.7433 22.0959 28.958 22.3487 28.958 22.6015C28.958 22.7026 29.9005 22.5509 29.9527 22.3994C30.2146 22.0455 30.3193 22.8037 30.4765 22.8544C30.5812 22.652 30.6858 22.6015 30.843 22.5509C30.7905 22.5509 30.6334 22.2983 30.7905 22.2983C30.9477 22.2983 30.9999 22.6015 31.2093 22.4498C31.419 22.2983 31.3143 22.3994 31.4712 22.3994C31.5237 22.2476 31.6283 22.1972 31.7853 22.1465C31.733 22.1972 31.733 22.2476 31.7853 22.2983C32.2565 22.1465 31.8902 21.1861 32.2043 21.085C32.5184 20.9837 32.4662 20.0233 32.1518 20.0233C32.0996 20.0233 32.1518 20.1244 32.2043 20.1244C31.9949 20.2761 31.8377 20.175 31.8377 20.63C31.8377 20.9333 31.6283 21.2365 31.3665 21.3883C31.3143 21.4387 30.6334 21.7422 30.8952 21.4387C30.9477 21.4894 30.8952 21.7422 30.7905 21.7422Z" fill="#90C6DE"/>
<path id="Vector_51" d="M32.049 19.366C31.9443 19.6188 31.8396 19.6695 31.8918 19.9727C31.9965 19.9727 32.1537 19.9221 32.2061 19.821C31.9443 19.5177 32.1012 19.6188 32.4155 19.5177C32.6249 19.6695 32.8343 19.8717 32.9915 19.6188C33.1484 19.366 33.4102 19.4671 33.6196 19.3156C33.4627 19.2649 33.5149 19.1638 33.5674 19.0627C33.4627 19.0121 33.2009 19.0627 33.0962 19.0627C32.8343 18.9617 32.6771 18.7088 32.4677 18.5573C32.3108 18.8099 32.5202 19.3156 32.1012 19.366C31.8918 19.1638 32.1537 19.366 32.049 19.366Z" fill="#90C6DE"/>
<path id="Vector_52" d="M33.671 19.063C33.5138 19.2652 33.9329 18.962 33.9329 18.9113C33.8282 18.8609 33.7235 18.962 33.671 19.063C33.7235 18.962 33.6185 19.063 33.671 19.063Z" fill="#90C6DE"/>
<path id="Vector_53" d="M34.5087 18.5062C34.404 18.5062 34.2471 18.8095 34.2471 18.8095C34.404 18.8095 34.4565 18.6073 34.6659 18.6073V18.5567C34.6134 18.5062 34.5612 18.5062 34.5087 18.5062Z" fill="#90C6DE"/>
<path id="Vector_54" d="M35.0311 18.4054C35.1358 18.3548 35.1883 18.3043 35.2405 18.2033C35.0836 18.1526 34.9789 18.4054 35.0311 18.4054Z" fill="#90C6DE"/>
<path id="Vector_55" d="M32.9387 15.423C32.8862 15.2713 32.834 15.1198 32.7815 14.9174H32.7293C32.7815 15.2209 32.5196 15.3219 32.4674 15.5748C32.4149 15.878 32.6246 16.1309 32.6246 16.4341C32.6246 16.6363 32.5721 18.2539 32.5721 18.2539C32.834 18.2539 32.7815 17.8495 33.0956 18.1024C32.9387 17.7991 32.7293 17.6978 32.7815 17.3441C32.834 17.0406 33.0956 16.7374 33.3574 17.0913C33.3052 16.788 33.0956 16.5352 32.9909 16.2319C32.8862 15.9791 32.9909 15.6759 32.9387 15.423C32.9387 15.5748 32.8862 15.2713 32.9387 15.423Z" fill="#90C6DE"/>
<path id="Vector_56" d="M4.08822 6.72774C4.61182 6.57606 4.45475 7.08161 4.87361 7.08161C5.1354 7.08161 5.50193 7.13215 5.81609 7.13215C5.55428 6.57606 4.92598 6.67717 5.29249 5.86833C5.60665 5.21113 6.23494 4.95837 6.81089 4.6045C7.28212 4.30117 7.80572 4.25063 8.32929 4.04841C8.48636 3.99785 9.84771 3.74509 9.37646 3.39122C8.85289 2.98678 8.27694 3.54287 7.85806 3.74509C7.28212 3.99785 6.81089 3.64398 6.23494 4.04841C6.0255 4.20007 5.08305 4.50339 5.18777 4.65504C5.34484 4.85726 5.03068 5.05948 4.87361 5.16059C4.5071 5.41335 4.82126 5.36278 4.82126 5.61556C4.40238 5.71667 3.617 6.47495 4.08822 6.72774Z" fill="#90C6DE"/>
<path id="Vector_57" d="M5.76367 7.1324C5.76367 7.18063 5.81736 7.22889 5.76367 7.1324V7.1324Z" fill="#90C6DE"/>
<path id="Vector_58" d="M45.3471 8.39521C44.2999 7.83913 42.9386 7.18193 41.6821 7.38415C41.3155 7.43471 41.5774 8.09191 41.4202 8.04134C41.2108 7.94023 41.0014 7.58637 40.7396 7.58637C40.1111 7.58637 39.4305 7.53582 38.8023 7.53582C38.6452 7.53582 38.3311 7.58637 38.1739 7.53582C38.017 6.92917 37.4933 6.77752 36.9173 6.77752C36.4461 6.77752 35.8179 7.03028 35.5036 6.5753C35.1895 6.12032 34.7182 6.06976 34.1947 5.96867C33.6188 5.86756 32.8857 5.71589 32.3097 5.91811C32.1003 5.96867 31.7338 6.67641 31.7338 6.67641C31.2103 6.67641 30.5297 6.77752 30.006 6.67641C29.7966 6.67641 29.6919 6.52476 29.4825 6.47419C29.1159 6.32254 29.2728 6.62584 29.1159 6.82806C28.8018 7.33361 28.3306 6.32254 28.3306 6.06976C28.3306 5.86756 28.6969 5.76645 28.3306 5.56424C27.9116 5.36202 27.3881 5.31148 26.9691 5.31148C26.4456 5.26091 26.7074 5.71589 26.1837 5.71589C25.5031 5.71589 24.9796 5.66535 24.299 5.56424C23.8799 5.51367 23.4611 5.41259 23.0946 5.26091C22.9899 5.21037 22.8327 5.1598 22.7805 5.05869C22.5187 5.26091 22.2568 5.51367 21.9427 5.66535C21.6286 5.817 21.5761 5.56424 21.7858 5.41259C22.3093 5.05869 23.0424 4.90704 23.5136 4.45206C24.0893 3.94652 22.9377 3.59265 22.5711 3.59265C22.2568 3.59265 21.9427 3.59265 21.5761 3.59265C21.2096 3.59265 21.1049 2.98602 20.5814 2.98602C20.5289 2.98602 17.7542 4.55317 17.9635 3.84543C17.1782 4.0982 16.3926 4.0982 15.6598 4.45206C15.2407 4.65428 15.2407 4.95761 14.9266 5.26091C14.7173 5.46313 14.0888 5.31148 13.8794 5.31148C13.6176 5.31148 13.1988 5.36202 13.0941 5.66535C12.9369 5.96867 13.4607 6.37308 12.8847 6.32254C12.6229 6.27197 12.361 6.27197 12.1516 6.27197C12.0994 6.37308 11.8897 6.67641 11.6804 6.62584C11.4187 6.5753 11.5234 6.12032 11.3663 5.96867C11.3138 6.27198 11.0522 6.47419 10.7903 6.62584C10.895 6.92917 11.3663 7.2325 10.9997 7.58637C10.8428 7.73802 11.3663 8.79965 10.9997 8.59743C10.5809 8.34467 10.5809 7.48526 10.5285 7.08084C10.5285 6.87863 10.7379 6.17087 10.6332 6.12032C10.005 5.76645 9.27188 6.22143 8.90542 6.72695C8.43419 7.43471 9.32434 7.78858 9.42904 8.39521C9.48127 8.64797 8.43419 8.09191 8.32947 8.04134C8.06768 7.88969 7.02051 7.48526 6.81107 7.78858C6.75872 7.88969 7.02048 8.54689 6.65398 8.44578C6.49691 8.39521 6.39219 8.19299 6.23512 8.19299C5.86862 8.19299 5.50208 8.44578 5.13558 8.44578C4.55963 8.49632 4.45491 8.09191 3.82662 8.39521C3.35539 8.64797 2.93653 9.00186 2.41294 9.15352C1.83699 9.30517 2.2035 8.49632 1.99406 8.2941C1.88934 8.14245 1.73227 8.44578 1.6799 8.49632C1.41811 8.9513 1.62755 9.00187 1.62755 9.35573C1.62755 9.76015 0.789816 9.35573 0.580376 9.76014C0.318588 10.3162 -0.0479431 10.4173 -0.676237 10.1646C-0.62389 10.3162 -0.728586 10.4679 -0.676237 10.569C-1.30453 10.5185 -1.19984 9.91182 -1.46162 9.55795C-0.938025 9.55795 -0.204987 9.81071 0.318588 9.60849C0.842188 9.40628 0.789816 9.00186 0.318588 8.69854C-0.362078 8.34467 -1.14746 8.09191 -1.88048 7.83913C-2.35171 7.68747 -2.8753 7.78858 -3.24181 7.48526C-3.03237 7.43471 -2.87528 7.48526 -2.82293 7.2325C-3.03237 7.13139 -3.24181 6.92917 -3.39888 7.2325C-3.5036 7.18193 -3.55597 7.08082 -3.5036 6.97974C-3.81776 7.18193 -3.81776 7.38415 -3.97483 7.08084C-4.13192 7.18193 -4.23661 7.43471 -4.44605 7.38415C-4.34133 7.28304 -4.28899 7.18193 -4.23661 7.03028C-4.23661 7.18193 -5.28379 6.97974 -5.28379 7.18193C-5.28379 7.28304 -5.17909 7.28304 -5.12672 7.3336C-5.33616 7.43471 -5.5456 7.38415 -5.65032 7.63691C-5.65032 7.58637 -5.65032 7.53582 -5.65032 7.43471C-5.85976 7.43471 -5.85973 7.68747 -6.06917 7.73802C-6.06917 7.68747 -6.06917 7.63691 -6.06917 7.58637C-6.22626 7.58637 -6.38333 7.63691 -6.5404 7.73802C-6.48805 7.78858 -6.48805 7.78858 -6.4357 7.83913C-6.64514 7.94023 -6.74984 7.78858 -6.90693 8.04134C-6.85456 8.04134 -6.80219 8.04134 -6.74984 8.04134C-7.11635 8.24356 -7.01163 8.39521 -7.32579 7.9908C-7.43051 8.09191 -7.63995 8.09191 -7.69229 8.2941C-7.63995 8.2941 -7.58757 8.34467 -7.53523 8.34467C-7.63995 8.39521 -7.69232 8.44578 -7.74467 8.49632C-7.48288 8.49632 -7.32579 8.34467 -7.064 8.2941C-7.22107 8.90076 -8.00645 9.00187 -8.21589 9.55795C-8.47768 10.0635 -8.84419 10.7207 -9.47251 10.8723C-9.36779 10.8723 -9.31541 10.9229 -9.21069 10.9229C-9.57723 10.8723 -10.1532 11.3273 -10.3626 11.5801C-10.5197 11.8328 -10.6244 11.6812 -10.572 12.1362C-10.572 12.2878 -10.5197 12.49 -10.4149 12.5911C-10.5197 12.6923 -10.572 12.7428 -10.572 12.8439C-10.4673 12.7934 -10.3626 12.7934 -10.2579 12.7934C-10.3626 13.0461 -10.5197 13.0967 -10.2055 13.2989C-9.68192 13.6022 -9.15835 13.1472 -8.89656 12.6923C-8.5824 13.0967 -8.42533 13.7539 -8.26824 14.2593C-8.16354 14.5628 -8.05882 14.8154 -7.74467 14.5122C-7.53523 14.2593 -7.32579 14.3604 -7.11635 14.1582C-6.69749 13.8043 -7.11635 13.8043 -7.01163 13.4C-6.90691 13.0461 -6.27861 13.0461 -6.27861 12.6923C-6.27861 12.2878 -6.85456 12.3889 -6.85456 11.9845C-6.85456 11.6812 -6.69749 11.3273 -6.38333 11.1756C-6.12154 11.024 -5.70267 10.8723 -5.49323 10.6196C-5.33616 10.3668 -5.5456 10.0635 -5.23144 9.91182C-4.96965 9.76015 -4.39371 9.7096 -4.18427 9.96236C-3.92248 10.2657 -4.65549 10.5185 -4.81258 10.7207C-5.022 10.9734 -5.5456 11.1251 -5.5456 11.4284C-5.5456 11.5295 -5.49323 11.7823 -5.33616 11.8328C-5.44088 11.9845 -5.59795 12.0351 -5.44088 12.2878C-5.23144 12.5406 -4.76021 12.6417 -4.44605 12.5406C-4.18427 12.49 -3.39888 12.49 -3.24181 12.2373C-3.13709 12.3384 -3.03237 12.49 -2.98002 12.5911C-3.5036 12.945 -3.97483 12.6417 -4.49842 12.8439C-5.23144 13.1472 -4.0272 13.6022 -4.55077 13.8043C-4.96965 13.9561 -5.07435 13.1978 -5.44088 13.9054C-5.65029 14.4111 -5.65032 15.0176 -6.33099 15.0176C-6.33099 14.4111 -8.00645 15.7254 -7.90173 15.0176C-8.26824 14.9672 -9.15835 15.4726 -9.15835 14.765C-9.15835 14.4615 -8.79184 14.4111 -8.79184 14.2089C-8.79184 14.1078 -9.00128 13.9561 -8.94891 13.6528C-9.21069 13.855 -9.68192 13.9054 -9.68192 14.31C-9.68192 14.6132 -9.36776 14.9165 -9.36776 15.22C-9.36776 15.4222 -10.415 15.5233 -10.5197 15.675C-10.9385 16.0287 -10.8338 16.5343 -11.5669 16.5343C-11.7239 17.0398 -12.2475 17.2926 -12.6664 17.0398C-12.614 17.1915 -12.5617 17.3937 -12.7187 17.4443C-12.7187 17.4443 -13.9754 17.3937 -13.5041 17.6969C-13.347 17.798 -13.0853 17.8487 -12.9282 17.8993C-12.7187 17.9498 -12.8235 18.1519 -12.6664 18.3037C-12.4046 18.5059 -12.2999 18.8091 -12.5093 19.2137C-12.7187 19.618 -12.9805 19.4663 -13.4518 19.4663C-13.7136 19.4663 -14.2895 19.4663 -14.4989 19.3652C-15.1272 19.0619 -14.9178 20.1741 -14.9178 20.3259C-14.9702 20.5785 -15.1272 20.8819 -15.1272 21.1345C-15.1272 21.3369 -14.9702 21.2359 -14.9702 21.4885C-14.9702 22.0952 -14.5513 21.4885 -14.2371 21.7919C-14.0277 21.9941 -14.0801 22.2467 -13.7136 22.0952C-13.5041 21.9941 -13.19 21.8424 -12.9282 21.893C-12.7711 21.8424 -11.9857 21.2863 -12.1951 21.1345C-12.614 20.6798 -11.4098 20.2752 -11.305 20.1741C-11.0956 20.0224 -11.305 19.8202 -11.2527 19.7698C-11.2527 19.3148 -10.5197 19.618 -10.3102 19.618C-9.73429 19.618 -9.36779 18.708 -8.89656 19.4663C-8.63475 19.9213 -8.21589 20.2248 -7.74467 20.4269C-7.5876 20.4774 -6.80221 21.3874 -7.37816 21.3874C-7.37816 21.6402 -6.85456 21.0841 -6.85456 21.0841C-6.85456 20.9324 -7.22107 20.7809 -6.95928 20.6291C-6.74984 20.4774 -6.59277 20.7302 -6.4357 20.7302C-6.38333 20.2752 -7.16872 20.4269 -7.16872 20.0224C-7.90173 20.0224 -7.58757 19.4663 -8.11117 19.3148C-8.68712 19.1126 -8.21589 18.708 -8.00645 18.6069C-7.95411 18.6576 -8.00645 18.9102 -7.84936 18.9102C-7.53523 19.0619 -7.63995 18.708 -7.48288 19.1126C-7.32579 19.4663 -6.80219 19.618 -6.5404 19.7698C-6.01683 20.0224 -6.01683 21.4885 -5.33616 21.3874C-5.49323 21.6402 -5.38851 21.9435 -4.96965 21.893C-5.022 21.8424 -5.022 21.438 -5.022 21.3874C-4.86493 21.5391 -4.70786 21.5895 -4.49842 21.4885C-4.70786 21.2863 -4.81256 21.0335 -4.91728 20.8819C-5.28379 20.4774 -4.86493 20.7302 -4.65549 20.7302C-4.4984 20.0224 -3.60832 20.7809 -3.08472 20.2752C-3.18944 20.1237 -3.45125 20.0224 -3.45125 19.8202C-3.45125 19.5676 -3.13709 19.4663 -3.13709 19.2641C-3.13709 18.8598 -2.87531 18.6576 -2.66586 18.4554C-1.9852 17.7476 -1.61869 19.8202 -0.676237 18.708C-1.77576 18.708 -0.414427 18.1519 -0.0479202 18.0004C-0.466799 18.2026 0.0568008 18.5565 -0.571518 18.708C-0.466799 18.9102 1.31341 19.8709 1.0516 20.073C0.894535 20.1237 -0.676237 20.6291 -0.676237 20.1237C-1.09512 20.1237 -1.40925 19.8202 -1.88048 20.073C-1.93285 20.1237 -2.92765 20.3763 -2.92765 20.3259C-2.92765 20.3763 -2.87528 20.4269 -2.82293 20.4774C-3.08472 20.6291 -3.55597 20.4774 -3.76541 20.7302C-3.92248 20.8819 -3.45123 20.9324 -3.87011 21.3369C-3.76539 21.3874 -3.08474 21.893 -3.29418 21.9435C-3.08474 21.893 -2.98 21.9435 -2.82293 22.0445C-2.50877 22.2974 -2.5088 21.893 -2.24701 21.893C-1.93285 21.893 -1.82813 22.2974 -1.46162 22.0952C-1.14746 21.9941 -1.04274 21.9435 -0.728584 21.8424C-0.833305 22.0952 -0.623865 22.4491 -0.833305 22.7017C-1.04274 23.0052 -1.35688 23.5106 -1.25216 23.8645C-1.25216 23.8645 -2.03757 23.7128 -2.19464 23.7128C-2.87531 23.7128 -3.24181 23.915 -3.97483 23.6624C-4.23661 23.5613 -4.96965 23.5613 -4.96965 23.2074C-5.28379 23.1567 -5.85976 23.2578 -5.85976 23.6117C-6.06917 23.8645 -5.96445 24.1678 -6.5404 23.8645C-6.95928 23.6624 -7.22107 23.2578 -7.63995 23.1567C-8.00645 23.0556 -8.32059 23.2578 -8.5824 22.8535C-8.79181 22.5502 -8.53005 21.9941 -8.47768 21.6906C-8.73947 21.7413 -8.94891 21.438 -9.21069 21.6402C-9.31541 21.7413 -10.1008 21.7919 -10.2579 21.7919C-10.6767 21.7919 -10.9386 21.6906 -11.4098 21.8424C-11.8286 21.9435 -12.4046 22.3985 -12.8235 22.3985C-13.1376 22.3985 -13.7659 22.0445 -13.8706 22.2467C-14.0801 22.5502 -14.3942 22.8535 -14.656 23.1567C-15.0225 23.5613 -14.9178 23.7635 -15.0749 24.2689C-15.232 24.825 -15.9126 24.6735 -16.2268 25.0271C-16.698 25.6843 -17.431 26.645 -17.1692 27.4539C-17.0122 27.9087 -17.0121 28.3132 -17.2739 28.7176C-17.431 28.9704 -17.5881 28.9197 -17.431 29.2232C-17.3787 29.3243 -17.3263 29.6276 -17.3263 29.7287C-17.1169 30.133 -16.4362 30.5376 -16.1221 31.043C-15.7032 31.7508 -14.7607 32.4587 -13.923 32.1552C-13.4518 32.0037 -13.19 32.2058 -12.7187 32.2058C-12.4046 32.2058 -11.881 31.8519 -11.5669 31.7508C-10.6244 31.4476 -10.5197 32.2563 -9.68192 32.2563C-9.31541 32.2563 -9.05363 32.408 -8.89656 32.7113C-9.00125 32.8124 -9.05363 33.2674 -9.00128 33.4191C-9.89136 33.9245 -8.26824 34.9863 -8.21589 35.4917C-8.11117 36.0984 -7.48285 36.9578 -7.84936 37.5645C-8.00645 37.8678 -8.32061 38.07 -8.42533 38.4239C-8.5824 38.98 -8.26824 39.5865 -7.95411 40.0415C-7.48288 40.8 -7.58757 41.6087 -7.11635 42.4176C-6.90691 42.7715 -6.69749 43.1254 -6.4357 43.4287C-6.33099 43.5802 -6.22626 43.7319 -6.33099 43.8837C-6.48805 44.1869 -6.22624 44.1869 -6.22624 44.5408C-6.01683 44.4397 -5.85973 44.743 -5.5456 44.6923C-5.23144 44.5913 -4.81256 44.288 -4.44605 44.4397C-3.92248 44.743 -3.03237 43.9341 -2.77059 43.5804C-2.61352 43.3276 -1.56632 42.1647 -1.77576 41.9121C-1.9852 41.6087 -1.51397 41.3054 -1.14746 41.3054C-0.833305 41.3054 -0.833305 40.5976 -0.938025 40.3954C-1.04274 40.1426 -1.3569 39.9404 -1.09509 39.6876C-0.885677 39.4854 -0.728586 39.2328 -0.466799 39.0811C-0.204987 38.9293 1.20867 38.4239 0.632723 37.9182C0.632723 37.5645 0.842188 36.8567 0.580376 36.5535C0.318588 36.25 0.318588 35.9467 0.266239 35.5424C0.213867 35.0367 0.475657 35.0367 0.632723 34.6324C0.842163 33.8234 1.57518 33.5202 2.2035 33.1158C2.93651 32.6102 3.51246 31.6498 3.87899 30.8915C4.03605 30.588 4.19312 30.1837 4.03605 29.8804C3.56483 29.9815 3.0936 30.2343 2.57 30.1837C2.09878 30.133 2.0464 30.588 1.6799 30.0826C1.52283 29.9815 1.47048 29.8804 1.5752 29.7793C1.47048 29.4758 1.41811 29.6276 1.20867 29.4254C0.999254 29.1726 0.946882 29.0208 0.632723 28.8693C0.161497 28.6165 0.370935 28.1111 -0.0479202 27.8076C-0.36208 27.6054 -0.362078 27.4539 -0.362078 27.1C-0.362078 26.7965 -0.571518 26.6954 -0.728584 26.4428C-0.938025 26.0382 -1.09509 25.6339 -1.3569 25.1789C-1.51397 24.8756 -1.93285 24.4711 -1.88048 24.1174C-1.67104 24.3195 -1.56632 24.7745 -1.25216 24.825C-1.19981 24.6228 -1.09509 24.4711 -1.04275 24.2689C-1.09509 24.6228 -0.519146 25.9372 -0.204987 25.9878C0.0568008 25.9878 0.266239 26.4428 0.266239 26.645C0.266239 27.2011 0.632748 27.2011 0.789816 27.555C0.946882 27.8582 1.26104 28.0604 1.41811 28.3637C1.52283 28.6165 1.41811 28.8693 1.52283 29.1726C1.83699 29.9815 2.04643 29.4254 2.62237 29.4254C2.93653 29.4254 4.40256 28.8187 4.40256 28.6672C4.40256 28.4143 5.03088 28.3132 5.18795 28.3132C5.39739 28.2626 5.7639 27.9593 5.86859 27.7572C5.97331 27.6054 7.02048 26.645 6.70635 26.5439C6.49691 26.4428 6.44454 26.2404 6.1304 26.1393C5.7639 25.9878 5.6068 25.735 5.65917 25.3306C5.34501 25.5832 5.18795 25.9372 4.71672 26.0382C3.93134 26.19 4.14077 25.8361 4.03605 25.3811C3.98368 25.4317 3.87896 25.5328 3.82662 25.5832C3.77427 25.2295 3.35539 25.0778 3.19832 24.7239C2.88416 24.0667 3.46011 23.7128 3.87899 24.3195C4.14077 24.6735 4.40256 25.0271 4.87379 25.1789C5.2403 25.28 5.39739 25.0271 5.65917 25.0271C5.92096 25.0271 5.86862 25.3306 6.02568 25.4317C6.1304 25.5328 6.49691 25.5328 6.65398 25.5328C7.07285 25.5832 7.43936 25.6339 7.85824 25.6339C7.96296 25.5328 8.74835 25.5328 8.85304 25.5832C9.01014 25.6339 9.06248 25.8867 9.16718 25.9878C9.37657 26.3417 9.74313 26.2911 10.0572 26.3922C9.90029 26.5439 9.79559 26.4932 9.63843 26.5943C9.79559 26.7461 10.1097 27.3022 10.4762 27.0493C10.6332 26.8978 10.6332 26.6954 10.8428 26.5943C10.8428 27.5043 10.9475 28.4648 11.5234 29.3243C11.8897 29.8804 12.2563 31.8519 12.8847 30.4365C12.9369 30.3354 13.1466 30.3354 13.1466 30.2848C13.1988 30.133 13.0941 29.9815 13.1466 29.8298C13.2513 29.4758 13.1466 29.2737 13.1466 28.9197C13.1466 28.6672 13.6701 28.5154 13.8794 28.3637C14.3507 27.9593 15.1885 27.5043 15.3454 26.9482C15.5551 26.4428 16.5498 27.1 16.5498 26.3922C17.021 26.4932 16.8639 26.7461 17.0733 27.0493C17.2829 27.4032 17.597 27.555 17.7542 27.9593C17.8064 28.1615 17.7017 28.4143 17.8064 28.6165C18.0158 29.0208 18.4348 28.2626 18.5395 28.2122C19.1677 28.8187 19.0107 30.0319 19.0107 30.8408C19.0107 30.9926 19.1677 30.8408 19.2724 30.9926C19.4818 31.2452 19.5867 31.7002 19.6389 31.953C19.7961 32.5598 20.2673 33.1158 20.8955 33.0652C20.5814 32.408 20.6861 31.8519 20.0055 31.498C19.6389 31.2958 19.063 30.4365 19.3771 30.0826C19.5867 29.8298 19.4295 29.6782 19.4818 29.4254C19.5342 29.2737 20.0579 29.7287 20.1626 29.7287C20.5289 29.8298 20.5289 30.2848 20.8433 30.3354C21.1049 30.3858 21.0527 30.8915 21.1574 30.8915C21.3145 30.8915 21.4192 30.6387 21.4192 30.4869C21.4192 30.5376 21.4192 30.5376 21.4714 30.588C21.7333 30.588 22.414 29.8804 22.4664 29.6782C22.6758 29.0715 22.1521 28.6672 21.838 28.2626C21.5239 27.8582 21.0527 27.555 21.6286 27.1504C21.7855 27.0493 21.9952 26.9482 22.0999 26.7461C22.2568 26.7965 22.4664 26.8471 22.6233 26.8471C22.5711 26.9482 22.6233 27.0493 22.6758 27.1C22.7805 27.0493 22.7805 26.9482 22.8327 26.8978C22.9377 26.7965 23.3565 26.6954 23.5136 26.645C23.5658 26.645 23.8799 26.3417 23.8799 26.3417C24.1418 26.3417 24.1418 26.4932 24.4037 26.3922C25.2415 26.19 25.4509 25.3811 25.9221 24.825C26.498 24.1174 26.4456 23.5106 25.9743 22.7524C25.9221 22.6513 25.5555 22.2974 25.7649 22.1456C26.0268 21.9941 26.498 21.7413 26.7074 21.4885C26.6027 21.3874 26.3409 21.3874 26.1837 21.3369C25.9221 21.1345 26.0268 21.5391 25.8696 21.5391C25.7125 21.5391 25.1365 21.2359 25.1365 21.0335C25.1365 20.8819 25.9743 20.5785 26.079 20.3763C26.1837 20.2752 26.2362 20.1741 26.3931 20.3259C26.6027 20.528 26.2362 20.6798 26.2362 20.8819C26.498 20.8819 26.7074 20.6798 26.9168 20.6291C27.2309 20.528 27.2309 20.6798 27.5452 20.6798C27.3881 20.983 27.3356 21.2863 27.7022 21.2863C28.0687 21.2863 27.8593 22.1963 27.8593 22.4995C28.6447 22.4995 29.1159 21.8424 28.5922 21.1345C28.1734 20.6291 28.2259 20.6798 28.7494 20.2752C29.1681 19.9719 29.0635 19.4159 29.6394 19.5169C30.896 19.7191 31.1056 18.5565 31.8385 17.8487C32.2575 17.4443 32.3097 17.0398 32.3622 16.5343C32.4144 15.9783 32.8857 15.675 32.3622 15.1693C31.9432 14.765 31.7863 15.2704 31.315 15.1189C30.896 14.9672 30.8438 14.6132 31.1578 14.31C31.9957 13.5517 32.6763 12.7934 33.8804 12.6923C34.8229 12.5911 35.6083 12.7934 36.4985 12.7934C36.9173 12.7934 36.8651 12.2373 37.1267 11.9845C37.4933 11.6306 38.1739 11.6306 38.6452 11.6812C38.3311 11.9339 38.5929 12.2373 38.9592 11.9339C39.1689 11.7823 39.483 11.2262 39.7448 11.3273C40.1636 11.5295 39.5877 11.9339 39.4305 12.0351C39.0117 12.2878 38.8023 12.2373 38.488 12.6417C38.1739 13.0967 37.7027 13.2989 37.3886 13.7032C37.0745 14.1582 37.2314 15.7254 37.7027 16.0793C38.1217 15.4726 38.488 15.1189 38.907 14.6132C39.4305 14.0067 39.2736 13.2483 39.8495 12.5911C40.2683 12.1867 40.6871 12.1867 41.1583 12.4395C41.839 12.7428 42.6243 11.9845 43.0956 11.6306C43.3574 11.479 44.8234 11.2262 44.7187 10.9734C44.4571 10.5184 43.8811 10.3668 44.7712 10.0129C45.033 9.91182 45.033 9.45684 45.19 9.45684C45.609 9.45684 45.9231 9.76014 46.2372 10.0129C47.1797 10.7207 47.1272 9.86126 48.0175 9.55795C47.1797 8.90076 46.08 8.79965 45.3471 8.39521C45.9753 8.74908 44.5093 7.94023 45.3471 8.39521ZM-5.17907 17.2926C-5.022 17.4948 -5.23144 17.5454 -4.91728 17.5454C-5.12672 17.5454 -5.17907 17.4948 -5.17907 17.2926ZM-3.13709 9.05241C-3.13709 8.85019 -2.82293 8.648 -2.98002 8.44578C-3.08474 8.34467 -3.29418 8.2941 -3.29418 8.14245C-3.29418 8.34467 -2.92765 8.34467 -2.92765 8.54689C-2.98002 8.79965 -3.08472 8.9513 -3.13709 9.05241C-3.13709 9.25463 -2.92765 9.35573 -2.92765 9.60849C-2.92765 9.40628 -3.13709 9.30517 -3.13709 9.05241ZM3.72192 19.163C3.93134 19.4663 4.24549 19.6687 4.24549 20.073C4.55965 19.9213 4.82142 19.8709 4.82142 20.3259C4.71672 20.2752 4.45491 20.2752 4.35021 20.3763C4.14078 20.6291 4.66435 20.6798 4.66435 21.0335C4.66435 21.6402 4.76909 21.7413 3.98371 21.7413C3.66955 21.7413 3.66955 21.5391 3.46011 21.4885C2.98888 21.3874 3.30302 21.2359 2.98888 20.983C2.88416 20.8819 2.98888 20.5785 2.77944 20.6291C2.62237 20.6291 2.46528 20.8313 2.30821 20.8819C2.77944 20.8819 2.57003 20.4269 2.93653 20.7809C2.88416 20.8819 3.04123 20.8819 3.0936 20.8819C3.19832 20.7302 3.19832 20.4774 3.40776 20.3763C2.77944 20.073 2.25587 18.9102 2.62237 18.3541C2.72709 18.1519 3.40776 17.9498 3.61718 17.9498C4.24549 17.8487 4.50728 18.0509 4.87379 18.5059C4.66435 18.6576 4.0884 18.5059 3.77424 18.6576C3.30302 18.9102 3.56483 18.8598 3.72192 19.163C3.93134 19.5169 3.66955 19.0115 3.72192 19.163ZM5.03088 21.2863C3.6172 22.6513 6.654 19.7698 5.03088 21.2863V21.2863ZM6.81107 22.7524C6.81107 22.7017 6.81107 22.7017 6.81107 22.7524V22.7524ZM7.12523 22.0952C7.02051 22.0952 6.86344 22.4995 6.86344 22.5502C6.96814 22.2467 7.07286 22.2467 7.07286 21.9435C7.07286 22.0952 7.22993 22.1963 7.43936 22.1963C7.2823 22.1963 7.22995 22.1456 7.12523 22.0952ZM8.22475 21.4885C8.2771 21.438 8.38184 21.3874 8.43419 21.3874C8.38184 21.438 8.2771 21.438 8.22475 21.4885C8.2771 21.438 8.2771 21.438 8.22475 21.4885ZM9.16718 21.5895C9.11495 21.5895 8.59126 21.438 8.59126 21.438C8.64363 21.5391 9.06248 21.5391 9.16718 21.5895ZM9.74313 21.3369C9.6909 21.3369 9.79559 21.3369 9.84782 21.2359C9.79559 21.2863 9.79559 21.2863 9.74313 21.3369ZM10.3191 21.6402C10.2668 21.5895 10.2668 21.5895 10.2144 21.5391C10.3715 21.5895 10.3715 21.6402 10.3191 21.6402ZM10.6856 21.5391C10.7379 21.4885 10.8428 21.438 10.9475 21.438C10.8428 21.4885 10.7379 21.4885 10.6856 21.5391ZM11.5757 21.6906C11.3138 21.5895 11.2616 21.4885 10.9475 21.4885C11.0522 21.4885 11.3138 21.4885 11.3138 21.4885C11.3138 21.6906 11.6804 21.6906 11.5757 21.6906ZM12.7276 23.6624C12.6753 23.6624 12.6229 23.6624 12.5706 23.6117C12.5706 23.6117 12.9894 23.7128 12.7276 23.6624C12.78 23.6624 12.6753 23.6624 12.7276 23.6624ZM13.0941 18.6576C13.0941 19.2641 12.8847 19.9213 12.2563 20.1741C11.9947 20.3259 11.6804 20.3763 11.3663 20.3763C11.1569 20.3763 10.7903 21.0335 10.9997 21.0841C10.7903 21.0335 11.1044 20.528 11.2091 20.4269C11.4187 20.2248 11.9947 20.3259 12.2563 20.1741C12.5706 20.0224 12.8323 19.7191 12.9369 19.4159C12.9894 19.2641 13.0416 19.1126 13.0416 18.9102C13.0941 18.4554 13.1466 18.708 13.4607 18.4554C13.356 18.5565 13.2513 18.6069 13.0941 18.6576C13.2513 18.6069 13.0941 19.8709 13.0941 18.6576ZM18.5917 25.8867C18.5917 25.4821 18.906 25.4821 18.906 25.0271C18.8536 25.4821 18.5917 25.4821 18.5917 25.8867ZM15.3979 24.6735C14.9791 24.7239 14.7695 24.6228 14.4032 24.4206C14.8744 24.7239 15.0838 24.6228 15.6073 24.6228C15.5551 24.6228 15.4504 24.6735 15.3979 24.6735ZM16.3926 16.6354C16.0263 16.8376 14.7173 16.9893 14.6648 17.4948C14.6126 18.2026 13.9841 17.7476 13.6701 18.1519C13.8794 17.8487 14.1413 18.0509 14.4554 17.8993C14.6648 17.798 14.6126 17.5454 14.6648 17.3433C14.7173 17.0904 15.2932 16.9387 15.5026 16.8883C15.712 16.8883 16.5498 16.5343 16.3926 16.6354C16.4451 16.5848 15.8691 16.9387 16.3926 16.6354ZM18.0682 16.6859C17.5445 16.6859 16.9686 16.1298 16.5498 16.5343C17.1782 15.9783 18.1729 17.2926 18.6442 16.2311C18.487 16.4333 18.3823 16.6859 18.0682 16.6859ZM18.5395 27.9087C18.6442 28.1615 19.0107 28.4648 18.6964 28.7682C18.9583 28.4143 18.6442 28.2122 18.5395 27.9087C18.5917 28.01 18.5917 28.01 18.5395 27.9087ZM18.6964 28.8693C18.6964 28.6672 18.8011 29.0208 18.906 29.1222C18.8011 29.0715 18.6964 28.9704 18.6964 28.8693ZM19.063 29.8298C19.1154 29.7793 19.063 29.5769 19.0107 29.5265C19.063 29.5769 19.1677 29.7793 19.063 29.8298C19.1154 29.8298 19.1154 29.8298 19.063 29.8298ZM19.5342 26.7965C19.5867 26.7461 19.5867 26.6954 19.6389 26.645C19.3771 26.645 19.2201 26.645 19.1154 26.3922C19.1677 26.645 19.3771 26.6954 19.6389 26.645C19.5867 26.7461 19.5342 26.7461 19.5342 26.7965ZM21.3668 26.3417C21.2621 26.3417 21.1049 26.2911 21.0002 26.2404C21.3145 26.3417 21.2621 26.2911 21.4192 26.5439C21.4192 26.4932 21.4192 26.3922 21.3668 26.3417C21.3668 26.4428 21.2096 26.3417 21.3668 26.3417ZM22.4664 16.9893C21.838 16.9893 21.4715 16.4333 20.8433 16.4333C21.3668 16.4333 21.6808 16.8376 22.1521 16.9387C22.7805 17.0904 23.4087 16.6354 24.0371 16.6354C23.5134 16.6859 22.9899 16.9893 22.4664 16.9893ZM25.6078 15.9276C25.8172 15.5232 26.1315 15.3211 26.6027 15.3211C26.1837 15.3211 25.8172 15.5737 25.6078 15.9276ZM28.8018 17.0904C28.5922 16.8883 28.121 16.9387 27.964 16.6859C27.7022 16.3322 27.6499 15.7761 27.2834 15.5233C27.6499 15.7761 27.7546 16.3322 27.964 16.6859C28.1734 16.9893 28.6969 16.9387 28.9065 17.2926C28.8541 17.1915 28.8018 17.1409 28.8018 17.0904C28.8018 17.1409 28.5922 16.8883 28.8018 17.0904ZM29.1159 18.8091C29.0635 18.7587 29.2728 18.9609 29.2728 19.0619C29.2728 18.9609 29.2206 18.8598 29.1159 18.8091Z" fill="#90C6DE"/>
<path id="Vector_59" d="M44.196 6.98015C44.3529 6.98015 45.4001 6.92961 45.1382 6.67685C44.9289 6.52517 44.6148 6.47463 44.4054 6.57574C44.3007 6.57574 43.8294 6.98015 44.196 6.98015Z" fill="#90C6DE"/>
<path id="Vector_60" d="M41.0533 7.63697C41.263 7.63697 41.0011 7.33366 40.7393 7.38421C40.7917 7.53586 40.8964 7.63697 41.0533 7.63697Z" fill="#90C6DE"/>
<path id="Vector_61" d="M30.476 4.24994C30.5285 4.24994 30.5807 4.14883 30.5807 4.09829C30.5807 4.09829 30.5285 3.99718 30.476 3.99718C30.3713 4.09829 30.3713 4.14883 30.476 4.24994Z" fill="#90C6DE"/>
<path id="Vector_62" d="M23.1467 4.75624C22.8326 4.75624 22.8326 5.05954 23.1467 5.05954C23.5655 5.05954 23.4608 4.75624 23.1467 4.75624Z" fill="#90C6DE"/>
<path id="Vector_63" d="M23.4104 5.00819C23.3033 5.05843 23.3033 5.05843 23.4104 5.00819V5.00819Z" fill="#90C6DE"/>
<path id="Vector_64" d="M19.0107 2.53192C19.0107 2.83524 19.9008 2.48137 20.1626 2.48137C21.2098 2.63303 20.948 1.67253 20.1102 1.87472C20.372 1.62196 19.9008 1.62196 19.7961 1.67253C19.5867 1.77364 19.0107 2.38027 19.0107 2.53192Z" fill="#90C6DE"/>
<path id="Vector_65" d="M16.3398 1.26737C16.3398 1.62123 17.073 1.62123 17.073 1.31793C17.0205 1.26737 16.3398 0.96404 16.3398 1.26737Z" fill="#90C6DE"/>
<path id="Vector_66" d="M17.8589 1.21669C17.5448 1.3178 17.3354 1.46945 17.0211 1.57056C17.4923 1.82332 17.6495 1.92442 18.173 2.0761C18.3823 2.12664 18.7489 2.27829 18.9583 2.12664C19.1155 2.02553 18.9583 1.92443 18.8536 1.87388C19.6914 1.62112 18.4348 1.06504 18.016 1.21669C18.2254 1.11558 18.2254 1.01447 18.2254 0.812252C18.2776 0.812252 18.3301 0.812252 18.3823 0.812252C18.0683 0.610035 17.9111 0.306732 17.4923 0.407841C17.1258 0.50895 16.9164 0.913361 16.5498 1.01447C16.9688 1.16612 17.3876 1.21669 17.8589 1.21669C17.7542 1.21669 17.4923 1.3178 17.8589 1.21669Z" fill="#90C6DE"/>
<path id="Vector_67" d="M17.8068 3.39059C17.964 3.39059 18.0162 3.28948 18.0162 3.18837C17.8593 3.18837 17.8593 3.18837 17.7021 3.28948C17.7544 3.34004 17.8068 3.34004 17.8068 3.39059Z" fill="#90C6DE"/>
<path id="Vector_68" d="M16.4971 0.508703C16.3925 0.407594 16.2353 0.357028 16.0781 0.407594C16.1828 0.508703 16.34 0.559245 16.4971 0.508703Z" fill="#90C6DE"/>
<path id="Vector_69" d="M21.5238 2.63298C21.6285 2.63298 21.681 2.58242 21.681 2.48131C21.5761 2.48131 21.4191 2.53187 21.3145 2.53187C21.3145 2.58242 21.4191 2.63298 21.5238 2.63298Z" fill="#90C6DE"/>
<path id="Vector_70" d="M3.46123 0.964386C3.35415 1.06489 3.40771 1.06489 3.46123 0.964386V0.964386Z" fill="#90C6DE"/>
<path id="Vector_71" d="M2.3088 0.76256C2.8324 0.76256 2.15173 0.964778 2.57061 0.964778C2.15173 1.06589 2.46589 1.16697 2.62296 1.16697C2.62296 1.16697 3.72248 0.964778 3.77485 0.76256C3.40835 0.661452 3.14656 0.863669 2.8324 0.76256C2.51824 0.661452 1.73285 0.5098 1.52344 0.863669C1.83757 0.914212 2.04701 0.76256 2.3088 0.76256Z" fill="#90C6DE"/>
<path id="Vector_72" d="M7.59694 0.711632C7.75401 0.711632 8.06817 0.661065 8.17289 0.559956C8.06817 -0.248891 7.12571 0.711632 7.59694 0.711632Z" fill="#90C6DE"/>
<path id="Vector_73" d="M6.96814 0.964547C6.96814 0.913981 6.91579 0.863437 6.91579 0.812894C7.12521 0.812894 7.22993 0.812894 7.17758 0.610677C6.91579 0.66122 6.86342 0.66122 6.91579 0.509568C6.65398 0.40846 6.33984 0.661221 6.33984 0.913981C6.33984 1.06566 6.91579 1.01509 6.96814 0.964547Z" fill="#90C6DE"/>
<path id="Vector_74" d="M5.81618 0.964386C5.71146 0.964386 5.24023 1.01495 5.24023 1.1666C5.24023 1.36882 5.97325 1.06549 6.13032 1.06549C6.0256 1.01495 5.9209 0.964386 5.81618 0.964386Z" fill="#90C6DE"/>
<path id="Vector_75" d="M5.76433 0.762599C5.86905 0.762599 5.97377 0.762599 6.07849 0.712057C5.86905 0.610948 5.65961 0.560405 5.4502 0.560405C5.4502 0.560405 6.28793 0.00431824 6.02614 0.00431824C5.86905 0.00431824 5.18839 0.408731 5.18839 0.560405C5.24076 0.509839 5.29311 0.509839 5.39783 0.560405C5.18839 0.509839 4.97897 0.560405 4.76953 0.661491C5.18841 0.914274 5.29311 0.762599 5.76433 0.762599Z" fill="#90C6DE"/>
<path id="Vector_76" d="M31.5236 4.65464C31.7855 4.65464 32.0996 4.45242 32.4137 4.45242C32.7802 4.45242 33.2515 4.60407 33.4086 4.09855C33.0943 3.99745 32.1521 3.54247 32.1521 4.09855C31.7855 4.09855 31.733 3.59301 31.2618 3.79523C30.7383 4.04799 31.0524 4.65464 31.5236 4.65464Z" fill="#90C6DE"/>
<path id="Vector_77" d="M4.55977 29.8299C4.66449 29.8299 4.71687 29.7792 4.76924 29.6781C4.66452 29.6781 4.5598 29.6781 4.45508 29.7288C4.50743 29.8299 4.50743 29.8299 4.55977 29.8299Z" fill="#90C6DE"/>
<path id="Vector_78" d="M2.88409 7.83991C2.83172 7.83991 2.67465 8.14324 2.77937 8.19378C2.98878 8.29489 3.2506 8.14324 3.40766 8.04213C3.56476 7.68824 2.98881 7.83991 2.88409 7.83991Z" fill="#90C6DE"/>
<path id="Vector_79" d="M6.07812 7.38451C6.07812 7.58673 6.60172 7.7384 6.60172 7.58673C6.60172 7.43508 6.07812 7.18232 6.07812 7.38451Z" fill="#90C6DE"/>
<path id="Vector_80" d="M10.1619 5.66625C9.6907 5.31238 9.90009 5.76736 9.74316 5.76736C9.90009 5.76736 10.0048 5.71681 10.1619 5.66625C10.1095 5.71681 10.0573 5.56514 10.1619 5.66625Z" fill="#90C6DE"/>
<path id="Vector_81" d="M32.6765 5.56449C32.7812 5.56449 32.8859 5.56449 32.9906 5.56449C32.9383 4.95783 32.2052 5.10951 31.9434 5.46338C32.1005 5.41281 32.4671 5.46338 32.6765 5.56449Z" fill="#90C6DE"/>
<path id="Vector_82" d="M34.8761 4.65475C35.2427 4.65475 35.609 4.45253 35.0855 4.35142C34.7714 4.30088 34.1955 4.35145 33.9336 4.14923C34.143 4.45253 34.4571 4.65475 34.8761 4.65475Z" fill="#90C6DE"/>
<path id="Vector_83" d="M32.2057 5.00852C32.2057 4.85684 31.8916 4.85684 31.8916 5.00852C31.9441 5.21071 32.2057 5.16017 32.2057 5.00852Z" fill="#90C6DE"/>
<g id="highlighted">
<path id="Vector_84" d="M22.529 27.2394C22.4401 27.1509 22.4725 27.0464 22.4993 26.9233C22.3201 26.9796 22.1644 26.8144 21.9893 26.9048C21.8854 26.8093 21.724 26.8522 21.6188 26.7398C21.5636 26.6809 21.5095 26.6128 21.5413 26.5601C21.6263 26.4201 21.5415 26.4284 21.4464 26.4085C21.3414 26.3864 21.2297 26.385 21.1462 26.2846C21.0924 26.2197 21.0128 26.2876 20.9803 26.3323C20.8818 26.4672 20.7496 26.4465 20.6114 26.4514C20.3992 26.4584 20.1841 26.471 19.9891 26.5759C19.9427 26.6011 19.9471 26.6429 19.9608 26.6785C19.982 26.7347 20.0097 26.7894 19.9973 26.851C19.988 26.8962 20.0261 26.9716 19.9398 26.9735C19.8858 26.9744 19.812 26.991 19.7998 26.9017C19.7855 26.7987 19.7385 26.8102 19.6634 26.8508C19.5537 26.9101 19.4602 26.8881 19.4105 26.7607C19.4082 26.7547 19.4084 26.7438 19.4044 26.7422C19.2326 26.6689 19.1316 26.565 19.2409 26.3681C19.0493 26.3226 19.0938 26.1116 18.9924 26.012C18.9086 25.9293 18.795 26.0394 18.7051 26.0377C18.6161 25.7546 18.753 25.5759 18.9575 25.415C19.052 25.341 19.1119 24.8771 19.0372 24.8559C18.8712 24.8093 18.9146 24.6556 18.8338 24.5778C18.7998 24.545 18.7601 24.5117 18.6946 24.5301C18.5356 24.5755 18.4396 24.5046 18.3711 24.3696C18.3246 24.2784 18.269 24.1208 18.101 24.2374C18.0747 24.2558 18.0368 24.2747 18.0085 24.2693C17.6373 24.199 17.4075 24.4316 17.1581 24.645C17.0614 24.7278 16.9537 24.7256 16.8051 24.6268C16.6923 24.5515 16.5025 24.4559 16.3363 24.4815C16.1665 24.5078 16.0668 24.662 15.963 24.8016C15.8858 24.7455 16.0005 24.6217 15.9023 24.6005C15.8387 24.5868 15.7634 24.6343 15.6921 24.6461C15.5807 24.6648 15.4682 24.6798 15.3633 24.6135C15.3369 24.597 15.3016 24.5822 15.2717 24.584C14.9378 24.6035 14.7132 24.4109 14.4837 24.2045C14.3911 24.1212 14.2395 24.1149 14.1388 24.0162C14.0746 23.9532 13.972 23.9287 13.9094 23.864C13.8053 23.7564 13.7199 23.6709 13.5956 23.8386C13.5632 23.8825 13.5335 23.8285 13.5016 23.8074C13.2887 23.6663 13.0957 23.4912 12.8523 23.4005C12.8016 23.3814 12.8006 23.3501 12.7986 23.3095C12.7963 23.2633 12.7973 23.2156 12.7858 23.1712C12.7665 23.0978 12.6622 23.0379 12.7177 22.9576C12.7827 22.8637 12.8356 22.9924 12.8944 22.9903C12.9403 22.9888 13.0042 22.9712 13.0264 22.9167C13.0487 22.8614 13.0132 22.7973 12.9813 22.7729C12.8382 22.6634 12.7683 22.5416 12.8592 22.3656C12.8621 22.3596 12.8659 22.3481 12.8656 22.3477C12.6782 22.2681 12.6767 22.002 12.5197 21.9435C12.3707 21.888 12.2178 21.8224 12.0597 21.7843C12.0155 21.7738 11.9703 21.7396 11.9716 21.714C11.9892 21.3913 11.7262 21.4009 11.5307 21.33C11.5149 21.3245 11.5037 21.3054 11.4715 21.2747C11.7484 21.246 11.6297 21.09 11.6134 20.9444C11.5961 20.7899 11.5513 20.7345 11.3942 20.7651C11.2943 20.7844 11.2099 20.5708 11.2547 20.4457C11.3485 20.1851 11.5667 20.0955 11.8045 20.0267C11.8463 20.0147 11.8726 20.0148 11.9099 20.0457C12.0353 20.1489 12.1395 20.1076 12.2049 19.974C12.254 19.8731 12.32 19.8479 12.4268 19.8588C12.5595 19.8727 12.6773 19.8493 12.7807 19.733C12.8971 19.6013 13.0917 19.5939 13.2435 19.5118C13.319 19.4707 13.3699 19.4421 13.3357 19.3523C13.3 19.2581 13.3641 19.1863 13.4133 19.1415C13.517 19.0469 13.5157 18.9553 13.4591 18.8459C13.4187 18.7672 13.4004 18.6838 13.3986 18.5958C13.398 18.5629 13.4028 18.5253 13.3893 18.4977C13.3114 18.3373 13.312 18.3465 13.5138 18.2995C13.7096 18.254 13.9034 18.2506 14.1605 18.3123C14.0277 18.1841 14.0267 18.0897 14.0903 17.9851C14.1312 17.918 14.1555 17.8395 14.1793 17.7637C14.2326 17.5926 14.2698 17.452 14.519 17.5689C14.6286 17.6205 14.7972 17.6583 14.9497 17.5991C15.0656 17.5541 15.102 17.4902 15.0772 17.3717C15.0363 17.1778 15.0637 17.0231 15.31 17.0103C15.3567 17.008 15.4208 16.9816 15.4228 16.9403C15.4339 16.7033 15.5977 16.7792 15.7275 16.7794C15.7606 16.7792 15.7952 16.7662 15.8095 16.8095C15.9113 17.1129 16.1735 17.2027 16.4412 17.2754C16.4929 17.2893 16.5312 17.3125 16.5497 17.3454C16.689 17.591 16.9318 17.8133 16.7113 18.1396C16.6566 18.2204 16.7015 18.3132 16.8055 18.3401C16.9398 18.3749 17.0782 18.427 17.2125 18.4204C17.4219 18.4101 17.5948 18.4713 17.7688 18.5775C17.9957 18.7156 18.2447 18.8088 18.3176 19.1201C18.3474 19.2479 18.4719 19.3523 18.6566 19.321C18.7696 19.302 18.8948 19.333 19.0109 19.3593C19.3174 19.4292 19.6315 19.3564 19.9381 19.4198C20.03 19.4389 20.1046 19.4656 20.1861 19.5214C20.3658 19.6438 20.5901 19.6727 20.7965 19.7313C20.8799 19.7551 20.9798 19.6928 21.065 19.7856C21.1037 19.8277 21.1757 19.7834 21.2305 19.7564C21.5882 19.58 21.9621 19.4935 22.365 19.5175C22.6019 19.5315 22.8252 19.4669 22.9791 19.2568C23.014 19.2089 23.0653 19.1774 23.1256 19.1582C23.2763 19.1102 23.3908 19.0562 23.2193 18.8819C23.1238 18.7849 23.2229 18.6817 23.2753 18.5945C23.336 18.4933 23.4481 18.4991 23.5231 18.5464C23.7664 18.6997 23.9734 18.6749 24.1539 18.4533C24.2091 18.3854 24.274 18.4175 24.3371 18.4176C24.5068 18.4177 24.6459 18.3711 24.7227 18.1993C24.8084 18.0091 25.015 18.0393 25.1673 17.9741C25.3469 17.897 25.5368 17.9051 25.7259 17.9546C25.7672 17.9655 25.8216 17.9814 25.8487 17.9242C25.8687 17.882 25.8427 17.8446 25.8214 17.8133C25.7162 17.6567 25.5757 17.5359 25.4162 17.4396C25.3811 17.4185 25.3022 17.4097 25.2826 17.431C25.0949 17.6364 24.8508 17.3799 24.6504 17.5156C24.5861 17.5589 24.4768 17.4094 24.5171 17.3312C24.6101 17.1512 24.7102 16.975 24.8016 16.7938C24.8445 16.7088 24.8847 16.6722 24.9843 16.7236C25.1456 16.8066 25.3107 16.838 25.4556 16.6803C25.4993 16.6326 25.5639 16.6351 25.6224 16.625C25.6841 16.6142 25.7408 16.5961 25.7443 16.5179C25.7563 16.2364 25.9117 16.0284 26.1112 15.8593C26.2086 15.7766 26.1975 15.6961 26.1938 15.5973C26.1895 15.4708 26.0772 15.5183 26.0153 15.477C26.1203 15.3165 26.2708 15.2372 26.4568 15.22C26.7657 15.1916 27.0785 15.0646 27.3723 15.2935C27.4749 15.3734 27.6318 15.2967 27.7491 15.4226C27.9137 15.5992 27.9817 15.8141 28.0586 16.0251C28.1427 16.2555 28.2799 16.4673 28.3016 16.7221C28.3081 16.7981 28.3853 16.855 28.4608 16.8513C28.7582 16.8379 28.9759 17.016 29.201 17.1629C29.2582 17.2002 29.2926 17.3144 29.2922 17.4187C29.2918 17.5375 29.3295 17.6314 29.4996 17.6323C29.6805 17.6335 29.8505 17.6577 29.9962 17.5177C30.0695 17.4474 30.184 17.4938 30.2727 17.4293C30.3274 17.3895 30.4693 17.324 30.4948 17.4257C30.5152 17.5071 30.6067 17.647 30.4424 17.7345C30.2935 17.8138 30.3098 17.9979 30.2687 18.1359C30.2127 18.3239 30.0562 18.446 29.9939 18.6273C29.9731 18.6879 29.8795 18.6536 29.833 18.623C29.647 18.5009 29.5216 18.6593 29.3752 18.7158C29.3381 18.73 29.3374 18.7669 29.3531 18.8009C29.4205 18.9463 29.4003 19.0996 29.3989 19.2525C29.3968 19.48 29.2642 19.5789 29.0619 19.4926C29.0219 19.4754 28.9978 19.4833 28.9839 19.52C28.8883 19.7673 28.6827 19.8291 28.4501 19.8361C28.4071 19.9103 28.5543 19.9794 28.4594 20.0341C28.3535 20.0951 28.2194 20.0519 28.1399 19.9957C28.0205 19.9111 27.981 19.934 27.9212 20.048C27.8399 20.2033 27.6782 20.2615 27.5317 20.336C27.4087 20.3986 27.2774 20.4542 27.2164 20.5943C26.9202 20.627 26.655 20.7321 26.4251 20.927C26.3873 20.9587 26.3304 20.9673 26.2833 20.9884C26.2499 21.003 26.2178 21.008 26.1994 20.9703C26.1798 20.9306 26.2068 20.9175 26.2391 20.8992C26.2965 20.8667 26.459 20.8478 26.2675 20.7569C26.2228 20.7356 26.2535 20.6985 26.2802 20.6613C26.3233 20.6011 26.3859 20.5654 26.4312 20.5146C26.4835 20.4562 26.6158 20.3898 26.5139 20.2914C26.4257 20.2066 26.2948 20.1422 26.1834 20.2669C26.0666 20.3974 25.9371 20.5008 25.771 20.5597C25.7083 20.5821 25.6678 20.6295 25.6401 20.6988C25.5755 20.8588 25.4301 20.9194 25.2809 20.853C25.2302 20.8303 25.1969 20.8188 25.1643 20.8704C25.1256 20.9314 25.0737 20.9882 25.1272 21.0691C25.1935 21.1703 25.2913 21.1939 25.4027 21.1957C25.5564 21.198 25.6049 21.27 25.5443 21.404C25.5226 21.4521 25.5201 21.4966 25.5703 21.5249C25.6299 21.5586 25.6967 21.5752 25.7589 21.5375C25.803 21.511 25.8432 21.4741 25.8775 21.4351C25.9931 21.3057 26.1118 21.2796 26.2524 21.3999C26.3745 21.5039 26.547 21.4046 26.6754 21.495C26.6542 21.6206 26.6508 21.7493 26.4504 21.6856C26.3869 21.6651 26.2741 21.7182 26.2171 21.7725C26.0347 21.9474 25.7961 22.0579 25.6501 22.2725C25.6127 22.3272 25.5359 22.3931 25.6613 22.4365C25.9306 22.5297 26.0035 22.778 26.0673 23.0052C26.1095 23.1561 26.2017 23.2578 26.2941 23.3516C26.3951 23.4539 26.3812 23.5503 26.4044 23.6704C26.4461 23.8835 26.2876 23.8214 26.2166 23.877C26.1862 23.9005 26.1515 23.9186 26.0937 23.9552C26.1827 23.9975 26.2569 24.019 26.3203 24.0672C26.4076 24.1344 26.4375 23.9744 26.5196 23.9624C26.5828 24.2426 26.2498 24.4005 26.297 24.678C26.2985 24.6856 26.2702 24.7003 26.2541 24.7084C25.9688 24.8589 25.8889 25.1812 25.6814 25.3962C25.6508 25.4277 25.6585 25.4628 25.6696 25.4871C25.7481 25.6596 25.6161 25.6919 25.5105 25.7625C25.3717 25.8548 25.2534 25.9777 25.122 26.0815C24.8547 26.2925 24.6251 26.5713 24.2291 26.5454C24.1617 26.5408 24.0541 26.5708 24.0344 26.6968C24.0112 26.8429 23.8815 26.8584 23.7913 26.7936C23.7055 26.7321 23.5994 26.7665 23.5802 26.7874C23.4455 26.932 23.2663 26.8297 23.1213 26.8899C23.0215 26.9276 22.902 26.8526 22.8093 26.9552C22.753 27.0175 22.676 27.0561 22.6736 27.1571C22.6717 27.2538 22.618 27.2829 22.5298 27.2398L22.529 27.2394Z" fill="#176C93"/>
<path id="Vector_85" d="M22.3897 27.1329C22.4456 27.125 22.5038 27.1205 22.5232 27.0644C22.6188 26.7893 22.7567 26.7242 23.1183 26.7813C22.9931 26.8803 22.7345 26.7712 22.674 26.9927C22.6405 27.1139 22.6339 27.223 22.7624 27.282C22.8288 27.3126 22.8822 27.3802 22.8378 27.409C22.6755 27.5143 22.6973 27.7085 22.5075 27.8079C22.3342 27.8987 22.1936 27.9004 22.0184 27.8384C21.874 27.7877 21.8947 27.6881 21.8974 27.6004C21.902 27.4445 22.0828 27.4002 22.202 27.3266C22.2699 27.2845 22.3851 27.294 22.482 27.2797C22.4921 27.2137 22.3627 27.2042 22.3902 27.1321L22.3897 27.1329Z" fill="#176C93"/>
</g>
</g>
</g>
</g>
</g>
</svg>
