<svg width="32" height="32" viewBox="0 0 32 32" fill="none" xmlns="http://www.w3.org/2000/svg">
<path d="M15.3846 21.251C17.2809 19.7376 18.7123 18.2833 19.6786 16.888C20.645 15.4935 21.1282 14.1581 21.1282 12.8817C21.1282 11.8059 20.932 10.8895 20.5396 10.1325C20.148 9.37613 19.6651 8.7653 19.0911 8.29998C18.5164 7.83539 17.8917 7.49807 17.2171 7.28802C16.5425 7.07869 15.9316 6.97403 15.3846 6.97403C14.8376 6.97403 14.2268 7.07869 13.5521 7.28802C12.8775 7.49807 12.2532 7.83539 11.6792 8.29998C11.1045 8.7653 10.6209 9.37613 10.2285 10.1325C9.83685 10.8895 9.64103 11.8059 9.64103 12.8817C9.64103 14.1581 10.1242 15.4935 11.0906 16.888C12.057 18.2833 13.4883 19.7376 15.3846 21.251ZM15.3846 22.974C15.2387 22.974 15.102 22.9558 14.9744 22.9193C14.8467 22.8829 14.7282 22.819 14.6188 22.7279C12.3943 20.9957 10.735 19.3135 9.64103 17.6812C8.54701 16.0496 8 14.4498 8 12.8817C8 11.6418 8.22354 10.5522 8.67063 9.6128C9.11699 8.67414 9.69135 7.88571 10.3937 7.24754C11.0953 6.60936 11.8885 6.13091 12.7732 5.81219C13.6572 5.49273 14.5276 5.33301 15.3846 5.33301C16.2416 5.33301 17.1124 5.49273 17.9971 5.81219C18.8811 6.13091 19.6739 6.60936 20.3755 7.24754C21.0779 7.88571 21.6526 8.67414 22.0997 9.6128C22.5461 10.5522 22.7692 11.6418 22.7692 12.8817C22.7692 14.4498 22.2222 16.0496 21.1282 17.6812C20.0342 19.3135 18.3749 20.9957 16.1504 22.7279C16.0593 22.819 15.9455 22.8829 15.8091 22.9193C15.672 22.9558 15.5305 22.974 15.3846 22.974ZM15.3846 14.6322C15.9134 14.6322 16.3649 14.4454 16.739 14.072C17.1124 13.6979 17.2991 13.2464 17.2991 12.7176C17.2991 12.1888 17.1124 11.7374 16.739 11.3632C16.3649 10.9898 15.9134 10.8031 15.3846 10.8031C14.8558 10.8031 14.4044 10.9898 14.0302 11.3632C13.6568 11.7374 13.4701 12.1888 13.4701 12.7176C13.4701 13.2464 13.6568 13.6979 14.0302 14.072C14.4044 14.4454 14.8558 14.6322 15.3846 14.6322ZM8.82051 26.6663C8.58348 26.6663 8.38765 26.589 8.23303 26.4344C8.07768 26.2791 8 26.0829 8 25.8458C8 25.6088 8.07768 25.4126 8.23303 25.2572C8.38765 25.1026 8.58348 25.0253 8.82051 25.0253H21.9487C22.1858 25.0253 22.3819 25.1026 22.5373 25.2572C22.6919 25.4126 22.7692 25.6088 22.7692 25.8458C22.7692 26.0829 22.6919 26.2791 22.5373 26.4344C22.3819 26.589 22.1858 26.6663 21.9487 26.6663H8.82051Z" fill="#176C93"/>
</svg>
