<svg xmlns="http://www.w3.org/2000/svg" id="Layer_1" viewBox="0 0 184 100"><defs><style>.cls-1{fill:#56575a;stroke-width:0px;}</style></defs><path class="cls-1" d="M149.22,58.57c0-1.87,1.52-3.39,3.39-3.39s3.39,1.52,3.39,3.39-1.52,3.39-3.39,3.39-3.39-1.52-3.39-3.39"></path><path class="cls-1" d="M41.02,49.59c0-2.15-.42-3.74-1.25-4.78-.83-1.04-2.09-1.56-3.78-1.56h-1.8v13.14h1.38c1.88,0,3.26-.56,4.14-1.68.88-1.12,1.32-2.83,1.32-5.13M47.44,49.37c0,3.91-1.05,6.93-3.16,9.05-2.1,2.12-5.06,3.18-8.88,3.18h-7.41v-23.46h7.93c3.68,0,6.52.96,8.52,2.89,2,1.93,3,4.71,3,8.34"></path><path class="cls-1" d="M67.97,61.59h5.9v-23.56h-5.9v23.56Z"></path><path class="cls-1" d="M82.15,52.81c0,1.5.2,2.65.59,3.43.39.79,1.05,1.18,1.97,1.18s1.56-.39,1.94-1.18c.38-.79.56-1.93.56-3.43s-.19-2.62-.57-3.38c-.38-.76-1.04-1.14-1.96-1.14s-1.55.38-1.94,1.14c-.39.76-.59,1.89-.59,3.39M93.22,52.81c0,2.86-.75,5.09-2.25,6.69-1.5,1.6-3.61,2.4-6.31,2.4s-4.66-.82-6.19-2.46c-1.53-1.64-2.3-3.85-2.3-6.64s.75-5.07,2.25-6.65c1.5-1.58,3.61-2.37,6.33-2.37,1.68,0,3.16.37,4.45,1.1,1.29.73,2.28,1.78,2.98,3.14.7,1.36,1.05,2.96,1.05,4.78"></path><path class="cls-1" d="M95.56,61.59h5.9v-17.5h-5.9v17.5Z"></path><path class="cls-1" d="M95.56,41.98h5.9v-3.94h-5.9v3.94Z"></path><path class="cls-1" d="M113.41,57.13c.8,0,1.74-.2,2.85-.6v4.4c-.8.35-1.55.6-2.27.75-.72.15-1.56.22-2.53.22-1.98,0-3.41-.5-4.28-1.49-.87-.99-1.31-2.52-1.31-4.58v-7.21h-2.07v-4.52h2.07v-4.47l5.94-1.03v5.5h3.76v4.52h-3.76v6.81c0,1.13.53,1.7,1.6,1.7"></path><path class="cls-1" d="M127.06,57.13c.8,0,1.74-.2,2.85-.6v4.4c-.79.35-1.55.6-2.27.75-.72.15-1.56.22-2.53.22-1.98,0-3.41-.5-4.28-1.49s-1.31-2.52-1.31-4.58v-7.21h-2.07v-4.52h2.07v-4.54l5.94-.97v5.5h3.76v4.52h-3.76v6.81c0,1.13.53,1.7,1.6,1.7"></path><path class="cls-1" d="M137.35,50.67c.08-.96.35-1.66.82-2.11.47-.45,1.05-.67,1.74-.67.76,0,1.36.25,1.8.76.45.5.68,1.18.7,2.02h-5.07,0ZM145.67,45.85c-1.4-1.37-3.39-2.06-5.96-2.06-2.7,0-4.79.79-6.24,2.37-1.46,1.58-2.19,3.85-2.19,6.8s.79,5.07,2.36,6.62c1.57,1.55,3.78,2.32,6.63,2.32,1.37,0,2.54-.09,3.53-.28.98-.18,1.93-.52,2.85-.99l-.91-3.94c-.67.27-1.3.48-1.91.62-.87.2-1.82.3-2.86.3-1.14,0-2.03-.28-2.69-.83-.66-.56-1.01-1.32-1.05-2.3h10.54v-2.69c0-2.58-.7-4.56-2.1-5.94"></path><path class="cls-1" d="M55.27,50.67c.08-.96.35-1.66.82-2.11.47-.45,1.05-.67,1.74-.67.75,0,1.35.25,1.8.76.45.5.68,1.18.7,2.02h-5.07ZM63.59,45.85c-1.4-1.37-3.39-2.06-5.96-2.06-2.71,0-4.79.79-6.24,2.37-1.46,1.58-2.19,3.85-2.19,6.8s.79,5.07,2.36,6.62c1.57,1.55,3.78,2.32,6.63,2.32,1.37,0,2.54-.09,3.53-.28.98-.18,1.93-.52,2.85-.99l-.91-3.94c-.67.27-1.3.48-1.9.62-.87.2-1.82.3-2.86.3-1.14,0-2.03-.28-2.69-.83-.66-.56-1.01-1.32-1.05-2.3h10.54v-2.69c0-2.58-.7-4.56-2.1-5.94"></path></svg>