<svg xmlns="http://www.w3.org/2000/svg" id="Layer_1" viewBox="0 0 184 100"><defs><style>.cls-1{fill:#56575a;stroke-width:0px;}</style></defs><path class="cls-1" d="M46.45,63.66c4.81,0,7,3.44,7.06,6.92.08,3.56-2.13,7.16-7.06,7.16h-5.33v-14.08h5.33ZM43.35,75.56h3.1c3.44,0,4.89-2.54,4.83-5.01-.06-2.38-1.51-4.75-4.83-4.75h-3.1v9.76ZM69.34,70.76c0,3.8-2.31,7.28-7.2,7.28s-7.2-3.56-7.2-7.26c0-4.28,3-7.38,7.24-7.38,4.81.02,7.16,3.56,7.16,7.36M62.14,75.97c3.5,0,4.97-2.47,4.97-5.17s-1.49-5.29-4.93-5.35c-3.26,0-5.01,2.27-5.01,5.35.04,2.49,1.49,5.17,4.97,5.17M83.86,66.95l-4.79,6.66h-.48l-4.73-6.66v10.8h-2.26v-14.08h2.62l4.65,6.6,4.62-6.6h2.62v14.08h-2.25v-10.8h0ZM89.26,63.66h2.23v14.08h-2.23v-14.08ZM104.34,73.67v-10.02h2.25v14.08h-1.71l-7.99-9.94v9.94h-2.27v-14.08h1.73l7.99,10.02ZM109.73,63.66h2.23v14.08h-2.23v-14.08ZM128.64,70.76c0,3.8-2.31,7.28-7.2,7.28s-7.2-3.56-7.2-7.26c0-4.28,3-7.38,7.24-7.38,4.81.02,7.16,3.56,7.16,7.36M121.44,75.97c3.5,0,4.97-2.47,4.97-5.17s-1.49-5.29-4.93-5.35c-3.26,0-5.01,2.27-5.01,5.35.04,2.49,1.49,5.17,4.97,5.17M140.63,73.67v-10.02h2.25v14.08h-1.71l-7.98-9.94v9.94h-2.28v-14.08h1.73l7.99,10.02ZM84.87,53.87h6.76c8.81,0,15.95-7.14,15.95-15.96,0-8.81-7.14-15.95-15.95-15.95h-6.76v7.97h7.73c4.38,0,7.94,3.55,7.94,7.94s-3.55,7.93-7.94,7.93h-7.73"></path><path class="cls-1" d="M93.64,42.3h-8.76v-8.77h8.76v8.77ZM86.17,41.02h6.19v-6.21h-6.19v6.21Z"></path></svg>