<svg width="140" height="40" viewBox="0 0 140 40" fill="none" xmlns="http://www.w3.org/2000/svg">
<rect x="0.5" y="0.5" width="139" height="39" rx="7.5" stroke="#292B2E"/>
<path d="M34.9495 20.6994C34.9604 19.8562 35.1844 19.0294 35.6007 18.2959C36.0169 17.5625 36.6119 16.9463 37.3304 16.5046C36.874 15.8528 36.2719 15.3164 35.5719 14.938C34.872 14.5596 34.0934 14.3496 33.2981 14.3248C31.6016 14.1467 29.9569 15.3399 29.0924 15.3399C28.2112 15.3399 26.8801 14.3424 25.4468 14.3719C24.5197 14.4019 23.6161 14.6715 22.8242 15.1545C22.0322 15.6374 21.3789 16.3173 20.9278 17.1279C18.9739 20.5107 20.4314 25.4824 22.303 28.2169C23.2395 29.5558 24.3339 31.0515 25.7659 30.9985C27.1673 30.9404 27.6906 30.1049 29.3822 30.1049C31.058 30.1049 31.549 30.9985 33.0101 30.9648C34.5138 30.9404 35.4612 29.6198 36.3648 28.2682C37.0376 27.3141 37.5553 26.2596 37.8988 25.1438C37.0252 24.7744 36.2797 24.1559 35.7552 23.3655C35.2308 22.5752 34.9506 21.6479 34.9495 20.6994Z" fill="#292B2E"/>
<path d="M32.1901 12.5265C33.01 11.5423 33.4139 10.2772 33.3161 9C32.0635 9.13156 30.9065 9.73022 30.0755 10.6767C29.6692 11.1391 29.3581 11.677 29.1598 12.2597C28.9615 12.8424 28.8801 13.4584 28.92 14.0727C29.5466 14.0791 30.1664 13.9433 30.7328 13.6755C31.2992 13.4077 31.7975 13.0148 32.1901 12.5265Z" fill="#292B2E"/>
<path d="M52.663 22.688H47.881L46.7325 26.079H44.707L49.2366 13.5332H51.341L55.8705 26.079H53.8105L52.663 22.688ZM48.3762 21.1232H52.1668L50.2982 15.6199H50.2459L48.3762 21.1232Z" fill="#292B2E"/>
<path d="M65.6532 21.5063C65.6532 24.3487 64.1318 26.1749 61.836 26.1749C61.2544 26.2053 60.676 26.0714 60.1671 25.7883C59.6581 25.5053 59.2391 25.0847 58.9581 24.5746H58.9146V29.1051H57.0371V16.9324H58.8545V18.4537H58.889C59.183 17.9461 59.609 17.5276 60.1219 17.2429C60.6347 16.9581 61.2152 16.8177 61.8015 16.8366C64.1229 16.8367 65.6532 18.6717 65.6532 21.5063ZM63.7234 21.5063C63.7234 19.6544 62.7664 18.4369 61.3062 18.4369C59.8717 18.4369 58.9068 19.6801 58.9068 21.5063C58.9068 23.3493 59.8717 24.5835 61.3062 24.5835C62.7664 24.5835 63.7234 23.3749 63.7234 21.5063Z" fill="#292B2E"/>
<path d="M75.7206 21.5063C75.7206 24.3487 74.1992 26.1749 71.9034 26.1749C71.3218 26.2053 70.7434 26.0714 70.2344 25.7883C69.7255 25.5053 69.3065 25.0847 69.0255 24.5746H68.982V29.1051H67.1045V16.9323H68.9218V18.4537H68.9564C69.2503 17.9461 69.6764 17.5276 70.1892 17.2429C70.7021 16.9581 71.2825 16.8177 71.8688 16.8366C74.1903 16.8366 75.7206 18.6717 75.7206 21.5063ZM73.7908 21.5063C73.7908 19.6544 72.8338 18.4369 71.3736 18.4369C69.939 18.4369 68.9741 19.6801 68.9741 21.5063C68.9741 23.3493 69.939 24.5835 71.3736 24.5835C72.8338 24.5835 73.7908 23.3749 73.7908 21.5063Z" fill="#292B2E"/>
<path d="M82.3741 22.5836C82.5132 23.8277 83.7218 24.6446 85.3734 24.6446C86.9559 24.6446 88.0945 23.8277 88.0945 22.7059C88.0945 21.7321 87.4078 21.149 85.7818 20.7495L84.1559 20.3578C81.8522 19.8013 80.7827 18.7239 80.7827 16.9757C80.7827 14.811 82.6691 13.3242 85.3477 13.3242C87.9987 13.3242 89.8161 14.811 89.8773 16.9757H87.982C87.8685 15.7237 86.8335 14.9679 85.3211 14.9679C83.8086 14.9679 82.7736 15.7325 82.7736 16.8454C82.7736 17.7324 83.4347 18.2543 85.0517 18.6539L86.434 18.9932C89.008 19.602 90.0775 20.636 90.0775 22.471C90.0775 24.8182 88.2079 26.2882 85.2342 26.2882C82.452 26.2882 80.5735 24.8527 80.4521 22.5835L82.3741 22.5836Z" fill="#292B2E"/>
<path d="M94.1294 14.7676V16.9322H95.8688V18.419H94.1294V23.4616C94.1294 24.2449 94.4777 24.61 95.2423 24.61C95.4488 24.6064 95.655 24.5919 95.8599 24.5666V26.0445C95.5162 26.1087 95.1668 26.1378 94.8171 26.1313C92.9652 26.1313 92.243 25.4358 92.243 23.6618V18.419H90.9131V16.9322H92.243V14.7676H94.1294Z" fill="#292B2E"/>
<path d="M96.876 21.5067C96.876 18.6288 98.571 16.8203 101.214 16.8203C103.866 16.8203 105.553 18.6287 105.553 21.5067C105.553 24.3925 103.875 26.1931 101.214 26.1931C98.5542 26.1931 96.876 24.3925 96.876 21.5067ZM103.64 21.5067C103.64 19.5325 102.735 18.3673 101.214 18.3673C99.6927 18.3673 98.789 19.5414 98.789 21.5067C98.789 23.4888 99.6927 24.6451 101.214 24.6451C102.735 24.6451 103.64 23.4888 103.64 21.5067Z" fill="#292B2E"/>
<path d="M107.102 16.9323H108.892V18.4891H108.936C109.057 18.0029 109.342 17.5732 109.742 17.2722C110.143 16.9713 110.635 16.8174 111.136 16.8366C111.352 16.8358 111.568 16.8593 111.779 16.9066V18.6628C111.506 18.5793 111.221 18.541 110.936 18.5493C110.663 18.5382 110.391 18.5863 110.138 18.6903C109.886 18.7942 109.659 18.9516 109.473 19.1515C109.287 19.3514 109.147 19.5892 109.062 19.8485C108.976 20.1078 108.948 20.3825 108.979 20.6537V26.0791H107.102L107.102 16.9323Z" fill="#292B2E"/>
<path d="M120.436 23.3931C120.183 25.0536 118.566 26.1931 116.497 26.1931C113.836 26.1931 112.185 24.4103 112.185 21.5501C112.185 18.6811 113.845 16.8203 116.418 16.8203C118.949 16.8203 120.54 18.5587 120.54 21.3321V21.9753H114.08V22.0888C114.05 22.4254 114.092 22.7646 114.203 23.0836C114.315 23.4027 114.493 23.6945 114.725 23.9395C114.958 24.1846 115.24 24.3773 115.553 24.5049C115.866 24.6325 116.203 24.6921 116.54 24.6796C116.984 24.7212 117.429 24.6184 117.81 24.3866C118.191 24.1548 118.486 23.8064 118.653 23.3931L120.436 23.3931ZM114.089 20.6632H118.662C118.679 20.3605 118.633 20.0576 118.527 19.7735C118.421 19.4894 118.258 19.2302 118.047 19.0122C117.836 18.7942 117.583 18.6221 117.303 18.5067C117.022 18.3914 116.721 18.3352 116.418 18.3417C116.112 18.3398 115.809 18.3986 115.526 18.5145C115.243 18.6304 114.986 18.8012 114.77 19.0171C114.553 19.2329 114.381 19.4895 114.265 19.772C114.148 20.0545 114.088 20.3574 114.089 20.6632Z" fill="#292B2E"/>
</svg>
