<svg xmlns="http://www.w3.org/2000/svg" width="140" height="40" fill="none"><rect width="139" height="39" x=".5" y=".5" stroke="#292B2E" rx="7.5"></rect><path fill="#292B2E" d="M105.49 25.17h1.75V13.42h-1.75v11.75Zm15.79-7.51-2.01 5.09h-.06l-2.09-5.1h-1.89l3.13 7.12-1.78 3.96h1.83l4.82-11.07h-1.95Zm-9.95 6.18c-.57 0-1.37-.3-1.37-1 0-.9 1-1.26 1.86-1.26.77 0 1.13.17 1.6.4a2.13 2.13 0 0 1-2.09 1.86Zm.22-6.44c-1.27 0-2.59.56-3.13 1.8l1.56.65c.33-.65.95-.86 1.6-.86.9 0 1.83.54 1.84 1.5v.13c-.32-.18-1-.46-1.83-.46-1.67 0-3.38.93-3.38 2.65 0 1.57 1.37 2.58 2.91 2.58 1.18 0 1.83-.53 2.24-1.15h.06v.91h1.7v-4.5c0-2.09-1.56-3.25-3.57-3.25Zm-10.84 1.69h-2.5v-4.03h2.5a2.03 2.03 0 0 1 2.06 2.01c0 .91-.75 2.02-2.06 2.02Zm-.04-5.67h-4.2v11.75h1.75v-4.45h2.45c1.94 0 3.85-1.4 3.85-3.65 0-2.24-1.9-3.65-3.85-3.65ZM77.76 23.84c-1.21 0-2.23-1.02-2.23-2.4 0-1.42 1.02-2.45 2.23-2.45 1.2 0 2.13 1.03 2.13 2.44 0 1.4-.94 2.4-2.13 2.4Zm2.01-5.53h-.06c-.4-.47-1.15-.89-2.1-.89-2 0-3.83 1.76-3.83 4.01a3.96 3.96 0 0 0 3.83 3.98c.95 0 1.7-.42 2.1-.9h.06v.57c0 1.53-.81 2.35-2.13 2.35A2.21 2.21 0 0 1 75.62 26l-1.52.64A3.8 3.8 0 0 0 77.64 29c2.06 0 3.8-1.21 3.8-4.16v-7.18h-1.67v.65Zm2.88 6.86h1.75V13.42h-1.75v11.75Zm4.34-3.87a2.2 2.2 0 0 1 2.1-2.34c.69 0 1.28.35 1.48.85l-3.58 1.49Zm5.45-1.34c-.33-.89-1.34-2.54-3.42-2.54-2.06 0-3.77 1.62-3.77 4 0 2.24 1.7 4 3.97 4 1.83 0 2.89-1.13 3.33-1.78l-1.36-.9a2.28 2.28 0 0 1-1.97 1.1c-.9 0-1.53-.41-1.94-1.21l5.34-2.21-.18-.46Zm-42.57-1.31v1.7h4.06a3.54 3.54 0 0 1-.93 2.13 4.15 4.15 0 0 1-3.13 1.24 4.45 4.45 0 0 1-4.45-4.51 4.45 4.45 0 0 1 7.5-3.3l1.2-1.2A5.91 5.91 0 0 0 49.88 13a6.3 6.3 0 0 0-6.3 6.2 6.3 6.3 0 0 0 6.3 6.21c1.85 0 3.24-.6 4.33-1.74a5.6 5.6 0 0 0 1.47-3.96c0-.4-.03-.76-.1-1.06h-5.7Zm10.41 5.19c-1.21 0-2.25-1-2.25-2.42 0-1.44 1.04-2.43 2.25-2.43s2.26.99 2.26 2.43c0 1.42-1.05 2.42-2.26 2.42Zm0-6.42a3.94 3.94 0 0 0-4.01 4c0 2.3 1.8 4 4.01 4s4.01-1.7 4.01-4c0-2.32-1.8-4-4-4Zm8.75 6.42c-1.2 0-2.25-1-2.25-2.42 0-1.44 1.04-2.43 2.25-2.43s2.26.99 2.26 2.43c0 1.42-1.05 2.42-2.26 2.42Zm0-6.42a3.94 3.94 0 0 0-4.01 4c0 2.3 1.8 4 4.01 4s4.01-1.7 4.01-4c0-2.32-1.8-4-4-4Z"></path><path fill="#292B2E" fill-rule="evenodd" d="m26.36 20 4.66 4.42 4.24-2.45h.01a2.21 2.21 0 0 0 .01-3.89l-.02-.01-4.25-2.47-4.65 4.4ZM17.25 28.54v.1l8.4-8.64-8.4-8.64v17.18ZM17.36 10.76l8.65 8.89 4.55-4.31-9.95-5.77a2.22 2.22 0 0 0-3.25 1.19ZM17.36 29.26l8.65-8.9 4.55 4.32-9.95 5.77a2.21 2.21 0 0 1-3.25-1.2Z" clip-rule="evenodd"></path></svg>