<svg width="438" height="338" viewBox="0 0 438 338" fill="none" xmlns="http://www.w3.org/2000/svg">
<path d="M434.568 78.6299C438.264 88.177 439.513 99.2551 435.422 108.903C431.343 118.523 424.136 127.687 414.019 131.434C400.72 136.374 387.391 141.235 374.049 146.037C383.416 145.453 393.92 147.419 401.434 153.359C404.054 155.834 406.662 158.317 409.281 160.791C412.935 164.968 415.285 169.715 416.37 175.019C417.78 178.265 418.309 181.653 417.961 185.164C418.526 190.354 417.796 195.383 415.766 200.29C414.143 203.347 412.519 206.405 410.888 209.452C406.584 215.403 401.082 219.854 394.363 222.821C342.979 238.784 291.577 254.744 240.193 270.707L86.022 318.592C57.032 327.593 28.0608 336.595 -0.929251 345.596C-5.75504 347.894 -10.7891 348.876 -16.0313 348.541C-21.2093 349.069 -26.2362 348.301 -31.1498 346.232C-36.3236 344.477 -40.6978 341.592 -44.2536 337.578C-48.545 334.16 -51.7277 329.845 -53.7936 324.643C-57.4896 315.096 -58.7385 304.018 -54.6477 294.37C-53.0245 291.313 -51.4014 288.255 -49.7697 285.208C-47.6446 282.263 -45.2258 279.701 -42.5095 277.486C-54.7569 279.192 -66.9958 280.909 -79.2283 282.655C-89.2323 284.082 -100.382 281.446 -108.656 275.499C-113.32 272.383 -116.876 268.369 -119.315 263.469C-122.497 259.154 -124.406 254.274 -125.042 248.848C-126.176 238.696 -124.559 227.665 -118.111 219.426C-115.659 216.82 -113.199 214.225 -110.747 211.62C-105.115 207.098 -98.745 204.293 -91.5996 203.209C-64.6895 196.617 -37.8447 189.732 -11.0644 182.64C-17.1898 183.883 -23.3152 185.126 -29.449 186.359C-34.6711 187.32 -39.7421 186.984 -44.6997 185.348C-49.8941 184.543 -54.6196 182.494 -58.8764 179.203C-61.4956 176.729 -64.1045 174.246 -66.7236 171.771C-70.3769 167.595 -72.7266 162.847 -73.8124 157.543C-75.2217 154.297 -75.7514 150.909 -75.4035 147.398C-75.9685 142.208 -75.2379 137.179 -73.2078 132.273C-71.5847 129.215 -69.9615 126.158 -68.3298 123.111C-64.0258 117.159 -58.5246 112.708 -51.8054 109.742C-2.02205 80.0842 48.6286 51.9011 100.101 25.2635C114.612 17.7538 129.188 10.3653 143.816 3.10627C148.642 0.807945 153.676 -0.173652 158.918 0.161422C164.096 -0.366828 169.123 0.401427 174.037 2.47025C179.21 4.22497 183.585 7.11016 187.14 11.1237C191.432 14.5422 194.614 18.8575 196.68 24.0592C200.376 33.6064 201.625 44.6843 197.535 54.3319C196.724 55.8513 195.924 57.3622 195.113 58.8815C210.624 55.7436 226.146 52.5972 241.649 49.4488C246.871 48.4877 251.942 48.823 256.9 50.459C262.094 51.2646 266.82 53.3129 271.077 56.6039C273.696 59.0784 276.304 61.5614 278.924 64.0359C282.577 68.2124 284.927 72.9599 286.012 78.2639C287.358 81.3889 287.893 84.6347 287.617 88.0011C307.478 81.9134 327.28 75.6669 347.017 69.2136C358.601 65.437 370.163 61.5914 381.712 57.6873C386.538 55.389 391.582 54.399 396.814 54.7425C401.992 54.2143 407.019 54.9825 411.932 57.0513C417.106 58.806 421.48 61.6912 425.036 65.7048C429.327 69.1233 432.51 73.4385 434.576 78.6403L434.568 78.6299Z" fill="white"/>
</svg>
