<svg xmlns="http://www.w3.org/2000/svg" width="104" height="32" fill="none"><path fill="#E6485C" fill-rule="evenodd" d="M78.06 7.29a1.92 1.92 0 0 0-1.17-.38c-.88 0-1.32.54-1.32 1.63v1.66H79v3.22h-3.42v12.12h-3.43V13.42h-2.32V10.2h2.32V8.1c0-1.4.39-2.52 1.16-3.33a3.81 3.81 0 0 1 2.87-1.21c.93 0 1.68.13 2.25.41.45.22.81.46 1.1.72l-1.46 2.6ZM47.84 25.54h3.88V4.2h-3.88v21.34Zm-7.37-4.1c-.8.9-1.8 1.34-2.99 1.34a3.81 3.81 0 0 1-2.99-1.32 4.9 4.9 0 0 1-1.16-3.37c0-1.35.38-2.47 1.16-3.35a3.81 3.81 0 0 1 3-1.32c1.19 0 2.18.44 2.98 1.32.8.88 1.2 2 1.2 3.35s-.4 2.46-1.2 3.35Zm.99-10.35a7.5 7.5 0 0 0-3.98-1.07 7.52 7.52 0 0 0-6.74 3.99 8.39 8.39 0 0 0-1 4.08c0 1.49.33 2.85 1 4.09a7.56 7.56 0 0 0 6.74 4 7.5 7.5 0 0 0 6.76-4 8.38 8.38 0 0 0 1.01-4.1 8.3 8.3 0 0 0-1.01-4.07 7.72 7.72 0 0 0-2.78-2.92Zm43.88 14.45h-3.88V4.2h3.88v21.34ZM99.2 10.02v7.86c0 1.25-.31 2.22-.94 2.9a3.2 3.2 0 0 1-2.47 1.02c-.95 0-1.7-.28-2.2-.84-.53-.55-.79-1.49-.79-2.8v-8.14h-3.59v8.75c0 2.18.49 3.8 1.45 4.88a5.11 5.11 0 0 0 4 1.6c1.05 0 1.93-.18 2.63-.54.7-.36 1.32-.89 1.88-1.59l.03.1v1.63c0 1.27-.31 2.25-.94 2.94a3.33 3.33 0 0 1-2.59 1.03c-1.5 0-2.48-.57-2.95-1.7l-2.97 1.57c.4.76.94 1.42 1.6 1.97A6.59 6.59 0 0 0 95.67 32c2.24 0 3.98-.65 5.24-1.96 1.25-1.3 1.88-3.04 1.88-5.22v-14.8H99.2ZM63.57 20.38c0 .88-.3 1.57-.88 2.07-.59.5-1.32.76-2.2.76-.83 0-1.48-.18-1.96-.54a1.7 1.7 0 0 1-.72-1.43c0-.63.22-1.12.66-1.45a4.59 4.59 0 0 1 2.09-.72l3.01-.46v1.77Zm1.86-8.93a7.09 7.09 0 0 0-4.54-1.43c-1.79 0-3.2.38-4.2 1.15-1.02.76-1.73 1.9-2.16 3.44l3.26.6c.15-.7.43-1.24.86-1.62.48-.42 1.18-.63 2.12-.63 1.87 0 2.8.93 2.8 2.8v.18l-3.26.46c-2.24.3-3.8.9-4.68 1.8a4.45 4.45 0 0 0-1.33 3.26 4.43 4.43 0 0 0 2.6 4.14c.79.39 1.66.58 2.62.58 1.97 0 3.38-.6 4.24-1.8l.4 1.37h3.07V15.7c0-1.88-.6-3.3-1.8-4.24Zm-52.31 2.07c4.18.83 7.2.44 9.13-1.19V4.2h3.6v21.34h-3.6v-9.42c-1.49.7-3.24 1.05-5.26 1.05-1.2 0-2.49-.12-3.87-.37v8.73H9.5v-9.57c-.48-.14-.96-.28-1.45-.44a12.3 12.3 0 0 0-7.34.19L0 12.53a15.44 15.44 0 0 1 9.5.06V4.2h3.62v9.32Z" clip-rule="evenodd"></path></svg>