<svg width="81" height="11" viewBox="0 0 81 11" fill="none" xmlns="http://www.w3.org/2000/svg">
<path fill-rule="evenodd" clip-rule="evenodd" d="M38.45 0.0278852C33.4787 0.257982 23.9333 2.37318 14.9544 5.23433C14.2304 5.46508 13.2765 5.76924 12.8347 5.91027C6.87727 7.812 3.67331 9.01127 1.43063 10.179C0.555386 10.6348 0.480191 10.6901 0.503352 10.8604C0.537179 11.1089 0.67958 11.0705 2.30365 10.3751C3.98422 9.65561 5.49052 9.13315 9.62163 7.83695C23.4287 3.50475 29.8776 1.91656 37.1112 1.06708C38.5287 0.900598 40.7928 0.929591 40.7928 1.1142C40.7928 1.36079 39.3727 2.20177 36.0848 3.90231C32.0399 5.99442 29.5774 7.3822 29.3594 7.69272C28.9867 8.22331 29.3966 8.60619 30.2834 8.55601C30.7902 8.52734 30.9053 8.50564 33.2287 8.00074C39.8996 6.55112 44.1631 5.81538 49.9411 5.11668C58.7403 4.05263 64.3467 3.66009 74.887 3.36996C78.6744 3.26574 78.8703 3.25119 79.5694 3.023C79.8388 2.93504 80.1607 2.84908 80.2846 2.83193C80.5751 2.79183 80.5715 2.74054 80.2756 2.70271C80.1467 2.68622 79.8505 2.60751 79.6174 2.52777C79.0425 2.33118 78.6613 2.32091 75.3779 2.41347C64.3708 2.72372 58.579 3.12048 50.1866 4.13919C45.7728 4.67494 43.806 4.96604 40.592 5.55931C38.3948 5.96486 32.5953 7.14555 31.7829 7.35264C31.3396 7.46565 33.2638 6.39964 36.6434 4.65983C40.9185 2.45905 41.7696 1.86132 41.7736 1.05723C41.7781 0.150508 41.0011 -0.090137 38.45 0.0278852Z" fill="#292B2E"/>
</svg>
