<svg width="1224" height="492" viewBox="0 0 1224 492" fill="none" xmlns="http://www.w3.org/2000/svg">
<g clip-path="url(#clip0_184_54724)">
<path d="M0 32C0 14.3269 14.3269 0 32 0H1192C1209.67 0 1224 14.3269 1224 32V460C1224 477.673 1209.67 492 1192 492H32C14.3269 492 0 477.673 0 460V32Z" fill="#FFF8EC"/>
<path opacity="0.5" d="M1020.49 297.773C1032.08 304.76 1044.08 305.216 1057.11 299.596C1057.11 301.57 1057.11 302.937 1057.11 304.152C1057.11 323.442 1058.14 342.733 1061.04 362.023C1062.9 374.63 1065.59 387.085 1070.97 399.084C1072.83 403.489 1075.31 407.742 1078.21 411.843C1080.07 414.577 1082.97 417.159 1086.07 419.285C1093.11 423.994 1102.42 424.146 1110.28 420.197C1114.62 418.07 1118.14 415.184 1120.62 411.995C1124.97 406.375 1129.1 400.755 1132.62 394.831C1142.14 378.883 1149.38 362.326 1156.21 345.77C1164.69 325.417 1172.76 305.064 1181.03 284.71C1181.44 283.495 1182.07 282.128 1182.89 280.305C1183.93 281.672 1184.55 282.584 1185.17 283.495C1187.86 287.141 1191.58 289.723 1197.37 289.875C1203.58 290.026 1207.93 287.748 1210.61 283.951C1212.68 280.913 1214.55 277.42 1215.79 274.078C1220.96 260.56 1223.86 246.738 1226.75 232.916C1232.13 206.487 1235.85 179.906 1237.3 153.173C1238.54 130.389 1238.54 107.758 1233.79 85.126C1231.92 76.6201 1229.44 68.1143 1224.89 60.216C1222.41 55.963 1219.51 51.862 1215.17 48.3685C1205.44 40.3183 1192.2 38.4956 1179.17 43.508C1172.55 46.0901 1166.96 49.7355 1162 53.8366C1152.27 61.8868 1144.83 71.1521 1138.21 80.5693C1137.17 82.0882 1135.93 83.759 1134.07 85.2779C1134.07 84.3666 1134.07 83.4552 1134.07 82.6958C1135.1 67.2029 1135.31 51.5582 1132.41 36.0654C1131.17 29.0784 1129.1 22.2433 1125.38 15.5601C1122.69 10.8515 1119.38 6.29479 1114.42 2.64941C1105.31 -4.03378 1094.55 -6.16024 1082.14 -3.72999C1075.11 -2.36298 1068.9 0.0672691 1063.52 3.71264C1057.11 7.96558 1050.7 12.2185 1045.32 17.079C1036.42 25.1292 1028.56 33.6351 1020.08 41.9891C1018.84 43.2042 1017.8 44.2674 1015.73 46.242C1015.53 44.4193 1015.32 43.508 1015.32 42.4448C1015.32 33.3313 1015.53 24.2179 1014.91 15.1044C1014.7 10.092 1013.46 4.92777 1012.01 -0.0846218C1011.18 -3.12243 1009.53 -6.16025 1007.46 -8.89428C1000.42 -18.4634 987.597 -21.805 973.736 -17.8558C966.288 -15.7294 960.082 -12.084 954.289 -7.98294C952.221 -6.61592 950.359 -5.09701 947.876 -3.27433C947.669 -4.48945 947.462 -5.24891 947.462 -6.00836C947.255 -9.50184 947.255 -12.9953 946.635 -16.4888C946.221 -18.9191 945.187 -21.5012 943.738 -23.7796C939.394 -30.3109 930.084 -32.7411 921.188 -29.7033C917.671 -28.4882 914.154 -26.6655 911.672 -24.6909C907.12 -20.8936 902.569 -16.9445 899.052 -12.5397C892.018 -3.57811 885.191 5.38343 879.192 14.8007C870.709 29.0784 862.848 43.3561 854.573 57.4819C853.125 59.9122 851.676 62.4943 849.814 64.7727C832.643 85.2779 820.23 107.454 810.507 130.238C794.37 167.603 784.026 205.879 779.475 245.067C777.613 260.863 777.199 276.66 780.096 292.305C781.13 298.38 782.785 304.304 786.302 309.924C788.164 312.81 790.233 315.848 793.129 318.278C799.956 324.354 810.507 325.873 820.024 322.075C823.954 320.556 827.678 318.582 830.574 316.152C836.781 311.139 842.574 305.823 847.746 300.203C858.09 289.115 866.572 277.268 874.847 265.42C875.675 264.205 876.502 263.142 878.364 261.927C878.571 263.446 878.778 264.813 879.192 266.332C880.019 269.217 880.64 272.103 881.881 274.837C887.053 285.318 900.914 287.292 911.051 279.09C914.154 276.508 917.051 273.47 919.326 270.433C924.292 263.749 928.843 256.762 933.187 249.927C936.911 243.852 940.428 237.776 944.773 231.549C944.98 232.46 945.187 233.523 945.187 234.435C946.221 250.991 947.876 267.395 951.807 283.647C953.876 292.153 956.151 300.659 960.703 308.709C962.771 312.202 965.047 315.848 968.15 318.886C976.219 326.784 988.838 327.543 998.976 321.012C1002.08 318.886 1004.98 316.455 1007.46 313.873C1011.39 309.62 1014.49 305.064 1018.01 300.659C1018.84 299.899 1019.66 298.988 1020.49 297.773Z" fill="#FFEAC0"/>
<path d="M1056.26 -4.36013C1055.32 -5.03783 1054.56 -5.59668 1053.71 -6.10742C1049.26 -8.64837 1044.47 -9.65834 1039.33 -9.91415C1032.16 -10.2222 1025.27 -8.90591 1018.5 -6.77747C1007.34 -3.22253 997.161 2.43209 987.879 9.45774C974.098 19.8582 962.813 32.4843 953.797 47.1335C948.76 55.3743 944.69 63.9462 942.384 73.2764C941.545 76.6496 941.051 80.0454 940.689 83.4767C940.502 85.4731 940.924 87.5629 941.214 89.6174C941.299 90.3461 941.384 91.0748 940.717 91.4597C940.169 91.6649 939.359 91.7993 938.834 91.6579C937.606 91.2561 936.984 90.1709 936.874 89.0121C936.524 86.6591 935.959 84.3188 936.169 81.9757C936.423 78.1624 937.023 74.3718 937.969 70.6038C939.492 63.3919 942.41 56.4854 945.996 49.9709C958.595 27.2535 975.936 9.13158 998.615 -3.73989C1008.75 -9.478 1019.54 -13.4857 1031.18 -14.6523C1041.37 -15.6461 1050.99 -14.5346 1059.67 -8.10139C1060.32 -8.70136 1060.84 -9.33669 1061.41 -9.88854C1068.4 -17.2522 1076.06 -24.0089 1084.6 -29.6097C1092.9 -35.0661 1101.73 -39.3892 1111.53 -41.266C1114.64 -41.8392 1117.81 -42.1139 1120.91 -42.1254C1136.11 -41.907 1146.96 -33.0558 1150.56 -18.2502C1151.86 -12.8892 1152.08 -7.46434 1151.8 -1.96593C1151.16 8.73237 1148.53 19.0318 1144.97 29.0836C1144.01 31.8597 1142.87 34.517 1141.83 37.3413C1141.61 37.9158 1141.46 38.4421 1141.17 39.2798C1142.16 39.2641 1143.06 39.2966 1143.84 39.2938C1151.27 39.1108 1158.61 40.0994 1165.49 43.0138C1174.09 46.6029 1180.75 52.4221 1184.94 60.8916C1187.38 65.9258 1188.59 71.1199 1188.91 76.7117C1189.41 85.5295 1187.75 94.0446 1185 102.408C1184.64 103.509 1184.27 104.61 1183.78 105.891C1184.7 106.138 1185.57 106.302 1186.36 106.514C1194.43 108.409 1201.45 112.135 1206.69 118.772C1210.54 123.55 1212.71 129.075 1213.83 135.094C1215.26 142.821 1214.84 150.4 1213.34 158.042C1211.32 168.649 1207.51 178.631 1202.41 188.126C1202.07 188.881 1201.64 189.683 1201.18 190.617C1202.18 190.816 1202.92 190.945 1203.79 191.109C1212.69 192.522 1221.49 194.33 1229.94 197.453C1233.85 198.861 1237.61 200.58 1241.33 202.431C1244.08 203.735 1246.59 205.614 1248.63 207.996C1250.19 209.759 1250.66 211.156 1250.56 213.104C1250.42 213.069 1250.21 213.082 1250.21 213.082C1248.89 210.397 1246.6 208.721 1244.11 207.272C1240.28 205.04 1236.19 203.513 1232.02 202.25C1221.37 198.955 1210.4 196.845 1199.34 195.344C1199.13 195.357 1198.91 195.37 1198.43 195.312C1198.08 195.851 1197.64 196.438 1197.25 197.109C1187.02 213.125 1174.2 226.748 1158.72 237.681C1150.54 243.52 1141.73 248.273 1131.92 250.711C1128.44 251.609 1125.02 252.028 1121.45 251.981C1118.73 251.884 1116.12 251.391 1113.65 250.373C1108.17 247.979 1105.09 243.76 1104.58 237.834C1104.21 233.713 1105.24 229.896 1106.83 226.09C1110.13 218.298 1115.28 211.993 1121.59 206.568C1135.8 194.588 1152.28 188.516 1170.79 188.495C1178.11 188.491 1185.56 189.3 1192.9 189.727C1193.73 189.808 1194.55 189.888 1195.37 189.969C1195.57 189.741 1195.74 189.645 1195.86 189.465C1202.19 178.256 1206.93 166.407 1208.78 153.565C1209.82 146.295 1209.84 139.172 1207.76 132.046C1204.24 120.299 1194.8 112.53 1181.87 110.881C1181.56 111.504 1181.14 112.306 1180.79 113.06C1173.9 127.929 1164.84 141.156 1152.88 152.398C1147.89 157.054 1142.62 161.208 1136.51 164.29C1133 166.096 1129.34 167.651 1125.45 168.012C1123.27 168.271 1120.94 168.28 1118.81 167.845C1113.85 166.932 1110.59 163.371 1109.69 158.331C1109.27 155.464 1109.54 152.643 1110.29 149.879C1111.56 145.142 1113.85 140.819 1116.68 136.853C1123.29 127.483 1131.79 120.245 1141.71 114.735C1152.81 108.551 1164.58 105.089 1177.43 105.448C1177.64 105.435 1177.86 105.423 1178.29 105.397C1178.51 104.823 1178.82 104.2 1179.05 103.626C1181.5 96.8762 1183.25 89.8666 1183.65 82.6349C1183.97 77.0049 1183.4 71.5574 1181.46 66.2346C1178.85 58.9663 1174.06 53.5106 1167.39 49.8067C1162.27 46.8739 1156.66 45.2216 1150.74 44.7536C1147.36 44.4793 1144.01 44.6351 1140.65 44.5759C1139.19 44.5335 1138.37 45.2297 1137.71 46.6064C1133.35 56.016 1128.26 64.9501 1122.51 73.4923C1113.84 86.6106 1104.04 98.9323 1092.38 109.552C1086.7 114.724 1080.68 119.311 1073.77 122.743C1070.29 124.417 1066.71 125.709 1062.8 125.855C1056.48 126.058 1052.22 122.297 1051.6 115.989C1051.37 114.234 1051.44 112.417 1051.77 110.671C1052.3 107.92 1053.01 105.288 1053.98 102.727C1056.15 97.0306 1059.33 91.7485 1062.97 86.8711C1075.63 69.6748 1091.52 56.3863 1111.03 47.4584C1118.25 44.181 1125.86 41.7865 1133.66 40.5027C1134.77 40.3074 1135.61 40.0413 1136.1 38.7608C1140.38 28.6226 1144.06 18.3911 1145.93 7.5328C1147.04 1.33819 1147.58 -4.8663 1147.01 -11.0905C1146.72 -14.6986 1146 -18.2811 1144.64 -21.6104C1141.26 -30.2143 1135.03 -35.2822 1126.02 -37.0773C1119.53 -38.3319 1113.17 -37.4359 1106.9 -35.5961C1098.56 -33.1153 1091.05 -29.0002 1083.98 -23.9188C1076.66 -18.6931 1070.12 -12.6934 1064.04 -6.07406C1063.68 -5.75002 1063.44 -5.39062 1063.16 -4.89962C1063.45 -4.39875 1063.61 -3.93325 1063.93 -3.56398C1067.34 1.02443 1069.27 6.13221 1069.63 11.8075C1069.89 15.5471 1069.98 19.3829 1069.55 23.0773C1067.62 38.8595 1061.32 52.8295 1051.13 65.0451C1048.75 67.8624 1046.01 70.4419 1042.85 72.2702C1041.85 72.8476 1040.85 73.4249 1039.8 73.9188C1033.2 76.7278 1027.62 73.952 1025.51 67.1718C1024.65 64.3307 1024.53 61.4032 1024.75 58.4984C1025 53.9083 1026.08 49.3989 1027.5 44.9121C1031.03 33.6533 1036.5 23.2717 1043.13 13.555C1046.78 8.11582 1050.96 3.03317 1054.84 -2.2037C1055.13 -3.04135 1055.66 -3.67669 1056.26 -4.36013ZM1192.69 194.186C1189.87 193.921 1187.41 193.679 1184.85 193.486C1176.64 192.895 1168.44 192.519 1160.29 193.78C1144.63 196.264 1130.98 202.816 1119.83 214.139C1115.68 218.313 1112.34 223.13 1110.34 228.73C1109.33 231.423 1108.67 234.138 1108.93 237.101C1109.34 241.306 1111.32 244.382 1115.37 245.825C1117.3 246.487 1119.4 247.053 1121.46 246.974C1124.43 246.927 1127.47 246.617 1130.4 245.925C1138.68 243.922 1146.2 240.022 1153.25 235.287C1168.63 224.965 1181.3 211.867 1191.52 196.413C1191.83 195.79 1192.09 195.084 1192.69 194.186ZM1132.61 45.4423C1131.88 45.5286 1131.54 45.506 1131.16 45.615C1125.33 46.8675 1119.71 48.669 1114.29 51.0195C1100.56 57.0578 1088.48 65.5877 1077.94 76.2271C1070.87 83.4239 1064.68 91.2148 1060.26 100.326C1058.83 103.259 1057.77 106.43 1056.91 109.588C1056.38 111.562 1056.37 113.677 1056.58 115.78C1056.89 118.826 1058.92 120.432 1061.93 120.469C1063.4 120.511 1064.8 120.255 1066.24 119.867C1070.4 118.8 1074.12 116.766 1077.64 114.399C1083.03 110.842 1088 106.748 1092.56 102.118C1108.81 85.96 1121.64 67.329 1132.01 46.9025C1132.16 46.5912 1132.35 46.1483 1132.61 45.4423ZM1176.1 110.102C1175.41 110.057 1174.89 109.915 1174.37 109.989C1171.93 110.177 1169.48 110.15 1167.05 110.554C1152.53 112.711 1140.03 119.151 1129.23 128.943C1123.99 133.743 1119.61 139.053 1116.53 145.494C1115.11 148.427 1114.08 151.467 1113.88 154.802C1113.68 160.252 1116.57 163.36 1122.04 163.424C1125.06 163.46 1127.97 162.553 1130.75 161.396C1136.89 158.959 1142.18 155.019 1147.09 150.627C1159.33 139.671 1168.52 126.479 1175.46 111.694C1175.7 111.334 1175.84 110.808 1176.1 110.102ZM1059.58 -1.27719C1059.1 -0.773452 1058.73 -0.449421 1058.44 -0.173494C1048.94 11.3106 1040.74 23.7101 1034.86 37.4394C1032.39 43.1969 1030.32 49.0605 1029.47 55.3258C1029.07 58.1118 1028.98 61.0521 1029.36 63.8352C1030.14 69.8316 1033.89 71.5505 1039.24 68.6864C1042.62 66.8454 1045.36 64.2658 1047.77 61.317C1056.7 50.3847 1062.36 38.0066 1064.57 24.0638C1065.39 18.9219 1065.44 13.7829 1064.29 8.67229C1063.48 5.13785 1062.05 1.85673 1059.58 -1.27719Z" fill="white"/>
</g>
<defs>
<clipPath id="clip0_184_54724">
<path d="M0 32C0 14.3269 14.3269 0 32 0H1192C1209.67 0 1224 14.3269 1224 32V460C1224 477.673 1209.67 492 1192 492H32C14.3269 492 0 477.673 0 460V32Z" fill="white"/>
</clipPath>
</defs>
</svg>
