<svg width="24" height="24" viewBox="0 0 24 24" fill="none" xmlns="http://www.w3.org/2000/svg">
<g clip-path="url(#clip0_6144_24337)">
<g clip-path="url(#clip1_6144_24337)">
<mask id="mask0_6144_24337" style="mask-type:luminance" maskUnits="userSpaceOnUse" x="-4" y="0" width="32" height="24">
<rect x="-4" width="32" height="24" fill="white"/>
</mask>
<g mask="url(#mask0_6144_24337)">
<path fill-rule="evenodd" clip-rule="evenodd" d="M-4 0V24H28V0H-4Z" fill="#F7FCFF"/>
<mask id="mask1_6144_24337" style="mask-type:luminance" maskUnits="userSpaceOnUse" x="-4" y="0" width="32" height="24">
<path fill-rule="evenodd" clip-rule="evenodd" d="M-4 0V24H28V0H-4Z" fill="white"/>
</mask>
<g mask="url(#mask1_6144_24337)">
<path fill-rule="evenodd" clip-rule="evenodd" d="M-4 0V8H28V0H-4Z" fill="#E31D1C"/>
<path fill-rule="evenodd" clip-rule="evenodd" d="M-4 16V24H28V16H-4Z" fill="#3D58DB"/>
<rect x="8.57617" y="8.58887" width="7.78537" height="2.73171" fill="#E31D1C"/>
<path d="M9.14917 10.5173H15.7115C15.7204 11.0518 15.7233 11.8677 15.7232 12.6621C15.7232 13.2313 15.7217 13.7794 15.7202 14.1852C15.7194 14.3881 15.7187 14.5554 15.7181 14.6719L15.7175 14.8067L15.7174 14.8116C15.7146 14.8276 15.7105 14.8496 15.7048 14.8771C15.6901 14.9473 15.665 15.0519 15.6249 15.1794C15.5441 15.4359 15.4055 15.775 15.1755 16.1108C14.7309 16.7599 13.9224 17.4375 12.3823 17.4375C10.8455 17.4375 10.0806 16.762 9.67446 16.1234C9.46276 15.7906 9.3411 15.4536 9.27285 15.1977C9.23897 15.0707 9.21898 14.9664 9.2077 14.8964C9.20207 14.8615 9.19865 14.8354 9.19677 14.8195L9.19659 14.818L9.19633 14.7965L9.19471 14.6625L9.18891 14.1786C9.18411 13.7751 9.17771 13.2298 9.17132 12.6623C9.16254 11.8843 9.15381 11.0678 9.14917 10.5173Z" fill="#F7FCFF" stroke="#E31D1C" stroke-width="1.125"/>
<mask id="mask2_6144_24337" style="mask-type:luminance" maskUnits="userSpaceOnUse" x="8" y="9" width="9" height="9">
<path d="M9.14917 10.5173H15.7115C15.7204 11.0518 15.7233 11.8677 15.7232 12.6621C15.7232 13.2313 15.7217 13.7794 15.7202 14.1852C15.7194 14.3881 15.7187 14.5554 15.7181 14.6719L15.7175 14.8067L15.7174 14.8116C15.7146 14.8276 15.7105 14.8496 15.7048 14.8771C15.6901 14.9473 15.665 15.0519 15.6249 15.1794C15.5441 15.4359 15.4055 15.775 15.1755 16.1108C14.7309 16.7599 13.9224 17.4375 12.3823 17.4375C10.8455 17.4375 10.0806 16.762 9.67446 16.1234C9.46276 15.7906 9.3411 15.4536 9.27285 15.1977C9.23897 15.0707 9.21898 14.9664 9.2077 14.8964C9.20207 14.8615 9.19865 14.8354 9.19677 14.8195L9.19659 14.818L9.19633 14.7965L9.19471 14.6625L9.18891 14.1786C9.18411 13.7751 9.17771 13.2298 9.17132 12.6623C9.16254 11.8843 9.15381 11.0678 9.14917 10.5173Z" fill="white" stroke="white" stroke-width="1.125"/>
</mask>
<g mask="url(#mask2_6144_24337)">
<path fill-rule="evenodd" clip-rule="evenodd" d="M8.86431 10.3938H10.3049V11.8565H11.7454V10.3938H13.1859V11.8565H14.6265L14.6265 10.3938H16.067V11.8566H14.6265L14.6265 13.3193H13.1859V11.8566H11.7454V13.3193H10.3048V11.8566H8.86431V10.3938ZM11.7454 14.7821H10.3048V13.3193H8.86426V14.7821H10.3048V16.2448H11.7454V14.7821H13.1859V16.2448H14.6265L14.6265 14.7821H16.067V13.3193H14.6265L14.6265 14.7821H13.1859V13.3193H11.7454V14.7821ZM16.067 16.2449H14.6265V17.7076H16.067V16.2449ZM11.7454 16.2449H13.1859V17.7076H11.7454V16.2449ZM10.3048 16.2449H8.86426V17.7076H10.3048V16.2449Z" fill="#E31D1C"/>
</g>
<path fill-rule="evenodd" clip-rule="evenodd" d="M8.83334 9.79462C8.83334 9.79462 9.2789 9.55662 9.65894 9.43397C10.039 9.31131 10.3394 9.2443 10.3394 9.2443L9.77393 7.15994L8.64142 6.73682L8 7.79406L8.83334 9.79462Z" fill="#56C6F5" stroke="white" stroke-width="0.5"/>
<path fill-rule="evenodd" clip-rule="evenodd" d="M11.6249 9.0523C11.6249 9.0523 12.0049 9.01838 12.4042 9.02614C12.8035 9.0339 13.1412 9.03674 13.1412 9.03674L13.3362 6.98148L12.481 6.20882L11.5303 6.99964L11.6249 9.0523Z" fill="#56C6F5" stroke="white" stroke-width="0.5"/>
<path d="M10.0683 9.26881L10.1403 9.51351L10.3835 9.43658L10.3835 9.43658L10.3835 9.43658L10.3835 9.43657L10.3836 9.43653L10.3844 9.43629L10.3878 9.43523L10.4014 9.431L10.453 9.41529C10.4971 9.40205 10.5587 9.38401 10.6281 9.3649C10.7705 9.3257 10.9336 9.28549 11.0489 9.26947C11.1725 9.2523 11.3279 9.23958 11.4558 9.23112C11.519 9.22693 11.5742 9.22387 11.6135 9.22186L11.6594 9.21963L11.6714 9.21909L11.6744 9.21897L11.6751 9.21894L11.6753 9.21893L11.6753 9.21893L11.6753 9.21893H11.6753L11.9366 9.2082L11.9141 8.94765L11.7418 6.95049L11.7319 6.83517L11.6375 6.76815L10.7069 6.10721L10.5315 5.98267L10.3822 6.13747L9.53638 7.01429L9.43542 7.11895L9.47648 7.25845L10.0683 9.26881Z" fill="#2E42A5" stroke="white" stroke-width="0.5"/>
<mask id="mask3_6144_24337" style="mask-type:luminance" maskUnits="userSpaceOnUse" x="9" y="5" width="4" height="5">
<path d="M10.0683 9.26881L10.1403 9.51351L10.3835 9.43658L10.3835 9.43658L10.3835 9.43658L10.3835 9.43657L10.3836 9.43653L10.3844 9.43629L10.3878 9.43523L10.4014 9.431L10.453 9.41529C10.4971 9.40205 10.5587 9.38401 10.6281 9.3649C10.7705 9.3257 10.9336 9.28549 11.0489 9.26947C11.1725 9.2523 11.3279 9.23958 11.4558 9.23112C11.519 9.22693 11.5742 9.22387 11.6135 9.22186L11.6594 9.21963L11.6714 9.21909L11.6744 9.21897L11.6751 9.21894L11.6753 9.21893L11.6753 9.21893L11.6753 9.21893H11.6753L11.9366 9.2082L11.9141 8.94765L11.7418 6.95049L11.7319 6.83517L11.6375 6.76815L10.7069 6.10721L10.5315 5.98267L10.3822 6.13747L9.53638 7.01429L9.43542 7.11895L9.47648 7.25845L10.0683 9.26881Z" fill="white" stroke="white" stroke-width="0.5"/>
</mask>
<g mask="url(#mask3_6144_24337)">
</g>
<path d="M14.7719 9.26336L14.7039 9.51528L14.4551 9.43658L14.4551 9.43658L14.4551 9.43658L14.4551 9.43657L14.455 9.43653L14.4542 9.43629L14.4509 9.43523L14.4372 9.431L14.3856 9.41529C14.3415 9.40205 14.28 9.38401 14.2105 9.3649C14.0681 9.3257 13.9051 9.28549 13.7897 9.26947C13.6661 9.2523 13.5107 9.23958 13.3828 9.23112C13.3196 9.22693 13.2644 9.22387 13.2251 9.22186L13.1793 9.21963L13.1672 9.21909L13.1642 9.21897L13.1635 9.21894L13.1633 9.21893L13.1633 9.21893L13.1633 9.21893H13.1633L12.902 9.2082L12.9245 8.94765L13.0968 6.95049L13.1068 6.83517L13.2011 6.76815L14.1318 6.10721L14.3121 5.97916L14.4612 6.14248L15.2586 7.01599L15.3511 7.11727L15.3153 7.24968L14.7719 9.26336Z" fill="#2E42A5" stroke="white" stroke-width="0.5"/>
<mask id="mask4_6144_24337" style="mask-type:luminance" maskUnits="userSpaceOnUse" x="12" y="5" width="4" height="5">
<path d="M14.7719 9.26336L14.7039 9.51528L14.4551 9.43658L14.4551 9.43658L14.4551 9.43658L14.4551 9.43657L14.455 9.43653L14.4542 9.43629L14.4509 9.43523L14.4372 9.431L14.3856 9.41529C14.3415 9.40205 14.28 9.38401 14.2105 9.3649C14.0681 9.3257 13.9051 9.28549 13.7897 9.26947C13.6661 9.2523 13.5107 9.23958 13.3828 9.23112C13.3196 9.22693 13.2644 9.22387 13.2251 9.22186L13.1793 9.21963L13.1672 9.21909L13.1642 9.21897L13.1635 9.21894L13.1633 9.21893L13.1633 9.21893L13.1633 9.21893H13.1633L12.902 9.2082L12.9245 8.94765L13.0968 6.95049L13.1068 6.83517L13.2011 6.76815L14.1318 6.10721L14.3121 5.97916L14.4612 6.14248L15.2586 7.01599L15.3511 7.11727L15.3153 7.24968L14.7719 9.26336Z" fill="white" stroke="white" stroke-width="0.5"/>
</mask>
<g mask="url(#mask4_6144_24337)">
</g>
<path d="M16.3497 9.8421L16.2418 10.0908L16.0027 9.96311L16.0026 9.9631L16.0026 9.96309L16.0025 9.96304L16.0018 9.96266L15.9985 9.96092L15.9848 9.95373C15.9727 9.94738 15.9546 9.93803 15.9316 9.92637C15.8857 9.90304 15.8204 9.87058 15.7436 9.83442C15.5883 9.76128 15.393 9.67633 15.218 9.61984C15.0334 9.56027 14.868 9.51415 14.7488 9.48295C14.6893 9.46737 14.6415 9.45557 14.6088 9.44772L14.5717 9.43894L14.5625 9.43683L14.5604 9.43635L14.5599 9.43626L14.5599 9.43626L14.5599 9.43625L14.5599 9.43625L14.5599 9.43625L14.3015 9.3786L14.3739 9.1239L14.9517 7.09158L14.9862 6.96999L15.1046 6.92575L16.2372 6.50263L16.431 6.43019L16.5384 6.60714L17.1798 7.66438L17.2469 7.77495L17.1954 7.89359L16.3497 9.8421Z" fill="#56C6F5" stroke="white" stroke-width="0.5"/>
<mask id="mask5_6144_24337" style="mask-type:luminance" maskUnits="userSpaceOnUse" x="13" y="6" width="5" height="5">
<path d="M16.3497 9.8421L16.2418 10.0908L16.0027 9.96311L16.0026 9.9631L16.0026 9.96309L16.0025 9.96304L16.0018 9.96266L15.9985 9.96092L15.9848 9.95373C15.9727 9.94738 15.9546 9.93803 15.9316 9.92637C15.8857 9.90304 15.8204 9.87058 15.7436 9.83442C15.5883 9.76128 15.393 9.67633 15.218 9.61984C15.0334 9.56027 14.868 9.51415 14.7488 9.48295C14.6893 9.46737 14.6415 9.45557 14.6088 9.44772L14.5717 9.43894L14.5625 9.43683L14.5604 9.43635L14.5599 9.43626L14.5599 9.43626L14.5599 9.43625L14.5599 9.43625L14.5599 9.43625L14.3015 9.3786L14.3739 9.1239L14.9517 7.09158L14.9862 6.96999L15.1046 6.92575L16.2372 6.50263L16.431 6.43019L16.5384 6.60714L17.1798 7.66438L17.2469 7.77495L17.1954 7.89359L16.3497 9.8421Z" fill="white" stroke="white" stroke-width="0.5"/>
</mask>
<g mask="url(#mask5_6144_24337)">
</g>
</g>
</g>
</g>
<g style="mix-blend-mode:hard-light" opacity="0.12">
<rect width="24" height="24" rx="12" fill="white"/>
</g>
<rect width="24" height="24" fill="url(#paint0_linear_6144_24337)" fill-opacity="0.64" style="mix-blend-mode:overlay"/>
</g>
<defs>
<linearGradient id="paint0_linear_6144_24337" x1="24" y1="1.19273e-06" x2="-4.48665" y2="16.0237" gradientUnits="userSpaceOnUse">
<stop stop-color="white" stop-opacity="0.3"/>
<stop offset="0.262741" stop-opacity="0.27"/>
<stop offset="0.369956" stop-color="white" stop-opacity="0.26"/>
<stop offset="0.487001" stop-opacity="0.55"/>
<stop offset="0.594445" stop-opacity="0.24"/>
<stop offset="0.736408" stop-color="white" stop-opacity="0.3"/>
<stop offset="0.901459" stop-color="#272727" stop-opacity="0.22"/>
<stop offset="1" stop-opacity="0.2"/>
</linearGradient>
<clipPath id="clip0_6144_24337">
<rect width="24" height="24" rx="12" fill="white"/>
</clipPath>
<clipPath id="clip1_6144_24337">
<rect width="24" height="24" fill="white"/>
</clipPath>
</defs>
</svg>
