<svg width="24" height="24" viewBox="0 0 24 24" fill="none" xmlns="http://www.w3.org/2000/svg">
<g clip-path="url(#clip0_6144_24370)">
<g clip-path="url(#clip1_6144_24370)">
<mask id="mask0_6144_24370" style="mask-type:luminance" maskUnits="userSpaceOnUse" x="-4" y="0" width="32" height="24">
<rect x="-4" width="32" height="24" fill="white"/>
</mask>
<g mask="url(#mask0_6144_24370)">
<path fill-rule="evenodd" clip-rule="evenodd" d="M-4 0H28V24H-4V0Z" fill="#F7FCFF"/>
<rect x="-3.9729" y="5.5" width="32" height="3" fill="#D83332"/>
<path fill-rule="evenodd" clip-rule="evenodd" d="M-4 0H28V3H-4V0Z" fill="#D83332"/>
<rect x="-4.05884" y="11" width="32" height="3" fill="#D83332"/>
<rect x="-3.88818" y="16.3999" width="32" height="3" fill="#D83332"/>
<rect x="-3.89844" y="21.5" width="32" height="3" fill="#D83332"/>
<path fill-rule="evenodd" clip-rule="evenodd" d="M-4 0H12V14H-4V0Z" fill="#465BC5"/>
<path fill-rule="evenodd" clip-rule="evenodd" d="M4.12683 9.24812C4.03649 9.19971 3.92757 9.20133 3.83872 9.25241L1.73907 10.4594C1.50279 10.5953 1.22371 10.3675 1.30936 10.1088L1.97884 8.08661C2.01545 7.97605 1.98401 7.85429 1.89845 7.77528L0.495891 6.4799C0.299356 6.29838 0.424401 5.96994 0.691891 5.96508L2.63334 5.92986C2.74947 5.92775 2.85369 5.85811 2.90008 5.75163L3.80325 3.67828C3.90878 3.43602 4.25445 3.44206 4.35146 3.68785L5.17896 5.78443C5.22301 5.89603 5.32991 5.97014 5.44987 5.97224L7.36823 6.00572C7.63691 6.01041 7.76156 6.34122 7.56279 6.52205L6.11397 7.84007C6.02512 7.92089 5.99375 8.0473 6.03449 8.1603L6.71503 10.0479C6.80729 10.3038 6.53539 10.5387 6.29562 10.4102L4.12683 9.24812Z" fill="#F7FCFF"/>
</g>
</g>
<g style="mix-blend-mode:hard-light" opacity="0.12">
<rect width="24" height="24" rx="12" fill="white"/>
</g>
<rect width="24" height="24" fill="url(#paint0_linear_6144_24370)" fill-opacity="0.64" style="mix-blend-mode:overlay"/>
</g>
<defs>
<linearGradient id="paint0_linear_6144_24370" x1="24" y1="1.19273e-06" x2="-4.48665" y2="16.0237" gradientUnits="userSpaceOnUse">
<stop stop-color="white" stop-opacity="0.3"/>
<stop offset="0.262741" stop-opacity="0.27"/>
<stop offset="0.369956" stop-color="white" stop-opacity="0.26"/>
<stop offset="0.487001" stop-opacity="0.55"/>
<stop offset="0.594445" stop-opacity="0.24"/>
<stop offset="0.736408" stop-color="white" stop-opacity="0.3"/>
<stop offset="0.901459" stop-color="#272727" stop-opacity="0.22"/>
<stop offset="1" stop-opacity="0.2"/>
</linearGradient>
<clipPath id="clip0_6144_24370">
<rect width="24" height="24" rx="12" fill="white"/>
</clipPath>
<clipPath id="clip1_6144_24370">
<rect width="24" height="24" fill="white"/>
</clipPath>
</defs>
</svg>
