<svg width="24" height="24" viewBox="0 0 24 24" fill="none" xmlns="http://www.w3.org/2000/svg">
<g clip-path="url(#clip0_6144_24369)">
<g clip-path="url(#clip1_6144_24369)">
<mask id="mask0_6144_24369" style="mask-type:luminance" maskUnits="userSpaceOnUse" x="-4" y="0" width="32" height="24">
<rect x="-4" width="32" height="24" fill="white"/>
</mask>
<g mask="url(#mask0_6144_24369)">
<path fill-rule="evenodd" clip-rule="evenodd" d="M-4 0H28V24H-4V0Z" fill="#FECA00"/>
<rect x="-2" y="2" width="6" height="20" fill="#1F8A6E"/>
<rect x="4" y="2" width="6" height="20" fill="#F56800"/>
<rect x="10" y="2" width="16" height="20" fill="#B01D00"/>
<rect x="8" y="2" width="2" height="20" fill="#E8AA00"/>
<path fill-rule="evenodd" clip-rule="evenodd" d="M13.1003 6.17334C13.1003 6.17334 11.8265 6.16964 11.8265 8.38745V11.6396C11.8265 11.6396 11.2202 11.7477 11.2202 12.1244C11.2202 12.501 11.3487 12.8306 11.5876 12.8306C11.8265 12.8306 12.0655 13.9355 11.8265 13.9355C11.5876 13.9355 11.3487 14.4096 11.5876 14.4096C11.6448 14.4096 11.6883 14.4019 11.7214 14.396C11.7561 14.3898 11.7794 14.3856 11.795 14.3947C11.8265 14.413 11.8265 14.4855 11.8265 14.7048C11.8265 15.1353 11.5876 15.3094 11.5876 15.3094C11.5876 15.3094 11.3626 15.2466 11.3626 15.5C11.3626 15.7534 11.5876 15.8175 11.5876 15.8175C11.5876 15.8175 11.7165 15.8732 11.4683 15.9932C11.2202 16.1132 11.2202 16.1712 11.2202 16.1712H11.8265L12.1302 16.7267L12.42 16.1712H13.0185C13.0185 16.1712 12.7171 15.9784 12.6818 15.938C12.6464 15.8976 12.6037 15.8386 12.6818 15.771C12.7045 15.7513 12.7379 15.7363 12.7737 15.7201C12.8606 15.6809 12.9621 15.635 12.9621 15.5C12.9621 15.3094 12.5801 15.3094 12.5801 15.3094C12.5801 15.3094 12.347 14.8885 12.42 14.7048C12.4404 14.6534 12.452 14.6076 12.462 14.5684C12.4877 14.4674 12.5024 14.4096 12.6277 14.4096C12.8017 14.4096 12.9016 14.19 12.6818 13.9355C12.6818 13.9355 12.9337 14.2064 12.8597 14.5579C12.7857 14.9095 12.9367 15.0687 13.0185 15.0687C13.1003 15.0687 13.2304 14.9478 13.2304 14.9478C13.2304 14.9478 13.9098 15.5553 14.2085 15.5553C14.5071 15.5553 14.9352 15.0687 14.9352 15.0687L15.5499 15.4139C15.5499 15.4139 15.9998 16.0442 15.9335 16.4775C15.8671 16.9108 15.6107 17.1522 15.3089 17.0852C15.0071 17.0182 14.5162 17.1557 14.4788 17.3426C14.4732 17.3709 14.4648 17.4053 14.4555 17.4432C14.4038 17.6553 14.3265 17.9729 14.5631 17.8945C14.8418 17.8022 14.8964 17.7314 14.8964 17.7314C14.8964 17.7314 14.8598 17.8945 15.0843 17.8945C15.3089 17.8945 15.3738 17.7314 15.3738 17.7314C15.3738 17.7314 15.6066 17.8945 15.77 17.8945C15.9335 17.8945 16.1165 17.7688 16.1165 17.7688C16.1165 17.7688 16.237 17.9556 16.5036 17.8945C16.7701 17.8335 16.9715 17.1379 16.7777 16.9821C16.7777 16.9821 17.4206 16.8888 17.5856 16.3299C17.5856 16.3299 16.9637 16.3207 17.0278 15.938C17.0919 15.5553 17.4203 15.3094 17.4203 15.3094C17.4203 15.3094 18.3661 14.8516 18.773 14.7048C19.1799 14.5579 19.8562 14.4096 20.0238 14.4096C20.0921 14.4096 20.1408 14.5688 20.2068 14.7846C20.303 15.0991 20.4359 15.5337 20.7196 15.771C21.1979 16.1712 20.8718 17.0852 20.8718 17.0852C20.8718 17.0852 19.8073 17.1925 19.8073 17.4806C19.8073 17.7688 19.8245 17.8945 20.0238 17.8945C20.2232 17.8945 20.2192 17.7314 20.2192 17.7314C20.2192 17.7314 20.3375 17.8945 20.5285 17.8945C20.7196 17.8945 20.8718 17.7314 20.8718 17.7314C20.8718 17.7314 20.9226 17.8945 21.1729 17.8945C21.4232 17.8945 21.4214 17.7314 21.4214 17.7314C21.4214 17.7314 21.4664 17.8945 21.6871 17.8945C21.9077 17.8945 22.3605 17.7314 22.3605 17.7314C22.3605 17.7314 22.4314 17.8945 22.6605 17.8945C22.8896 17.8945 22.895 17.7314 22.895 17.7314C22.895 17.7314 23.0174 17.8945 23.2158 17.8945C23.4142 17.8945 23.5306 17.7314 23.5306 17.7314C23.5306 17.7314 23.8159 17.8945 24.0127 17.8945C24.2095 17.8945 24.1388 17.6 24.0127 17.3426C23.9808 17.2775 23.9438 17.2219 23.9101 17.1711C23.8104 17.021 23.7386 16.913 23.9075 16.7267C23.9553 16.674 24.0101 16.6207 24.065 16.5673L24.065 16.5673C24.2695 16.3684 24.4751 16.1684 24.3245 15.9932C24.2798 15.9412 24.2275 15.9048 24.1748 15.8683C24.0024 15.7485 23.8269 15.6266 23.9075 14.9478C23.9557 14.5413 24.0475 14.2108 24.1326 13.904L24.1326 13.904C24.2332 13.542 24.3245 13.2129 24.3245 12.8306C24.3245 12.1244 23.9075 11.3168 23.9075 11.3168C23.9075 11.3168 24.469 10.9249 24.469 10.1276C24.469 9.3303 23.2158 9.24335 23.2158 9.24335C23.2158 9.24335 21.971 9.56377 21.4214 9.40356C21.2974 9.3674 21.1936 9.3414 21.1072 9.31977L21.1072 9.31977C20.8108 9.24553 20.7196 9.22268 20.7196 9.01727C20.7196 8.75199 20.3195 9.24335 20.3195 9.24335C20.3195 9.24335 20.006 9.11748 20.2192 8.85706C20.4323 8.59663 20.5285 8.49454 20.5285 8.49454C20.5285 8.49454 20.3407 8.28036 20.0238 8.38745C19.707 8.49454 19.6504 8.67199 19.6504 8.67199C19.6504 8.67199 19.2891 8.30215 19.5143 8.03361C19.7394 7.76507 20.0238 8.03361 20.0238 8.03361C20.0238 8.03361 20.3475 8.20259 20.3735 7.98079C20.3996 7.75899 20.3735 7.58211 20.3735 7.58211C20.3735 7.58211 21.1855 7.815 20.9561 8.17723C20.7266 8.53946 20.8718 8.67199 20.8718 8.67199C20.8718 8.67199 21.4298 8.70634 21.5307 8.32135C21.5689 8.17575 21.5625 8.03454 21.5346 7.92358C21.6955 7.99932 21.8775 8.08906 21.8267 8.23795C21.7333 8.51149 21.5307 8.85706 21.5307 8.85706C21.5307 8.85706 22.0883 8.82447 22.2545 8.38745C22.4207 7.95043 22.3605 8.49454 22.3605 8.49454C22.3605 8.49454 22.5742 8.48693 22.895 8.67199C23.2158 8.85706 22.895 8.38745 22.895 8.38745C22.895 8.38745 23.5609 9.21306 24.1907 9.11516C24.8205 9.01727 24.7856 8.49454 24.7856 8.49454C24.7856 8.49454 24.6364 8.23795 24.3245 8.23795C24.0127 8.23795 24.1907 8.49454 24.1907 8.49454C24.1907 8.49454 24.4948 8.66772 24.0127 8.49454C23.873 8.44438 23.6647 8.28246 23.4061 8.08154C22.772 7.58879 21.8361 6.86147 20.8718 6.97286C19.5143 7.12966 19.0406 7.73631 19.0406 7.73631V7.23118C19.0406 7.23118 18.8125 7.58211 18.5998 7.58211C18.3871 7.58211 17.7966 7.23118 17.7966 7.23118L17.4203 7.58211C17.4203 7.58211 17.2779 7.23118 17.0278 7.23118C16.7777 7.23118 16.7777 7.58211 16.7777 7.58211C16.7777 7.58211 16.4631 7.4274 16.1165 7.4274C15.9746 7.4274 15.8538 7.37556 15.7607 7.33559C15.6266 7.27799 15.5499 7.24505 15.5499 7.4274C15.5499 7.46441 15.5507 7.49973 15.5516 7.53334V7.53336C15.5576 7.78024 15.5614 7.93429 15.2022 7.98079C14.794 8.03361 14.4788 8.03361 14.4788 8.03361C14.4788 8.03361 14.2345 7.73631 14.0444 7.73631C13.8544 7.73631 13.6342 7.96701 13.6342 8.17723C13.6342 8.38745 13.8804 8.98698 14.0444 9.11516C14.0876 9.14892 14.0796 9.14523 14.0444 9.129C13.9458 9.08359 13.6342 8.94006 13.6342 9.24335C13.6342 9.45245 13.6864 9.50472 13.7245 9.5429C13.7614 9.5799 13.7851 9.60366 13.7353 9.74405C13.7146 9.80248 13.6862 9.87005 13.6565 9.94058C13.5412 10.2144 13.4072 10.5327 13.6342 10.5327C13.7567 10.5327 13.8727 10.5057 13.9552 10.4865L13.9552 10.4865C14.065 10.461 14.1157 10.4492 14.0444 10.5327C14.016 10.566 13.9779 10.6061 13.9393 10.6465C13.8085 10.7839 13.6738 10.9253 13.9069 10.818C14.0294 10.7616 14.1328 10.6798 14.2181 10.6124C14.3428 10.5137 14.4288 10.4458 14.4788 10.5327C14.5104 10.5877 14.4851 10.6612 14.4634 10.7242C14.4272 10.829 14.4011 10.9047 14.6638 10.818C14.7559 10.7876 14.8098 10.7639 14.8398 10.7469C14.841 10.7639 14.8551 10.7876 14.8964 10.818C14.9846 10.8827 14.9677 10.944 14.9548 10.9909C14.9402 11.0439 14.9307 11.0784 15.0843 11.0784C15.2314 11.0784 15.4389 10.9644 15.5619 10.8969C15.681 10.8315 15.7209 10.8096 15.5499 10.9768C15.4421 11.0822 15.2861 11.1525 15.1131 11.2305C14.7278 11.4041 14.2577 11.6159 14.0444 12.3386C13.7566 13.3141 13.8856 13.5151 13.9046 13.5381L13.0185 12.5679C13.0185 12.5679 13.2304 12.4022 13.2304 12.1244C13.2304 11.8465 12.6818 11.6396 12.6818 11.6396C12.6818 11.6396 12.7009 8.18187 12.8597 7.4274C13.0185 6.67294 13.1003 6.17334 13.1003 6.17334ZM13.9046 13.5381L13.9069 13.5405C13.9069 13.5405 13.9065 13.5402 13.9059 13.5395C13.9055 13.5391 13.9051 13.5387 13.9046 13.5381ZM14.8674 10.7142C14.8574 10.7142 14.8382 10.7251 14.8398 10.7469C14.8782 10.725 14.8774 10.7142 14.8674 10.7142ZM21.5346 7.92358L21.5229 7.91805C21.3931 7.85702 21.2815 7.80452 21.3244 7.73631C21.3847 7.64043 21.4888 7.74113 21.5346 7.92358ZM22.121 15.4055C22.121 15.4055 21.7011 15.8174 21.9677 15.9079C22.0486 15.9353 22.1469 15.9507 22.2384 15.9649C22.4485 15.9976 22.622 16.0246 22.4628 16.1801C22.2343 16.4033 22.041 16.7049 22.041 16.9795C22.041 17.2542 22.0475 17.486 22.121 17.3701C22.1613 17.3065 22.3272 17.2398 22.5059 17.1681C22.6526 17.1091 22.8081 17.0466 22.9096 16.9795C23.1016 16.8527 23.0988 16.7155 23.0938 16.469C23.0929 16.4264 23.092 16.3805 23.092 16.3308C23.092 15.9939 22.121 15.4055 22.121 15.4055ZM18.8628 9.88946C18.9607 9.81166 18.9669 8.8515 18.9669 8.8515C18.9669 8.8515 19.3103 8.96581 19.3103 9.1158C19.3103 9.20921 19.2843 9.26264 19.2451 9.34328C19.2213 9.39212 19.1927 9.45095 19.1621 9.5347C19.0866 9.74097 19.2919 9.87019 19.4826 9.99023C19.4972 9.99938 19.5116 10.0085 19.5259 10.0176C19.6552 10.1 19.6915 9.92116 19.7195 9.78312C19.735 9.7066 19.748 9.64261 19.7729 9.64261C19.8427 9.64261 20.363 9.76058 20.7547 9.9596C21.0964 10.1333 21.4318 10.048 22.1997 9.85275C22.3119 9.82422 22.4334 9.79334 22.5654 9.76058C23.6013 9.5036 23.7373 9.88946 23.8434 10.1932C23.9496 10.497 23.1455 10.918 22.5654 10.9943C22.3106 11.0278 22.0898 11.0171 21.8867 11.0073C21.6276 10.9948 21.3972 10.9837 21.1614 11.0675C20.7919 11.1989 19.6363 11.1858 19.1852 11.1807C19.1229 11.18 19.0741 11.1794 19.0426 11.1794C18.8355 11.1794 18.7963 11.1141 18.7177 10.9829C18.6977 10.9496 18.6752 10.912 18.6467 10.8702C18.5062 10.6637 18.6767 10.5287 18.7872 10.5287C18.8977 10.5287 18.8628 10.2871 18.7872 10.1932C18.7117 10.0994 18.7649 9.96725 18.8628 9.88946Z" fill="#FECA00"/>
<path fill-rule="evenodd" clip-rule="evenodd" d="M10.1711 2.12227V2.4833C10.1711 2.52776 10.1519 2.5884 10.1304 2.65637C10.0622 2.87182 9.97075 3.16095 10.3931 3.24221C10.9486 3.34911 11.3578 3.59204 11.4823 3.82138C11.562 3.96835 11.5395 3.72345 11.5131 3.43539V3.43539C11.4983 3.27396 11.4823 3.09897 11.4823 2.97182C11.4823 2.61778 11.0857 1.92787 10.8047 2.12227C10.5237 2.31666 10.1711 2.12227 10.1711 2.12227ZM10.1711 21.5073V21.8683C10.1711 21.8683 10.5237 21.6739 10.8047 21.8683C11.0857 22.0627 11.4823 21.3728 11.4823 21.0187C11.4823 20.8916 11.4983 20.7166 11.5131 20.5552C11.5395 20.2671 11.562 20.0222 11.4823 20.1692C11.3578 20.3985 10.9486 20.6414 10.3931 20.7483C9.97075 20.8296 10.0622 21.1187 10.1304 21.3342C10.1519 21.4022 10.1711 21.4628 10.1711 21.5073ZM25.8355 21.5073V21.8683C25.8355 21.8683 25.483 21.6739 25.2019 21.8683C24.9209 22.0627 24.5243 21.3728 24.5243 21.0187C24.5243 20.8916 24.5083 20.7166 24.4935 20.5552L24.4935 20.5552C24.4671 20.2671 24.4446 20.0222 24.5243 20.1692C24.6488 20.3985 25.058 20.6414 25.6136 20.7483C26.0359 20.8296 25.9444 21.1187 25.8762 21.3342C25.8547 21.4022 25.8355 21.4628 25.8355 21.5073ZM25.8355 2.4833V2.12227C25.8355 2.12227 25.483 2.31666 25.2019 2.12227C24.9209 1.92787 24.5243 2.61778 24.5243 2.97182C24.5243 3.09898 24.5083 3.27396 24.4935 3.43539C24.4671 3.72345 24.4446 3.96835 24.5243 3.82138C24.6488 3.59204 25.058 3.34911 25.6136 3.24221C26.0359 3.16095 25.9444 2.87182 25.8762 2.65637C25.8547 2.5884 25.8355 2.52776 25.8355 2.4833Z" fill="#FECA00"/>
</g>
</g>
<g style="mix-blend-mode:hard-light" opacity="0.12">
<rect width="24" height="24" rx="12" fill="white"/>
</g>
<rect width="24" height="24" fill="url(#paint0_linear_6144_24369)" fill-opacity="0.64" style="mix-blend-mode:overlay"/>
</g>
<defs>
<linearGradient id="paint0_linear_6144_24369" x1="24" y1="1.19273e-06" x2="-4.48665" y2="16.0237" gradientUnits="userSpaceOnUse">
<stop stop-color="white" stop-opacity="0.3"/>
<stop offset="0.262741" stop-opacity="0.27"/>
<stop offset="0.369956" stop-color="white" stop-opacity="0.26"/>
<stop offset="0.487001" stop-opacity="0.55"/>
<stop offset="0.594445" stop-opacity="0.24"/>
<stop offset="0.736408" stop-color="white" stop-opacity="0.3"/>
<stop offset="0.901459" stop-color="#272727" stop-opacity="0.22"/>
<stop offset="1" stop-opacity="0.2"/>
</linearGradient>
<clipPath id="clip0_6144_24369">
<rect width="24" height="24" rx="12" fill="white"/>
</clipPath>
<clipPath id="clip1_6144_24369">
<rect width="24" height="24" fill="white"/>
</clipPath>
</defs>
</svg>
