<svg width="24" height="24" viewBox="0 0 24 24" fill="none" xmlns="http://www.w3.org/2000/svg">
<g clip-path="url(#clip0_6144_24397)">
<g clip-path="url(#clip1_6144_24397)">
<mask id="mask0_6144_24397" style="mask-type:luminance" maskUnits="userSpaceOnUse" x="-4" y="0" width="32" height="24">
<rect x="-4" width="32" height="24" fill="white"/>
</mask>
<g mask="url(#mask0_6144_24397)">
<path fill-rule="evenodd" clip-rule="evenodd" d="M18 0H28V24H18V0Z" fill="#D9071E"/>
<path fill-rule="evenodd" clip-rule="evenodd" d="M-4 0H8V24H-4V0Z" fill="#006923"/>
<path fill-rule="evenodd" clip-rule="evenodd" d="M6 0H18V24H6V0Z" fill="white"/>
<path fill-rule="evenodd" clip-rule="evenodd" d="M9.05551 8.34173C8.94922 8.79689 9.01842 8.90433 9.53229 8.90433C9.55901 8.90433 9.60135 8.97976 9.64742 9.06182C9.69795 9.15184 9.75296 9.24983 9.79671 9.26497C9.77796 9.2898 9.58258 9.64294 9.58165 10.265C9.58145 10.3931 9.64104 10.6041 9.69827 10.8069C9.76053 11.0274 9.81999 11.238 9.79671 11.3213C9.75881 11.4568 9.58894 11.3091 9.45731 11.1947C9.38203 11.1293 9.31926 11.0747 9.30084 11.0902C9.20683 11.1693 9.15831 10.5431 9.129 10.1648C9.11594 9.99635 9.1067 9.87703 9.09894 9.89096C9.06612 9.81861 9.05272 9.72972 9.03949 9.6419C9.0107 9.45092 8.98268 9.26497 8.75732 9.26497H8.17725V9.69207C8.17725 9.69207 8.51287 9.69207 8.51287 10.4866C8.51842 10.6054 8.67508 11.6502 9.05551 11.6556C8.83255 11.6606 8.83423 11.7051 8.83521 11.7312L8.83533 11.7358C8.83533 12.375 9.36949 12.4441 9.86875 12.2637C10.1688 12.1552 10.4874 11.9435 10.7259 11.6826C11.0625 11.3143 11.1041 10.8375 10.6621 10.5761C10.5047 10.483 10.334 10.4471 10.0952 10.4338C10.1424 10.2936 10.0977 10.1685 10.0628 10.0708C10.0337 9.98915 10.0114 9.92675 10.0555 9.89096C10.5561 9.48494 10.6007 9.11072 10.2365 8.77504C10.1892 8.7315 10.1435 8.67246 10.0964 8.61169L10.0964 8.61169C10.0077 8.49713 9.91415 8.37642 9.79671 8.34173C9.85097 8.23221 9.92413 8.09951 10.0159 7.94665L9.15858 7.43188C9.00316 7.69075 9.02914 7.89322 9.05179 8.06967C9.06422 8.16652 9.07564 8.25553 9.05551 8.34173ZM9.98784 11.0079L9.97228 11.0245L9.98285 11.015C9.98446 11.0121 9.98613 11.0097 9.98784 11.0079ZM9.53416 11.3213C9.53394 11.3214 9.53451 11.3212 9.53562 11.321L9.53582 11.321L9.54538 11.3191C9.54147 11.3197 9.53786 11.3205 9.53582 11.321L9.53416 11.3213ZM9.09894 11.6551C9.08722 11.6551 9.07601 11.6552 9.0653 11.6554L9.08374 11.655L9.09894 11.6551Z" fill="#A8AC71"/>
<path fill-rule="evenodd" clip-rule="evenodd" d="M10.384 7.91333C10.384 7.91333 9.69722 8.44599 9.82565 9.01387C9.95409 9.58175 11.3076 9.01387 11.144 8.4636C10.9804 7.91333 10.384 7.91333 10.384 7.91333Z" fill="#FCCA3D"/>
<path fill-rule="evenodd" clip-rule="evenodd" d="M15.2663 12.4028C15.2663 12.4028 16.1913 9.66142 14.7209 8.24239C13.2506 6.82335 11.5515 6.91831 11.5515 6.91831C11.5515 6.91831 11.0622 7.28185 11.5515 7.55911C12.0408 7.83637 11.8358 8.10221 11.8358 8.10221C11.8358 8.10221 11.0163 7.27017 10.4723 7.75628C9.92836 8.24239 10.9801 8.16841 10.8688 8.53443C10.7575 8.90045 10.2858 10.5255 10.975 11.3459C11.6643 12.1664 10.3233 11.9883 10.5961 11.9883C10.8688 11.9883 11.8358 12.1793 11.8358 11.9883C11.8358 11.7974 12.1719 12.7308 12.4596 12.7308C12.7473 12.7308 12.9693 12.4028 12.9693 12.4028C12.9693 12.4028 13.3726 12.7308 13.6184 12.7308C13.8641 12.7308 14.7209 12.5161 14.7209 12.5161L13.1015 11.1516C13.1015 11.1516 13.1991 10.5497 12.9693 10.4195C12.7396 10.2892 14.8111 11.5739 14.9733 11.9883C15.1356 12.4028 15.2663 12.4028 15.2663 12.4028Z" fill="#8F4620"/>
<path d="M7.06641 11.7266C7.06641 11.7266 7.21655 11.248 7.37731 11.2148C7.51658 11.186 7.80944 11.4441 7.80944 11.4441C8.32968 14.334 9.58761 15.4627 11.6749 15.4627C13.7867 15.4627 15.0666 14.605 15.8135 11.9398C15.8135 11.9398 16.2106 11.5343 16.3507 11.5794C16.5032 11.6284 16.6943 12.1649 16.6943 12.1649C15.8375 15.2225 14.2185 16.5839 11.6749 16.5839C9.10667 16.5839 7.66375 15.0448 7.06641 11.7266Z" fill="#9FAB2F"/>
<path fill-rule="evenodd" clip-rule="evenodd" d="M9.33415 13.6562C9.33415 13.6562 12.3385 14.2936 13.5243 14.2936C14.7102 14.2936 12.4839 15.2614 11.6152 15.2614C11.2352 15.2614 10.7772 15.031 10.2412 14.5703C10.1451 14.4878 10.2382 14.303 9.94549 14.3005C9.5374 14.2969 9.03041 14.2012 9.07892 14.1429C9.12504 14.0874 9.7188 14.0706 9.66158 14.01C9.56716 13.9099 9.33415 13.6562 9.33415 13.6562Z" fill="#2FC2DC"/>
<rect x="10.6665" y="14.0999" width="2" height="1.07143" rx="0.166667" fill="#F9AA51"/>
<path d="M8.17554 12.1358C8.17554 12.1358 8.17554 11.7607 8.42952 11.5615C8.72066 11.3331 8.99416 11.5615 8.99416 11.5615C10.0596 13.0801 11.6529 13.5797 13.8813 13.0583C13.8813 13.0583 14.5476 13.276 14.5811 13.419C14.6236 13.6006 14.1092 14.032 14.1092 14.032C11.5041 14.6415 9.49053 14.0101 8.17554 12.1358Z" fill="#259485"/>
<path fill-rule="evenodd" clip-rule="evenodd" d="M12.5912 12.3501C12.5912 12.3501 11.3775 12.989 11.782 12.989C12.1866 12.989 13.7699 13.3084 13.4618 12.989C13.1537 12.6695 12.5912 12.3501 12.5912 12.3501Z" fill="#FCCA3D"/>
<path fill-rule="evenodd" clip-rule="evenodd" d="M11.1563 11.5882C11.1563 11.5882 10.9257 10.9221 10.4458 10.9221C9.9659 10.9221 10.1014 11.4685 9.87059 11.4685C9.63981 11.4685 10.0856 11.853 10.2843 11.853C10.483 11.853 11.1563 11.5882 11.1563 11.5882Z" fill="#FCCA3D"/>
</g>
</g>
<g style="mix-blend-mode:hard-light" opacity="0.12">
<rect width="24" height="24" rx="12" fill="white"/>
</g>
<rect width="24" height="24" fill="url(#paint0_linear_6144_24397)" fill-opacity="0.64" style="mix-blend-mode:overlay"/>
</g>
<defs>
<linearGradient id="paint0_linear_6144_24397" x1="24" y1="1.19273e-06" x2="-4.48665" y2="16.0237" gradientUnits="userSpaceOnUse">
<stop stop-color="white" stop-opacity="0.3"/>
<stop offset="0.262741" stop-opacity="0.27"/>
<stop offset="0.369956" stop-color="white" stop-opacity="0.26"/>
<stop offset="0.487001" stop-opacity="0.55"/>
<stop offset="0.594445" stop-opacity="0.24"/>
<stop offset="0.736408" stop-color="white" stop-opacity="0.3"/>
<stop offset="0.901459" stop-color="#272727" stop-opacity="0.22"/>
<stop offset="1" stop-opacity="0.2"/>
</linearGradient>
<clipPath id="clip0_6144_24397">
<rect width="24" height="24" rx="12" fill="white"/>
</clipPath>
<clipPath id="clip1_6144_24397">
<rect width="24" height="24" fill="white"/>
</clipPath>
</defs>
</svg>
