<svg width="24" height="24" viewBox="0 0 24 24" fill="none" xmlns="http://www.w3.org/2000/svg">
<g clip-path="url(#clip0_6144_24411)">
<g clip-path="url(#clip1_6144_24411)">
<mask id="mask0_6144_24411" style="mask-type:luminance" maskUnits="userSpaceOnUse" x="-4" y="0" width="32" height="24">
<rect x="-4" width="32" height="24" fill="white"/>
</mask>
<g mask="url(#mask0_6144_24411)">
<path fill-rule="evenodd" clip-rule="evenodd" d="M-4 0V24H28V0H-4Z" fill="#2E42A5"/>
<mask id="mask1_6144_24411" style="mask-type:luminance" maskUnits="userSpaceOnUse" x="-4" y="0" width="32" height="24">
<path fill-rule="evenodd" clip-rule="evenodd" d="M-4 0V24H28V0H-4Z" fill="white"/>
</mask>
<g mask="url(#mask1_6144_24411)">
<rect x="-4" width="18" height="14" fill="#2B409A"/>
<mask id="mask2_6144_24411" style="mask-type:luminance" maskUnits="userSpaceOnUse" x="-4" y="0" width="18" height="14">
<rect x="-4" width="18" height="14" fill="white"/>
</mask>
<g mask="url(#mask2_6144_24411)">
<path d="M-6.00415 12.9999L-2.0432 14.7371L14.09 1.88878L16.1793 -0.692749L11.9436 -1.27337L5.3633 4.26332L0.0667939 7.99375L-6.00415 12.9999Z" fill="#F7FCFF"/>
<path d="M-5.46191 14.217L-3.44399 15.2251L15.429 -0.932617H12.5956L-5.46191 14.217Z" fill="#E31D1C"/>
<path d="M16.0044 12.9999L12.0434 14.7371L-4.08975 1.88878L-6.17906 -0.692749L-1.9434 -1.27337L4.63695 4.26332L9.93345 7.99375L16.0044 12.9999Z" fill="#F7FCFF"/>
<path d="M15.8691 13.8732L13.8512 14.8813L5.81489 7.96339L3.43229 7.19046L-6.3802 -0.684069H-3.54681L6.26018 7.00356L8.86513 7.93038L15.8691 13.8732Z" fill="#E31D1C"/>
<mask id="path-11-outside-1_6144_24411" maskUnits="userSpaceOnUse" x="-6" y="-2" width="22" height="18" fill="black">
<rect fill="white" x="-6" y="-2" width="22" height="18"/>
<path fill-rule="evenodd" clip-rule="evenodd" d="M5.98451 0H3.98451V6H-4V8H3.98451V14H5.98451V8H14V6H5.98451V0Z"/>
</mask>
<path fill-rule="evenodd" clip-rule="evenodd" d="M5.98451 0H3.98451V6H-4V8H3.98451V14H5.98451V8H14V6H5.98451V0Z" fill="#E31D1C"/>
<path d="M3.98451 0V-1.5H2.48451V0H3.98451ZM5.98451 0H7.48451V-1.5H5.98451V0ZM3.98451 6V7.5H5.48451V6H3.98451ZM-4 6V4.5H-5.5V6H-4ZM-4 8H-5.5V9.5H-4V8ZM3.98451 8H5.48451V6.5H3.98451V8ZM3.98451 14H2.48451V15.5H3.98451V14ZM5.98451 14V15.5H7.48451V14H5.98451ZM5.98451 8V6.5H4.48451V8H5.98451ZM14 8V9.5H15.5V8H14ZM14 6H15.5V4.5H14V6ZM5.98451 6H4.48451V7.5H5.98451V6ZM3.98451 1.5H5.98451V-1.5H3.98451V1.5ZM5.48451 6V0H2.48451V6H5.48451ZM-4 7.5H3.98451V4.5H-4V7.5ZM-2.5 8V6H-5.5V8H-2.5ZM3.98451 6.5H-4V9.5H3.98451V6.5ZM5.48451 14V8H2.48451V14H5.48451ZM5.98451 12.5H3.98451V15.5H5.98451V12.5ZM4.48451 8V14H7.48451V8H4.48451ZM14 6.5H5.98451V9.5H14V6.5ZM12.5 6V8H15.5V6H12.5ZM5.98451 7.5H14V4.5H5.98451V7.5ZM4.48451 0V6H7.48451V0H4.48451Z" fill="#F7FCFF" mask="url(#path-11-outside-1_6144_24411)"/>
</g>
<path fill-rule="evenodd" clip-rule="evenodd" d="M20.1 7.47068L19.8403 8.9847L21.2 8.26987L22.5597 8.9847L22.3 7.47068L23.4 6.39844L21.8798 6.17755L21.2 4.80005L20.5202 6.17755L19 6.39844L20.1 7.47068ZM16.1 13.0707L15.8403 14.5847L17.2 13.8699L18.5597 14.5847L18.3 13.0707L19.4 11.9984L17.8798 11.7776L17.2 10.4001L16.5202 11.7776L15 11.9984L16.1 13.0707ZM19.4266 19.4636L19.0898 21.4271L20.8532 20.5001L22.6165 21.4271L22.2798 19.4636L23.7063 18.073L21.7348 17.7865L20.8532 16.0001L19.9715 17.7865L18 18.073L19.4266 19.4636ZM22.8394 14.5801L23.0988 13.0677L22 11.9967L23.5185 11.776L24.1976 10.4001L24.8766 11.776L26.3951 11.9967L25.2963 13.0677L25.5557 14.5801L24.1976 13.866L22.8394 14.5801Z" fill="#E31D1C"/>
<path d="M19.8403 8.9847L19.6432 8.95089L19.5747 9.3503L19.9334 9.16172L19.8403 8.9847ZM20.1 7.47068L20.2971 7.50449L20.3149 7.40085L20.2396 7.32746L20.1 7.47068ZM21.2 8.26987L21.2931 8.09285L21.2 8.04392L21.1069 8.09285L21.2 8.26987ZM22.5597 8.9847L22.4666 9.16172L22.8253 9.3503L22.7568 8.95089L22.5597 8.9847ZM22.3 7.47068L22.1604 7.32746L22.0851 7.40085L22.1029 7.50449L22.3 7.47068ZM23.4 6.39844L23.5396 6.54166L23.8298 6.25879L23.4288 6.20052L23.4 6.39844ZM21.8798 6.17755L21.7005 6.26606L21.747 6.36035L21.8511 6.37547L21.8798 6.17755ZM21.2 4.80005L21.3793 4.71154L21.2 4.34814L21.0207 4.71154L21.2 4.80005ZM20.5202 6.17755L20.5489 6.37547L20.653 6.36035L20.6995 6.26606L20.5202 6.17755ZM19 6.39844L18.9712 6.20052L18.5702 6.25879L18.8604 6.54166L19 6.39844ZM15.8403 14.5847L15.6432 14.5509L15.5747 14.9503L15.9334 14.7617L15.8403 14.5847ZM16.1 13.0707L16.2971 13.1045L16.3149 13.0009L16.2396 12.9275L16.1 13.0707ZM17.2 13.8699L17.2931 13.6929L17.2 13.6439L17.1069 13.6929L17.2 13.8699ZM18.5597 14.5847L18.4666 14.7617L18.8253 14.9503L18.7568 14.5509L18.5597 14.5847ZM18.3 13.0707L18.1604 12.9275L18.0851 13.0009L18.1029 13.1045L18.3 13.0707ZM19.4 11.9984L19.5396 12.1417L19.8298 11.8588L19.4288 11.8005L19.4 11.9984ZM17.8798 11.7776L17.7005 11.8661L17.747 11.9604L17.8511 11.9755L17.8798 11.7776ZM17.2 10.4001L17.3793 10.3115L17.2 9.94814L17.0207 10.3115L17.2 10.4001ZM16.5202 11.7776L16.5489 11.9755L16.653 11.9604L16.6995 11.8661L16.5202 11.7776ZM15 11.9984L14.9712 11.8005L14.5702 11.8588L14.8604 12.1417L15 11.9984ZM19.0898 21.4271L18.8927 21.3933L18.8242 21.7927L19.1829 21.6041L19.0898 21.4271ZM19.4266 19.4636L19.6237 19.4974L19.6415 19.3938L19.5662 19.3204L19.4266 19.4636ZM20.8532 20.5001L20.9462 20.323L20.8532 20.2741L20.7601 20.323L20.8532 20.5001ZM22.6165 21.4271L22.5235 21.6041L22.8822 21.7927L22.8136 21.3933L22.6165 21.4271ZM22.2798 19.4636L22.1402 19.3204L22.0649 19.3938L22.0826 19.4974L22.2798 19.4636ZM23.7063 18.073L23.8459 18.2162L24.1361 17.9334L23.7351 17.8751L23.7063 18.073ZM21.7348 17.7865L21.5555 17.875L21.602 17.9693L21.7061 17.9845L21.7348 17.7865ZM20.8532 16.0001L21.0325 15.9115L20.8532 15.5482L20.6738 15.9115L20.8532 16.0001ZM19.9715 17.7865L20.0003 17.9845L20.1043 17.9693L20.1508 17.875L19.9715 17.7865ZM18 18.073L17.9712 17.8751L17.5702 17.9334L17.8604 18.2162L18 18.073ZM23.0988 13.0677L23.2959 13.1015L23.3137 12.9979L23.2384 12.9245L23.0988 13.0677ZM22.8394 14.5801L22.6423 14.5462L22.5738 14.9457L22.9325 14.7571L22.8394 14.5801ZM22 11.9967L21.9712 11.7988L21.5702 11.857L21.8604 12.1399L22 11.9967ZM23.5185 11.776L23.5472 11.9739L23.6513 11.9588L23.6978 11.8645L23.5185 11.776ZM24.1976 10.4001L24.3769 10.3115L24.1976 9.94814L24.0182 10.3115L24.1976 10.4001ZM24.8766 11.776L24.6973 11.8645L24.7438 11.9588L24.8479 11.9739L24.8766 11.776ZM26.3951 11.9967L26.5347 12.1399L26.8249 11.857L26.4239 11.7988L26.3951 11.9967ZM25.2963 13.0677L25.1567 12.9245L25.0814 12.9979L25.0992 13.1015L25.2963 13.0677ZM25.5557 14.5801L25.4627 14.7571L25.8213 14.9457L25.7528 14.5462L25.5557 14.5801ZM24.1976 13.866L24.2906 13.689L24.1976 13.6401L24.1045 13.689L24.1976 13.866ZM20.0374 9.01851L20.2971 7.50449L19.9029 7.43687L19.6432 8.95089L20.0374 9.01851ZM21.1069 8.09285L19.7473 8.80767L19.9334 9.16172L21.2931 8.4469L21.1069 8.09285ZM22.6527 8.80767L21.2931 8.09285L21.1069 8.4469L22.4666 9.16172L22.6527 8.80767ZM22.1029 7.50449L22.3626 9.01851L22.7568 8.95089L22.4971 7.43687L22.1029 7.50449ZM23.2604 6.25523L22.1604 7.32746L22.4396 7.61389L23.5396 6.54166L23.2604 6.25523ZM21.8511 6.37547L23.3712 6.59636L23.4288 6.20052L21.9086 5.97963L21.8511 6.37547ZM21.0207 4.88856L21.7005 6.26606L22.0592 6.08904L21.3793 4.71154L21.0207 4.88856ZM20.6995 6.26606L21.3793 4.88856L21.0207 4.71154L20.3408 6.08904L20.6995 6.26606ZM19.0288 6.59636L20.5489 6.37547L20.4914 5.97963L18.9712 6.20052L19.0288 6.59636ZM20.2396 7.32746L19.1396 6.25523L18.8604 6.54166L19.9604 7.61389L20.2396 7.32746ZM16.0374 14.6185L16.2971 13.1045L15.9029 13.0369L15.6432 14.5509L16.0374 14.6185ZM17.1069 13.6929L15.7473 14.4077L15.9334 14.7617L17.2931 14.0469L17.1069 13.6929ZM18.6527 14.4077L17.2931 13.6929L17.1069 14.0469L18.4666 14.7617L18.6527 14.4077ZM18.1029 13.1045L18.3626 14.6185L18.7568 14.5509L18.4971 13.0369L18.1029 13.1045ZM19.2604 11.8552L18.1604 12.9275L18.4396 13.2139L19.5396 12.1417L19.2604 11.8552ZM17.8511 11.9755L19.3712 12.1964L19.4288 11.8005L17.9086 11.5796L17.8511 11.9755ZM17.0207 10.4886L17.7005 11.8661L18.0592 11.689L17.3793 10.3115L17.0207 10.4886ZM16.6995 11.8661L17.3793 10.4886L17.0207 10.3115L16.3408 11.689L16.6995 11.8661ZM15.0288 12.1964L16.5489 11.9755L16.4914 11.5796L14.9712 11.8005L15.0288 12.1964ZM16.2396 12.9275L15.1396 11.8552L14.8604 12.1417L15.9604 13.2139L16.2396 12.9275ZM19.2869 21.4609L19.6237 19.4974L19.2295 19.4298L18.8927 21.3933L19.2869 21.4609ZM20.7601 20.323L18.9967 21.2501L19.1829 21.6041L20.9462 20.6771L20.7601 20.323ZM22.7096 21.2501L20.9462 20.323L20.7601 20.6771L22.5235 21.6041L22.7096 21.2501ZM22.0826 19.4974L22.4194 21.4609L22.8136 21.3933L22.4769 19.4298L22.0826 19.4974ZM23.5667 17.9298L22.1402 19.3204L22.4194 19.6068L23.8459 18.2162L23.5667 17.9298ZM21.7061 17.9845L23.6776 18.2709L23.7351 17.8751L21.7636 17.5886L21.7061 17.9845ZM20.6738 16.0886L21.5555 17.875L21.9142 17.698L21.0325 15.9115L20.6738 16.0886ZM20.1508 17.875L21.0325 16.0886L20.6738 15.9115L19.7921 17.698L20.1508 17.875ZM18.0288 18.2709L20.0003 17.9845L19.9427 17.5886L17.9712 17.8751L18.0288 18.2709ZM19.5662 19.3204L18.1396 17.9298L17.8604 18.2162L19.287 19.6068L19.5662 19.3204ZM22.9017 13.0339L22.6423 14.5462L23.0365 14.6139L23.2959 13.1015L22.9017 13.0339ZM21.8604 12.1399L22.9592 13.2109L23.2384 12.9245L22.1396 11.8535L21.8604 12.1399ZM23.4897 11.5781L21.9712 11.7988L22.0288 12.1946L23.5472 11.9739L23.4897 11.5781ZM24.0182 10.3115L23.3391 11.6875L23.6978 11.8645L24.3769 10.4886L24.0182 10.3115ZM25.056 11.6875L24.3769 10.3115L24.0182 10.4886L24.6973 11.8645L25.056 11.6875ZM26.4239 11.7988L24.9054 11.5781L24.8479 11.9739L26.3664 12.1946L26.4239 11.7988ZM25.4359 13.2109L26.5347 12.1399L26.2555 11.8535L25.1567 12.9245L25.4359 13.2109ZM25.7528 14.5462L25.4935 13.0339L25.0992 13.1015L25.3586 14.6139L25.7528 14.5462ZM24.1045 14.0431L25.4627 14.7571L25.6488 14.403L24.2906 13.689L24.1045 14.0431ZM22.9325 14.7571L24.2906 14.0431L24.1045 13.689L22.7463 14.403L22.9325 14.7571Z" fill="#F7FCFF"/>
</g>
</g>
</g>
<g style="mix-blend-mode:hard-light" opacity="0.12">
<rect width="24" height="24" rx="12" fill="white"/>
</g>
<rect width="24" height="24" fill="url(#paint0_linear_6144_24411)" fill-opacity="0.64" style="mix-blend-mode:overlay"/>
</g>
<defs>
<linearGradient id="paint0_linear_6144_24411" x1="24" y1="1.19273e-06" x2="-4.48665" y2="16.0237" gradientUnits="userSpaceOnUse">
<stop stop-color="white" stop-opacity="0.3"/>
<stop offset="0.262741" stop-opacity="0.27"/>
<stop offset="0.369956" stop-color="white" stop-opacity="0.26"/>
<stop offset="0.487001" stop-opacity="0.55"/>
<stop offset="0.594445" stop-opacity="0.24"/>
<stop offset="0.736408" stop-color="white" stop-opacity="0.3"/>
<stop offset="0.901459" stop-color="#272727" stop-opacity="0.22"/>
<stop offset="1" stop-opacity="0.2"/>
</linearGradient>
<clipPath id="clip0_6144_24411">
<rect width="24" height="24" rx="12" fill="white"/>
</clipPath>
<clipPath id="clip1_6144_24411">
<rect width="24" height="24" fill="white"/>
</clipPath>
</defs>
</svg>
