<svg width="169" height="119" viewBox="0 0 169 119" fill="none" xmlns="http://www.w3.org/2000/svg">
<g clip-path="url(#clip0_271_2027)">
<g clip-path="url(#clip1_271_2027)">
<path d="M168.086 83.8593C168.078 116.209 149.595 144.254 122.575 158.101C120.365 159.234 118.105 160.269 115.802 161.203L115.799 161.203C72.8936 178.525 24.0117 157.928 6.61822 115.196C-10.7754 72.465 9.90689 23.7818 52.8125 6.45932C55.6769 5.30289 58.6032 4.30511 61.5782 3.47055L61.5814 3.47055C82.4176 -2.33657 104.7 0.07948 123.793 10.2161L123.796 10.2161C151.093 24.7236 168.127 53.0467 168.086 83.8616L168.086 83.8593Z" fill="white" fill-opacity="0.08"/>
<path d="M84.3293 167.612C83.9128 167.612 83.4976 167.609 83.0806 167.603C72.2078 167.44 61.5941 165.208 51.5342 160.969C41.4745 156.73 32.4755 150.698 24.7872 143.039C16.8274 135.11 10.6286 125.776 6.36301 115.297C2.09742 104.817 0.0202808 93.8192 0.189229 82.608C0.352394 71.7794 2.59326 61.2089 6.84954 51.1899C11.1058 41.171 17.1632 32.2087 24.8532 24.5517C32.8149 16.6241 42.1869 10.4506 52.709 6.20244C55.5829 5.04285 58.5189 4.04182 61.5034 3.2039C61.5106 3.20189 61.5178 3.20015 61.5251 3.19869C71.9233 0.30317 82.6368 -0.574403 93.3705 0.589204C104.101 1.75281 114.374 4.90576 123.9 9.95989C123.909 9.96336 123.917 9.96729 123.926 9.97159C137.365 17.1151 148.601 27.7647 156.429 40.78C164.256 53.7962 168.381 68.6875 168.361 83.8593C168.357 99.537 163.977 114.822 155.694 128.061C147.637 140.939 136.228 151.41 122.7 158.342C120.483 159.479 118.216 160.517 115.906 161.454C115.898 161.457 115.89 161.46 115.881 161.463C105.755 165.548 95.1459 167.615 84.3292 167.612L84.3293 167.612ZM61.6346 3.73675C58.6759 4.56817 55.7653 5.56093 52.9159 6.71054C32.2329 15.061 16.053 30.9333 7.35659 51.4035C-1.33977 71.8738 -1.51146 94.4916 6.87319 115.09C24.1819 157.613 72.9994 178.184 115.696 160.946C115.704 160.943 115.712 160.94 115.72 160.938C118.007 160.009 120.252 158.98 122.449 157.855C150.421 143.519 167.803 115.165 167.811 83.8564L167.811 83.8556C167.849 53.0814 150.945 24.9618 123.688 10.4667C123.68 10.4633 123.671 10.4594 123.663 10.4552C104.543 0.304232 82.5214 -2.08361 61.6556 3.73182C61.6487 3.73374 61.6417 3.73539 61.6346 3.73675Z" fill="#292B2E"/>
<path d="M138.989 104.462C138.672 114.86 127.975 116.842 126.4 123.748C124.702 131.198 120.771 134.801 116.569 137.241C112.366 139.682 109.291 143.13 114.114 149.186C115.644 151.108 119.502 154.79 122.575 158.103C120.365 159.236 118.105 160.271 115.803 161.205L115.799 161.205C103.758 155.395 97.9363 148.518 98.0067 138.63C98.0471 133.04 98.8655 126.85 90.3058 124.141C78.092 120.279 73.0234 117.478 65.7958 109.525C60.3537 103.537 64.6864 99.178 66.2533 96.3947C68.0771 93.155 66.0944 89.7978 62.5145 91.1145C58.0587 92.754 51.6819 91.9735 48.3925 86.7186C43.2482 78.5006 41.639 81.766 32.5341 80.7173C23.4292 79.6687 28.3587 54.4338 24.3334 52.4273C20.9095 50.7214 19.582 56.3886 17.4846 54.2075C14.6026 51.2099 17.2051 43.3631 26.3153 36.9259C33.989 31.5024 34.0056 26.4097 30.0987 25.4811C28.1178 25.0123 26.8987 24.3696 26.1788 23.6856C36.1236 14.1424 48.2849 7.1982 61.5785 3.47216L61.5817 3.47216C79.2372 4.72639 92.7113 13.9141 94.1859 19.6984C95.9353 26.5586 80.4071 32.1926 70.7188 35.0386C59.5113 38.3311 61.4585 48.417 63.3612 53.8721C65.8879 61.1196 54.8379 61.7366 55.6564 54.9165C56.3262 49.333 38.2933 53.0261 37.0943 63.2823C36.3143 69.9478 44.6423 64.3079 44.6087 70.166C44.5817 74.3629 45.389 75.2232 51.1924 77.5792C55.395 79.2854 55.9665 87.4104 62.1464 86.6953C71.4853 85.6127 69.5741 91.6756 72.1057 94.2932C80.5085 102.977 83.3154 81.2752 104.327 81.4353C109.675 81.4755 114.599 86.0883 126.39 80.7433C139.087 74.9873 139.26 95.5488 138.989 104.462Z" fill="white"/>
<path d="M115.802 161.479C115.761 161.479 115.717 161.47 115.679 161.452C103.197 155.43 97.6618 148.391 97.7313 138.629C97.7343 138.202 97.7421 137.764 97.7496 137.341C97.8408 132.18 97.9351 126.844 90.2222 124.403C83.5752 122.301 79.4666 120.621 76.0408 118.604C72.4729 116.503 69.348 113.843 65.5917 109.71C60.7615 104.395 63.4597 100.242 65.245 97.494C65.5306 97.0545 65.8003 96.6393 66.0131 96.2614C66.8985 94.6886 66.8904 92.9958 65.9925 91.9485C65.2385 91.0691 64.0056 90.859 62.6098 91.3723C60.2226 92.2507 57.4302 92.3949 54.9484 91.7683C52.0581 91.0384 49.7103 89.3426 48.1589 86.8643C44.5344 81.0741 42.8132 81.1123 38.6555 81.2053C37.0556 81.2411 35.0644 81.2854 32.5024 80.9904C29.9311 80.6942 28.2065 78.5859 27.2301 74.5448C26.3998 71.1087 26.218 66.7276 26.0576 62.8622C25.8555 57.9952 25.6647 53.3982 24.2101 52.673C22.5972 51.8693 21.5167 52.8576 20.4717 53.8132C19.5369 54.668 18.4774 55.637 17.2857 54.3978C16.3644 53.4395 15.9636 52.0324 16.1266 50.3287C16.3186 48.3221 17.2702 46.0535 18.8786 43.7684C20.6403 41.2655 23.1567 38.8222 26.1559 36.703C31.2706 33.0882 32.7024 29.7937 32.3369 27.9158C32.1237 26.8204 31.3061 26.0507 30.0347 25.7486C28.1931 25.3127 26.8318 24.6856 25.9888 23.8848C25.962 23.8592 25.9406 23.8285 25.926 23.7946C25.9114 23.7606 25.9038 23.7241 25.9037 23.6871C25.9036 23.6501 25.911 23.6135 25.9254 23.5795C25.9399 23.5455 25.9611 23.5147 25.9878 23.489C35.9311 13.9472 48.2123 6.93449 61.5038 3.20907C61.5355 3.20034 61.5685 3.19713 61.6013 3.19959C69.5901 3.7671 77.5749 6.05707 84.0849 9.64751C89.6994 12.7441 93.672 16.5698 94.4527 19.6316C95.2572 22.7866 92.7068 25.9776 86.8722 29.1158C82.8921 31.2565 77.4836 33.338 70.7967 35.3024C67.2098 36.3561 64.7094 38.211 63.3651 40.8156C61.2606 44.8927 62.3427 50.1177 63.621 53.783C64.6387 56.7018 63.4656 58.2644 62.6758 58.936C61.3173 60.0914 59.1397 60.2946 57.4978 59.4192C55.9096 58.5725 55.1388 56.9198 55.383 54.8848C55.4635 54.2145 55.2407 53.6786 54.7212 53.292C53.1694 52.1377 49.2474 52.4474 45.5986 54.0126C43.3374 54.9826 38.0088 57.8307 37.3676 63.3148C37.2301 64.4905 37.3747 65.3177 37.8099 65.8439C38.4256 66.5884 39.5776 66.6767 40.7973 66.7702C42.721 66.9176 44.9016 67.0847 44.884 70.1683C44.8581 74.2017 45.5772 75.0044 51.2963 77.3261C53.0893 78.054 54.2519 79.8973 55.3763 81.6799C57.046 84.3272 58.6229 86.8271 62.1146 86.4237C68.9562 85.6303 69.9879 88.6456 70.898 91.3057C71.264 92.3755 71.6097 93.3859 72.304 94.1037C73.5738 95.4159 74.7569 96.0594 75.9211 96.0711L75.9532 96.0713C78.049 96.0718 80.0656 94.0701 82.6154 91.5391C87.0636 87.1237 93.1588 81.0791 104.329 81.1618C105.889 81.1735 107.42 81.5674 109.04 81.9843C113.004 83.0044 117.938 84.274 126.276 80.4945C129.256 79.1435 131.781 79.1302 133.781 80.4552C137.823 83.1327 139.668 91.2127 139.264 104.471C139.078 110.571 135.335 113.879 132.032 116.797C129.608 118.939 127.318 120.962 126.668 123.81C124.833 131.864 120.381 135.346 116.707 137.479C113.867 139.128 112.376 140.78 112.018 142.675C111.669 144.519 112.447 146.652 114.33 149.016C115.22 150.135 116.954 151.904 118.79 153.777C120.126 155.14 121.508 156.549 122.777 157.918C122.806 157.949 122.827 157.986 122.839 158.027C122.851 158.067 122.853 158.11 122.846 158.151C122.839 158.193 122.822 158.232 122.797 158.266C122.771 158.3 122.739 158.328 122.701 158.348C120.483 159.484 118.216 160.522 115.906 161.459C115.873 161.473 115.838 161.48 115.802 161.48L115.802 161.479ZM64.0482 90.5457C64.9967 90.546 65.8183 90.9011 66.4111 91.5925C67.4604 92.8163 67.4927 94.7542 66.4933 96.5295C66.272 96.9226 65.9977 97.3448 65.7073 97.7919C63.9121 100.555 61.4534 104.339 65.9999 109.342C72.9972 117.041 77.7838 119.895 90.389 123.88C94.0127 125.027 96.3127 126.904 97.4205 129.619C98.3945 132.006 98.3464 134.723 98.3 137.351C98.2925 137.773 98.2848 138.209 98.2818 138.633C98.2143 148.127 103.622 155 115.811 160.906C117.955 160.032 120.061 159.071 122.126 158.025C120.93 156.745 119.643 155.432 118.396 154.159C116.55 152.276 114.807 150.498 113.898 149.357C111.884 146.828 111.092 144.609 111.477 142.574C111.867 140.51 113.441 138.741 116.43 137.005C120.007 134.928 124.343 131.537 126.132 123.688C126.82 120.669 129.174 118.589 131.666 116.387C135.043 113.403 138.535 110.318 138.714 104.454C138.872 99.2546 138.698 95.0031 138.182 91.4567C137.388 86.0022 135.805 82.4542 133.476 80.9115C131.645 79.6985 129.299 79.726 126.504 80.9933C117.989 84.8534 112.95 83.5567 108.902 82.515C107.316 82.1068 105.817 81.7212 104.325 81.71C93.3794 81.6307 87.3834 87.5803 83.0039 91.9274C80.3644 94.5474 78.2761 96.6199 75.9536 96.6195C75.9407 96.6195 75.9283 96.6195 75.9154 96.6193C74.596 96.606 73.285 95.9076 71.9075 94.4841C71.1282 93.6783 70.7462 92.5621 70.3769 91.4825C69.4927 88.8984 68.5783 86.226 62.1782 86.9682C61.9024 87.0001 61.6367 87.0155 61.3817 87.0154C58.0904 87.0149 56.4758 84.454 54.91 81.9715C53.7824 80.1837 52.7173 78.4951 51.0884 77.8337C48.2174 76.6682 46.4777 75.8309 45.5084 74.7459C44.5031 73.6205 44.3198 72.2677 44.3333 70.165C44.3481 67.5922 42.6829 67.4646 40.7548 67.3168C39.474 67.2186 38.1496 67.1171 37.3848 66.1925C36.8494 65.5451 36.6649 64.5831 36.8207 63.2514C37.0752 61.0743 38.0695 59.0658 39.7758 57.282C41.228 55.7636 43.1662 54.459 45.3807 53.5091C49.2588 51.8457 53.3255 51.5696 55.0506 52.8527C55.7296 53.3579 56.0335 54.083 55.9296 54.9498C55.634 57.4124 56.948 58.5042 57.7575 58.9358C59.2072 59.7089 61.1254 59.5335 62.3183 58.5191C63.4977 57.5162 63.7757 55.898 63.101 53.9628C61.7874 50.1965 60.6819 44.8146 62.8754 40.5649C64.2912 37.8218 66.9039 35.8743 70.6409 34.7765C80.0585 32.0101 95.6057 26.3813 93.9189 19.7666C93.1745 16.8465 89.304 13.1529 83.818 10.1272C77.3888 6.58116 69.5029 4.31708 61.6073 3.74968C48.5164 7.427 36.4128 14.3153 26.5845 23.6784C27.3688 24.3222 28.5703 24.8385 30.1621 25.2152C31.6563 25.5703 32.6205 26.4924 32.8772 27.8115C33.3928 30.4611 30.9993 33.9523 26.4744 37.1502C19.7261 41.9185 16.9873 47.1112 16.6745 50.3808C16.5271 51.9211 16.8759 53.1791 17.6831 54.0187C18.4656 54.8324 19.0497 54.3693 20.0992 53.4096C21.1706 52.4298 22.504 51.2101 24.4563 52.1829C26.2013 53.0527 26.3805 57.3717 26.6074 62.8397C26.9217 70.4142 27.313 79.8409 32.5655 80.4459C35.0897 80.7366 37.06 80.6927 38.6431 80.6573C40.7671 80.6098 42.3019 80.5756 43.8145 81.3241C45.3628 82.0901 46.8017 83.6603 48.6258 86.5744C51.7518 91.5683 57.9306 92.5093 62.4189 90.8582C62.9881 90.6489 63.5365 90.5458 64.048 90.5459L64.0482 90.5457Z" fill="#292B2E"/>
<path d="M162.863 54.7694C160.042 54.1228 155.999 51.6353 151.961 43.778C144.611 29.4775 143.56 31.22 130.848 32.9609C118.137 34.7017 123.25 22.8436 125.002 18.661C126.024 16.223 124.903 12.7191 123.795 10.2191C141.824 19.8433 155.714 35.6817 162.863 54.7695L162.863 54.7694Z" fill="white"/>
<path d="M162.863 55.0443C162.843 55.0443 162.822 55.042 162.802 55.0374C160.028 54.4018 155.854 51.9543 151.716 43.9037C148.625 37.8904 146.486 34.366 144.038 32.9639C141.705 31.628 139.024 32.0295 134.158 32.7584C133.181 32.9047 132.074 33.0705 130.886 33.2332C127.165 33.7428 124.607 33.1316 123.281 31.4164C120.737 28.1237 123.404 21.7627 124.686 18.7057L124.748 18.5564C125.729 16.2166 124.634 12.7917 123.543 10.3306C123.52 10.2784 123.514 10.2203 123.525 10.1643C123.537 10.1084 123.566 10.0575 123.608 10.0187C123.65 9.97994 123.703 9.95519 123.76 9.94793C123.817 9.94067 123.874 9.95127 123.925 9.97824C142.024 19.6396 155.944 35.5129 163.121 54.6744C163.137 54.7159 163.142 54.7605 163.136 54.8044C163.131 54.8483 163.115 54.8902 163.089 54.9266C163.064 54.9629 163.03 54.9926 162.991 55.0131C162.951 55.0336 162.907 55.0444 162.863 55.0443L162.863 55.0443ZM140.253 31.5435C141.813 31.5439 143.11 31.8003 144.312 32.4886C146.894 33.9669 148.996 37.4085 152.206 43.6539C155.998 51.0315 159.77 53.5794 162.417 54.3691C155.327 35.8001 141.843 20.3805 124.356 10.8345C125.37 13.3136 126.216 16.4783 125.256 18.7674L125.194 18.9169C123.952 21.8785 121.368 28.0413 123.718 31.082C124.914 32.6299 127.301 33.1708 130.811 32.69C131.995 32.5278 133.101 32.3623 134.076 32.2162C136.58 31.8411 138.57 31.5431 140.253 31.5435Z" fill="#292B2E"/>
</g>
<g clip-path="url(#clip2_271_2027)">
<path d="M135.56 89.3404C132.827 89.3404 130.612 87.1236 130.612 84.389C130.612 81.6543 132.827 79.4375 135.56 79.4375C138.292 79.4375 140.507 81.6543 140.507 84.389C140.507 87.1236 138.292 89.3404 135.56 89.3404Z" fill="#E1ECFB"/>
<path d="M135.612 77.1875C139.497 77.1873 142.647 80.839 142.647 85.3438C142.647 92.704 135.613 101.092 135.613 101.092C135.613 101.092 128.578 91.5785 128.578 85.3445C128.578 80.8397 131.727 77.1877 135.612 77.1875ZM135.592 88.3975C137.711 88.3974 139.429 86.678 139.429 84.557C139.429 82.436 137.71 80.7167 135.591 80.7168C133.472 80.7169 131.754 82.4363 131.754 84.5573C131.754 86.6783 133.472 88.3976 135.592 88.3975Z" fill="#E6485C"/>
</g>
<g clip-path="url(#clip3_271_2027)">
<path d="M29.71 56.2623C26.9775 56.2623 24.7624 54.0455 24.7624 51.3108C24.7624 48.5762 26.9775 46.3594 29.71 46.3594C32.4425 46.3594 34.6577 48.5762 34.6577 51.3108C34.6577 54.0455 32.4425 56.2623 29.71 56.2623Z" fill="#E1ECFB"/>
<path d="M29.7625 44.1094C33.6476 44.1092 36.7971 47.7609 36.7973 52.2657C36.7977 59.6259 29.7635 68.0142 29.7635 68.0142C29.7635 68.0142 22.7288 58.5004 22.7285 52.2664C22.7283 47.7616 25.8775 44.1096 29.7625 44.1094ZM29.7418 55.3194C31.8612 55.3193 33.5791 53.5999 33.579 51.4789C33.5788 49.3579 31.8608 47.6386 29.7415 47.6387C27.6221 47.6388 25.9042 49.3582 25.9042 51.4792C25.9043 53.6002 27.6226 55.3195 29.7418 55.3194Z" fill="#E6485C"/>
</g>
<path d="M136.046 100.542C106.174 97.731 43.184 87.1796 30.1963 67.4607" stroke="#191919" stroke-width="1.16721" stroke-dasharray="11.67 11.67"/>
<g clip-path="url(#clip4_271_2027)">
<path d="M75.976 89.863C76.7762 91.2714 79.8286 92.717 80.6367 92.9121L84.6031 94.0034L88.4902 103.68C88.5406 103.806 88.6545 103.895 88.7869 103.93L90.8236 104.461C90.9628 104.498 91.1085 104.458 91.2165 104.361C91.3246 104.265 91.3808 104.129 91.3597 103.986L90.1421 95.5174L95.8132 97.0184L96.7904 98.7383C96.8411 98.8275 96.927 98.8968 97.0238 98.9309L99.14 99.7106C99.2914 99.7657 99.4635 99.7243 99.5814 99.6148C99.6992 99.5054 99.7532 99.3413 99.7096 99.1862L98.5607 95.1192L101.635 92.2141C101.744 92.1096 101.79 91.9519 101.758 91.8037C101.727 91.657 101.619 91.5482 101.477 91.4993L99.6278 90.8621C99.5103 90.8224 99.3804 90.8323 99.2735 90.893L97.1882 92.0763L91.5159 90.4367L96.9289 83.8218C97.0203 83.71 97.042 83.5642 96.9985 83.4264C96.9894 83.3967 96.9787 83.3641 96.9637 83.3378C96.9093 83.2413 96.8188 83.1702 96.7121 83.1402L94.6905 82.5545C94.5589 82.517 94.4158 82.5344 94.3078 82.617L86.0018 88.9393L82.0354 87.8481C81.2228 87.6245 76.3462 87.0343 75.7971 88.866C75.7178 89.1798 75.7792 89.5163 75.9762 89.8629L75.976 89.863Z" fill="#292B2E"/>
</g>
</g>
<defs>
<clipPath id="clip0_271_2027">
<rect x="168.84" y="168" width="168.84" height="168" rx="84" transform="rotate(180 168.84 168)" fill="white"/>
</clipPath>
<clipPath id="clip1_271_2027">
<rect width="168.182" height="167.517" fill="white" transform="translate(0.200668 0.078125) rotate(0.0142237)"/>
</clipPath>
<clipPath id="clip2_271_2027">
<rect width="14.0688" height="23.9048" fill="white" transform="matrix(-1 0 0 1 142.647 77.1875)"/>
</clipPath>
<clipPath id="clip3_271_2027">
<rect width="14.0688" height="23.9048" fill="white" transform="matrix(-1 0 0 1 36.7973 44.1094)"/>
</clipPath>
<clipPath id="clip4_271_2027">
<rect width="21.7804" height="25.8436" fill="white" transform="matrix(-0.54838 0.836229 -0.836848 -0.547435 106.302 89.3906)"/>
</clipPath>
</defs>
</svg>
