<svg width="24" height="24" viewBox="0 0 24 24" fill="none" xmlns="http://www.w3.org/2000/svg">
<g clip-path="url(#clip0_6144_24425)">
<g clip-path="url(#clip1_6144_24425)">
<mask id="mask0_6144_24425" style="mask-type:luminance" maskUnits="userSpaceOnUse" x="-4" y="0" width="32" height="24">
<rect x="-4" width="32" height="24" fill="white"/>
</mask>
<g mask="url(#mask0_6144_24425)">
<path fill-rule="evenodd" clip-rule="evenodd" d="M4 0H28V24H4V0Z" fill="#E31D1C"/>
<path fill-rule="evenodd" clip-rule="evenodd" d="M-4 0H8V24H-4V0Z" fill="#2F8D00"/>
<mask id="mask1_6144_24425" style="mask-type:luminance" maskUnits="userSpaceOnUse" x="0" y="4" width="16" height="16">
<path fill-rule="evenodd" clip-rule="evenodd" d="M7.90472 19.8073C3.64423 19.8073 0.19043 16.3119 0.19043 12.0001C0.19043 7.68829 3.64423 4.19287 7.90472 4.19287C12.1652 4.19287 15.619 7.68829 15.619 12.0001C15.619 16.3119 12.1652 19.8073 7.90472 19.8073Z" fill="white"/>
</mask>
<g mask="url(#mask1_6144_24425)">
<path fill-rule="evenodd" clip-rule="evenodd" d="M7.42871 4H8.42871V6.6988H7.42871V4Z" fill="#FFE017"/>
<path fill-rule="evenodd" clip-rule="evenodd" d="M7.42871 17.4941H8.42871V20.0002H7.42871V17.4941Z" fill="#FFE017"/>
<path d="M0.314495 12.4038L0.0349121 11.6865C3.1201 10.4548 5.44866 9.6605 7.02865 9.30252C9.34677 8.77732 11.8938 8.38873 14.67 8.13647L14.7382 8.90447C11.9938 9.15383 9.47941 9.53743 7.1951 10.055C5.66214 10.4023 3.36592 11.1856 0.314495 12.4038Z" fill="#FFE017"/>
<path d="M15.1408 7.66409L14.914 8.40019C12.5822 7.66408 10.6828 7.34766 9.22279 7.44567L9.17236 6.67627C10.74 6.57104 12.7271 6.90207 15.1408 7.66409Z" fill="#FFE017"/>
<path d="M15.9476 11.7798L15.5166 12.4157C14.3279 11.5904 12.8635 11.1759 11.1133 11.1759V10.4048C13.0107 10.4048 14.6254 10.8619 15.9476 11.7798Z" fill="#FFE017"/>
<path d="M15.302 12.0107L15.499 12.7556C12.9364 13.4497 10.5304 13.8436 8.28098 13.9363C6.01602 14.0297 3.37616 13.6345 0.359131 12.7536L0.570314 12.0127C3.51401 12.8722 6.07465 13.2555 8.24996 13.1659C10.4408 13.0755 12.7915 12.6908 15.302 12.0107Z" fill="#FFE017"/>
<path d="M15.0116 15.636L13.8072 16.8707C11.5185 14.5841 9.5036 12.9491 7.77483 11.9668C6.01652 10.9676 3.72353 9.95302 0.899414 8.92712L1.47856 7.29419C4.38597 8.35034 6.7633 9.40224 8.61413 10.454C10.4945 11.5225 12.6228 13.2495 15.0116 15.636Z" fill="#FFE017"/>
<path d="M1.4583 16.3354L1.00244 15.7176C1.0661 15.6695 1.17969 15.5893 1.33619 15.4876C1.59459 15.3197 1.88153 15.1521 2.19025 14.9955C3.04055 14.5642 3.89349 14.2949 4.70701 14.2701C4.74679 14.2689 4.78641 14.2683 4.82586 14.2683V15.0394C4.79408 15.0394 4.76209 15.0399 4.72989 15.0409C4.04432 15.0617 3.29145 15.2994 2.53166 15.6849C2.24846 15.8285 1.98459 15.9826 1.74777 16.1365C1.66534 16.19 1.59241 16.2396 1.52991 16.2837C1.49348 16.3094 1.4693 16.3271 1.4583 16.3354Z" fill="#FFE017"/>
<path d="M1.81201 16.6028L2.00388 15.8566C4.544 16.5255 6.50229 16.8589 7.86897 16.8589C9.23056 16.8589 11.2571 16.4657 13.9356 15.6765L14.1485 16.4169C11.4068 17.2247 9.31796 17.6299 7.86897 17.6299C6.4251 17.6299 4.40936 17.2868 1.81201 16.6028Z" fill="#FFE017"/>
<path d="M0.82251 9.69458L2.02959 8.46265L3.79691 10.2363L2.58983 11.4682L0.82251 9.69458Z" fill="#FFE017"/>
<path d="M10.8359 15.8478L11.7338 14.3699L14.5374 16.1143L13.6396 17.5923L10.8359 15.8478Z" fill="#FFE017"/>
</g>
<path fill-rule="evenodd" clip-rule="evenodd" d="M0.19043 12.0001C0.19043 16.3119 3.64423 19.8073 7.90472 19.8073C12.1652 19.8073 15.619 16.3119 15.619 12.0001C15.619 7.68829 12.1652 4.19287 7.90472 4.19287C3.64423 4.19287 0.19043 7.68829 0.19043 12.0001ZM14.6666 12.0965C14.6666 15.8227 11.6819 18.8435 7.99995 18.8435C4.31806 18.8435 1.33329 15.8227 1.33329 12.0965C1.33329 8.37023 4.31806 5.3495 7.99995 5.3495C11.6819 5.3495 14.6666 8.37023 14.6666 12.0965Z" fill="#F9E813"/>
<path d="M3.65674 7.1853V13.446C4.06887 15.9241 5.45734 17.1631 7.82213 17.1631C10.1869 17.1631 11.5754 15.9241 11.9875 13.446V7.1853H3.65674Z" fill="white"/>
<path d="M3.08521 6.60693H12.5588V13.4943L12.5509 13.5419C12.0933 16.2936 10.4709 17.7414 7.82202 17.7414C5.17313 17.7414 3.55077 16.2936 3.09313 13.5419L3.08521 13.4943V6.60693Z" fill="#C51918"/>
<path d="M5.2522 8.71069H10.3919V13.1516C10.3919 13.1516 10.0105 15.4449 7.82206 15.4449C5.6336 15.4449 5.2522 13.1516 5.2522 13.1516V8.71069Z" fill="#F7FCFF"/>
<path fill-rule="evenodd" clip-rule="evenodd" d="M3.99976 7.08423H4.72265V7.56616H3.99976V7.08423Z" fill="#F9E813"/>
<path fill-rule="evenodd" clip-rule="evenodd" d="M3.6189 7.2771H4.95223V7.51806H3.6189V7.2771Z" fill="#292B2E"/>
<path fill-rule="evenodd" clip-rule="evenodd" d="M3.6189 7.46973H4.34179V7.71069H3.6189V7.46973Z" fill="#F9E813"/>
<path fill-rule="evenodd" clip-rule="evenodd" d="M4.38086 7.46973H5.10375V7.71069H4.38086V7.46973Z" fill="#F9E813"/>
<path fill-rule="evenodd" clip-rule="evenodd" d="M3.6189 8.0481H4.10082V8.77099H3.6189V8.0481Z" fill="#F9E813"/>
<path fill-rule="evenodd" clip-rule="evenodd" d="M4.57129 8.0481H5.05322V8.77099H4.57129V8.0481Z" fill="#F9E813"/>
<path fill-rule="evenodd" clip-rule="evenodd" d="M4.19043 8.0481H4.43139V8.77099H4.19043V8.0481Z" fill="#F9E813"/>
<path fill-rule="evenodd" clip-rule="evenodd" d="M3.6189 7.85522H4.95223V8.09619H3.6189V7.85522Z" fill="#292B2E"/>
<path fill-rule="evenodd" clip-rule="evenodd" d="M3.6189 8.43359H4.95223V8.67456H3.6189V8.43359Z" fill="#292B2E"/>
<path fill-rule="evenodd" clip-rule="evenodd" d="M3.80933 7.6626H4.05029V7.90356H3.80933V7.6626Z" fill="#F9E813"/>
<path fill-rule="evenodd" clip-rule="evenodd" d="M4.57129 7.6626H4.81225V7.90356H4.57129V7.6626Z" fill="#F9E813"/>
<path fill-rule="evenodd" clip-rule="evenodd" d="M4.19043 7.46973H4.43139V7.95165H4.19043V7.46973Z" fill="#F9E813"/>
<path fill-rule="evenodd" clip-rule="evenodd" d="M7.61865 7.08423H8.34154V7.56616H7.61865V7.08423Z" fill="#F9E813"/>
<path fill-rule="evenodd" clip-rule="evenodd" d="M7.23779 7.2771H8.57113V7.51806H7.23779V7.2771Z" fill="#292B2E"/>
<path fill-rule="evenodd" clip-rule="evenodd" d="M7.23779 7.46973H7.96068V7.71069H7.23779V7.46973Z" fill="#F9E813"/>
<path fill-rule="evenodd" clip-rule="evenodd" d="M7.99951 7.46973H8.7224V7.71069H7.99951V7.46973Z" fill="#F9E813"/>
<path fill-rule="evenodd" clip-rule="evenodd" d="M7.23779 8.0481H7.71972V8.77099H7.23779V8.0481Z" fill="#F9E813"/>
<path fill-rule="evenodd" clip-rule="evenodd" d="M8.18994 8.0481H8.67187V8.77099H8.18994V8.0481Z" fill="#F9E813"/>
<path fill-rule="evenodd" clip-rule="evenodd" d="M7.80908 8.0481H8.05005V8.77099H7.80908V8.0481Z" fill="#F9E813"/>
<path fill-rule="evenodd" clip-rule="evenodd" d="M7.23779 7.85522H8.57113V8.09619H7.23779V7.85522Z" fill="#292B2E"/>
<path fill-rule="evenodd" clip-rule="evenodd" d="M7.23779 8.43359H8.57113V8.67456H7.23779V8.43359Z" fill="#292B2E"/>
<path fill-rule="evenodd" clip-rule="evenodd" d="M7.42822 7.6626H7.66919V7.90356H7.42822V7.6626Z" fill="#F9E813"/>
<path fill-rule="evenodd" clip-rule="evenodd" d="M8.18994 7.6626H8.43091V7.90356H8.18994V7.6626Z" fill="#F9E813"/>
<path fill-rule="evenodd" clip-rule="evenodd" d="M7.80908 7.46973H8.05005V7.95165H7.80908V7.46973Z" fill="#F9E813"/>
<path fill-rule="evenodd" clip-rule="evenodd" d="M11.0474 7.08423H11.7703V7.56616H11.0474V7.08423Z" fill="#F9E813"/>
<path fill-rule="evenodd" clip-rule="evenodd" d="M10.6665 7.2771H11.9998V7.51806H10.6665V7.2771Z" fill="#292B2E"/>
<path fill-rule="evenodd" clip-rule="evenodd" d="M10.6665 7.46973H11.3894V7.71069H10.6665V7.46973Z" fill="#F9E813"/>
<path fill-rule="evenodd" clip-rule="evenodd" d="M11.4282 7.46973H12.1511V7.71069H11.4282V7.46973Z" fill="#F9E813"/>
<path fill-rule="evenodd" clip-rule="evenodd" d="M10.6665 8.0481H11.1484V8.77099H10.6665V8.0481Z" fill="#F9E813"/>
<path fill-rule="evenodd" clip-rule="evenodd" d="M11.6187 8.0481H12.1006V8.77099H11.6187V8.0481Z" fill="#F9E813"/>
<path fill-rule="evenodd" clip-rule="evenodd" d="M11.2378 8.0481H11.4788V8.77099H11.2378V8.0481Z" fill="#F9E813"/>
<path fill-rule="evenodd" clip-rule="evenodd" d="M10.6665 7.85522H11.9998V8.09619H10.6665V7.85522Z" fill="#292B2E"/>
<path fill-rule="evenodd" clip-rule="evenodd" d="M10.6665 8.43359H11.9998V8.67456H10.6665V8.43359Z" fill="#292B2E"/>
<path fill-rule="evenodd" clip-rule="evenodd" d="M10.8569 7.6626H11.0979V7.90356H10.8569V7.6626Z" fill="#F9E813"/>
<path fill-rule="evenodd" clip-rule="evenodd" d="M11.6187 7.6626H11.8596V7.90356H11.6187V7.6626Z" fill="#F9E813"/>
<path fill-rule="evenodd" clip-rule="evenodd" d="M11.2378 7.46973H11.4788V7.95165H11.2378V7.46973Z" fill="#F9E813"/>
<path fill-rule="evenodd" clip-rule="evenodd" d="M11.0474 10.5542H11.7703V11.0361H11.0474V10.5542Z" fill="#F9E813"/>
<path fill-rule="evenodd" clip-rule="evenodd" d="M10.6665 10.7471H11.9998V10.988H10.6665V10.7471Z" fill="#292B2E"/>
<path fill-rule="evenodd" clip-rule="evenodd" d="M10.6665 10.9397H11.3894V11.1807H10.6665V10.9397Z" fill="#F9E813"/>
<path fill-rule="evenodd" clip-rule="evenodd" d="M11.4282 10.9397H12.1511V11.1807H11.4282V10.9397Z" fill="#F9E813"/>
<path fill-rule="evenodd" clip-rule="evenodd" d="M10.6665 11.5181H11.1484V12.241H10.6665V11.5181Z" fill="#F9E813"/>
<path fill-rule="evenodd" clip-rule="evenodd" d="M11.6187 11.5181H12.1006V12.241H11.6187V11.5181Z" fill="#F9E813"/>
<path fill-rule="evenodd" clip-rule="evenodd" d="M11.2378 11.5181H11.4788V12.241H11.2378V11.5181Z" fill="#F9E813"/>
<path fill-rule="evenodd" clip-rule="evenodd" d="M10.6665 11.3252H11.9998V11.5662H10.6665V11.3252Z" fill="#292B2E"/>
<path fill-rule="evenodd" clip-rule="evenodd" d="M10.6665 11.9036H11.9998V12.1445H10.6665V11.9036Z" fill="#292B2E"/>
<path fill-rule="evenodd" clip-rule="evenodd" d="M10.8569 11.1326H11.0979V11.3735H10.8569V11.1326Z" fill="#F9E813"/>
<path fill-rule="evenodd" clip-rule="evenodd" d="M11.6187 11.1326H11.8596V11.3735H11.6187V11.1326Z" fill="#F9E813"/>
<path fill-rule="evenodd" clip-rule="evenodd" d="M11.2378 10.9397H11.4788V11.4216H11.2378V10.9397Z" fill="#F9E813"/>
<path fill-rule="evenodd" clip-rule="evenodd" d="M3.99976 10.5542H4.72265V11.0361H3.99976V10.5542Z" fill="#F9E813"/>
<path fill-rule="evenodd" clip-rule="evenodd" d="M3.6189 10.7471H4.95223V10.988H3.6189V10.7471Z" fill="#292B2E"/>
<path fill-rule="evenodd" clip-rule="evenodd" d="M3.6189 10.9397H4.34179V11.1807H3.6189V10.9397Z" fill="#F9E813"/>
<path fill-rule="evenodd" clip-rule="evenodd" d="M4.38086 10.9397H5.10375V11.1807H4.38086V10.9397Z" fill="#F9E813"/>
<path fill-rule="evenodd" clip-rule="evenodd" d="M3.6189 11.5181H4.10082V12.241H3.6189V11.5181Z" fill="#F9E813"/>
<path fill-rule="evenodd" clip-rule="evenodd" d="M4.57129 11.5181H5.05322V12.241H4.57129V11.5181Z" fill="#F9E813"/>
<path fill-rule="evenodd" clip-rule="evenodd" d="M4.19043 11.5181H4.43139V12.241H4.19043V11.5181Z" fill="#F9E813"/>
<path fill-rule="evenodd" clip-rule="evenodd" d="M3.6189 11.3252H4.95223V11.5662H3.6189V11.3252Z" fill="#292B2E"/>
<path fill-rule="evenodd" clip-rule="evenodd" d="M3.6189 11.9036H4.95223V12.1445H3.6189V11.9036Z" fill="#292B2E"/>
<path fill-rule="evenodd" clip-rule="evenodd" d="M3.80933 11.1326H4.05029V11.3735H3.80933V11.1326Z" fill="#F9E813"/>
<path fill-rule="evenodd" clip-rule="evenodd" d="M4.57129 11.1326H4.81225V11.3735H4.57129V11.1326Z" fill="#F9E813"/>
<path fill-rule="evenodd" clip-rule="evenodd" d="M4.19043 10.9397H4.43139V11.4216H4.19043V10.9397Z" fill="#F9E813"/>
<path fill-rule="evenodd" clip-rule="evenodd" d="M4.46362 14.9038L4.92829 14.35L5.29747 14.6598L4.8328 15.2136L4.46362 14.9038Z" fill="#F9E813"/>
<path fill-rule="evenodd" clip-rule="evenodd" d="M4.36646 15.3196L5.22351 14.2982L5.40809 14.4531L4.55104 15.4745L4.36646 15.3196Z" fill="#292B2E"/>
<path fill-rule="evenodd" clip-rule="evenodd" d="M4.51416 15.4434L4.97883 14.8896L5.16341 15.0445L4.69875 15.5982L4.51416 15.4434Z" fill="#F9E813"/>
<path fill-rule="evenodd" clip-rule="evenodd" d="M5.00391 14.8596L5.46857 14.3059L5.65316 14.4607L5.1885 15.0145L5.00391 14.8596Z" fill="#F9E813"/>
<path fill-rule="evenodd" clip-rule="evenodd" d="M4.95703 15.8152L5.26681 15.446L5.82058 15.9107L5.5108 16.2799L4.95703 15.8152Z" fill="#F9E813"/>
<path fill-rule="evenodd" clip-rule="evenodd" d="M5.56934 15.0854L5.87911 14.7163L6.43288 15.1809L6.1231 15.5501L5.56934 15.0854Z" fill="#F9E813"/>
<path fill-rule="evenodd" clip-rule="evenodd" d="M5.32446 15.3774L5.47935 15.1929L6.03312 15.6575L5.87823 15.8421L5.32446 15.3774Z" fill="#F9E813"/>
<path fill-rule="evenodd" clip-rule="evenodd" d="M4.80933 15.6912L5.66638 14.6698L5.85097 14.8247L4.99392 15.8461L4.80933 15.6912Z" fill="#292B2E"/>
<path fill-rule="evenodd" clip-rule="evenodd" d="M5.25244 16.063L6.10949 15.0416L6.29408 15.1965L5.43703 16.2179L5.25244 16.063Z" fill="#292B2E"/>
<path fill-rule="evenodd" clip-rule="evenodd" d="M4.78418 15.4214L4.93907 15.2368L5.12366 15.3917L4.96877 15.5763L4.78418 15.4214Z" fill="#F9E813"/>
<path fill-rule="evenodd" clip-rule="evenodd" d="M5.27393 14.8376L5.42881 14.6531L5.6134 14.8079L5.45851 14.9925L5.27393 14.8376Z" fill="#F9E813"/>
<path fill-rule="evenodd" clip-rule="evenodd" d="M4.88135 15.0056L5.03624 14.821L5.40541 15.1308L5.25053 15.3154L4.88135 15.0056Z" fill="#F9E813"/>
<path fill-rule="evenodd" clip-rule="evenodd" d="M10.978 14.4661L11.4427 15.0198L11.0735 15.3296L10.6088 14.7758L10.978 14.4661Z" fill="#F9E813"/>
<path fill-rule="evenodd" clip-rule="evenodd" d="M10.5859 14.2983L11.443 15.3197L11.2584 15.4746L10.4013 14.4532L10.5859 14.2983Z" fill="#292B2E"/>
<path fill-rule="evenodd" clip-rule="evenodd" d="M10.438 14.4221L10.9027 14.9759L10.7181 15.1308L10.2534 14.577L10.438 14.4221Z" fill="#F9E813"/>
<path fill-rule="evenodd" clip-rule="evenodd" d="M10.9277 15.0059L11.3924 15.5596L11.2078 15.7145L10.7431 15.1607L10.9277 15.0059Z" fill="#F9E813"/>
<path fill-rule="evenodd" clip-rule="evenodd" d="M9.99512 14.7939L10.3049 15.1631L9.75113 15.6278L9.44135 15.2586L9.99512 14.7939Z" fill="#F9E813"/>
<path fill-rule="evenodd" clip-rule="evenodd" d="M10.6074 15.5234L10.9172 15.8926L10.3634 16.3573L10.0537 15.9881L10.6074 15.5234Z" fill="#F9E813"/>
<path fill-rule="evenodd" clip-rule="evenodd" d="M10.3623 15.2317L10.5172 15.4163L9.96343 15.8809L9.80854 15.6964L10.3623 15.2317Z" fill="#F9E813"/>
<path fill-rule="evenodd" clip-rule="evenodd" d="M10.1426 14.6699L10.9996 15.6913L10.815 15.8462L9.95799 14.8248L10.1426 14.6699Z" fill="#292B2E"/>
<path fill-rule="evenodd" clip-rule="evenodd" d="M9.69971 15.0417L10.5568 16.0631L10.3722 16.218L9.51512 15.1966L9.69971 15.0417Z" fill="#292B2E"/>
<path fill-rule="evenodd" clip-rule="evenodd" d="M10.4126 14.6919L10.5675 14.8765L10.3829 15.0314L10.228 14.8468L10.4126 14.6919Z" fill="#F9E813"/>
<path fill-rule="evenodd" clip-rule="evenodd" d="M10.9023 15.2756L11.0572 15.4602L10.8726 15.6151L10.7178 15.4305L10.9023 15.2756Z" fill="#F9E813"/>
<path fill-rule="evenodd" clip-rule="evenodd" d="M10.8052 14.8599L10.9601 15.0445L10.5909 15.3542L10.436 15.1696L10.8052 14.8599Z" fill="#F9E813"/>
<path fill-rule="evenodd" clip-rule="evenodd" d="M8.55813 9.20483H7.23779V10.1663C7.23779 10.1663 7.33577 10.6628 7.89796 10.6628C8.46015 10.6628 8.55813 10.1663 8.55813 10.1663V9.20483ZM7.80922 9.59038C7.80922 9.69684 7.72394 9.78315 7.61875 9.78315C7.51355 9.78315 7.42827 9.69684 7.42827 9.59038C7.42827 9.48391 7.51355 9.39761 7.61875 9.39761C7.72394 9.39761 7.80922 9.48391 7.80922 9.59038ZM7.61875 10.5542C7.72394 10.5542 7.80922 10.4679 7.80922 10.3615C7.80922 10.255 7.72394 10.1687 7.61875 10.1687C7.51355 10.1687 7.42827 10.255 7.42827 10.3615C7.42827 10.4679 7.51355 10.5542 7.61875 10.5542ZM8.38065 10.3615C8.38065 10.4679 8.29537 10.5542 8.19017 10.5542C8.08498 10.5542 7.9997 10.4679 7.9997 10.3615C7.9997 10.255 8.08498 10.1687 8.19017 10.1687C8.29537 10.1687 8.38065 10.255 8.38065 10.3615ZM7.90446 10.1687C8.00966 10.1687 8.09494 10.0824 8.09494 9.97592C8.09494 9.86945 8.00966 9.78315 7.90446 9.78315C7.79926 9.78315 7.71398 9.86945 7.71398 9.97592C7.71398 10.0824 7.79926 10.1687 7.90446 10.1687ZM8.38065 9.59038C8.38065 9.69684 8.29537 9.78315 8.19017 9.78315C8.08498 9.78315 7.9997 9.69684 7.9997 9.59038C7.9997 9.48391 8.08498 9.39761 8.19017 9.39761C8.29537 9.39761 8.38065 9.48391 8.38065 9.59038Z" fill="#013399"/>
<path fill-rule="evenodd" clip-rule="evenodd" d="M8.55813 11.3252H7.23779V12.2867C7.23779 12.2867 7.33577 12.7832 7.89796 12.7832C8.46015 12.7832 8.55813 12.2867 8.55813 12.2867V11.3252ZM7.80922 11.7107C7.80922 11.8172 7.72394 11.9035 7.61875 11.9035C7.51355 11.9035 7.42827 11.8172 7.42827 11.7107C7.42827 11.6043 7.51355 11.518 7.61875 11.518C7.72394 11.518 7.80922 11.6043 7.80922 11.7107ZM7.61875 12.6746C7.72394 12.6746 7.80922 12.5883 7.80922 12.4818C7.80922 12.3754 7.72394 12.2891 7.61875 12.2891C7.51355 12.2891 7.42827 12.3754 7.42827 12.4818C7.42827 12.5883 7.51355 12.6746 7.61875 12.6746ZM8.38065 12.4818C8.38065 12.5883 8.29537 12.6746 8.19017 12.6746C8.08498 12.6746 7.9997 12.5883 7.9997 12.4818C7.9997 12.3754 8.08498 12.2891 8.19017 12.2891C8.29537 12.2891 8.38065 12.3754 8.38065 12.4818ZM7.90446 12.2891C8.00966 12.2891 8.09494 12.2027 8.09494 12.0963C8.09494 11.9898 8.00966 11.9035 7.90446 11.9035C7.79926 11.9035 7.71398 11.9898 7.71398 12.0963C7.71398 12.2027 7.79926 12.2891 7.90446 12.2891ZM8.38065 11.7107C8.38065 11.8172 8.29537 11.9035 8.19017 11.9035C8.08498 11.9035 7.9997 11.8172 7.9997 11.7107C7.9997 11.6043 8.08498 11.518 8.19017 11.518C8.29537 11.518 8.38065 11.6043 8.38065 11.7107Z" fill="#013399"/>
<path fill-rule="evenodd" clip-rule="evenodd" d="M10.2725 11.3252H8.95215V12.2867C8.95215 12.2867 9.05013 12.7832 9.61231 12.7832C10.1745 12.7832 10.2725 12.2867 10.2725 12.2867V11.3252ZM9.52358 11.7107C9.52358 11.8172 9.4383 11.9035 9.3331 11.9035C9.2279 11.9035 9.14262 11.8172 9.14262 11.7107C9.14262 11.6043 9.2279 11.518 9.3331 11.518C9.4383 11.518 9.52358 11.6043 9.52358 11.7107ZM9.3331 12.6746C9.4383 12.6746 9.52358 12.5883 9.52358 12.4818C9.52358 12.3754 9.4383 12.2891 9.3331 12.2891C9.2279 12.2891 9.14262 12.3754 9.14262 12.4818C9.14262 12.5883 9.2279 12.6746 9.3331 12.6746ZM10.095 12.4818C10.095 12.5883 10.0097 12.6746 9.90453 12.6746C9.79933 12.6746 9.71405 12.5883 9.71405 12.4818C9.71405 12.3754 9.79933 12.2891 9.90453 12.2891C10.0097 12.2891 10.095 12.3754 10.095 12.4818ZM9.61882 12.2891C9.72401 12.2891 9.80929 12.2027 9.80929 12.0963C9.80929 11.9898 9.72401 11.9035 9.61882 11.9035C9.51362 11.9035 9.42834 11.9898 9.42834 12.0963C9.42834 12.2027 9.51362 12.2891 9.61882 12.2891ZM10.095 11.7107C10.095 11.8172 10.0097 11.9035 9.90453 11.9035C9.79933 11.9035 9.71405 11.8172 9.71405 11.7107C9.71405 11.6043 9.79933 11.518 9.90453 11.518C10.0097 11.518 10.095 11.6043 10.095 11.7107Z" fill="#013399"/>
<path fill-rule="evenodd" clip-rule="evenodd" d="M6.84401 11.3252H5.52368V12.2867C5.52368 12.2867 5.62166 12.7832 6.18385 12.7832C6.74604 12.7832 6.84401 12.2867 6.84401 12.2867V11.3252ZM6.09511 11.7107C6.09511 11.8172 6.00983 11.9035 5.90463 11.9035C5.79944 11.9035 5.71416 11.8172 5.71416 11.7107C5.71416 11.6043 5.79944 11.518 5.90463 11.518C6.00983 11.518 6.09511 11.6043 6.09511 11.7107ZM5.90463 12.6746C6.00983 12.6746 6.09511 12.5883 6.09511 12.4818C6.09511 12.3754 6.00983 12.2891 5.90463 12.2891C5.79944 12.2891 5.71416 12.3754 5.71416 12.4818C5.71416 12.5883 5.79944 12.6746 5.90463 12.6746ZM6.66654 12.4818C6.66654 12.5883 6.58126 12.6746 6.47606 12.6746C6.37087 12.6746 6.28559 12.5883 6.28559 12.4818C6.28559 12.3754 6.37087 12.2891 6.47606 12.2891C6.58126 12.2891 6.66654 12.3754 6.66654 12.4818ZM6.19035 12.2891C6.29555 12.2891 6.38082 12.2027 6.38082 12.0963C6.38082 11.9898 6.29555 11.9035 6.19035 11.9035C6.08515 11.9035 5.99987 11.9898 5.99987 12.0963C5.99987 12.2027 6.08515 12.2891 6.19035 12.2891ZM6.66654 11.7107C6.66654 11.8172 6.58126 11.9035 6.47606 11.9035C6.37087 11.9035 6.28559 11.8172 6.28559 11.7107C6.28559 11.6043 6.37087 11.518 6.47606 11.518C6.58126 11.518 6.66654 11.6043 6.66654 11.7107Z" fill="#013399"/>
<path fill-rule="evenodd" clip-rule="evenodd" d="M8.55813 13.4458H7.23779V14.4073C7.23779 14.4073 7.33577 14.9038 7.89796 14.9038C8.46015 14.9038 8.55813 14.4073 8.55813 14.4073V13.4458ZM7.80922 13.8313C7.80922 13.9378 7.72394 14.0241 7.61875 14.0241C7.51355 14.0241 7.42827 13.9378 7.42827 13.8313C7.42827 13.7249 7.51355 13.6386 7.61875 13.6386C7.72394 13.6386 7.80922 13.7249 7.80922 13.8313ZM7.61875 14.7952C7.72394 14.7952 7.80922 14.7089 7.80922 14.6024C7.80922 14.496 7.72394 14.4097 7.61875 14.4097C7.51355 14.4097 7.42827 14.496 7.42827 14.6024C7.42827 14.7089 7.51355 14.7952 7.61875 14.7952ZM8.38065 14.6024C8.38065 14.7089 8.29537 14.7952 8.19017 14.7952C8.08498 14.7952 7.9997 14.7089 7.9997 14.6024C7.9997 14.496 8.08498 14.4097 8.19017 14.4097C8.29537 14.4097 8.38065 14.496 8.38065 14.6024ZM7.90446 14.4097C8.00966 14.4097 8.09494 14.3233 8.09494 14.2169C8.09494 14.1104 8.00966 14.0241 7.90446 14.0241C7.79926 14.0241 7.71398 14.1104 7.71398 14.2169C7.71398 14.3233 7.79926 14.4097 7.90446 14.4097ZM8.38065 13.8313C8.38065 13.9378 8.29537 14.0241 8.19017 14.0241C8.08498 14.0241 7.9997 13.9378 7.9997 13.8313C7.9997 13.7249 8.08498 13.6386 8.19017 13.6386C8.29537 13.6386 8.38065 13.7249 8.38065 13.8313Z" fill="#013399"/>
</g>
</g>
<g style="mix-blend-mode:hard-light" opacity="0.12">
<rect width="24" height="24" rx="12" fill="white"/>
</g>
<rect width="24" height="24" fill="url(#paint0_linear_6144_24425)" fill-opacity="0.64" style="mix-blend-mode:overlay"/>
</g>
<defs>
<linearGradient id="paint0_linear_6144_24425" x1="24" y1="1.19273e-06" x2="-4.48665" y2="16.0237" gradientUnits="userSpaceOnUse">
<stop stop-color="white" stop-opacity="0.3"/>
<stop offset="0.262741" stop-opacity="0.27"/>
<stop offset="0.369956" stop-color="white" stop-opacity="0.26"/>
<stop offset="0.487001" stop-opacity="0.55"/>
<stop offset="0.594445" stop-opacity="0.24"/>
<stop offset="0.736408" stop-color="white" stop-opacity="0.3"/>
<stop offset="0.901459" stop-color="#272727" stop-opacity="0.22"/>
<stop offset="1" stop-opacity="0.2"/>
</linearGradient>
<clipPath id="clip0_6144_24425">
<rect width="24" height="24" rx="12" fill="white"/>
</clipPath>
<clipPath id="clip1_6144_24425">
<rect width="24" height="24" fill="white"/>
</clipPath>
</defs>
</svg>
