<svg width="24" height="24" viewBox="0 0 24 24" fill="none" xmlns="http://www.w3.org/2000/svg">
<g clip-path="url(#clip0_6144_24427)">
<g clip-path="url(#clip1_6144_24427)">
<mask id="mask0_6144_24427" style="mask-type:luminance" maskUnits="userSpaceOnUse" x="-4" y="0" width="32" height="24">
<rect x="-4" width="32" height="24" fill="white"/>
</mask>
<g mask="url(#mask0_6144_24427)">
<path fill-rule="evenodd" clip-rule="evenodd" d="M-4 0V24H28V0H-4Z" fill="#F7FCFF"/>
<mask id="mask1_6144_24427" style="mask-type:luminance" maskUnits="userSpaceOnUse" x="-4" y="0" width="32" height="24">
<path fill-rule="evenodd" clip-rule="evenodd" d="M-4 0V24H28V0H-4Z" fill="white"/>
</mask>
<g mask="url(#mask1_6144_24427)">
<path fill-rule="evenodd" clip-rule="evenodd" d="M-4 0V8H28V0H-4Z" fill="#F03F34"/>
<path fill-rule="evenodd" clip-rule="evenodd" d="M-4 16V24H28V16H-4Z" fill="#3D58DB"/>
<path fill-rule="evenodd" clip-rule="evenodd" d="M8.82495 12C8.82495 10.2464 10.2464 8.82495 12 8.82495C13.7535 8.82495 15.175 10.2464 15.175 12C15.175 13.7535 13.7535 15.175 12 15.175C10.2464 15.175 8.82495 13.7535 8.82495 12ZM12 9.17495C10.4397 9.17495 9.17495 10.4397 9.17495 12C9.17495 13.5602 10.4397 14.825 12 14.825C13.5602 14.825 14.825 13.5602 14.825 12C14.825 10.4397 13.5602 9.17495 12 9.17495Z" fill="#292B2E"/>
<path fill-rule="evenodd" clip-rule="evenodd" d="M9.82495 12C9.82495 10.7987 10.7987 9.82495 12 9.82495C13.2012 9.82495 14.175 10.7987 14.175 12C14.175 13.2012 13.2012 14.175 12 14.175C10.7987 14.175 9.82495 13.2012 9.82495 12ZM12 10.175C10.992 10.175 10.175 10.992 10.175 12C10.175 13.0079 10.992 13.825 12 13.825C13.0079 13.825 13.825 13.0079 13.825 12C13.825 10.992 13.0079 10.175 12 10.175Z" fill="#292B2E"/>
<path fill-rule="evenodd" clip-rule="evenodd" d="M12.0648 12.6423C12.039 12.6285 12.0079 12.629 11.9825 12.6435L11.3826 12.9884C11.3151 13.0272 11.2354 12.9622 11.2598 12.8882L11.4511 12.3105C11.4616 12.2789 11.4526 12.2441 11.4282 12.2215L11.0274 11.8514C10.9713 11.7995 11.007 11.7057 11.0834 11.7043L11.6381 11.6942C11.6713 11.6936 11.7011 11.6737 11.7143 11.6433L11.9724 11.0509C12.0025 10.9817 12.1013 10.9834 12.129 11.0537L12.3654 11.6527C12.378 11.6846 12.4086 11.7058 12.4428 11.7064L12.991 11.7159C13.0677 11.7173 13.1033 11.8118 13.0465 11.8634L12.6326 12.24C12.6072 12.2631 12.5982 12.2992 12.6099 12.3315L12.8043 12.8708C12.8307 12.9439 12.753 13.0111 12.6845 12.9743L12.0648 12.6423Z" fill="#FBCD17"/>
<path d="M10.5642 9.0437L11.031 9.76192L10.5642 9.0437Z" fill="#F7FCFF"/>
</g>
</g>
</g>
<g style="mix-blend-mode:hard-light" opacity="0.12">
<rect width="24" height="24" rx="12" fill="white"/>
</g>
<rect width="24" height="24" fill="url(#paint0_linear_6144_24427)" fill-opacity="0.64" style="mix-blend-mode:overlay"/>
</g>
<defs>
<linearGradient id="paint0_linear_6144_24427" x1="24" y1="1.19273e-06" x2="-4.48665" y2="16.0237" gradientUnits="userSpaceOnUse">
<stop stop-color="white" stop-opacity="0.3"/>
<stop offset="0.262741" stop-opacity="0.27"/>
<stop offset="0.369956" stop-color="white" stop-opacity="0.26"/>
<stop offset="0.487001" stop-opacity="0.55"/>
<stop offset="0.594445" stop-opacity="0.24"/>
<stop offset="0.736408" stop-color="white" stop-opacity="0.3"/>
<stop offset="0.901459" stop-color="#272727" stop-opacity="0.22"/>
<stop offset="1" stop-opacity="0.2"/>
</linearGradient>
<clipPath id="clip0_6144_24427">
<rect width="24" height="24" rx="12" fill="white"/>
</clipPath>
<clipPath id="clip1_6144_24427">
<rect width="24" height="24" fill="white"/>
</clipPath>
</defs>
</svg>
