<svg xmlns="http://www.w3.org/2000/svg" id="Layer_1" viewBox="0 0 184 100"><defs><style>.cls-1{fill:#56575a;stroke-width:0px;}</style></defs><path class="cls-1" d="M95.52,27.65c-.3.05-.58,1.13-1.15,1.7-.42.41-.94.38-1.22.89-.11.19-.07.51-.19.82-.23.62-1.05.67-1.05,1.35,0,.73.68.87,1.28,1.39.46.41.51.7,1.07.9.48.16,1.2-.37,1.84-.18.53.15,1.04.27,1.15.81.11.5,0,1.27-.65,1.19-.22-.03-1.15-.34-2.3-.22-1.39.16-2.97.61-3.12,2.16-.09.86.99,1.89,2.02,1.68.72-.14.37-.99.77-1.39.51-.53,3.4,1.83,6.09,1.83,1.13,0,1.97-.29,2.81-1.16.08-.07.17-.21.3-.22.12,0,.32.12.37.17,2.17,1.73,3.8,5.22,11.75,5.26,1.12,0,2.4.54,3.43,1.49.93.85,1.47,2.19,1.99,3.55.8,2.03,2.22,4.01,4.38,6.2.12.12,1.9,1.5,2.04,1.6.02.02.15.33.11.5-.06,1.32-.25,5.16,2.62,5.33.7.04.52-.46.52-.8,0-.67-.12-1.33.23-2.01.48-.94-1.02-1.37-.98-3.4.03-1.51-1.25-1.26-1.89-2.42-.37-.67-.7-1.03-.68-1.84.14-4.6-.98-7.63-1.54-8.38-.44-.57-.8-.79-.4-1.04,2.39-1.57,2.92-3.04,2.92-3.04,1.27-2.98,2.41-5.7,3.99-6.9.32-.25,1.13-.85,1.63-1.09,1.47-.69,2.24-1.11,2.66-1.52.67-.65,1.21-2.03.57-2.86-.81-1.03-2.19-.21-2.81.15-4.38,2.6-5.03,7.19-6.55,9.82-1.21,2.11-3.18,3.65-4.95,3.78-1.32.1-2.74-.17-4.16-.8-3.45-1.51-5.33-3.46-5.78-3.81-.93-.72-8.12-7.77-13.95-8.06,0,0-.72-1.45-.9-1.48-.42-.06-.86.86-1.18.97-.3.12-.8-.98-1.09-.93"></path><path class="cls-1" d="M69.88,69.79c-.55,0-1.02-.46-1.02-1.02v-18.17h-5.99v20.03c0,.98.8,1.78,1.77,1.78h10.47c.98,0,1.76-.81,1.76-1.78v-20.03h-5.98v18.17c0,.55-.47,1-1.02,1.02"></path><path class="cls-1" d="M99,50.59h-18.13c-1.07,0-1.95.87-1.95,1.96v19.86h5.99v-18.21c0-.56.45-1,1.02-1s1.01.43,1.03.99v18.23h5.97v-18.24c0-.56.46-.99,1.02-.99s1.01.44,1.02,1v18.21h5.99v-19.85c0-1.08-.87-1.96-1.95-1.96Z"></path><path class="cls-1" d="M54.86,54.23c0-.6-.49-1.04-1.02-1.04h-1.02v11.03h1.02c.53,0,1.02-.42,1.02-1.03v-8.97ZM58.88,66.92h-6.05v5.48h-5.99v-21.81h12.08c1.08,0,1.93.88,1.93,1.96v12.4c0,1.09-.87,1.96-1.96,1.96"></path><path class="cls-1" d="M121.48,67.53c-1.21,0-2.21,1.04-2.21,2.3s1.01,2.29,2.25,2.29,2.23-1.04,2.23-2.29-1-2.3-2.23-2.3h-.04ZM124.17,69.82c0,1.49-1.19,2.68-2.65,2.68s-2.67-1.2-2.67-2.68,1.2-2.68,2.64-2.68,2.69,1.19,2.69,2.68"></path><path class="cls-1" d="M121.24,69.64c.41,0,.63-.14.63-.44,0-.26-.21-.4-.61-.4h-.12v.84s.11,0,.11,0ZM122.78,71.37h-.72l-.92-1.23v1.23h-.58v-3.1h.61c.83,0,1.27.32,1.27.92,0,.4-.26.76-.62.86l-.05.02,1.01,1.29Z"></path><path class="cls-1" d="M110.99,64.23v-10.04c0-.56-.46-.98-1.02-.98s-1.01.44-1.02,1v10.03h2.03ZM110.99,72.4v-5.47h-2.03v5.47h-5.98v-19.86c0-1.08.87-1.96,1.95-1.96h10.1c1.07,0,1.95.87,1.95,1.96v19.86h-5.98Z"></path></svg>