<svg xmlns="http://www.w3.org/2000/svg" id="Layer_1" viewBox="0 0 184 100"><defs><style>.cls-1{fill:#56575a;stroke-width:0px;}</style></defs><path class="cls-1" d="M134.14,60.52h5.94v-12.87c0-3.23-2.62-5.85-5.85-5.85h-.08v18.73ZM114.35,64.35h6.13l10.65-28.09h-6.13l-10.65,28.09ZM48.86,46.1c-1.68-.26-7.49-1.06-8.63-1.23-.03.3-.04,1.88-.04,1.88,0,1.73,1.27,3.21,2.98,3.46,1.58.24,3.41.5,4.48.67,1.48.23,2.41,1.16,2.41,2.55,0,2.64-2.97,3.06-4.92,3.06-1.67,0-2.74-.33-3.67-1.07-.74-.6-1.3-1.76-1.3-2.83h-5.43c0,2.27,1.16,4.27,2.55,5.61,1.99,1.9,4.73,2.78,7.79,2.78,3.29,0,6.31-.83,8.26-2.78,1.25-1.25,2.09-2.97,2.09-5.29,0-3.8-2.78-6.22-6.59-6.82M74.14,45.36h2.19c2.08,0,3.59-1.98,3.03-3.99-.07-.27-.16-.53-.26-.79-1.39-3.62-4.92-4.92-9.04-4.92-5.38,0-9.69,2.41-10.02,7.84h5.61c.14-2.23,1.72-3.43,4.41-3.43,3.29,0,4.08,1.53,4.08,3.8"></path><path class="cls-1" d="M134.14,41.8h15.1v-5.53h-9.57c-3.06,0-5.53,2.48-5.53,5.53M119.02,52.01l-6.2-15.75h-6.25l4.98,12.64c.74,1.87,2.55,3.1,4.56,3.11h2.91ZM74.14,50.22v.2c0,3.57-2.32,5.67-6.17,5.67-1.97,0-3.43-1.31-3.43-3.17,0-1.03.48-1.6,1.19-2.1.81-.56,1.95-.61,2.94-.61h5.46v-4.86h-6.49c-.77,0-1.53.12-2.28.29-3.76.87-6.5,3.76-6.5,7.78s2.97,7.56,8.72,7.56c2.79,0,5.16-1.11,6.54-2.57v2.11h5.26v-10.31h-5.26ZM52.8,38.49c-2.03-2.19-5.2-2.95-8.1-2.83-2.93.12-6.04,1.15-7.87,3.56-.53.7-.92,1.5-1.14,2.36-.22.83-.34,1.68-.34,2.53,1.04.16,4.8.75,4.88.76,0-.03.06-.55.08-.67.04-.24.08-.47.13-.7.1-.46.25-.91.47-1.32.43-.81,1.13-1.44,1.99-1.78.83-.33,1.74-.42,2.62-.35.87.07,1.78.29,2.5.8.79.56,1.33,1.46,1.39,2.43v.17h5.52c0-2.86-2.13-4.96-2.13-4.96"></path><path class="cls-1" d="M89.65,45.36c-3.7,0-6.23,2.76-5.84,6.03.02.14.05.38.06.41.39,2.03,1.16,3.82,2.33,5.29,1.67,2.04,4.73,3.8,8.4,3.8s6.59-1.72,8.26-3.8c1.11-1.44,1.76-3.34,1.86-5.24h-5.71c-.04.79-.28,1.56-.7,2.23-.7,1.07-1.95,1.81-3.71,1.81-1.58,0-2.74-.7-3.53-1.53-1.39-1.53-1.62-3.8-1.62-6.08,0-.99.04-1.98.21-2.92"></path><path class="cls-1" d="M91.07,42.15c.79-.84,1.95-1.48,3.53-1.48,1.76,0,3.01.74,3.71,1.81.42.67.66,1.44.69,2.23h5.71c-.09-1.9-.74-3.8-1.85-5.24-1.67-2.09-4.59-3.8-8.26-3.8s-6.73,1.76-8.4,3.8c-1.29,1.62-2.08,3.61-2.43,5.89h5.88c.21-1.22.63-2.34,1.42-3.2"></path></svg>