<svg width="44" height="44" viewBox="0 0 44 44" fill="none" xmlns="http://www.w3.org/2000/svg">
<path d="M22.0159 43.9872C34.1574 43.9872 44 34.1403 44 21.9936C44 9.84687 34.1574 0 22.0159 0C9.87437 0 0.0317383 9.84687 0.0317383 21.9936C0.0317383 34.1403 9.87437 43.9872 22.0159 43.9872Z" fill="#DCF4FF"/>
<mask id="mask0_4559_30962" style="mask-type:alpha" maskUnits="userSpaceOnUse" x="0" y="0" width="44" height="44">
<path d="M22.0159 43.9872C34.1574 43.9872 44 34.1403 44 21.9936C44 9.84687 34.1574 0 22.0159 0C9.87437 0 0.0317383 9.84687 0.0317383 21.9936C0.0317383 34.1403 9.87437 43.9872 22.0159 43.9872Z" fill="#DCF4FF"/>
</mask>
<g mask="url(#mask0_4559_30962)">
<path d="M46.9805 48.0258L47.3549 48.6834C47.3549 48.6834 47.3315 48.6985 47.3198 48.7076C47.0682 48.5985 46.7025 48.4349 46.6469 48.5349C46.6001 48.6228 46.4041 48.947 46.2988 49.1257L45.5206 49.0561C45.5206 49.0561 43.9057 47.7471 43.4669 47.5683C43.2036 47.4562 42.9666 47.4108 42.7121 47.4108L42.4927 46.523C42.4927 46.523 42.4956 46.5199 42.5015 46.5199C43.3762 45.9715 43.736 45.817 43.736 45.2443C43.736 44.6716 43.7624 44.6413 43.9554 44.4898C44.0725 44.3989 44.3621 44.1535 44.5757 43.9717C44.6576 43.9717 44.7278 43.9838 44.7775 44.0111C44.9413 44.102 45.2573 44.1595 45.4797 44.1868L45.6259 44.711L45.7225 44.8867L46.1789 44.9867L46.0852 45.2625L45.8922 45.5109L45.8658 46.0139L45.6727 46.0897L45.9858 46.3139L46.132 46.7926C46.132 46.7926 46.7142 46.9169 46.8108 47.2471C46.9073 47.5713 46.9805 48.0228 46.9805 48.0228V48.0258Z" fill="#90C6DE"/>
<path d="M46.3485 41.4355L46.2782 41.5839L45.9857 41.4082L45.6493 41.3325L45.5527 41.5082H45.5556L45.0905 41.5264L44.8915 41.6021L44.5112 41.3082H43.8149C43.9612 41.0567 44.0929 40.5992 43.5868 40.2659C43.4288 40.1659 43.2766 40.0447 43.1274 39.9296L43.303 39.8599L43.9583 40.0841L44.3679 40.0598L44.9501 40.4386L45.0963 40.5871L45.386 40.4871L45.7253 40.4416L45.8482 40.5356L46.0413 40.9355L46.1963 40.9931L46.208 41.29L46.3543 41.4446L46.3485 41.4355Z" fill="#90C6DE"/>
<path d="M44.5756 43.9745C44.2421 43.9836 43.7243 44.1987 43.4668 44.2442C43.1538 44.2926 42.8613 44.5411 42.6682 44.4441C42.4751 44.3411 42.0187 44.3684 41.8227 44.4926L41.4365 44.3169L41.5301 44.7956L41.3136 44.8199L41.2288 44.8411C41.22 44.7896 41.2025 44.7441 41.1703 44.7199C40.8807 44.4714 40.395 44.4714 40.1054 44.6956C39.8158 44.9199 39.7426 45.0198 39.3301 44.7714C38.9206 44.5199 38.748 44.4957 38.3384 44.6714C37.923 44.8471 36.9488 44.4835 36.7381 43.8775C36.5597 43.3594 36.27 43.2503 36.27 43.0231C36.27 42.8352 36.4602 42.0989 36.1033 41.8444L36.3519 41.5868L36.4602 41.3868L36.3432 41.0899L36.6767 40.9202L36.8698 40.996H37.2384C37.2472 41.0111 37.2589 41.0323 37.2706 41.0535C37.4022 41.2535 37.724 41.4535 37.724 41.4535C38.0458 41.5171 38.6777 41.7171 38.9674 41.4868C39.257 41.2535 39.4004 40.9839 39.8246 40.9839C40.2488 40.9839 40.9714 41.202 41.615 41.4384C42.2615 41.6717 43.5722 41.602 43.698 41.4717C43.7243 41.4384 43.7711 41.3838 43.815 41.3111H44.5113L44.8974 41.6111L44.874 42.1898L45.1871 42.2898L45.5059 42.414L45.4328 42.6473C45.3567 42.614 45.2865 42.6079 45.2397 42.6443C45.07 42.7685 45.2397 43.4473 45.2397 43.4473L45.3597 43.7715L45.4796 44.1957C45.2602 44.1684 44.9413 44.1108 44.7775 44.0199C44.7277 43.9927 44.6575 43.9805 44.5756 43.9805V43.9745Z" fill="#90C6DE"/>
<path d="M42.4897 46.5258C41.6296 47.0742 41.5798 47.147 41.1907 47.0227C41.0035 46.9621 40.9918 46.8106 41.0445 46.6622C41.1001 46.4985 41.2259 46.338 41.2873 46.2986C41.4072 46.2228 41.4336 45.8501 41.3107 45.7441C41.261 45.7047 41.1586 45.7077 41.0679 45.7229C41.179 45.3653 41.2668 45.026 41.2259 44.8351L41.3107 44.8138L41.5272 44.7896L41.4336 44.3109L41.8197 44.4866C42.0128 44.3624 42.4692 44.3351 42.6652 44.4381C42.8583 44.5351 43.1509 44.2866 43.4639 44.2381C43.7184 44.1927 44.2392 43.9776 44.5727 43.9685C44.3591 44.1503 44.0695 44.3927 43.9525 44.4866C43.7594 44.6381 43.733 44.6623 43.733 45.2411C43.733 45.8198 43.3732 45.9683 42.4985 46.5167C42.4955 46.5167 42.4955 46.5198 42.4897 46.5198V46.5258Z" fill="#90C6DE"/>
<path d="M40.0962 33.2594V33.2604L40.3433 33.6032H40.1499L40.1519 33.6198L40.1899 34.0045L40.1909 34.0192L40.2056 34.0182L40.6948 33.9821L40.6841 34.2663V34.2838L40.7007 34.2809L40.7808 34.2702L40.7915 34.4909V34.4919L40.7935 34.4967L40.9136 34.7721L40.9224 34.7926L40.938 34.777L41.1079 34.611C41.1143 34.6175 41.1239 34.6272 41.1353 34.6383C41.1584 34.6609 41.1909 34.6912 41.2261 34.7213C41.2612 34.7514 41.2998 34.7823 41.3364 34.8053C41.3724 34.8279 41.4097 34.8454 41.4399 34.8454C41.4666 34.8452 41.5036 34.8324 41.5425 34.8161C41.5823 34.7993 41.6267 34.7776 41.6675 34.7555C41.7083 34.7334 41.7463 34.7115 41.7739 34.695C41.7861 34.6877 41.7956 34.6801 41.8032 34.6754C41.804 34.6773 41.8052 34.6792 41.8062 34.6813C41.812 34.6947 41.821 34.7135 41.8315 34.736C41.8526 34.781 41.8815 34.8403 41.9136 34.8971C41.9455 34.9538 41.9812 35.0093 42.0151 35.0456C42.0319 35.0635 42.0493 35.0785 42.0669 35.0856C42.0852 35.0929 42.104 35.0913 42.1206 35.0778L42.1216 35.0788C42.1708 35.0413 42.2189 35.0103 42.2544 34.9889C42.2719 34.9784 42.2863 34.9701 42.2964 34.9645C42.299 34.963 42.3012 34.9607 42.3032 34.9596L42.6265 35.2292L42.6284 35.2311H42.6294L42.6313 35.2321C42.633 35.233 42.6352 35.2343 42.6382 35.236C42.6443 35.2394 42.6528 35.2448 42.6636 35.2506C42.6853 35.2624 42.7159 35.278 42.7485 35.2936C42.781 35.3092 42.8164 35.3247 42.8491 35.3366C42.8814 35.3482 42.913 35.357 42.937 35.3571C42.9789 35.3571 43.0477 35.3599 43.104 35.3688C43.1322 35.3733 43.1564 35.3793 43.1724 35.3864C43.1804 35.39 43.1857 35.3936 43.188 35.3961L43.189 35.3991C43.1833 35.4242 43.1619 35.4955 43.1421 35.5612C43.1323 35.5938 43.1228 35.6252 43.1157 35.6481C43.1123 35.6593 43.1099 35.6689 43.1079 35.6754L43.1069 35.6764L42.8501 35.7272L42.8042 35.736L42.8462 35.7555L43.1147 35.8825L42.8657 36.1188L42.8501 36.1335L42.8687 36.1432H42.8696L42.8716 36.1442C42.8734 36.1452 42.876 36.1471 42.8794 36.1491C42.8862 36.153 42.8961 36.1585 42.9077 36.1657C42.9311 36.18 42.9622 36.2007 42.9927 36.2243C43.0232 36.2479 43.0527 36.2744 43.0737 36.3014C43.0951 36.3288 43.1062 36.3545 43.104 36.3766C43.101 36.4053 43.1011 36.4372 43.1001 36.4665C43.0991 36.4963 43.0968 36.5244 43.0903 36.5485C43.0839 36.5724 43.0734 36.5918 43.0562 36.6051C43.0388 36.6184 43.0123 36.6266 42.9722 36.6266C42.8879 36.6266 42.7654 36.6243 42.6509 36.6354C42.5936 36.6409 42.5375 36.6497 42.4888 36.6647C42.4402 36.6797 42.3972 36.7006 42.3677 36.7311C42.3504 36.749 42.3339 36.7792 42.3179 36.8151C42.3016 36.8515 42.2856 36.8961 42.27 36.944C42.2398 37.0369 42.2101 37.1445 42.187 37.2379C41.8935 37.3081 41.5952 37.4228 41.3813 37.5006C41.3013 37.5308 41.2112 37.5607 41.1196 37.5915C41.0282 37.6222 40.9351 37.6535 40.8501 37.6872C40.7652 37.7208 40.6874 37.7571 40.6265 37.7965C40.5659 37.8357 40.519 37.8795 40.5005 37.9303C40.4761 37.9977 40.4702 38.0774 40.4839 38.1559L40.0239 37.943L40.0278 37.9342L40.0103 37.944L39.8247 38.0407C39.7734 38.0371 39.7161 38.0364 39.6587 38.0348C39.5998 38.0332 39.5407 38.0314 39.4868 38.028C39.4327 38.0246 39.3839 38.0203 39.3472 38.0114C39.3291 38.007 39.3144 38.0016 39.3032 37.9958C39.2919 37.9897 39.2849 37.9831 39.2817 37.9772C39.2774 37.9675 39.2747 37.9535 39.2739 37.9352C39.2731 37.9167 39.2745 37.8951 39.2759 37.8717C39.2786 37.8254 39.2831 37.7707 39.2778 37.7233C39.2725 37.676 39.2566 37.631 39.2153 37.6061C39.1745 37.5815 39.1136 37.5794 39.0249 37.6061C38.8434 37.6554 38.6717 37.7737 38.5337 37.902C38.3957 38.0305 38.29 38.171 38.2407 38.2653C38.2001 38.3405 38.168 38.3869 38.1362 38.4381C38.1068 38.4857 38.0781 38.5366 38.0435 38.6169C38.0071 38.5835 37.9691 38.5497 37.9351 38.5231C37.9156 38.5079 37.8966 38.4944 37.8804 38.485C37.8649 38.4762 37.8491 38.4695 37.8354 38.4694C37.8138 38.4694 37.7887 38.4798 37.7642 38.4928C37.7393 38.5061 37.7109 38.5237 37.6821 38.5407C37.623 38.5757 37.5597 38.609 37.4985 38.609C37.4386 38.609 37.3912 38.5769 37.3579 38.5436C37.3414 38.527 37.3284 38.5102 37.3198 38.4977C37.3157 38.4916 37.3122 38.4866 37.3101 38.4831C37.3092 38.4816 37.3086 38.48 37.3081 38.4792L37.2896 38.321L37.603 38.1178L37.6099 38.1276V38.1061L37.6206 37.735C37.6227 37.7355 37.625 37.7364 37.6274 37.737C37.6425 37.7403 37.6644 37.7452 37.6919 37.7516C37.7472 37.7644 37.8252 37.7841 37.9155 37.8083C37.9629 37.8217 38.0008 37.8199 38.0298 37.8053C38.0588 37.7907 38.0768 37.7642 38.0874 37.734C38.0979 37.7041 38.1022 37.669 38.104 37.6344C38.1058 37.5997 38.105 37.5635 38.105 37.5329C38.105 37.4626 38.0566 37.4205 38.0122 37.3971C37.9898 37.3853 37.9672 37.3774 37.9507 37.3727C37.9443 37.3709 37.9386 37.3698 37.9341 37.3688L37.9116 37.0202L37.9106 37.0016L37.8921 37.0065L37.7427 37.0485L37.7681 36.5456L37.769 36.5299H37.7397C37.7308 36.5298 37.7177 36.5295 37.7017 36.529C37.6696 36.5278 37.6249 36.5249 37.5757 36.5202C37.4767 36.5107 37.3604 36.4923 37.2856 36.4557C37.2092 36.419 37.1357 36.3544 37.0806 36.2985C37.0531 36.2706 37.0299 36.2448 37.0142 36.2262C37.0066 36.2173 37.0007 36.2099 36.9966 36.2047C36.9947 36.2023 36.9927 36.2002 36.9917 36.1989L36.9907 36.1969H36.9897C36.989 36.1975 36.9865 36.1993 36.978 36.2057L36.9985 36.1901L36.9771 36.1911L36.5386 36.2057L36.5278 36.2067L36.5249 36.2174L36.5239 36.2184C36.5236 36.2196 36.5237 36.2219 36.5229 36.2243C36.5214 36.2291 36.5186 36.236 36.5151 36.2448C36.5081 36.2626 36.497 36.2882 36.48 36.3161L36.4653 36.3385H36.4722C36.4363 36.4008 36.3778 36.4702 36.2915 36.5202C36.2048 36.5686 36.1048 36.5899 36.0259 36.5993C35.9864 36.6039 35.9523 36.6057 35.9282 36.6061H35.8911V36.6003L35.8804 36.609L35.8784 36.611C35.8775 36.6118 35.8761 36.6126 35.8745 36.6139C35.8708 36.6169 35.8648 36.6214 35.8579 36.6266C35.8441 36.6371 35.8249 36.6513 35.8022 36.6657C35.7562 36.695 35.6985 36.7245 35.6479 36.7301C35.6257 36.7326 35.6029 36.7252 35.5806 36.7106C35.558 36.6958 35.5364 36.6741 35.5181 36.652C35.4999 36.6301 35.4846 36.6075 35.4741 36.5905C35.469 36.5821 35.4651 36.5749 35.4624 36.57C35.461 36.5675 35.4602 36.5654 35.4595 36.5641L35.4585 36.5631V36.5622L35.4546 36.5544H34.9272L34.811 36.4577L34.8032 36.4508L34.7935 36.4567L34.5269 36.6129L34.2271 36.2292C34.2368 36.1932 34.2653 36.0988 34.2974 36.0104C34.3147 35.9627 34.3325 35.9168 34.3491 35.8835C34.3573 35.8669 34.365 35.854 34.3716 35.8454C34.3748 35.8412 34.3775 35.8381 34.3794 35.8366C34.3814 35.835 34.3819 35.8355 34.3804 35.8356C34.3904 35.8355 34.4021 35.8318 34.4126 35.8268C34.4236 35.8215 34.4353 35.8136 34.4478 35.8053C34.4724 35.7889 34.4996 35.7682 34.5229 35.7487C34.5409 35.7363 34.5564 35.724 34.5669 35.7155C34.5719 35.7114 34.5758 35.7081 34.5786 35.7057C34.58 35.7045 34.5818 35.7035 34.5825 35.7028V35.7018H34.5835L34.5903 35.695L34.5874 35.6862L34.5044 35.3932L34.9819 34.7135L35.2026 34.7028L35.2163 34.7018L35.2173 34.6881L35.2407 34.152V34.1403L35.23 34.1364L35.1001 34.1003L35.1323 33.9665L35.1343 33.9577L35.1265 33.9518L34.9888 33.8473C34.9906 33.8457 34.9934 33.8443 34.9956 33.8424C35.0085 33.8315 35.027 33.8161 35.0493 33.7975C35.0946 33.7598 35.156 33.7089 35.2202 33.6579C35.2845 33.6068 35.352 33.5551 35.4087 33.5153C35.4369 33.4955 35.4627 33.4788 35.4839 33.4665C35.5055 33.4539 35.5209 33.4467 35.5298 33.445L35.5288 33.444C35.5398 33.4423 35.5614 33.4433 35.5913 33.444C35.6206 33.4447 35.6575 33.4463 35.6997 33.4489C35.7847 33.4541 35.8915 33.4625 36.0015 33.4713C36.2211 33.4891 36.4569 33.5085 36.563 33.5085C36.6115 33.5086 36.6638 33.5298 36.7163 33.5622C36.7686 33.5945 36.8199 33.6376 36.8647 33.6813C36.9095 33.725 36.9479 33.7695 36.9751 33.8024C36.9887 33.8189 37 33.8329 37.0073 33.8424C37.011 33.8472 37.0142 33.8507 37.0161 33.8532C37.017 33.8544 37.0176 33.8555 37.0181 33.8561V33.8571L37.0298 33.8727L37.0425 33.8581L37.2378 33.6198L37.4878 33.9069L37.4995 33.9206L37.5103 33.9059L37.686 33.6794L37.7446 33.8532L37.7476 33.862L37.7583 33.8629L37.9331 33.8786V33.8805L37.9409 33.8766L38.1733 33.7663L38.3774 33.9919L38.4019 34.0192L38.4028 33.9821L38.4165 33.5866L38.5737 33.3776L38.9712 33.3629L39.3013 33.3542H39.3159V33.1286L39.5513 33.1647L39.5728 33.2545L39.5776 33.2751L39.5952 33.2643L39.7397 33.1774L39.9683 33.07L40.0962 33.2594Z" fill="#90C6DE" stroke="white" stroke-width="0.03"/>
<mask id="path-9-inside-1_4559_30962" fill="white">
<path d="M46.1906 40.9842L46.0355 40.9266L45.8424 40.5267L45.7225 40.4297L45.3802 40.4782L45.0906 40.5782L44.9472 40.4297L44.3651 40.054L43.9555 40.0782L43.3002 39.854L43.1246 39.9267C42.6507 39.5328 42.2528 39.1117 42.0948 39.0753C41.8842 39.0268 41.7438 38.6753 41.9515 38.2875C42.1621 37.9027 42.4371 37.4997 42.5161 37.4542C42.598 37.4027 42.9842 37.2027 42.598 37.2027C42.4752 37.2027 42.3377 37.224 42.2002 37.2543C42.247 37.0603 42.3172 36.8088 42.3786 36.7452C42.4869 36.6331 42.8057 36.6452 42.9725 36.6452C43.1393 36.6452 43.1071 36.4937 43.1188 36.3816C43.1305 36.2695 42.8759 36.1331 42.8759 36.1331L43.1422 35.8817L42.8525 35.7453L43.1188 35.6938C43.1188 35.6938 43.1919 35.4575 43.2036 35.4059C43.2153 35.3575 43.0222 35.3453 42.9374 35.3453C42.8526 35.3453 42.6361 35.2211 42.6361 35.2211L42.3055 34.9454C42.3055 34.9454 42.2119 34.9939 42.1124 35.0696C42.0188 35.1454 41.8111 34.6575 41.8111 34.6575C41.8111 34.6575 41.5331 34.8333 41.4395 34.8333C41.3401 34.8333 41.1089 34.5939 41.1089 34.5939L40.9276 34.7696L40.8076 34.4939L40.7959 34.2576L40.6994 34.2697L40.7111 33.9697L40.2049 34.0061L40.1669 33.6213H40.3717L40.1084 33.2546L39.9738 33.0546L39.7339 33.1668L39.5876 33.2546L39.5642 33.1546L39.298 33.1153V33.3425L38.9733 33.3516V32.9668H38.8446L38.8241 32.4183L39.2922 32.482L39.5525 32.1638L39.3741 32.0154V31.8457L39.0523 31.9305L39.0845 31.5305L38.8446 31.5093L38.7334 31.0609L38.5403 30.9458L38.6339 30.6943L38.4759 30.5306L38.5871 30.3791L38.6017 30.1943L38.4233 30.1307L38.2946 29.9459L38.0342 30.1095L37.8762 30.1943L37.8557 29.9095L37.5486 29.9459L37.2355 29.764L37.1799 29.0581L36.9137 29.1338L36.9869 28.6551L36.8406 28.5036L36.8523 28.4763L37.0337 27.9794C37.0337 27.9794 36.864 27.3279 36.8874 27.1764C36.9137 27.0279 37.2735 26.6977 37.2735 26.6977L37.1799 26.5007C37.4579 26.3856 37.5954 26.0947 37.7621 26.0947C37.9786 26.0947 38.315 26.0947 38.1951 25.9705C38.0751 25.8462 37.6597 25.7978 37.5895 25.6947C37.531 25.622 37.4345 25.422 37.0161 25.4614C37.5017 24.8342 38.6983 23.2737 38.8709 22.9374C39.0874 22.5132 38.1454 21.883 38.1454 21.883L38.4087 21.5103L38.1922 21.2588L38.1688 20.6558H37.9757L37.9025 20.4801L38.0459 20.3074L37.9259 20.2074L37.9757 19.6044L38.1922 19.5529C38.1922 19.5529 37.6334 18.0258 37.6334 17.947C37.6334 17.8682 37.9523 17.444 37.9757 17.344C37.9991 17.244 38.1688 16.8653 37.9757 16.641C37.7826 16.4168 37.4169 16.2653 37.4169 16.2653L37.49 15.4896C37.49 15.4896 37.4813 15.3805 37.493 15.229L37.7065 15.1139L37.8265 14.7382L38.1892 14.5655V14.2352L38.3823 14.3625H38.5988L38.5871 14.117C38.9938 14.3625 39.5701 14.6533 39.9768 14.6867C40.6087 14.7351 41.0914 14.8351 41.7935 15.5381C42.4956 16.2411 43.6571 16.641 43.6834 17.3198C43.7068 17.9985 43.8502 18.1227 43.3411 18.6227C42.835 19.1256 42.5424 19.3499 41.4307 18.8226C40.3161 18.2985 39.6871 17.9712 39.5408 17.8955C39.3946 17.8197 39.2512 17.6955 39.5642 18.1712C39.8831 18.6439 40.5092 18.8984 40.5326 19.2711C40.556 19.6468 40.6057 20.6043 40.7023 20.9285C40.7988 21.2527 41.3576 21.7315 41.6238 21.7557C41.8871 21.783 42.206 21.783 42.1299 21.5315C42.0539 21.28 41.7672 21.1073 41.5712 20.78C41.3781 20.4498 41.498 20.1013 41.9573 20.4043C42.4196 20.7043 43.581 20.983 43.3119 20.5043C43.0456 20.0256 42.7531 19.9013 43.0456 19.6498C43.3353 19.4014 44.0637 18.2985 44.5494 18.5469C45.035 18.7984 45.3246 18.8711 45.3246 18.4984C45.3246 18.3348 45.2632 18.1257 45.1959 17.8924L45.977 17.753C46.0092 17.8106 46.0531 17.853 46.1204 17.8894C46.5065 18.0894 46.3135 18.153 47.1209 17.1501C47.9313 16.1471 49.0927 15.0806 49.868 15.4805C50.6433 15.8805 50.7398 15.6442 51.322 15.5805C51.9042 15.5108 52.4834 15.4805 53.0305 15.2442C53.5805 15.0109 53.2909 14.1776 52.969 14.0079C52.6443 13.8383 52.9691 13.505 53.6478 13.808C54.3265 14.1079 55.2276 14.2079 55.8098 14.8806C56.3919 15.5472 56.8454 16.0471 57.0385 16.0471C57.2316 16.0471 57.843 15.9138 57.2316 15.0442C56.6143 14.1776 56.1316 13.1383 56.3246 12.6384C56.5177 12.1354 57.0677 11.0325 57.3603 9.99923C57.6528 8.96599 57.7465 8.66299 58.2643 8.79631C58.7821 8.92963 59.6188 9.12961 59.3292 10.4325C59.0395 11.7354 59.4608 11.8718 59.4257 12.5081C59.3935 13.1414 59.1712 15.3836 59.493 15.3836C59.8148 15.3836 60.3648 15.6835 60.201 14.6139C60.043 13.5413 59.8148 11.4052 60.5579 10.9355C61.301 10.4689 62.3015 9.69925 62.5619 9.86894C62.8164 10.0326 63.4659 10.8719 63.7848 10.8719C64.1036 10.8719 64.3348 10.6022 64.0451 10.1689C63.7555 9.73258 63.0446 8.49634 63.2055 8.06304C63.3693 7.62672 66.0491 7.72671 66.2744 7.22373C66.4997 6.72075 65.4991 6.22079 66.0813 5.48753C66.6635 4.75426 67.4066 3.71497 68.2433 3.71497C69.08 3.71497 69.3755 3.315 69.7938 3.14835C70.2151 2.97867 70.926 2.81202 71.634 2.77869C72.3478 2.74536 72.3771 2.2757 72.8305 2.07572C73.2811 1.87574 73.4741 1.60607 73.6058 0.939466C73.7345 0.269832 74.1207 -0.566453 74.6356 -0.733104C75.1534 -0.902785 76.1217 -0.399803 75.9287 -0.163461C75.7356 0.0698504 75.089 0.603136 75.3787 0.569805C75.6683 0.536475 76.6688 0.703125 76.7332 1.07279C76.7975 1.44245 78.4446 1.14248 78.7664 1.47275C79.0882 1.80302 80.4428 3.37863 79.6382 4.38157C78.8337 5.38451 77.2832 6.7571 77.4763 7.02072C77.6694 7.29039 78.4095 7.2207 79.1848 7.35705C79.96 7.49037 81.9933 7.42068 82.3795 7.99032C82.7656 8.55997 84.6058 9.32656 84.6058 8.5933C84.6058 7.86003 84.4127 7.35705 85.8989 8.02365C87.3821 8.69329 87.546 8.99326 87.3529 9.49624C87.1598 9.99923 86.9667 10.4659 87.2563 10.9688C87.546 11.4718 88.3827 13.1747 88.643 11.9051C88.9034 10.6325 88.7396 10.3992 89.4183 10.9355C90.097 11.4718 92.4521 11.5748 92.613 11.0052C92.7768 10.4355 92.4199 9.23263 93.7744 9.43261C95.129 9.6326 96.8433 9.70228 97.2617 10.2022C97.68 10.7052 98.0047 11.0355 98.4231 11.6748C98.8415 12.3081 99.6518 12.3081 100.196 12.1414C100.746 11.9778 102.519 12.0415 102.554 12.7111C102.586 13.3807 102.326 14.417 103.358 14.2837C104.394 14.1473 105.392 14.1473 105.714 14.3473C106.038 14.5473 106.489 14.0473 106.717 14.014C106.942 13.9807 108.619 13.2807 109.912 13.7807C111.202 14.2837 112.817 15.5169 113.689 16.1199C114.56 16.7228 115.107 16.9895 115.107 17.2228C115.107 17.4561 114.979 18.2257 115.204 18.2257C115.429 18.2257 115.611 17.8015 115.611 17.8015C115.754 17.8015 116.588 17.8864 116.626 17.95C116.699 18.0742 117.571 19.0772 117.571 19.0772C117.378 19.4074 117.185 19.4771 117.208 19.5832C117.231 19.6801 116.775 19.7317 116.626 19.9559C116.48 20.1831 116.216 21.4376 116.067 21.3891C115.924 21.3376 114.666 20.8346 114.642 20.5588C114.616 20.2831 114.28 19.7559 113.841 19.8559C113.408 19.9559 113.065 19.3529 113.115 19.2044C113.162 19.0529 112.752 18.7802 112.706 19.0529C112.656 19.3287 112.992 19.9559 112.656 20.3074C112.319 20.6558 111.687 20.9861 111.471 20.8315C111.252 20.68 110.839 20.6073 111.009 20.88C111.178 21.1558 111.418 21.2345 111.638 21.5103C111.857 21.786 111.784 22.0345 112.001 22.286C112.217 22.5375 112.486 23.2162 112.267 23.3919C112.05 23.5646 111.372 23.1647 111.056 23.3162C110.743 23.4646 107.934 25.1705 107.911 25.5463C107.887 25.922 107.598 26.2735 107.182 25.4463C106.773 24.6191 106.094 26.325 105.708 26.225C105.357 26.1341 105.026 25.6917 104.605 26.0977L103.549 25.6766C104.023 25.1917 104.578 24.6585 104.742 24.1676C104.962 23.5161 105.324 22.8647 104.669 23.1404C104.02 23.4162 104.309 23.5949 103.534 24.5676C102.759 25.5463 102.806 25.822 102.732 25.422C102.662 25.0221 102.925 24.0888 102.299 24.0888C101.673 24.0888 100.386 25.3675 100.073 25.8705C99.7601 26.3735 100.535 26.8249 99.7103 26.8976C98.8883 26.9734 98.6454 26.7734 96.7585 26.6977C94.8686 26.6249 94.1665 26.4734 92.4696 28.6551C90.7758 30.8367 90.1731 31.3124 91.2848 31.5124C92.3994 31.7123 93.3181 31.0882 93.3912 32.2184C93.4643 33.3455 92.8558 37.1815 91.238 38.8117C89.6143 40.4449 89.4212 40.7691 88.9824 40.4449C88.7893 40.2994 88.4324 40.5055 88.0696 40.8297L88.014 40.4933L87.9321 40.4328L88.3066 40.3176L88.3768 39.4419C88.3768 39.4419 88.1135 39.0117 88.2071 38.9117C88.3066 38.8117 88.646 38.439 88.8888 38.6117C89.1287 38.7874 89.1521 38.839 89.3686 38.4117C89.588 37.9875 89.8571 37.533 89.784 37.3603C89.7109 37.1846 90.0502 36.8058 90.0502 36.8058V36.3028L89.2252 36.4543C89.2252 36.4543 89.1053 36.7785 88.7864 36.7785C88.4675 36.7785 87.9643 36.7785 88.0111 36.5786C88.0609 36.3786 87.9643 35.8756 87.9643 35.8756L87.7712 35.7998L87.4289 35.4272L87.1159 35.3514L86.6098 35.2757L86.4898 34.7515L86.1037 34.0243C86.1037 34.0243 86.1037 33.194 86.0071 33.194C85.9106 33.194 85.8375 32.4668 84.9656 32.2426C84.0938 32.0184 83.7077 32.2668 83.5585 32.2668C83.4093 32.2668 82.9295 32.3911 82.8563 32.691C82.7832 32.991 83.0757 32.891 83.0757 32.891L83.1226 33.291C83.1226 33.291 82.6896 33.6455 82.6369 33.8697C82.5872 34.0939 82.3239 34.5969 82.3707 34.6969C82.4204 34.7969 82.2507 35.1757 81.9611 35.2514C81.7417 35.309 81.4462 35.2302 81.1712 35.1393C81.0864 35.112 81.0015 35.0787 80.9196 35.0514C80.5832 34.9242 80.314 35.0999 80.1941 34.9757C80.0712 34.8515 79.9279 34.6272 79.5885 35.0272C79.2462 35.4272 78.7138 35.6302 78.1082 35.6302C77.5026 35.6302 76.8999 35.4787 76.8034 35.2302C76.7068 34.9787 76.4172 35.0302 76.4172 35.0302C76.4172 35.0302 76.2475 34.5242 75.7619 34.6303C75.2763 34.7272 74.5039 35.0545 74.188 34.6545C73.8691 34.2545 73.8252 33.8758 73.8252 33.8758L73.3191 33.6273L72.7106 33.6001L72.7369 33.4273L72.2981 33.2001C71.6925 33.8546 71.8124 34.3545 71.9119 34.503C72.0084 34.6545 71.8651 35.206 71.6486 35.1817C71.4292 35.1575 71.0664 34.8575 70.7739 34.9575C70.4872 35.0575 70.101 34.9302 69.9752 34.6333C69.8552 34.3273 69.393 34.5303 69.393 34.5303L69.3696 34.3818L68.9366 34.2333L67.4329 35.3605L66.9707 35.4362C66.9707 35.4362 66.9151 35.515 66.8507 35.5726H66.8478C66.8098 35.609 66.7659 35.6362 66.7308 35.6362C66.6957 35.6362 66.6225 35.612 66.5406 35.5756C66.3943 35.5059 66.2217 35.4059 66.2217 35.3605C66.2217 35.2847 66.2451 35.1332 66.2451 35.1332C66.2451 35.1332 65.9555 35.5635 65.6864 35.3847C65.4201 35.209 65.3002 34.9302 65.3002 34.9302L64.9579 34.6818C64.9579 34.6818 64.8877 34.2333 64.5483 34.2576C64.2119 34.2818 64.0919 34.406 64.0919 34.406L63.7292 34.3818L63.5361 34.2818C63.5361 34.2818 63.3664 33.7788 63.2933 33.9061C63.2201 34.0333 62.9071 34.4091 62.9071 34.4091C62.9071 34.4091 62.0587 32.5789 61.9885 32.5032C61.9153 32.4305 61.2366 31.776 61.2366 31.776C61.2366 31.776 61.1635 31.576 61.26 31.5003C61.3566 31.4275 61.6696 31.076 61.0903 31.4003C60.5082 31.7245 60.0752 31.9548 60.0752 31.9548L59.689 32.179C59.689 32.179 59.5691 31.9032 59.689 31.8548C59.809 31.8033 59.9289 31.6548 59.9289 31.6548L59.2268 31.7033L58.9606 31.4306C58.9606 31.4306 58.5276 31.779 58.5042 31.5548C58.4808 31.3275 58.5276 30.9245 58.4544 30.8761C58.3813 30.8276 58.4544 30.5519 58.3579 30.5519C58.2613 30.5519 58.1648 30.6761 57.9015 30.6276C57.6353 30.5761 57.4129 30.3519 57.4129 30.3519L57.1731 30.6276L57.0531 30.8003L55.6693 31.0276L55.6225 31.3245L54.8706 31.4518L54.2212 31.7245L53.9023 31.7002L53.5893 31.6275L53.3962 31.976L53.7092 32.1244L53.5893 32.3002L54.0749 32.5517L53.4927 32.5002C53.4927 32.5002 53.4196 32.8001 53.4459 32.9244C53.4693 33.0516 53.4196 33.1001 53.2031 33.2546C52.9866 33.4031 53.1066 33.5788 53.1066 33.5788C53.1066 33.5788 53.3962 33.6546 53.5688 33.8303C53.7414 34.0061 53.9052 34.503 53.5922 34.503C53.2792 34.503 52.9603 34.3273 52.9603 34.3273L52.7935 34.603C52.7935 34.603 52.2874 34.2788 52.2347 34.1788C52.185 34.0788 51.8983 34.1273 51.8983 34.1273L51.7754 34.3545L51.5121 34.1273C51.5121 34.1273 51.2459 34.2303 51.126 34.3788C51.0031 34.5272 50.9329 34.6545 50.9329 34.6545L50.3741 34.2L50.301 34.6L50.0347 34.1212L49.7217 33.797H49.3355L49.2156 33.597C49.2156 33.597 48.8967 33.797 48.806 33.8485C48.7065 33.897 48.7065 33.6728 48.7065 33.6728L48.4433 33.6485L47.7645 34.1515L47.7382 34.4L47.352 34.5242C47.352 34.5242 47.5217 35.1545 47.4018 35.1272C47.2818 35.1029 46.8722 34.6787 46.8722 34.6787L46.53 35.0787L46.5534 35.7059L46.3369 36.2604L46.6265 36.3089L46.6031 36.7634H47.0653L47.5451 37.4906L47.2087 37.5391L47.7674 37.8997C47.7674 37.8997 47.7645 37.9027 47.7587 37.9087C47.3871 38.2087 46.6587 38.7632 46.6587 38.9814C46.6587 39.1995 46.8869 39.4844 46.9015 39.851C46.9161 40.2146 46.9483 40.7024 47.2379 40.9691C47.2847 41.0085 47.3315 41.06 47.3725 41.1206L47.0127 41.4781L46.6996 41.3781L46.4831 41.1024L46.1994 41.0054L46.1906 40.9842Z"/>
</mask>
<path d="M46.1906 40.9842L46.0355 40.9266L45.8424 40.5267L45.7225 40.4297L45.3802 40.4782L45.0906 40.5782L44.9472 40.4297L44.3651 40.054L43.9555 40.0782L43.3002 39.854L43.1246 39.9267C42.6507 39.5328 42.2528 39.1117 42.0948 39.0753C41.8842 39.0268 41.7438 38.6753 41.9515 38.2875C42.1621 37.9027 42.4371 37.4997 42.5161 37.4542C42.598 37.4027 42.9842 37.2027 42.598 37.2027C42.4752 37.2027 42.3377 37.224 42.2002 37.2543C42.247 37.0603 42.3172 36.8088 42.3786 36.7452C42.4869 36.6331 42.8057 36.6452 42.9725 36.6452C43.1393 36.6452 43.1071 36.4937 43.1188 36.3816C43.1305 36.2695 42.8759 36.1331 42.8759 36.1331L43.1422 35.8817L42.8525 35.7453L43.1188 35.6938C43.1188 35.6938 43.1919 35.4575 43.2036 35.4059C43.2153 35.3575 43.0222 35.3453 42.9374 35.3453C42.8526 35.3453 42.6361 35.2211 42.6361 35.2211L42.3055 34.9454C42.3055 34.9454 42.2119 34.9939 42.1124 35.0696C42.0188 35.1454 41.8111 34.6575 41.8111 34.6575C41.8111 34.6575 41.5331 34.8333 41.4395 34.8333C41.3401 34.8333 41.1089 34.5939 41.1089 34.5939L40.9276 34.7696L40.8076 34.4939L40.7959 34.2576L40.6994 34.2697L40.7111 33.9697L40.2049 34.0061L40.1669 33.6213H40.3717L40.1084 33.2546L39.9738 33.0546L39.7339 33.1668L39.5876 33.2546L39.5642 33.1546L39.298 33.1153V33.3425L38.9733 33.3516V32.9668H38.8446L38.8241 32.4183L39.2922 32.482L39.5525 32.1638L39.3741 32.0154V31.8457L39.0523 31.9305L39.0845 31.5305L38.8446 31.5093L38.7334 31.0609L38.5403 30.9458L38.6339 30.6943L38.4759 30.5306L38.5871 30.3791L38.6017 30.1943L38.4233 30.1307L38.2946 29.9459L38.0342 30.1095L37.8762 30.1943L37.8557 29.9095L37.5486 29.9459L37.2355 29.764L37.1799 29.0581L36.9137 29.1338L36.9869 28.6551L36.8406 28.5036L36.8523 28.4763L37.0337 27.9794C37.0337 27.9794 36.864 27.3279 36.8874 27.1764C36.9137 27.0279 37.2735 26.6977 37.2735 26.6977L37.1799 26.5007C37.4579 26.3856 37.5954 26.0947 37.7621 26.0947C37.9786 26.0947 38.315 26.0947 38.1951 25.9705C38.0751 25.8462 37.6597 25.7978 37.5895 25.6947C37.531 25.622 37.4345 25.422 37.0161 25.4614C37.5017 24.8342 38.6983 23.2737 38.8709 22.9374C39.0874 22.5132 38.1454 21.883 38.1454 21.883L38.4087 21.5103L38.1922 21.2588L38.1688 20.6558H37.9757L37.9025 20.4801L38.0459 20.3074L37.9259 20.2074L37.9757 19.6044L38.1922 19.5529C38.1922 19.5529 37.6334 18.0258 37.6334 17.947C37.6334 17.8682 37.9523 17.444 37.9757 17.344C37.9991 17.244 38.1688 16.8653 37.9757 16.641C37.7826 16.4168 37.4169 16.2653 37.4169 16.2653L37.49 15.4896C37.49 15.4896 37.4813 15.3805 37.493 15.229L37.7065 15.1139L37.8265 14.7382L38.1892 14.5655V14.2352L38.3823 14.3625H38.5988L38.5871 14.117C38.9938 14.3625 39.5701 14.6533 39.9768 14.6867C40.6087 14.7351 41.0914 14.8351 41.7935 15.5381C42.4956 16.2411 43.6571 16.641 43.6834 17.3198C43.7068 17.9985 43.8502 18.1227 43.3411 18.6227C42.835 19.1256 42.5424 19.3499 41.4307 18.8226C40.3161 18.2985 39.6871 17.9712 39.5408 17.8955C39.3946 17.8197 39.2512 17.6955 39.5642 18.1712C39.8831 18.6439 40.5092 18.8984 40.5326 19.2711C40.556 19.6468 40.6057 20.6043 40.7023 20.9285C40.7988 21.2527 41.3576 21.7315 41.6238 21.7557C41.8871 21.783 42.206 21.783 42.1299 21.5315C42.0539 21.28 41.7672 21.1073 41.5712 20.78C41.3781 20.4498 41.498 20.1013 41.9573 20.4043C42.4196 20.7043 43.581 20.983 43.3119 20.5043C43.0456 20.0256 42.7531 19.9013 43.0456 19.6498C43.3353 19.4014 44.0637 18.2985 44.5494 18.5469C45.035 18.7984 45.3246 18.8711 45.3246 18.4984C45.3246 18.3348 45.2632 18.1257 45.1959 17.8924L45.977 17.753C46.0092 17.8106 46.0531 17.853 46.1204 17.8894C46.5065 18.0894 46.3135 18.153 47.1209 17.1501C47.9313 16.1471 49.0927 15.0806 49.868 15.4805C50.6433 15.8805 50.7398 15.6442 51.322 15.5805C51.9042 15.5108 52.4834 15.4805 53.0305 15.2442C53.5805 15.0109 53.2909 14.1776 52.969 14.0079C52.6443 13.8383 52.9691 13.505 53.6478 13.808C54.3265 14.1079 55.2276 14.2079 55.8098 14.8806C56.3919 15.5472 56.8454 16.0471 57.0385 16.0471C57.2316 16.0471 57.843 15.9138 57.2316 15.0442C56.6143 14.1776 56.1316 13.1383 56.3246 12.6384C56.5177 12.1354 57.0677 11.0325 57.3603 9.99923C57.6528 8.96599 57.7465 8.66299 58.2643 8.79631C58.7821 8.92963 59.6188 9.12961 59.3292 10.4325C59.0395 11.7354 59.4608 11.8718 59.4257 12.5081C59.3935 13.1414 59.1712 15.3836 59.493 15.3836C59.8148 15.3836 60.3648 15.6835 60.201 14.6139C60.043 13.5413 59.8148 11.4052 60.5579 10.9355C61.301 10.4689 62.3015 9.69925 62.5619 9.86894C62.8164 10.0326 63.4659 10.8719 63.7848 10.8719C64.1036 10.8719 64.3348 10.6022 64.0451 10.1689C63.7555 9.73258 63.0446 8.49634 63.2055 8.06304C63.3693 7.62672 66.0491 7.72671 66.2744 7.22373C66.4997 6.72075 65.4991 6.22079 66.0813 5.48753C66.6635 4.75426 67.4066 3.71497 68.2433 3.71497C69.08 3.71497 69.3755 3.315 69.7938 3.14835C70.2151 2.97867 70.926 2.81202 71.634 2.77869C72.3478 2.74536 72.3771 2.2757 72.8305 2.07572C73.2811 1.87574 73.4741 1.60607 73.6058 0.939466C73.7345 0.269832 74.1207 -0.566453 74.6356 -0.733104C75.1534 -0.902785 76.1217 -0.399803 75.9287 -0.163461C75.7356 0.0698504 75.089 0.603136 75.3787 0.569805C75.6683 0.536475 76.6688 0.703125 76.7332 1.07279C76.7975 1.44245 78.4446 1.14248 78.7664 1.47275C79.0882 1.80302 80.4428 3.37863 79.6382 4.38157C78.8337 5.38451 77.2832 6.7571 77.4763 7.02072C77.6694 7.29039 78.4095 7.2207 79.1848 7.35705C79.96 7.49037 81.9933 7.42068 82.3795 7.99032C82.7656 8.55997 84.6058 9.32656 84.6058 8.5933C84.6058 7.86003 84.4127 7.35705 85.8989 8.02365C87.3821 8.69329 87.546 8.99326 87.3529 9.49624C87.1598 9.99923 86.9667 10.4659 87.2563 10.9688C87.546 11.4718 88.3827 13.1747 88.643 11.9051C88.9034 10.6325 88.7396 10.3992 89.4183 10.9355C90.097 11.4718 92.4521 11.5748 92.613 11.0052C92.7768 10.4355 92.4199 9.23263 93.7744 9.43261C95.129 9.6326 96.8433 9.70228 97.2617 10.2022C97.68 10.7052 98.0047 11.0355 98.4231 11.6748C98.8415 12.3081 99.6518 12.3081 100.196 12.1414C100.746 11.9778 102.519 12.0415 102.554 12.7111C102.586 13.3807 102.326 14.417 103.358 14.2837C104.394 14.1473 105.392 14.1473 105.714 14.3473C106.038 14.5473 106.489 14.0473 106.717 14.014C106.942 13.9807 108.619 13.2807 109.912 13.7807C111.202 14.2837 112.817 15.5169 113.689 16.1199C114.56 16.7228 115.107 16.9895 115.107 17.2228C115.107 17.4561 114.979 18.2257 115.204 18.2257C115.429 18.2257 115.611 17.8015 115.611 17.8015C115.754 17.8015 116.588 17.8864 116.626 17.95C116.699 18.0742 117.571 19.0772 117.571 19.0772C117.378 19.4074 117.185 19.4771 117.208 19.5832C117.231 19.6801 116.775 19.7317 116.626 19.9559C116.48 20.1831 116.216 21.4376 116.067 21.3891C115.924 21.3376 114.666 20.8346 114.642 20.5588C114.616 20.2831 114.28 19.7559 113.841 19.8559C113.408 19.9559 113.065 19.3529 113.115 19.2044C113.162 19.0529 112.752 18.7802 112.706 19.0529C112.656 19.3287 112.992 19.9559 112.656 20.3074C112.319 20.6558 111.687 20.9861 111.471 20.8315C111.252 20.68 110.839 20.6073 111.009 20.88C111.178 21.1558 111.418 21.2345 111.638 21.5103C111.857 21.786 111.784 22.0345 112.001 22.286C112.217 22.5375 112.486 23.2162 112.267 23.3919C112.05 23.5646 111.372 23.1647 111.056 23.3162C110.743 23.4646 107.934 25.1705 107.911 25.5463C107.887 25.922 107.598 26.2735 107.182 25.4463C106.773 24.6191 106.094 26.325 105.708 26.225C105.357 26.1341 105.026 25.6917 104.605 26.0977L103.549 25.6766C104.023 25.1917 104.578 24.6585 104.742 24.1676C104.962 23.5161 105.324 22.8647 104.669 23.1404C104.02 23.4162 104.309 23.5949 103.534 24.5676C102.759 25.5463 102.806 25.822 102.732 25.422C102.662 25.0221 102.925 24.0888 102.299 24.0888C101.673 24.0888 100.386 25.3675 100.073 25.8705C99.7601 26.3735 100.535 26.8249 99.7103 26.8976C98.8883 26.9734 98.6454 26.7734 96.7585 26.6977C94.8686 26.6249 94.1665 26.4734 92.4696 28.6551C90.7758 30.8367 90.1731 31.3124 91.2848 31.5124C92.3994 31.7123 93.3181 31.0882 93.3912 32.2184C93.4643 33.3455 92.8558 37.1815 91.238 38.8117C89.6143 40.4449 89.4212 40.7691 88.9824 40.4449C88.7893 40.2994 88.4324 40.5055 88.0696 40.8297L88.014 40.4933L87.9321 40.4328L88.3066 40.3176L88.3768 39.4419C88.3768 39.4419 88.1135 39.0117 88.2071 38.9117C88.3066 38.8117 88.646 38.439 88.8888 38.6117C89.1287 38.7874 89.1521 38.839 89.3686 38.4117C89.588 37.9875 89.8571 37.533 89.784 37.3603C89.7109 37.1846 90.0502 36.8058 90.0502 36.8058V36.3028L89.2252 36.4543C89.2252 36.4543 89.1053 36.7785 88.7864 36.7785C88.4675 36.7785 87.9643 36.7785 88.0111 36.5786C88.0609 36.3786 87.9643 35.8756 87.9643 35.8756L87.7712 35.7998L87.4289 35.4272L87.1159 35.3514L86.6098 35.2757L86.4898 34.7515L86.1037 34.0243C86.1037 34.0243 86.1037 33.194 86.0071 33.194C85.9106 33.194 85.8375 32.4668 84.9656 32.2426C84.0938 32.0184 83.7077 32.2668 83.5585 32.2668C83.4093 32.2668 82.9295 32.3911 82.8563 32.691C82.7832 32.991 83.0757 32.891 83.0757 32.891L83.1226 33.291C83.1226 33.291 82.6896 33.6455 82.6369 33.8697C82.5872 34.0939 82.3239 34.5969 82.3707 34.6969C82.4204 34.7969 82.2507 35.1757 81.9611 35.2514C81.7417 35.309 81.4462 35.2302 81.1712 35.1393C81.0864 35.112 81.0015 35.0787 80.9196 35.0514C80.5832 34.9242 80.314 35.0999 80.1941 34.9757C80.0712 34.8515 79.9279 34.6272 79.5885 35.0272C79.2462 35.4272 78.7138 35.6302 78.1082 35.6302C77.5026 35.6302 76.8999 35.4787 76.8034 35.2302C76.7068 34.9787 76.4172 35.0302 76.4172 35.0302C76.4172 35.0302 76.2475 34.5242 75.7619 34.6303C75.2763 34.7272 74.5039 35.0545 74.188 34.6545C73.8691 34.2545 73.8252 33.8758 73.8252 33.8758L73.3191 33.6273L72.7106 33.6001L72.7369 33.4273L72.2981 33.2001C71.6925 33.8546 71.8124 34.3545 71.9119 34.503C72.0084 34.6545 71.8651 35.206 71.6486 35.1817C71.4292 35.1575 71.0664 34.8575 70.7739 34.9575C70.4872 35.0575 70.101 34.9302 69.9752 34.6333C69.8552 34.3273 69.393 34.5303 69.393 34.5303L69.3696 34.3818L68.9366 34.2333L67.4329 35.3605L66.9707 35.4362C66.9707 35.4362 66.9151 35.515 66.8507 35.5726H66.8478C66.8098 35.609 66.7659 35.6362 66.7308 35.6362C66.6957 35.6362 66.6225 35.612 66.5406 35.5756C66.3943 35.5059 66.2217 35.4059 66.2217 35.3605C66.2217 35.2847 66.2451 35.1332 66.2451 35.1332C66.2451 35.1332 65.9555 35.5635 65.6864 35.3847C65.4201 35.209 65.3002 34.9302 65.3002 34.9302L64.9579 34.6818C64.9579 34.6818 64.8877 34.2333 64.5483 34.2576C64.2119 34.2818 64.0919 34.406 64.0919 34.406L63.7292 34.3818L63.5361 34.2818C63.5361 34.2818 63.3664 33.7788 63.2933 33.9061C63.2201 34.0333 62.9071 34.4091 62.9071 34.4091C62.9071 34.4091 62.0587 32.5789 61.9885 32.5032C61.9153 32.4305 61.2366 31.776 61.2366 31.776C61.2366 31.776 61.1635 31.576 61.26 31.5003C61.3566 31.4275 61.6696 31.076 61.0903 31.4003C60.5082 31.7245 60.0752 31.9548 60.0752 31.9548L59.689 32.179C59.689 32.179 59.5691 31.9032 59.689 31.8548C59.809 31.8033 59.9289 31.6548 59.9289 31.6548L59.2268 31.7033L58.9606 31.4306C58.9606 31.4306 58.5276 31.779 58.5042 31.5548C58.4808 31.3275 58.5276 30.9245 58.4544 30.8761C58.3813 30.8276 58.4544 30.5519 58.3579 30.5519C58.2613 30.5519 58.1648 30.6761 57.9015 30.6276C57.6353 30.5761 57.4129 30.3519 57.4129 30.3519L57.1731 30.6276L57.0531 30.8003L55.6693 31.0276L55.6225 31.3245L54.8706 31.4518L54.2212 31.7245L53.9023 31.7002L53.5893 31.6275L53.3962 31.976L53.7092 32.1244L53.5893 32.3002L54.0749 32.5517L53.4927 32.5002C53.4927 32.5002 53.4196 32.8001 53.4459 32.9244C53.4693 33.0516 53.4196 33.1001 53.2031 33.2546C52.9866 33.4031 53.1066 33.5788 53.1066 33.5788C53.1066 33.5788 53.3962 33.6546 53.5688 33.8303C53.7414 34.0061 53.9052 34.503 53.5922 34.503C53.2792 34.503 52.9603 34.3273 52.9603 34.3273L52.7935 34.603C52.7935 34.603 52.2874 34.2788 52.2347 34.1788C52.185 34.0788 51.8983 34.1273 51.8983 34.1273L51.7754 34.3545L51.5121 34.1273C51.5121 34.1273 51.2459 34.2303 51.126 34.3788C51.0031 34.5272 50.9329 34.6545 50.9329 34.6545L50.3741 34.2L50.301 34.6L50.0347 34.1212L49.7217 33.797H49.3355L49.2156 33.597C49.2156 33.597 48.8967 33.797 48.806 33.8485C48.7065 33.897 48.7065 33.6728 48.7065 33.6728L48.4433 33.6485L47.7645 34.1515L47.7382 34.4L47.352 34.5242C47.352 34.5242 47.5217 35.1545 47.4018 35.1272C47.2818 35.1029 46.8722 34.6787 46.8722 34.6787L46.53 35.0787L46.5534 35.7059L46.3369 36.2604L46.6265 36.3089L46.6031 36.7634H47.0653L47.5451 37.4906L47.2087 37.5391L47.7674 37.8997C47.7674 37.8997 47.7645 37.9027 47.7587 37.9087C47.3871 38.2087 46.6587 38.7632 46.6587 38.9814C46.6587 39.1995 46.8869 39.4844 46.9015 39.851C46.9161 40.2146 46.9483 40.7024 47.2379 40.9691C47.2847 41.0085 47.3315 41.06 47.3725 41.1206L47.0127 41.4781L46.6996 41.3781L46.4831 41.1024L46.1994 41.0054L46.1906 40.9842Z" fill="#90C6DE" stroke="white" stroke-width="0.06" mask="url(#path-9-inside-1_4559_30962)"/>
<path d="M40.491 38.1953C40.502 38.2574 40.5233 38.3181 40.5574 38.3652C40.5843 38.4024 40.6193 38.4312 40.6619 38.4463L40.7068 38.457C40.7554 38.4608 40.8154 38.4619 40.8777 38.4638C40.9402 38.4658 41.006 38.4687 41.0662 38.4726C41.1262 38.4766 41.1804 38.4826 41.2214 38.4922C41.242 38.497 41.2592 38.5024 41.2712 38.5088L41.2908 38.5263C41.299 38.548 41.315 38.5794 41.3289 38.6103C41.3432 38.6424 41.3561 38.6756 41.3611 38.705C41.3661 38.7348 41.3624 38.7566 41.3484 38.7705C41.3411 38.7776 41.3299 38.7843 41.3132 38.7881L41.2449 38.79C41.1204 38.7822 40.9882 38.8176 40.8582 38.8681C40.728 38.9188 40.5971 38.9857 40.4763 39.0429C40.415 39.072 40.358 39.1075 40.3064 39.1367C40.2541 39.1662 40.2078 39.1893 40.1677 39.1982C40.1287 39.2069 40.0966 39.2015 40.0691 39.1748C40.0403 39.1468 40.0142 39.0936 39.9939 39.0019C39.9548 38.8157 39.8272 38.6673 39.7156 38.5605C39.6605 38.5078 39.6068 38.4628 39.572 38.4306C39.5543 38.4142 39.5414 38.4008 39.5339 38.3906C39.5303 38.3856 39.5286 38.3818 39.5281 38.3799C39.5277 38.3783 39.528 38.3795 39.5271 38.3808V38.3799C39.5271 38.3799 39.5276 38.3792 39.5291 38.3779C39.5304 38.3767 39.5325 38.3756 39.5349 38.374C39.5403 38.3704 39.5481 38.366 39.5574 38.3613C39.5757 38.352 39.6001 38.3409 39.6287 38.3291C39.6855 38.3055 39.759 38.2771 39.825 38.249C39.8909 38.2209 39.9537 38.1912 39.989 38.164C39.9977 38.1573 40.0058 38.1507 40.0115 38.1435C40.0171 38.1364 40.0213 38.1275 40.0222 38.1181C40.024 38.0967 40.007 38.082 39.9861 38.0732C39.9585 38.0613 39.921 38.0545 39.8777 38.0498L40.0183 37.9765L40.491 38.1953Z" fill="#90C6DE" stroke="white" stroke-width="0.03"/>
<path d="M37.5349 29.9431L37.533 29.947L37.5447 29.946L37.8357 29.9099L37.8552 30.1804L37.8572 30.2029L37.8777 30.1921L38.0349 30.1071H38.0359L38.2839 29.9499L38.405 30.1237L38.4021 30.1257L38.4119 30.1296L38.5798 30.1892L38.5662 30.3581L38.4578 30.5066L38.4509 30.5163L38.4597 30.5261L38.6101 30.6823L38.5203 30.9255L38.5164 30.9372L38.5271 30.9431L38.7136 31.0544L38.824 31.4978L38.8269 31.5085L38.8376 31.5095L39.0613 31.528L39.031 31.9138L39.03 31.9353L39.0505 31.9294L39.3533 31.8493V31.9997H39.3445L39.3582 32.0114L39.5251 32.1501L39.2791 32.4499L38.8201 32.3884L38.8025 32.3855L38.8035 32.404L38.824 32.9519V32.9665H38.9519V33.321L38.5632 33.3366V33.3279L38.5515 33.3425L38.3875 33.5593L38.3855 33.5583L38.3845 33.5691L38.3708 33.9314L38.1853 33.7263L38.1785 33.7185L38.1677 33.7224L37.9285 33.8357L37.7664 33.821L37.7029 33.6316L37.6941 33.6052L37.6775 33.6267L37.4949 33.8601L37.2468 33.5749L37.2351 33.5612L37.2244 33.5749L37.0281 33.8122C37.0205 33.8024 37.0088 33.788 36.9949 33.7712C36.967 33.7377 36.9275 33.6928 36.8816 33.6482C36.8357 33.6035 36.783 33.5581 36.7283 33.5241C36.6737 33.4903 36.6152 33.4665 36.5593 33.4665C36.4561 33.4665 36.224 33.4472 36.0037 33.4294C35.8937 33.4205 35.7867 33.4122 35.7009 33.407C35.658 33.4043 35.6199 33.4028 35.5896 33.4021C35.56 33.4014 35.5365 33.401 35.5222 33.403H35.5212C35.5066 33.4055 35.4871 33.4151 35.4656 33.4275C35.4434 33.4402 35.417 33.4573 35.3884 33.4773C35.3311 33.5174 35.2633 33.5695 35.199 33.6208C35.1345 33.6722 35.0725 33.7234 35.0271 33.7614C35.0063 33.7788 34.9881 33.7926 34.9753 33.8034L34.9568 33.3181H34.9421L34.9666 33.3171L34.9509 33.3064L34.7498 33.1618L34.8738 32.9441L34.8757 32.9421C34.8773 32.9407 34.8797 32.9388 34.8826 32.9362C34.8888 32.9306 34.8982 32.9218 34.9089 32.9118C34.9303 32.892 34.959 32.865 34.988 32.8357C35.0173 32.8062 35.0474 32.7739 35.071 32.7448C35.0828 32.7303 35.0933 32.7157 35.1013 32.7029C35.109 32.6904 35.1146 32.6779 35.1169 32.6667C35.1194 32.6558 35.1185 32.6397 35.116 32.6218C35.1134 32.6031 35.1091 32.58 35.1033 32.5544C35.0916 32.5028 35.0743 32.4388 35.0564 32.3757C35.0385 32.3126 35.0199 32.2494 35.0046 32.198C34.9893 32.1461 34.9779 32.1065 34.9744 32.0905L34.9734 32.0896L34.9597 32.0085C34.9555 31.9718 34.9521 31.9287 34.949 31.8874C34.9459 31.8461 34.9438 31.8061 34.9421 31.7771C34.9414 31.7649 34.9406 31.7547 34.9402 31.7468C34.9486 31.7476 34.9599 31.7487 34.9734 31.7497C35.0048 31.7521 35.0486 31.7554 35.0964 31.7566C35.168 31.7583 35.2516 31.7564 35.3201 31.7448L35.3826 31.7292C35.4541 31.7035 35.5835 31.6568 35.6951 31.6042C35.7508 31.5779 35.8033 31.5504 35.8416 31.5222C35.8606 31.5081 35.8769 31.493 35.8884 31.4782C35.8998 31.4636 35.908 31.4474 35.908 31.4304C35.908 31.4068 35.9136 31.3622 35.9226 31.3073C35.9316 31.2526 35.9438 31.1884 35.9558 31.1277C35.9678 31.0672 35.98 31.0099 35.989 30.9675C35.9935 30.9465 35.9971 30.9288 35.9998 30.9167C36.001 30.9112 36.001 30.9062 36.0017 30.903L36.4656 30.5886L36.4792 30.5788L36.4685 30.5661L36.3767 30.4568L36.446 30.1696L36.4578 30.1765V30.1384L36.7058 29.9958L36.8933 30.0779L36.9021 30.0818L36.9099 30.0749L37.2263 29.7605L37.5349 29.9431Z" fill="#90C6DE" stroke="white" stroke-width="0.03"/>
<path d="M37.4928 15.2198C37.4811 15.3713 37.4899 15.4804 37.4899 15.4804L37.4168 16.256C37.4168 16.256 37.7795 16.4075 37.9755 16.6318C38.1716 16.856 37.9989 17.2347 37.9755 17.3347C37.9521 17.4347 37.6333 17.8589 37.6333 17.9377C37.6333 18.0165 38.192 19.5436 38.192 19.5436L37.9755 19.5951L37.9258 20.1981L38.0458 20.2981L37.9024 20.4708L37.9755 20.6465H38.1686L38.192 21.2495L38.4085 21.501L38.1452 21.8737C38.1452 21.8737 39.0873 22.5039 38.8708 22.9281C38.6952 23.2645 37.4987 24.8249 37.016 25.4521C36.8931 25.4643 36.741 25.4976 36.5479 25.5612C35.7229 25.837 35.2168 26.4399 34.8774 26.2642C34.5351 26.0885 34.0056 25.84 33.9793 25.3128C33.9559 24.7886 34.0056 24.0099 33.909 23.6311C33.8125 23.2554 33.5902 22.9039 33.9793 22.5797C34.3654 22.2494 35.1173 21.201 35.3864 20.9465C35.6527 20.698 36.2817 20.2435 35.796 19.8678C35.5854 19.7042 35.3513 19.5315 35.1348 19.4194L34.9476 18.8164L35.0939 18.3134V18.1134L34.9476 17.7135L35.0208 17.4135C35.0208 17.4135 34.8277 17.3135 34.8774 17.165C34.9242 17.0135 34.8774 16.5106 34.9739 16.4348C35.0705 16.3621 34.3918 15.9621 34.3186 15.9621C34.2455 15.9621 33.9325 15.6561 33.7833 15.4834C33.7072 15.3864 33.5755 15.1895 33.4731 15.0349L33.6721 14.938L33.9968 14.7047C33.9968 14.7047 34.2221 15.4743 34.3479 15.5076C34.4795 15.541 35.0266 15.4076 35.0266 15.4076L35.5444 15.8076L35.7375 15.3379C35.7375 15.3379 36.1237 15.3046 36.0593 14.835C35.992 14.3683 36.4162 13.732 36.4162 13.732L36.6415 13.7684L37.1564 13.4987L37.288 13.932L37.6391 14.0684C37.6391 14.0684 37.7064 14.5017 37.5835 14.8259C37.5338 14.9652 37.5075 15.1077 37.4899 15.2198H37.4928Z" fill="#176C93"/>
<path d="M38.0954 37.5325C38.0954 37.6568 38.1071 37.8446 37.9257 37.7931C37.7443 37.7446 37.6127 37.7174 37.6127 37.7174L37.601 38.1052L37.2792 38.3143L37.1914 37.4447C37.1914 37.4447 36.9983 36.9902 36.9486 36.9144C36.9164 36.8629 36.6531 36.5205 36.5039 36.3205C36.539 36.2599 36.5507 36.2175 36.5507 36.2175L36.9895 36.2024C36.9895 36.2024 37.1329 36.3902 37.2909 36.466C37.4459 36.5417 37.7648 36.5417 37.7648 36.5417L37.7385 37.0659L37.9082 37.0174L37.9316 37.378C37.9316 37.378 38.1013 37.4023 38.1013 37.5295L38.0954 37.5325Z" fill="#90C6DE"/>
<path d="M36.7576 36.6879C36.8018 36.7464 36.8427 36.8008 36.8738 36.8432C36.905 36.8858 36.9256 36.9163 36.9324 36.9282L36.9333 36.9291C36.9451 36.9472 36.966 36.9884 36.991 37.0414C37.016 37.0945 37.0448 37.1587 37.072 37.2202C37.0992 37.2816 37.1254 37.3405 37.1443 37.3842C37.1537 37.4061 37.1614 37.4244 37.1667 37.437C37.1694 37.4432 37.1712 37.4483 37.1726 37.4516L37.1736 37.4536L37.2615 38.3217L37.281 38.4907V38.4916L37.2839 38.4965V38.4975L37.2849 38.4985C37.2855 38.4996 37.2866 38.5013 37.2878 38.5034C37.2902 38.5073 37.2931 38.5133 37.2976 38.52C37.3069 38.5336 37.3214 38.5525 37.3396 38.5707C37.3758 38.6069 37.4305 38.644 37.5017 38.644C37.5721 38.644 37.6423 38.6074 37.7009 38.5727C37.7307 38.555 37.757 38.5376 37.781 38.5248C37.8053 38.5119 37.8242 38.5055 37.8376 38.5053C37.843 38.5053 37.8538 38.5086 37.8689 38.517C37.8833 38.5251 37.9009 38.5368 37.9197 38.5512C37.9549 38.5783 37.9947 38.6144 38.033 38.6508C38.0191 38.6841 38.0008 38.7263 37.9822 38.7758C37.9282 38.9214 37.8213 39.0066 37.7214 39.0883C37.6228 39.169 37.5288 39.2483 37.5134 39.3823C37.4996 39.5024 37.4445 39.5969 37.3767 39.728C37.2443 39.6763 37.0392 39.5982 36.8523 39.5336C36.7558 39.5003 36.6635 39.4704 36.5886 39.4496C36.5513 39.4393 36.5176 39.4314 36.49 39.4262L36.4236 39.4203C36.4029 39.4221 36.3786 39.4303 36.3523 39.4418C36.3256 39.4535 36.2954 39.4692 36.2644 39.4877C36.2024 39.5247 36.1338 39.5731 36.0701 39.6205C36.0063 39.668 35.9473 39.7152 35.9041 39.7504C35.8825 39.768 35.8645 39.7822 35.8523 39.7924C35.8462 39.7975 35.8409 39.8014 35.8376 39.8041H35.8367L34.7498 39.7055L34.6335 39.4291L34.6296 39.4203H34.6238V39.4125L34.613 39.4086L34.4802 39.3637L34.5037 39.0639L34.488 39.0629L34.5105 39.0639L34.4988 39.0522L34.4255 38.977L34.4167 38.9672L34.406 38.975L34.1697 39.1459L34.0476 39.1098L33.8513 38.9311L33.9001 38.6284L33.9021 38.6176L33.8914 38.6127L33.5486 38.4643L33.5378 38.1743H33.5417L33.5349 38.1655L33.3718 37.9536H33.3884C33.5351 37.9535 33.6104 37.9278 33.6667 37.893C33.6943 37.876 33.7178 37.8571 33.741 37.8393L33.822 37.7885C33.8419 37.7789 33.8602 37.7598 33.8767 37.7358C33.8934 37.7113 33.9099 37.6799 33.9255 37.645C33.9568 37.575 33.9866 37.4868 34.0144 37.3989C34.0423 37.3106 34.068 37.2229 34.0916 37.1508C34.1033 37.1149 34.1144 37.0832 34.1248 37.058C34.1352 37.0325 34.1446 37.0154 34.1521 37.0063C34.1878 36.9634 34.2832 36.8738 34.3708 36.7944C34.4144 36.7549 34.4556 36.7178 34.4861 36.6909C34.5012 36.6775 34.5135 36.6662 34.5222 36.6586C34.5266 36.6548 34.5307 36.6519 34.533 36.6498L34.5339 36.6489L34.8025 36.4897L34.9148 36.5834L34.9119 36.5873H35.4392L35.4519 36.6088C35.4629 36.6266 35.4784 36.6508 35.4978 36.6743C35.5171 36.6976 35.5411 36.7207 35.5671 36.7377C35.593 36.7547 35.6225 36.7665 35.6541 36.7631C35.7117 36.7567 35.7743 36.7235 35.821 36.6938C35.8447 36.6787 35.8654 36.6637 35.8796 36.6528C35.8866 36.6474 35.8924 36.6432 35.8962 36.6401L35.8972 36.6391H35.9314C35.9562 36.6387 35.9915 36.637 36.032 36.6323C36.113 36.6227 36.2177 36.5996 36.3093 36.5483H36.3103C36.3999 36.4947 36.4633 36.4199 36.5017 36.353C36.5763 36.451 36.674 36.5775 36.7576 36.6879Z" fill="#90C6DE" stroke="white" stroke-width="0.03"/>
<path d="M37.2522 26.6806C37.25 26.6827 37.2475 26.6855 37.2444 26.6884C37.2344 26.6978 37.2205 26.7117 37.2034 26.7285C37.1692 26.7618 37.1232 26.8077 37.0764 26.8583C37.0296 26.9091 36.9815 26.965 36.9436 27.0175C36.9062 27.0694 36.8767 27.1203 36.8694 27.1611C36.8631 27.2016 36.8695 27.2735 36.8821 27.3554C36.8947 27.4381 36.9141 27.534 36.9338 27.6249C36.9536 27.7159 36.9739 27.8026 36.9895 27.8661C36.9973 27.8979 37.0044 27.9242 37.009 27.9423C37.0113 27.9511 37.0127 27.958 37.0139 27.9628L37.0149 27.9658L36.8381 28.4501L36.7004 28.4736L36.6467 28.3486L36.6399 28.3329L36.6252 28.3417L36.4065 28.4716L35.8176 27.9072L35.8118 27.9013L35.802 27.9042L35.426 28.0439C35.431 27.985 35.4277 27.9412 35.425 27.9169V27.916L35.4153 27.8847C35.4011 27.8558 35.3737 27.8331 35.343 27.8124C35.3225 27.7986 35.2991 27.7852 35.2747 27.7714C35.2499 27.7574 35.2237 27.7427 35.1975 27.7265C35.0933 27.6621 34.9877 27.5723 34.9622 27.3925C34.939 27.2066 34.9579 27.0329 35.0168 26.8974C35.0757 26.7623 35.1744 26.6649 35.3137 26.6298C35.457 26.5923 35.7166 26.5608 36.0042 26.5449C36.2915 26.529 36.6061 26.529 36.8596 26.5546C36.9784 26.5663 37.0807 26.546 37.1702 26.5097L37.2522 26.6806Z" fill="#90C6DE" stroke="white" stroke-width="0.03"/>
<path d="M34.4272 40.7338L34.4136 40.7328L34.3491 40.725L34.3618 40.6987V40.6977L34.5063 40.2543L34.6987 40.018L34.7095 40.0043L34.6958 39.9955L34.564 39.9106L34.312 39.7514L34.4634 39.7348L34.4751 39.7338L34.4771 39.7231L34.5083 39.5278L34.6079 39.4379L34.7231 39.7143L34.7271 39.7221L34.7358 39.7231L35.8384 39.8227L35.8403 39.808L35.8384 39.8295L35.8501 39.8198L35.8511 39.8188C35.8519 39.8181 35.8534 39.8172 35.855 39.8159C35.8582 39.8131 35.8626 39.8082 35.8687 39.8032C35.8807 39.793 35.8982 39.7786 35.9194 39.7612C35.9622 39.7261 36.0213 39.6794 36.0845 39.6323C36.1477 39.5851 36.215 39.5376 36.2759 39.5014C36.3063 39.4833 36.3355 39.4685 36.3608 39.4575C36.3862 39.4464 36.4072 39.4393 36.4233 39.4379H36.4243C36.4359 39.4368 36.4553 39.4388 36.4819 39.4438C36.5084 39.4488 36.5407 39.457 36.5776 39.4672C36.6518 39.4877 36.7439 39.5169 36.8403 39.5502C37.0257 39.6142 37.2286 39.692 37.3608 39.7436C37.3123 39.8365 37.2612 39.9458 37.2173 40.0893L37.1743 40.2534C37.1216 40.4718 37.1055 40.6138 37.1167 40.7231C37.1271 40.8239 37.1622 40.895 37.2085 40.9721H36.8726L36.6821 40.8969L36.6851 40.8901L36.6704 40.8979L36.3364 41.0678L36.3286 41.0717V41.0746L36.1489 41.1674L36.1479 41.1655L36.144 41.1723L36.0288 41.3412H35.6958L35.4468 41.2543H35.4478L35.4429 41.2534L34.981 41.2299L34.98 41.2446L34.981 41.228L34.9741 41.2309L34.5767 41.3911L34.561 41.3969L34.606 40.8969L34.6069 40.8832L34.5933 40.8813L34.4272 40.85V40.7338Z" fill="#90C6DE" stroke="white" stroke-width="0.03"/>
<path d="M36.3938 28.4993L36.4026 28.5071L36.4124 28.5013L36.6252 28.3734L36.678 28.4935L36.6819 28.5052L36.6936 28.5032L36.8235 28.4798V28.4818L36.8196 28.4915L36.8264 28.4984L36.967 28.6439L36.8958 29.1155L36.8928 29.139L36.9153 29.1331L37.1633 29.0618L37.2161 29.7366L37.2131 29.7405L36.8987 30.0452L36.7151 29.9651L36.7092 29.9788L36.719 29.9554L36.7014 29.9661L36.4407 30.1175L36.4377 30.1185L36.0383 29.6985L36.0413 29.6956L36.0286 29.6946L35.6555 29.6556L35.6448 29.4446L35.6428 29.4193L35.6213 29.4329L35.2639 29.6526L34.7454 29.555H34.7463L34.2288 29.431L34.2249 29.4456L34.2307 29.4212L34.2161 29.4339L33.7805 29.7845L33.7014 29.7767C33.7016 29.1149 33.9157 28.6844 34.0208 28.5521C34.0786 28.4806 34.1966 28.4016 34.3264 28.3773C34.4551 28.3532 34.5943 28.3825 34.6985 28.5267C34.8069 28.6768 34.899 28.7786 34.9827 28.8362C35.0669 28.8942 35.1439 28.9076 35.2209 28.8802C35.2402 28.8743 35.2575 28.8609 35.2717 28.8421C35.2861 28.8232 35.2989 28.7983 35.3108 28.7698C35.3346 28.7126 35.355 28.6376 35.3713 28.556C35.4033 28.3963 35.4205 28.2086 35.4241 28.0735L35.803 27.9319L36.3938 28.4993Z" fill="#90C6DE" stroke="white" stroke-width="0.03"/>
<path d="M34.7366 29.5811H34.7375L35.261 29.6817L35.26 29.6866L35.2717 29.6797L35.6125 29.4678L35.6233 29.6671L35.6243 29.6807L35.637 29.6817L36.0168 29.7198L36.426 30.1514L36.3518 30.4571V30.4639H36.3469L36.3547 30.4727L36.4407 30.5753L35.9866 30.8839L35.9836 30.8799L35.9807 30.8936L35.9797 30.8946C35.9796 30.8954 35.9801 30.897 35.9797 30.8985C35.979 30.9017 35.9771 30.9063 35.9758 30.9122C35.9732 30.9243 35.9696 30.9427 35.9651 30.9639C35.956 31.0064 35.9439 31.0644 35.9319 31.1251C35.9198 31.1858 35.9077 31.2497 35.8987 31.3047C35.8897 31.3595 35.8831 31.4072 35.8831 31.4337C35.8829 31.4414 35.8795 31.4513 35.8704 31.463C35.8611 31.4747 35.8471 31.4869 35.8293 31.5001C35.7935 31.5265 35.7437 31.5542 35.6887 31.5801C35.6337 31.6061 35.5736 31.6302 35.5188 31.6514L35.3782 31.7042C35.3093 31.7272 35.199 31.7308 35.1038 31.7286C35.0564 31.7274 35.0128 31.7251 34.9817 31.7227C34.9665 31.7216 34.9542 31.7206 34.9456 31.7198C34.9426 31.7195 34.9397 31.719 34.9377 31.7188L34.6555 31.3272L34.6643 31.3214H34.5374L34.5149 31.0772L34.6204 30.9454L34.6292 30.9522L34.6223 30.9317L34.5491 30.6924L34.5461 30.6807L34.5334 30.6817L34.2258 30.7081L33.929 30.5001L33.9309 30.4981L33.9221 30.4971L33.7551 30.4766C33.7482 30.4244 33.7408 30.3603 33.7327 30.2813L33.7073 29.9688C33.7046 29.9101 33.6994 29.856 33.6985 29.8038L33.7815 29.8116L33.7834 29.7969L33.7815 29.8174L33.7932 29.8087L34.2258 29.4581L34.7366 29.5811Z" fill="#90C6DE" stroke="white" stroke-width="0.03"/>
<path d="M33.6867 41.7715L34.5468 41.4231L34.5848 41.4079L34.9827 41.2474L35.4449 41.2716L35.6965 41.3595H36.0388L36.1587 41.1837L36.346 41.0868L36.463 41.3837L36.3548 41.5837L36.1061 41.8412C36.0388 41.7928 35.9598 41.7625 35.8545 41.7534C35.4829 41.717 35.05 41.7685 35.126 41.8867C35.2079 42.0018 35.1114 42.1351 34.9008 42.12C34.6901 42.1048 34.4327 41.8715 34.579 42.2715C34.7223 42.6715 35.0295 43.0411 35.1611 43.1381C35.2899 43.2411 35.7082 43.4441 35.401 43.6077C35.0938 43.7774 34.9329 43.7411 34.8188 43.6774C34.7077 43.6077 34.6755 43.6774 34.772 43.7774C34.8686 43.8774 34.7047 44.0107 34.7223 44.141C34.7369 44.2774 34.9008 44.647 34.7077 44.6107C34.5146 44.5773 34.1723 44.4774 34.0289 44.2107C33.8856 43.941 33.6106 43.5774 33.7539 43.5774C33.8973 43.5774 34.0436 43.4623 34.0436 43.4623C34.0436 43.4623 33.9617 43.4623 33.8183 43.3623C33.672 43.2623 33.6252 43.0926 33.5433 42.9926C33.4614 42.8927 33.125 43.1926 33.0079 42.923C32.9641 42.826 32.9377 42.6745 32.9231 42.5018L33.4468 42.1382L33.6516 41.7897L33.6867 41.7776V41.7715Z" fill="#90C6DE"/>
<path d="M34.4788 35.3745L34.4719 35.3705L34.4768 35.3881L34.5588 35.6782C34.5565 35.6801 34.5544 35.6833 34.551 35.686C34.5421 35.6932 34.5286 35.702 34.5139 35.7123C34.4427 35.6929 34.3564 35.666 34.2874 35.643C34.2517 35.6311 34.2207 35.6204 34.1985 35.6127C34.1874 35.6089 34.1782 35.6061 34.1721 35.6039C34.1691 35.6029 34.1659 35.6016 34.1643 35.601L33.9885 35.4662L33.9915 35.4623L33.9788 35.4633L33.7385 35.477V35.4731L33.7278 35.4838C33.7269 35.4847 33.7247 35.4861 33.7229 35.4877C33.7194 35.491 33.7148 35.4961 33.7083 35.5014C33.6947 35.5124 33.6746 35.5264 33.6516 35.5375C33.6058 35.5596 33.5462 35.5701 33.4866 35.5317C33.4503 35.5082 33.4033 35.5038 33.3557 35.5092C33.3074 35.5148 33.2558 35.5313 33.2092 35.5493C33.1626 35.5673 33.1199 35.5878 33.0891 35.6039C33.074 35.6118 33.0607 35.6176 33.052 35.6225L32.8958 35.3022L32.8899 35.2895L32.8772 35.2944L32.5745 35.4077L32.5256 35.0424L32.5247 35.0327L32.5149 35.0307L31.9797 34.8823C31.9803 34.8759 31.9814 34.8676 31.9817 34.8578C31.9824 34.8356 31.9814 34.8055 31.9758 34.7758C31.9703 34.7464 31.9594 34.7155 31.9387 34.6928C31.9174 34.6694 31.8867 34.6564 31.845 34.6606C31.8028 34.6651 31.7671 34.6959 31.7375 34.7328C31.7077 34.7702 31.6815 34.8174 31.6575 34.8588C31.6328 34.9014 31.6115 34.9372 31.592 34.9555C31.5824 34.9646 31.5749 34.9664 31.5706 34.9662C31.5668 34.9659 31.5605 34.9635 31.552 34.9516C31.5121 34.8955 31.4608 34.7831 31.4104 34.6733C31.3854 34.6188 31.3608 34.5649 31.3381 34.52C31.3157 34.4756 31.2937 34.4387 31.2756 34.4174H31.2766C31.2667 34.4039 31.2503 34.3931 31.2317 34.3842C31.2127 34.3752 31.1896 34.3676 31.1643 34.3608C31.1136 34.3472 31.0523 34.3368 30.9934 34.3295C30.9343 34.3223 30.8765 34.3186 30.8342 34.3159C30.8133 34.3145 30.7956 34.3135 30.7834 34.3129C30.7781 34.3127 30.7739 34.3121 30.7708 34.312C30.7697 34.3107 30.7692 34.3087 30.7678 34.3071C30.7626 34.3009 30.7545 34.2925 30.7454 34.2827C30.7287 34.2647 30.7063 34.2424 30.6829 34.2231V33.8422H30.6877L30.679 33.8325L30.5237 33.6508L30.5042 32.8686H30.5129L30.4983 32.8578L30.2668 32.6791L30.4094 32.3569L30.4856 32.1723L30.4905 32.1586L30.4778 32.1528L30.343 32.0864V31.6723C30.5096 31.7245 30.6822 31.7243 30.8225 31.6274C30.894 31.5775 31.1084 31.4308 31.3323 31.2905C31.4441 31.2204 31.5585 31.1515 31.6584 31.0971C31.7086 31.0698 31.7548 31.0461 31.7952 31.0278L31.8967 30.9897C32.0096 30.9654 32.1299 30.9408 32.2268 30.9389C32.2752 30.938 32.3166 30.943 32.3479 30.9555C32.3786 30.9677 32.3991 30.9873 32.4084 31.0161V31.017C32.4201 31.0483 32.426 31.0941 32.4329 31.1469C32.4396 31.1986 32.4481 31.2561 32.467 31.3061C32.4861 31.3561 32.5161 31.4008 32.5676 31.4252C32.619 31.4496 32.6889 31.4524 32.7834 31.4262C32.9363 31.3874 33.0309 31.3301 33.092 31.269L34.509 31.3412L34.5129 31.351H34.635L34.9153 31.7397V31.7407C34.9154 31.7428 34.9161 31.7457 34.9163 31.7495C34.9167 31.7578 34.9174 31.7701 34.9182 31.7846C34.9199 31.8137 34.9219 31.8534 34.925 31.895C34.9282 31.9365 34.9315 31.9807 34.9358 32.018C34.9398 32.0532 34.9451 32.0841 34.9504 32.102V32.103C34.9543 32.1212 34.9666 32.1622 34.9817 32.2133C34.997 32.2651 35.0156 32.3283 35.0334 32.3911C35.0513 32.4538 35.0678 32.5163 35.0793 32.5668C35.0851 32.5919 35.0896 32.6138 35.092 32.6313C35.0945 32.6491 35.095 32.6603 35.094 32.6655V32.6664C35.0927 32.6725 35.0885 32.6813 35.0813 32.6928C35.0742 32.7042 35.0643 32.7169 35.053 32.7309C35.0303 32.7588 35.0018 32.7906 34.9729 32.8198C34.944 32.8489 34.9151 32.8762 34.8938 32.8959C34.8833 32.9057 34.8745 32.9138 34.8684 32.9194C34.8656 32.9219 34.8632 32.9238 34.8616 32.9252C34.8608 32.926 34.8591 32.9278 34.8586 32.9282C34.8591 32.9287 34.8612 32.9307 34.8684 32.9389L34.8577 32.9272L34.8557 32.9321L34.7239 33.1645L34.717 33.1762L34.7288 33.184L34.9329 33.3315L34.9534 33.8422H34.968L34.9446 33.8432L34.9592 33.8539L35.1028 33.9623L35.0706 34.102L35.0676 34.1157L35.0813 34.1196L35.2122 34.1557L35.1897 34.6664L34.9758 34.6772V34.6694L34.9651 34.685L34.4788 35.3745Z" fill="#90C6DE" stroke="white" stroke-width="0.03"/>
<path d="M34.9447 18.813L35.132 19.416C34.8482 19.2675 34.5907 19.216 34.4386 19.416C34.1724 19.7705 33.9325 20.3947 33.8564 20.7946C33.7833 21.1946 33.5902 21.7733 33.0344 22.2703C32.4756 22.7763 31.8232 23.9034 31.7998 24.4519C31.7764 25.0064 32.066 25.2548 32.3351 25.5063C32.5984 25.7548 32.9641 26.6577 32.4551 26.9335C31.9461 27.2092 31.5833 27.6364 31.5833 28.0121C31.5833 28.3879 31.6798 29.5393 31.1445 29.7423C30.6149 29.9423 30.5623 30.421 30.1761 30.421C29.9333 30.421 29.7958 30.2119 29.7022 29.9029C29.6466 29.7211 29.6086 29.4968 29.5705 29.2635C29.474 28.6363 29.0644 27.8606 28.9386 27.5334C28.8947 27.4183 28.8801 27.2334 28.8567 27.0607L28.9562 27.0334L29.1141 26.2002C29.3423 26.1002 29.5003 25.3972 29.3745 25.0609C29.2458 24.7276 29.4067 24.8276 29.4067 24.8276C29.4067 24.8276 29.6963 24.6276 29.4067 24.3579C29.1171 24.0943 29.2487 22.0884 29.2487 22.0884L29.5998 21.5521L30.2463 21.6218L30.0532 20.7189L30.4101 20.1159L30.375 19.013L30.8929 18.813L30.925 18.413C30.925 18.413 31.4107 17.9797 31.3434 17.7101C31.2966 17.501 31.2615 17.1525 31.2966 16.992C31.3083 16.9465 31.3229 16.9162 31.3434 16.9071C31.4399 16.8738 31.6038 16.3738 31.829 16.4041C32.0572 16.4375 32.3147 16.4041 32.2503 16.0042L32.183 15.6042L33.1192 15.9739C33.1192 15.9739 33.2772 15.3709 33.2157 15.2709C33.1484 15.1709 33.3123 15.1012 33.3123 15.1012L33.4673 15.0285C33.5668 15.1861 33.6985 15.383 33.7774 15.4769C33.9237 15.6497 34.2397 15.9557 34.3128 15.9557C34.386 15.9557 35.0647 16.3557 34.9681 16.4284C34.8716 16.5041 34.9184 17.0071 34.8716 17.1586C34.8219 17.3071 35.0149 17.4071 35.0149 17.4071L34.9418 17.707L35.0881 18.107V18.307L34.9418 18.81L34.9447 18.813Z" fill="#176C93"/>
<path d="M33.4636 40.9095L33.3787 40.6761L33.3816 40.6751L33.3748 40.6693L33.2214 40.5443L33.3914 40.3206L33.4021 40.307L33.3865 40.2982L33.1794 40.183L32.8279 39.8695C32.8276 39.8679 32.8282 39.8657 32.8279 39.8636C32.8266 39.8562 32.8251 39.8452 32.823 39.8324C32.8189 39.8064 32.8132 39.7711 32.8083 39.7347C32.8035 39.6983 32.7989 39.6607 32.7966 39.6292C32.7955 39.6134 32.7946 39.5987 32.7947 39.5872C32.7948 39.5756 32.7965 39.5676 32.7976 39.5638C32.7995 39.5575 32.8049 39.5512 32.8171 39.5462C32.8293 39.5413 32.8455 39.5387 32.8621 39.5374C32.8786 39.5362 32.8958 39.5359 32.908 39.5365C32.9136 39.5367 32.9183 39.5372 32.9216 39.5374C32.9234 39.5376 32.9256 39.5383 32.9265 39.5384H32.9275L32.9675 39.5433L32.9402 39.513L32.6892 39.2425L32.7751 39.1683L32.7771 39.1654L32.8738 39.0326L32.8816 39.0208L32.8718 39.0121L32.7058 38.8714L32.8455 38.6341L32.8533 38.6214L32.8396 38.6136L32.6687 38.515L32.6765 38.1458C32.7288 38.1048 32.7784 38.0659 32.8142 38.0365C32.8325 38.0214 32.8477 38.009 32.8582 38.0003C32.8632 37.9962 32.8671 37.9929 32.8699 37.9906L32.8708 37.9886C32.8722 37.9884 32.8746 37.9889 32.8767 37.9886C32.8828 37.9877 32.8917 37.9862 32.9031 37.9847C32.9263 37.9816 32.9605 37.9773 33.0027 37.973C33.0855 37.9645 33.2003 37.9552 33.3308 37.9535L33.5046 38.1781L33.5164 38.4759L33.5173 38.4847L33.5261 38.4886L33.866 38.6351L33.8181 38.9359L33.8171 38.9447L33.823 38.9496L34.0281 39.1351L34.0271 39.1361L34.0339 39.138L34.1648 39.1771L34.1697 39.1634L34.1628 39.1869L34.1785 39.1751L34.4099 39.0062L34.4695 39.0687L34.447 39.3744L34.446 39.3851L34.4568 39.389L34.5759 39.429L34.4841 39.5121L34.4939 39.5238L34.4812 39.5091L34.4792 39.5208L34.448 39.7093L34.2673 39.7298L34.2244 39.7347L34.2605 39.7572L34.5476 39.9388L34.6648 40.014L34.4822 40.2376L34.4802 40.2435L34.3347 40.6898L34.3181 40.7259L33.9773 40.6996L33.9626 40.6986L33.9617 40.7122L33.948 40.8343L33.6902 40.8206L33.6892 40.8353L33.6902 40.8187L33.6833 40.8216L33.4646 40.9261V40.9144H33.4656L33.4636 40.9095Z" fill="#90C6DE" stroke="white" stroke-width="0.03"/>
<path d="M33.9121 30.5234L34.2109 30.7333L34.208 30.7372L34.2207 30.7363L34.5225 30.7089L34.5908 30.9335L34.4883 31.0634L34.5 31.0732L34.4834 31.0605L34.4854 31.0742L34.5068 31.3173L33.1172 31.247C33.1799 31.1686 33.1932 31.0791 33.2012 31.0019C33.2078 30.9333 33.26 30.8811 33.3213 30.8456C33.3515 30.8282 33.3833 30.8152 33.4111 30.8066C33.4391 30.798 33.4623 30.794 33.4756 30.7939C33.5128 30.7939 33.5508 30.7783 33.5781 30.7636C33.5919 30.7562 33.6041 30.7487 33.6123 30.7431C33.6164 30.7403 33.6198 30.7379 33.6221 30.7363L33.623 30.7353C33.6607 30.7305 33.6911 30.7282 33.7129 30.7236C33.7358 30.7187 33.755 30.7106 33.7656 30.6913C33.7752 30.6737 33.7753 30.6497 33.7725 30.6191C33.7698 30.5909 33.7633 30.5535 33.7559 30.5048L33.9121 30.5234Z" fill="#90C6DE" stroke="white" stroke-width="0.03"/>
<path d="M33.9897 40.727L34.3286 40.7534L34.3999 40.7612V40.8754L34.4126 40.8774L34.5767 40.9077L34.5317 41.4125L33.6919 41.7534L33.4614 41.475L33.4907 41.1821H33.4917L33.4907 41.1791L33.4653 40.9565L33.6929 40.8471L33.9604 40.8627L33.9751 40.8637L33.9771 40.8491L33.9897 40.727Z" fill="#90C6DE" stroke="white" stroke-width="0.03"/>
<path d="M33.697 36.2304V36.2324H33.7039L34.1912 36.2412L34.491 36.6299C34.4899 36.6308 34.4892 36.6327 34.488 36.6338C34.4793 36.6414 34.467 36.6526 34.4519 36.666C34.4214 36.6929 34.3794 36.7299 34.3357 36.7695C34.2489 36.8481 34.1515 36.9384 34.114 36.9834C34.1033 36.9963 34.0923 37.0182 34.0818 37.0439C34.0711 37.0701 34.0604 37.1026 34.0486 37.1386C34.025 37.2107 33.9981 37.3004 33.9705 37.3877C33.9427 37.4753 33.914 37.5617 33.8835 37.6299C33.8683 37.664 33.852 37.6934 33.8367 37.7158C33.8214 37.7381 33.8074 37.7525 33.7947 37.7588C33.7596 37.7754 33.7326 37.7939 33.7087 37.8125C33.6847 37.8312 33.6641 37.8493 33.6384 37.8652C33.5881 37.8962 33.5179 37.9209 33.3738 37.9209H33.3269C33.1932 37.9224 33.0736 37.9317 32.988 37.9404C32.9455 37.9448 32.9111 37.9489 32.8875 37.9521L32.8533 37.957H32.8503V37.955L32.8425 37.9609V37.9619C32.8418 37.9625 32.84 37.9627 32.8386 37.9638C32.8359 37.9661 32.8321 37.9703 32.8269 37.9746C32.8165 37.9832 32.8012 37.995 32.783 38.0097C32.7462 38.0395 32.6961 38.0795 32.6423 38.1201C32.5882 38.1595 32.5305 38.2007 32.4802 38.2314C32.4552 38.2467 32.4325 38.2597 32.4128 38.2685C32.3926 38.2775 32.3768 38.2812 32.3669 38.2812C32.3579 38.2811 32.3404 38.2771 32.3152 38.2675C32.2903 38.2582 32.2597 38.2441 32.2253 38.2275C32.1563 38.1942 32.0727 38.1492 31.9919 38.1025C31.9112 38.0559 31.8326 38.0074 31.7742 37.9677C31.7451 37.948 31.7208 37.9309 31.7039 37.917C31.6956 37.9102 31.6897 37.904 31.6853 37.8994C31.6831 37.897 31.6813 37.8948 31.6804 37.8935C31.6797 37.8924 31.6793 37.8922 31.6794 37.8925C31.6784 37.8883 31.6765 37.8841 31.6746 37.8808C31.6721 37.8769 31.6685 37.872 31.6648 37.8672C31.6573 37.8574 31.647 37.8449 31.6345 37.831C31.6148 37.8091 31.5884 37.7834 31.5593 37.7539H31.5759L31.5496 37.7285C31.4821 37.6617 31.4023 37.5843 31.3386 37.5244C31.307 37.4946 31.2792 37.4694 31.2595 37.4511C31.2537 37.4457 31.2482 37.4405 31.2439 37.4365L31.4402 37.3466L31.449 37.3427V37.333L31.4597 36.9023L31.7273 36.8447L31.7371 36.8418L31.738 36.832L31.7732 36.5508L32.2498 36.7793L32.2478 36.7822L32.2585 36.7812L32.572 36.7295L32.5837 36.7275V36.7158L32.5945 36.4843L32.9294 36.5449L32.9451 36.5478L32.947 36.5312L32.9568 36.4189L33.2078 36.457L33.2058 36.4668L33.5251 36.1474L33.697 36.2304Z" fill="#90C6DE" stroke="white" stroke-width="0.03"/>
<path d="M33.0383 35.6513L33.0452 35.666L33.0598 35.6581L33.0608 35.6572L33.0627 35.6562C33.0649 35.6549 33.0684 35.6527 33.0725 35.6503C33.081 35.6455 33.0935 35.6387 33.1086 35.6308C33.1391 35.615 33.1812 35.5946 33.2268 35.5771C33.2723 35.5596 33.3209 35.5452 33.3655 35.54C33.4105 35.5347 33.4497 35.5393 33.4768 35.5576C33.5486 35.6038 33.6198 35.5892 33.6711 35.5644C33.6967 35.552 33.718 35.5372 33.7327 35.5253C33.7401 35.5193 33.7462 35.5135 33.7502 35.5097L33.7512 35.5078L33.9797 35.4931L34.1311 35.6093L34.1096 35.6171L34.1497 35.6318H34.1506L34.1526 35.6328C34.1542 35.6333 34.1566 35.6337 34.1594 35.6347C34.1656 35.6369 34.1746 35.6406 34.1858 35.6445C34.2081 35.6522 34.2399 35.6628 34.2756 35.6747C34.3383 35.6956 34.4153 35.7191 34.4827 35.7382C34.4656 35.7519 34.4484 35.7663 34.4319 35.7773C34.42 35.7852 34.4089 35.7924 34.3997 35.7968C34.3899 35.8015 34.3832 35.8027 34.3801 35.8027C34.3726 35.8027 34.3662 35.8059 34.3616 35.8095C34.3568 35.8133 34.352 35.8187 34.3479 35.8242C34.3397 35.8351 34.331 35.8499 34.3225 35.8671C34.3052 35.9022 34.2862 35.9499 34.2688 35.998C34.2378 36.0834 34.2095 36.1736 34.1985 36.2109L33.718 36.2021L33.5413 36.1161L33.5315 36.1113L33.5237 36.1191L33.217 36.4247L32.9573 36.3876L32.9417 36.3857L32.9407 36.4013L32.9299 36.5117L32.595 36.4511L32.5784 36.4482L32.5774 36.4658L32.5657 36.7021L32.2688 36.7499L31.7834 36.5175L31.6584 36.374L31.6477 36.0429L31.8782 35.8779H32.1956V35.6035L32.3489 35.5429L32.5061 35.4921L32.5071 35.4941L32.5129 35.4882L32.5491 35.4501L32.5686 35.4443L32.8792 35.3271L33.0383 35.6513Z" fill="#90C6DE" stroke="white" stroke-width="0.03"/>
<path d="M33.4292 41.4779H33.4224L33.4321 41.4906L33.6577 41.7611L33.644 41.766L33.6489 41.7807L33.6421 41.7621L33.6362 41.7729L33.4331 42.1176L32.9331 42.4643C32.9238 42.3697 32.9199 42.27 32.9146 42.1615C32.9058 41.9411 32.9146 41.7082 32.9263 41.5023C32.9407 41.2173 32.904 41.0106 32.8315 40.8568C32.8537 40.815 32.8747 40.7736 32.8911 40.7377L32.9263 40.6479V40.6469C32.9286 40.6334 32.9424 40.6199 32.9692 40.6068C32.995 40.5943 33.0287 40.5846 33.063 40.5775C33.0971 40.5705 33.1313 40.5656 33.1567 40.5629C33.1694 40.5615 33.1806 40.5605 33.188 40.56C33.1903 40.5598 33.1922 40.5601 33.1938 40.56L33.3481 40.685L33.4292 40.9135V40.9623H33.437L33.4614 41.182L33.4292 41.4779Z" fill="#90C6DE" stroke="white" stroke-width="0.03"/>
<path d="M32.8047 39.8878H32.8066L33.1611 40.2032V40.2042L33.1641 40.2062L33.3574 40.3136L33.1934 40.5323C33.1919 40.5325 33.1903 40.5332 33.1885 40.5333C33.1809 40.5339 33.1693 40.5349 33.1562 40.5363C33.1304 40.539 33.0958 40.5437 33.0605 40.5509C33.0253 40.5582 32.9881 40.5681 32.959 40.5822C32.9311 40.5956 32.9049 40.6154 32.8994 40.6437C32.8954 40.6603 32.8834 40.6901 32.8662 40.7277C32.8524 40.7578 32.8348 40.792 32.8164 40.8273C32.7197 40.6474 32.5766 40.5486 32.4277 40.4786C32.4598 40.3359 32.5088 40.1648 32.5566 40.0509C32.6031 39.946 32.6674 39.9067 32.7188 39.8927C32.7448 39.8856 32.7684 39.8848 32.7852 39.8859C32.7934 39.8864 32.8002 39.887 32.8047 39.8878Z" fill="#90C6DE" stroke="white" stroke-width="0.03"/>
<path d="M32.0596 38.6958L32.2852 38.7447V38.7437L32.6865 38.8951L32.8496 39.0347L32.7617 39.1558L32.668 39.2398L32.6719 39.2437V39.2447L32.6602 39.2554L32.8965 39.5103C32.8864 39.5101 32.875 39.5094 32.8633 39.5103C32.8453 39.5117 32.8251 39.5153 32.8086 39.522C32.7927 39.5285 32.7771 39.5394 32.7715 39.5581C32.769 39.5664 32.7677 39.5782 32.7676 39.5904C32.7675 39.6029 32.7684 39.6181 32.7695 39.6343C32.7719 39.6667 32.7763 39.7051 32.7812 39.7417C32.7862 39.7785 32.7917 39.8143 32.7959 39.8404C32.7972 39.8488 32.7978 39.8566 32.7988 39.8628C32.7961 39.8625 32.7932 39.862 32.79 39.8618C32.7708 39.8606 32.7438 39.8616 32.7139 39.8697C32.6535 39.8861 32.5822 39.9317 32.5322 40.0445C32.4839 40.1563 32.4356 40.3296 32.4033 40.4722C32.3059 40.4302 32.2058 40.3977 32.1182 40.3638C32.0263 40.3283 31.947 40.2904 31.8896 40.2368C31.8891 40.1556 31.8815 40.0514 31.8467 39.9556L31.8008 39.8609C31.7344 39.76 31.5512 39.533 31.3857 39.3326C31.303 39.2323 31.224 39.1378 31.166 39.0689C31.1372 39.0345 31.1132 39.0064 31.0967 38.9868C31.0886 38.9773 31.0825 38.9696 31.0781 38.9644C31.0768 38.9629 31.0751 38.9616 31.0742 38.9605V38.7202C31.0901 38.7375 31.1122 38.7604 31.1387 38.7827C31.1655 38.8053 31.1972 38.8283 31.2305 38.8443C31.2636 38.8601 31.3001 38.8699 31.3359 38.8658C31.4051 38.8576 31.4694 38.8121 31.5146 38.771C31.5373 38.7504 31.5564 38.7303 31.5693 38.7154C31.5758 38.7079 31.5805 38.7012 31.584 38.6968L31.585 38.6958H32.0596Z" fill="#90C6DE" stroke="white" stroke-width="0.03"/>
<path d="M31.6187 37.8527C31.631 37.8664 31.6408 37.8785 31.6479 37.8878C31.6514 37.8923 31.6548 37.8955 31.6567 37.8986L31.6646 37.9142C31.6665 37.917 31.6687 37.9201 31.6714 37.923C31.677 37.929 31.6849 37.9361 31.6938 37.9435C31.7118 37.9583 31.7367 37.9763 31.7661 37.9962C31.8253 38.0364 31.9046 38.0851 31.9858 38.132C32.067 38.1788 32.1513 38.2243 32.2212 38.2579C32.2559 38.2746 32.287 38.2891 32.313 38.299C32.3384 38.3085 32.3613 38.3146 32.3765 38.3146C32.3922 38.3145 32.4116 38.3081 32.4321 38.299C32.4533 38.2895 32.4777 38.2763 32.5034 38.2609C32.5476 38.2344 32.5968 38.1999 32.644 38.1671L32.6362 38.5236V38.5323L32.6431 38.5372L32.811 38.6329L32.6792 38.8566L32.2876 38.7101L32.2856 38.7091L32.0601 38.6613V38.6603H31.5718V38.6515L31.5601 38.6661L31.5581 38.6681C31.5573 38.6691 31.5557 38.6711 31.5542 38.673C31.5509 38.677 31.5465 38.6829 31.5405 38.6896C31.5279 38.7038 31.5088 38.7227 31.4868 38.7423C31.4424 38.7819 31.3849 38.8217 31.3267 38.8302L31.2827 38.8273C31.268 38.824 31.2528 38.8188 31.2378 38.8116C31.2077 38.7972 31.1785 38.7766 31.1528 38.755C31.1272 38.7334 31.1048 38.7112 31.0894 38.6945C31.0817 38.6862 31.0759 38.6788 31.0718 38.674C31.0697 38.6715 31.0679 38.6694 31.0669 38.6681L31.0659 38.6671V38.6661L31.0386 38.632V38.9601H31.0337L31.0425 38.9698V38.9708L31.0444 38.9718C31.0456 38.9731 31.0472 38.9751 31.0493 38.9777C31.0537 38.9829 31.0596 38.9913 31.0679 39.0011C31.0844 39.0207 31.1083 39.0487 31.1372 39.0831C31.1952 39.1521 31.2741 39.2465 31.3569 39.3468C31.5225 39.5474 31.7035 39.7718 31.769 39.8712C31.8321 39.9705 31.8498 40.1014 31.853 40.2032C31.6778 39.9965 31.5141 39.9086 31.3677 39.8351C31.221 39.7614 31.094 39.7028 30.9868 39.5548V39.5538C30.8919 39.4286 30.808 39.2339 30.6821 38.9034C30.6551 38.8267 30.6069 38.7491 30.5366 38.6974L30.4595 38.6554C30.4488 38.651 30.4382 38.6525 30.4292 38.6583C30.4212 38.6635 30.4152 38.6717 30.4106 38.6798C30.4015 38.6961 30.393 38.7201 30.3843 38.7423C30.3752 38.7655 30.3651 38.7883 30.3521 38.8058C30.3393 38.8229 30.3247 38.8336 30.3062 38.8361C30.262 38.8416 30.1928 38.8276 30.1353 38.7872C30.0784 38.7472 30.0328 38.6823 30.0327 38.588C30.0327 38.5474 30.0358 38.5096 30.0425 38.4747L30.4517 38.4659H30.4624L30.4653 38.4552L30.4946 38.3458L30.6978 38.464L30.7056 38.4513L30.6978 38.465L30.7036 38.4659L30.8003 38.4786L30.812 38.4796L30.8159 38.4689L30.9204 38.2003L31.02 38.1906L31.0347 38.1886L31.0337 38.1749L31.022 37.9493L31.313 37.8536L31.314 37.8527L31.5298 37.7599C31.5648 37.7949 31.5956 37.827 31.6187 37.8527Z" fill="#90C6DE" stroke="white" stroke-width="0.03"/>
<path d="M30.5593 36.15L30.4021 36.1793L30.2507 36.0455L30.241 36.0573L30.2537 36.0416H30.2429L29.3484 35.2467C29.3519 35.2427 29.3564 35.2379 29.3611 35.2321C29.3741 35.2159 29.3913 35.1936 29.406 35.1676C29.4347 35.117 29.4594 35.0466 29.4226 34.9889C29.3915 34.9383 29.352 34.8826 29.3201 34.8405C29.3041 34.8194 29.2891 34.8014 29.2791 34.7887C29.2774 34.7865 29.2756 34.7847 29.2742 34.7828L30.3513 34.1901C30.3524 34.1902 30.3537 34.1909 30.3552 34.191C30.3602 34.1915 30.3678 34.1923 30.3767 34.193C30.3945 34.1944 30.4188 34.196 30.4451 34.1979C30.4976 34.2016 30.5587 34.2057 30.5916 34.2057C30.6091 34.2057 30.6323 34.2172 30.658 34.2408V34.2418C30.6819 34.2608 30.7057 34.2843 30.7234 34.3033C30.7321 34.3128 30.7398 34.3209 30.7449 34.3268C30.7473 34.3296 30.7494 34.332 30.7507 34.3336C30.7514 34.3344 30.7524 34.3361 30.7527 34.3365L30.7468 34.3414H30.7644L30.7654 34.3424H30.782C30.794 34.343 30.8118 34.344 30.8328 34.3453C30.8746 34.3481 30.9309 34.3529 30.989 34.36C31.0474 34.3671 31.1082 34.3772 31.157 34.3903C31.181 34.3967 31.2019 34.4039 31.2185 34.4117L31.2527 34.4362C31.2682 34.4543 31.2887 34.489 31.3113 34.5338C31.3337 34.5782 31.3575 34.6316 31.3826 34.6862C31.4323 34.7945 31.4851 34.9103 31.5271 34.9694C31.5386 34.9854 31.5532 34.9959 31.5701 34.9967C31.5863 34.9973 31.6004 34.9881 31.6121 34.9772C31.6354 34.9552 31.6595 34.9156 31.6833 34.8746C31.7079 34.8324 31.7332 34.7869 31.7615 34.7516C31.7901 34.7159 31.8189 34.6932 31.8484 34.6901C31.8803 34.6868 31.9013 34.6975 31.9158 34.7135C31.9308 34.7303 31.9398 34.755 31.9451 34.7819C31.9502 34.8086 31.9514 34.8361 31.9509 34.8571C31.9507 34.8675 31.9504 34.8764 31.95 34.8824C31.9497 34.8854 31.9491 34.8877 31.949 34.8893V34.8912L31.947 34.9049L31.9597 34.9078L32.4968 35.0563L32.5417 35.4088L32.4871 35.4655L32.3337 35.5153L32.3328 35.5162L32.1687 35.5797L32.1589 35.5836V35.8483H31.8669V35.8444L31.8582 35.8512L31.6199 36.0231L31.6023 36.0328L31.3054 36.0475L31.1169 35.8824L31.114 35.8805L30.9207 35.7653H30.9216L30.9187 35.7643L30.6902 35.6793L30.6765 35.6744L30.6716 35.6881L30.5603 35.9879L30.574 35.9938L30.5593 35.9879V36.15Z" fill="#90C6DE" stroke="white" stroke-width="0.03"/>
<path d="M31.6359 36.3813L31.7646 36.5298L31.7266 36.8298L31.4486 36.8904L31.4369 37.3327L31.2204 37.4327L31.159 37.5176L30.6851 37.557C30.6851 37.557 30.65 37.7176 30.492 37.7176C30.334 37.7176 29.9771 37.6539 29.9771 37.6539L29.3656 37.5388V37.2691L28.8976 37.2843L28.7688 37.4358L28.4704 37.4479L28.3973 37.3843H28.1545L28.0579 37.2509H27.9614L27.9351 36.9328H28.1252L28.2364 37.0964L28.4002 37.1116V36.8934L28.6606 36.9298L28.7718 37.0631L29.1082 36.8782L29.3013 36.7449L29.7401 36.9934L29.6904 36.5752L29.8542 36.2571V36.1238L30.2462 36.048L30.4042 36.1874L30.5797 36.1541V35.9844L30.6909 35.6844L30.9191 35.7693L31.1122 35.8844L31.3053 36.0541L31.6125 36.0389L31.6329 36.0268L31.6446 36.3722L31.6359 36.3813Z" fill="#90C6DE"/>
<path d="M31.2449 37.4758C31.2645 37.494 31.2922 37.5201 31.324 37.55C31.3812 37.6039 31.4519 37.6712 31.5144 37.7326L31.3083 37.8215L31.0085 37.9211L30.9978 37.925V37.9367L31.0085 38.1584L30.9148 38.1691L30.906 38.1701L30.9021 38.1789L30.7976 38.4426L30.7166 38.4328L30.4998 38.3078L30.4832 38.298L30.4773 38.3166L30.4441 38.4328L30.0505 38.4406C30.0544 38.4023 30.0604 38.3651 30.0574 38.3361C30.0556 38.3193 30.0512 38.3026 30.0417 38.2902C30.0357 38.2823 30.0275 38.2772 30.0183 38.2736L30.0349 38.2385L30.0388 38.2404L30.0359 38.2297L29.9626 37.9182L29.9929 37.674C30.0031 37.6758 30.0188 37.6788 30.0369 37.6818C30.073 37.6878 30.123 37.6954 30.1775 37.7033C30.2866 37.7192 30.4161 37.7355 30.4949 37.7355C30.5785 37.7355 30.631 37.6915 30.6619 37.6486C30.677 37.6275 30.6878 37.6068 30.6941 37.591C30.6966 37.5848 30.6976 37.5787 30.699 37.5744L31.1628 37.5353L31.1638 37.5432L31.1746 37.5295L31.2253 37.4582C31.2304 37.4628 31.2372 37.4686 31.2449 37.4758Z" fill="#90C6DE" stroke="white" stroke-width="0.03"/>
<path d="M26.335 34.9269L26.4081 34.7299L26.2969 34.5087V34.2906L26.2004 34.0906L26.3789 33.7906L26.1711 33.5725L26.686 33.3391L26.6539 32.8362L26.7972 32.8028L26.8733 32.0635C27.1132 32.0059 27.5227 31.912 27.6017 31.7575C27.669 31.6302 27.6485 31.1878 27.6222 30.8757L28.1985 30.9212C28.2541 31.0939 28.3565 31.3302 28.494 31.3302C28.6871 31.3302 28.8656 31.1787 28.8509 31.2787C28.8305 31.3787 28.6871 31.7817 28.9124 31.6787C29.1376 31.5787 29.8485 31.1121 29.9626 31.1454C30.0738 31.1787 29.8515 31.3636 30.0914 31.5302C30.1674 31.5817 30.2552 31.6272 30.3342 31.6544V32.0968L30.4775 32.1665L30.4015 32.3514L30.2552 32.6847L30.4951 32.8695L30.5156 33.6573L30.6735 33.8421V34.23C30.6472 34.2057 30.618 34.1906 30.5975 34.1906C30.5302 34.1906 30.3547 34.1754 30.3547 34.1754L29.2576 34.7784C29.2576 34.7784 29.3541 34.8935 29.4156 34.9966C29.4828 35.0966 29.3336 35.2481 29.3336 35.2481L30.2435 36.0571L29.8515 36.1328V36.2661L29.6876 36.5843L29.7374 37.0024L29.2985 36.754L29.1055 36.8873L28.769 37.0721L28.6578 36.9388L28.3975 36.9024V37.1206L28.2336 37.1055L28.1225 36.9418H27.9323V36.8721L27.6895 36.8388L27.2507 36.8873L26.9903 36.957L27.04 36.354L27.3297 35.7844L26.765 35.751L26.6685 35.5995L26.4169 35.4147L26.4754 35.1662L26.332 34.9329H26.335V34.9269Z" fill="#90C6DE"/>
<path d="M34.6902 -2.80274C35.3221 -2.1331 35.6439 -1.16047 35.5415 -0.230253C35.5269 -0.102993 35.5035 0.0333591 35.4245 0.13941C35.3543 0.23031 35.2489 0.29091 35.1407 0.333331C34.421 0.603003 33.5287 0.00305891 33.4702 -0.784746C33.4468 -1.14532 33.5404 -1.57861 33.2391 -1.79677C33.0489 -1.93312 32.7856 -1.89373 32.6072 -1.73617C32.3 -1.46044 32.2707 -1.0423 32.2473 -0.648395L32.0952 1.87561C32.0806 2.17558 31.7705 2.36648 31.513 2.22406C31.3609 2.14528 31.2175 2.0362 31.0947 1.93015C30.7495 1.63018 30.4598 1.26355 30.2199 0.866615L29.0468 -1.08472C28.8566 -1.40287 28.6635 -1.72708 28.5963 -2.09068C28.4968 -2.65124 28.6957 -3.25724 28.4997 -3.7875C28.3417 -4.20564 27.9497 -4.52682 27.9117 -4.97223C27.8854 -5.29645 28.0521 -5.59945 28.2335 -5.86306C28.5202 -6.26302 29.0088 -6.65995 29.4388 -6.44179C29.6524 -6.33271 29.7753 -6.10546 29.9537 -5.9479C30.4891 -5.49037 30.6354 -7.31141 31.4721 -6.66298C32.5487 -6.26605 33.441 -5.35099 33.83 -4.23594C33.9354 -3.939 34.0085 -3.61781 34.1811 -3.35723C34.3215 -3.14513 34.5146 -2.98454 34.6843 -2.80274H34.6902Z" fill="#90C6DE"/>
<path d="M38.2388 12.6956C38.0721 12.6441 37.054 12.1714 36.8141 12.1714C36.5742 12.1714 35.6292 12.3199 35.2138 12.5714C34.8042 12.8199 34.1986 13.1198 33.2537 13.3986C32.3088 13.6743 31.6066 15.053 31.4135 15.5287C31.2556 15.9166 31.0683 16.3044 30.7933 16.8801C30.7319 17.0134 30.6646 17.1528 30.5915 17.3104C30.4452 17.6194 30.1409 18.2254 29.8016 18.892C29.2311 20.0041 28.5465 21.2918 28.292 21.7009C27.8824 22.3523 26.7649 22.9523 26.7649 22.9523C26.013 23.6552 25.7234 23.9067 25.8433 24.1855C25.9662 24.4582 25.8931 25.7914 25.9165 26.9428C25.9428 28.0942 27.151 27.9972 27.4202 27.8215C27.6864 27.6458 28.0024 27.267 28.4617 26.7943C28.7571 26.4853 28.8215 26.7549 28.8595 27.0701L28.959 27.0428L29.117 26.2095C29.3452 26.1095 29.5032 25.4066 29.3774 25.0702C29.2486 24.7369 29.4095 24.8369 29.4095 24.8369C29.4095 24.8369 29.6992 24.6369 29.4095 24.3673C29.1199 24.1037 29.2516 22.0978 29.2516 22.0978L29.6026 21.5615L30.2492 21.6312L30.0561 20.7282L30.413 20.1252L30.3779 19.0223L30.8957 18.8223L30.9279 18.4224C30.9279 18.4224 31.4135 17.9891 31.3463 17.7194C31.2994 17.5103 31.2643 17.1619 31.2994 17.0013C31.3111 16.9558 31.3258 16.9255 31.3463 16.9165C31.4428 16.8831 31.6066 16.3832 31.8319 16.4135C32.0601 16.4468 32.3175 16.4135 32.2532 16.0135L32.1859 15.6135L33.122 15.9832C33.122 15.9832 33.28 15.3802 33.2186 15.2802C33.1513 15.1803 33.3151 15.1106 33.3151 15.1106L33.4702 15.0378L33.6691 14.9409L33.9939 14.7076C33.9939 14.7076 34.2191 15.4772 34.3449 15.5105C34.4766 15.5439 35.0236 15.4105 35.0236 15.4105L35.5415 15.8105L35.7346 15.3409C35.7346 15.3409 36.1207 15.3075 36.0564 14.8379C35.9891 14.3712 36.4133 13.7349 36.4133 13.7349L36.6385 13.7713L37.1534 13.5016L37.2851 13.9349L37.6362 14.0713C37.6362 14.0713 37.7034 14.5046 37.5806 14.8288C37.5308 14.9682 37.5045 15.1106 37.487 15.2227L37.7005 15.1075L37.8205 14.7318L38.1832 14.5591V14.2288L38.3763 14.3561H38.5928L38.5811 14.1107C38.3529 13.9743 38.1774 13.8531 38.1072 13.8016C37.9141 13.6501 38.2271 13.4259 38.5928 13.2774C38.9556 13.1259 38.3997 12.7532 38.23 12.6987L38.2388 12.6956Z" fill="#176C93"/>
<path d="M29.6407 29.9275C29.6846 30.1093 29.5354 30.0729 29.4886 30.1487C29.4418 30.2335 29.4272 30.4002 29.4418 30.6335C29.4564 30.8668 29.278 31.0668 29.1522 31.1516C29.0205 31.2364 28.9386 31.1183 28.8772 31.0031C28.8099 30.8819 28.9386 30.8668 29.041 30.9183C29.1346 30.9668 29.199 30.7819 29.199 30.6971C29.199 30.6123 29.0702 30.4971 28.8918 30.4789C28.8596 30.4759 28.8362 30.4638 28.8245 30.4456C28.766 30.3759 28.8684 30.2062 28.8245 30.0911C28.7777 29.9578 28.9357 29.6911 29.0849 29.6427C29.0849 29.6427 29.1814 29.5427 29.3248 29.5427C29.4681 29.5427 29.5178 29.6124 29.6202 29.8608C29.629 29.8851 29.6349 29.9093 29.6407 29.9244V29.9275Z" fill="#176C93"/>
<path d="M28.6957 30.494C28.7044 30.5273 28.7074 30.5546 28.6986 30.5818C28.6664 30.7182 28.3914 30.8666 28.3271 30.697C28.2656 30.5333 28.2159 30.4 28.1486 30.4C28.0872 30.4 28.1632 30.6818 28.1632 30.7636C28.1632 30.7909 28.1749 30.8515 28.1954 30.9242L27.6191 30.8788C27.6044 30.7273 27.584 30.603 27.5723 30.5576C27.5372 30.4212 27.3324 30.2819 27.3207 30.1455C27.309 30.0091 27.2475 29.5425 27.3207 29.2789C27.3909 29.0183 27.4903 28.9183 27.6688 28.8062C27.8502 28.6911 28.5172 28.0639 28.5289 28.3517C28.5406 28.6396 28.3358 29.1062 28.409 29.1789C28.4821 29.2547 28.6986 29.491 28.7337 29.491C28.7337 29.491 28.6664 29.7607 28.6021 29.891C28.5348 30.0273 28.2451 30.1909 28.2451 30.2758C28.2451 30.3606 28.409 30.2606 28.488 30.2606C28.5494 30.2606 28.6664 30.3727 28.6927 30.4879L28.6957 30.494Z" fill="#176C93"/>
<path d="M27.9292 36.9359L27.9555 37.254H28.0521L28.1515 37.3843H28.3943L28.4675 37.451L28.409 37.454L28.3797 37.6237H28.2481L28.1837 37.9024L27.8297 37.7388L27.7156 38.157L27.4406 37.7176L27.1656 38.0873L26.718 38.1206L26.6361 37.7025L26.1973 37.9206L26.3465 37.4025L26.718 37.1843L26.6654 36.8995L26.9872 36.951L27.2475 36.8844L27.6864 36.8359L27.9263 36.8692L27.9292 36.9359Z" fill="#90C6DE"/>
<path d="M28.4675 37.4507L28.7659 37.4385L28.8946 37.287L29.3627 37.2719V37.5416L29.9742 37.6567L29.942 37.9203L30.0151 38.2324L29.9917 38.2839C29.9566 38.2809 29.9039 38.296 29.8133 38.3475C29.4944 38.5202 29.3627 38.796 29.3861 38.9626C29.4095 39.1232 29.4593 39.4656 29.6524 39.6898C29.8454 39.9141 30.5359 40.8806 30.6938 40.9443C30.8489 41.0049 31.1502 41.0321 31.1502 41.0321C31.1502 41.0321 31.1034 41.1806 31.2965 41.317C31.4896 41.4563 32.4462 41.9957 32.4579 42.1078C32.4609 42.129 32.4609 42.1532 32.4609 42.1805C32.4609 42.3199 32.4287 42.535 32.2853 42.4502C32.1157 42.3502 31.8348 41.9593 31.7792 42.0199C31.7178 42.0836 31.513 42.2714 31.6446 42.4987C31.7792 42.7229 31.7061 42.9774 31.5744 43.2531C31.4399 43.5258 31.2117 43.7773 31.1239 43.7016C31.0771 43.6561 31.042 43.6137 31.042 43.5501C31.042 43.5016 31.0654 43.441 31.1122 43.3653C31.2204 43.1895 31.3053 42.9229 31.2204 42.6744C31.1356 42.4229 30.2755 41.6957 29.9859 41.5079C29.7313 41.3442 29.0438 40.814 28.8186 40.5776C28.7864 40.5413 28.763 40.514 28.7513 40.4928C28.6664 40.3292 28.5319 39.6777 28.1311 39.5141C27.739 39.3565 27.1861 39.4868 27.0194 39.6717L27.0281 39.3959L26.6859 39.3808V38.9475L26.5571 38.7778L26.7356 38.5263L26.5893 38.2294L26.7063 38.1263L27.1569 38.093L27.4319 37.7234L27.7069 38.1597L27.818 37.7415L28.175 37.9052L28.2364 37.6234H28.368L28.4002 37.4537H28.4587L28.4675 37.4507Z" fill="#90C6DE"/>
<path d="M30.9397 43.4868C31.0157 43.4838 31.0333 43.511 31.0245 43.5444C31.0157 43.5777 30.9894 43.6141 30.9894 43.6141C30.9894 43.6141 30.8928 43.7777 30.8665 43.9383C30.8431 44.1019 30.9045 44.214 30.8782 44.3382C30.8548 44.4655 30.5915 44.414 30.5067 44.3382C30.4218 44.2655 30.0123 44.0534 29.7782 43.9777C29.6934 43.9504 29.6261 43.9292 29.5793 43.9019C29.5032 43.8565 29.4681 43.8019 29.4506 43.6777C29.4506 43.6777 29.4008 43.5535 29.7402 43.5141C29.8923 43.4989 30.1498 43.6262 30.3458 43.6141C30.5389 43.6019 30.7846 43.502 30.9397 43.4898V43.4868Z" fill="#90C6DE"/>
<path d="M28.0578 40.5867C28.0783 40.614 28.09 40.6473 28.09 40.6776C28.09 40.8109 27.9935 41.2806 27.8618 41.3109C27.8472 41.3139 27.8296 41.32 27.815 41.32C27.7097 41.32 27.6278 41.2109 27.5722 40.9776C27.5107 40.7079 27.6687 40.5079 27.8969 40.4443C27.8969 40.4443 28.0052 40.5018 28.0607 40.5837L28.0578 40.5867Z" fill="#90C6DE"/>
<path d="M27.859 41.514C27.859 41.514 28.3447 41.3504 28.0229 42.7533C27.979 42.9351 27.8941 42.9987 27.8034 42.9987C27.6864 42.9987 27.5635 42.8987 27.508 42.7866C27.4114 42.5866 27.4114 42.017 27.4407 41.817C27.467 41.6412 27.6923 41.5443 27.8151 41.52C27.8298 41.517 27.8473 41.517 27.859 41.517V41.514Z" fill="#90C6DE"/>
<path d="M26.4138 35.4119L26.6654 35.5967L26.7619 35.7482L27.3265 35.7815L27.0369 36.3512L26.9872 36.9542L26.6654 36.9026L26.7151 37.1875L26.3436 37.4056L26.1973 37.9238L26.6361 37.7056L26.718 38.1237L26.601 38.2268L26.7473 38.5237L26.5688 38.7752L26.6975 38.9449V39.3782L27.0398 39.3933L27.0311 39.6691C27.0311 39.6691 27.0223 39.6721 27.0194 39.6781C26.8614 39.866 26.6683 40.2448 26.3026 40.1811C25.9428 40.1175 25.1412 39.6327 24.9861 40.0811C24.913 40.2872 24.9159 40.469 24.9188 40.6235C24.6321 40.6356 24.2342 40.6508 24.1699 40.6356C24.0733 40.6084 23.8686 40.4356 23.8686 40.4356L23.4063 40.4599L22.6691 40.2478C22.6691 40.2478 22.4321 40.0266 22.2888 39.8599C22.5404 39.6509 22.9002 39.0812 22.7773 38.3783C22.6193 37.4996 22.1571 37.039 21.9055 36.9208C21.651 36.8087 21.0805 36.8723 21.022 36.6966C20.9606 36.5209 20.6914 36.1179 21.0688 36.0361C21.4433 35.9482 22.0372 36.0724 22.2302 36.0845C22.4233 36.0967 22.5813 35.9603 22.5433 35.8603C22.5082 35.7603 22.3034 35.021 22.5579 35.2452C22.8095 35.4694 23.0143 35.6209 23.1752 35.5331C23.3332 35.4452 23.6696 35.0665 23.8656 34.9301C24.0587 34.7907 24.0002 34.3514 24.1787 34.2514C24.2547 34.2059 24.3893 34.1605 24.5239 34.1029L24.6584 34.312L24.9013 34.3635L24.9832 34.6968L25.3196 34.7119L25.3547 35.0331L25.4981 35.0483L25.6268 34.8331L25.7584 35.2664L26.013 35.3816H26.1007L26.3845 35.3967L26.4079 35.4119H26.4138Z" fill="#90C6DE"/>
<path d="M26.8732 32.0697L26.7971 32.8091L26.6538 32.8424L26.686 33.3454L26.1711 33.5787L26.3788 33.7968L26.2003 34.0968L26.2969 34.2968V34.5089L26.0892 34.3483L26.1389 34.0968L26.0219 33.9635L25.8142 33.912L25.3812 33.8484L25.3314 33.9332L25.1384 34.0332L24.9189 33.8968C24.9541 33.8696 24.9804 33.8453 25.0038 33.8181C25.1852 33.5999 25.545 32.9636 25.586 32.8272C25.6211 32.6879 25.6825 32.4848 25.7556 32.5394C25.8259 32.5879 25.8025 32.9394 25.9341 32.9394C26.0658 32.9394 26.0687 32.8394 26.057 32.7121C26.0423 32.5879 25.9224 32.3879 26.0424 32.2879C26.1652 32.1879 26.5777 32.1637 26.7474 32.1122C26.7796 32.1031 26.8235 32.0909 26.879 32.0788L26.8732 32.0697Z" fill="#90C6DE"/>
<path d="M26.329 34.93L26.4724 35.1633L26.4138 35.4117L26.3904 35.3966L26.1096 35.3845L26.0862 35.0451L26.3349 34.9269L26.329 34.93Z" fill="#90C6DE"/>
<path d="M26.2939 34.5087L26.4051 34.7299L26.3319 34.9268L26.0832 35.048L26.1067 35.3844H26.0189L25.7644 35.2632L25.6327 34.8299L25.504 35.045L25.3606 35.0298L25.3255 34.7087L24.9891 34.6935L24.9072 34.3602L24.6644 34.3087L24.5298 34.0996C24.6644 34.039 24.8077 33.9724 24.913 33.8906L25.1324 34.0269L25.3255 33.9269L25.3753 33.8421L25.8082 33.9057L26.016 33.9572L26.133 34.0905L26.0832 34.342L26.291 34.5026L26.2939 34.5087Z" fill="#90C6DE"/>
<path d="M24.919 40.6203C24.9278 40.8052 24.9424 40.9506 24.8488 41.0445C24.8488 41.0445 24.486 41.4687 24.29 41.4809C24.0969 41.493 23.8453 41.5172 23.5528 41.9172C23.2602 42.3172 23.0788 42.6959 23.19 42.8201C23.2982 42.9474 23.4211 43.2746 22.9004 43.7746C22.3825 44.2776 22.2333 44.4412 21.7389 44.4654C21.2445 44.4897 20.7706 44.6533 20.6974 44.7897C20.6594 44.8684 20.5512 44.8866 20.4254 44.8109C20.3317 44.7594 20.2352 44.6594 20.1416 44.5018C20.0012 44.2624 19.7466 44.1685 19.5418 44.1443C19.5536 43.9109 19.577 43.5867 19.5974 43.5534C19.6296 43.5019 19.6296 43.1171 19.6296 43.1171C19.6296 43.1171 19.7466 43.0686 19.7115 42.9535C19.6793 42.8383 19.6969 42.7323 19.6969 42.7323L19.5038 42.5323L19.7934 42.4838L19.89 41.5475L20.1796 41.1779L19.9543 41.1627L19.9865 40.9627L19.1966 41.0779L19.1469 40.8294L18.9714 40.9021C18.9597 40.7506 18.945 40.6203 18.9099 40.5779C18.8251 40.4779 18.632 40.4143 18.7637 40.178C18.8982 39.9416 19.2873 39.7235 19.7934 39.7901C20.2996 39.8568 21.9466 39.9537 22.1397 39.9416C22.1778 39.9386 22.2333 39.9083 22.2948 39.8537C22.4381 40.0234 22.6751 40.2416 22.6751 40.2416L23.4123 40.4537L23.8746 40.4295C23.8746 40.4295 24.0794 40.6022 24.1759 40.6294C24.2373 40.6446 24.6381 40.6294 24.9248 40.6173L24.919 40.6203Z" fill="#90C6DE"/>
<path d="M24.8135 42.308C24.9773 42.3444 25.0738 42.7504 24.8135 42.7504C24.5531 42.7504 24.3629 42.5504 24.4624 42.4504C24.4624 42.4504 24.6526 42.2777 24.8135 42.311V42.308Z" fill="#90C6DE"/>
<path d="M20.1327 31.6211L20.2439 31.6574C20.2234 31.7089 20.2117 31.7786 20.2234 31.8695C20.2907 32.4392 20.1474 33.1906 19.887 33.1906C19.6266 33.1906 19.0825 33.7603 18.5003 33.8299C17.9181 33.8936 18.433 32.8906 18.4652 32.5907C18.5003 32.2907 18.3891 31.6726 18.2867 31.4726C18.1931 31.2726 18.4038 31.3574 18.9479 31.3241C19.2814 31.3029 19.2814 31.1726 19.2317 31.0272C19.1761 30.8696 19.2551 30.6969 19.4101 30.6545C19.5096 30.6212 19.6471 30.5818 19.7846 30.5696L19.5944 30.9242L19.3545 31.1726L19.3341 31.3726L19.5272 31.5574L19.8022 31.2726L19.966 31.6271H20.1298L20.1327 31.6211Z" fill="#90C6DE"/>
<path d="M20.1794 41.1811L19.8898 41.5508L19.7933 42.487L19.5036 42.5355L19.6967 42.7355C19.6967 42.7355 19.6821 42.8385 19.7113 42.9567C19.7464 43.0718 19.6294 43.1203 19.6294 43.1203C19.6294 43.1203 19.6294 43.5051 19.5972 43.5566C19.5768 43.59 19.5534 43.9142 19.5417 44.1475C19.4246 44.1384 19.3252 44.1475 19.2696 44.1687C19.1116 44.2172 18.9068 44.1929 18.8191 43.8263C18.7342 43.4657 18.506 43.0112 18.6143 42.8234C18.7225 42.6385 19.0589 41.8204 19.0121 41.572C18.9858 41.4205 18.98 41.1356 18.9653 40.9054L19.1409 40.8326L19.1906 41.0811L19.9805 40.966L19.9483 41.1659L20.1736 41.1811H20.1794Z" fill="#90C6DE"/>
<path d="M23.7106 32.5395C23.9856 32.5243 24.3718 32.9243 24.1172 33.2243C23.8569 33.5242 23.4561 33.7909 23.6316 33.8757C23.8101 33.9606 24.1962 33.8909 23.8569 34.1272C23.5146 34.3605 22.9353 34.5272 22.6632 34.4908C22.3882 34.4575 21.613 34.3908 21.5779 34.5605C21.5457 34.7302 21.5164 34.9302 21.2561 34.8605C20.9957 34.7908 20.9489 34.8453 20.8231 34.9453C20.6914 35.0453 20.3696 34.9453 20.5159 34.812C20.6592 34.6756 20.9664 34.0575 21.2414 34.0424C21.5164 34.0272 22.0635 33.9575 21.888 33.8727C21.7095 33.7879 21.3058 33.8242 21.2268 33.7575C21.1449 33.6879 20.788 33.7242 20.7733 33.6091C20.7587 33.4879 20.8377 33.2879 21.0162 33.2243C21.1917 33.1546 21.3672 32.7395 21.2268 32.6546C21.0805 32.5698 20.9196 32.2213 21.0981 32.2213C21.2765 32.2213 21.6744 32.4213 21.7417 32.185C21.809 31.9517 21.8704 31.6032 21.6949 31.5002C21.6949 31.5002 21.3848 31.2517 21.4521 31.2032C21.5194 31.1517 21.7124 30.8336 21.5632 30.8336C21.414 30.8336 20.9986 30.9669 20.9518 30.9669C20.905 30.9669 20.7441 30.7821 20.8231 30.6033C20.905 30.4185 20.9986 30.1185 20.8699 30.1185C20.7412 30.1185 20.668 30.4033 20.5627 30.4185C20.4896 30.4276 20.434 30.2821 20.434 30.1488C20.434 30.0155 20.2467 30.1246 20.2058 30.0791C20.1356 30.0064 20.2731 29.8306 20.4164 29.7307C20.5627 29.6307 20.4018 29.5731 20.2877 29.5791C20.1531 29.5822 20.1414 29.5095 20.2614 29.3458C20.3813 29.1822 20.4545 28.958 20.3696 28.9095C20.2848 28.858 19.8957 28.6914 19.9952 28.5217C20.0917 28.3459 20.2965 28.1672 20.2848 28.3338C20.2731 28.4944 20.3462 28.5217 20.4164 28.3974C20.4896 28.2702 20.5949 28.0429 20.5949 28.0429C20.6914 27.7945 20.5188 27.4581 20.7412 27.4248C20.9635 27.3915 21.9845 27.2551 21.8382 27.5097C21.6949 27.7581 21.3526 28.1126 21.3526 28.2126C21.3526 28.3126 21.3204 28.3278 21.6422 28.2611C21.964 28.1975 22.4819 28.146 22.4175 28.3974C22.3502 28.6459 21.9172 29.364 21.888 29.564C21.8529 29.764 21.8061 30.1488 21.9845 30.2488C22.1601 30.3488 22.7247 30.982 22.7744 31.0517C22.8212 31.1214 23.1606 31.2517 23.1781 31.3214C23.1928 31.385 23.2279 31.9395 23.3215 32.0062C23.421 32.0698 23.3888 32.2547 23.4531 32.4062C23.5146 32.5546 23.4385 32.5546 23.7077 32.5395H23.7106Z" fill="#90C6DE"/>
<path d="M20.3053 30.7483C20.7675 31.4907 20.3521 31.3756 20.2438 31.6543L20.1327 31.618H19.9688L19.805 31.2635L19.53 31.5483L19.3369 31.3634L19.3574 31.1635L19.5973 30.915L19.7874 30.5605C19.9893 30.5362 20.1941 30.5635 20.3053 30.7453V30.7483Z" fill="#90C6DE"/>
<path d="M20.2761 27.6516C20.2849 27.691 20.2557 27.7304 20.2381 27.7667C20.1825 27.8637 20.1913 27.9849 20.1533 28.0879C20.1503 28.1031 20.1416 28.1213 20.1269 28.1364C20.1035 28.1576 20.0655 28.1576 20.0333 28.1516C19.9485 28.1485 19.8461 28.1273 19.8198 28.0485C19.8168 28.0273 19.8168 28.0091 19.8168 27.9879C19.8139 27.9092 19.8198 27.8273 19.849 27.7546C19.8812 27.6819 19.9339 27.6183 20.0041 27.594C20.0509 27.5789 20.0977 27.5819 20.1445 27.5819C20.2001 27.5819 20.2674 27.594 20.2791 27.6516H20.2761Z" fill="#90C6DE"/>
<path d="M19.8109 28.3425C19.8196 28.4213 19.7377 28.5364 19.7055 28.6031C19.6938 28.6273 19.6821 28.6546 19.6587 28.6667C19.6207 28.6879 19.5739 28.6576 19.5505 28.6183C19.5066 28.5334 19.5066 28.4062 19.5505 28.3304C19.5739 28.291 19.6178 28.2092 19.6938 28.2334C19.7699 28.2607 19.8109 28.3425 19.8109 28.3425Z" fill="#90C6DE"/>
<path d="M16.0135 -12.7808C17.4675 -13.3838 17.9502 -11.2749 17.0784 -9.87201C16.2066 -8.46911 12.5263 -5.23305 13.0119 -1.94851C13.6906 2.66621 12.7223 9.18378 12.5263 12.2956C12.3332 15.4044 9.8143 16.1074 7.87759 16.6073C5.94089 17.1103 4.97254 19.4162 3.90764 20.4191C2.84275 21.422 2.26057 25.5338 1.19567 26.1367C0.130775 26.7397 -2.87082 20.8221 -3.45301 19.0162C-4.03519 17.2103 -2.77428 14.4015 -2.77428 12.4956C-2.77428 10.5897 -3.93572 9.68676 -5.38971 5.57503C-6.8437 1.46329 -7.32642 2.96618 -9.26312 3.16919C-9.26312 3.16919 -9.55275 3.26918 -10.328 2.96921C-11.1033 2.66924 -11.2964 1.46329 -11.1033 0.863346C-10.9102 0.260372 -10.8137 -0.439562 -12.3613 -1.34251C-13.9118 -2.24545 -11.9751 -3.24839 -9.93892 -4.45131C-7.90567 -5.65423 -9.26019 -6.45718 -9.45328 -7.86008C-9.64637 -9.26298 -8.29184 -10.7689 -7.03094 -12.0718C-5.77003 -13.3747 -3.44716 -14.1777 -1.02774 -15.3806C1.39461 -16.5835 3.23477 -19.1924 6.71908 -19.8953C10.2063 -20.5983 9.62414 -17.5895 11.4643 -15.9836C13.3045 -14.3777 8.94542 -14.1777 8.17307 -13.1747C7.39781 -12.1718 11.3678 -13.5747 12.143 -13.7777C12.9183 -13.9777 12.9183 -11.8718 13.3045 -11.2689C13.6906 -10.6659 14.5624 -12.1718 16.0164 -12.7748L16.0135 -12.7808Z" fill="#90C6DE"/>
<path d="M16.5637 20.0859C16.4964 20.5192 16.4964 20.9525 15.885 21.2524C15.2677 21.5524 14.3344 22.5917 13.9804 22.4553C13.6235 22.322 13.2725 22.0554 12.9799 21.9887C12.6903 21.919 11.8799 22.0524 11.915 21.8887C11.9472 21.7191 12.3334 21.5524 12.3334 21.3524C12.3334 21.1524 12.4006 20.7494 12.0115 20.7494C11.6225 20.7494 10.8794 20.5161 11.3943 20.4495C11.9121 20.3858 12.3626 20.2162 12.2339 20.0495C12.1052 19.8859 11.6517 19.9859 11.4908 19.9859C11.3299 19.9859 10.9759 20.0859 11.2363 19.5859C11.4908 19.0829 11.7512 18.7163 11.8799 18.6466C12.0115 18.583 12.4621 18.683 12.5264 19.0163C12.5908 19.3496 12.9799 20.0889 13.0413 19.6192C13.1086 19.1496 13.2344 18.8496 13.3661 19.1163C13.4948 19.3859 13.331 19.5859 13.5913 19.186C13.8517 18.786 14.0448 18.7496 14.2993 18.9163C14.5597 19.086 14.8171 19.3162 14.8171 19.0163C14.8171 18.7163 15.0102 18.283 15.2355 18.4466C15.4608 18.6163 15.7504 18.7163 15.9786 18.9829C16.2038 19.2466 16.5608 20.0859 16.5608 20.0859H16.5637Z" fill="#176C93"/>
</g>
</svg>
