<svg width="688" height="266" viewBox="0 0 688 266" fill="none" xmlns="http://www.w3.org/2000/svg">
<g clip-path="url(#clip0_254_65288)">
<rect width="688" height="266" rx="16" fill="url(#paint0_linear_254_65288)"/>
<path d="M731.337 131.437C731.091 137.394 728.098 141.128 722.378 142.986C723.175 143.696 723.727 144.187 724.218 144.624C732.007 151.555 739.523 158.795 746.546 166.588C751.144 171.672 755.461 176.948 758.882 182.86C760.168 184.997 761.228 187.264 762.117 189.599C762.728 191.136 763.004 192.925 763.041 194.613C763.08 198.398 760.677 201.222 757.001 202.142C754.992 202.67 752.895 202.68 750.95 202.272C747.531 201.545 744.166 200.757 740.842 199.675C731.883 196.775 723.28 192.98 714.787 189.062C704.323 184.272 693.968 179.359 683.558 174.507C682.958 174.193 682.241 173.887 681.286 173.478C681.564 174.277 681.768 174.789 681.972 175.301C682.732 177.412 682.788 179.447 681.316 181.225C679.734 183.126 677.664 183.6 675.418 183.036C673.644 182.56 671.74 181.859 670.062 181.027C663.234 177.708 656.886 173.603 650.538 169.498C638.441 161.602 626.722 153.158 615.543 143.983C606.015 136.165 596.876 128.033 588.997 118.484C586.055 114.874 583.277 111.079 581.293 106.887C580.233 104.62 579.344 102.284 579.083 99.7364C578.407 93.9507 581.176 89.3564 586.651 87.2798C589.446 86.238 592.397 85.886 595.368 85.8825C601.193 85.8823 606.906 86.9958 612.462 88.4101C613.349 88.6482 614.352 88.8792 615.459 88.8711C615.091 88.5436 614.723 88.2161 614.416 87.9432C607.886 82.6838 601.514 77.1236 596.024 70.6947C593.532 67.8147 591.319 64.7431 589.606 61.2336C588.417 58.7414 587.453 56.1192 587.296 53.332C587.007 48.2222 588.997 44.2574 593.264 41.4376C595.679 39.8361 598.303 38.8628 601.199 38.5724C604.615 38.1925 608.03 37.8126 611.417 37.9589C617.023 38.2049 622.539 38.9224 628.158 39.4007C628.978 39.468 629.681 39.5423 631.026 39.6364C630.345 38.9198 630.031 38.5308 629.602 38.1487C625.922 34.8739 622.187 31.6607 618.671 28.2012C616.702 26.3385 614.945 24.1135 613.305 21.8815C612.297 20.5437 611.509 18.9597 610.952 17.3617C608.95 11.8304 610.997 6.81341 616.262 4.10853C619.092 2.65679 622.207 2.12016 625.397 1.87037C626.497 1.74607 627.603 1.73791 628.996 1.65425C628.56 1.15606 628.309 0.821607 628.002 0.548707C626.646 -0.768188 625.235 -2.02353 623.989 -3.46353C623.117 -4.45992 622.348 -5.69554 621.812 -6.9451C620.324 -10.5846 621.808 -14.2277 625.39 -15.7829C626.812 -16.3926 628.479 -16.784 629.933 -16.8131C632.672 -16.8027 635.472 -16.7378 638.181 -16.2014C643.662 -15.0739 649.089 -13.8849 654.48 -12.2859C662.491 -9.67899 670.338 -6.88742 678.233 -4.27354C679.598 -3.83112 681.024 -3.33412 682.437 -3.06938C695.263 -0.809858 707.505 3.46573 719.279 8.75982C738.64 17.3855 756.835 28.0621 773.864 40.7896C780.736 45.912 787.224 51.4652 792.775 57.9487C794.955 60.4397 796.908 63.0607 798.247 66.1266C798.919 67.7176 799.598 69.4247 799.813 71.1597C800.458 75.3741 798.278 79.059 794.225 80.5259C792.571 81.1496 790.788 81.548 789.04 81.5364C785.373 81.5818 781.692 81.395 778.054 80.9143C770.838 80.0075 763.808 78.2739 756.833 76.4787C756.123 76.2883 755.474 76.1524 754.491 76.2698C755.049 76.8771 755.547 77.4299 756.05 78.0988C756.997 79.382 757.998 80.6037 758.773 81.9555C761.636 87.2603 758.763 92.0938 752.767 92.1625C750.903 92.1579 748.91 91.928 747.08 91.5135C743.067 90.5892 739.041 89.4327 735.13 88.2692C731.691 87.1939 728.307 86.0571 724.642 85.1119C724.955 85.5009 725.329 85.9445 725.697 86.272C732.109 92.529 738.295 98.9161 743.817 105.926C746.704 109.598 749.536 113.331 751.582 117.578C752.445 119.449 753.315 121.436 753.72 123.451C754.773 128.689 751.739 132.717 746.417 133.386C744.737 133.545 742.989 133.534 741.289 133.344C738.531 132.986 735.869 132.272 733.159 131.735C732.633 131.708 732.046 131.627 731.337 131.437Z" fill="#ECFCF4"/>
<path d="M617.243 8.07667C610.41 3.00856 607.506 -4.10958 605.797 -11.8541C604.829 -16.1819 604.374 -20.5667 604.943 -25.0084C605.171 -26.8876 605.513 -28.7099 606.31 -30.4182C606.822 -31.4432 607.392 -32.4113 608.189 -33.2655C609.67 -34.8599 611.72 -35.1447 613.713 -34.2335C614.966 -33.6641 615.991 -32.696 616.845 -31.671C618.325 -29.8488 619.407 -27.7987 620.262 -25.6348C622.539 -19.9403 623.28 -13.9611 623.166 -7.81101C623.052 -3.71096 622.596 0.389083 621.742 4.37524C621.685 4.65997 621.685 4.88775 621.628 5.22942C623.223 6.02665 624.931 6.19749 626.696 6.25443C634.042 6.5961 641.217 5.51414 648.165 3.12245C650.442 2.32522 652.663 1.4141 654.827 0.332139C659.041 -1.66094 662.629 -4.56514 665.476 -8.20963C665.989 -8.83602 666.501 -9.46242 667.07 -10.0888C667.127 -10.1458 667.241 -10.1458 667.526 -10.1458C667.412 -9.74714 667.355 -9.46242 667.241 -9.17769C665.02 -4.45125 661.775 -0.635928 657.447 2.32522C652.037 5.9697 646.058 8.24751 639.737 9.5003C634.555 10.5253 629.373 10.9809 624.134 10.3545C622.995 10.2406 621.799 9.95586 620.546 9.72808C620.432 10.0128 620.318 10.3545 620.205 10.6962C618.667 15.8782 616.845 20.8893 614.225 25.6158C612.118 29.4311 609.67 32.9617 606.538 36.0367C604.829 37.6881 602.95 39.1687 600.843 40.2507C595.433 42.984 590.479 42.1298 586.379 37.6881C586.151 37.4603 585.924 37.2326 585.582 36.8909C585.354 37.5173 585.183 37.9729 584.956 38.4854C583.475 42.5854 581.824 46.6285 579.717 50.5008C577.894 53.8036 575.787 56.9356 573.054 59.612C571.744 60.9217 570.321 62.0037 568.669 62.8579C564.683 64.8509 560.868 64.5662 557.223 61.9467C556.54 61.4912 555.97 60.9217 555.23 60.3523C555.002 60.9787 554.832 61.4342 554.661 61.9467C553.123 66.5024 551.244 71.001 548.909 75.215C548.34 76.2969 547.656 77.3219 546.916 78.29C546.575 78.8025 546.005 79.1442 545.493 79.5428C545.037 79.8275 544.524 79.8275 544.126 79.3719C543.727 78.9164 543.898 78.4608 544.24 78.0053C544.923 77.0372 545.549 76.0122 546.119 74.9872C548.966 69.8052 551.13 64.3384 552.895 58.7578C553.066 58.2453 553.18 57.7328 552.782 57.2203C549.08 51.9814 547.144 46.0591 545.948 39.7951C544.24 31.0825 543.898 22.256 544.923 13.4295C545.265 10.4114 545.834 7.50722 547.087 4.71691C547.543 3.6919 548.112 2.66689 548.795 1.81271C550.504 -0.294258 552.838 -0.408147 554.888 1.4141C556.141 2.553 556.995 3.91968 557.679 5.4572C559.102 8.41834 559.9 11.6073 560.412 14.8531C561.437 21.0602 561.437 27.2672 560.811 33.5311C560.071 41.1618 558.59 48.6785 556.54 56.0245C556.312 56.8786 556.312 57.505 557.052 58.0745C557.964 58.8148 558.818 59.6689 559.786 60.2953C561.95 61.662 564.228 61.7759 566.562 60.7509C568.157 60.0676 569.466 59.0425 570.662 57.8467C572.769 55.8536 574.421 53.5189 575.958 51.0702C579.147 45.8313 581.482 40.1937 583.418 34.3853C583.589 33.8728 583.646 33.4742 583.361 32.9617C580.799 27.7797 579.66 22.1991 579.09 16.5045C578.464 10.3545 578.521 4.20441 579.546 -1.88872C579.944 -4.22347 580.457 -6.55822 581.425 -8.72213C581.824 -9.63325 582.336 -10.5444 582.962 -11.2847C584.5 -13.1069 586.664 -13.05 588.088 -11.1708C588.771 -10.2596 589.283 -9.23464 589.682 -8.15268C590.764 -5.13459 591.106 -1.94566 591.333 1.24326C591.903 11.4364 590.195 21.4018 587.347 31.1394C587.233 31.4811 587.176 31.8228 587.006 32.1645C586.778 32.7339 586.892 33.2464 587.233 33.702C588.031 34.727 588.771 35.8659 589.739 36.7201C591.96 38.827 594.636 39.3395 597.483 38.2006C598.964 37.6312 600.388 36.7201 601.697 35.752C603.975 34.0436 605.797 31.8797 607.449 29.6019C610.923 24.8185 613.371 19.4657 615.307 13.8851C615.991 12.1198 616.56 10.1267 617.243 8.07667ZM554.148 54.2592C554.319 53.9175 554.376 53.8036 554.433 53.6328C554.547 53.348 554.604 53.0064 554.718 52.7216C556.825 45.2618 558.248 37.6312 558.704 29.8866C559.045 24.2491 558.932 18.6115 557.679 13.0309C557.109 10.5253 556.483 8.07667 555.23 5.79887C554.661 4.8308 553.977 3.91968 553.18 3.12245C552.44 2.38216 551.586 2.43911 550.959 3.35023C550.39 4.14746 549.877 5.05858 549.536 5.9697C548.283 9.10169 547.827 12.4045 547.543 15.7643C546.973 23.1102 547.372 30.3992 548.625 37.6881C549.536 42.8701 550.845 47.9383 553.237 52.6647C553.522 53.0633 553.75 53.5758 554.148 54.2592ZM618.268 3.23634C618.439 2.553 618.553 2.09744 618.61 1.69882C618.838 0.104359 619.123 -1.43316 619.293 -3.02762C619.92 -8.77908 619.749 -14.4736 618.325 -20.1112C617.585 -23.0154 616.56 -25.7487 614.909 -28.2543C614.282 -29.1654 613.542 -29.9627 612.745 -30.7029C611.663 -31.6141 610.923 -31.3863 610.182 -30.1904C609.898 -29.7349 609.67 -29.2224 609.556 -28.7099C609.271 -27.4001 608.929 -26.0334 608.816 -24.6668C608.417 -19.7125 609.1 -14.8722 610.467 -10.0888C611.663 -5.98877 613.428 -2.17344 616.218 1.12937C616.788 1.81271 617.471 2.43911 618.268 3.23634ZM585.753 -9.40547C585.639 -9.40547 585.468 -9.40547 585.354 -9.34853C585.069 -8.83602 584.671 -8.38046 584.443 -7.86795C584.044 -6.786 583.589 -5.6471 583.304 -4.50819C581.937 0.958535 581.71 6.53916 581.994 12.1767C582.222 17.3018 582.906 22.4268 584.386 27.3811C584.5 27.7797 584.671 28.1783 584.842 28.5769C585.183 28.1213 585.411 27.6658 585.468 27.2102C586.151 23.8505 587.006 20.5476 587.518 17.1879C588.543 11.0948 588.885 4.94469 588.144 -1.14843C587.917 -3.19846 587.347 -5.24848 586.778 -7.24156C586.664 -8.03879 586.151 -8.72213 585.753 -9.40547Z" fill="white"/>
<path d="M113.922 206.896C117.793 211.607 118.045 216.488 114.932 221.789C116.026 221.789 116.783 221.789 117.456 221.789C128.142 221.789 138.828 222.209 149.514 223.387C156.498 224.145 163.398 225.238 170.045 227.426C172.485 228.183 174.841 229.193 177.113 230.371C178.627 231.128 180.058 232.306 181.236 233.568C183.844 236.429 183.928 240.216 181.741 243.413C180.563 245.18 178.964 246.61 177.197 247.62C174.084 249.387 170.97 251.07 167.689 252.5C158.854 256.371 149.683 259.316 140.511 262.093C129.236 265.542 117.961 268.824 106.686 272.19C106.013 272.358 105.256 272.61 104.246 272.947C105.003 273.368 105.508 273.62 106.013 273.872C108.032 274.966 109.463 276.481 109.547 278.837C109.631 281.361 108.369 283.128 106.265 284.222C104.583 285.063 102.647 285.821 100.796 286.325C93.3075 288.429 85.6507 289.607 77.9937 290.785C63.3531 292.973 48.6282 294.487 33.8193 295.076C21.198 295.581 8.66087 295.581 -3.87626 293.646C-8.5882 292.888 -13.3001 291.879 -17.6755 290.028C-20.0315 289.018 -22.3033 287.84 -24.2386 286.073C-28.6981 282.118 -29.7078 276.733 -26.9311 271.432C-25.5007 268.74 -23.4813 266.468 -21.2095 264.449C-16.75 260.494 -11.6173 257.465 -6.40052 254.772C-5.5591 254.352 -4.63354 253.847 -3.79212 253.089C-4.29697 253.089 -4.80183 253.089 -5.22254 253.089C-13.805 253.51 -22.4716 253.594 -31.0541 252.416C-34.9246 251.911 -38.711 251.07 -42.4132 249.555C-45.0216 248.462 -47.5459 247.115 -49.5653 245.096C-53.2675 241.394 -54.4455 237.018 -53.0992 231.97C-52.342 229.109 -50.9957 226.585 -48.9763 224.397C-46.6203 221.789 -44.2643 219.18 -41.5718 216.993C-37.1123 213.374 -32.4003 210.177 -27.7725 206.727C-27.0994 206.222 -26.5104 205.802 -25.4166 204.96C-26.4263 204.876 -26.9311 204.792 -27.5201 204.792C-32.5686 204.792 -37.6171 204.876 -42.6656 204.624C-45.4423 204.54 -48.3032 204.035 -51.0798 203.446C-52.7627 203.109 -54.4455 202.436 -55.9601 201.595C-61.261 198.734 -63.1121 193.517 -60.9244 187.879C-59.7464 184.85 -57.727 182.326 -55.4552 179.97C-54.6979 179.129 -53.8565 178.371 -52.8468 177.362C-53.5199 177.278 -53.9407 177.193 -54.3614 177.193C-56.2966 177.109 -58.2319 177.109 -60.1671 176.857C-61.5134 176.689 -62.9438 176.268 -64.206 175.679C-67.8241 173.912 -69.1703 170.126 -67.4875 166.507C-66.8144 165.077 -65.8047 163.647 -64.7108 162.637C-62.6073 160.786 -60.4196 158.935 -57.9795 157.504C-53.0151 154.643 -48.0507 151.867 -42.8339 149.427C-34.9246 145.977 -27.0153 142.78 -19.1901 139.414C-17.8438 138.825 -16.4134 138.236 -15.1513 137.479C-3.79212 130.495 8.49258 125.446 21.1139 121.492C41.8128 114.929 63.0165 110.721 84.7251 108.87C93.4758 108.113 102.227 107.945 110.893 109.123C114.259 109.543 117.54 110.217 120.654 111.647C122.252 112.404 123.935 113.246 125.281 114.424C128.647 117.2 129.489 121.492 127.385 125.362C126.544 126.961 125.45 128.475 124.103 129.653C121.327 132.178 118.382 134.534 115.269 136.637C109.126 140.844 102.563 144.294 96.0001 147.66C95.327 147.996 94.738 148.333 94.0648 149.09C94.9062 149.174 95.6635 149.258 96.5049 149.427C98.1036 149.763 99.7023 150.016 101.217 150.521C107.023 152.624 108.117 158.262 103.573 162.385C102.142 163.647 100.46 164.825 98.7768 165.75C95.0745 167.77 91.204 169.621 87.4176 171.388C84.052 172.902 80.6863 174.333 77.2365 176.1C77.7413 176.184 78.3303 176.268 78.8352 176.268C88.0066 176.689 97.0939 177.362 106.097 178.96C110.809 179.802 115.521 180.727 119.981 182.579C121.916 183.42 123.935 184.346 125.618 185.608C129.993 188.889 130.414 194.022 126.796 198.145C125.618 199.407 124.272 200.585 122.841 201.595C120.485 203.193 117.961 204.455 115.521 205.886C115.1 206.222 114.595 206.559 113.922 206.896Z" fill="#ECFCF4"/>
<path d="M175.325 245.248C175.566 244.581 175.766 244.039 175.925 243.456C176.677 240.417 176.475 237.432 175.774 234.369C174.768 230.107 172.854 226.27 170.487 222.647C166.555 216.677 161.556 211.632 155.901 207.343C147.524 200.97 138.256 196.434 128.179 193.568C122.515 191.976 116.818 191.007 110.969 191.202C108.853 191.269 106.781 191.543 104.711 191.9C103.51 192.122 102.355 192.717 101.199 193.229C100.786 193.4 100.373 193.571 100.037 193.243C99.8263 192.955 99.6133 192.501 99.6093 192.169C99.6412 191.381 100.174 190.835 100.835 190.578C102.156 189.981 103.434 189.26 104.841 188.994C107.118 188.51 109.439 188.233 111.804 188.163C116.282 187.86 120.812 188.427 125.224 189.453C140.623 193.085 154.114 200.268 165.413 211.461C170.454 216.464 174.589 222.141 177.201 228.791C179.471 234.615 180.413 240.455 178.08 246.625C178.54 246.91 178.999 247.112 179.417 247.356C184.888 250.237 190.117 253.618 194.814 257.712C199.386 261.682 203.382 266.157 206.104 271.603C206.955 273.335 207.641 275.153 208.161 276.973C210.552 285.95 207.161 293.793 199.082 298.372C196.155 300.026 193.014 301.06 189.744 301.805C183.37 303.21 176.898 303.371 170.419 302.951C168.633 302.848 166.887 302.62 165.059 302.477C164.685 302.44 164.353 302.444 163.813 302.409C163.986 302.988 164.117 303.525 164.247 303.98C165.586 308.322 166.221 312.796 165.654 317.327C164.975 322.979 162.668 327.862 158.399 331.732C155.853 334.004 153.009 335.574 149.785 336.691C144.702 338.454 139.437 338.891 134.08 338.666C133.374 338.633 132.668 338.6 131.838 338.527C131.845 339.108 131.893 339.647 131.899 340.144C132.126 345.205 131.104 349.948 128.083 354.135C125.921 357.19 123.042 359.383 119.701 361.042C115.41 363.169 110.899 364.178 106.173 364.567C99.6224 365.144 93.1413 364.558 86.7331 363.142C86.2341 363.065 85.6932 362.947 85.0693 362.83C85.1183 363.452 85.1653 363.907 85.2133 364.446C85.8603 369.917 86.2584 375.39 85.8266 380.873C85.6497 383.407 85.2648 385.902 84.7969 388.397C84.487 390.227 83.8031 392.02 82.7433 393.61C81.9694 394.823 81.2286 395.33 80.0697 395.593C80.0687 395.51 80.0257 395.386 80.0257 395.386C81.3805 394.166 81.9834 392.54 82.4193 390.833C83.0931 388.21 83.31 385.552 83.361 382.895C83.5278 376.087 82.9477 369.288 81.9947 362.535C81.9517 362.411 81.9087 362.287 81.8637 361.997C81.4887 361.877 81.0718 361.716 80.6138 361.597C69.5342 358.245 59.4274 352.972 50.4584 345.693C45.681 341.849 41.4364 337.46 38.3837 332.102C37.2818 330.206 36.4699 328.265 35.9049 326.156C35.5119 324.542 35.3679 322.925 35.5558 321.304C36.0517 317.688 38.0133 315.174 41.4009 313.888C43.7555 312.988 46.1622 312.959 48.6559 313.261C53.7682 313.905 58.3157 315.883 62.5412 318.696C71.9141 325.057 78.2025 333.738 81.2803 344.615C82.4943 348.917 83.2543 353.431 84.2203 357.818C84.3093 358.315 84.3983 358.812 84.4873 359.309C84.6542 359.39 84.7382 359.472 84.8632 359.512C92.4803 361.371 100.209 362.19 108.04 361.141C112.474 360.548 116.651 359.377 120.481 356.966C126.783 352.947 129.771 346.105 128.597 338.234C128.181 338.156 127.64 338.038 127.141 337.961C117.286 336.378 108.036 333.253 99.4655 328.086C95.912 325.929 92.6043 323.521 89.7866 320.442C88.1468 318.677 86.63 316.787 85.773 314.556C85.2601 313.317 84.8701 311.952 84.7711 310.625C84.485 307.558 86.0318 305.049 88.8374 303.687C90.4471 302.962 92.1449 302.651 93.8877 302.63C96.8753 302.594 99.7879 303.223 102.581 304.227C109.166 306.554 114.814 310.346 119.688 315.267C125.149 320.762 129.127 327.105 131.045 334.718C131.088 334.842 131.131 334.966 131.217 335.214C131.59 335.251 132.006 335.329 132.38 335.366C136.742 335.687 141.139 335.551 145.444 334.586C148.796 333.84 151.894 332.599 154.691 330.573C158.518 327.829 160.921 324.107 161.987 319.57C162.858 316.074 162.898 312.504 162.191 308.944C161.793 306.915 161.147 304.972 160.625 302.987C160.407 302.118 159.863 301.751 158.948 301.596C152.711 300.592 146.634 299.088 140.675 297.127C131.552 294.207 122.709 290.496 114.555 285.407C110.582 282.923 106.896 280.146 103.742 276.656C102.185 274.891 100.834 272.998 100.101 270.724C98.9361 267.045 100.434 263.914 104.027 262.501C105.018 262.074 106.094 261.812 107.172 261.716C108.872 261.571 110.531 261.551 112.193 261.697C115.891 262.026 119.513 263.02 122.974 264.348C135.147 268.932 145.567 276.068 154.029 286.051C157.145 289.748 159.809 293.825 161.854 298.199C162.152 298.818 162.448 299.271 163.278 299.344C169.929 300.177 176.533 300.637 183.206 299.933C187.019 299.555 190.746 298.846 194.298 297.475C196.364 296.704 198.344 295.684 200.07 294.335C204.553 290.919 206.49 286.414 206.049 280.816C205.71 276.795 204.131 273.203 202.016 269.826C199.181 265.337 195.525 261.604 191.377 258.293C187.102 254.858 182.503 252.009 177.617 249.536C177.366 249.373 177.116 249.293 176.783 249.214C176.537 249.466 176.291 249.635 176.128 249.886C174.003 252.651 171.329 254.634 168.065 255.794C165.916 256.566 163.683 257.257 161.447 257.616C151.878 259.101 142.648 257.719 133.802 253.759C131.757 252.829 129.793 251.649 128.197 250.091C127.693 249.599 127.189 249.107 126.726 248.573C123.987 245.162 124.689 241.418 128.313 239.051C129.836 238.078 131.531 237.518 133.27 237.165C136.002 236.551 138.822 236.434 141.687 236.524C148.869 236.727 155.859 238.22 162.651 240.504C166.443 241.744 170.114 243.36 173.825 244.768C174.365 244.803 174.824 245.005 175.325 245.248ZM81.5716 358.431C81.2606 356.734 80.9936 355.243 80.6846 353.711C79.6707 348.785 78.5327 343.901 76.4439 339.32C72.3952 330.529 66.2938 323.589 57.8128 318.919C54.6792 317.172 51.3036 316.01 47.6901 315.763C45.9453 315.618 44.2445 315.68 42.5508 316.323C40.1551 317.265 38.6813 318.942 38.5054 321.559C38.4375 322.805 38.4535 324.133 38.8415 325.332C39.3604 327.068 40.0454 328.803 40.9363 330.411C43.4811 334.945 47.0127 338.721 50.9543 342.076C59.5503 349.401 69.3252 354.678 80.0738 358.117C80.4898 358.195 80.9467 358.231 81.5716 358.431ZM158.785 298.402C158.614 297.989 158.57 297.782 158.443 297.576C156.744 294.36 154.757 291.354 152.483 288.56C146.67 281.492 139.671 275.808 131.691 271.38C126.302 268.416 120.712 266.076 114.64 264.988C112.685 264.638 110.651 264.538 108.659 264.562C107.414 264.577 106.173 264.924 104.975 265.395C103.241 266.08 102.636 267.54 103.114 269.318C103.332 270.187 103.715 270.971 104.181 271.754C105.494 274.021 107.301 275.866 109.272 277.544C112.25 280.123 115.472 282.366 118.94 284.275C131.099 291.142 144.143 295.591 157.829 298.289C158.037 298.328 158.328 298.366 158.785 298.402ZM128.098 334.712C128.01 334.298 128.006 333.966 127.878 333.677C127.363 332.273 126.972 330.825 126.333 329.463C122.665 321.29 116.821 315.011 109.294 310.288C105.614 308.008 101.776 306.312 97.4923 305.575C95.5375 305.225 93.5858 305.124 91.599 305.563C88.3715 306.349 87.0287 308.565 87.8977 311.791C88.3757 313.57 89.3906 315.135 90.5284 316.574C92.9742 319.781 96.1578 322.233 99.5454 324.391C107.993 329.767 117.245 332.976 127.059 334.6C127.309 334.68 127.641 334.676 128.098 334.712ZM174.068 247.711C173.692 247.508 173.441 247.346 173.232 247.224C164.929 243.547 156.305 240.788 147.285 239.61C143.503 239.116 139.723 238.871 135.912 239.415C134.213 239.643 132.475 240.079 130.906 240.762C127.521 242.214 127.136 244.709 129.7 247.376C131.338 249.057 133.303 250.237 135.431 251.166C143.316 254.598 151.507 255.869 160.044 254.853C163.193 254.483 166.213 253.658 169.017 252.13C170.954 251.069 172.639 249.679 174.068 247.711Z" fill="white"/>
</g>
<defs>
<linearGradient id="paint0_linear_254_65288" x1="-47.7778" y1="-502.401" x2="-251.492" y2="149.462" gradientUnits="userSpaceOnUse">
<stop stop-color="#F2FDEB"/>
<stop offset="1" stop-color="#E0F4FD"/>
</linearGradient>
<clipPath id="clip0_254_65288">
<rect width="688" height="266" rx="16" fill="white"/>
</clipPath>
</defs>
</svg>
