<svg width="24" height="24" viewBox="0 0 24 24" fill="none" xmlns="http://www.w3.org/2000/svg">
<g clip-path="url(#clip0_6144_24441)">
<g clip-path="url(#clip1_6144_24441)">
<mask id="mask0_6144_24441" style="mask-type:luminance" maskUnits="userSpaceOnUse" x="-4" y="0" width="32" height="24">
<rect x="-4" width="32" height="24" fill="white"/>
</mask>
<g mask="url(#mask0_6144_24441)">
<path fill-rule="evenodd" clip-rule="evenodd" d="M-4 0V24H28V0H-4Z" fill="#2E42A5"/>
<mask id="mask1_6144_24441" style="mask-type:luminance" maskUnits="userSpaceOnUse" x="-4" y="0" width="32" height="24">
<path fill-rule="evenodd" clip-rule="evenodd" d="M-4 0V24H28V0H-4Z" fill="white"/>
</mask>
<g mask="url(#mask1_6144_24441)">
<path fill-rule="evenodd" clip-rule="evenodd" d="M-4 0V8H28V0H-4Z" fill="#F7FCFF"/>
<path fill-rule="evenodd" clip-rule="evenodd" d="M-4 16V24H28V16H-4Z" fill="#C51918"/>
<path fill-rule="evenodd" clip-rule="evenodd" d="M9.74024 5.03617C9.74024 5.03617 7.6355 4.04224 5.0177 4.04224C2.3999 4.04224 0.295166 5.03617 0.295166 5.03617C0.295166 5.03617 0.529392 9.03089 0.899594 11.1471C1.05766 12.0506 1.81739 13.3685 2.5052 13.9922C3.28916 14.7032 5.0177 15.5455 5.0177 15.5455C5.51791 15.2008 6.45317 15.0458 7.64861 13.9922C8.84405 12.9387 9.14117 11.1471 9.14117 11.1471L9.74024 5.03617Z" fill="#2E42A5"/>
<path d="M9.46203 4.90552L10.3386 5.34324L9.73685 11.3659C9.5261 12.6405 8.99878 13.6457 8.1555 14.3889C7.69805 14.7921 7.25152 15.0933 6.77278 15.3436C6.50256 15.4849 5.37222 16.0672 5.38206 16.0624C5.26881 16.117 5.18293 16.1648 5.11317 16.2129L5.00384 16.2882L4.88581 16.2307C3.71505 15.6602 2.62274 14.8925 2.07993 14.4002C1.33895 13.7282 0.557661 12.3532 0.391095 11.401C0.142046 9.97736 -0.0812961 8.01645 -0.238037 5.34324L0.549363 4.9313C0.704924 7.58438 0.892707 9.69929 1.13726 11.0972C1.28195 11.9243 2.0024 13.1923 2.65963 13.7884C3.14536 14.2288 3.9279 14.7173 5.00384 15.2485C5.06802 15.2109 5.13915 15.1737 5.22051 15.1344C5.22281 15.1333 5.95472 14.8083 6.20908 14.6753C6.65523 14.4421 7.06993 14.1623 7.49689 13.786C8.24546 13.1263 8.71267 12.2378 8.90161 11.1091L9.46203 4.90552Z" fill="#C51918"/>
<path fill-rule="evenodd" clip-rule="evenodd" d="M1.54199 11.0242C1.54199 11.0242 1.73277 11.6079 2.08547 12.2633C2.60343 12.3999 2.92034 12.3928 3.02052 12.2806C3.3103 11.9563 4.34134 11.8177 4.53372 12.0948C4.65241 12.2657 5.06959 12.3839 5.52575 12.2275L5.47489 12.2365C5.55413 12.2077 5.73972 12.1341 5.85411 12.0888C5.90192 12.0699 5.93729 12.0558 5.94726 12.0521C6.119 11.9873 6.24518 11.9533 6.37373 11.9437C6.53487 11.9317 6.68939 11.9617 6.85312 12.0397C7.21303 12.2111 7.65711 12.2909 7.95952 12.239C8.32917 11.5952 8.59276 11.0242 8.59276 11.0242L6.83747 9.3396L6.13981 10.0967L4.98064 8.44409L4.01018 10.0967L3.26603 9.3396L1.54199 11.0242ZM2.55675 13.0145C2.47572 12.9052 2.39915 12.7924 2.32717 12.6784C2.77643 12.7604 3.08149 12.7173 3.2512 12.5273C3.33136 12.4376 3.5692 12.3506 3.8398 12.3142C3.96596 12.2973 4.087 12.293 4.1798 12.3019C4.22239 12.306 4.25671 12.3126 4.27981 12.3206C4.28729 12.3232 4.28705 12.3229 4.27929 12.3117L4.27787 12.3097C4.48477 12.6056 5.04656 12.7642 5.57661 12.5715L5.52575 12.5805C5.66911 12.5364 5.9273 12.4349 6.02011 12.3984L6.02012 12.3984L6.05243 12.3857C6.19959 12.3302 6.30101 12.3029 6.3956 12.2958C6.50469 12.2877 6.60762 12.3077 6.7244 12.3633C7.04311 12.5151 7.41359 12.6054 7.74012 12.6077C7.67052 12.7203 7.59864 12.8322 7.52531 12.941C7.27147 12.9999 6.87877 12.9225 6.56198 12.7495C6.41391 12.6686 6.27251 12.6372 6.12507 12.6497C6.00849 12.6597 5.89544 12.6946 5.74272 12.7607C5.73381 12.7645 5.70244 12.7788 5.6602 12.798C5.56032 12.8434 5.39962 12.9164 5.33122 12.945L5.38865 12.9334C4.99221 13.0863 4.64519 12.9736 4.54611 12.8099C4.36931 12.5179 3.44269 12.6608 3.18199 12.9954C3.11249 13.0846 2.90275 13.1009 2.55675 13.0145ZM2.90175 13.4234C2.92128 13.4435 2.941 13.4633 2.96091 13.4827C3.86411 14.3633 4.98064 14.795 4.98064 14.795C4.98064 14.795 6.31051 14.3926 7.06529 13.5453C7.12969 13.473 7.19422 13.3947 7.2584 13.312C6.98316 13.2983 6.68059 13.2087 6.41793 13.0653C6.32141 13.0126 6.23832 12.9941 6.15012 13.0016C6.07213 13.0082 5.98672 13.0346 5.86136 13.0889C5.85799 13.0903 5.84979 13.094 5.83774 13.0995C5.76098 13.134 5.52787 13.239 5.38865 13.2863L5.44609 13.2748C4.97888 13.4696 4.48282 13.3158 4.28934 13.024C4.2722 13.0173 4.24529 13.0113 4.21119 13.0076C4.13357 12.9991 4.03107 13.0032 3.92391 13.0197C3.69432 13.0551 3.4938 13.1392 3.42749 13.2243C3.31602 13.3674 3.14119 13.4306 2.90175 13.4234Z" fill="white"/>
<path fill-rule="evenodd" clip-rule="evenodd" d="M3.14697 5.88604H2.44385L2.98919 5.37516L2.44385 4.8353H3.14697L3.44385 4.31128L3.74192 4.8353H4.44385L3.92577 5.34274L4.38579 5.88604H3.74192L3.44385 6.43904L3.14697 5.88604Z" fill="#FECA00"/>
<path fill-rule="evenodd" clip-rule="evenodd" d="M6.46069 5.88604H5.75757L6.30291 5.37516L5.75757 4.8353H6.46069L6.75757 4.31128L7.05564 4.8353H7.75757L7.23949 5.34274L7.69951 5.88604H7.05564L6.75757 6.43904L6.46069 5.88604Z" fill="#FECA00"/>
<path fill-rule="evenodd" clip-rule="evenodd" d="M4.59985 7.56744H3.89673L4.44207 7.05656L3.89673 6.5167H4.59985L4.89673 5.99268L5.1948 6.5167H5.89673L5.37865 7.02413L5.83867 7.56744H5.1948L4.89673 8.12043L4.59985 7.56744Z" fill="#FECA00"/>
</g>
</g>
</g>
<g style="mix-blend-mode:hard-light" opacity="0.12">
<rect width="24" height="24" rx="12" fill="white"/>
</g>
<rect width="24" height="24" fill="url(#paint0_linear_6144_24441)" fill-opacity="0.64" style="mix-blend-mode:overlay"/>
</g>
<defs>
<linearGradient id="paint0_linear_6144_24441" x1="24" y1="1.19273e-06" x2="-4.48665" y2="16.0237" gradientUnits="userSpaceOnUse">
<stop stop-color="white" stop-opacity="0.3"/>
<stop offset="0.262741" stop-opacity="0.27"/>
<stop offset="0.369956" stop-color="white" stop-opacity="0.26"/>
<stop offset="0.487001" stop-opacity="0.55"/>
<stop offset="0.594445" stop-opacity="0.24"/>
<stop offset="0.736408" stop-color="white" stop-opacity="0.3"/>
<stop offset="0.901459" stop-color="#272727" stop-opacity="0.22"/>
<stop offset="1" stop-opacity="0.2"/>
</linearGradient>
<clipPath id="clip0_6144_24441">
<rect width="24" height="24" rx="12" fill="white"/>
</clipPath>
<clipPath id="clip1_6144_24441">
<rect width="24" height="24" fill="white"/>
</clipPath>
</defs>
</svg>
