<svg xmlns="http://www.w3.org/2000/svg" id="Layer_1" viewBox="0 0 184 100"><defs><style>.cls-1{fill:#56575a;stroke-width:0px;}</style></defs><g id="layer1"><g id="g2100"><path id="path24" class="cls-1" d="M131.65,49.58c.17.04.36.17.51.29l13.39,11.36h-8.53l-12.67-11.64,11.56-10.81h8.08l-11.84,10.52c-.15.14-.34.24-.51.29Z"></path><path id="path26" class="cls-1" d="M90.32,38.77s11.01,0,14.52,0c7.32,0,12.01,4.84,12.01,11.22,0,7.11-5.76,11.23-11.86,11.23h-14.67v-22.46ZM96.05,56.5s4.16,0,8.6,0c4.76-.01,6.59-2.81,6.59-6.51,0-3.37-1.45-6.6-6.95-6.6-5.23,0-8.23,0-8.23,0v13.11Z"></path><path id="path28" class="cls-1" d="M64.38,53.01l-8.21-4.75v-9.49l8.21,14.23ZM38.44,53.01l8.23-4.75v-9.49l-8.23,14.23ZM51.41,56.48l-8.21,4.75h16.44l-8.23-4.75ZM56.17,38.77h-9.49l4.73,4.75,4.76-4.75ZM56.17,48.26l-4.76,8.22,6.48-1.74-1.73-6.48ZM46.68,48.26h9.49l-4.76-4.74-4.73,4.74ZM57.9,54.74l1.75,6.49,4.73-8.22-6.48,1.74ZM46.68,48.26l4.73,8.22-6.48-1.74,1.75-6.48ZM44.93,54.74l-1.73,6.49-4.76-8.22,6.48,1.74Z"></path><path id="path46" class="cls-1" d="M88.97,38.77h-26.38v4.77h10.19v17.69h6.01v-17.69h10.17v-4.77Z"></path><path id="path48" class="cls-1" d="M124.18,61.23v-22.46h-6.01v22.46h6.01Z"></path></g></g></svg>