<svg xmlns="http://www.w3.org/2000/svg" xmlns:xlink="http://www.w3.org/1999/xlink" id="Layer_1" x="0px" y="0px" viewBox="0 0 85 20" style="enable-background:new 0 0 85 20;" xml:space="preserve"><style type="text/css">	.st0{fill:#56575A;}	.st1{fill:#FFFFFF;}</style><path class="st0" d="M20,0H0v20h20V0z"></path><path class="st0" d="M41.7,0h-20v20h20V0z"></path><path class="st0" d="M63.3,0h-20v20h20V0z"></path><path class="st1" d="M10,13.5l3-0.8l1.3,3.9L10,13.5z M17,8.4h-5.4l-1.6-5l-1.6,5H3l4.3,3.1l-1.6,5l4.3-3.1l2.7-1.9L17,8.4z"></path><path class="st1" d="M31.7,13.5l3-0.8l1.3,3.9L31.7,13.5z M38.7,8.4h-5.4l-1.6-5l-1.6,5h-5.4l4.3,3.1l-1.6,5l4.3-3.1l2.7-1.9 L38.7,8.4z"></path><path class="st1" d="M53.3,13.5l3-0.8l1.3,3.9L53.3,13.5z M60.3,8.4h-5.4l-1.6-5l-1.6,5h-5.4l4.3,3.1l-1.6,5l4.3-3.1l2.7-1.9 L60.3,8.4z"></path><path class="st0" d="M85,0H65v20h20V0z"></path><path class="st1" d="M75,13.5l3-0.8l1.3,3.9L75,13.5z M82,8.4h-5.4l-1.6-5l-1.6,5H68l4.3,3.1l-1.6,5l4.3-3.1l2.7-1.9L82,8.4z"></path></svg>