<svg xmlns="http://www.w3.org/2000/svg" id="Capa_1" viewBox="0 0 70.1 13.25"><defs><style>.cls-1{fill:#00b67a;}.cls-1,.cls-2{stroke-width:0px;}.cls-2{fill:#000;}</style></defs><path class="cls-1" d="M7,10.1l3.04-.77,1.27,3.92-4.31-3.15ZM14,5.04h-5.35L7,0l-1.65,5.04H0l4.33,3.12-1.65,5.04,4.33-3.12,2.67-1.92,4.31-3.12Z"></path><path class="cls-2" d="M22.58,2.09v8.53h-1.75V2.09h1.75ZM25.2,2.09v1.38h-6.96v-1.38h6.96ZM27.38,5.67v4.96h-1.69v-6.34h1.59l.1,1.38ZM29.29,4.24l-.03,1.56c-.08-.01-.18-.02-.3-.03-.11-.01-.22-.02-.31-.02-.24,0-.45.03-.62.09-.17.06-.32.15-.43.26-.11.12-.2.26-.26.43-.05.17-.09.36-.09.57l-.34-.11c0-.41.04-.79.12-1.13.08-.35.2-.65.36-.91.16-.26.36-.46.59-.6.23-.14.49-.21.79-.21.09,0,.19,0,.29.02.1.01.18.03.24.05ZM33.83,9.11v-4.82h1.69v6.34h-1.59l-.1-1.52ZM34.02,7.81h.5c0,.41-.05.8-.15,1.17-.1.36-.24.67-.44.94-.2.26-.44.47-.74.62-.3.14-.65.22-1.05.22-.31,0-.59-.04-.86-.13-.26-.09-.48-.23-.67-.42-.18-.19-.33-.44-.43-.73-.1-.3-.15-.66-.15-1.08v-4.1h1.69v4.11c0,.19.02.35.06.47.05.13.11.23.19.32.08.08.18.14.29.18.11.04.24.05.38.05.35,0,.62-.07.82-.21.2-.14.35-.33.43-.57.09-.25.13-.52.13-.82ZM40.24,8.87c0-.12-.04-.23-.11-.33-.07-.1-.2-.19-.39-.27-.19-.09-.46-.16-.81-.23-.32-.07-.62-.16-.9-.26-.27-.11-.51-.24-.71-.39-.2-.15-.36-.33-.47-.54-.11-.21-.17-.45-.17-.72s.06-.52.17-.75c.12-.23.28-.44.5-.62.22-.18.48-.33.8-.43.32-.11.67-.16,1.07-.16.55,0,1.02.09,1.42.26.4.18.7.42.91.73.21.3.32.65.32,1.04h-1.69c0-.16-.04-.31-.11-.44-.07-.13-.17-.24-.32-.31-.14-.08-.32-.12-.55-.12-.19,0-.35.03-.49.1-.14.06-.24.15-.32.26-.07.11-.11.22-.11.35,0,.1.02.19.06.26.04.07.11.14.21.21.09.06.21.12.36.18.15.05.34.1.56.14.46.09.87.22,1.22.37.36.15.64.35.86.61.21.25.32.59.32,1,0,.28-.06.54-.19.77s-.3.44-.54.62c-.23.17-.52.31-.84.4-.32.09-.69.14-1.1.14-.59,0-1.09-.11-1.5-.32-.41-.21-.71-.48-.93-.8-.21-.33-.31-.66-.31-1.01h1.6c0,.23.07.42.18.56.11.14.26.24.43.3.18.06.37.09.57.09.22,0,.4-.03.54-.09.14-.06.25-.14.33-.25.08-.11.12-.23.12-.36ZM46.08,4.29v1.2h-3.69v-1.2h3.69ZM43.3,2.72h1.69v5.99c0,.18.02.32.07.42.05.1.12.17.22.21.1.04.22.05.37.05.11,0,.2,0,.28-.01.09-.01.16-.02.22-.04v1.24c-.14.05-.29.08-.46.11-.17.03-.35.04-.56.04-.37,0-.7-.06-.97-.18-.27-.12-.48-.32-.63-.6-.15-.27-.22-.63-.22-1.08V2.72ZM48.73,5.5v7.56h-1.69V4.29h1.56l.12,1.22ZM52.74,7.38v.12c0,.46-.05.89-.16,1.28-.11.39-.26.74-.47,1.03-.21.29-.46.52-.77.68-.3.16-.66.24-1.05.24s-.72-.08-1.01-.23c-.29-.16-.53-.38-.72-.66-.19-.29-.35-.62-.46-.99-.12-.38-.21-.78-.27-1.21v-.32c.06-.46.15-.88.27-1.27.12-.39.27-.72.46-1,.2-.29.43-.51.71-.66.29-.16.62-.23,1-.23.4,0,.76.08,1.06.23.31.15.57.37.77.66.21.29.37.62.47,1.02.11.39.16.83.16,1.31ZM51.05,7.51v-.12c0-.27-.02-.52-.07-.74-.04-.23-.11-.43-.21-.6-.09-.17-.22-.3-.38-.4-.15-.1-.34-.15-.56-.15-.23,0-.43.04-.59.11-.16.07-.29.18-.39.32-.1.14-.18.31-.23.5s-.08.42-.09.66v.81c.02.29.07.55.16.78.09.23.23.41.42.54s.43.2.74.2c.22,0,.41-.05.56-.15.15-.1.28-.24.37-.42.1-.18.17-.38.21-.61.04-.23.06-.48.06-.74ZM55.57,4.29v6.34h-1.69v-6.34h1.69ZM53.77,2.63c0-.25.09-.45.26-.61.17-.16.4-.24.69-.24s.51.08.69.24c.18.16.26.36.26.61s-.09.45-.26.61c-.17.16-.4.24-.69.24s-.52-.08-.69-.24c-.17-.16-.26-.36-.26-.61ZM58.75,1.62v9h-1.69V1.62h1.69ZM59.87,7.52v-.12c0-.46.07-.89.2-1.28.13-.39.33-.74.58-1.03.25-.29.57-.51.94-.67.37-.16.8-.25,1.28-.25s.91.08,1.28.25c.38.16.69.38.94.67.26.29.45.63.59,1.03.13.39.2.82.2,1.28v.12c0,.46-.07.89-.2,1.28-.13.39-.33.73-.59,1.03-.25.29-.57.51-.94.67-.37.16-.8.24-1.28.24s-.91-.08-1.28-.24c-.37-.16-.69-.38-.94-.67-.25-.29-.45-.63-.58-1.03-.13-.39-.2-.82-.2-1.28ZM61.56,7.4v.12c0,.27.02.51.07.74.05.23.12.43.22.61.11.17.24.31.41.4.17.1.37.15.62.15s.44-.05.6-.15c.17-.1.3-.23.4-.4.1-.18.18-.38.22-.61.05-.23.08-.48.08-.74v-.12c0-.26-.03-.5-.08-.73-.05-.23-.12-.43-.23-.61-.1-.18-.24-.32-.4-.42-.17-.1-.37-.15-.61-.15s-.44.05-.61.15c-.16.1-.3.24-.4.42-.1.18-.18.38-.22.61-.05.23-.07.47-.07.73ZM70.02,4.29v1.2h-3.69v-1.2h3.69ZM67.24,2.72h1.69v5.99c0,.18.02.32.07.42.05.1.12.17.22.21.1.04.22.05.37.05.11,0,.2,0,.28-.01.09-.01.16-.02.22-.04v1.24c-.14.05-.29.08-.46.11-.17.03-.35.04-.56.04-.37,0-.7-.06-.97-.18-.27-.12-.48-.32-.63-.6-.15-.27-.22-.63-.22-1.08V2.72Z"></path></svg>