<svg xmlns="http://www.w3.org/2000/svg" id="Layer_1" viewBox="0 0 184 100"><defs><style>.cls-1{fill:#56575a;stroke-width:0px;}</style></defs><g id="layer1"><g id="g70327"><g id="g41720"><path id="path41722" class="cls-1" d="M144.25,61.22c-9.22-.68-20.69-1.25-33.22-1.25-19.18,0-40.85,1.31-60.6,5.4-3.31-4.18-7.34-7.47-13.52-10.06l-.09.18c5.46,5.94,8.95,11.07,11.43,18.41,27.7-10.33,62.47-12.24,88.72-12.24,2.51,0,4.91.03,7.22.06l.06-.51"></path></g><g id="g41724"><path id="path41726" class="cls-1" d="M115.43,42.45c.15-.71.27-1.31.27-2.15,0-1.61-1.02-2.27-2.09-2.27-1.76,0-2.68,1.05-3.1,4.42h4.92ZM80.48,50.57c-.54.39-1.34.83-2.24.83-1.7,0-1.94-1.43-1.94-3.13,0-2,.54-5.55,1.13-6.95.9-2.15,2.12-2.74,4.09-2.74.06,0,.21,0,.42.03l-1.46,11.97ZM138.31,45.67c-.62,5.79-1.49,6.99-3.16,6.99-1.53,0-2.12-1.11-2.12-3.52,0-1.04.12-2.5.3-4.03.63-5.79,1.49-6.99,3.16-6.99,1.53,0,2.12,1.1,2.12,3.52,0,1.04-.12,2.51-.3,4.03ZM98.68,56.65h-8.29l3.76-30.56h8.3l-3.77,30.56ZM115.55,51.34c1.66,0,3.91-.39,5.67-.89l-1.01,5.55c-2.09.53-5.04.83-7.67.83-8.38,0-10.71-3.64-10.71-8.42,0-12.21,5.25-14.98,12.47-14.98,5.67,0,9.19,2.74,9.19,8,0,2.29-.47,4.36-.8,5.79h-12.48c0,2.63.86,4.12,5.34,4.12h0ZM82.93,33.61c-5.79,0-8.92,1.1-11.46,3.82-2.42,2.57-3.7,7.11-3.7,11.91,0,4.18,1.04,7.64,6.21,7.64,2.35,0,4.42-.89,6.33-2h.09l-.21,1.67h7.85l2.81-22.89c-2.3-.09-4.95-.15-7.91-.15h0ZM147.18,41.73c0-5.91-3.83-8.3-10.24-8.3-7.75,0-12.47,3.55-12.47,15.61,0,5.91,3.83,8.3,10.24,8.3,7.75,0,12.47-3.46,12.47-15.61ZM64.9,26.1c-1.91,7.16-4.54,14.32-7.91,21.52h-.06c-.89-5.85-1.34-14.27-1.34-21.52h-9.61c.3,11.46,2.3,21.57,4.54,30.56h9.25c5.22-9.43,10.12-19.57,13.91-30.56h-8.77"></path></g></g></g></svg>