<svg xmlns="http://www.w3.org/2000/svg" id="Layer_1" data-name="Layer 1" viewBox="0 0 309.1 33.6"><defs><style>      .cls-1 {        fill: none;        stroke: #000;        stroke-miterlimit: 10;        stroke-width: .8px;      }    </style></defs><g><g><path class="cls-1" d="M309.1,0C257.6-14.6,206.1-14.6,154.5,0,103,14.6,51.5,14.6,0,0"></path><path class="cls-1" d="M0,0C-51.6-14.6-103.1-14.6-154.6,0-206.2,14.6-257.7,14.6-309.2,0"></path></g><path class="cls-1" d="M618.3,0C566.7-14.6,515.2-14.6,463.7,0,412.2,14.6,360.6,14.6,309.1,0"></path></g><g><path class="cls-1" d="M309.1,33.6c-51.5-14.6-103.1-14.6-154.6,0C103,48.2,51.5,48.2,0,33.6"></path><path class="cls-1" d="M0,33.6c-51.5-14.6-103.1-14.6-154.6,0-51.5,14.6-103.1,14.6-154.6,0"></path></g><path class="cls-1" d="M618.3,33.6c-51.5-14.6-103.1-14.6-154.6,0-51.5,14.6-103.1,14.6-154.6,0"></path></svg>