<svg xmlns="http://www.w3.org/2000/svg" id="Layer_1" viewBox="0 0 184 100"><defs><style>.cls-1{fill:#56575a;stroke-width:0px;}</style></defs><path class="cls-1" d="M94.82,58.05h3.66v-16.13h-3.66v16.13ZM84.17,41.92h-3.66v16.13h10.63v-2.92h-6.97v-13.21h0ZM129.9,50.6l-7.81-8.86h-.49v16.32h3.53v-5.94c.01-.91-.03-1.82-.12-2.74,0,0,.62.95,1.25,1.71l3.4,4.19h.52l3.38-4.19c.61-.75,1.23-1.7,1.23-1.7-.09.91-.13,1.82-.12,2.74v5.94h3.53v-16.33h-.49l-7.82,8.86ZM150.36,48.38l-.83-.36c-1.08-.46-2.04-.98-2.04-1.97,0-.81.46-1.34,1.43-1.34.94.02,1.79.57,2.2,1.41l2.74-1.63c-1.16-2.01-3.02-2.81-5.03-2.81-2.97,0-4.82,1.95-4.88,4.44-.05,2.77,1.92,4.02,4.32,5.04l.83.36c1.52.67,2.24,1.17,2.21,2.18-.03.95-.67,1.64-2.04,1.64-1.64,0-2.6-.9-3.19-2.14l-2.9,1.65c.79,1.82,2.96,3.49,6.06,3.49s5.61-1.63,5.71-4.62c.09-2.58-1.64-4.18-4.6-5.36M39.62,41.78l-5.94,12.87,1.24,3.39h.58l3.58-8.08c.32-.65.59-1.33.8-2.03.2.69.47,1.36.78,2.01l3.6,8.1h.58l1.24-3.39-5.95-12.87h-.52ZM32.8,41.92h-3.77l4.27,11.7,2.01-4.38-2.52-7.31ZM44.42,49.19l2.04,4.42,4.29-11.7h-3.81l-2.52,7.27ZM55.63,58.05h3.66v-16.13h-3.66v16.13ZM69.75,41.92h-3.66v16.13h10.63v-2.92h-6.97v-13.21ZM110.11,52.64h-1.82l1.39-3.56c.26-.67.43-1.24.43-1.24,0,0,.17.57.43,1.24l1.39,3.54-1.82.02ZM110.37,41.75h-.52l-7.2,16.27h3.51l1.05-2.58h5.8l1.05,2.58h3.52l-7.2-16.27Z"></path></svg>