<svg xmlns="http://www.w3.org/2000/svg" id="Layer_1" data-name="Layer 1" viewBox="0 0 36 36"><defs><style>      .cls-1 {        fill: #292b2e;        stroke-width: 0px;      }    </style></defs><path class="cls-1" d="M18,34c-2.2,0-4.3-.4-6.3-1.3-2-.8-3.6-2-5.1-3.4-1.4-1.4-2.6-3.1-3.4-5.1-.8-2-1.3-4-1.3-6.3s.4-4.3,1.3-6.3c.8-2,2-3.6,3.4-5.1,1.4-1.4,3.1-2.6,5.1-3.4,2-.8,4-1.3,6.3-1.3s4.3.4,6.3,1.3c2,.8,3.6,2,5.1,3.4s2.6,3.1,3.4,5.1c.8,2,1.3,4,1.3,6.3s-.4,4.3-1.3,6.3c-.8,2-2,3.6-3.4,5.1-1.4,1.4-3.1,2.6-5.1,3.4-2,.8-4,1.3-6.3,1.3ZM16.3,31.4v-3.3c-.9,0-1.7-.3-2.4-1-.7-.7-1-1.5-1-2.4v-1.7L4.9,15c0,.5-.2,1-.2,1.5,0,.5-.1,1-.1,1.5,0,3.4,1.1,6.4,3.3,8.9,2.2,2.6,5,4,8.4,4.5ZM27.9,27.1c.6-.6,1.1-1.3,1.5-2,.4-.7.8-1.5,1.1-2.2.3-.8.5-1.6.7-2.4.2-.8.2-1.6.2-2.5,0-2.8-.8-5.3-2.3-7.6-1.5-2.3-3.6-3.9-6.1-4.9v.7c0,.9-.3,1.7-1,2.4-.7.7-1.5,1-2.4,1h-3.4v3.4c0,.5-.2.9-.5,1.2-.3.3-.7.5-1.2.5h-3.4v3.4h10.1c.5,0,.9.2,1.2.5.3.3.5.7.5,1.2v5.1h1.7c.7,0,1.4.2,2,.7.6.4,1,1,1.2,1.7Z"></path></svg>