<svg width="24" height="24" viewBox="0 0 24 24" fill="none" xmlns="http://www.w3.org/2000/svg">
<g clip-path="url(#clip0_6144_24238)">
<g clip-path="url(#clip1_6144_24238)">
<mask id="mask0_6144_24238" style="mask-type:luminance" maskUnits="userSpaceOnUse" x="-4" y="0" width="32" height="24">
<rect x="-4" width="32" height="24" fill="white"/>
</mask>
<g mask="url(#mask0_6144_24238)">
<path fill-rule="evenodd" clip-rule="evenodd" d="M-4 0H28V24H-4V0Z" fill="#E31D1C"/>
<path fill-rule="evenodd" clip-rule="evenodd" d="M11.9667 8.03238C12.009 8.02375 12.1147 7.96551 12.3417 7.66716C12.4804 7.48499 12.4741 7.26541 12.4686 7.07493C12.4614 6.82528 12.4556 6.62561 12.7796 6.62561C13.0452 6.62561 13.242 6.54936 13.4068 6.4855C13.5964 6.41202 13.7437 6.35493 13.9049 6.44928C14.1644 6.60119 14.4703 6.62223 14.4701 6.62514C14.4701 6.62561 14.4621 6.62561 14.4448 6.62561C14.3199 6.62561 13.8711 6.88119 14.2182 6.88119C14.3879 6.88119 14.5691 6.75888 14.7099 6.66383C14.8569 6.56457 14.9598 6.49505 14.9598 6.62561C14.9598 6.62561 15.0585 6.91412 14.8202 6.93601C14.8202 6.93601 13.7449 7.0411 13.955 7.08836C13.955 7.08836 14.1463 7.16721 14.2773 7.172C14.2773 7.172 14.334 7.37125 13.9855 7.42642C13.9855 7.42642 13.0006 7.60928 12.9555 7.92575C12.9442 8.0052 12.9162 8.10965 12.8861 8.22155C12.7963 8.55536 12.6888 8.9554 12.9555 8.9554C13.3118 8.9554 13.5431 8.71145 13.5431 8.43733C13.5431 8.16322 13.5914 7.70019 13.9049 7.67765C13.9049 7.67765 14.6755 7.41744 14.7711 7.4353C14.8071 7.44203 14.8052 7.46569 14.803 7.49255C14.7993 7.5369 14.795 7.58999 14.9598 7.58999C15.2245 7.58999 15.9913 6.95425 16.112 6.70176C16.2327 6.44928 16.414 6.70176 16.414 6.70176C16.414 6.70176 16.5307 7.40856 15.9231 7.66716C15.3156 7.92575 14.9598 7.92575 14.9598 7.92575C14.9598 7.92575 14.581 8.20436 14.8202 8.20436C14.8733 8.20436 14.9397 8.20919 15.0148 8.21465C15.2782 8.2338 15.6483 8.26071 15.9231 8.11413C15.999 8.07366 16.0649 8.03703 16.1217 8.00549C16.3291 7.89022 16.414 7.84304 16.414 7.92575V7.92746C16.414 8.0373 16.4141 8.62193 16.0095 8.62193H14.9598C14.8202 8.62193 14.4896 8.82082 15.0388 8.9554C15.588 9.08998 15.765 9.03374 16.0095 8.9554C16.254 8.87706 16.414 8.83256 16.414 8.9554C16.414 9.07824 16.0786 9.53782 15.7905 9.53782C15.6217 9.53782 15.442 9.45024 15.2933 9.3777C15.1881 9.32644 15.0984 9.28269 15.0388 9.28269C14.8948 9.28269 14.7456 9.53782 14.8202 9.53782C14.8444 9.53782 14.8868 9.57676 14.9441 9.62939C15.0634 9.73905 15.2475 9.90814 15.4664 9.90814C15.6451 9.90814 15.7844 9.87166 15.9093 9.83893C16.011 9.8123 16.1032 9.78815 16.1994 9.78815C16.3237 9.78815 16.376 9.77318 16.398 9.79258C16.414 9.80667 16.414 9.83888 16.414 9.90814C16.414 10.0727 15.9859 10.2543 15.7905 10.2543C15.7016 10.2543 15.4829 10.1569 15.2707 10.0624C15.0161 9.94898 14.7711 9.83984 14.7711 9.90814C14.7711 10.0334 15.2873 10.7069 15.6052 10.7069H16.1994C16.414 10.7069 16.3289 10.9794 16.3289 10.9794C16.3289 10.9794 16.1211 11.164 15.8632 11.164C15.6698 11.164 15.479 11.0174 15.3296 10.9027C15.2797 10.8644 15.2345 10.8297 15.1954 10.8051C15.0388 10.7069 14.8202 10.6309 14.8202 10.8051C14.8202 10.9794 15.3137 11.6755 15.7129 11.6755C15.8723 11.6755 16.0162 11.6499 16.1316 11.6293C16.3051 11.5984 16.414 11.5791 16.414 11.6755C16.414 11.8361 16.2285 12.1937 16.0095 12.1147L16.0048 12.113C15.7808 12.0322 15.0985 11.786 14.9598 11.5247C14.8202 11.2615 14.565 11.3739 14.668 11.5247C14.7711 11.6755 15.3137 12.4554 15.7129 12.5281C15.8188 12.5474 15.924 12.5602 16.0196 12.5719C16.2843 12.6042 16.4765 12.6277 16.414 12.7545C16.3289 12.927 15.9757 13.1681 15.7905 13.0922C15.6052 13.0162 14.9724 12.4345 14.8202 12.1919C14.668 11.9494 14.2773 11.4851 14.2773 11.6755C14.2773 11.7162 14.2701 11.7719 14.2619 11.835C14.2316 12.0675 14.1883 12.4009 14.4448 12.4569C14.7711 12.5281 14.943 12.8421 14.7711 12.8421C14.5992 12.8421 13.9855 12.695 13.9855 12.3057C13.9855 11.9165 13.708 11.698 13.708 11.8072C13.708 11.8196 13.7076 11.8349 13.7072 11.8525C13.704 11.9898 13.6973 12.2695 13.8327 12.4569C13.9855 12.6682 13.769 12.8407 13.708 12.7545C13.647 12.6682 13.3854 12.2692 13.3854 12.1919C13.3854 12.1147 13.2931 11.9333 13.1846 11.9333C13.0761 11.9333 13.0543 12.1224 13.2573 12.5281C13.4604 12.9337 13.9609 13.2581 14.1191 13.2581C14.2773 13.2581 14.1191 13.6219 14.1191 13.6219L15.1954 13.9007C15.1954 13.9007 15.6052 13.6894 15.6052 13.6219C15.6052 13.5544 15.8195 13.39 16.0095 13.39C16.1994 13.39 16.2145 13.6219 16.112 13.6219C16.0614 13.6219 15.9896 13.6653 15.917 13.7091C15.8426 13.7541 15.7673 13.7996 15.7129 13.7996C15.6052 13.7996 15.2763 14.0297 15.2763 14.0297H16.0095C16.0095 14.0297 15.8921 13.9007 16.1994 13.9007C16.5068 13.9007 16.6333 14.0297 16.6333 14.0297C16.6333 14.0297 16.2869 14.233 16.1994 14.233C16.1774 14.233 16.1495 14.2375 16.1149 14.2432C16.0638 14.2515 15.9979 14.2622 15.9142 14.2642C15.8907 14.2467 15.8768 14.2506 15.8688 14.2644C15.7942 14.2633 15.7069 14.255 15.6052 14.233C15.2763 14.162 15.8632 14.3806 15.8632 14.3806C15.8632 14.3806 15.8504 14.2962 15.8688 14.2644C15.8844 14.2647 15.8996 14.2646 15.9142 14.2642C15.9364 14.2807 15.9671 14.3163 16.0095 14.3806C16.1994 14.6686 16.2285 14.7583 16.0095 14.7583C15.7905 14.7583 15.6052 14.6917 15.6052 14.5361C15.6052 14.3806 15.1954 14.233 15.1954 14.233L14.668 14.5361C14.668 14.5361 14.7665 14.7051 14.6057 14.7583C14.4448 14.8116 14.2182 14.7334 14.2182 14.6801C14.2182 14.6269 14.2713 14.3806 14.408 14.3806C14.5446 14.3806 14.9598 14.1548 14.9598 14.1548L13.955 13.8546C13.955 13.8546 13.6735 14.1548 13.581 14.1548C13.5336 14.1548 13.4404 13.9631 13.3386 13.7538C13.2417 13.5545 13.137 13.3391 13.0566 13.2581C13.0063 13.2074 12.9616 13.14 12.9184 13.0749C12.8204 12.9271 12.73 12.7907 12.5977 12.8857C12.4073 13.0226 12.3316 13.4444 12.5977 13.7996C12.8639 14.1548 13.3244 14.4355 13.4527 14.4355C13.581 14.4355 13.8327 14.4475 13.8327 14.5361C13.8327 14.6247 13.7208 14.9874 13.4527 14.8338C13.3995 14.8033 13.3457 14.7716 13.2931 14.7408C13.0807 14.6159 12.89 14.5038 12.8573 14.5361C12.8166 14.5764 12.9842 15.0332 13.2184 15.1423C13.3213 15.1901 13.4168 15.1866 13.4916 15.1839C13.587 15.1804 13.6487 15.1781 13.6487 15.2856C13.6487 15.4773 13.4831 15.6909 13.1846 15.4883C13.0527 15.3987 12.9439 15.2808 12.8588 15.1886C12.7513 15.0722 12.6818 14.9969 12.6517 15.0718C12.5977 15.2061 12.6206 15.7308 12.8573 15.7308C12.9118 15.7308 12.9624 15.729 13.008 15.7275C13.1606 15.7221 13.2573 15.7187 13.2573 15.79C13.2573 15.8825 13.2027 16.2768 12.9555 16.1195C12.7084 15.9621 12.5276 15.766 12.4834 15.6271C12.4392 15.4883 12.1754 15.6266 12.2586 15.8219C12.3417 16.0171 12.5438 16.4107 12.5977 16.4107C12.6517 16.4107 11.971 17.5999 11.971 17.5999L11.9667 16.1429L11.9624 17.5999C11.9624 17.5999 11.2817 16.4107 11.3357 16.4107C11.3896 16.4107 11.5916 16.0171 11.6748 15.8219C11.758 15.6266 11.4942 15.4883 11.45 15.6271C11.4058 15.766 11.225 15.9621 10.9778 16.1195C10.7306 16.2768 10.676 15.8825 10.676 15.79C10.676 15.7187 10.7728 15.7221 10.9254 15.7275C10.971 15.729 11.0216 15.7308 11.0761 15.7308C11.3128 15.7308 11.3357 15.2061 11.2817 15.0718C11.2516 14.9969 11.1821 15.0722 11.0746 15.1886C10.9895 15.2808 10.8807 15.3987 10.7488 15.4883C10.4502 15.6909 10.2847 15.4773 10.2847 15.2856C10.2847 15.1781 10.3463 15.1804 10.4418 15.1839C10.5165 15.1866 10.6121 15.1901 10.7149 15.1423C10.9492 15.0332 11.1168 14.5764 11.0761 14.5361C11.0434 14.5038 10.8527 14.6159 10.6403 14.7408C10.5877 14.7716 10.5338 14.8033 10.4807 14.8338C10.2126 14.9874 10.1007 14.6247 10.1007 14.5361C10.1007 14.4475 10.3524 14.4355 10.4807 14.4355C10.609 14.4355 11.0695 14.1548 11.3357 13.7996C11.6018 13.4444 11.5261 13.0226 11.3357 12.8857C11.2034 12.7907 11.113 12.9271 11.015 13.0749C10.9718 13.14 10.9271 13.2074 10.8768 13.2581C10.7964 13.3391 10.6917 13.5545 10.5948 13.7538C10.493 13.9631 10.3998 14.1548 10.3524 14.1548C10.2599 14.1548 9.97838 13.8546 9.97838 13.8546L8.97357 14.1548C8.97357 14.1548 9.38879 14.3806 9.52542 14.3806C9.66205 14.3806 9.71524 14.6269 9.71524 14.6801C9.71524 14.7334 9.48856 14.8116 9.32772 14.7583C9.16688 14.7051 9.26535 14.5361 9.26535 14.5361L8.73804 14.233C8.73804 14.233 8.32816 14.3806 8.32816 14.5361C8.32816 14.6917 8.1429 14.7583 7.92392 14.7583C7.70493 14.7583 7.73394 14.6686 7.92392 14.3806C7.96628 14.3163 7.99702 14.2807 8.01922 14.2642C8.03381 14.2646 8.04894 14.2647 8.06463 14.2644C8.08301 14.2962 8.07022 14.3806 8.07022 14.3806C8.07022 14.3806 8.65712 14.162 8.32816 14.233C8.22647 14.255 8.13923 14.2633 8.06463 14.2644C8.05663 14.2506 8.0427 14.2467 8.01922 14.2642C7.93547 14.2622 7.86962 14.2515 7.81849 14.2432C7.78389 14.2375 7.75603 14.233 7.73394 14.233C7.6465 14.233 7.30005 14.0297 7.30005 14.0297C7.30005 14.0297 7.42659 13.9007 7.73394 13.9007C8.0413 13.9007 7.92392 14.0297 7.92392 14.0297H8.65712C8.65712 14.0297 8.32816 13.7996 8.22054 13.7996C8.16608 13.7996 8.09078 13.7541 8.01638 13.7091C7.94377 13.6653 7.87203 13.6219 7.82139 13.6219C7.71886 13.6219 7.73394 13.39 7.92392 13.39C8.11389 13.39 8.32816 13.5544 8.32816 13.6219C8.32816 13.6894 8.73804 13.9007 8.73804 13.9007L9.81427 13.6219C9.81427 13.6219 9.65608 13.2581 9.81427 13.2581C9.97245 13.2581 10.473 12.9337 10.676 12.5281C10.8791 12.1224 10.8573 11.9333 10.7488 11.9333C10.6403 11.9333 10.548 12.1147 10.548 12.1919C10.548 12.2692 10.2864 12.6682 10.2254 12.7545C10.1644 12.8407 9.94789 12.6682 10.1007 12.4569C10.2361 12.2695 10.2294 11.9898 10.2262 11.8525C10.2258 11.8349 10.2254 11.8196 10.2254 11.8072C10.2254 11.698 9.94789 11.9165 9.94789 12.3057C9.94789 12.695 9.33419 12.8421 9.16231 12.8421C8.99043 12.8421 9.16231 12.5281 9.48856 12.4569C9.74511 12.4009 9.70176 12.0675 9.67153 11.835C9.66332 11.7719 9.65608 11.7162 9.65608 11.6755C9.65608 11.4851 9.26535 11.9494 9.11318 12.1919C8.961 12.4345 8.32816 13.0162 8.1429 13.0922C7.95765 13.1681 7.60453 12.927 7.5194 12.7545C7.45687 12.6277 7.64912 12.6042 7.91377 12.5719C8.00944 12.5602 8.11456 12.5474 8.22054 12.5281C8.61969 12.4554 9.16231 11.6755 9.26535 11.5247C9.36839 11.3739 9.11318 11.2615 8.97357 11.5247C8.83494 11.786 8.15257 12.0322 7.92859 12.113L7.92392 12.1147C7.70493 12.1937 7.5194 11.8361 7.5194 11.6755C7.5194 11.5791 7.62831 11.5984 7.80176 11.6293C7.91714 11.6499 8.06109 11.6755 8.22054 11.6755C8.61969 11.6755 9.11318 10.9794 9.11318 10.8051C9.11318 10.6309 8.89461 10.7069 8.73804 10.8051C8.69887 10.8297 8.65364 10.8644 8.60381 10.9027C8.45443 11.0174 8.26363 11.164 8.07022 11.164C7.81228 11.164 7.60453 10.9794 7.60453 10.9794C7.60453 10.9794 7.5194 10.7069 7.73394 10.7069H8.32816C8.64606 10.7069 9.16231 10.0334 9.16231 9.90814C9.16231 9.83984 8.91726 9.94898 8.66273 10.0624C8.45053 10.1569 8.23176 10.2543 8.1429 10.2543C7.94747 10.2543 7.5194 10.0727 7.5194 9.90814C7.5194 9.83888 7.5194 9.80667 7.53538 9.79258C7.55738 9.77318 7.60967 9.78815 7.73394 9.78815C7.83019 9.78815 7.92239 9.8123 8.02407 9.83893C8.14902 9.87166 8.28828 9.90814 8.46696 9.90814C8.68593 9.90814 8.86996 9.73905 8.98932 9.62939C9.04659 9.57676 9.08897 9.53782 9.11318 9.53782C9.1878 9.53782 9.03855 9.28269 8.89461 9.28269C8.835 9.28269 8.74528 9.32644 8.64013 9.3777C8.49136 9.45024 8.31173 9.53782 8.1429 9.53782C7.85475 9.53782 7.5194 9.07824 7.5194 8.9554C7.5194 8.83256 7.67944 8.87706 7.92392 8.9554C8.1684 9.03374 8.34541 9.08998 8.89461 8.9554C9.4438 8.82082 9.11318 8.62193 8.97357 8.62193H7.92392C7.51933 8.62193 7.51939 8.0373 7.5194 7.92746L7.5194 7.92575C7.5194 7.84304 7.60429 7.89022 7.81172 8.00549C7.86847 8.03703 7.93439 8.07366 8.01025 8.11413C8.28507 8.26071 8.65517 8.2338 8.91858 8.21465C8.99368 8.20919 9.0601 8.20436 9.11318 8.20436C9.35242 8.20436 8.97357 7.92575 8.97357 7.92575C8.97357 7.92575 8.61779 7.92575 8.01025 7.66716C7.40272 7.40856 7.5194 6.70176 7.5194 6.70176C7.5194 6.70176 7.70068 6.44928 7.82139 6.70176C7.9421 6.95425 8.70894 7.58999 8.97357 7.58999C9.1384 7.58999 9.13405 7.5369 9.13042 7.49255C9.12822 7.46569 9.12628 7.44203 9.16231 7.4353C9.25785 7.41744 10.0285 7.67765 10.0285 7.67765C10.342 7.70019 10.3903 8.16322 10.3903 8.43733C10.3903 8.71145 10.6216 8.9554 10.9778 8.9554C11.2446 8.9554 11.1371 8.55536 11.0473 8.22155C11.0172 8.10965 10.9892 8.0052 10.9778 7.92575C10.9328 7.60928 9.94789 7.42642 9.94789 7.42642C9.5994 7.37125 9.65608 7.172 9.65608 7.172C9.78706 7.16721 9.97838 7.08836 9.97838 7.08836C10.1885 7.0411 9.11318 6.93601 9.11318 6.93601C8.87485 6.91412 8.97357 6.62561 8.97357 6.62561C8.97357 6.49505 9.07653 6.56457 9.22353 6.66383C9.3643 6.75888 9.54545 6.88119 9.71524 6.88119C10.0623 6.88119 9.6135 6.62561 9.48856 6.62561C9.47126 6.62561 9.46333 6.62561 9.4633 6.62514C9.46313 6.62223 9.769 6.60119 10.0285 6.44928C10.1897 6.35493 10.337 6.41202 10.5266 6.4855C10.6914 6.54936 10.8882 6.62561 11.1538 6.62561C11.4778 6.62561 11.472 6.82528 11.4648 7.07493C11.4593 7.26541 11.453 7.48499 11.5916 7.66716C11.8187 7.96551 11.9244 8.02375 11.9667 8.03238Z" fill="#1A1A1A"/>
</g>
</g>
<g style="mix-blend-mode:hard-light" opacity="0.12">
<rect width="24" height="24" rx="12" fill="white"/>
</g>
<rect width="24" height="24" fill="url(#paint0_linear_6144_24238)" fill-opacity="0.64" style="mix-blend-mode:overlay"/>
</g>
<defs>
<linearGradient id="paint0_linear_6144_24238" x1="24" y1="1.19273e-06" x2="-4.48665" y2="16.0237" gradientUnits="userSpaceOnUse">
<stop stop-color="white" stop-opacity="0.3"/>
<stop offset="0.262741" stop-opacity="0.27"/>
<stop offset="0.369956" stop-color="white" stop-opacity="0.26"/>
<stop offset="0.487001" stop-opacity="0.55"/>
<stop offset="0.594445" stop-opacity="0.24"/>
<stop offset="0.736408" stop-color="white" stop-opacity="0.3"/>
<stop offset="0.901459" stop-color="#272727" stop-opacity="0.22"/>
<stop offset="1" stop-opacity="0.2"/>
</linearGradient>
<clipPath id="clip0_6144_24238">
<rect width="24" height="24" rx="12" fill="white"/>
</clipPath>
<clipPath id="clip1_6144_24238">
<rect width="24" height="24" fill="white"/>
</clipPath>
</defs>
</svg>
