<svg width="24" height="24" viewBox="0 0 24 24" fill="none" xmlns="http://www.w3.org/2000/svg">
<g clip-path="url(#clip0_6144_24275)">
<g clip-path="url(#clip1_6144_24275)">
<mask id="mask0_6144_24275" style="mask-type:luminance" maskUnits="userSpaceOnUse" x="-4" y="0" width="32" height="24">
<rect x="-4" width="32" height="24" fill="white"/>
</mask>
<g mask="url(#mask0_6144_24275)">
<path fill-rule="evenodd" clip-rule="evenodd" d="M-4 0H28V6H-4V0Z" fill="#3D58DB"/>
<path fill-rule="evenodd" clip-rule="evenodd" d="M-4 6H28V12H-4V6Z" fill="#F7FCFF"/>
<path fill-rule="evenodd" clip-rule="evenodd" d="M-4 12H28V18H-4V12Z" fill="#73BE4A"/>
<path fill-rule="evenodd" clip-rule="evenodd" d="M-4 18H28V24H-4V18Z" fill="#FFD018"/>
<path fill-rule="evenodd" clip-rule="evenodd" d="M0.529526 5.41606L-1.89501 7.09777L-1.12028 4.21741L-2.90015 2.37743L-0.490113 2.27794L0.529526 -0.570312L1.54916 2.27794H3.9551L2.17933 4.21741L3.06866 6.92776L0.529526 5.41606Z" fill="#FECA00"/>
<path fill-rule="evenodd" clip-rule="evenodd" d="M8 0H16V24H8V0Z" fill="#E11C1B"/>
</g>
</g>
<g style="mix-blend-mode:hard-light" opacity="0.12">
<rect width="24" height="24" rx="12" fill="white"/>
</g>
<rect width="24" height="24" fill="url(#paint0_linear_6144_24275)" fill-opacity="0.64" style="mix-blend-mode:overlay"/>
</g>
<defs>
<linearGradient id="paint0_linear_6144_24275" x1="24" y1="1.19273e-06" x2="-4.48665" y2="16.0237" gradientUnits="userSpaceOnUse">
<stop stop-color="white" stop-opacity="0.3"/>
<stop offset="0.262741" stop-opacity="0.27"/>
<stop offset="0.369956" stop-color="white" stop-opacity="0.26"/>
<stop offset="0.487001" stop-opacity="0.55"/>
<stop offset="0.594445" stop-opacity="0.24"/>
<stop offset="0.736408" stop-color="white" stop-opacity="0.3"/>
<stop offset="0.901459" stop-color="#272727" stop-opacity="0.22"/>
<stop offset="1" stop-opacity="0.2"/>
</linearGradient>
<clipPath id="clip0_6144_24275">
<rect width="24" height="24" rx="12" fill="white"/>
</clipPath>
<clipPath id="clip1_6144_24275">
<rect width="24" height="24" fill="white"/>
</clipPath>
</defs>
</svg>
