<svg width="24" height="24" viewBox="0 0 24 24" fill="none" xmlns="http://www.w3.org/2000/svg">
<g clip-path="url(#clip0_6144_24297)">
<g clip-path="url(#clip1_6144_24297)">
<mask id="mask0_6144_24297" style="mask-type:luminance" maskUnits="userSpaceOnUse" x="-4" y="0" width="32" height="24">
<rect x="-4" width="32" height="24" fill="white"/>
</mask>
<g mask="url(#mask0_6144_24297)">
<path fill-rule="evenodd" clip-rule="evenodd" d="M-4 0V24H28V0H-4Z" fill="#2E42A5"/>
<mask id="mask1_6144_24297" style="mask-type:luminance" maskUnits="userSpaceOnUse" x="-4" y="0" width="32" height="24">
<path fill-rule="evenodd" clip-rule="evenodd" d="M-4 0V24H28V0H-4Z" fill="white"/>
</mask>
<g mask="url(#mask1_6144_24297)">
<path fill-rule="evenodd" clip-rule="evenodd" d="M-4 0V12H28V0H-4Z" fill="#FECA00"/>
<path fill-rule="evenodd" clip-rule="evenodd" d="M-4 18V24H28V18H-4Z" fill="#E31D1C"/>
<path fill-rule="evenodd" clip-rule="evenodd" d="M7.86865 8.12293C7.86865 8.12293 10.6367 6.87243 10.8883 7.01449C11.1399 7.15655 11.2006 7.56146 11.4178 7.56146C11.635 7.56146 12.0723 7.43352 12.2549 7.43352C12.4374 7.43352 12.6179 7.56146 12.6179 7.56146H13.3976V7.12791L16.9328 8.12293C16.9328 8.12293 14.8709 8.39231 14.7155 8.39231C14.56 8.39231 14.7155 8.6145 14.7155 8.6145C14.7155 8.6145 14.4214 8.39231 13.9737 8.39231C13.5259 8.39231 12.6179 8.85489 12.6179 8.85489L12.9479 9.56495L12.6179 9.77374L12.2549 9.56495C12.2549 9.56495 12.2784 8.98103 12.122 8.98103C11.9657 8.98103 11.8517 9.35615 11.8517 9.56495C11.8517 9.77374 11.4178 9.77374 11.4178 9.77374L11.6116 9.38286C11.6116 9.38286 11.8042 8.73482 11.4178 8.73482C11.0314 8.73482 9.27008 8.39231 9.27008 8.39231L8.81969 8.6145L8.98071 8.12293H7.86865Z" fill="#7B2900"/>
<path fill-rule="evenodd" clip-rule="evenodd" d="M9.05725 14.8229C8.62521 13.852 9.05725 11.7009 9.05725 11.7009L9.89687 12.1412C9.79725 12.6432 9.78166 13.5919 10.0958 14.3677C10.41 15.1436 11.5977 15.7547 11.5977 15.7547C11.5977 15.7547 12.1968 15.8883 11.2865 15.9845C10.3762 16.0808 9.48929 15.7939 9.05725 14.8229ZM11.2098 18.6475C10.9393 18.6475 11.7507 16.8433 11.7507 16.8433L12.0011 16.342C12.0011 16.342 12.0318 18.4658 11.8603 18.6475C11.7504 18.7639 11.6252 18.7311 11.4782 18.6925C11.3959 18.6709 11.3068 18.6475 11.2098 18.6475Z" fill="#E31D1C"/>
<path fill-rule="evenodd" clip-rule="evenodd" d="M8.27541 14.5058C7.91345 13.056 8.47813 11.0872 8.47813 11.0872L9.04643 11.4932C8.96297 12.2429 8.96297 14.1815 9.44367 15.0215C9.92437 15.8615 12.0325 16.2144 12.0325 16.2144C12.0325 16.2144 11.6166 16.5218 10.8539 16.6656C10.0912 16.8093 8.63737 15.9557 8.27541 14.5058ZM10.6923 18.4479L11.0266 17.2542L11.4979 16.6775H11.8367C11.8367 16.6775 11.3597 18.7292 11.0266 18.7292C10.8102 18.7292 10.875 18.6105 10.9469 18.4786C10.9857 18.4075 11.0266 18.3325 11.0266 18.2703C11.0266 18.0927 10.6923 18.4479 10.6923 18.4479Z" fill="#2E42A5"/>
<path fill-rule="evenodd" clip-rule="evenodd" d="M7.72314 14.7542C7.54353 13.5063 7.90276 10.5244 7.90276 10.5244L8.47105 10.9305C8.2142 11.6527 8.29373 13.7253 8.47105 14.7542C8.64838 15.7832 10.3263 16.4035 10.3263 16.4035C10.3263 16.4035 9.91034 16.711 9.14766 16.8548C8.38498 16.9985 7.90276 16.0022 7.72314 14.7542ZM10.5128 17.2481C10.1892 17.2481 10.6539 16.7842 10.6539 16.7842H11.4285C11.4285 16.7842 11.1635 17.4395 10.8364 17.4395C10.6723 17.4395 10.6728 17.3914 10.6732 17.3434C10.6737 17.2957 10.6741 17.2481 10.5128 17.2481Z" fill="#FECA00"/>
<path fill-rule="evenodd" clip-rule="evenodd" d="M14.9608 14.8229C15.3929 13.852 14.9608 11.7009 14.9608 11.7009L14.1212 12.1412C14.2208 12.6432 14.2364 13.5919 13.9222 14.3677C13.6081 15.1436 12.4204 15.7547 12.4204 15.7547C12.4204 15.7547 11.8212 15.8883 12.7316 15.9845C13.6419 16.0808 14.5288 15.7939 14.9608 14.8229ZM12.8083 18.6475C13.0788 18.6475 12.2673 16.8433 12.2673 16.8433L12.0169 16.342C12.0169 16.342 11.9863 18.4658 12.1577 18.6475C12.2677 18.7639 12.3929 18.7311 12.5399 18.6925C12.6221 18.6709 12.7112 18.6475 12.8083 18.6475Z" fill="#E31D1C"/>
<path fill-rule="evenodd" clip-rule="evenodd" d="M15.7427 14.5058C16.1046 13.056 15.5399 11.0872 15.5399 11.0872L14.9716 11.4932C15.0551 12.2429 15.0551 14.1815 14.5744 15.0215C14.0937 15.8615 11.9855 16.2144 11.9855 16.2144C11.9855 16.2144 12.4015 16.5218 13.1641 16.6656C13.9268 16.8093 15.3807 15.9557 15.7427 14.5058ZM13.3258 18.4479L12.9915 17.2542L12.5202 16.6775H12.1813C12.1813 16.6775 12.6584 18.7292 12.9915 18.7292C13.2078 18.7292 13.1431 18.6105 13.0711 18.4786C13.0323 18.4075 12.9915 18.3325 12.9915 18.2703C12.9915 18.0927 13.3258 18.4479 13.3258 18.4479Z" fill="#2E42A5"/>
<path fill-rule="evenodd" clip-rule="evenodd" d="M16.2949 14.7542C16.4745 13.5063 16.1153 10.5244 16.1153 10.5244L15.547 10.9305C15.8039 11.6527 15.7243 13.7253 15.547 14.7542C15.3697 15.7832 13.6918 16.4035 13.6918 16.4035C13.6918 16.4035 14.1077 16.711 14.8704 16.8548C15.6331 16.9985 16.1153 16.0022 16.2949 14.7542ZM13.5053 17.2481C13.8289 17.2481 13.3642 16.7842 13.3642 16.7842H12.5896C12.5896 16.7842 12.8546 17.4395 13.1817 17.4395C13.3457 17.4395 13.3453 17.3914 13.3448 17.3434C13.3444 17.2957 13.3439 17.2481 13.5053 17.2481Z" fill="#FECA00"/>
<path d="M8.19238 11.2743L8.25336 10.9064L9.31958 10.9755L8.51084 10.1377L8.78333 9.87849L9.87712 11.0116L8.942 9.25331L9.26527 9.06104L10.1166 10.3134L9.71055 9.01168L10.0597 8.8728L11.3688 11.4835L10.8667 11.451L10.9159 11.6087L11.3434 11.7221L11.246 12.084L11.0477 12.0315L11.2329 12.6251L10.9112 12.1519L11.4714 13.2045L10.0952 11.7789L8.19238 11.2743Z" fill="#6FAE21"/>
<path d="M16 11.2743L15.939 10.9064L14.8728 10.9755L15.6815 10.1377L15.4091 9.87849L14.3153 11.0116L15.2504 9.25331L14.9271 9.06104L14.0757 10.3134L14.4818 9.01168L14.1327 8.8728L12.8235 11.4835L13.3257 11.451L13.2765 11.6087L12.849 11.7221L12.9464 12.084L13.1446 12.0315L12.9595 12.6251L13.2811 12.1519L12.721 13.2045L14.0972 11.7789L16 11.2743Z" fill="#6FAE21"/>
<path d="M8.76776 18.5103L8.49316 18.2533L16.612 9.70532L16.8866 9.96231L8.76776 18.5103Z" fill="#292B2E"/>
<path fill-rule="evenodd" clip-rule="evenodd" d="M16.4058 9.77129L16.822 10.1639L17.0567 9.51489L16.4058 9.77129Z" fill="white"/>
<path fill-rule="evenodd" clip-rule="evenodd" d="M8.97388 18.5086L8.49577 18.1943L8.34087 18.8387L8.97388 18.5086Z" fill="white"/>
<path d="M8.16425 17.2368L7.88965 16.9799L16.0084 8.43188L16.283 8.68888L8.16425 17.2368Z" fill="#292B2E"/>
<path fill-rule="evenodd" clip-rule="evenodd" d="M15.8022 8.49761L16.2185 8.89018L16.4531 8.24121L15.8022 8.49761Z" fill="white"/>
<path fill-rule="evenodd" clip-rule="evenodd" d="M8.37037 17.2352L7.89225 16.9209L7.73736 17.5652L8.37037 17.2352Z" fill="white"/>
<path d="M15.5516 18.5103L15.8262 18.2533L7.70738 9.70532L7.43278 9.96231L15.5516 18.5103Z" fill="#292B2E"/>
<path fill-rule="evenodd" clip-rule="evenodd" d="M7.91357 9.77129L7.4973 10.1639L7.26269 9.51489L7.91357 9.77129Z" fill="white"/>
<path fill-rule="evenodd" clip-rule="evenodd" d="M15.3455 18.5086L15.8236 18.1943L15.9785 18.8387L15.3455 18.5086Z" fill="white"/>
<path d="M16.3065 17.5367L16.5811 17.2797L8.46226 8.73169L8.18766 8.98868L16.3065 17.5367Z" fill="#292B2E"/>
<path fill-rule="evenodd" clip-rule="evenodd" d="M8.66895 8.79742L8.25268 9.18998L8.01806 8.54102L8.66895 8.79742Z" fill="white"/>
<path fill-rule="evenodd" clip-rule="evenodd" d="M16.1003 17.5348L16.5785 17.2205L16.7333 17.8648L16.1003 17.5348Z" fill="white"/>
<rect x="10.4995" y="15.2229" width="3.0192" height="1.4985" fill="#B74E01"/>
<path d="M12.0183 15.9137C12.6558 15.9137 13.196 15.5039 13.5642 14.9191C13.9345 14.331 14.1554 13.534 14.1554 12.6667C14.1554 11.7994 13.9345 11.0024 13.5642 10.4143C13.196 9.82947 12.6558 9.41968 12.0183 9.41968C11.3809 9.41968 10.8407 9.82947 10.4725 10.4143C10.1022 11.0024 9.88135 11.7994 9.88135 12.6667C9.88135 13.534 10.1022 14.331 10.4725 14.9191C10.8407 15.5039 11.3809 15.9137 12.0183 15.9137Z" fill="#7DB8FF" stroke="#FECA00" stroke-width="0.5"/>
<mask id="mask2_6144_24297" style="mask-type:luminance" maskUnits="userSpaceOnUse" x="9" y="9" width="6" height="8">
<path d="M12.0183 15.9137C12.6558 15.9137 13.196 15.5039 13.5642 14.9191C13.9345 14.331 14.1554 13.534 14.1554 12.6667C14.1554 11.7994 13.9345 11.0024 13.5642 10.4143C13.196 9.82947 12.6558 9.41968 12.0183 9.41968C11.3809 9.41968 10.8407 9.82947 10.4725 10.4143C10.1022 11.0024 9.88135 11.7994 9.88135 12.6667C9.88135 13.534 10.1022 14.331 10.4725 14.9191C10.8407 15.5039 11.3809 15.9137 12.0183 15.9137Z" fill="white" stroke="white" stroke-width="0.5"/>
</mask>
<g mask="url(#mask2_6144_24297)">
<path fill-rule="evenodd" clip-rule="evenodd" d="M9.97481 12.7154H11.0486C11.0486 12.7154 11.7867 12.8789 11.4177 13.0076C11.0486 13.1362 11.0486 13.1788 11.0486 13.3623C11.0486 13.5458 11.0486 14.2174 11.0486 14.3608C11.0486 14.5042 11.3112 14.8112 10.7577 14.8112C10.2043 14.8112 9.72754 12.5361 9.72754 12.5361L9.97481 12.7154Z" fill="#6FAE21"/>
<path fill-rule="evenodd" clip-rule="evenodd" d="M14.1703 12.8389C14.1703 12.8389 13.1729 13.0359 12.4896 12.9702C11.8062 12.9045 11.5063 12.8389 11.5063 12.8389C11.5063 12.8389 11.9826 13.0866 12.1519 13.2942C12.3211 13.5018 12.6677 13.8608 13.021 13.8608C13.3743 13.8608 13.9159 14.1959 13.9159 14.1959L14.1703 12.8389Z" fill="#6FAE21"/>
<path fill-rule="evenodd" clip-rule="evenodd" d="M10.2676 11.0674C10.2676 11.0674 11.0899 11.2263 11.2879 11.4642C11.486 11.7022 11.0263 11.9401 12.2245 11.7022C13.4226 11.4642 14.3736 11.0492 14.3736 11.7022C14.3736 12.3552 14.269 12.9567 13.7534 12.9567C13.2378 12.9567 13.0321 12.9567 11.4598 12.9567C9.88737 12.9567 9.03021 13.4377 9.1403 12.6639C9.2504 11.89 10.2676 11.0674 10.2676 11.0674Z" fill="#F7FCFF"/>
</g>
</g>
</g>
</g>
<g style="mix-blend-mode:hard-light" opacity="0.12">
<rect width="24" height="24" rx="12" fill="white"/>
</g>
<rect width="24" height="24" fill="url(#paint0_linear_6144_24297)" fill-opacity="0.64" style="mix-blend-mode:overlay"/>
</g>
<defs>
<linearGradient id="paint0_linear_6144_24297" x1="24" y1="1.19273e-06" x2="-4.48665" y2="16.0237" gradientUnits="userSpaceOnUse">
<stop stop-color="white" stop-opacity="0.3"/>
<stop offset="0.262741" stop-opacity="0.27"/>
<stop offset="0.369956" stop-color="white" stop-opacity="0.26"/>
<stop offset="0.487001" stop-opacity="0.55"/>
<stop offset="0.594445" stop-opacity="0.24"/>
<stop offset="0.736408" stop-color="white" stop-opacity="0.3"/>
<stop offset="0.901459" stop-color="#272727" stop-opacity="0.22"/>
<stop offset="1" stop-opacity="0.2"/>
</linearGradient>
<clipPath id="clip0_6144_24297">
<rect width="24" height="24" rx="12" fill="white"/>
</clipPath>
<clipPath id="clip1_6144_24297">
<rect width="24" height="24" fill="white"/>
</clipPath>
</defs>
</svg>
