<svg width="140" height="40" viewBox="0 0 140 40" fill="none" xmlns="http://www.w3.org/2000/svg">
<rect x="0.5" y="0.5" width="139" height="39" rx="7.5" stroke="#292B2E"/>
<path d="M105.488 25.1701H107.241V13.4238H105.488V25.1701ZM121.279 17.6553L119.269 22.7478H119.209L117.123 17.6553H115.235L118.364 24.7727L116.579 28.7321H118.408L123.229 17.6553H121.279ZM111.335 23.836C110.762 23.836 109.961 23.5486 109.961 22.8384C109.961 21.9318 110.959 21.5843 111.819 21.5843C112.59 21.5843 112.953 21.7502 113.421 21.977C113.285 23.0653 112.348 23.836 111.335 23.836ZM111.548 17.3984C110.278 17.3984 108.964 17.9577 108.42 19.1968L109.976 19.8464C110.309 19.1968 110.928 18.9854 111.578 18.9854C112.485 18.9854 113.406 19.529 113.421 20.4964V20.6172C113.104 20.4358 112.424 20.1639 111.593 20.1639C109.915 20.1639 108.208 21.0855 108.208 22.8083C108.208 24.3799 109.583 25.3925 111.124 25.3925C112.302 25.3925 112.953 24.8636 113.36 24.2438H113.421V25.151H115.114V20.6472C115.114 18.5618 113.557 17.3984 111.548 17.3984ZM100.713 19.0852H98.2189V15.059H100.713C102.023 15.059 102.767 16.1439 102.767 17.072C102.767 17.9823 102.023 19.0852 100.713 19.0852ZM100.667 13.4238H96.4664V25.1701H98.2189V20.72H100.667C102.611 20.72 104.521 19.3135 104.521 17.072C104.521 14.8311 102.611 13.4238 100.667 13.4238ZM77.7592 23.8382C76.548 23.8382 75.5342 22.8237 75.5342 21.4316C75.5342 20.0234 76.548 18.9945 77.7592 18.9945C78.955 18.9945 79.8934 20.0234 79.8934 21.4316C79.8934 22.8237 78.955 23.8382 77.7592 23.8382ZM79.7723 18.313H79.7117C79.3183 17.8439 78.5611 17.4201 77.608 17.4201C75.6095 17.4201 73.7781 19.1762 73.7781 21.4316C73.7781 23.6716 75.6095 25.4123 77.608 25.4123C78.5611 25.4123 79.3183 24.9884 79.7117 24.5043H79.7723V25.0791C79.7723 26.6085 78.955 27.4255 77.6381 27.4255C76.5637 27.4255 75.8977 26.6536 75.6249 26.0029L74.0963 26.6386C74.5349 27.6978 75.7002 29 77.6381 29C79.6971 29 81.4378 27.7888 81.4378 24.8368V17.6623H79.7723V18.313ZM82.649 25.1701H84.4042V13.4238H82.649V25.1701ZM86.9928 21.2951C86.9476 19.751 88.1893 18.9641 89.0819 18.9641C89.7785 18.9641 90.3683 19.3124 90.5658 19.8116L86.9928 21.2951ZM92.442 19.9628C92.1091 19.0702 91.095 17.4201 89.0213 17.4201C86.9623 17.4201 85.252 19.0397 85.252 21.4162C85.252 23.6565 86.9476 25.4123 89.2176 25.4123C91.0491 25.4123 92.1091 24.2925 92.5484 23.6414L91.186 22.733C90.7317 23.3992 90.1114 23.8382 89.2176 23.8382C88.325 23.8382 87.689 23.4293 87.2809 22.627L92.6236 20.4171L92.442 19.9628ZM49.8717 18.6462V20.3415H53.9283C53.8072 21.2951 53.4893 21.9913 53.0049 22.4758C52.4144 23.0659 51.4909 23.717 49.8717 23.717C47.374 23.717 45.4214 21.7039 45.4214 19.2063C45.4214 16.7087 47.374 14.6953 49.8717 14.6953C51.2189 14.6953 52.2026 15.2252 52.9292 15.9064L54.1254 14.7103C53.111 13.7417 51.764 13 49.8717 13C46.4502 13 43.5742 15.7853 43.5742 19.2063C43.5742 22.627 46.4502 25.4123 49.8717 25.4123C51.7181 25.4123 53.111 24.8068 54.2007 23.6716C55.3209 22.5514 55.6692 20.9772 55.6692 19.7055C55.6692 19.3124 55.6386 18.949 55.5781 18.6462H49.8717ZM60.2812 23.8382C59.07 23.8382 58.0254 22.8391 58.0254 21.4162C58.0254 19.9782 59.07 18.9945 60.2812 18.9945C61.4919 18.9945 62.5365 19.9782 62.5365 21.4162C62.5365 22.8391 61.4919 23.8382 60.2812 23.8382ZM60.2812 17.4201C58.0705 17.4201 56.2696 19.1002 56.2696 21.4162C56.2696 23.717 58.0705 25.4123 60.2812 25.4123C62.491 25.4123 64.2924 23.717 64.2924 21.4162C64.2924 19.1002 62.491 17.4201 60.2812 17.4201ZM69.0313 23.8382C67.8209 23.8382 66.776 22.8391 66.776 21.4162C66.776 19.9782 67.8209 18.9945 69.0313 18.9945C70.2425 18.9945 71.2867 19.9782 71.2867 21.4162C71.2867 22.8391 70.2425 23.8382 69.0313 23.8382ZM69.0313 17.4201C66.8215 17.4201 65.0205 19.1002 65.0205 21.4162C65.0205 23.717 66.8215 25.4123 69.0313 25.4123C71.242 25.4123 73.043 23.717 73.043 21.4162C73.043 19.1002 71.242 17.4201 69.0313 17.4201Z" fill="#292B2E"/>
<path d="M35.2607 18.0664L35.2725 18.0742L35.2832 18.0801C35.9703 18.456 36.4336 19.184 36.4336 20.0205C36.4334 20.8628 35.9638 21.594 35.2695 21.9688L35.2637 21.9717L31.0234 24.4189L26.3633 20L31.0049 15.5996L35.2607 18.0664Z" fill="#292B2E"/>
<path d="M25.6514 19.999L17.252 28.6396C17.2505 28.6064 17.25 28.5728 17.25 28.5391V11.46C17.25 11.4262 17.2505 11.3927 17.252 11.3594L25.6514 19.999Z" fill="#292B2E"/>
<path d="M19.4609 9.25C19.8789 9.25 20.2698 9.36593 20.6045 9.56641L20.6074 9.56738L30.5566 15.3359L26.0078 19.6484L17.3652 10.7578C17.6582 9.88162 18.4874 9.25015 19.4609 9.25Z" fill="#292B2E"/>
<path d="M19.4609 30.7666C19.8789 30.7666 20.2698 30.6507 20.6045 30.4502L20.6074 30.4492L30.5566 24.6807L26.0078 20.3682L17.3652 29.2588C17.6582 30.135 18.4874 30.7665 19.4609 30.7666Z" fill="#292B2E"/>
</svg>
