<svg width="44" height="44" viewBox="0 0 44 44" fill="none" xmlns="http://www.w3.org/2000/svg">
<path d="M22.0159 43.9872C34.1574 43.9872 44 34.1403 44 21.9936C44 9.84687 34.1574 0 22.0159 0C9.87437 0 0.0317383 9.84687 0.0317383 21.9936C0.0317383 34.1403 9.87437 43.9872 22.0159 43.9872Z" fill="#DCF4FF"/>
<mask id="mask0_4558_45130" style="mask-type:alpha" maskUnits="userSpaceOnUse" x="0" y="0" width="44" height="44">
<path d="M22.0159 43.9872C34.1574 43.9872 44 34.1403 44 21.9936C44 9.84687 34.1574 0 22.0159 0C9.87437 0 0.0317383 9.84687 0.0317383 21.9936C0.0317383 34.1403 9.87437 43.9872 22.0159 43.9872Z" fill="#DCF4FF"/>
</mask>
<g mask="url(#mask0_4558_45130)">
<path d="M44.1089 16.0003L43.729 16.039L43.9345 15.8229L44.1089 16.0003Z" fill="#90C6DE"/>
<path d="M42.8694 16.5323L43.1092 16.6065C43.1092 16.6065 42.9722 16.9258 42.6982 16.9258C42.4242 16.9258 42.6982 16.6775 42.8726 16.5323H42.8694Z" fill="#90C6DE"/>
<path d="M42.0444 17.1064L42.3527 17.1419C42.3527 17.1419 41.5618 17.7482 41.3874 17.6772C41.2193 17.6031 41.9386 17.1096 42.0444 17.1096V17.1064Z" fill="#90C6DE"/>
<path d="M40.9795 17.8127L41.1539 17.8869C41.1539 17.8869 40.9141 18.3126 40.637 18.4545C40.3598 18.5996 40.774 17.9933 40.9795 17.8127Z" fill="#90C6DE"/>
<path d="M40.4968 18.7576C40.5062 18.8253 40.5093 18.8866 40.4999 18.9189C40.4626 19.0608 39.7775 19.0608 39.6374 19.3446C39.5004 19.6251 39.1205 19.6993 39.0178 19.5929C38.915 19.4865 38.3327 19.4865 38.2299 19.5929C38.1272 19.6993 38.5382 20.6959 38.641 21.3344C38.7437 21.9762 38.2953 22.4761 37.984 22.9018C37.6757 23.3275 38.0867 24.1499 37.8158 24.2886C37.5387 24.4305 36.3025 24.682 35.8198 25.1432C35.3403 25.6044 34.9293 25.6044 34.9293 25.1077C34.9293 24.6111 33.7585 25.1754 33.553 25.1754C33.3474 25.1754 33.1793 25.4625 33.2104 25.6012C33.2447 25.7463 33.1762 26.2075 33.1077 26.6686C33.0361 27.133 32.5908 27.1685 32.5596 26.9879C32.5223 26.8138 32.5597 26.3461 32.4569 26.101C32.3541 25.8527 32.1486 26.0656 32.1113 25.8882C32.077 25.7076 32.5223 25.3883 32.5223 25.3883C32.5223 25.3883 33.0049 25.14 33.3132 24.7143C33.6215 24.2886 34.4155 24.3208 34.8265 24.1789C35.2375 24.037 35.5116 23.7532 35.6143 23.4307C35.7171 23.1114 36.3367 23.005 36.7851 22.9308C37.2304 22.8631 37.4048 21.5086 37.4048 21.2602C37.4048 21.0119 37.5418 20.6539 37.6445 20.4411C37.7473 20.2282 37.4702 19.9799 37.4048 19.6219C37.3332 19.2672 38.0244 18.8414 38.3327 18.5931C38.641 18.3416 38.5008 17.4869 38.5382 17.1322C38.5725 16.7774 39.2606 17.774 39.2606 17.8804C39.2606 17.9449 39.5502 18.0223 39.846 18.0739C40.1792 18.1352 40.447 18.4028 40.4937 18.7544L40.4968 18.7576Z" fill="#176C93"/>
<path d="M39.6372 13.3299C39.9455 14.2555 39.6746 14.1168 39.3975 14.0104C39.1203 13.904 39.055 14.9715 39.055 15.3972C39.055 15.8229 39.466 16.4647 39.3632 16.426C39.2605 16.3905 38.9148 16.2131 38.9148 16.3582C38.9148 16.5034 38.5412 17 38.4696 16.8194C38.3979 16.6388 38.7093 15.8583 38.6066 15.3262C38.5038 14.7909 38.5412 14.7199 38.5412 14.3651C38.5412 14.0104 38.6066 12.4108 38.5038 11.769C38.401 11.1272 38.7809 10.2758 39.055 9.84686C39.3259 9.42115 39.2605 10.5209 39.2605 11.5174C39.2605 11.5174 39.3259 12.4108 39.6341 13.3331L39.6372 13.3299Z" fill="#90C6DE"/>
<path d="M34.1104 25.1109C35.0009 24.9303 34.8639 25.5366 34.6584 25.6463C34.4436 25.756 34.2785 25.6818 34.1758 25.6818C34.073 25.6818 33.936 25.8624 33.936 26.0752C33.936 26.2881 33.4907 26.0752 33.4907 26.0752C33.4907 26.0752 33.525 25.5399 33.7305 25.4334C33.7305 25.4334 33.7429 25.1851 34.1104 25.1142V25.1109Z" fill="#176C93"/>
<path d="M32.4567 19.209L32.5439 19.2735L32.6031 19.6315C32.1173 20.0572 31.6129 20.6829 31.4167 21.0054C31.1645 21.4117 31.3108 21.7923 31.5164 22.1696L31.2361 22.3406L30.6912 22.3664L30.4857 22.7114L29.7446 22.7276C29.5889 22.6373 29.5017 22.5083 29.564 22.2825C29.6916 21.8052 29.7695 21.215 29.1997 21.3214C29.1841 21.3247 29.1654 21.3311 29.1467 21.3343L29.7166 20.6539L30.1027 20.5216L30.5635 19.854L30.769 20.1185L31.261 20.2249V19.7154L31.6253 19.6638L32.0083 19.3703L32.1111 18.9446L32.463 19.1994L32.4567 19.209Z" fill="#90C6DE"/>
<path d="M31.7968 22.6921C32.0802 23.2501 32.6749 24.2369 31.5415 24.6659C30.4081 25.0916 30.1776 25.5495 30.2524 25.0174C30.3302 24.482 30.9499 23.1469 30.4579 22.9888C30.1994 22.905 29.9223 22.8469 29.7417 22.7373L30.4828 22.7212L30.6883 22.3761L31.2332 22.3503L31.5135 22.1794C31.6038 22.3503 31.7128 22.5212 31.7968 22.6954V22.6921Z" fill="#90C6DE"/>
<path d="M29.9159 39.8075C30.0187 39.772 30.4639 40.0945 30.4328 40.3429C30.3986 40.5944 30.4671 41.0911 30.3985 41.3426C30.3269 41.5909 30.193 41.1298 30.0187 41.2362C29.8443 41.3426 30.0529 41.4845 29.9844 41.7329C29.9128 41.9844 29.7789 41.9457 29.5018 41.807C29.2246 41.6651 29.262 41.1652 28.9849 41.0588C28.7077 40.9524 28.2313 40.846 28.1597 41.1652C28.0881 41.4845 27.7487 41.4845 27.8172 41.2394C27.8826 40.9879 28.2967 40.5267 28.5022 40.5267C28.7077 40.5267 29.2931 40.6331 29.2931 40.4912C29.2931 40.3493 29.7384 40.1332 29.7384 40.1332L29.9128 39.8139L29.9159 39.8075Z" fill="#90C6DE"/>
<path d="M29.6981 38.2078C29.7105 38.1239 29.7136 38.0401 29.7136 37.9562V37.9433C29.8195 37.9691 29.9441 38.0207 30.0344 38.024C30.19 38.5367 30.0312 39.1334 29.642 39.4913C29.5953 39.5333 29.5393 39.5752 29.4801 39.5591C29.4521 39.5558 29.4271 39.5333 29.4054 39.5075C29.287 39.3656 29.3057 39.143 29.3773 38.9721C29.4521 38.798 29.5673 38.6464 29.6327 38.469C29.6669 38.3852 29.6825 38.2949 29.6949 38.2046L29.6981 38.2078Z" fill="#90C6DE"/>
<path d="M29.7136 37.9433V37.9562C29.7136 38.0401 29.7104 38.1239 29.698 38.2078C29.617 38.1336 29.4925 38.0917 29.5174 38.0014C29.5423 37.9175 29.6201 37.9175 29.7167 37.9401L29.7136 37.9433Z" fill="#90C6DE"/>
<path d="M29.2962 38.4174C29.3678 38.8109 28.4399 38.5626 28.7108 38.4174C28.9879 38.2755 28.6765 37.9208 28.608 37.7756C28.5426 37.6337 27.8202 37.7402 27.512 37.8143C27.2037 37.8821 27.3376 37.4951 27.1009 37.1726C26.8581 36.8533 26.8238 36.3534 26.9608 36.0309C27.0511 35.8245 27.1259 35.5149 27.185 35.215C27.238 34.9473 27.4621 34.7505 27.7237 34.7376C27.8109 34.728 27.9043 34.7247 27.9915 34.7151C28.3371 34.6764 28.3371 35.1763 28.3371 35.531C28.3371 35.8858 27.8887 36.4921 27.9261 36.7436C27.9604 36.992 28.4741 37.2403 28.7513 37.3112C29.0222 37.3854 29.2308 38.024 29.2993 38.4142L29.2962 38.4174Z" fill="#90C6DE"/>
<path d="M28.7233 39.1785C28.7856 39.1173 28.879 39.1044 28.9569 39.1398C28.8386 39.4398 28.7918 39.7687 28.8292 40.0848C28.7358 40.1654 28.577 40.0945 28.5272 39.9784C28.4773 39.8623 28.5023 39.7268 28.5396 39.6075C28.577 39.4882 28.6299 39.3688 28.6268 39.2398L28.7202 39.1785H28.7233Z" fill="#90C6DE"/>
<path d="M28.3932 38.2335C28.7233 38.5753 28.6486 39.2332 28.2531 39.4945C28.2189 39.517 28.1753 39.5364 28.1348 39.5235C28.085 39.5106 28.06 39.4558 28.0445 39.4042C27.9199 39.0236 27.8016 38.7204 27.9075 38.327L27.9293 38.2367C27.9822 38.0496 28.2625 38.0948 28.3963 38.2335H28.3932Z" fill="#90C6DE"/>
<path d="M28.0601 30.8772C28.2344 30.8772 27.8857 31.519 27.8857 31.6577C27.8857 31.7963 27.4404 32.8316 27.3034 32.7993C27.1633 32.7606 27.0979 32.264 27.0605 31.9447C27.0263 31.6254 27.4062 31.1255 27.6802 30.9127C27.6802 30.9127 27.8857 30.8772 28.0601 30.8772Z" fill="#90C6DE"/>
<path d="M26.5155 39.2398C26.6089 39.2011 26.9982 39.1334 26.9266 39.2398C26.8549 39.3462 25.8243 40.4137 25.516 40.4137C25.2077 40.4137 26.0983 39.414 26.5124 39.2398H26.5155Z" fill="#90C6DE"/>
<path d="M26.7896 15.8937C26.855 16.213 26.718 16.2517 26.718 16.2517L25.6531 16.1453L25.5814 16.4258L25.0988 16.5323L24.7905 17.1031H24.2736L23.5886 17.5643L22.7261 17.4224L22.4178 17.919L22.6233 18.5253L22.2123 18.7382C22.2123 18.7382 21.8386 19.2736 21.5272 19.38C21.219 19.4864 20.2194 19.4542 20.2194 19.4542C20.2194 19.4542 19.0144 20.0959 18.9116 20.0959C18.8088 20.0959 18.7746 19.738 18.7746 19.738L18.1892 19.8831L16.8502 19.3123C16.8502 19.3123 14.5834 19.2768 14.3094 19.0994C14.0322 18.9252 14.0011 18.0319 14.0011 18.0319C14.0011 18.0319 13.5184 17.9964 13.2787 17.7126C13.0358 17.432 12.385 17.3579 11.9024 17.4321C11.4228 17.4998 11.4228 17.3256 11.6314 16.6451C11.837 15.9711 11.5287 15.8969 11.2858 15.4035C11.0461 14.9036 10.3579 14.9778 10.087 14.6553C9.94998 14.4973 9.96243 14.2489 10.0122 14.0361H10.0154C10.087 13.9748 10.143 13.8909 10.143 13.8909L10.635 13.8103L12.2355 12.6106L12.6964 12.7686L12.7213 12.9267C12.7213 12.9267 13.2133 12.7138 13.3409 13.0363C13.4717 13.3524 13.8859 13.4878 14.191 13.3814C14.5055 13.275 14.8885 13.5942 15.1221 13.62C15.3525 13.6458 15.5051 13.0621 15.4023 12.8976C15.2995 12.7396 15.1719 12.2042 15.8133 11.5109L16.2804 11.7527L16.2524 11.9366L16.9001 11.9656L17.4388 12.23C17.4388 12.23 17.4886 12.63 17.8249 13.0589C18.1581 13.4846 18.9832 13.1363 19.5001 13.0331C20.017 12.9234 20.1976 13.4588 20.1976 13.4588C20.1976 13.4588 20.5059 13.404 20.6086 13.6716C20.7114 13.9361 21.356 14.0974 21.9974 14.0974C22.6389 14.0974 23.2087 13.8845 23.573 13.4556C23.9311 13.0299 24.0837 13.2685 24.2176 13.4007C24.3453 13.533 24.6286 13.3459 24.9898 13.4814C25.077 13.5104 25.1673 13.5459 25.2576 13.5749L24.4823 14.9681L24.6566 15.2874L25.242 15.181L25.5129 15.3938C25.5129 15.3938 25.6157 15.0745 25.7901 15.0358C25.9644 15.0004 26.718 15.5712 26.7865 15.8905L26.7896 15.8937Z" fill="#90C6DE"/>
<path d="M26.1357 42.8421L24.8653 42.7615L24.2955 43.829L23.8844 44.3063L22.9596 44.2547L22.7012 44.4676C22.7012 44.4676 22.0286 44.6804 21.7732 44.5192C21.658 44.4514 21.5428 44.2515 21.4463 44.0483C21.5459 44.0128 21.6643 44.0064 21.8044 44.0064C22.2528 44.0064 22.4614 43.7935 22.9378 43.4355C23.2212 43.2259 23.7132 42.8002 24.2083 42.3681L24.4356 42.5487L24.7688 42.439L24.7407 42.1487L24.6753 41.9552C24.856 41.7972 25.0272 41.6424 25.1736 41.5166C25.1736 41.5166 25.376 41.1748 25.4818 41.1974C25.7745 41.2586 25.6873 41.6972 26.3755 42.0165C26.8301 42.2294 26.4751 42.5454 26.1326 42.8454L26.1357 42.8421Z" fill="#90C6DE"/>
<path d="M21.9788 33.899C22.3898 33.9732 22.013 34.2537 21.876 34.6472C21.739 35.0406 21.0851 34.8955 20.9481 34.7214C20.8111 34.5408 21.1225 34.0086 21.465 33.7958C21.465 33.7958 21.5678 33.8313 21.9819 33.9022L21.9788 33.899Z" fill="#90C6DE"/>
<path d="M10.0994 29.1292L10.0714 29.1195L9.76627 29.255L9.11859 28.8777L8.29342 28.5584L8.08791 28.3455L7.75472 28.452L7.11017 27.8618L6.69914 27.5715L6.49362 27.5812L6.15421 27.5973L5.61552 27.3038L5.09862 26.5814L5.27923 26.5556L5.25431 25.5946V25.085L4.81838 24.311H4.45406L4.01812 23.9917L3.59776 23.5047L3.16804 23.2725L3.24277 23.0597L3.32062 22.8178L3.0902 22.3921L2.47054 22.1276L2.39893 21.6149L2.51725 21.5923L2.5951 21.1666L3.03103 21.1117L3.13379 20.8731L3.44206 20.7925L3.46697 20.9795L4.01189 21.0053L4.08662 20.6602L4.60664 20.1507H5.1173L5.37575 19.9378L5.93936 19.5669V19.0316L6.25386 18.7639L5.86774 17.4836L6.71782 17.2449L7.15375 17.3255L7.051 16.8418L7.46202 15.6679L8.34013 16.0194C8.34013 16.0194 8.72624 16.0194 8.75115 15.5098C8.77607 15.0003 8.75115 14.8939 8.75115 14.8939L9.37081 14.5488L9.3459 14.2295L9.68531 14.0328C9.77249 14.0715 9.85034 14.0973 9.8877 14.0973C9.92507 14.0973 9.96866 14.0682 10.0123 14.0295C9.96243 14.2424 9.94999 14.4907 10.087 14.6487C10.3579 14.968 11.0492 14.8971 11.2858 15.397C11.5287 15.8936 11.837 15.9646 11.6315 16.6386C11.4259 17.3191 11.4259 17.4932 11.9024 17.4255C12.385 17.3513 13.0358 17.4255 13.2787 17.7061C13.5184 17.9931 14.0011 18.0254 14.0011 18.0254C14.0011 18.0254 14.0353 18.9187 14.3094 19.0929C14.5803 19.2735 16.8503 19.3057 16.8503 19.3057L18.1892 19.8766L18.7746 19.7314C18.7746 19.7314 18.8089 20.0894 18.9116 20.0894C19.0144 20.0894 20.2194 19.4476 20.2194 19.4476C20.2194 19.4476 21.2159 19.4831 21.5272 19.3734C21.8355 19.267 22.2123 18.7317 22.2123 18.7317L22.6233 18.5188L22.4178 17.9125L22.7261 17.4158L23.5886 17.5577L24.2736 17.0966H24.7905L25.0988 16.5257L25.5814 16.4193L25.6531 16.1387L26.718 16.2451C26.718 16.2451 26.855 16.2064 26.7896 15.8872C26.718 15.5679 25.9645 15.0003 25.7932 15.0325C25.6188 15.0712 25.5161 15.3905 25.5161 15.3905L25.2452 15.1777L24.6598 15.2841L24.4854 14.9648L25.2607 13.5716C25.5534 13.6683 25.8679 13.7522 26.1015 13.6909C26.4097 13.6103 26.5934 13.2072 26.5374 13.1007C26.4876 12.9943 26.7678 12.4589 26.8208 12.2203C26.8737 11.9816 27.3377 11.6043 27.3377 11.6043L27.2878 11.1786C27.2878 11.1786 26.9733 11.285 27.0543 10.9657C27.1321 10.6465 27.649 10.5142 27.8016 10.5142C27.9542 10.5142 28.3715 10.2498 29.2994 10.4884C30.2273 10.7271 30.3051 11.5011 30.4079 11.5011C30.5107 11.5011 30.5107 12.3848 30.5107 12.3848L30.9217 13.1588L31.0493 13.7167L31.588 13.7973L31.9212 13.878L32.2855 14.2746L32.4911 14.3553C32.4911 14.3553 32.5938 14.8906 32.5409 15.1035C32.4911 15.3163 33.0329 15.3163 33.366 15.3163C33.6992 15.3163 33.8331 14.9713 33.8331 14.9713L34.7112 14.81V15.3454C34.7112 15.3454 34.3469 15.7453 34.4279 15.9355C34.5057 16.1194 34.2224 16.6031 33.9857 17.0546C33.7553 17.5126 33.7304 17.4545 33.475 17.2675C33.2166 17.0837 32.8554 17.4803 32.7495 17.5868C32.6499 17.6932 32.9301 18.1512 32.9301 18.1512L32.8554 19.0832L32.4568 19.2057L32.1049 18.951L32.0022 19.3767L31.6192 19.6701L31.2549 19.7217V20.2313L30.7629 20.1249L30.5574 19.8604L30.0965 20.528L29.7104 20.6602L29.1406 21.3407C28.6174 21.4729 27.9355 22.1212 27.7393 22.0115C27.7238 22.0019 27.7113 21.989 27.702 21.9696C27.5712 21.7052 28.3933 20.0475 27.1072 21.0634C25.8181 22.076 25.5597 23.0919 26.4346 22.9307C26.6931 22.8823 27.0076 22.8533 27.2972 22.8533C27.976 22.8533 28.5085 23.0274 27.8016 23.5692C26.799 24.3465 26.4907 24.2916 27.1571 25.4398C27.8296 26.5847 28.9164 27.8102 26.9765 30.187C25.186 32.3897 23.4142 32.9315 22.0192 33.0896C21.8916 33.1025 21.7639 33.1154 21.6456 33.125C21.5739 33.1283 21.5085 33.1347 21.4463 33.1379C21.1006 33.1637 20.8609 33.1863 20.6803 33.2121L20.4561 32.938L19.9174 32.5381L19.9952 32.351L19.5281 32.193L19.195 31.9253L18.5224 32.3833L18.1394 32.2511L17.9837 32.5671L17.5727 32.4091L17.5509 32.5542V32.5961L17.2115 32.4897L17.3142 32.9154L17.3921 33.1799L17.0277 33.1025V32.809L16.8285 32.9928L16.4859 32.967L16.2804 32.78L16.1527 32.3543L15.8383 31.9286L15.7386 31.5319L15.1439 31.4512L15.0909 31.2642L15.3494 30.5966L15.6826 30.4902L15.7075 29.4485H15.5549L15.1688 28.839L15.0287 28.8809L14.8356 28.9422L14.3934 28.4133L14.0104 28.3842H13.5184L13.1323 28.6261L12.4878 29.0518L12.3072 29.5033L12.2947 29.6097L12.0269 29.4227L11.8463 29.0228L11.4353 29.0518L11.2796 28.9712H10.9993L10.5136 29.5162L10.3828 29.2098L10.0994 29.1357V29.1292Z" fill="#176C93"/>
<path d="M22.0193 33.0929L21.9788 33.3154L21.8231 33.6863L21.5678 33.4186L21.4495 33.1413C21.5117 33.138 21.5771 33.1316 21.6488 33.1284C21.7671 33.1187 21.8947 33.1058 22.0224 33.0929H22.0193Z" fill="#90C6DE"/>
<path d="M20.643 36.1989C21.3561 37.3018 21.8729 38.3338 20.3285 39.4787C18.6003 40.7591 19.0425 40.3334 18.5225 39.3465L18.9895 39.2401L19.0425 39.0014L19.5282 38.9724L19.4784 38.5757L19.7337 38.5467L19.7587 38.308L20.0981 38.2822L20.3036 38.0436L20.3783 37.347L20.2662 37.018L20.4063 36.9761L20.4842 36.6246L20.2506 36.4117L20.3285 36.1989H20.643Z" fill="#90C6DE"/>
<path d="M20.4561 32.9379L20.6803 33.2121C20.2194 33.2798 20.1945 33.3959 19.9672 33.7668C19.4409 34.6504 19.1638 33.9345 20.3782 35.7953C20.4685 35.9308 20.5557 36.063 20.6429 36.1952H20.3284L20.098 36.0888L19.8675 35.9792L19.8395 35.6083L18.9365 34.6472L18.6314 34.4602L18.4258 34.1151L18.8618 34.2215L18.9645 33.8216L18.731 33.6087L18.8088 33.4217L18.4757 33.3959L18.2951 33.4765L18.0397 33.3443L17.937 32.8928L17.7813 32.8638L17.554 32.5574L17.5758 32.4123L17.9868 32.5703L18.1425 32.2542L18.5255 32.3865L19.1981 31.9285L19.5312 32.1962L19.9983 32.3542L19.9205 32.5413L20.4592 32.9412L20.4561 32.9379Z" fill="#90C6DE"/>
<path d="M20.2661 37.0145L20.073 37.079L19.7367 37.021L19.609 37.1597L19.6339 37.3983L19.2976 37.2919L19.1669 37.0823L19.2727 37.079L19.3475 36.4082L18.9364 35.9535V35.4504L18.4258 34.8602L18.0365 34.9118L17.8559 35.2375L17.42 35.0505L16.9529 35.2633L17.0557 34.17H16.6696L16.5948 33.8185L16.4485 33.6282L16.8502 32.9897H16.8346L17.0308 32.8059V33.1026L17.3951 33.18L17.3141 32.9155L17.2114 32.4866L17.5477 32.593L17.5508 32.5511L17.7781 32.8575L17.9338 32.8897L18.0365 33.3412L18.2919 33.4734L18.4756 33.3928L18.8088 33.4186L18.7309 33.6057L18.9645 33.8185L18.8617 34.2216L18.4258 34.1152L18.6313 34.4603L18.9364 34.6474L19.8395 35.6084L19.8675 35.9793L20.0979 36.0922L20.3283 36.1922L20.2505 36.4082L20.4871 36.6211L20.4093 36.9694L20.2661 37.0145Z" fill="#90C6DE"/>
<path d="M20.266 37.0144L20.3781 37.3434L20.3034 38.04L20.0979 38.2787L19.7585 38.3045L19.7336 38.5431L19.4782 38.5721L19.528 38.9688L19.0423 38.9978L18.9894 39.2365L18.5223 39.3429C18.2763 38.8656 18.0054 38.5044 17.7438 38.2625L17.6255 37.7401L18.0863 37.1241L19.1668 37.0757L19.2976 37.2853L19.6308 37.3918L19.6059 37.1531L19.7336 37.0177L20.073 37.0725L20.266 37.008V37.0144Z" fill="#90C6DE"/>
<path d="M30.9434 44.4516C30.8656 44.3613 30.8376 44.2323 30.8718 44.1194C30.9185 43.9775 31.0618 43.8775 31.205 43.884C31.3046 43.8872 31.3949 43.9388 31.4852 43.9904C31.5911 44.0549 31.7063 44.1194 31.7811 44.2258C31.8527 44.3322 31.8714 44.4903 31.7904 44.5902C31.697 44.6999 31.5195 44.687 31.4199 44.7967C31.2392 44.9966 31.4697 45.4288 31.233 45.5578C31.1178 45.619 30.9683 45.532 30.9154 45.4094C30.8562 45.2869 30.8687 45.145 30.8812 45.0095C30.903 44.8257 30.9216 44.6418 30.9403 44.458L30.9434 44.4516Z" fill="#90C6DE"/>
<path d="M26.3069 44.503C26.5124 44.6095 26.1699 44.8223 25.7589 45.0384C25.3478 45.2512 25.4132 45.8253 25.3105 46.5703C25.2077 47.3185 24.6597 47.3185 24.1771 47.2443C23.6975 47.1701 23.5574 46.9573 22.5983 46.8896C21.6362 46.8154 21.7047 46.6025 21.6362 46.2091C21.5645 45.8221 21.1878 45.248 21.1535 44.6804C21.1317 44.2934 21.2345 44.1225 21.4462 44.0483C21.5396 44.2482 21.658 44.4482 21.7732 44.5192C22.0285 44.6804 22.7011 44.4675 22.7011 44.4675L22.9595 44.2547L23.8843 44.3063L24.2954 43.829L24.8652 42.7615L26.1356 42.8421C25.9582 42.9905 25.7807 43.1421 25.7246 43.2614C25.5565 43.6161 26.1045 44.3966 26.31 44.503H26.3069Z" fill="#90C6DE"/>
<path d="M19.8831 46.4254C20.2568 46.7446 19.5748 46.9607 19.7087 47.7057C19.8457 48.4539 18.7808 48.3475 18.267 48.025C17.7532 47.7025 16.2399 45.1805 15.6887 44.3613C15.1407 43.5422 14.7608 43.1133 14.1412 42.5811C13.5215 42.0458 13.9357 41.978 14.2439 41.978C14.2439 41.978 15.3774 42.1522 16.3053 43.4003C16.7506 43.9969 18.0895 44.7548 18.1923 44.9677C18.295 45.1805 18.4694 45.6417 18.8804 45.8545C19.2915 46.0674 19.5001 46.1029 19.8769 46.4221L19.8831 46.4254Z" fill="#90C6DE"/>
<path d="M19.167 37.0822L18.0865 37.1306L17.6257 37.7466L17.744 38.2691C17.4638 38.0078 17.196 37.8821 16.9811 37.8821C16.5701 37.8821 16.2307 38.2336 16.2556 38.9237C16.2836 39.6171 15.9224 39.9654 16.595 40.7395C16.9531 41.1523 17.3205 41.4103 17.6132 41.6263L17.4202 41.8618L16.9842 42.0198L16.9313 41.5683L16.623 41.4877L16.3428 41.5489C16.2027 41.0265 15.9785 40.5621 15.72 40.4202C15.4896 40.2976 15.5799 39.9848 15.6297 39.4494L15.9816 38.8173L16.0843 38.1207L15.9287 37.4048L15.4678 36.7372L15.6204 36.5501L15.7512 35.9083L15.4118 35.3181L15.0007 34.7602L15.1813 34.6796L15.2841 34.3603V33.9894L15.6951 33.7218L16.4175 33.696L16.4549 33.6347L16.5981 33.8282L16.6729 34.1797H17.059L16.9562 35.273L17.4233 35.0601L17.8592 35.2472L18.0398 34.9215L18.426 34.8699L18.9366 35.4601V35.9632L19.3476 36.4147L19.2729 37.0855H19.167V37.0822Z" fill="#90C6DE"/>
<path d="M18.6843 44.3514L18.5784 44.3934L18.5846 44.5191C18.5535 44.5127 18.5192 44.4933 18.4756 44.4708C17.9837 44.1741 16.489 43.4291 16.489 42.6325C16.489 42.3003 16.433 41.9068 16.3364 41.5424L16.6167 41.4811L16.9249 41.5618L16.9779 42.0133L17.4138 41.8552L17.61 41.6198C17.8622 41.8004 18.0522 41.9617 18.1362 42.1681C18.3137 42.626 17.9587 42.8647 18.3137 43.4C18.5379 43.7322 18.731 44.1676 18.7341 44.3901L18.6812 44.3514H18.6843Z" fill="#90C6DE"/>
<path d="M16.8346 32.9896H16.8502L16.4516 33.6249L16.4142 33.6862L15.6918 33.712L15.2808 33.9796V34.3505L15.178 34.6698L14.9974 34.7504L15.4084 35.3084L15.7479 35.8985L15.6171 36.5403L15.4645 36.7274L15.9253 37.395L16.081 38.1109L15.9783 38.8075L15.6264 39.4396C15.6762 38.9656 15.6887 38.3077 15.4084 37.4466C14.8137 35.6309 15.2029 35.3374 14.686 35.7953C14.1691 36.2469 13.3004 36.7306 13.5277 35.3116C13.6304 34.6698 12.3943 33.8184 12.3164 33.3379C12.3164 33.3379 12.3569 33.2218 12.3693 33.0863L12.4721 33.125L12.6496 32.609V32.5929L12.8302 32.4058L12.9579 31.4964L13.3222 31.577L13.6304 30.9094L13.5775 30.5901L13.8609 30.1386V29.9774L14.3996 29.5517L14.7857 29.6323L14.8386 29.2872L15.0161 29.2614L15.0317 28.8776L15.1718 28.8357L15.5579 29.4452H15.7105L15.6856 30.4869L15.3524 30.5933L15.0939 31.2609L15.1469 31.448L15.7416 31.5286L15.8413 31.9253L16.1558 32.351L16.2834 32.7767L16.4889 32.9638L16.8315 32.9896H16.8346Z" fill="#90C6DE"/>
<path d="M10.5166 29.5099L10.5914 29.6873L10.8965 29.7873L11.8525 29.8195L12.2884 29.7357L12.3009 29.6034L12.3133 29.497L12.497 29.0455L13.1385 28.6166L13.5277 28.3747H14.0166L14.3996 28.4037L14.8417 28.9326L15.0348 28.8746L15.0192 29.2584L14.8417 29.2842L14.7888 29.6292L14.3996 29.5486L13.8609 29.9775V30.1388L13.5744 30.5903L13.6305 30.9128L13.3191 31.5772L12.9579 31.4965L12.8302 32.406L12.6527 32.5931L12.6496 32.6124L12.4161 32.2996L12.3133 31.79L12.1078 31.7642L12.0331 32.0061L11.7497 32.1125L11.7217 31.5256L12.058 31.3933L12.4161 30.9676L11.102 30.7548L10.8965 30.2452L10.8467 30.4033L10.4325 30.0324L10.2519 30.1646L10.1897 30.242L10.0994 30.1646V29.1294L10.3858 29.2035L10.5166 29.5099Z" fill="#90C6DE"/>
<path d="M12.6496 32.6126L12.4721 33.1286L12.3694 33.0899C12.3974 32.79 12.2915 32.3804 11.3636 32.7255C11.1332 32.8158 10.8934 32.919 10.6537 33.0319L10.6163 31.9773H10.3578L10.4606 31.2549L9.99976 31.1775L10.0496 30.9646L10.6194 30.7776L9.99976 30.4841L10.1928 30.2422L10.2551 30.1648L10.4357 30.0326L10.8467 30.4035L10.8965 30.2454L11.102 30.755L12.4161 30.9679L12.058 31.3936L11.7186 31.5258L11.7466 32.1095L12.03 32.0031L12.1047 31.7644L12.3102 31.7902L12.413 32.2998L12.6434 32.6126H12.6496Z" fill="#90C6DE"/>
<path d="M12.3011 29.6033L12.2886 29.7356L11.8527 29.8194L10.8967 29.7872L10.5916 29.6872L10.5168 29.5098L11.0026 28.9648H11.2828L11.4417 29.0454L11.8527 29.0164L12.0333 29.4163L12.3011 29.6033Z" fill="#90C6DE"/>
<path d="M10.6164 31.9804L10.6538 33.035C9.49853 33.6026 8.33707 34.4798 7.65203 35.2087C6.82686 36.0923 5.89893 36.2503 5.89893 37.0502C5.89893 37.85 5.97678 38.682 5.82109 39.2658C5.66851 39.8559 4.71256 41.0041 4.43232 40.6267C4.14896 40.2494 2.55156 37.0792 2.31802 36.0633C2.0876 35.0506 1.93501 33.3446 1.93501 33.1027C1.93501 32.8608 1.85717 33.2607 1.5489 33.3672C1.24063 33.4736 0.350071 33.8251 -0.487551 31.7901C-0.490665 31.7804 -0.496886 31.774 -0.5 31.7643L-0.126345 31.6063L-0.0267 31.3934L0.851405 31.445L1.13477 31.258L0.929251 30.5098L0.723736 30.484L0.670797 30.0583L0.387446 30.0034L0.36253 29.7648L0.773559 29.2068L0.929251 29.3133L1.49285 29.2617L1.85717 28.5651L2.03466 28.5909L2.29311 28.1942L2.31802 27.9007L2.49863 27.9265L2.60138 27.5814L3.03732 27.3137L2.96259 26.8364L3.58224 26.3527H3.06223L3.01241 26.0624H2.67923L2.52353 25.8205L2.42078 25.5271H2.72905L2.47371 24.9982L2.8318 24.6466L2.37096 24.3822L1.87897 24.1145L1.95681 23.6372L2.18724 23.5308L2.17479 23.3985C2.29 23.3824 2.39586 23.3695 2.44257 23.3695C2.57335 23.3695 3.06223 23.2921 3.06223 23.2921L3.24283 23.0793L3.1681 23.2921L3.59781 23.5243L4.01817 24.0113L4.45412 24.3306H4.81843L5.25437 25.1046V25.6141L5.27928 26.5752L5.09868 26.601L5.61557 27.3234L6.15427 27.6169L6.49368 27.6008L6.21032 27.833L5.90205 28.2103L5.85223 28.6618L7.241 29.4358L7.86066 29.568L8.14401 29.4616L8.50211 29.8615L8.86642 29.8357L8.94427 30.0744L10.1026 30.1808L10.1929 30.2582L9.99986 30.5001L10.6195 30.7936L10.0497 30.9806L9.99986 31.1935L10.4607 31.2709L10.358 31.9933H10.6164V31.9804Z" fill="#90C6DE"/>
<path d="M10.0995 29.1295V30.1647L8.94116 30.0583L8.86331 29.8196L8.499 29.8454L8.14091 29.4423L7.85755 29.5487L7.2379 29.4165L5.84912 28.6425L5.89894 28.191L6.20721 27.8169L6.49369 27.5847L6.6992 27.575L7.11023 27.8652L7.75479 28.4554L8.08797 28.349L8.29349 28.5618L9.11865 28.8843L9.76634 29.2585L10.0715 29.123L10.0995 29.1295Z" fill="#90C6DE"/>
<path d="M1.01646 19.5766L-0.18237 20.4829L-0.197935 20.7699L-0.577825 20.3926L-1.22862 20.4151L-1.19437 19.825L-1.36252 19.5766L-1.55246 19.009L-1.72683 19.0251L-2.10672 18.4704L-3.68544 18.5607C-3.68544 18.5607 -4.66318 17.4771 -5.4541 17.0482L-6.86467 17.5126L-6.89269 20.3055H-7.18851C-7.18851 20.3055 -7.67115 19.5573 -7.8393 19.5024C-7.96385 19.4637 -8.35619 19.7089 -8.55548 19.8443C-8.6738 19.7347 -8.63333 19.3605 -8.64578 19.2735C-8.66135 19.1509 -9.07549 18.8478 -9.23118 18.7962C-9.38376 18.7413 -9.5737 18.0673 -9.67646 17.9222C-9.77922 17.7803 -9.74808 17.6222 -9.52389 17.69C-9.3028 17.7642 -9.39933 17.2643 -9.19382 17.2288C-8.98831 17.1901 -8.76411 17.2127 -8.54303 17.0675C-8.46518 17.0192 -8.32195 16.7289 -8.33751 16.5515C-8.35308 16.3774 -8.57728 16.1258 -8.57728 16.1258C-9.34951 15.913 -9.91312 16.1936 -10.3055 16.5096L-10.9002 16.1258L-10.5421 16.0742L-11.0528 15.3002H-11.5448L-11.5199 14.8165L-11.8281 14.7649L-11.5977 14.1747L-11.6226 13.5071L-11.2583 13.0814C-11.2583 13.0814 -10.8224 13.5329 -10.6947 13.5587C-10.567 13.5877 -10.7476 12.9169 -10.7476 12.9169L-10.3366 12.7847L-10.3086 12.5202L-9.58617 11.9849L-9.30591 12.0107C-9.30591 12.0107 -9.30591 12.2493 -9.20004 12.1977C-9.1004 12.1429 -8.76411 11.93 -8.76411 11.93L-8.63644 12.1429H-8.22541L-7.89224 12.488L-7.60888 12.9975L-7.53103 12.5718L-6.93629 13.0556C-6.93629 13.0556 -6.86155 12.9201 -6.73077 12.7621C-6.60311 12.6041 -6.31974 12.4944 -6.31974 12.4944L-6.0395 12.7363L-5.90871 12.4944C-5.90871 12.4944 -5.60356 12.4428 -5.55062 12.5492C-5.49769 12.6557 -4.95588 13.0008 -4.95588 13.0008L-4.7784 12.7073C-4.7784 12.7073 -4.43899 12.8943 -4.10581 12.8943C-3.77263 12.8943 -3.95323 12.359 -4.13072 12.1784C-4.3082 11.9978 -4.62271 11.9107 -4.62271 11.9107C-4.62271 11.9107 -4.75037 11.7236 -4.51995 11.5656C-4.28952 11.4044 -4.23659 11.3528 -4.2615 11.2141C-4.28953 11.0819 -4.21168 10.7626 -4.21168 10.7626L-3.59203 10.8174L-4.10892 10.5497L-3.98126 10.3627L-4.31443 10.2046L-4.10892 9.83376L-3.77574 9.91116L-3.43634 9.93696L-2.74506 9.64671L-1.9448 9.51126L-1.89498 9.1952L-0.422132 8.95332L-0.294464 8.76949L-0.0391359 8.47601C-0.0391359 8.47601 0.194406 8.71467 0.480879 8.76949C0.761125 8.82109 0.86388 8.68887 0.966638 8.68887C1.06939 8.68887 0.991544 8.98234 1.06939 9.03394C1.14724 9.08555 1.09742 9.51125 1.12233 9.75636C1.14724 9.99501 1.60809 9.62413 1.60809 9.62413L1.89145 9.91439L2.63877 9.86278C2.63877 9.86278 2.5111 10.0208 2.38343 10.0756C2.25576 10.1272 2.38343 10.4207 2.38343 10.4207L2.79446 10.1821C2.79446 10.1821 3.25531 9.94019 3.87496 9.59188C4.49462 9.2468 4.15833 9.6209 4.05557 9.6983C3.95281 9.77893 4.03065 9.99178 4.03065 9.99178C4.03065 9.99178 4.75307 10.6884 4.83091 10.7658C4.90564 10.8464 5.80865 12.7944 5.80865 12.7944C5.80865 12.7944 6.14184 12.3977 6.21968 12.259C6.29753 12.1268 6.47814 12.6589 6.47814 12.6589L6.68364 12.7653L7.06976 12.7911C7.06976 12.7911 7.19743 12.6589 7.55552 12.6331C7.91984 12.6073 7.99146 13.0846 7.99146 13.0846L8.35578 13.3491C8.35578 13.3491 8.48344 13.6425 8.7668 13.8328C9.05016 14.0199 9.36154 13.5651 9.36154 13.5651C9.36154 13.5651 9.33664 13.7264 9.33664 13.807C9.33664 13.8586 9.51724 13.965 9.67604 14.036L9.33664 14.2327L9.36154 14.552L8.74189 14.8971C8.74189 14.8971 8.7668 15.0035 8.74189 15.5131C8.71698 16.0226 8.33086 16.0226 8.33086 16.0226L7.45276 15.6711L7.04174 16.845L7.14449 17.3288L6.70856 17.2481L5.85847 17.4868L6.2446 18.7671L5.9301 19.0348V19.5702L5.44434 19.1703L3.17746 19.1154L2.83806 18.7446L2.3523 18.8768L2.40211 19.467L1.24377 19.1735L1.14101 19.4766L1.00089 19.5831L1.01646 19.5766Z" fill="#90C6DE"/>
<path d="M6.92964 41.5875C6.92964 42.1551 6.20724 41.8746 5.93322 41.5521C5.66232 41.2328 5.86783 40.4459 5.97058 39.8428C5.97058 39.8428 6.07334 39.7686 6.24149 39.7364C6.41586 39.6977 6.447 40.0911 6.62138 40.3394C6.79575 40.591 6.92964 41.0199 6.92964 41.5875Z" fill="#90C6DE"/>
<path d="M0.810816 21.0765L1.00076 21.0635L1.13154 21.1958L1.23429 21.0893H1.52077L1.90378 20.7701L2.10929 20.6378L1.90378 20.3411L1.69826 20.1541L1.20627 20.2895H0.950942L0.667582 20.0767L1.15645 19.7026L1.01633 19.5768L1.15645 19.4704L1.25921 19.1672L2.41756 19.4639L2.37085 18.8737L2.85661 18.7415L3.1929 19.1124L5.46289 19.1672L5.94865 19.5704L5.38193 19.9412L5.12348 20.1541H4.61281L4.0928 20.6636L4.01807 21.0087L3.47314 20.9829L3.44824 20.7959L3.13997 20.8765L3.03721 21.1152L2.60127 21.17L2.52343 21.5989L2.40198 21.6183L1.82593 21.7311L1.44292 21.7053L1.28412 21.5183L1.10663 21.6247L0.720512 21.5183L0.203613 21.5731L0.228529 21.2764L0.667582 21.0893L0.810816 21.0765Z" fill="#90C6DE"/>
<path d="M3.58221 26.3462L2.96256 26.8299L3.03729 27.3073L2.60135 27.5749L2.4986 27.92L2.31799 27.8942L2.29308 28.1877L2.03463 28.5844L1.85714 28.5586L1.49282 29.2552L0.929221 29.3068L0.773529 29.2004L0.3625 29.7583L0.387416 29.9969L0.670767 30.0518L0.723706 30.4775L0.929221 30.5033L1.13474 31.2515L0.851375 31.4385L-0.0267301 31.3869L-0.126375 31.5998L-0.50003 31.7578C-1.09477 30.3485 -1.98845 30.7839 -2.93817 30.8484C-3.20907 30.8709 -3.53291 30.8871 -3.86921 30.8903C-3.81004 30.6516 -3.72908 30.3453 -3.68237 30.2356C-3.60453 30.0485 -3.19038 30.1034 -3.03781 30.0227C-2.88211 29.9421 -2.98488 29.6228 -2.98488 29.6228H-3.26824V28.9004H-3.65435L-4.22729 28.02C-3.96262 28.1393 -3.51423 28.3135 -3.18727 28.3135C-2.70152 28.3135 -1.95108 28.1812 -1.95108 28.1812L-1.46532 27.8039L-1.38748 27.2686L-1.12903 27.1105L-0.742909 27.0815L-0.718002 26.8428L-0.331889 26.7106L0.0262094 26.817L0.25663 26.6558L0.284654 25.9076L0.745505 25.6947L0.564898 25.1916L1.13474 25.3497L1.05689 24.9239L1.41498 24.4724L1.23749 23.9145L1.69834 23.4565C1.69834 23.4565 1.95679 23.4082 2.17787 23.3792L2.19032 23.5114L1.9599 23.6178L1.88205 24.0951L2.37404 24.3628L2.83489 24.6272L2.4768 24.9788L2.73214 25.5077H2.42386L2.52662 25.8012L2.68231 26.043H3.01549L3.06531 26.3333H3.58532L3.58221 26.3462Z" fill="#90C6DE"/>
<path d="M3.0903 22.3954L3.32072 22.8211L3.24287 23.0629L2.78202 23.0339L2.371 22.9275L1.90392 23.221L1.38079 23.4338L1.39637 22.7211L1.19085 22.7372L1.33098 22.4373L1.12547 22.3083L0.658389 22.6114V22.8469L0.284725 22.9501L0.262926 23.0597C0.247356 23.1629 0.110355 23.1275 0.00759804 23.1275C-0.0951586 23.1275 -0.387865 23.3596 -0.475053 23.3596C-0.56224 23.3596 -0.56224 23.2016 -0.56224 23.2016L-0.596487 23.192L-0.313127 22.6018L-0.415889 22.2567L-0.543558 21.9116L-0.802002 21.6181L-0.699249 21.5117H-0.207258L-0.104505 21.4053L-0.182351 21.086L0.150832 21.0602L0.175738 20.7151L0.540062 20.6603L0.873245 20.5023L0.926175 20.7151L0.770483 20.8731L0.810964 21.0731L0.66773 21.086L0.231795 21.273L0.206879 21.5665L0.723777 21.5117L1.10989 21.6181L1.28738 21.5117L1.44307 21.6988L1.82608 21.7246L2.40213 21.6149L2.47375 22.1277L3.0934 22.3921L3.0903 22.3954Z" fill="#90C6DE"/>
<path d="M-1.21305 23.0503L-0.593397 23.1986L-0.55914 23.2083C-0.55914 23.2083 -0.55914 23.3663 -0.471953 23.3663C-0.384765 23.3663 -0.0920687 23.1341 0.0106883 23.1341C0.113445 23.1341 0.250456 23.1696 0.266025 23.0664L0.287825 22.9568L0.661479 22.8536V22.6181L1.12856 22.315L1.33407 22.444L1.19395 22.7439L1.39947 22.7278L1.38389 23.4405L1.90701 23.2277L2.37409 22.9342L2.78512 23.0406L3.24597 23.0696L3.06536 23.2825C3.06536 23.2825 2.57961 23.3599 2.44571 23.3599C2.399 23.3599 2.29314 23.3728 2.17793 23.3889C1.95996 23.4179 1.69839 23.4663 1.69839 23.4663L1.23754 23.9243L1.41503 24.4822L1.05694 24.9337L1.13479 25.3594L0.564951 25.2014L0.745559 25.7045L0.284708 25.9173L0.256684 26.6656L0.0262632 26.8268L-0.331836 26.7204L-0.717949 26.8526L-0.742855 27.0913L-1.12898 27.1203L-1.38742 27.2783L-1.46527 27.8137L-1.95103 28.191C-1.95103 28.191 -2.70146 28.3232 -3.18722 28.3232C-3.51417 28.3232 -3.96257 28.1491 -4.22724 28.0298L-4.24282 28.004L-3.80687 27.4396L-3.83179 27.0139L-4.27395 26.9365L-4.37671 25.4691L-4.32377 24.7757L-4.09335 24.3983V24.1984L-3.57645 24.3661L-3.48926 24.5241L-3.05955 24.45L-3.0253 24.0791L-2.24995 23.7082L-2.2157 23.1922H-1.76731L-1.73306 22.9245L-1.20059 23.0535L-1.21305 23.0503Z" fill="#90C6DE"/>
<path d="M1.90372 20.341L2.10923 20.6345L1.90372 20.7667L1.52071 21.086H1.23735L1.1346 21.1924L1.00381 21.0602L0.813872 21.0731L0.77339 20.8731L0.929082 20.7151L0.876143 20.5023L0.542969 20.6603L0.178646 20.7151L0.153739 21.0602L-0.179444 21.086L-0.101598 21.4053L-0.20436 21.5117H-0.696342L-0.799104 21.6181L-0.54065 21.9116L-0.412982 22.2567L-0.310229 22.6018L-0.593589 23.192L-1.21324 23.0436V22.9146C-1.21324 22.6501 -1.40318 22.5598 -1.59313 22.4695C-1.78307 22.3792 -2.74214 21.6891 -3.17185 21.4021C-3.60156 21.115 -3.53617 20.886 -3.68875 20.4958C-3.84132 20.1024 -4.36133 20.3152 -4.51391 20.2991C-4.66649 20.2765 -5.69717 19.3896 -5.69717 19.3896C-5.69717 19.3896 -5.9743 19.6412 -6.04281 19.7283C-6.1082 19.8186 -6.26389 19.7669 -6.26389 19.7669L-6.35107 20.3023H-6.896L-6.86797 17.5094L-5.4574 17.045C-4.66649 17.4707 -3.68875 18.5576 -3.68875 18.5576L-2.11003 18.4673L-1.73014 19.022L-1.55576 19.0058L-1.36582 19.5734L-1.19768 19.8218L-1.23192 20.412L-0.581131 20.3894L-0.201243 20.7667L-0.185678 20.4797L1.01315 19.5734L1.15328 19.696L0.661287 20.0733L0.944648 20.2862H1.19998L1.69197 20.1507L1.89748 20.3378L1.90372 20.341Z" fill="#90C6DE"/>
<mask id="path-48-inside-1_4558_45130" fill="white">
<path d="M-11.9744 19.8122L-12.1395 19.7509L-12.345 19.3252L-12.4727 19.222L-12.837 19.2736L-13.1453 19.38L-13.2978 19.222L-13.9175 18.8221L-14.3534 18.8479L-15.0509 18.6092L-15.2378 18.6866C-15.7422 18.2674 -16.1657 17.8191 -16.3338 17.7804C-16.558 17.7288 -16.7075 17.3547 -16.4864 16.9419C-16.2622 16.5323 -15.9695 16.1034 -15.8854 16.055C-15.7982 16.0002 -15.3872 15.7873 -15.7982 15.7873C-15.929 15.7873 -16.0754 15.8099 -16.2217 15.8421C-16.1719 15.6357 -16.0972 15.3681 -16.0318 15.3003C-15.9166 15.181 -15.5772 15.1939 -15.3997 15.1939C-15.2222 15.1939 -15.2564 15.0327 -15.244 14.9133C-15.2315 14.794 -15.5024 14.6489 -15.5024 14.6489L-15.2191 14.3812L-15.5273 14.2361L-15.244 14.1812C-15.244 14.1812 -15.1661 13.9297 -15.1537 13.8749C-15.1412 13.8233 -15.3467 13.8104 -15.437 13.8104C-15.5273 13.8104 -15.7578 13.6781 -15.7578 13.6781L-16.1096 13.3847C-16.1096 13.3847 -16.2093 13.4363 -16.3151 13.5169C-16.4148 13.5975 -16.6359 13.0783 -16.6359 13.0783C-16.6359 13.0783 -16.9317 13.2653 -17.0313 13.2653C-17.1372 13.2653 -17.3832 13.0106 -17.3832 13.0106L-17.5762 13.1976L-17.7039 12.9041L-17.7164 12.6526L-17.8191 12.6655L-17.8067 12.3462L-18.3454 12.3849L-18.3858 11.9753H-18.1679L-18.4481 11.5851L-18.5914 11.3722L-18.8467 11.4916L-19.0024 11.5851L-19.0273 11.4787L-19.3106 11.4367V11.6786L-19.6563 11.6883V11.2787H-19.7933L-19.8151 10.695L-19.3169 10.7627L-19.0397 10.4241L-19.2297 10.266V10.0854L-19.5722 10.1757L-19.538 9.75003L-19.7933 9.72746L-19.9116 9.25014L-20.1171 9.1276L-20.0175 8.85992L-20.1856 8.68576L-20.0673 8.52451L-20.0517 8.32778L-20.2417 8.26006L-20.3787 8.06333L-20.6558 8.23748L-20.824 8.32778L-20.8458 8.02463L-21.1727 8.06333L-21.5059 7.86982L-21.5651 7.11839L-21.8484 7.19901L-21.7706 6.68946L-21.9263 6.52821L-21.9138 6.49918L-21.7208 5.97027C-21.7208 5.97027 -21.9014 5.27689 -21.8764 5.11564C-21.8484 4.95761 -21.4654 4.60608 -21.4654 4.60608L-21.5651 4.39645C-21.2692 4.2739 -21.1229 3.96429 -20.9454 3.96429C-20.715 3.96429 -20.3569 3.9643 -20.4846 3.83207C-20.6122 3.69984 -21.0544 3.64824 -21.1291 3.53859C-21.1914 3.46119 -21.2942 3.24833 -21.7394 3.29026C-21.2225 2.62267 -19.949 0.961775 -19.7653 0.603794C-19.5348 0.152288 -20.5375 -0.51852 -20.5375 -0.51852L-20.2573 -0.915199L-20.4877 -1.18288L-20.5126 -1.82467H-20.7181L-20.796 -2.01172L-20.6434 -2.19554L-20.771 -2.30197L-20.7181 -2.94376L-20.4877 -2.99858C-20.4877 -2.99858 -21.0824 -4.62401 -21.0824 -4.70786C-21.0824 -4.79171 -20.743 -5.24322 -20.7181 -5.34964C-20.6932 -5.45607 -20.5126 -5.8592 -20.7181 -6.09785C-20.9236 -6.33651 -21.3128 -6.49776 -21.3128 -6.49776L-21.235 -7.32337C-21.235 -7.32337 -21.2443 -7.43947 -21.2319 -7.60073L-21.0046 -7.72328L-20.8769 -8.12318L-20.4908 -8.30701V-8.65854L-20.2853 -8.52309H-20.0549L-20.0673 -8.78432C-19.6345 -8.52309 -19.0211 -8.21348 -18.5882 -8.17801C-17.9156 -8.12641 -17.4019 -8.01998 -16.6545 -7.27177C-15.9072 -6.52356 -14.671 -6.09785 -14.643 -5.37544C-14.6181 -4.65303 -14.4655 -4.52081 -15.0073 -3.98867C-15.546 -3.45332 -15.8574 -3.21466 -17.0407 -3.77582C-18.227 -4.33375 -18.8965 -4.68206 -19.0522 -4.76268C-19.2079 -4.84331 -19.3605 -4.97554 -19.0273 -4.4692C-18.6879 -3.9661 -18.0215 -3.69519 -17.9966 -3.29851C-17.9717 -2.8986 -17.9188 -1.87949 -17.816 -1.53441C-17.7133 -1.18933 -17.1185 -0.679771 -16.8352 -0.653971C-16.5549 -0.624947 -16.2155 -0.624949 -16.2965 -0.892628C-16.3774 -1.16031 -16.6826 -1.34413 -16.8912 -1.69244C-17.0967 -2.04397 -16.969 -2.41485 -16.4802 -2.09234C-15.9882 -1.77307 -14.752 -1.47636 -15.0385 -1.98592C-15.3218 -2.49548 -15.6332 -2.6277 -15.3218 -2.89538C-15.0136 -3.15983 -14.2382 -4.33375 -13.7213 -4.0693C-13.2044 -3.80162 -12.8961 -3.72422 -12.8961 -4.1209C-12.8961 -4.29505 -12.9615 -4.51758 -13.0331 -4.76591L-12.2018 -4.91426C-12.1675 -4.85298 -12.1208 -4.80783 -12.0492 -4.76913C-11.6381 -4.55628 -11.8437 -4.48856 -10.9842 -5.55605C-10.1217 -6.62354 -8.88551 -7.75875 -8.06035 -7.33304C-7.23518 -6.90734 -7.13242 -7.15889 -6.51277 -7.22662C-5.89312 -7.3008 -5.27658 -7.33305 -4.69429 -7.5846C-4.10889 -7.83293 -4.41716 -8.71982 -4.75969 -8.90042C-5.10532 -9.08102 -4.75968 -9.43578 -4.03727 -9.11327C-3.31486 -8.79399 -2.3558 -8.68757 -1.73614 -7.97161C-1.11649 -7.26209 -0.63385 -6.72996 -0.428335 -6.72996C-0.222822 -6.72996 0.427971 -6.87186 -0.222822 -7.79745C-0.879841 -8.71982 -1.39363 -9.82601 -1.18811 -10.3581C-0.982599 -10.8935 -0.397196 -12.0674 -0.0858116 -13.1672C0.225573 -14.2669 0.325214 -14.5894 0.876364 -14.4475C1.42751 -14.3056 2.31808 -14.0927 2.00981 -12.706C1.70153 -11.3192 2.14992 -11.1741 2.11256 -10.4968C2.07831 -9.82278 1.84166 -7.43625 2.18418 -7.43625C2.5267 -7.43625 3.1121 -7.11697 2.93772 -8.25541C2.76958 -9.39707 2.5267 -11.6707 3.31761 -12.1706C4.10853 -12.6673 5.17346 -13.4864 5.45059 -13.3058C5.7215 -13.1317 6.41277 -12.2383 6.75217 -12.2383C7.09158 -12.2383 7.33758 -12.5254 7.02931 -12.9866C6.72104 -13.451 5.96438 -14.7668 6.13564 -15.228C6.31002 -15.6924 9.16229 -15.5859 9.40205 -16.1213C9.64182 -16.6567 8.57689 -17.1888 9.19654 -17.9693C9.81619 -18.7497 10.6071 -19.8559 11.4977 -19.8559C12.3882 -19.8559 12.7027 -20.2816 13.148 -20.459C13.5964 -20.6396 14.3531 -20.817 15.1066 -20.8524C15.8664 -20.8879 15.8975 -21.3878 16.3802 -21.6007C16.8597 -21.8135 17.0652 -22.1005 17.2053 -22.81C17.3423 -23.5228 17.7534 -24.4129 18.3014 -24.5903C18.8526 -24.7709 19.8832 -24.2355 19.6777 -23.984C19.4722 -23.7356 18.784 -23.168 19.0923 -23.2035C19.4006 -23.239 20.4655 -23.0616 20.534 -22.6681C20.6025 -22.2747 22.3556 -22.594 22.6981 -22.2424C23.0407 -21.8909 24.4824 -20.2139 23.6261 -19.1464C22.7698 -18.0789 21.1194 -16.618 21.3249 -16.3374C21.5305 -16.0503 22.3183 -16.1245 23.1434 -15.9794C23.9686 -15.8375 26.1327 -15.9117 26.5437 -15.3054C26.9548 -14.6991 28.9134 -13.8831 28.9134 -14.6636C28.9134 -15.444 28.7079 -15.9794 30.2897 -15.2699C31.8684 -14.5571 32.0428 -14.2379 31.8373 -13.7025C31.6318 -13.1672 31.4262 -12.6705 31.7345 -12.1351C32.0428 -11.5998 32.9333 -9.78731 33.2105 -11.1386C33.4876 -12.4931 33.3132 -12.7414 34.0356 -12.1706C34.758 -11.5998 37.2647 -11.4901 37.4359 -12.0964C37.6103 -12.7027 37.2304 -13.9831 38.6721 -13.7702C40.1139 -13.5574 41.9386 -13.4832 42.3838 -12.9511C42.8291 -12.4157 43.1747 -12.0642 43.62 -11.3837C44.0653 -10.7097 44.9278 -10.7097 45.507 -10.887C46.0924 -11.0612 47.9794 -10.9935 48.0168 -10.2807C48.051 -9.568 47.7739 -8.46504 48.8731 -8.60694C49.9754 -8.75207 51.0372 -8.75207 51.3797 -8.53922C51.7254 -8.32636 52.2049 -8.85849 52.4478 -8.89397C52.6875 -8.92944 54.4718 -9.67443 55.8481 -9.1423C57.2213 -8.60694 58.9401 -7.29434 59.868 -6.65256C60.796 -6.01077 61.3783 -5.72697 61.3783 -5.47864C61.3783 -5.23031 61.2412 -4.41115 61.481 -4.41115C61.7208 -4.41115 61.9138 -4.86266 61.9138 -4.86266C62.0664 -4.86266 62.9538 -4.77236 62.9943 -4.70463C63.0722 -4.57241 64.0001 -3.50491 64.0001 -3.50491C63.7946 -3.15338 63.5891 -3.07921 63.614 -2.96633C63.6389 -2.86313 63.1531 -2.8083 62.9943 -2.56965C62.8386 -2.32777 62.5584 -0.992603 62.3996 -1.0442C62.247 -1.09903 60.9081 -1.63438 60.8831 -1.92786C60.8551 -2.22134 60.497 -2.7825 60.03 -2.67608C59.5691 -2.56965 59.2048 -3.21143 59.2577 -3.36946C59.3075 -3.53071 58.8716 -3.82097 58.8218 -3.53071C58.7688 -3.23723 59.1269 -2.56965 58.7689 -2.19554C58.4108 -1.82466 57.7382 -1.47313 57.5078 -1.63761C57.2742 -1.79886 56.8352 -1.87626 57.0158 -1.58601C57.1964 -1.29253 57.4517 -1.20868 57.6852 -0.915199C57.9188 -0.621719 57.8409 -0.357267 58.0714 -0.0895882C58.3018 0.178091 58.5882 0.900499 58.3547 1.08755C58.1243 1.27138 57.4019 0.845673 57.0656 1.00693C56.7324 1.16495 53.7431 2.98065 53.7182 3.38056C53.6933 3.78047 53.385 4.15457 52.9429 3.27413C52.5069 2.3937 51.7845 4.2094 51.3735 4.10297C50.9998 4.00622 50.648 3.53536 50.1996 3.96752L49.0755 3.51924C49.5799 3.00323 50.1715 2.43562 50.3459 1.91316C50.5795 1.21978 50.9656 0.526394 50.2681 0.819872C49.5768 1.11335 49.8851 1.30363 49.0599 2.33887C48.2347 3.38056 48.2846 3.67404 48.2067 3.24833C48.132 2.82263 48.4122 1.82931 47.7459 1.82931C47.0795 1.82931 45.7094 3.19028 45.3762 3.72564C45.043 4.261 45.8682 4.74153 44.9901 4.81893C44.1151 4.89956 43.8567 4.6867 41.8482 4.60608C39.8367 4.52868 39.0894 4.36743 37.2834 6.68946C35.4805 9.0115 34.839 9.51783 36.0223 9.73068C37.2086 9.94353 38.1864 9.27917 38.2642 10.4821C38.3421 11.6818 37.6944 15.7647 35.9724 17.4998C34.2443 19.2381 34.0387 19.5832 33.5717 19.2381C33.3662 19.0833 32.9863 19.3026 32.6002 19.6477L32.541 19.2897L32.4538 19.2252L32.8524 19.1027L32.9271 18.1706C32.9271 18.1706 32.6469 17.7127 32.7465 17.6062C32.8524 17.4998 33.2136 17.1031 33.472 17.287C33.7274 17.474 33.7523 17.5288 33.9827 17.0741C34.2162 16.6226 34.5027 16.1388 34.4249 15.955C34.347 15.768 34.7082 15.3648 34.7082 15.3648V14.8295L33.8301 14.9907C33.8301 14.9907 33.7025 15.3358 33.363 15.3358C33.0236 15.3358 32.4881 15.3358 32.5379 15.123C32.5908 14.9101 32.4881 14.3747 32.4881 14.3747L32.2825 14.2941L31.9182 13.8974L31.585 13.8168L31.0463 13.7362L30.9187 13.1783L30.5077 12.4042C30.5077 12.4042 30.5077 11.5206 30.4049 11.5206C30.3021 11.5206 30.2243 10.7466 29.2964 10.5079C28.3685 10.2693 27.9574 10.5337 27.7986 10.5337C27.6398 10.5337 27.1291 10.6659 27.0513 10.9852C26.9734 11.3045 27.2848 11.1981 27.2848 11.1981L27.3346 11.6238C27.3346 11.6238 26.8738 12.0011 26.8177 12.2398C26.7648 12.4784 26.4846 13.0138 26.5344 13.1202C26.5873 13.2266 26.4067 13.6298 26.0985 13.7104C25.8649 13.7717 25.5504 13.6878 25.2577 13.5911C25.1674 13.562 25.0771 13.5266 24.9899 13.4975C24.6318 13.3621 24.3454 13.5491 24.2177 13.4169C24.0869 13.2847 23.9343 13.046 23.5731 13.4717C23.2088 13.8974 22.6421 14.1135 21.9975 14.1135C21.353 14.1135 20.7115 13.9523 20.6088 13.6878C20.506 13.4201 20.1977 13.475 20.1977 13.475C20.1977 13.475 20.0171 12.9364 19.5002 13.0493C18.9833 13.1525 18.1613 13.5008 17.825 13.0751C17.4856 12.6493 17.4389 12.2462 17.4389 12.2462L16.9002 11.9818L16.2525 11.9527L16.2805 11.7689L15.8134 11.527C15.1689 12.2236 15.2965 12.7558 15.4024 12.9138C15.5052 13.0751 15.3526 13.662 15.1222 13.6362C14.8886 13.6104 14.5025 13.2911 14.1911 13.3976C13.886 13.504 13.475 13.3685 13.3411 13.0525C13.2134 12.7267 12.7214 12.9428 12.7214 12.9428L12.6965 12.7848L12.2356 12.6268L10.6351 13.8265L10.1432 13.9071C10.1432 13.9071 10.084 13.991 10.0155 14.0522H10.0124C9.97188 14.0909 9.92518 14.12 9.88781 14.12C9.85045 14.12 9.7726 14.0942 9.68542 14.0555C9.52972 13.9813 9.34601 13.8749 9.34601 13.8265C9.34601 13.7459 9.37091 13.5846 9.37091 13.5846C9.37091 13.5846 9.06264 14.0426 8.77617 13.8523C8.49281 13.6652 8.36515 13.3685 8.36515 13.3685L8.00083 13.1041C8.00083 13.1041 7.9261 12.6268 7.56489 12.6526C7.2068 12.6784 7.07913 12.8106 7.07913 12.8106L6.69302 12.7848L6.48751 12.6784C6.48751 12.6784 6.3069 12.143 6.22905 12.2785C6.15121 12.4139 5.81802 12.8138 5.81802 12.8138C5.81802 12.8138 4.91501 10.8659 4.84028 10.7853C4.76244 10.7079 4.04002 10.0113 4.04002 10.0113C4.04002 10.0113 3.96218 9.79841 4.06494 9.71778C4.1677 9.64038 4.50087 9.26627 3.88433 9.61135C3.26468 9.95643 2.80383 10.2015 2.80383 10.2015L2.3928 10.4402C2.3928 10.4402 2.26513 10.1467 2.3928 10.0951C2.52047 10.0403 2.64814 9.88226 2.64814 9.88226L1.90082 9.93386L1.61746 9.6436C1.61746 9.6436 1.15661 10.0145 1.1317 9.77583C1.10679 9.53395 1.15661 9.10502 1.07876 9.05342C1.00092 9.00182 1.07877 8.70834 0.976007 8.70834C0.873251 8.70834 0.770496 8.84056 0.49025 8.78897C0.20689 8.73414 -0.0297642 8.49548 -0.0297642 8.49548L-0.285093 8.78897L-0.412762 8.97279L-1.88561 9.21467L-1.93543 9.53073L-2.73569 9.66618L-3.42695 9.95643L-3.76637 9.93063L-4.09954 9.85323L-4.30506 10.2241L-3.97188 10.3821L-4.09954 10.5692L-3.58265 10.8369L-4.20231 10.782C-4.20231 10.782 -4.28015 11.1013 -4.25213 11.2336C-4.22722 11.369 -4.28015 11.4206 -4.51057 11.5851C-4.741 11.7431 -4.61333 11.9302 -4.61333 11.9302C-4.61333 11.9302 -4.30506 12.0108 -4.12134 12.1978C-3.93763 12.3849 -3.76326 12.9138 -4.09644 12.9138C-4.42962 12.9138 -4.76903 12.7267 -4.76903 12.7267L-4.94651 13.0202C-4.94651 13.0202 -5.4852 12.6751 -5.54125 12.5687C-5.59419 12.4623 -5.89934 12.5139 -5.89934 12.5139L-6.03013 12.7558L-6.31037 12.5139C-6.31037 12.5139 -6.59373 12.6235 -6.7214 12.7816C-6.85218 12.9396 -6.92692 13.0751 -6.92692 13.0751L-7.52166 12.5913L-7.59951 13.017L-7.88287 12.5074L-8.21604 12.1624H-8.62707L-8.75474 11.9495C-8.75474 11.9495 -9.09414 12.1624 -9.19067 12.2172C-9.29654 12.2688 -9.29654 12.0301 -9.29654 12.0301L-9.57679 12.0043L-10.2992 12.5397L-10.3272 12.8041L-10.7383 12.9364C-10.7383 12.9364 -10.5577 13.6072 -10.6853 13.5782C-10.813 13.5524 -11.2489 13.1009 -11.2489 13.1009L-11.6132 13.5266L-11.5883 14.1941L-11.8188 14.7843L-11.5105 14.8359L-11.5354 15.3197H-11.0434L-10.5327 16.0937L-10.8908 16.1453L-10.2961 16.5291C-10.2961 16.5291 -10.2992 16.5323 -10.3054 16.5388C-10.7009 16.858 -11.4762 17.4482 -11.4762 17.6804C-11.4762 17.9126 -11.2334 18.2158 -11.2178 18.606C-11.2022 18.993 -11.168 19.5122 -10.8597 19.7961C-10.8099 19.838 -10.76 19.8928 -10.7165 19.9573L-11.0995 20.3379L-11.4326 20.2314L-11.6631 19.938L-11.9651 19.8348L-11.9744 19.8122Z"/>
</mask>
<path d="M-11.9744 19.8122L-12.1395 19.7509L-12.345 19.3252L-12.4727 19.222L-12.837 19.2736L-13.1453 19.38L-13.2978 19.222L-13.9175 18.8221L-14.3534 18.8479L-15.0509 18.6092L-15.2378 18.6866C-15.7422 18.2674 -16.1657 17.8191 -16.3338 17.7804C-16.558 17.7288 -16.7075 17.3547 -16.4864 16.9419C-16.2622 16.5323 -15.9695 16.1034 -15.8854 16.055C-15.7982 16.0002 -15.3872 15.7873 -15.7982 15.7873C-15.929 15.7873 -16.0754 15.8099 -16.2217 15.8421C-16.1719 15.6357 -16.0972 15.3681 -16.0318 15.3003C-15.9166 15.181 -15.5772 15.1939 -15.3997 15.1939C-15.2222 15.1939 -15.2564 15.0327 -15.244 14.9133C-15.2315 14.794 -15.5024 14.6489 -15.5024 14.6489L-15.2191 14.3812L-15.5273 14.2361L-15.244 14.1812C-15.244 14.1812 -15.1661 13.9297 -15.1537 13.8749C-15.1412 13.8233 -15.3467 13.8104 -15.437 13.8104C-15.5273 13.8104 -15.7578 13.6781 -15.7578 13.6781L-16.1096 13.3847C-16.1096 13.3847 -16.2093 13.4363 -16.3151 13.5169C-16.4148 13.5975 -16.6359 13.0783 -16.6359 13.0783C-16.6359 13.0783 -16.9317 13.2653 -17.0313 13.2653C-17.1372 13.2653 -17.3832 13.0106 -17.3832 13.0106L-17.5762 13.1976L-17.7039 12.9041L-17.7164 12.6526L-17.8191 12.6655L-17.8067 12.3462L-18.3454 12.3849L-18.3858 11.9753H-18.1679L-18.4481 11.5851L-18.5914 11.3722L-18.8467 11.4916L-19.0024 11.5851L-19.0273 11.4787L-19.3106 11.4367V11.6786L-19.6563 11.6883V11.2787H-19.7933L-19.8151 10.695L-19.3169 10.7627L-19.0397 10.4241L-19.2297 10.266V10.0854L-19.5722 10.1757L-19.538 9.75003L-19.7933 9.72746L-19.9116 9.25014L-20.1171 9.1276L-20.0175 8.85992L-20.1856 8.68576L-20.0673 8.52451L-20.0517 8.32778L-20.2417 8.26006L-20.3787 8.06333L-20.6558 8.23748L-20.824 8.32778L-20.8458 8.02463L-21.1727 8.06333L-21.5059 7.86982L-21.5651 7.11839L-21.8484 7.19901L-21.7706 6.68946L-21.9263 6.52821L-21.9138 6.49918L-21.7208 5.97027C-21.7208 5.97027 -21.9014 5.27689 -21.8764 5.11564C-21.8484 4.95761 -21.4654 4.60608 -21.4654 4.60608L-21.5651 4.39645C-21.2692 4.2739 -21.1229 3.96429 -20.9454 3.96429C-20.715 3.96429 -20.3569 3.9643 -20.4846 3.83207C-20.6122 3.69984 -21.0544 3.64824 -21.1291 3.53859C-21.1914 3.46119 -21.2942 3.24833 -21.7394 3.29026C-21.2225 2.62267 -19.949 0.961775 -19.7653 0.603794C-19.5348 0.152288 -20.5375 -0.51852 -20.5375 -0.51852L-20.2573 -0.915199L-20.4877 -1.18288L-20.5126 -1.82467H-20.7181L-20.796 -2.01172L-20.6434 -2.19554L-20.771 -2.30197L-20.7181 -2.94376L-20.4877 -2.99858C-20.4877 -2.99858 -21.0824 -4.62401 -21.0824 -4.70786C-21.0824 -4.79171 -20.743 -5.24322 -20.7181 -5.34964C-20.6932 -5.45607 -20.5126 -5.8592 -20.7181 -6.09785C-20.9236 -6.33651 -21.3128 -6.49776 -21.3128 -6.49776L-21.235 -7.32337C-21.235 -7.32337 -21.2443 -7.43947 -21.2319 -7.60073L-21.0046 -7.72328L-20.8769 -8.12318L-20.4908 -8.30701V-8.65854L-20.2853 -8.52309H-20.0549L-20.0673 -8.78432C-19.6345 -8.52309 -19.0211 -8.21348 -18.5882 -8.17801C-17.9156 -8.12641 -17.4019 -8.01998 -16.6545 -7.27177C-15.9072 -6.52356 -14.671 -6.09785 -14.643 -5.37544C-14.6181 -4.65303 -14.4655 -4.52081 -15.0073 -3.98867C-15.546 -3.45332 -15.8574 -3.21466 -17.0407 -3.77582C-18.227 -4.33375 -18.8965 -4.68206 -19.0522 -4.76268C-19.2079 -4.84331 -19.3605 -4.97554 -19.0273 -4.4692C-18.6879 -3.9661 -18.0215 -3.69519 -17.9966 -3.29851C-17.9717 -2.8986 -17.9188 -1.87949 -17.816 -1.53441C-17.7133 -1.18933 -17.1185 -0.679771 -16.8352 -0.653971C-16.5549 -0.624947 -16.2155 -0.624949 -16.2965 -0.892628C-16.3774 -1.16031 -16.6826 -1.34413 -16.8912 -1.69244C-17.0967 -2.04397 -16.969 -2.41485 -16.4802 -2.09234C-15.9882 -1.77307 -14.752 -1.47636 -15.0385 -1.98592C-15.3218 -2.49548 -15.6332 -2.6277 -15.3218 -2.89538C-15.0136 -3.15983 -14.2382 -4.33375 -13.7213 -4.0693C-13.2044 -3.80162 -12.8961 -3.72422 -12.8961 -4.1209C-12.8961 -4.29505 -12.9615 -4.51758 -13.0331 -4.76591L-12.2018 -4.91426C-12.1675 -4.85298 -12.1208 -4.80783 -12.0492 -4.76913C-11.6381 -4.55628 -11.8437 -4.48856 -10.9842 -5.55605C-10.1217 -6.62354 -8.88551 -7.75875 -8.06035 -7.33304C-7.23518 -6.90734 -7.13242 -7.15889 -6.51277 -7.22662C-5.89312 -7.3008 -5.27658 -7.33305 -4.69429 -7.5846C-4.10889 -7.83293 -4.41716 -8.71982 -4.75969 -8.90042C-5.10532 -9.08102 -4.75968 -9.43578 -4.03727 -9.11327C-3.31486 -8.79399 -2.3558 -8.68757 -1.73614 -7.97161C-1.11649 -7.26209 -0.63385 -6.72996 -0.428335 -6.72996C-0.222822 -6.72996 0.427971 -6.87186 -0.222822 -7.79745C-0.879841 -8.71982 -1.39363 -9.82601 -1.18811 -10.3581C-0.982599 -10.8935 -0.397196 -12.0674 -0.0858116 -13.1672C0.225573 -14.2669 0.325214 -14.5894 0.876364 -14.4475C1.42751 -14.3056 2.31808 -14.0927 2.00981 -12.706C1.70153 -11.3192 2.14992 -11.1741 2.11256 -10.4968C2.07831 -9.82278 1.84166 -7.43625 2.18418 -7.43625C2.5267 -7.43625 3.1121 -7.11697 2.93772 -8.25541C2.76958 -9.39707 2.5267 -11.6707 3.31761 -12.1706C4.10853 -12.6673 5.17346 -13.4864 5.45059 -13.3058C5.7215 -13.1317 6.41277 -12.2383 6.75217 -12.2383C7.09158 -12.2383 7.33758 -12.5254 7.02931 -12.9866C6.72104 -13.451 5.96438 -14.7668 6.13564 -15.228C6.31002 -15.6924 9.16229 -15.5859 9.40205 -16.1213C9.64182 -16.6567 8.57689 -17.1888 9.19654 -17.9693C9.81619 -18.7497 10.6071 -19.8559 11.4977 -19.8559C12.3882 -19.8559 12.7027 -20.2816 13.148 -20.459C13.5964 -20.6396 14.3531 -20.817 15.1066 -20.8524C15.8664 -20.8879 15.8975 -21.3878 16.3802 -21.6007C16.8597 -21.8135 17.0652 -22.1005 17.2053 -22.81C17.3423 -23.5228 17.7534 -24.4129 18.3014 -24.5903C18.8526 -24.7709 19.8832 -24.2355 19.6777 -23.984C19.4722 -23.7356 18.784 -23.168 19.0923 -23.2035C19.4006 -23.239 20.4655 -23.0616 20.534 -22.6681C20.6025 -22.2747 22.3556 -22.594 22.6981 -22.2424C23.0407 -21.8909 24.4824 -20.2139 23.6261 -19.1464C22.7698 -18.0789 21.1194 -16.618 21.3249 -16.3374C21.5305 -16.0503 22.3183 -16.1245 23.1434 -15.9794C23.9686 -15.8375 26.1327 -15.9117 26.5437 -15.3054C26.9548 -14.6991 28.9134 -13.8831 28.9134 -14.6636C28.9134 -15.444 28.7079 -15.9794 30.2897 -15.2699C31.8684 -14.5571 32.0428 -14.2379 31.8373 -13.7025C31.6318 -13.1672 31.4262 -12.6705 31.7345 -12.1351C32.0428 -11.5998 32.9333 -9.78731 33.2105 -11.1386C33.4876 -12.4931 33.3132 -12.7414 34.0356 -12.1706C34.758 -11.5998 37.2647 -11.4901 37.4359 -12.0964C37.6103 -12.7027 37.2304 -13.9831 38.6721 -13.7702C40.1139 -13.5574 41.9386 -13.4832 42.3838 -12.9511C42.8291 -12.4157 43.1747 -12.0642 43.62 -11.3837C44.0653 -10.7097 44.9278 -10.7097 45.507 -10.887C46.0924 -11.0612 47.9794 -10.9935 48.0168 -10.2807C48.051 -9.568 47.7739 -8.46504 48.8731 -8.60694C49.9754 -8.75207 51.0372 -8.75207 51.3797 -8.53922C51.7254 -8.32636 52.2049 -8.85849 52.4478 -8.89397C52.6875 -8.92944 54.4718 -9.67443 55.8481 -9.1423C57.2213 -8.60694 58.9401 -7.29434 59.868 -6.65256C60.796 -6.01077 61.3783 -5.72697 61.3783 -5.47864C61.3783 -5.23031 61.2412 -4.41115 61.481 -4.41115C61.7208 -4.41115 61.9138 -4.86266 61.9138 -4.86266C62.0664 -4.86266 62.9538 -4.77236 62.9943 -4.70463C63.0722 -4.57241 64.0001 -3.50491 64.0001 -3.50491C63.7946 -3.15338 63.5891 -3.07921 63.614 -2.96633C63.6389 -2.86313 63.1531 -2.8083 62.9943 -2.56965C62.8386 -2.32777 62.5584 -0.992603 62.3996 -1.0442C62.247 -1.09903 60.9081 -1.63438 60.8831 -1.92786C60.8551 -2.22134 60.497 -2.7825 60.03 -2.67608C59.5691 -2.56965 59.2048 -3.21143 59.2577 -3.36946C59.3075 -3.53071 58.8716 -3.82097 58.8218 -3.53071C58.7688 -3.23723 59.1269 -2.56965 58.7689 -2.19554C58.4108 -1.82466 57.7382 -1.47313 57.5078 -1.63761C57.2742 -1.79886 56.8352 -1.87626 57.0158 -1.58601C57.1964 -1.29253 57.4517 -1.20868 57.6852 -0.915199C57.9188 -0.621719 57.8409 -0.357267 58.0714 -0.0895882C58.3018 0.178091 58.5882 0.900499 58.3547 1.08755C58.1243 1.27138 57.4019 0.845673 57.0656 1.00693C56.7324 1.16495 53.7431 2.98065 53.7182 3.38056C53.6933 3.78047 53.385 4.15457 52.9429 3.27413C52.5069 2.3937 51.7845 4.2094 51.3735 4.10297C50.9998 4.00622 50.648 3.53536 50.1996 3.96752L49.0755 3.51924C49.5799 3.00323 50.1715 2.43562 50.3459 1.91316C50.5795 1.21978 50.9656 0.526394 50.2681 0.819872C49.5768 1.11335 49.8851 1.30363 49.0599 2.33887C48.2347 3.38056 48.2846 3.67404 48.2067 3.24833C48.132 2.82263 48.4122 1.82931 47.7459 1.82931C47.0795 1.82931 45.7094 3.19028 45.3762 3.72564C45.043 4.261 45.8682 4.74153 44.9901 4.81893C44.1151 4.89956 43.8567 4.6867 41.8482 4.60608C39.8367 4.52868 39.0894 4.36743 37.2834 6.68946C35.4805 9.0115 34.839 9.51783 36.0223 9.73068C37.2086 9.94353 38.1864 9.27917 38.2642 10.4821C38.3421 11.6818 37.6944 15.7647 35.9724 17.4998C34.2443 19.2381 34.0387 19.5832 33.5717 19.2381C33.3662 19.0833 32.9863 19.3026 32.6002 19.6477L32.541 19.2897L32.4538 19.2252L32.8524 19.1027L32.9271 18.1706C32.9271 18.1706 32.6469 17.7127 32.7465 17.6062C32.8524 17.4998 33.2136 17.1031 33.472 17.287C33.7274 17.474 33.7523 17.5288 33.9827 17.0741C34.2162 16.6226 34.5027 16.1388 34.4249 15.955C34.347 15.768 34.7082 15.3648 34.7082 15.3648V14.8295L33.8301 14.9907C33.8301 14.9907 33.7025 15.3358 33.363 15.3358C33.0236 15.3358 32.4881 15.3358 32.5379 15.123C32.5908 14.9101 32.4881 14.3747 32.4881 14.3747L32.2825 14.2941L31.9182 13.8974L31.585 13.8168L31.0463 13.7362L30.9187 13.1783L30.5077 12.4042C30.5077 12.4042 30.5077 11.5206 30.4049 11.5206C30.3021 11.5206 30.2243 10.7466 29.2964 10.5079C28.3685 10.2693 27.9574 10.5337 27.7986 10.5337C27.6398 10.5337 27.1291 10.6659 27.0513 10.9852C26.9734 11.3045 27.2848 11.1981 27.2848 11.1981L27.3346 11.6238C27.3346 11.6238 26.8738 12.0011 26.8177 12.2398C26.7648 12.4784 26.4846 13.0138 26.5344 13.1202C26.5873 13.2266 26.4067 13.6298 26.0985 13.7104C25.8649 13.7717 25.5504 13.6878 25.2577 13.5911C25.1674 13.562 25.0771 13.5266 24.9899 13.4975C24.6318 13.3621 24.3454 13.5491 24.2177 13.4169C24.0869 13.2847 23.9343 13.046 23.5731 13.4717C23.2088 13.8974 22.6421 14.1135 21.9975 14.1135C21.353 14.1135 20.7115 13.9523 20.6088 13.6878C20.506 13.4201 20.1977 13.475 20.1977 13.475C20.1977 13.475 20.0171 12.9364 19.5002 13.0493C18.9833 13.1525 18.1613 13.5008 17.825 13.0751C17.4856 12.6493 17.4389 12.2462 17.4389 12.2462L16.9002 11.9818L16.2525 11.9527L16.2805 11.7689L15.8134 11.527C15.1689 12.2236 15.2965 12.7558 15.4024 12.9138C15.5052 13.0751 15.3526 13.662 15.1222 13.6362C14.8886 13.6104 14.5025 13.2911 14.1911 13.3976C13.886 13.504 13.475 13.3685 13.3411 13.0525C13.2134 12.7267 12.7214 12.9428 12.7214 12.9428L12.6965 12.7848L12.2356 12.6268L10.6351 13.8265L10.1432 13.9071C10.1432 13.9071 10.084 13.991 10.0155 14.0522H10.0124C9.97188 14.0909 9.92518 14.12 9.88781 14.12C9.85045 14.12 9.7726 14.0942 9.68542 14.0555C9.52972 13.9813 9.34601 13.8749 9.34601 13.8265C9.34601 13.7459 9.37091 13.5846 9.37091 13.5846C9.37091 13.5846 9.06264 14.0426 8.77617 13.8523C8.49281 13.6652 8.36515 13.3685 8.36515 13.3685L8.00083 13.1041C8.00083 13.1041 7.9261 12.6268 7.56489 12.6526C7.2068 12.6784 7.07913 12.8106 7.07913 12.8106L6.69302 12.7848L6.48751 12.6784C6.48751 12.6784 6.3069 12.143 6.22905 12.2785C6.15121 12.4139 5.81802 12.8138 5.81802 12.8138C5.81802 12.8138 4.91501 10.8659 4.84028 10.7853C4.76244 10.7079 4.04002 10.0113 4.04002 10.0113C4.04002 10.0113 3.96218 9.79841 4.06494 9.71778C4.1677 9.64038 4.50087 9.26627 3.88433 9.61135C3.26468 9.95643 2.80383 10.2015 2.80383 10.2015L2.3928 10.4402C2.3928 10.4402 2.26513 10.1467 2.3928 10.0951C2.52047 10.0403 2.64814 9.88226 2.64814 9.88226L1.90082 9.93386L1.61746 9.6436C1.61746 9.6436 1.15661 10.0145 1.1317 9.77583C1.10679 9.53395 1.15661 9.10502 1.07876 9.05342C1.00092 9.00182 1.07877 8.70834 0.976007 8.70834C0.873251 8.70834 0.770496 8.84056 0.49025 8.78897C0.20689 8.73414 -0.0297642 8.49548 -0.0297642 8.49548L-0.285093 8.78897L-0.412762 8.97279L-1.88561 9.21467L-1.93543 9.53073L-2.73569 9.66618L-3.42695 9.95643L-3.76637 9.93063L-4.09954 9.85323L-4.30506 10.2241L-3.97188 10.3821L-4.09954 10.5692L-3.58265 10.8369L-4.20231 10.782C-4.20231 10.782 -4.28015 11.1013 -4.25213 11.2336C-4.22722 11.369 -4.28015 11.4206 -4.51057 11.5851C-4.741 11.7431 -4.61333 11.9302 -4.61333 11.9302C-4.61333 11.9302 -4.30506 12.0108 -4.12134 12.1978C-3.93763 12.3849 -3.76326 12.9138 -4.09644 12.9138C-4.42962 12.9138 -4.76903 12.7267 -4.76903 12.7267L-4.94651 13.0202C-4.94651 13.0202 -5.4852 12.6751 -5.54125 12.5687C-5.59419 12.4623 -5.89934 12.5139 -5.89934 12.5139L-6.03013 12.7558L-6.31037 12.5139C-6.31037 12.5139 -6.59373 12.6235 -6.7214 12.7816C-6.85218 12.9396 -6.92692 13.0751 -6.92692 13.0751L-7.52166 12.5913L-7.59951 13.017L-7.88287 12.5074L-8.21604 12.1624H-8.62707L-8.75474 11.9495C-8.75474 11.9495 -9.09414 12.1624 -9.19067 12.2172C-9.29654 12.2688 -9.29654 12.0301 -9.29654 12.0301L-9.57679 12.0043L-10.2992 12.5397L-10.3272 12.8041L-10.7383 12.9364C-10.7383 12.9364 -10.5577 13.6072 -10.6853 13.5782C-10.813 13.5524 -11.2489 13.1009 -11.2489 13.1009L-11.6132 13.5266L-11.5883 14.1941L-11.8188 14.7843L-11.5105 14.8359L-11.5354 15.3197H-11.0434L-10.5327 16.0937L-10.8908 16.1453L-10.2961 16.5291C-10.2961 16.5291 -10.2992 16.5323 -10.3054 16.5388C-10.7009 16.858 -11.4762 17.4482 -11.4762 17.6804C-11.4762 17.9126 -11.2334 18.2158 -11.2178 18.606C-11.2022 18.993 -11.168 19.5122 -10.8597 19.7961C-10.8099 19.838 -10.76 19.8928 -10.7165 19.9573L-11.0995 20.3379L-11.4326 20.2314L-11.6631 19.938L-11.9651 19.8348L-11.9744 19.8122Z" fill="#90C6DE" stroke="white" stroke-width="0.06" mask="url(#path-48-inside-1_4558_45130)"/>
<path d="M24.7687 42.4358L24.4356 42.5455L24.2083 42.3649C24.3702 42.223 24.5259 42.0843 24.6753 41.9521L24.7407 42.1456L24.7687 42.4358Z" fill="#90C6DE"/>
</g>
</svg>
