<svg width="24" height="24" viewBox="0 0 24 24" fill="none" xmlns="http://www.w3.org/2000/svg">
<g clip-path="url(#clip0_6144_24361)">
<g clip-path="url(#clip1_6144_24361)">
<mask id="mask0_6144_24361" style="mask-type:luminance" maskUnits="userSpaceOnUse" x="-4" y="0" width="32" height="24">
<rect x="-4" width="32" height="24" fill="white"/>
</mask>
<g mask="url(#mask0_6144_24361)">
<path fill-rule="evenodd" clip-rule="evenodd" d="M-4 0V24H28V0H-4Z" fill="#F7FCFF"/>
<mask id="mask1_6144_24361" style="mask-type:luminance" maskUnits="userSpaceOnUse" x="-4" y="0" width="32" height="24">
<path fill-rule="evenodd" clip-rule="evenodd" d="M-4 0V24H28V0H-4Z" fill="white"/>
</mask>
<g mask="url(#mask1_6144_24361)">
<path fill-rule="evenodd" clip-rule="evenodd" d="M11.7117 16.5302C14.2638 16.5302 16.3326 14.4715 16.3326 11.932C16.3326 9.39243 14.2638 7.33374 11.7117 7.33374C9.15966 7.33374 7.09082 9.39243 7.09082 11.932C7.09082 14.4715 9.15966 16.5302 11.7117 16.5302Z" fill="#3D58DB"/>
<mask id="mask2_6144_24361" style="mask-type:luminance" maskUnits="userSpaceOnUse" x="7" y="7" width="10" height="10">
<path fill-rule="evenodd" clip-rule="evenodd" d="M11.7117 16.5302C14.2638 16.5302 16.3326 14.4715 16.3326 11.932C16.3326 9.39243 14.2638 7.33374 11.7117 7.33374C9.15966 7.33374 7.09082 9.39243 7.09082 11.932C7.09082 14.4715 9.15966 16.5302 11.7117 16.5302Z" fill="white"/>
</mask>
<g mask="url(#mask2_6144_24361)">
<path fill-rule="evenodd" clip-rule="evenodd" d="M16.4943 12.2841C16.4943 12.2841 16.2349 10.1159 14.314 9.9982C12.3931 9.88049 11.8752 11.5882 11.7643 12.0407C11.6535 12.4931 11.3729 13.7001 9.35043 13.7001C7.32794 13.7001 7.14551 10.631 7.14551 10.631V7.01221H16.4943V12.2841Z" fill="#D83332"/>
</g>
<path fill-rule="evenodd" clip-rule="evenodd" d="M4.77869 4.45898L5.50777 5.07685L2.12898 8.77414L1.3999 8.15627L4.77869 4.45898ZM5.98113 5.45879L6.7102 6.07666L3.45253 9.72039L2.72346 9.10252L5.98113 5.45879ZM7.90712 7.08885L7.17804 6.47099L3.91132 10.1424L4.64039 10.7602L7.90712 7.08885Z" fill="#292B2E"/>
<path fill-rule="evenodd" clip-rule="evenodd" d="M19.1732 4.19995L18.444 4.8155L19.7089 6.20637L20.4381 5.59082L19.1732 4.19995ZM21.4216 6.75844L20.6924 7.374L21.9573 8.76486L22.6865 8.14931L21.4216 6.75844ZM16.0371 6.81888L16.7664 6.20332L18.0313 7.59419L17.3021 8.20974L16.0371 6.81888ZM19.0147 8.76172L18.2854 9.37727L19.5504 10.7681L20.2796 10.1526L19.0147 8.76172ZM17.2862 5.78733L18.0154 5.17178L21.5363 9.18934L20.8071 9.8049L17.2862 5.78733Z" fill="#292B2E"/>
<path fill-rule="evenodd" clip-rule="evenodd" d="M19.7238 13.5613L18.9884 12.9434L17.7129 14.3397L18.4482 14.9576L19.7238 13.5613ZM17.5793 16.0185L16.8439 15.4006L15.5684 16.7969L16.3037 17.4148L17.5793 16.0185ZM21.3108 14.8977L22.0461 15.5157L20.7706 16.912L20.0352 16.294L21.3108 14.8977ZM20.0065 18.0297L19.2711 17.4117L17.9955 18.808L18.7309 19.426L20.0065 18.0297ZM18.0597 16.35L18.795 16.9679L17.4636 18.4589L16.7282 17.8409L18.0597 16.35ZM20.9795 14.4834L20.2442 13.8655L18.9127 15.3565L19.6481 15.9744L20.9795 14.4834Z" fill="#292B2E"/>
<path fill-rule="evenodd" clip-rule="evenodd" d="M4.06725 14.0442L4.79652 13.428L8.05127 16.9226L7.322 17.5388L4.06725 14.0442ZM4.82652 17.1007L5.55579 16.4845L6.93058 17.8998L6.20131 18.516L4.82652 17.1007ZM2.39627 15.3888L1.667 16.0051L4.93865 19.5466L5.66792 18.9304L2.39627 15.3888ZM2.91509 14.9866L3.64436 14.3704L4.83616 15.6799L4.10689 16.2961L2.91509 14.9866Z" fill="#292B2E"/>
</g>
</g>
</g>
<g style="mix-blend-mode:hard-light" opacity="0.12">
<rect width="24" height="24" rx="12" fill="white"/>
</g>
<rect width="24" height="24" fill="url(#paint0_linear_6144_24361)" fill-opacity="0.64" style="mix-blend-mode:overlay"/>
</g>
<defs>
<linearGradient id="paint0_linear_6144_24361" x1="24" y1="1.19273e-06" x2="-4.48665" y2="16.0237" gradientUnits="userSpaceOnUse">
<stop stop-color="white" stop-opacity="0.3"/>
<stop offset="0.262741" stop-opacity="0.27"/>
<stop offset="0.369956" stop-color="white" stop-opacity="0.26"/>
<stop offset="0.487001" stop-opacity="0.55"/>
<stop offset="0.594445" stop-opacity="0.24"/>
<stop offset="0.736408" stop-color="white" stop-opacity="0.3"/>
<stop offset="0.901459" stop-color="#272727" stop-opacity="0.22"/>
<stop offset="1" stop-opacity="0.2"/>
</linearGradient>
<clipPath id="clip0_6144_24361">
<rect width="24" height="24" rx="12" fill="white"/>
</clipPath>
<clipPath id="clip1_6144_24361">
<rect width="24" height="24" fill="white"/>
</clipPath>
</defs>
</svg>
