<svg width="24" height="24" viewBox="0 0 24 24" fill="none" xmlns="http://www.w3.org/2000/svg">
<g clip-path="url(#clip0_6144_24413)">
<g clip-path="url(#clip1_6144_24413)">
<mask id="mask0_6144_24413" style="mask-type:luminance" maskUnits="userSpaceOnUse" x="-4" y="0" width="32" height="24">
<rect x="-4" width="32" height="24" fill="white"/>
</mask>
<g mask="url(#mask0_6144_24413)">
<path fill-rule="evenodd" clip-rule="evenodd" d="M-4 0V24H28V0H-4Z" fill="#F7FCFF"/>
<mask id="mask1_6144_24413" style="mask-type:luminance" maskUnits="userSpaceOnUse" x="-4" y="0" width="32" height="24">
<path fill-rule="evenodd" clip-rule="evenodd" d="M-4 0V24H28V0H-4Z" fill="white"/>
</mask>
<g mask="url(#mask1_6144_24413)">
<path fill-rule="evenodd" clip-rule="evenodd" d="M12 0V12H28V0H12Z" fill="#E31D1C"/>
<path fill-rule="evenodd" clip-rule="evenodd" d="M6.66209 8.1058C6.59756 8.07122 6.51976 8.07238 6.4563 8.10887L4.95655 8.97102C4.78778 9.06804 4.58843 8.90539 4.64961 8.72059L5.12781 7.27615C5.15396 7.19718 5.1315 7.11021 5.07039 7.05377L4.06856 6.1285C3.92818 5.99884 4.0175 5.76424 4.20856 5.76077L5.59531 5.73561C5.67826 5.73411 5.75271 5.68436 5.78584 5.60831L6.43097 4.12734C6.50634 3.9543 6.75325 3.95861 6.82254 4.13418L7.41361 5.63174C7.44508 5.71145 7.52144 5.76439 7.60712 5.76588L8.97738 5.7898C9.16929 5.79315 9.25833 6.02944 9.11634 6.15861L8.08148 7.10005C8.01802 7.15778 7.9956 7.24807 8.0247 7.32878L8.51081 8.67708C8.57671 8.85986 8.38249 9.02763 8.21123 8.93586L6.66209 8.1058Z" fill="#2E42A4"/>
<path fill-rule="evenodd" clip-rule="evenodd" d="M17.6621 19.1058C17.5976 19.0712 17.5198 19.0724 17.4563 19.1089L15.9565 19.971C15.7878 20.068 15.5884 19.9054 15.6496 19.7206L16.1278 18.2761C16.154 18.1972 16.1315 18.1102 16.0704 18.0538L15.0686 17.1285C14.9282 16.9988 15.0175 16.7642 15.2086 16.7608L16.5953 16.7356C16.6783 16.7341 16.7527 16.6844 16.7858 16.6083L17.431 15.1273C17.5063 14.9543 17.7533 14.9586 17.8225 15.1342L18.4136 16.6317C18.4451 16.7115 18.5214 16.7644 18.6071 16.7659L19.9774 16.7898C20.1693 16.7932 20.2583 17.0294 20.1163 17.1586L19.0815 18.1C19.018 18.1578 18.9956 18.2481 19.0247 18.3288L19.5108 19.6771C19.5767 19.8599 19.3825 20.0276 19.2112 19.9359L17.6621 19.1058Z" fill="#E31D1C"/>
<path fill-rule="evenodd" clip-rule="evenodd" d="M-4 12V24H12V12H-4Z" fill="#2E42A5"/>
</g>
</g>
</g>
<g style="mix-blend-mode:hard-light" opacity="0.12">
<rect width="24" height="24" rx="12" fill="white"/>
</g>
<rect width="24" height="24" fill="url(#paint0_linear_6144_24413)" fill-opacity="0.64" style="mix-blend-mode:overlay"/>
</g>
<defs>
<linearGradient id="paint0_linear_6144_24413" x1="24" y1="1.19273e-06" x2="-4.48665" y2="16.0237" gradientUnits="userSpaceOnUse">
<stop stop-color="white" stop-opacity="0.3"/>
<stop offset="0.262741" stop-opacity="0.27"/>
<stop offset="0.369956" stop-color="white" stop-opacity="0.26"/>
<stop offset="0.487001" stop-opacity="0.55"/>
<stop offset="0.594445" stop-opacity="0.24"/>
<stop offset="0.736408" stop-color="white" stop-opacity="0.3"/>
<stop offset="0.901459" stop-color="#272727" stop-opacity="0.22"/>
<stop offset="1" stop-opacity="0.2"/>
</linearGradient>
<clipPath id="clip0_6144_24413">
<rect width="24" height="24" rx="12" fill="white"/>
</clipPath>
<clipPath id="clip1_6144_24413">
<rect width="24" height="24" fill="white"/>
</clipPath>
</defs>
</svg>
