<svg width="24" height="24" viewBox="0 0 24 24" fill="none" xmlns="http://www.w3.org/2000/svg">
<g clip-path="url(#clip0_6144_24414)">
<g clip-path="url(#clip1_6144_24414)">
<mask id="mask0_6144_24414" style="mask-type:luminance" maskUnits="userSpaceOnUse" x="-4" y="0" width="32" height="24">
<rect x="-4" width="32" height="24" fill="white"/>
</mask>
<g mask="url(#mask0_6144_24414)">
<path fill-rule="evenodd" clip-rule="evenodd" d="M6 0H18V24H6V0Z" fill="#F7FCFF"/>
<path fill-rule="evenodd" clip-rule="evenodd" d="M18 0H28V24H18V0Z" fill="#E31D1C"/>
<path fill-rule="evenodd" clip-rule="evenodd" d="M-4 0H6V24H-4V0Z" fill="#E31D1C"/>
<path d="M11.8508 9.75603L11.8736 10.0021C11.1947 10.0708 10.8279 9.73908 10.8279 9.05059C10.8279 8.36743 11.1867 8.0043 11.8615 8L11.8629 8.24725C11.3162 8.25073 11.0644 8.50558 11.0644 9.05059C11.0644 9.59029 11.3083 9.81089 11.8508 9.75603Z" fill="#A2BB6A"/>
<path d="M12.1514 9.75603L12.1286 10.0021C12.8075 10.0708 13.1743 9.73908 13.1743 9.05059C13.1743 8.36743 12.8155 8.0043 12.1407 8L12.1393 8.24725C12.686 8.25073 12.9378 8.50558 12.9378 9.05059C12.9378 9.59029 12.6939 9.81089 12.1514 9.75603Z" fill="#A2BB6A"/>
<path fill-rule="evenodd" clip-rule="evenodd" d="M11.4416 15.4525C11.2464 15.5224 9.92285 15.4525 9.92285 15.4525V15.8211H10.8003C11.0931 15.8211 11.2038 15.8735 11.3053 15.9216C11.3914 15.9623 11.4708 16 11.649 16C11.996 16 11.9896 15.7418 11.9843 15.527C11.9837 15.5014 11.9831 15.4764 11.9831 15.4525C11.9831 15.3612 11.9973 15.3103 12.0084 15.2706C12.0246 15.213 12.034 15.1792 11.9831 15.08C11.8971 14.9125 11.0797 14.9349 11.0797 15.08C11.0797 15.1484 11.2036 15.2196 11.3141 15.2831C11.4379 15.3542 11.5447 15.4155 11.4416 15.4525ZM12.6311 15.4525C12.8263 15.5225 14.1498 15.4525 14.1498 15.4525V15.8212H13.2723C12.9796 15.8212 12.8689 15.8736 12.7673 15.9216C12.6813 15.9624 12.6018 16 12.4237 16C12.0767 16 12.083 15.7419 12.0883 15.527C12.089 15.5014 12.0896 15.4764 12.0896 15.4525C12.0896 15.3612 12.0753 15.3103 12.0642 15.2707C12.0481 15.213 12.0386 15.1793 12.0896 15.0801C12.1755 14.9126 12.9929 14.935 12.9929 15.0801C12.9929 15.1485 12.869 15.2197 12.7585 15.2831C12.6348 15.3542 12.5279 15.4156 12.6311 15.4525Z" fill="#E31D1C"/>
<path fill-rule="evenodd" clip-rule="evenodd" d="M12.3035 15.4878C12.3035 15.4878 13.3363 15.3852 13.5699 15.0127C13.8035 14.6403 14.1925 14.0044 14.3294 13.8504C14.4662 13.6965 14.475 14.0703 14.475 14.0703C14.475 14.0703 14.7007 14.3905 14.7007 13.9811C14.7007 13.5718 14.5402 13.8578 14.3294 13.2418C14.1185 12.6259 13.9999 12.0218 14.0592 11.9303C14.1185 11.8389 14.259 12.0218 14.259 11.9303C14.259 11.8389 14.259 11.6599 14.259 11.6599L14.475 11.9303L14.7007 11.8447C14.7007 11.8447 14.8865 12.2426 15.001 12.3658C15.1154 12.4889 15.1824 12.2008 15.1489 11.9303C15.1154 11.6599 14.7007 11.6599 14.7007 11.6599C14.7007 11.6599 14.1703 11.374 14.1703 11.2542C14.1703 11.1344 14.3996 11.1701 14.3996 11.1701L14.3294 10.7991C14.3294 10.7991 14.5189 11.0244 14.6098 10.9117C14.7007 10.7991 14.475 10.6014 14.475 10.6014H14.8349V10.4276L15.001 10.5206L14.8349 10.1412C14.8349 10.1412 14.3476 10.2146 14.259 10.1412C14.1703 10.0679 13.8913 9.78187 13.8913 9.78187V9.64611H13.7305L13.8913 9.37378V8.94012L14.475 9.0565V8.73584C14.475 8.73584 15.2968 9.13644 15.1489 9.45916C15.001 9.78187 15.001 10.1412 15.001 10.1412V10.4276C15.001 10.4276 15.0256 10.34 15.1489 10.34C15.2722 10.34 15.4125 10.4037 15.4125 10.6014C15.4125 10.7991 15.6636 10.5206 15.6636 10.5206V11.3431C15.6636 11.3431 15.7226 11.432 15.8517 11.3431C15.9807 11.2542 15.9241 11.3236 15.5365 11.8447C15.1489 12.3658 15.2885 12.3672 15.4125 12.2395C15.5365 12.1118 16.0397 11.7488 15.8517 11.9303C15.6636 12.1118 15.6511 12.492 15.8517 12.3658C16.0522 12.2395 16.0135 12.1496 16.0135 12.3658C16.0135 12.5819 15.6605 13.3175 15.5365 13.4327C15.4125 13.548 15.2968 13.6188 15.1489 13.7346C15.001 13.8504 14.8349 13.9873 14.8349 14.0703C14.8349 14.1534 15.1489 13.9811 15.1489 13.9811L15.001 14.5091H15.2884C15.2884 14.5091 15.0597 15.2103 14.6098 15.2103C14.16 15.2103 13.8209 15.2103 13.7305 15.2103C13.6401 15.2103 13.2317 15.4029 13.2317 15.4029L12.9329 15.4878C12.9329 15.4878 13.4092 15.5333 13.5699 15.6763C13.7305 15.8194 13.5699 15.9191 13.5699 15.9191C13.5699 15.9191 13.129 15.8754 12.7999 15.7759C12.4709 15.6763 12.3035 15.8649 12.3035 15.6763C12.3035 15.4878 12.3035 15.4878 12.3035 15.4878Z" fill="#00A854"/>
<path fill-rule="evenodd" clip-rule="evenodd" d="M15.2785 9.86753C15.2785 9.9358 15.2256 9.99115 15.1602 9.99115C15.0949 9.99115 15.042 9.9358 15.042 9.86753C15.042 9.79925 15.0949 9.7439 15.1602 9.7439C15.2256 9.7439 15.2785 9.79925 15.2785 9.86753ZM14.6873 10.3621C14.6873 10.4303 14.6343 10.4857 14.569 10.4857C14.5037 10.4857 14.4508 10.4303 14.4508 10.3621C14.4508 10.2938 14.5037 10.2384 14.569 10.2384C14.6343 10.2384 14.6873 10.2938 14.6873 10.3621ZM15.2786 10.2382C15.3439 10.2382 15.3969 10.1829 15.3969 10.1146C15.3969 10.0463 15.3439 9.99097 15.2786 9.99097C15.2133 9.99097 15.1604 10.0463 15.1604 10.1146C15.1604 10.1829 15.2133 10.2382 15.2786 10.2382ZM15.0421 12.0927C15.0421 12.161 14.9891 12.2163 14.9238 12.2163C14.8585 12.2163 14.8056 12.161 14.8056 12.0927C14.8056 12.0244 14.8585 11.9691 14.9238 11.9691C14.9891 11.9691 15.0421 12.0244 15.0421 12.0927ZM14.4508 13.6999C14.5161 13.6999 14.569 13.6446 14.569 13.5763C14.569 13.508 14.5161 13.4527 14.4508 13.4527C14.3855 13.4527 14.3325 13.508 14.3325 13.5763C14.3325 13.6446 14.3855 13.6999 14.4508 13.6999ZM15.3969 13.9472C15.3969 14.0155 15.3439 14.0708 15.2786 14.0708C15.2133 14.0708 15.1604 14.0155 15.1604 13.9472C15.1604 13.8789 15.2133 13.8236 15.2786 13.8236C15.3439 13.8236 15.3969 13.8789 15.3969 13.9472ZM15.515 13.8238C15.5803 13.8238 15.6333 13.7684 15.6333 13.7001C15.6333 13.6319 15.5803 13.5765 15.515 13.5765C15.4497 13.5765 15.3968 13.6319 15.3968 13.7001C15.3968 13.7684 15.4497 13.8238 15.515 13.8238ZM15.5151 11.9691C15.5151 12.0374 15.4622 12.0927 15.3969 12.0927C15.3316 12.0927 15.2786 12.0374 15.2786 11.9691C15.2786 11.9008 15.3316 11.8455 15.3969 11.8455C15.4622 11.8455 15.5151 11.9008 15.5151 11.9691Z" fill="#C51918"/>
<path fill-rule="evenodd" clip-rule="evenodd" d="M11.8128 15.2702C11.8128 15.2702 9.93365 14.8988 9.83087 14.1799C9.7281 13.461 9.72953 12.6957 9.72953 12.6957L9.55529 13.1634C9.55529 13.1634 9.54648 12.5267 9.9039 12.0726C10.2613 11.6184 9.45711 12.3735 9.45711 12.3735C9.45711 12.3735 9.86431 11.7315 10.0338 11.6703C10.2034 11.6092 9.35267 12.0726 9.35267 12.0726C9.35267 12.0726 9.59637 11.5338 9.78581 11.3814C9.97525 11.2291 9.35267 11.6703 9.35267 11.6703C9.35267 11.6703 9.49354 11.136 9.66203 11.0085C9.83053 10.881 9.11144 11.6703 9.11144 11.6703C9.11144 11.6703 9.49078 10.4494 9.7045 10.3354C9.91823 10.2215 9.35267 10.5593 9.35267 10.5593C9.35267 10.5593 9.69909 10.0371 10.0094 9.77748C10.3197 9.51788 9.44854 9.88818 9.55529 9.88818C9.55529 9.88818 9.87029 9.53244 10.0513 9.43203C10.2323 9.33162 9.35267 9.77748 9.35267 9.77748C9.35267 9.77748 9.98406 9.08075 10.1733 8.97817C10.3626 8.8756 9.24419 9.53148 9.24419 9.53148C9.24419 9.53148 9.30951 9.22766 9.33771 9.01054C9.3659 8.79342 8.81956 9.6056 8.89374 10.3354C8.96792 11.0652 8.59652 9.77748 8.59652 9.77748C8.59652 9.77748 8.44707 10.0571 8.81013 10.7893L8.41663 10.2378C8.41663 10.2378 8.47043 10.7383 8.59652 11.0085C8.7226 11.2787 8.23864 10.5593 8.23864 10.5593C8.23864 10.5593 8.14605 11.0085 8.23864 11.0085C8.23864 11.0085 8.79125 11.7468 8.81174 11.9621C8.83222 12.1773 8.19111 11.1935 8.10531 11.1935C8.0195 11.1935 7.97197 11.5095 8.10531 11.5095C8.23864 11.5095 8.49121 11.9621 8.49121 11.9621C8.49121 11.9621 8.16297 11.7248 8.09259 11.7108C8.02221 11.6968 8.14783 11.8515 8.23864 11.9621C8.23864 11.9621 7.98187 12.1714 8.00138 12.33C8.02089 12.4886 8.70119 12.5222 8.99767 13.275C8.99767 13.275 8.38469 12.9509 8.23864 12.9509C8.09259 12.9509 8.47383 13.2893 8.59652 13.4011C8.7192 13.5128 8.40748 13.2893 8.32306 13.4011C8.23864 13.5128 8.78981 13.9899 8.89374 13.9899C8.99767 13.9899 8.49121 13.9899 8.49121 13.9899C8.49121 13.9899 8.62581 14.1799 8.81174 14.1799C8.99767 14.1799 9.66203 14.4785 9.66203 14.5752C9.66203 14.672 9.10159 14.4514 8.99767 14.4514C8.89374 14.4514 9.72936 15.2401 10.1733 15.2702C10.6173 15.3002 10.8978 15.4194 11.0892 15.4194C11.2806 15.4194 11.4152 15.4194 11.4152 15.4194L10.5109 15.8801C10.5109 15.8801 10.4196 15.8801 10.8119 15.8801C11.2042 15.8801 11.5042 15.9892 11.6585 15.7638C11.8128 15.5384 11.8128 15.2702 11.8128 15.2702Z" fill="#00A854"/>
<mask id="path-12-outside-1_6144_24414" maskUnits="userSpaceOnUse" x="8.10718" y="7.84888" width="8" height="8" fill="black">
<rect fill="white" x="8.10718" y="7.84888" width="8" height="8"/>
<path fill-rule="evenodd" clip-rule="evenodd" d="M12.0857 9.86521C12.0676 9.85492 12.0574 9.84888 12.0574 9.84888V9.88103C11.9264 9.95329 11.597 10.1224 11.3827 10.1224C11.1103 10.1224 10.7399 9.84893 10.7399 9.84893L10.1203 10.7239C10.1203 10.7239 10.5376 11.5985 10.2183 12.6673C9.89897 13.736 10.2352 14.5601 11.6552 14.6516C11.6552 14.6516 11.9348 14.7047 12.0574 14.7894V14.8677C12.0574 14.8482 12.0679 14.8297 12.0856 14.8123C12.1034 14.8297 12.1139 14.8483 12.1139 14.8678V14.7894C12.2366 14.7047 12.5162 14.6516 12.5162 14.6516C13.9361 14.5601 14.2724 13.736 13.9531 12.6672C13.6337 11.5984 14.051 10.7238 14.051 10.7238L13.4314 9.84888C13.4314 9.84888 13.0611 10.1224 12.7886 10.1224C12.5744 10.1224 12.2449 9.95324 12.1139 9.88098V9.84893C12.1139 9.84893 12.1038 9.85495 12.0857 9.86521Z"/>
</mask>
<path fill-rule="evenodd" clip-rule="evenodd" d="M12.0857 9.86521C12.0676 9.85492 12.0574 9.84888 12.0574 9.84888V9.88103C11.9264 9.95329 11.597 10.1224 11.3827 10.1224C11.1103 10.1224 10.7399 9.84893 10.7399 9.84893L10.1203 10.7239C10.1203 10.7239 10.5376 11.5985 10.2183 12.6673C9.89897 13.736 10.2352 14.5601 11.6552 14.6516C11.6552 14.6516 11.9348 14.7047 12.0574 14.7894V14.8677C12.0574 14.8482 12.0679 14.8297 12.0856 14.8123C12.1034 14.8297 12.1139 14.8483 12.1139 14.8678V14.7894C12.2366 14.7047 12.5162 14.6516 12.5162 14.6516C13.9361 14.5601 14.2724 13.736 13.9531 12.6672C13.6337 11.5984 14.051 10.7238 14.051 10.7238L13.4314 9.84888C13.4314 9.84888 13.0611 10.1224 12.7886 10.1224C12.5744 10.1224 12.2449 9.95324 12.1139 9.88098V9.84893C12.1139 9.84893 12.1038 9.85495 12.0857 9.86521Z" fill="#E8AA00"/>
<path d="M12.0574 9.84888L12.5695 8.98993L11.0574 8.08851V9.84888H12.0574ZM12.0857 9.86521L11.5926 10.7352L12.0857 11.0147L12.5788 10.7352L12.0857 9.86521ZM12.0574 9.88103L12.5404 10.7566L13.0574 10.4714V9.88103H12.0574ZM10.7399 9.84893L11.334 9.04452L10.5134 8.4385L9.92386 9.27097L10.7399 9.84893ZM10.1203 10.7239L9.30422 10.1459L8.96504 10.6248L9.21776 11.1545L10.1203 10.7239ZM10.2183 12.6673L11.1764 12.9535L10.2183 12.6673ZM11.6552 14.6516L11.8418 13.6692L11.7811 13.6577L11.7195 13.6537L11.6552 14.6516ZM12.0574 14.7894H13.0574V14.2647L12.6256 13.9665L12.0574 14.7894ZM12.0856 14.8123L12.7854 14.0979L12.0853 13.4123L11.3856 14.0982L12.0856 14.8123ZM12.1139 14.7894L11.5457 13.9665L11.1139 14.2647V14.7894H12.1139ZM12.5162 14.6516L12.4519 13.6536L12.3902 13.6576L12.3295 13.6691L12.5162 14.6516ZM13.9531 12.6672L14.9112 12.3809V12.3809L13.9531 12.6672ZM14.051 10.7238L14.9536 11.1544L15.2063 10.6248L14.8671 10.1459L14.051 10.7238ZM13.4314 9.84888L14.2475 9.27092L13.6579 8.43845L12.8373 9.04447L13.4314 9.84888ZM12.1139 9.88098H11.1139V10.4714L11.6309 10.7566L12.1139 9.88098ZM12.1139 9.84893H13.1139V8.08856L11.6019 8.98998L12.1139 9.84893ZM12.0574 9.84888C11.5454 10.7078 11.5454 10.7078 11.5454 10.7078C11.5454 10.7078 11.5454 10.7079 11.5454 10.7079C11.5454 10.7079 11.5455 10.7079 11.5455 10.7079C11.5455 10.7079 11.5456 10.708 11.5456 10.708C11.5457 10.708 11.5458 10.7081 11.5459 10.7082C11.5461 10.7083 11.5463 10.7084 11.5465 10.7085C11.547 10.7088 11.5474 10.7091 11.5479 10.7094C11.549 10.71 11.5502 10.7107 11.5515 10.7115C11.5542 10.7131 11.5576 10.7151 11.5616 10.7174C11.5695 10.722 11.58 10.728 11.5926 10.7352L12.5788 8.99523C12.5733 8.99212 12.5696 8.98997 12.5679 8.98901C12.5671 8.98852 12.5668 8.98834 12.567 8.98848C12.5672 8.98856 12.5674 8.98871 12.5678 8.98895C12.568 8.98907 12.5683 8.98921 12.5685 8.98937C12.5687 8.98945 12.5688 8.98954 12.569 8.98963C12.5691 8.98968 12.5691 8.98973 12.5692 8.98978C12.5693 8.9898 12.5693 8.98983 12.5693 8.98985C12.5694 8.98986 12.5694 8.98988 12.5694 8.98989C12.5694 8.9899 12.5694 8.98991 12.5694 8.98991C12.5695 8.98992 12.5695 8.98993 12.0574 9.84888ZM13.0574 9.88103V9.84888H11.0574V9.88103H13.0574ZM11.5744 9.00543C11.5261 9.03205 11.4485 9.07227 11.3729 9.10318C11.3355 9.11845 11.3111 9.12628 11.3 9.12927C11.2952 9.13057 11.2988 9.12934 11.3098 9.12758C11.32 9.12594 11.3454 9.12242 11.3827 9.12242V11.1224C11.6969 11.1224 11.9861 11.0132 12.1297 10.9545C12.3051 10.8827 12.4577 10.8023 12.5404 10.7566L11.5744 9.00543ZM11.3827 9.12242C11.4698 9.12242 11.5143 9.14165 11.4986 9.13615C11.4901 9.13318 11.4679 9.12392 11.4342 9.10574C11.4026 9.08863 11.3731 9.07034 11.3516 9.05623C11.3414 9.04948 11.3342 9.04447 11.3307 9.04208C11.3291 9.04091 11.3284 9.04044 11.3289 9.04079C11.3292 9.04097 11.3297 9.04136 11.3305 9.04197C11.331 9.04228 11.3315 9.04264 11.332 9.04307C11.3323 9.04328 11.3326 9.0435 11.333 9.04375C11.3331 9.04387 11.3333 9.04399 11.3335 9.04412C11.3336 9.04418 11.3337 9.04428 11.3337 9.04432C11.3339 9.04442 11.334 9.04452 10.7399 9.84893C10.1459 10.6533 10.146 10.6534 10.1461 10.6535C10.1462 10.6536 10.1463 10.6537 10.1464 10.6538C10.1466 10.6539 10.1468 10.6541 10.147 10.6542C10.1475 10.6545 10.1479 10.6548 10.1484 10.6552C10.1493 10.6559 10.1503 10.6566 10.1515 10.6574C10.1537 10.6591 10.1564 10.661 10.1594 10.6632C10.1654 10.6676 10.173 10.673 10.182 10.6793C10.1999 10.6918 10.2237 10.7082 10.2525 10.7271C10.3089 10.7643 10.3891 10.8143 10.4841 10.8656C10.6283 10.9435 10.9789 11.1224 11.3827 11.1224V9.12242ZM9.92386 9.27097L9.30422 10.1459L10.9364 11.3018L11.556 10.4269L9.92386 9.27097ZM10.1203 10.7239C9.21776 11.1545 9.2176 11.1541 9.21744 11.1538C9.21739 11.1537 9.21723 11.1534 9.21713 11.1531C9.21692 11.1527 9.21672 11.1523 9.21653 11.1519C9.21615 11.1511 9.21579 11.1503 9.21545 11.1496C9.21478 11.1482 9.21421 11.1469 9.21372 11.1459C9.21275 11.1438 9.21215 11.1425 9.21187 11.1418C9.21133 11.1406 9.21209 11.1423 9.21392 11.1467C9.2176 11.1556 9.22541 11.1751 9.23543 11.2041C9.25564 11.2625 9.28361 11.3558 9.30534 11.4746C9.34919 11.7144 9.36363 12.0346 9.26013 12.381L11.1764 12.9535C11.3922 12.2312 11.3577 11.5796 11.2727 11.1149C11.23 10.8815 11.1736 10.6893 11.1256 10.5504C11.1015 10.4806 11.0792 10.4235 11.0613 10.3803C11.0523 10.3588 11.0444 10.3406 11.0379 10.326C11.0347 10.3188 11.0318 10.3124 11.0292 10.3069C11.028 10.3042 11.0268 10.3017 11.0257 10.2994C11.0252 10.2982 11.0247 10.2972 11.0242 10.2961C11.024 10.2956 11.0237 10.2951 11.0235 10.2946C11.0234 10.2944 11.0232 10.294 11.0232 10.2939C11.023 10.2936 11.0228 10.2932 10.1203 10.7239ZM9.26013 12.381C9.06322 13.0401 8.99481 13.8563 9.43891 14.5598C9.9002 15.2904 10.7157 15.5931 11.5908 15.6495L11.7195 13.6537C11.453 13.6365 11.2966 13.5881 11.2137 13.549C11.1739 13.5302 11.1529 13.5145 11.1433 13.5063C11.1343 13.4985 11.1313 13.4939 11.1301 13.4921C11.1296 13.4914 11.111 13.4637 11.1077 13.3769C11.1041 13.2851 11.1191 13.1454 11.1764 12.9535L9.26013 12.381ZM11.6552 14.6516C11.4685 15.634 11.4684 15.634 11.4683 15.634C11.4682 15.634 11.4681 15.634 11.4681 15.634C11.468 15.6339 11.4678 15.6339 11.4677 15.6339C11.4675 15.6338 11.4672 15.6338 11.467 15.6338C11.4666 15.6337 11.4663 15.6336 11.466 15.6336C11.4653 15.6334 11.465 15.6334 11.4648 15.6333C11.4645 15.6333 11.4651 15.6334 11.4664 15.6336C11.469 15.6342 11.4745 15.6353 11.4821 15.637C11.4979 15.6406 11.519 15.6457 11.5406 15.6517C11.5639 15.6582 11.5772 15.6629 11.5806 15.6643C11.5928 15.669 11.5511 15.6551 11.4892 15.6123L12.6256 13.9665C12.413 13.8197 12.1653 13.7497 12.08 13.7258C12.0163 13.708 11.9599 13.6945 11.9194 13.6854C11.8989 13.6808 11.8816 13.6772 11.8684 13.6745C11.8619 13.6731 11.8563 13.672 11.8518 13.6711C11.8496 13.6707 11.8476 13.6703 11.846 13.67C11.8451 13.6698 11.8444 13.6697 11.8437 13.6695C11.8433 13.6695 11.843 13.6694 11.8427 13.6694C11.8425 13.6693 11.8424 13.6693 11.8423 13.6693C11.8422 13.6693 11.8421 13.6692 11.842 13.6692C11.8419 13.6692 11.8418 13.6692 11.6552 14.6516ZM13.0574 14.8677V14.7894H11.0574V14.8677H13.0574ZM11.3856 14.0982C11.2718 14.2098 11.0574 14.4699 11.0574 14.8677H13.0574C13.0574 15.2266 12.864 15.4497 12.7857 15.5264L11.3856 14.0982ZM11.3859 15.5267C11.3077 15.4501 11.1139 15.2269 11.1139 14.8678H13.1139C13.1139 14.4696 12.8992 14.2094 12.7854 14.0979L11.3859 15.5267ZM13.1139 14.8678V14.7894H11.1139V14.8678H13.1139ZM12.5162 14.6516C12.3295 13.6691 12.3294 13.6692 12.3293 13.6692C12.3293 13.6692 12.3292 13.6692 12.3291 13.6692C12.3289 13.6693 12.3288 13.6693 12.3286 13.6693C12.3283 13.6694 12.328 13.6694 12.3277 13.6695C12.327 13.6696 12.3262 13.6698 12.3254 13.6699C12.3237 13.6703 12.3217 13.6706 12.3195 13.6711C12.3151 13.672 12.3095 13.6731 12.3029 13.6744C12.2898 13.6771 12.2725 13.6808 12.2519 13.6854C12.2115 13.6945 12.155 13.7079 12.0914 13.7258C12.0061 13.7497 11.7583 13.8197 11.5457 13.9665L12.6821 15.6123C12.6202 15.655 12.5786 15.6689 12.5907 15.6642C12.5942 15.6629 12.6075 15.6582 12.6307 15.6517C12.6523 15.6456 12.6734 15.6405 12.6893 15.637C12.6968 15.6353 12.7023 15.6341 12.705 15.6336C12.7063 15.6333 12.7068 15.6332 12.7065 15.6333C12.7064 15.6333 12.706 15.6334 12.7054 15.6335C12.7051 15.6336 12.7047 15.6336 12.7043 15.6337C12.7041 15.6338 12.7039 15.6338 12.7036 15.6338C12.7035 15.6339 12.7034 15.6339 12.7033 15.6339C12.7032 15.6339 12.7031 15.6339 12.7031 15.634C12.703 15.634 12.7029 15.634 12.5162 14.6516ZM12.9949 12.9535C13.0522 13.1454 13.0672 13.285 13.0637 13.3769C13.0603 13.4637 13.0417 13.4913 13.0413 13.492C13.0401 13.4939 13.0371 13.4984 13.028 13.5062C13.0184 13.5144 12.9974 13.5302 12.9576 13.549C12.8748 13.5881 12.7183 13.6365 12.4519 13.6536L12.5805 15.6495C13.4556 15.5931 14.2711 15.2904 14.7324 14.5597C15.1765 13.8563 15.1081 13.04 14.9112 12.3809L12.9949 12.9535ZM14.051 10.7238C13.1485 10.2932 13.1484 10.2935 13.1482 10.2939C13.1481 10.294 13.148 10.2943 13.1478 10.2946C13.1476 10.2951 13.1474 10.2956 13.1471 10.2961C13.1467 10.2971 13.1461 10.2982 13.1456 10.2993C13.1445 10.3016 13.1434 10.3041 13.1421 10.3068C13.1396 10.3123 13.1367 10.3187 13.1334 10.326C13.1269 10.3405 13.119 10.3587 13.1101 10.3803C13.0922 10.4234 13.0699 10.4806 13.0458 10.5503C12.9977 10.6893 12.9413 10.8814 12.8986 11.1148C12.8136 11.5795 12.7791 12.2311 12.9949 12.9535L14.9112 12.3809C14.8077 12.0345 14.8222 11.7144 14.866 11.4746C14.8877 11.3558 14.9157 11.2625 14.9359 11.204C14.9459 11.1751 14.9537 11.1555 14.9574 11.1466C14.9592 11.1422 14.96 11.1406 14.9595 11.1418C14.9592 11.1424 14.9586 11.1437 14.9576 11.1458C14.9571 11.1469 14.9566 11.1481 14.9559 11.1496C14.9555 11.1503 14.9552 11.151 14.9548 11.1518C14.9546 11.1523 14.9544 11.1527 14.9542 11.1531C14.9541 11.1533 14.954 11.1536 14.9539 11.1538C14.9537 11.1541 14.9536 11.1544 14.051 10.7238ZM12.6153 10.4268L13.235 11.3018L14.8671 10.1459L14.2475 9.27092L12.6153 10.4268ZM12.7886 11.1224C13.1924 11.1224 13.543 10.9435 13.6873 10.8656C13.7822 10.8143 13.8624 10.7642 13.9189 10.727C13.9476 10.7081 13.9714 10.6918 13.9893 10.6792C13.9983 10.6729 14.0059 10.6675 14.0119 10.6632C14.015 10.661 14.0176 10.6591 14.0199 10.6574C14.021 10.6566 14.022 10.6558 14.023 10.6551C14.0234 10.6548 14.0239 10.6545 14.0243 10.6542C14.0245 10.654 14.0247 10.6539 14.0249 10.6537C14.025 10.6536 14.0252 10.6535 14.0252 10.6535C14.0253 10.6534 14.0255 10.6533 13.4314 9.84888C12.8373 9.04447 12.8375 9.04437 12.8376 9.04427C12.8376 9.04423 12.8378 9.04414 12.8379 9.04407C12.838 9.04394 12.8382 9.04382 12.8384 9.0437C12.8387 9.04346 12.839 9.04323 12.8393 9.04302C12.8399 9.04259 12.8404 9.04223 12.8408 9.04192C12.8416 9.04131 12.8422 9.04092 12.8424 9.04074C12.8429 9.04039 12.8423 9.04086 12.8406 9.04203C12.8372 9.04442 12.8299 9.04943 12.8197 9.05618C12.7982 9.07029 12.7688 9.08858 12.7371 9.10569C12.7034 9.12387 12.6812 9.13313 12.6727 9.1361C12.6571 9.1416 12.7016 9.12237 12.7886 9.12237V11.1224ZM11.6309 10.7566C11.7136 10.8022 11.8662 10.8827 12.0416 10.9544C12.1852 11.0131 12.4745 11.1224 12.7886 11.1224V9.12237C12.8259 9.12237 12.8513 9.12589 12.8616 9.12754C12.8725 9.12929 12.8761 9.13052 12.8713 9.12922C12.8602 9.12624 12.8358 9.1184 12.7985 9.10313C12.7229 9.07223 12.6452 9.03201 12.597 9.00538L11.6309 10.7566ZM13.1139 9.88098V9.84893H11.1139V9.88098H13.1139ZM12.1139 9.84893C11.6019 8.98998 11.6019 8.98997 11.6019 8.98996C11.6019 8.98995 11.6019 8.98994 11.6019 8.98994C11.6019 8.98993 11.602 8.98991 11.602 8.9899C11.602 8.98988 11.6021 8.98985 11.6021 8.98983C11.6022 8.98978 11.6023 8.98973 11.6024 8.98968C11.6025 8.98959 11.6027 8.9895 11.6028 8.98942C11.6031 8.98926 11.6033 8.98912 11.6035 8.989C11.6039 8.98876 11.6042 8.98861 11.6043 8.98853C11.6045 8.98839 11.6042 8.98857 11.6034 8.98905C11.6018 8.99001 11.5981 8.99215 11.5926 8.99524L12.5788 10.7352C12.5915 10.728 12.6019 10.722 12.6098 10.7174C12.6138 10.7151 12.6171 10.7131 12.6198 10.7115C12.6212 10.7107 12.6224 10.71 12.6234 10.7094C12.6239 10.7091 12.6244 10.7088 12.6248 10.7086C12.625 10.7084 12.6252 10.7083 12.6254 10.7082C12.6255 10.7081 12.6256 10.7081 12.6257 10.708C12.6258 10.708 12.6258 10.708 12.6259 10.708C12.6259 10.7079 12.6259 10.7079 12.6259 10.7079C12.6259 10.7079 12.6259 10.7079 12.626 10.7079C12.626 10.7079 12.626 10.7079 12.1139 9.84893Z" fill="#E8AA00" mask="url(#path-12-outside-1_6144_24414)"/>
<mask id="mask1_6144_24414" style="mask-type:luminance" maskUnits="userSpaceOnUse" x="8" y="8" width="8" height="8">
<mask id="path-14-outside-2_6144_24414" maskUnits="userSpaceOnUse" x="8.10718" y="7.84888" width="8" height="8" fill="black">
<rect fill="white" x="8.10718" y="7.84888" width="8" height="8"/>
<path fill-rule="evenodd" clip-rule="evenodd" d="M12.0857 9.86521C12.0676 9.85492 12.0574 9.84888 12.0574 9.84888V9.88103C11.9264 9.95329 11.597 10.1224 11.3827 10.1224C11.1103 10.1224 10.7399 9.84893 10.7399 9.84893L10.1203 10.7239C10.1203 10.7239 10.5376 11.5985 10.2183 12.6673C9.89897 13.736 10.2352 14.5601 11.6552 14.6516C11.6552 14.6516 11.9348 14.7047 12.0574 14.7894V14.8677C12.0574 14.8482 12.0679 14.8297 12.0856 14.8123C12.1034 14.8297 12.1139 14.8483 12.1139 14.8678V14.7894C12.2366 14.7047 12.5162 14.6516 12.5162 14.6516C13.9361 14.5601 14.2724 13.736 13.9531 12.6672C13.6337 11.5984 14.051 10.7238 14.051 10.7238L13.4314 9.84888C13.4314 9.84888 13.0611 10.1224 12.7886 10.1224C12.5744 10.1224 12.2449 9.95324 12.1139 9.88098V9.84893C12.1139 9.84893 12.1038 9.85495 12.0857 9.86521Z"/>
</mask>
<path fill-rule="evenodd" clip-rule="evenodd" d="M12.0857 9.86521C12.0676 9.85492 12.0574 9.84888 12.0574 9.84888V9.88103C11.9264 9.95329 11.597 10.1224 11.3827 10.1224C11.1103 10.1224 10.7399 9.84893 10.7399 9.84893L10.1203 10.7239C10.1203 10.7239 10.5376 11.5985 10.2183 12.6673C9.89897 13.736 10.2352 14.5601 11.6552 14.6516C11.6552 14.6516 11.9348 14.7047 12.0574 14.7894V14.8677C12.0574 14.8482 12.0679 14.8297 12.0856 14.8123C12.1034 14.8297 12.1139 14.8483 12.1139 14.8678V14.7894C12.2366 14.7047 12.5162 14.6516 12.5162 14.6516C13.9361 14.5601 14.2724 13.736 13.9531 12.6672C13.6337 11.5984 14.051 10.7238 14.051 10.7238L13.4314 9.84888C13.4314 9.84888 13.0611 10.1224 12.7886 10.1224C12.5744 10.1224 12.2449 9.95324 12.1139 9.88098V9.84893C12.1139 9.84893 12.1038 9.85495 12.0857 9.86521Z" fill="white"/>
<path d="M12.0574 9.84888L12.5695 8.98993L11.0574 8.08851V9.84888H12.0574ZM12.0857 9.86521L11.5926 10.7352L12.0857 11.0147L12.5788 10.7352L12.0857 9.86521ZM12.0574 9.88103L12.5404 10.7566L13.0574 10.4714V9.88103H12.0574ZM10.7399 9.84893L11.334 9.04452L10.5134 8.4385L9.92386 9.27097L10.7399 9.84893ZM10.1203 10.7239L9.30422 10.1459L8.96504 10.6248L9.21776 11.1545L10.1203 10.7239ZM10.2183 12.6673L11.1764 12.9535L10.2183 12.6673ZM11.6552 14.6516L11.8418 13.6692L11.7811 13.6577L11.7195 13.6537L11.6552 14.6516ZM12.0574 14.7894H13.0574V14.2647L12.6256 13.9665L12.0574 14.7894ZM12.0856 14.8123L12.7854 14.0979L12.0853 13.4123L11.3856 14.0982L12.0856 14.8123ZM12.1139 14.7894L11.5457 13.9665L11.1139 14.2647V14.7894H12.1139ZM12.5162 14.6516L12.4519 13.6536L12.3902 13.6576L12.3295 13.6691L12.5162 14.6516ZM13.9531 12.6672L14.9112 12.3809V12.3809L13.9531 12.6672ZM14.051 10.7238L14.9536 11.1544L15.2063 10.6248L14.8671 10.1459L14.051 10.7238ZM13.4314 9.84888L14.2475 9.27092L13.6579 8.43845L12.8373 9.04447L13.4314 9.84888ZM12.1139 9.88098H11.1139V10.4714L11.6309 10.7566L12.1139 9.88098ZM12.1139 9.84893H13.1139V8.08856L11.6019 8.98998L12.1139 9.84893ZM12.0574 9.84888C11.5454 10.7078 11.5454 10.7078 11.5454 10.7078C11.5454 10.7078 11.5454 10.7079 11.5454 10.7079C11.5454 10.7079 11.5455 10.7079 11.5455 10.7079C11.5455 10.7079 11.5456 10.708 11.5456 10.708C11.5457 10.708 11.5458 10.7081 11.5459 10.7082C11.5461 10.7083 11.5463 10.7084 11.5465 10.7085C11.547 10.7088 11.5474 10.7091 11.5479 10.7094C11.549 10.71 11.5502 10.7107 11.5515 10.7115C11.5542 10.7131 11.5576 10.7151 11.5616 10.7174C11.5695 10.722 11.58 10.728 11.5926 10.7352L12.5788 8.99523C12.5733 8.99212 12.5696 8.98997 12.5679 8.98901C12.5671 8.98852 12.5668 8.98834 12.567 8.98848C12.5672 8.98856 12.5674 8.98871 12.5678 8.98895C12.568 8.98907 12.5683 8.98921 12.5685 8.98937C12.5687 8.98945 12.5688 8.98954 12.569 8.98963C12.5691 8.98968 12.5691 8.98973 12.5692 8.98978C12.5693 8.9898 12.5693 8.98983 12.5693 8.98985C12.5694 8.98986 12.5694 8.98988 12.5694 8.98989C12.5694 8.9899 12.5694 8.98991 12.5694 8.98991C12.5695 8.98992 12.5695 8.98993 12.0574 9.84888ZM13.0574 9.88103V9.84888H11.0574V9.88103H13.0574ZM11.5744 9.00543C11.5261 9.03205 11.4485 9.07227 11.3729 9.10318C11.3355 9.11845 11.3111 9.12628 11.3 9.12927C11.2952 9.13057 11.2988 9.12934 11.3098 9.12758C11.32 9.12594 11.3454 9.12242 11.3827 9.12242V11.1224C11.6969 11.1224 11.9861 11.0132 12.1297 10.9545C12.3051 10.8827 12.4577 10.8023 12.5404 10.7566L11.5744 9.00543ZM11.3827 9.12242C11.4698 9.12242 11.5143 9.14165 11.4986 9.13615C11.4901 9.13318 11.4679 9.12392 11.4342 9.10574C11.4026 9.08863 11.3731 9.07034 11.3516 9.05623C11.3414 9.04948 11.3342 9.04447 11.3307 9.04208C11.3291 9.04091 11.3284 9.04044 11.3289 9.04079C11.3292 9.04097 11.3297 9.04136 11.3305 9.04197C11.331 9.04228 11.3315 9.04264 11.332 9.04307C11.3323 9.04328 11.3326 9.0435 11.333 9.04375C11.3331 9.04387 11.3333 9.04399 11.3335 9.04412C11.3336 9.04418 11.3337 9.04428 11.3337 9.04432C11.3339 9.04442 11.334 9.04452 10.7399 9.84893C10.1459 10.6533 10.146 10.6534 10.1461 10.6535C10.1462 10.6536 10.1463 10.6537 10.1464 10.6538C10.1466 10.6539 10.1468 10.6541 10.147 10.6542C10.1475 10.6545 10.1479 10.6548 10.1484 10.6552C10.1493 10.6559 10.1503 10.6566 10.1515 10.6574C10.1537 10.6591 10.1564 10.661 10.1594 10.6632C10.1654 10.6676 10.173 10.673 10.182 10.6793C10.1999 10.6918 10.2237 10.7082 10.2525 10.7271C10.3089 10.7643 10.3891 10.8143 10.4841 10.8656C10.6283 10.9435 10.9789 11.1224 11.3827 11.1224V9.12242ZM9.92386 9.27097L9.30422 10.1459L10.9364 11.3018L11.556 10.4269L9.92386 9.27097ZM10.1203 10.7239C9.21776 11.1545 9.2176 11.1541 9.21744 11.1538C9.21739 11.1537 9.21723 11.1534 9.21713 11.1531C9.21692 11.1527 9.21672 11.1523 9.21653 11.1519C9.21615 11.1511 9.21579 11.1503 9.21545 11.1496C9.21478 11.1482 9.21421 11.1469 9.21372 11.1459C9.21275 11.1438 9.21215 11.1425 9.21187 11.1418C9.21133 11.1406 9.21209 11.1423 9.21392 11.1467C9.2176 11.1556 9.22541 11.1751 9.23543 11.2041C9.25564 11.2625 9.28361 11.3558 9.30534 11.4746C9.34919 11.7144 9.36363 12.0346 9.26013 12.381L11.1764 12.9535C11.3922 12.2312 11.3577 11.5796 11.2727 11.1149C11.23 10.8815 11.1736 10.6893 11.1256 10.5504C11.1015 10.4806 11.0792 10.4235 11.0613 10.3803C11.0523 10.3588 11.0444 10.3406 11.0379 10.326C11.0347 10.3188 11.0318 10.3124 11.0292 10.3069C11.028 10.3042 11.0268 10.3017 11.0257 10.2994C11.0252 10.2982 11.0247 10.2972 11.0242 10.2961C11.024 10.2956 11.0237 10.2951 11.0235 10.2946C11.0234 10.2944 11.0232 10.294 11.0232 10.2939C11.023 10.2936 11.0228 10.2932 10.1203 10.7239ZM9.26013 12.381C9.06322 13.0401 8.99481 13.8563 9.43891 14.5598C9.9002 15.2904 10.7157 15.5931 11.5908 15.6495L11.7195 13.6537C11.453 13.6365 11.2966 13.5881 11.2137 13.549C11.1739 13.5302 11.1529 13.5145 11.1433 13.5063C11.1343 13.4985 11.1313 13.4939 11.1301 13.4921C11.1296 13.4914 11.111 13.4637 11.1077 13.3769C11.1041 13.2851 11.1191 13.1454 11.1764 12.9535L9.26013 12.381ZM11.6552 14.6516C11.4685 15.634 11.4684 15.634 11.4683 15.634C11.4682 15.634 11.4681 15.634 11.4681 15.634C11.468 15.6339 11.4678 15.6339 11.4677 15.6339C11.4675 15.6338 11.4672 15.6338 11.467 15.6338C11.4666 15.6337 11.4663 15.6336 11.466 15.6336C11.4653 15.6334 11.465 15.6334 11.4648 15.6333C11.4645 15.6333 11.4651 15.6334 11.4664 15.6336C11.469 15.6342 11.4745 15.6353 11.4821 15.637C11.4979 15.6406 11.519 15.6457 11.5406 15.6517C11.5639 15.6582 11.5772 15.6629 11.5806 15.6643C11.5928 15.669 11.5511 15.6551 11.4892 15.6123L12.6256 13.9665C12.413 13.8197 12.1653 13.7497 12.08 13.7258C12.0163 13.708 11.9599 13.6945 11.9194 13.6854C11.8989 13.6808 11.8816 13.6772 11.8684 13.6745C11.8619 13.6731 11.8563 13.672 11.8518 13.6711C11.8496 13.6707 11.8476 13.6703 11.846 13.67C11.8451 13.6698 11.8444 13.6697 11.8437 13.6695C11.8433 13.6695 11.843 13.6694 11.8427 13.6694C11.8425 13.6693 11.8424 13.6693 11.8423 13.6693C11.8422 13.6693 11.8421 13.6692 11.842 13.6692C11.8419 13.6692 11.8418 13.6692 11.6552 14.6516ZM13.0574 14.8677V14.7894H11.0574V14.8677H13.0574ZM11.3856 14.0982C11.2718 14.2098 11.0574 14.4699 11.0574 14.8677H13.0574C13.0574 15.2266 12.864 15.4497 12.7857 15.5264L11.3856 14.0982ZM11.3859 15.5267C11.3077 15.4501 11.1139 15.2269 11.1139 14.8678H13.1139C13.1139 14.4696 12.8992 14.2094 12.7854 14.0979L11.3859 15.5267ZM13.1139 14.8678V14.7894H11.1139V14.8678H13.1139ZM12.5162 14.6516C12.3295 13.6691 12.3294 13.6692 12.3293 13.6692C12.3293 13.6692 12.3292 13.6692 12.3291 13.6692C12.3289 13.6693 12.3288 13.6693 12.3286 13.6693C12.3283 13.6694 12.328 13.6694 12.3277 13.6695C12.327 13.6696 12.3262 13.6698 12.3254 13.6699C12.3237 13.6703 12.3217 13.6706 12.3195 13.6711C12.3151 13.672 12.3095 13.6731 12.3029 13.6744C12.2898 13.6771 12.2725 13.6808 12.2519 13.6854C12.2115 13.6945 12.155 13.7079 12.0914 13.7258C12.0061 13.7497 11.7583 13.8197 11.5457 13.9665L12.6821 15.6123C12.6202 15.655 12.5786 15.6689 12.5907 15.6642C12.5942 15.6629 12.6075 15.6582 12.6307 15.6517C12.6523 15.6456 12.6734 15.6405 12.6893 15.637C12.6968 15.6353 12.7023 15.6341 12.705 15.6336C12.7063 15.6333 12.7068 15.6332 12.7065 15.6333C12.7064 15.6333 12.706 15.6334 12.7054 15.6335C12.7051 15.6336 12.7047 15.6336 12.7043 15.6337C12.7041 15.6338 12.7039 15.6338 12.7036 15.6338C12.7035 15.6339 12.7034 15.6339 12.7033 15.6339C12.7032 15.6339 12.7031 15.6339 12.7031 15.634C12.703 15.634 12.7029 15.634 12.5162 14.6516ZM12.9949 12.9535C13.0522 13.1454 13.0672 13.285 13.0637 13.3769C13.0603 13.4637 13.0417 13.4913 13.0413 13.492C13.0401 13.4939 13.0371 13.4984 13.028 13.5062C13.0184 13.5144 12.9974 13.5302 12.9576 13.549C12.8748 13.5881 12.7183 13.6365 12.4519 13.6536L12.5805 15.6495C13.4556 15.5931 14.2711 15.2904 14.7324 14.5597C15.1765 13.8563 15.1081 13.04 14.9112 12.3809L12.9949 12.9535ZM14.051 10.7238C13.1485 10.2932 13.1484 10.2935 13.1482 10.2939C13.1481 10.294 13.148 10.2943 13.1478 10.2946C13.1476 10.2951 13.1474 10.2956 13.1471 10.2961C13.1467 10.2971 13.1461 10.2982 13.1456 10.2993C13.1445 10.3016 13.1434 10.3041 13.1421 10.3068C13.1396 10.3123 13.1367 10.3187 13.1334 10.326C13.1269 10.3405 13.119 10.3587 13.1101 10.3803C13.0922 10.4234 13.0699 10.4806 13.0458 10.5503C12.9977 10.6893 12.9413 10.8814 12.8986 11.1148C12.8136 11.5795 12.7791 12.2311 12.9949 12.9535L14.9112 12.3809C14.8077 12.0345 14.8222 11.7144 14.866 11.4746C14.8877 11.3558 14.9157 11.2625 14.9359 11.204C14.9459 11.1751 14.9537 11.1555 14.9574 11.1466C14.9592 11.1422 14.96 11.1406 14.9595 11.1418C14.9592 11.1424 14.9586 11.1437 14.9576 11.1458C14.9571 11.1469 14.9566 11.1481 14.9559 11.1496C14.9555 11.1503 14.9552 11.151 14.9548 11.1518C14.9546 11.1523 14.9544 11.1527 14.9542 11.1531C14.9541 11.1533 14.954 11.1536 14.9539 11.1538C14.9537 11.1541 14.9536 11.1544 14.051 10.7238ZM12.6153 10.4268L13.235 11.3018L14.8671 10.1459L14.2475 9.27092L12.6153 10.4268ZM12.7886 11.1224C13.1924 11.1224 13.543 10.9435 13.6873 10.8656C13.7822 10.8143 13.8624 10.7642 13.9189 10.727C13.9476 10.7081 13.9714 10.6918 13.9893 10.6792C13.9983 10.6729 14.0059 10.6675 14.0119 10.6632C14.015 10.661 14.0176 10.6591 14.0199 10.6574C14.021 10.6566 14.022 10.6558 14.023 10.6551C14.0234 10.6548 14.0239 10.6545 14.0243 10.6542C14.0245 10.654 14.0247 10.6539 14.0249 10.6537C14.025 10.6536 14.0252 10.6535 14.0252 10.6535C14.0253 10.6534 14.0255 10.6533 13.4314 9.84888C12.8373 9.04447 12.8375 9.04437 12.8376 9.04427C12.8376 9.04423 12.8378 9.04414 12.8379 9.04407C12.838 9.04394 12.8382 9.04382 12.8384 9.0437C12.8387 9.04346 12.839 9.04323 12.8393 9.04302C12.8399 9.04259 12.8404 9.04223 12.8408 9.04192C12.8416 9.04131 12.8422 9.04092 12.8424 9.04074C12.8429 9.04039 12.8423 9.04086 12.8406 9.04203C12.8372 9.04442 12.8299 9.04943 12.8197 9.05618C12.7982 9.07029 12.7688 9.08858 12.7371 9.10569C12.7034 9.12387 12.6812 9.13313 12.6727 9.1361C12.6571 9.1416 12.7016 9.12237 12.7886 9.12237V11.1224ZM11.6309 10.7566C11.7136 10.8022 11.8662 10.8827 12.0416 10.9544C12.1852 11.0131 12.4745 11.1224 12.7886 11.1224V9.12237C12.8259 9.12237 12.8513 9.12589 12.8616 9.12754C12.8725 9.12929 12.8761 9.13052 12.8713 9.12922C12.8602 9.12624 12.8358 9.1184 12.7985 9.10313C12.7229 9.07223 12.6452 9.03201 12.597 9.00538L11.6309 10.7566ZM13.1139 9.88098V9.84893H11.1139V9.88098H13.1139ZM12.1139 9.84893C11.6019 8.98998 11.6019 8.98997 11.6019 8.98996C11.6019 8.98995 11.6019 8.98994 11.6019 8.98994C11.6019 8.98993 11.602 8.98991 11.602 8.9899C11.602 8.98988 11.6021 8.98985 11.6021 8.98983C11.6022 8.98978 11.6023 8.98973 11.6024 8.98968C11.6025 8.98959 11.6027 8.9895 11.6028 8.98942C11.6031 8.98926 11.6033 8.98912 11.6035 8.989C11.6039 8.98876 11.6042 8.98861 11.6043 8.98853C11.6045 8.98839 11.6042 8.98857 11.6034 8.98905C11.6018 8.99001 11.5981 8.99215 11.5926 8.99524L12.5788 10.7352C12.5915 10.728 12.6019 10.722 12.6098 10.7174C12.6138 10.7151 12.6171 10.7131 12.6198 10.7115C12.6212 10.7107 12.6224 10.71 12.6234 10.7094C12.6239 10.7091 12.6244 10.7088 12.6248 10.7086C12.625 10.7084 12.6252 10.7083 12.6254 10.7082C12.6255 10.7081 12.6256 10.7081 12.6257 10.708C12.6258 10.708 12.6258 10.708 12.6259 10.708C12.6259 10.7079 12.6259 10.7079 12.6259 10.7079C12.6259 10.7079 12.6259 10.7079 12.626 10.7079C12.626 10.7079 12.626 10.7079 12.1139 9.84893Z" fill="white" mask="url(#path-14-outside-2_6144_24414)"/>
</mask>
<g mask="url(#mask1_6144_24414)">
<rect x="10.1936" y="9.7439" width="1.89206" height="2.59621" fill="#67BAFF"/>
<rect x="12.0857" y="9.7439" width="1.89206" height="2.59621" fill="white"/>
<rect x="9.95728" y="12.5874" width="4.73015" height="2.9671" fill="#C51918"/>
<path d="M13.0021 12.1563H12.7656V10.3784H13.0021V12.1563Z" fill="#C9A951"/>
<path d="M12.9063 11.3476L12.791 11.5541L12.3828 11.3261L12.4981 11.1196L12.9063 11.3476Z" fill="#C9A951"/>
<path d="M12.9063 10.8529L12.791 11.0594L12.3828 10.8315L12.4981 10.625L12.9063 10.8529Z" fill="#C9A951"/>
<path d="M12.8559 11.3476L12.9712 11.5541L13.3794 11.3261L13.2641 11.1196L12.8559 11.3476Z" fill="#C9A951"/>
<path d="M12.8559 10.8529L12.9712 11.0594L13.3794 10.8315L13.2641 10.625L12.8559 10.8529Z" fill="#C9A951"/>
<path fill-rule="evenodd" clip-rule="evenodd" d="M13.2025 13.1285C13.2025 13.1285 13.367 12.9404 13.367 13.0345C13.367 13.1285 13.367 13.2867 13.2848 13.2867C13.2025 13.2867 12.8193 13.2114 12.6733 13.0345C12.5273 12.8575 12.2184 12.5494 11.8209 12.6219C11.4233 12.6945 10.9518 13.2099 10.8356 13.2099C10.7193 13.2099 10.4646 13.6071 10.6501 13.9174C10.8356 14.2276 11.1511 14.1313 11.1511 14.2213C11.1511 14.3113 11.23 14.3217 11.5254 14.3217C11.8209 14.3217 11.9289 14.4259 12.1847 14.4259C12.4405 14.4259 12.1003 14.4221 12.5122 14.3217C12.9242 14.2213 13.2362 13.9174 12.9962 13.9174C12.7561 13.9174 12.6786 13.9174 12.5122 13.9174C12.3459 13.9174 11.9757 14.0372 11.9757 13.9174C11.9757 13.7975 12.0579 13.5409 12.2851 13.6692C12.5122 13.7975 13.1434 13.8953 13.367 13.6692C13.5907 13.443 13.6689 13.3067 13.6298 13.0345C13.5907 12.7623 13.2848 12.8406 13.2848 12.8406L13.2025 13.1285Z" fill="#FBCD17"/>
<path fill-rule="evenodd" clip-rule="evenodd" d="M11.6026 10.3169C11.46 10.4416 11.552 10.8973 11.3184 10.8973C11.0848 10.8973 10.7561 10.5561 10.6733 10.7812C10.5905 11.0064 10.6733 10.9307 10.6733 11.1225C10.6733 11.3143 10.475 11.8471 10.5741 11.9372C10.6733 12.0273 10.7749 12.2647 10.7573 12.1536C10.7397 12.0425 10.6647 11.8793 10.6959 11.702C10.6658 11.5189 10.863 11.3427 10.863 11.3427C10.863 11.3427 10.8416 11.5329 10.8261 11.6038C10.8261 11.6038 10.761 11.7468 10.7874 11.8419C10.7874 11.8419 10.8542 12.1097 10.8818 12.1282C10.8818 12.1282 10.8997 11.494 10.92 11.3895C10.9403 11.285 11.0853 11.5074 11.1335 11.4822C11.1335 11.4822 11.1501 11.9159 11.125 11.9675C11.125 11.9675 11.0742 12.0701 11.0931 12.1029C11.0931 12.1029 11.1402 12.2216 11.1805 12.187C11.1805 12.187 11.1819 12.1846 11.2023 12.069C11.2023 12.069 11.1786 11.9992 11.2157 11.8403C11.2157 11.8403 11.2548 11.4905 11.2709 11.5664C11.2709 11.5664 11.2637 11.7316 11.2823 11.8167C11.2823 11.8167 11.3121 12.0281 11.318 12.0513C11.318 12.0513 11.4608 12.2546 11.4645 12.1687C11.4645 12.1687 11.3277 12.0056 11.357 11.8814C11.357 11.8814 11.2787 11.5297 11.388 11.4513C11.388 11.4513 11.6781 11.3171 11.6956 11.0874C11.6956 11.0874 11.7376 10.8257 11.7451 10.7057C11.7451 10.7057 11.6815 10.6704 11.813 10.6085C11.813 10.6085 12.0248 10.5272 11.8928 10.4142" fill="#D18219"/>
</g>
</g>
</g>
<g style="mix-blend-mode:hard-light" opacity="0.12">
<rect width="24" height="24" rx="12" fill="white"/>
</g>
<rect width="24" height="24" fill="url(#paint0_linear_6144_24414)" fill-opacity="0.64" style="mix-blend-mode:overlay"/>
</g>
<defs>
<linearGradient id="paint0_linear_6144_24414" x1="24" y1="1.19273e-06" x2="-4.48665" y2="16.0237" gradientUnits="userSpaceOnUse">
<stop stop-color="white" stop-opacity="0.3"/>
<stop offset="0.262741" stop-opacity="0.27"/>
<stop offset="0.369956" stop-color="white" stop-opacity="0.26"/>
<stop offset="0.487001" stop-opacity="0.55"/>
<stop offset="0.594445" stop-opacity="0.24"/>
<stop offset="0.736408" stop-color="white" stop-opacity="0.3"/>
<stop offset="0.901459" stop-color="#272727" stop-opacity="0.22"/>
<stop offset="1" stop-opacity="0.2"/>
</linearGradient>
<clipPath id="clip0_6144_24414">
<rect width="24" height="24" rx="12" fill="white"/>
</clipPath>
<clipPath id="clip1_6144_24414">
<rect width="24" height="24" fill="white"/>
</clipPath>
</defs>
</svg>
