<svg width="24" height="24" viewBox="0 0 24 24" fill="none" xmlns="http://www.w3.org/2000/svg">
<g clip-path="url(#clip0_6144_24416)">
<g clip-path="url(#clip1_6144_24416)">
<mask id="mask0_6144_24416" style="mask-type:luminance" maskUnits="userSpaceOnUse" x="-4" y="0" width="32" height="24">
<rect x="-4" width="32" height="24" fill="white"/>
</mask>
<g mask="url(#mask0_6144_24416)">
<rect x="-4" width="32" height="24" rx="2" fill="#E11C1B"/>
<path fill-rule="evenodd" clip-rule="evenodd" d="M-4 0L28 24H-4V0Z" fill="#292B2E"/>
<path fill-rule="evenodd" clip-rule="evenodd" d="M3.0835 18.2684H4.41532L5.0487 16.7751L5.79319 18.2584L7.15771 18.333L5.99157 19.6023L6.59033 21.1313L5.10806 20.2802L3.73928 21.1389L4.25562 19.6543L3.0835 18.2684Z" fill="#EEEEF6"/>
<path fill-rule="evenodd" clip-rule="evenodd" d="M-0.916504 14.2684H0.415316L1.0487 12.7751L1.79319 14.2584L3.15771 14.333L1.99157 15.6023L2.59033 17.1313L1.10806 16.2802L-0.260715 17.1389L0.255617 15.6543L-0.916504 14.2684Z" fill="#EEEEF6"/>
<path fill-rule="evenodd" clip-rule="evenodd" d="M3.0835 12.2684H4.41532L5.0487 10.7751L5.79319 12.2584L7.15771 12.333L5.99157 13.6023L6.59033 15.1313L5.10806 14.2802L3.73928 15.1389L4.25562 13.6543L3.0835 12.2684Z" fill="#EEEEF6"/>
<path fill-rule="evenodd" clip-rule="evenodd" d="M5.71143 16.5642L6.6269 16.5338L6.95737 15.5896L7.32838 16.5288L8.17078 16.6097L7.4122 17.1461L8.02401 18.0959L6.96256 17.6988L6.04259 18.1086L6.52842 17.1722L5.71143 16.5642Z" fill="#EEEEF6"/>
<path fill-rule="evenodd" clip-rule="evenodd" d="M7.71143 14.5642L8.6269 14.5338L8.95737 13.5896L9.32838 14.5288L10.1708 14.6097L9.4122 15.1461L10.024 16.0959L8.96256 15.6988L8.04259 16.1086L8.52842 15.1722L7.71143 14.5642Z" fill="#EEEEF6"/>
<path fill-rule="evenodd" clip-rule="evenodd" d="M17.0839 2C17.0839 2 13.9951 2.6162 14.862 6.90985H14.4213C14.4213 6.90985 14.4574 6.6858 14.0337 6.55443C13.61 6.42306 13.6949 6.47238 13.4763 6.55443C13.2576 6.63648 11.9275 6.55443 11.9275 6.55443V6.71879L12.8688 7.12531C12.8688 7.12531 12.8456 7.4638 13.2391 7.65137C13.6326 7.83894 13.9183 7.92933 13.9183 7.92933C13.9183 7.92933 13.9766 8.30286 13.6078 8.30286C13.2391 8.30286 11.756 7.82211 11.2285 9.00323C10.701 10.1844 10 11.051 10 11.051H10.7909L10.5787 11.3147H11.4693L11.2285 11.4514C11.2285 11.4514 12.3303 11.4391 12.4162 11.3147C12.5021 11.1903 12.4162 11.6519 12.4162 11.6519C12.4162 11.6519 13.4835 11.1646 13.5419 11.051L14.0401 11.3927L14.182 10.8144L14.7165 11.051L14.862 10.5C14.862 10.5 16.3741 13.0288 17.5209 12.8836V12.4639L18.5675 12.8836L18.7004 12.697C18.7004 12.697 19.9647 13.2125 20.3538 13.2603L20.0762 12.697H20.3538L20.0762 11.6519H20.3538L19.7986 10.8144L19.9541 10.5876L19.8512 10.2896C19.8512 10.2896 21.8867 10.938 21.7949 11.9697C21.7031 13.0013 20.7965 13.4176 20.7965 13.4176C20.7965 13.4176 19.9272 13.6839 19.142 13.6266C19.142 13.6266 19.7653 14.3629 21.0841 14.1134C22.403 13.8639 22.84 12.5852 22.84 12.5852C22.84 12.5852 23.4447 13.8412 22.9469 14.5016C22.4491 15.162 20.2326 15.6257 20.2326 15.6257C20.2326 15.6257 21.0345 16.0959 21.7949 15.9754C22.5552 15.8549 23.7377 15.1932 23.9669 14.1134C24.1961 13.0336 23.1761 11.0412 22.714 10.8144L22.5314 10.1231L22.9469 10.2896L22.0945 8.20516L22.5078 8.29571L21.3019 6.79557L21.6339 6.69328L19.9678 5.49566L20.4664 5.36395C20.4664 5.36395 19.2349 4.73985 17.8301 5.49566L17.8433 5.23454L17.4742 5.29695L17.4961 5.00973L17.863 4.45382L17.3121 4.24159C17.3121 4.24159 17.7574 3.57267 17.6906 3.58186C17.6906 3.58186 17.1943 3.72428 17.2225 3.66459C17.2225 3.66459 17.4729 3.01991 17.407 3.03717C17.407 3.03717 16.8315 3.2329 16.9166 3.13495L17.1378 2.7411L17.0839 2Z" fill="#FBCD17"/>
</g>
</g>
<g style="mix-blend-mode:hard-light" opacity="0.12">
<rect width="24" height="24" rx="12" fill="white"/>
</g>
<rect width="24" height="24" fill="url(#paint0_linear_6144_24416)" fill-opacity="0.64" style="mix-blend-mode:overlay"/>
</g>
<defs>
<linearGradient id="paint0_linear_6144_24416" x1="24" y1="1.19273e-06" x2="-4.48665" y2="16.0237" gradientUnits="userSpaceOnUse">
<stop stop-color="white" stop-opacity="0.3"/>
<stop offset="0.262741" stop-opacity="0.27"/>
<stop offset="0.369956" stop-color="white" stop-opacity="0.26"/>
<stop offset="0.487001" stop-opacity="0.55"/>
<stop offset="0.594445" stop-opacity="0.24"/>
<stop offset="0.736408" stop-color="white" stop-opacity="0.3"/>
<stop offset="0.901459" stop-color="#272727" stop-opacity="0.22"/>
<stop offset="1" stop-opacity="0.2"/>
</linearGradient>
<clipPath id="clip0_6144_24416">
<rect width="24" height="24" rx="12" fill="white"/>
</clipPath>
<clipPath id="clip1_6144_24416">
<rect width="24" height="24" fill="white"/>
</clipPath>
</defs>
</svg>
