<svg xmlns="http://www.w3.org/2000/svg" id="Layer_1" viewBox="0 0 184 100"><defs><style>.cls-1{fill:#56575a;stroke-width:0px;}</style></defs><path class="cls-1" d="M42.19,55.61l-1.42,3.3h-4.93l7.86-17.74h6.59l8.23,17.74h-5.27l-1.45-3.3h-9.61ZM43.79,51.94h6.35l-3.2-7.24-3.14,7.24Z"></path><path class="cls-1" d="M77.18,45.01h-11.4v2.9h11.03v4h-11.03v3.08h11.55v3.91h-16.39v-17.74h16.24v3.85Z"></path><path class="cls-1" d="M100.84,54.96v1.85c0,1.32.12,1.69.28,1.97v.12h-5.08c-.06-.12-.15-.46-.15-1.23v-1.45c0-2.28-.83-3.33-3.33-3.33h-6.38v6.04h-4.9v-17.74h11.95c6.75,0,7.52,2.8,7.52,4.74v.25c0,2.22-1.54,3.73-3.76,4.22,2.4.49,3.85,1.94,3.85,4.56ZM93.02,48.83c2,0,2.56-.86,2.56-1.88v-.06c0-1.02-.55-1.85-2.56-1.85h-6.84v3.76h6.84v.03Z"></path><path class="cls-1" d="M126.23,49.6v.71c0,3.82-2.37,8.84-10.66,8.84h-1.05c-8.29,0-10.66-5.02-10.66-8.84v-.71c0-3.85,2.37-8.75,10.66-8.75h1.05c8.32,0,10.66,4.87,10.66,8.75ZM115.04,44.92c-4.96,0-6.07,2.68-6.07,4.9v.34c0,2.16,1.2,4.96,6.07,4.96s6.07-2.8,6.07-4.96v-.34c.03-2.22-1.05-4.9-6.07-4.9Z"></path><path class="cls-1" d="M131.99,58.87h-5.76l7.82-9.03-7.7-8.72h6.22l4.81,5.51,4.81-5.51h5.64l-7.46,8.69,7.79,9.06h-5.95l-5.08-5.76-5.14,5.76Z"></path></svg>