<svg width="24" height="24" viewBox="0 0 24 24" fill="none" xmlns="http://www.w3.org/2000/svg">
<g clip-path="url(#clip0_6144_24242)">
<g clip-path="url(#clip1_6144_24242)">
<mask id="mask0_6144_24242" style="mask-type:luminance" maskUnits="userSpaceOnUse" x="-4" y="0" width="32" height="24">
<rect x="-4" width="32" height="24" fill="white"/>
</mask>
<g mask="url(#mask0_6144_24242)">
<path fill-rule="evenodd" clip-rule="evenodd" d="M-4 0V24H28V0H-4Z" fill="#F7FCFF"/>
<mask id="mask1_6144_24242" style="mask-type:luminance" maskUnits="userSpaceOnUse" x="-4" y="0" width="32" height="24">
<path fill-rule="evenodd" clip-rule="evenodd" d="M-4 0V24H28V0H-4Z" fill="white"/>
</mask>
<g mask="url(#mask1_6144_24242)">
<path fill-rule="evenodd" clip-rule="evenodd" d="M-4 0V7H28V0H-4Z" fill="#58A5FF"/>
<path fill-rule="evenodd" clip-rule="evenodd" d="M-4 17V24H28V17H-4Z" fill="#58A5FF"/>
</g>
</g>
<path fill-rule="evenodd" clip-rule="evenodd" d="M11.3728 8.07431C11.3196 8.04859 11.2555 8.07023 11.2294 8.12264C11.1109 8.36094 11.1989 8.57093 11.2705 8.74189C11.2781 8.75992 11.2854 8.7775 11.2923 8.79465C11.3041 8.82379 11.3165 8.85288 11.3322 8.88874C11.3322 8.88872 11.3691 8.97208 11.379 8.99519C11.398 9.0391 11.414 9.07199 11.4273 9.09933L11.4273 9.09934L11.4273 9.09935L11.4273 9.09936C11.4647 9.17639 11.4808 9.20941 11.4808 9.32109C11.4808 9.37812 11.4794 9.44521 11.4779 9.51849C11.4705 9.87082 11.4602 10.3661 11.5878 10.5726C11.6186 10.6225 11.7723 10.544 11.8228 10.5136C11.8734 10.4832 11.8544 10.32 11.8236 10.2701C11.6949 10.0617 11.695 9.63549 11.695 9.34081L11.695 9.32109C11.695 9.17379 11.6719 9.12327 11.6204 9.01104L11.6204 9.01103L11.6203 9.01099C11.6074 8.98285 11.5927 8.95083 11.5762 8.91243C11.5658 8.88826 11.5285 8.80395 11.5288 8.80477C11.5139 8.77062 11.5022 8.7433 11.4914 8.71634C11.4831 8.69591 11.4722 8.67368 11.4604 8.64972C11.4062 8.53935 11.3339 8.39235 11.4217 8.21578C11.4478 8.16337 11.4259 8.10003 11.3728 8.07431ZM12.9425 8.13785C12.9037 8.09342 12.8361 8.08826 12.7917 8.12632C12.5895 8.29938 12.5884 8.52705 12.5876 8.71241C12.5875 8.73195 12.5874 8.75102 12.5871 8.76951C12.5865 8.80093 12.5865 8.83254 12.587 8.8717C12.587 8.87168 12.5883 8.96282 12.5885 8.98798C12.5888 9.03581 12.5906 9.07234 12.5922 9.10271C12.5966 9.18826 12.5985 9.22493 12.5548 9.32773C12.5325 9.38022 12.505 9.44144 12.475 9.50829L12.475 9.5083C12.3306 9.82976 12.1276 10.2816 12.1643 10.5216C12.1732 10.5795 12.3453 10.5673 12.4037 10.5591C12.4621 10.5509 12.5084 10.3932 12.4996 10.3353C12.4625 10.0931 12.6291 9.70083 12.7443 9.4296L12.7443 9.42959L12.752 9.41144C12.8096 9.27586 12.808 9.22029 12.8044 9.09686C12.8035 9.0659 12.8025 9.03067 12.8023 8.98883C12.8021 8.96251 12.8008 8.87034 12.8008 8.87123C12.8003 8.83395 12.8003 8.80426 12.8008 8.77518C12.8012 8.75315 12.7998 8.72841 12.7984 8.70176C12.7916 8.57897 12.7825 8.41543 12.9323 8.28721C12.9768 8.24915 12.9814 8.18228 12.9425 8.13785ZM14.2138 8.71462C14.2693 8.69599 14.3299 8.72607 14.3493 8.78181C14.3687 8.83756 14.3394 8.89785 14.2839 8.91648C14.097 8.97925 14.0441 9.13427 14.0044 9.25067C13.9958 9.27593 13.9878 9.29937 13.9792 9.31966C13.9678 9.34643 13.9567 9.37397 13.9432 9.4087C13.9435 9.40787 13.9102 9.49384 13.9005 9.5183C13.8851 9.55718 13.8728 9.59022 13.862 9.61926L13.862 9.61927C13.8191 9.73504 13.7997 9.78716 13.6956 9.89131L13.6816 9.90526C13.4732 10.1136 13.1718 10.4149 13.1154 10.6533C13.102 10.7103 12.9999 10.8392 12.9427 10.8249C12.8855 10.8107 12.7213 10.7575 12.7348 10.7004C12.7907 10.4642 13.1481 10.1213 13.4025 9.87734L13.4025 9.87734L13.4025 9.87732C13.4554 9.82659 13.5038 9.78014 13.5441 9.73982C13.6231 9.66085 13.6351 9.62615 13.663 9.54518C13.673 9.51644 13.6849 9.48187 13.7026 9.43742C13.7119 9.41403 13.7448 9.32903 13.7448 9.32905C13.759 9.29257 13.7708 9.26325 13.7831 9.23432C13.7903 9.21746 13.7974 9.19999 13.8047 9.18209L13.8048 9.18195L13.8048 9.18188L13.8049 9.18171L13.8049 9.18161L13.805 9.18157C13.8752 9.01003 13.9615 8.79933 14.2138 8.71462ZM15.4143 9.92682C15.4183 9.86795 15.3742 9.81654 15.3158 9.81201C15.0505 9.79141 14.8887 9.95164 14.757 10.0821L14.757 10.0821C14.7431 10.0959 14.7296 10.1093 14.7163 10.1221C14.6937 10.144 14.6714 10.1663 14.644 10.1943C14.644 10.1943 14.5805 10.2597 14.5628 10.2776C14.5292 10.3116 14.5047 10.3388 14.4843 10.3614C14.4269 10.425 14.4024 10.4522 14.2988 10.4941C14.246 10.5154 14.1834 10.5392 14.1151 10.5652L14.1149 10.5652L14.1149 10.5652L14.1148 10.5652L14.1148 10.5653L14.1147 10.5653L14.1147 10.5653C13.7853 10.6905 13.3222 10.8665 13.1785 11.0621C13.1438 11.1093 13.2742 11.2225 13.3213 11.2579C13.3683 11.2934 13.5126 11.2146 13.5473 11.1674C13.6923 10.97 14.0875 10.8104 14.3608 10.7001L14.3791 10.6927C14.5156 10.6375 14.5538 10.5971 14.6386 10.5073C14.6598 10.4848 14.684 10.4592 14.7134 10.4294C14.7319 10.4107 14.7961 10.3445 14.7955 10.3452C14.8216 10.3185 14.8426 10.2975 14.8635 10.2773C14.8793 10.262 14.8958 10.2435 14.9136 10.2236C14.9957 10.132 15.1049 10.01 15.3015 10.0252C15.3599 10.0298 15.4104 9.9857 15.4143 9.92682ZM15.9013 11.2244C15.9537 11.2505 15.9753 11.3147 15.9496 11.3678C15.9239 11.4209 15.8606 11.4428 15.8082 11.4168C15.6316 11.329 15.4846 11.4012 15.3742 11.4554C15.3503 11.4672 15.328 11.4781 15.3076 11.4864C15.2806 11.4973 15.2533 11.5089 15.2192 11.5239C15.22 11.5235 15.1357 11.5608 15.1115 11.5712C15.0731 11.5878 15.0411 11.6025 15.0129 11.6154L15.0129 11.6154C14.9007 11.6669 14.8501 11.6901 14.7029 11.6901L14.6831 11.6901C14.3884 11.69 13.9623 11.6899 13.7538 11.8186C13.704 11.8494 13.5407 11.8684 13.5103 11.8179C13.4799 11.7674 13.4015 11.6136 13.4513 11.5828C13.6579 11.4553 14.1531 11.4656 14.5054 11.4729C14.5787 11.4744 14.6458 11.4758 14.7029 11.4758C14.8145 11.4758 14.8476 11.4598 14.9246 11.4223L14.9246 11.4223C14.9519 11.409 14.9848 11.393 15.0287 11.3741C15.0519 11.3641 15.1352 11.3273 15.1352 11.3273C15.1711 11.3115 15.2002 11.2992 15.2293 11.2874C15.2464 11.2805 15.264 11.2731 15.282 11.2655C15.453 11.1939 15.663 11.1059 15.9013 11.2244ZM15.8859 12.9235C15.9303 12.8847 15.9355 12.8172 15.8974 12.7727C15.7244 12.5705 15.4967 12.5694 15.3113 12.5686C15.2918 12.5685 15.2727 12.5684 15.2542 12.5681C15.2228 12.5675 15.1912 12.5675 15.152 12.568C15.1521 12.568 15.0609 12.5694 15.0358 12.5695C14.9879 12.5698 14.9514 12.5716 14.921 12.5732C14.8355 12.5776 14.7988 12.5795 14.696 12.5358C14.6435 12.5136 14.5823 12.4861 14.5154 12.456C14.194 12.3116 13.7421 12.1086 13.5022 12.1453C13.4443 12.1542 13.4564 12.3264 13.4646 12.3847C13.4729 12.4431 13.6306 12.4894 13.6885 12.4806C13.9307 12.4435 14.3229 12.6101 14.5941 12.7253L14.5942 12.7253L14.6123 12.733C14.7479 12.7906 14.8035 12.789 14.9269 12.7855C14.9578 12.7846 14.9931 12.7835 15.0349 12.7833C15.0612 12.7832 15.1534 12.7818 15.1525 12.7818C15.1898 12.7814 15.2195 12.7813 15.2486 12.7819C15.2706 12.7822 15.2953 12.7809 15.322 12.7794C15.4448 12.7726 15.6083 12.7635 15.7365 12.9133C15.7746 12.9578 15.8415 12.9624 15.8859 12.9235ZM15.3035 14.1818C15.3222 14.2373 15.2921 14.298 15.2363 14.3174C15.1806 14.3368 15.1203 14.3075 15.1017 14.252C15.0389 14.065 14.8839 14.0122 14.7675 13.9725C14.7422 13.9639 14.7188 13.9559 14.6985 13.9473C14.6717 13.9359 14.6442 13.9248 14.6095 13.9112C14.6103 13.9116 14.5243 13.8783 14.4999 13.8686C14.461 13.8531 14.4279 13.8409 14.3989 13.8301L14.3989 13.8301C14.2831 13.7872 14.231 13.7678 14.1268 13.6637L14.1129 13.6497C13.9046 13.4413 13.6033 13.1399 13.3649 13.0835C13.3078 13.07 13.179 12.968 13.1932 12.9108C13.2075 12.8536 13.2607 12.6894 13.3177 12.7029C13.5539 12.7587 13.8969 13.1162 14.1408 13.3705C14.1916 13.4234 14.238 13.4719 14.2783 13.5122C14.3573 13.5911 14.392 13.6031 14.473 13.6311C14.5017 13.641 14.5363 13.653 14.5807 13.6707C14.6041 13.68 14.6891 13.7128 14.6891 13.7128C14.7256 13.7271 14.7549 13.7389 14.7838 13.7512C14.8009 13.7584 14.8185 13.7656 14.8366 13.773C15.0081 13.8433 15.2188 13.9295 15.3035 14.1818ZM14.0812 15.3726C14.1401 15.3765 14.1915 15.3324 14.196 15.2741C14.2166 15.0087 14.0564 14.847 13.926 14.7153C13.9122 14.7014 13.8988 14.6879 13.8859 14.6746C13.8641 14.652 13.8417 14.6296 13.8137 14.6023C13.8137 14.6023 13.7483 14.5388 13.7304 14.5211C13.6964 14.4875 13.6693 14.463 13.6467 14.4426C13.5831 14.3852 13.5558 14.3606 13.514 14.2571C13.4926 14.2042 13.4688 14.1415 13.4428 14.0729C13.3176 13.7435 13.1416 13.2805 12.946 13.1368C12.8987 13.1021 12.7856 13.2324 12.7501 13.2795C12.7147 13.3266 12.7934 13.4709 12.8406 13.5056C13.0381 13.6506 13.1976 14.0458 13.308 14.319L13.3154 14.3373C13.3705 14.4739 13.411 14.5121 13.5007 14.5968C13.5233 14.6181 13.5489 14.6423 13.5786 14.6717C13.5974 14.6902 13.6635 14.7544 13.6629 14.7538C13.6895 14.7798 13.7106 14.8008 13.7308 14.8217C13.7461 14.8376 13.7645 14.8541 13.7844 14.8719L13.7844 14.8719L13.7844 14.8719L13.7844 14.8719C13.876 14.9539 13.9981 15.0632 13.9828 15.2598C13.9783 15.3181 14.0224 15.3686 14.0812 15.3726ZM12.7705 15.8546C12.7444 15.907 12.6802 15.9286 12.6271 15.9029C12.574 15.8772 12.5521 15.8138 12.5781 15.7614C12.6659 15.5849 12.5937 15.4379 12.5395 15.3275L12.5395 15.3275C12.5277 15.3035 12.5168 15.2813 12.5085 15.2609C12.4976 15.2339 12.486 15.2066 12.471 15.1724C12.4714 15.1733 12.4341 15.0889 12.4237 15.0648C12.4071 15.0264 12.3924 14.9943 12.3795 14.9662C12.328 14.8539 12.3048 14.8034 12.3048 14.6561L12.3048 14.6364C12.3049 14.3417 12.305 13.9155 12.1763 13.7071C12.1455 13.6572 12.1265 13.494 12.177 13.4636C12.2275 13.4332 12.3813 13.3548 12.4121 13.4046C12.5396 13.6111 12.5293 14.1064 12.522 14.4587L12.522 14.4588C12.5205 14.532 12.5191 14.5991 12.5191 14.6561C12.5191 14.7678 12.5351 14.8008 12.5726 14.8779C12.5859 14.9052 12.6019 14.9381 12.6208 14.982C12.6308 15.0051 12.6676 15.0885 12.6676 15.0885C12.6834 15.1243 12.6957 15.1534 12.7075 15.1826C12.7144 15.1997 12.7218 15.2173 12.7294 15.2353C12.801 15.4063 12.889 15.6163 12.7705 15.8546ZM11.0573 15.8394C11.0961 15.8838 11.1636 15.8889 11.2081 15.8509C11.4103 15.6778 11.4114 15.4502 11.4122 15.2648C11.4123 15.2453 11.4124 15.2262 11.4127 15.2077C11.4133 15.1763 11.4132 15.1447 11.4128 15.1055C11.4128 15.1055 11.4114 15.0144 11.4113 14.9892C11.411 14.9414 11.4091 14.9049 11.4076 14.8745V14.8745V14.8745C11.4032 14.7889 11.4013 14.7523 11.4449 14.6495C11.4672 14.597 11.4947 14.5358 11.5248 14.4689C11.6692 14.1474 11.8722 13.6956 11.8355 13.4556C11.8266 13.3977 11.6544 13.4099 11.596 13.4181C11.5377 13.4263 11.4913 13.584 11.5002 13.6419C11.5373 13.8841 11.3707 14.2764 11.2555 14.5476L11.2477 14.5658C11.1902 14.7014 11.1918 14.7569 11.1953 14.8803C11.1962 14.9113 11.1972 14.9465 11.1975 14.9884C11.1976 15.0147 11.199 15.1069 11.199 15.106C11.1994 15.1433 11.1994 15.1729 11.1989 15.202C11.1986 15.2241 11.1999 15.2488 11.2014 15.2754C11.2082 15.3982 11.2173 15.5618 11.0674 15.69C11.023 15.7281 11.0184 15.7949 11.0573 15.8394ZM9.786 15.2625C9.73051 15.2811 9.66983 15.251 9.65046 15.1953C9.63109 15.1396 9.66038 15.0793 9.71587 15.0606C9.90281 14.9979 9.95567 14.8428 9.99536 14.7264L9.99536 14.7264L9.99537 14.7264C10.004 14.7012 10.012 14.6777 10.0206 14.6574C10.0319 14.6307 10.043 14.6031 10.0566 14.5684C10.0563 14.5692 10.0895 14.4833 10.0993 14.4588C10.1147 14.4199 10.127 14.3869 10.1377 14.3578C10.1807 14.2421 10.2 14.19 10.3042 14.0858L10.3181 14.0719C10.5265 13.8635 10.828 13.5622 10.8843 13.3238C10.8978 13.2668 10.9998 13.138 11.057 13.1522C11.1142 13.1664 11.2784 13.2197 11.265 13.2767C11.2091 13.5129 10.8516 13.8558 10.5973 14.0998L10.5973 14.0998C10.5444 14.1505 10.496 14.197 10.4557 14.2373C10.3767 14.3163 10.3647 14.351 10.3367 14.4319C10.3268 14.4607 10.3148 14.4952 10.2972 14.5397C10.2879 14.5631 10.255 14.6481 10.255 14.6481C10.2408 14.6845 10.2289 14.7139 10.2167 14.7428C10.2094 14.7598 10.2022 14.7774 10.1948 14.7955L10.1948 14.7955C10.1246 14.9671 10.0383 15.1778 9.786 15.2625ZM8.59615 14.0696C8.59323 14.1285 8.63823 14.1792 8.69665 14.1827C8.96231 14.1986 9.12123 14.0356 9.25062 13.9029L9.25062 13.9029L9.25064 13.9028C9.26427 13.8889 9.27758 13.8752 9.29064 13.8622C9.31287 13.8399 9.33481 13.8172 9.36167 13.7887C9.36166 13.7887 9.42399 13.7222 9.44137 13.704C9.47441 13.6694 9.49844 13.6418 9.51841 13.6189C9.57468 13.5543 9.5988 13.5266 9.7016 13.483C9.75409 13.4607 9.81639 13.4358 9.88443 13.4086L9.88446 13.4085C10.2116 13.2776 10.6715 13.0936 10.8118 12.8955C10.8457 12.8477 10.7134 12.7368 10.6657 12.7022C10.618 12.6676 10.4751 12.7488 10.4412 12.7966C10.2997 12.9966 9.90733 13.163 9.63605 13.2781L9.61789 13.2858C9.48231 13.3433 9.44486 13.3844 9.36167 13.4757C9.3408 13.4986 9.31706 13.5246 9.28816 13.5549C9.26999 13.5739 9.20694 13.6412 9.20755 13.6405C9.18197 13.6676 9.16137 13.689 9.1408 13.7096C9.12522 13.7251 9.10903 13.7439 9.09157 13.7641C9.01117 13.8571 8.90408 13.9811 8.70724 13.9692C8.64881 13.9657 8.59908 14.0107 8.59615 14.0696ZM8.09847 12.7527C8.04606 12.7266 8.02442 12.6624 8.05014 12.6093C8.07586 12.5562 8.1392 12.5343 8.19161 12.5603C8.36818 12.6481 8.51518 12.5759 8.62555 12.5217C8.64951 12.5099 8.67174 12.499 8.69217 12.4907C8.71913 12.4798 8.74645 12.4682 8.7806 12.4532C8.77978 12.4536 8.86409 12.4163 8.88826 12.4059C8.92668 12.3893 8.95872 12.3746 8.98687 12.3617C9.0991 12.3102 9.14962 12.287 9.29692 12.287L9.31664 12.287C9.61133 12.2871 10.0375 12.2872 10.246 12.1585C10.2958 12.1277 10.4591 12.1087 10.4894 12.1592C10.5198 12.2097 10.5983 12.3635 10.5484 12.3943C10.3419 12.5218 9.84665 12.5115 9.49432 12.5042L9.49427 12.5042C9.42101 12.5027 9.35393 12.5013 9.29692 12.5013C9.18524 12.5013 9.15222 12.5173 9.07518 12.5548L9.07518 12.5548C9.04783 12.5681 9.01494 12.5841 8.97102 12.603C8.94791 12.613 8.86455 12.6498 8.86457 12.6498C8.82871 12.6656 8.79962 12.6779 8.77048 12.6897C8.75333 12.6966 8.73575 12.704 8.71772 12.7116C8.54676 12.7832 8.33677 12.8712 8.09847 12.7527ZM8.11388 11.0537C8.06945 11.0925 8.06429 11.16 8.10235 11.2045C8.27541 11.4067 8.50307 11.4078 8.68844 11.4086C8.70798 11.4087 8.72705 11.4088 8.74553 11.4091C8.77696 11.4097 8.80857 11.4097 8.84773 11.4092C8.84771 11.4092 8.93884 11.4078 8.96401 11.4077C9.01184 11.4074 9.04836 11.4056 9.07873 11.404H9.07873H9.07874C9.16429 11.3996 9.20095 11.3977 9.30375 11.4414C9.35625 11.4636 9.41745 11.4911 9.4843 11.5212L9.48432 11.5212L9.48433 11.5212C9.80579 11.6656 10.2576 11.8686 10.4976 11.8319C10.5555 11.823 10.5434 11.6508 10.5351 11.5925C10.5269 11.5341 10.3692 11.4878 10.3113 11.4966C10.0691 11.5337 9.67685 11.3671 9.40562 11.2519L9.38746 11.2442C9.25188 11.1866 9.19632 11.1882 9.07289 11.1918C9.04193 11.1926 9.00669 11.1937 8.96486 11.1939C8.93854 11.194 8.84636 11.1954 8.84725 11.1954C8.80997 11.1958 8.78028 11.1959 8.75121 11.1954C8.72917 11.195 8.70444 11.1963 8.67779 11.1978C8.555 11.2046 8.39146 11.2137 8.26323 11.0639C8.22517 11.0194 8.1583 11.0148 8.11388 11.0537ZM8.69634 9.79527C8.6777 9.73978 8.70779 9.67909 8.76353 9.65973C8.81927 9.64036 8.87956 9.66964 8.89819 9.72513C8.96096 9.91207 9.11598 9.96493 9.23238 10.0046C9.25764 10.0132 9.28109 10.0212 9.30138 10.0298C9.32814 10.0412 9.35568 10.0523 9.39041 10.0659C9.38958 10.0655 9.47556 10.0988 9.50002 10.1085C9.53889 10.124 9.57194 10.1362 9.60098 10.147C9.71675 10.19 9.76887 10.2093 9.87302 10.3134L9.88697 10.3274C10.0953 10.5358 10.3966 10.8372 10.635 10.8936C10.692 10.9071 10.8209 11.0091 10.8066 11.0663C10.7924 11.1235 10.7392 11.2877 10.6821 11.2742C10.4459 11.2184 10.103 10.8609 9.85905 10.6066C9.80832 10.5537 9.76186 10.5053 9.72153 10.4649C9.64256 10.386 9.60786 10.374 9.5269 10.346L9.52689 10.346C9.49815 10.3361 9.46358 10.3241 9.41914 10.3064C9.39575 10.2971 9.31075 10.2643 9.31077 10.2643C9.27428 10.25 9.24496 10.2382 9.21603 10.2259C9.19901 10.2187 9.18136 10.2115 9.16328 10.2041C8.99174 10.1338 8.78105 10.0476 8.69634 9.79527ZM9.91864 8.60452C9.85976 8.60057 9.80836 8.64467 9.80383 8.70303C9.78322 8.96837 9.94346 9.13011 10.0739 9.2618C10.0877 9.27568 10.1011 9.28922 10.1139 9.30252C10.1358 9.32513 10.1581 9.34747 10.1862 9.37483C10.1861 9.37481 10.2515 9.4383 10.2694 9.45599C10.3034 9.48963 10.3306 9.51413 10.3532 9.5345C10.4168 9.59189 10.444 9.61649 10.4859 9.72004C10.5072 9.77291 10.5311 9.83565 10.5571 9.90416C10.6823 10.2336 10.8583 10.6966 11.0539 10.8403C11.1011 10.875 11.2143 10.7447 11.2497 10.6976C11.2852 10.6505 11.2065 10.5062 11.1592 10.4715C10.9618 10.3265 10.8022 9.93132 10.6919 9.65807C10.6894 9.65191 10.6869 9.64581 10.6845 9.63978C10.6293 9.50322 10.5889 9.46505 10.4991 9.38029C10.4766 9.35902 10.451 9.33483 10.4212 9.30541C10.4025 9.2869 10.3364 9.22269 10.337 9.22331C10.3103 9.19727 10.2893 9.17629 10.2691 9.15537C10.2538 9.13952 10.2353 9.123 10.2155 9.1052C10.1238 9.02318 10.0018 8.91395 10.017 8.71734C10.0216 8.65898 9.97752 8.60847 9.91864 8.60452Z" fill="#FFC125"/>
<path fill-rule="evenodd" clip-rule="evenodd" d="M12.0001 7.97168C11.9498 7.97168 11.9081 8.01057 11.9045 8.06073L11.7323 10.5087H12.2679L12.0956 8.06073C12.0921 8.01057 12.0504 7.97168 12.0001 7.97168ZM16.0001 11.9358C16.0001 11.8855 15.9612 11.8438 15.9111 11.8402L13.4631 11.668V12.2036L15.9111 12.0313C15.9612 12.0278 16.0001 11.986 16.0001 11.9358ZM12.0956 15.8109C12.092 15.861 12.0503 15.8999 12 15.8999C11.9498 15.8999 11.908 15.861 11.9045 15.8109L11.7322 13.3629H12.2678L12.0956 15.8109ZM8 11.9358C8 11.9861 8.03889 12.0278 8.08905 12.0314L10.537 12.2036V11.668L8.08905 11.8403C8.03889 11.8438 8 11.8855 8 11.9358ZM14.7471 9.17523C14.7856 9.14293 14.8426 9.14592 14.8775 9.18209C14.9124 9.21826 14.9134 9.27529 14.8798 9.31267L13.2385 11.1371L12.8665 10.7518L14.7471 9.17523ZM14.7787 14.7874C14.8149 14.7524 14.8179 14.6955 14.7856 14.657L13.209 12.7764L12.8237 13.1484L14.6481 14.7897C14.6855 14.8233 14.7425 14.8223 14.7787 14.7874ZM9.25304 14.6963C9.21451 14.7287 9.15755 14.7257 9.12263 14.6895C9.0877 14.6533 9.08669 14.5963 9.12032 14.5589L10.7616 12.7345L11.1336 13.1198L9.25304 14.6963ZM9.2214 9.0842C9.18523 9.11913 9.18223 9.17609 9.21453 9.21462L10.7911 11.0952L11.1764 10.7232L9.35197 9.0819C9.31459 9.04827 9.25757 9.04927 9.2214 9.0842ZM10.4463 8.37866C10.4308 8.33083 10.4549 8.27914 10.5016 8.26031C10.5482 8.24147 10.6014 8.2619 10.6235 8.30708L11.7003 10.5123L11.2037 10.7129L10.4463 8.37866ZM15.7088 10.4508C15.69 10.4042 15.6383 10.3801 15.5905 10.3956L13.2562 11.1529L13.4569 11.6495L15.6621 10.5727C15.7072 10.5507 15.7277 10.4974 15.7088 10.4508ZM13.5538 15.4929C13.5693 15.5408 13.5452 15.5924 13.4985 15.6113C13.4519 15.6301 13.3987 15.6097 13.3766 15.5645L12.2999 13.3593L12.7964 13.1587L13.5538 15.4929ZM8.29128 13.4208C8.31011 13.4674 8.3618 13.4915 8.40963 13.476L10.7439 12.7187L10.5433 12.2221L8.33805 13.2989C8.29287 13.3209 8.27244 13.3742 8.29128 13.4208ZM13.4403 8.33142C13.4631 8.28662 13.5167 8.26713 13.563 8.28678C13.6093 8.30642 13.6325 8.35852 13.6162 8.40607L12.8182 10.7268L12.3252 10.5175L13.4403 8.33142ZM15.6822 13.4847C15.7018 13.4384 15.6823 13.3848 15.6375 13.3619L13.4514 12.2469L13.2422 12.7399L15.5629 13.5378C15.6104 13.5542 15.6625 13.531 15.6822 13.4847ZM10.5598 15.5402C10.537 15.585 10.4834 15.6044 10.4371 15.5848C10.3908 15.5652 10.3676 15.5131 10.3839 15.4655L11.1819 13.1448L11.6749 13.3541L10.5598 15.5402ZM8.31794 10.3869C8.29829 10.4332 8.31779 10.4868 8.36258 10.5096L10.5487 11.6247L10.7579 11.1317L8.43723 10.3338C8.38968 10.3174 8.33759 10.3406 8.31794 10.3869Z" fill="#FFC125"/>
<path fill-rule="evenodd" clip-rule="evenodd" d="M12 13.4687C12.8578 13.4687 13.5532 12.7824 13.5532 11.9359C13.5532 11.0893 12.8578 10.4031 12 10.4031C11.1422 10.4031 10.4468 11.0893 10.4468 11.9359C10.4468 12.7824 11.1422 13.4687 12 13.4687Z" fill="#FFC125"/>
</g>
<g style="mix-blend-mode:hard-light" opacity="0.12">
<rect width="24" height="24" rx="12" fill="white"/>
</g>
<rect width="24" height="24" fill="url(#paint0_linear_6144_24242)" fill-opacity="0.64" style="mix-blend-mode:overlay"/>
</g>
<defs>
<linearGradient id="paint0_linear_6144_24242" x1="24" y1="1.19273e-06" x2="-4.48665" y2="16.0237" gradientUnits="userSpaceOnUse">
<stop stop-color="white" stop-opacity="0.3"/>
<stop offset="0.262741" stop-opacity="0.27"/>
<stop offset="0.369956" stop-color="white" stop-opacity="0.26"/>
<stop offset="0.487001" stop-opacity="0.55"/>
<stop offset="0.594445" stop-opacity="0.24"/>
<stop offset="0.736408" stop-color="white" stop-opacity="0.3"/>
<stop offset="0.901459" stop-color="#272727" stop-opacity="0.22"/>
<stop offset="1" stop-opacity="0.2"/>
</linearGradient>
<clipPath id="clip0_6144_24242">
<rect width="24" height="24" rx="12" fill="white"/>
</clipPath>
<clipPath id="clip1_6144_24242">
<rect width="24" height="24" fill="white"/>
</clipPath>
</defs>
</svg>
