<svg xmlns="http://www.w3.org/2000/svg" id="Layer_1" data-name="Layer 1" viewBox="0 0 33.8 61.1"><defs><style>      .cls-1 {        fill: #292b2e;        stroke-width: 0px;      }    </style></defs><path class="cls-1" d="M0,56.3c.4-4.1,1-8.2,1.4-12.4.1-.8,0-1.7.6-2.3.2-.2.5-.4.8-.4.3,0,.6,0,.9,0,.3.1.5.3.7.6s.3.6.3.9c-.3,3-1,8.5-1.4,12,4.5-3.6,8.2-6,12.5-10.3,3-2.9,6-7.9,6.4-10.3,0-.4,0-.8,0-1.2-3.7-.1-7.2-1.4-9.9-3.8-2.5-1.8-3.2-6.2.5-7.3,2.8-.9,5.6.4,7.9,1.8,2.2,1.3,3.7,3.4,4.3,5.8,1-.3,2-.8,2.8-1.5.8-.7,1.5-1.5,2-2.5.5-1,.7-2,.7-3,0-1-.3-2.1-.7-3-3.3-7.4-10.7-12.6-17.6-15-1.6-.5-3.3-.9-5-1.1-.8-.1-1.8,0-2.2-.9-.1-.3-.2-.6-.2-.9,0-.3.1-.6.3-.8.2-.2.4-.4.7-.5.3-.1.6-.1.9,0,9.1.9,17.3,6,22.9,12.8,4.8,5.7,6.3,14.6-1.9,18.7-.8.4-1.6.7-2.4.9,0,2.6-.8,5.2-2.3,7.4-3.3,5.7-8.5,10-13.8,13.9-2.3,1.7-3.9,3-5.1,4,2,.2,4,.3,6,.2,1.4.1,1.5-.3,2.4.4.2.2.3.4.3.7,0,.3,0,.5,0,.8-.1.2-.3.5-.5.6-.2.2-.5.2-.7.2.8-.1-.5,0-.9.2-2.1.4-4.3.4-6.4.2-1.5-.2-3.2-.3-4.1-1.6-.5-1-.6-2.1-.4-3.1ZM22.1,29.7c-.5-1.2-1.2-2.2-2.2-3.1-1-.8-2.1-1.5-3.4-1.8-1.8-.5-2.2-.3-2.7,0h0c-.3,1.1,1.5,2.8,5.1,4.3,1,.4,2.1.6,3.1.6Z"></path></svg>