<svg xmlns="http://www.w3.org/2000/svg" id="Layer_1" viewBox="0 0 184 100"><defs><style>.cls-1{fill:#56575a;stroke-width:0px;}</style></defs><path class="cls-1" d="M51.5,55.56c-.59,2.05-1.22,4.2-2.1,7.46-.88.15-1.71.2-2.49.2-.88,0-1.75-.05-2.63-.2l2.87-9.06c1.51.39,2.93.92,4.34,1.6Z"></path><path class="cls-1" d="M58.04,36.98c-.53-.05-1.07-.09-1.51-.15-.48-.05-.92-.05-1.42-.05-.53,0-1.07,0-1.51.05-.44,0-.92.09-1.42.15l-4.24,13.37c-2.93,0-6.1.63-9.32,2.05,8.92-.88,17.07,2.34,21.9,10.19l.05.15c.83.15,1.71.2,2.63.2s1.9-.05,2.87-.2l-8.05-25.75ZM52.47,50.92c.59-2.14,1.36-4.73,2.43-8.53,1.6,5.8,2.39,8.64,3.11,11.27-1.7-1.23-3.6-2.15-5.55-2.74Z"></path><path class="cls-1" d="M72.02,54.68c-1.31-.39-2.39-.92-3.11-1.71-.74-.74-1.12-1.9-1.12-3.37,0-1.8.63-3.22,1.95-4.24,1.32-1.02,3.07-1.56,5.32-1.56.92,0,1.86.09,2.78.24.92.15,1.8.44,2.78.74-.05.63-.15,1.27-.35,1.95s-.44,1.27-.68,1.75c-.59-.24-1.22-.44-1.9-.63-.68-.2-1.42-.29-2.19-.29-.83,0-1.46.15-1.9.39-.44.24-.68.63-.68,1.22,0,.53.15.88.48,1.12.35.2.78.44,1.36.59l2.05.59c.68.2,1.27.44,1.8.68.53.29.98.63,1.36,1.03.39.39.68.92.88,1.51.2.59.35,1.31.35,2.19s-.2,1.71-.53,2.49c-.39.78-.92,1.42-1.6,2.01-.68.59-1.56,1.03-2.58,1.31-1.03.35-2.14.48-3.41.48-.59,0-1.12,0-1.56-.05-.48-.05-.92-.09-1.36-.2-.44-.09-.88-.2-1.31-.29-.44-.09-.88-.29-1.42-.48.05-.63.15-1.31.35-1.95.2-.63.39-1.31.68-1.9.78.29,1.51.53,2.25.68.68.15,1.46.24,2.19.24.35,0,.68-.05,1.07-.09.39-.05.78-.15,1.07-.35.35-.15.63-.35.83-.59.24-.24.35-.59.35-.98,0-.59-.2-.98-.53-1.22-.35-.24-.83-.48-1.46-.68l-2.19-.61Z"></path><path class="cls-1" d="M84.89,48.1h-2.34l-.2-.74,6.72-8.53h.83v5.41h4.34c.05.35.09.68.15.98,0,.29.05.59.05.88,0,.35,0,.63-.05.98,0,.29-.05.63-.15,1.03h-4.33v7.26c0,.74.05,1.31.2,1.8.09.44.29.83.53,1.07.24.24.48.44.83.53.35.09.74.15,1.18.15.35,0,.74-.05,1.07-.09s.63-.09.92-.15c.15.44.29.92.35,1.42.05.49.09.92.09,1.31v.68c0,.2-.05.35-.05.53-1.12.24-2.25.39-3.41.39-2.19,0-3.85-.48-4.97-1.51-1.18-1.03-1.71-2.69-1.71-4.97v-8.44h-.05Z"></path><path class="cls-1" d="M113.28,49.02c-.39-1.12-.92-2.05-1.6-2.83-.74-.78-1.56-1.42-2.58-1.86-1.03-.44-2.19-.68-3.46-.68-1.51,0-2.78.24-3.9.78-1.07.53-2.05,1.22-2.78,2.1-.78.88-1.31,1.95-1.71,3.11-.39,1.22-.59,2.49-.59,3.85s.15,2.69.53,3.85c.35,1.18.92,2.19,1.71,3.02.78.88,1.8,1.51,3.02,2.01,1.27.48,2.73.74,4.44.74,2.34,0,4.44-.35,6.3-1.07-.05-.78-.15-1.46-.35-2.14-.2-.63-.44-1.22-.68-1.71-.78.29-1.6.53-2.43.68-.83.15-1.66.24-2.49.24-1.46,0-2.63-.35-3.56-.98s-1.42-1.71-1.51-3.11v-.05h11.99c.05-.29.09-.63.15-1.07.05-.48.05-.92.05-1.36-.01-1.26-.2-2.43-.55-3.5ZM101.67,51.51c.15-1.22.48-2.14,1.12-2.83.63-.68,1.56-1.03,2.73-1.03,1.03,0,1.86.39,2.43,1.07.59.74.88,1.6.92,2.78h-7.21Z"></path><path class="cls-1" d="M117.23,44.25c.35-.05.68-.15,1.03-.15.35-.05.68-.05,1.07-.05.35,0,.74,0,1.07.05.35.05.68.09,1.03.2.05.09.15.29.2.53.05.24.09.48.15.74.05.24.09.48.15.74.05.24.05.44.09.63.53-.74,1.18-1.42,1.95-2.01.78-.59,1.71-.88,2.87-.88.24,0,.53,0,.83.05.29,0,.53.05.68.09.05.24.09.53.09.83s.05.63.05.98c0,.39,0,.83-.05,1.31-.05.48-.09.92-.2,1.36-.24-.05-.53-.05-.88-.05h-.59c-.39,0-.88.05-1.36.15-.48.09-.98.29-1.42.68-.44.35-.83.88-1.12,1.6-.29.74-.44,1.71-.44,3.02v8.82c-.44.05-.88.09-1.27.15-.44,0-.83.05-1.27.05-.39,0-.83,0-1.22-.05-.44,0-.88-.05-1.31-.15v-18.65h-.13Z"></path><path class="cls-1" d="M143.26,45.66c-1.36-1.22-3.32-1.8-5.8-1.8-.88,0-1.86.09-2.93.24-1.07.15-2.1.44-3.17.78,0,.74.09,1.42.24,1.95s.39,1.12.74,1.75c1.42-.48,2.83-.74,4.09-.74.59,0,1.12.05,1.6.09.48.05.88.2,1.22.39.35.2.59.48.78.83.2.39.29.83.29,1.42h.05v.44c-.83-.05-1.6-.09-2.29-.09-.98,0-1.9.09-2.87.29-.92.24-1.8.53-2.58,1.03-.78.44-1.42,1.07-1.9,1.86-.48.78-.74,1.71-.74,2.87s.2,2.1.59,2.87c.44.78.98,1.46,1.71,1.95.74.49,1.6.88,2.63,1.07,1.03.24,2.14.35,3.37.35,1.51,0,2.87-.09,4.05-.35,1.18-.2,2.19-.48,3.02-.74v-10.72c-.01-2.62-.7-4.57-2.11-5.75ZM140.3,54.24v4.73c-.24.05-.59.09-.92.15-.35.05-.74.09-1.07.09-.29,0-.63,0-1.07-.05-.39-.05-.78-.15-1.18-.29-.35-.15-.68-.39-.92-.74-.24-.29-.39-.78-.39-1.42,0-.98.35-1.6,1.03-2.05.68-.44,1.6-.63,2.78-.63.24,0,.53,0,.88.05.35.05.63.09.92.15h-.07Z"></path></svg>