<svg xmlns="http://www.w3.org/2000/svg" id="Layer_1" viewBox="0 0 184 100"><defs><style>.cls-1{fill:#56575a;stroke-width:0px;}</style></defs><path class="cls-1" d="M113.77,20.38c-3.74-1.11-11.44-2.95-22.15-2.95s-17.89,1.8-21.42,2.91c-1.46.45-2.46,1.84-2.46,3.36v35.57c0,2.95,1.35,5.69,3.67,7.49l20.52,15.81,20.66-15.81c2.36-1.77,3.71-4.54,3.67-7.52V23.74c0-1.56-1.01-2.91-2.5-3.36ZM110.65,23.71l.59-1.7.59,1.7,1.8.03-1.42,1.07.52,1.73-1.49-1.04-1.46,1.04.52-1.73-1.42-1.07,1.77-.03ZM98.41,27.8c.31.1.69.17,1.07.17,1.66,0,3.02-1.14,3.02-2.53,0-.17-.03-.35-.07-.52,1.14.17,2.25.35,3.47.55-3.71,2.81-8.29,6.27-12.79,9.71v-6.9c.45.55,1.11.94,1.91,1.11,1.56.31,3.02-.38,3.4-1.59ZM99.83,38.09l-1.46-1.01-1.49,1.01.52-1.7-1.42-1.11,1.8-.03.59-1.66.59,1.66,1.77.03-1.42,1.11.52,1.7ZM90.86,21.11l.59-1.7.59,1.7,1.77.03-1.42,1.07.52,1.73-1.46-1.04-1.49,1.04.52-1.73-1.42-1.07,1.8-.03ZM74.53,26.13s1.66-.45,4.51-.9c.1,1.56,1.66,2.81,3.64,2.81.52,0,1.01-.1,1.46-.24.62.97,1.94,1.66,3.47,1.66.83,0,1.63-.21,2.25-.55v8.74c-2.91,2.22-5.72,4.33-8.08,6.14v-.94s2.36-1.14,2.29-4.54c-.52.21-.87.21-1.11.1.62-.07,1.91-.42,2.77-2.39.83-1.98,1.66-5.48,1.66-5.48,0,0-1.04-.21-1.84,1.04-.8,1.25-1.28,2.25-1.77,2.43-.14.03-.31-.28-.66-.52-.35-.28-.55-.42-.55-.42,0,0-.35-1.53-.42-1.77-.03-.07.42-.69.55-1.01.17-.31.38-.87.14-1.42-.24-.55-.62-.31-.76-.21-.14.1-1.28.87-1.28.87,0,0-.14-.07-.17-.14-.03-.07-.24-.21-1.01.35l-.76.55s-1.07-.21-1.07.24.42.8.62,1.56c.21.76.69,3.02-.55,6.34-1.28,3.4-1.91,3.29-1.73,3.85.17.55.52.42.52.42,0,0,.8,1.18.83,2.5,0,1.04-.07,1.59-.1,1.91-1.77,1.35-2.84,2.15-2.84,2.15v-23.12ZM86.73,47.56l-1.46-1.01-1.49,1.01.52-1.7-1.42-1.11,1.8-.03.59-1.7.59,1.7,1.8.03-1.46,1.11.52,1.7ZM70.54,23.71l.59-1.7.59,1.7,1.8.03-1.42,1.07.52,1.73-1.49-1.04-1.46,1.04.52-1.73-1.42-1.07,1.77-.03ZM70.54,38.85l.59-1.7.59,1.7,1.8.03-1.42,1.11.52,1.7-1.49-1.01-1.46,1.01.52-1.7-1.42-1.11,1.77-.03ZM68.77,54.94l1.77-.03.59-1.7.59,1.7,1.8.03-1.42,1.07.52,1.7-1.49-1.01-1.46,1.01.52-1.7-1.42-1.07ZM75.39,57.98c2.07-1.57,4.27-3.24,6.55-4.97v19.06l-6.55-5.04v-9.04ZM91.76,79.63l-3.02-2.33v-29.45c2.15-1.63,4.34-3.29,6.55-4.97v34.05l-3.53,2.7ZM102.09,37.73c2.21-1.67,4.41-3.34,6.59-5v33.97l-6.59,5.03v-34.01Z"></path></svg>