<svg width="24" height="24" viewBox="0 0 24 24" fill="none" xmlns="http://www.w3.org/2000/svg">
<g clip-path="url(#clip0_6144_24248)">
<g clip-path="url(#clip1_6144_24248)">
<mask id="mask0_6144_24248" style="mask-type:luminance" maskUnits="userSpaceOnUse" x="-4" y="0" width="32" height="24">
<rect x="-4" width="32" height="24" fill="white"/>
</mask>
<g mask="url(#mask0_6144_24248)">
<path fill-rule="evenodd" clip-rule="evenodd" d="M-4 0V24H28V0H-4Z" fill="#AF0100"/>
<mask id="mask1_6144_24248" style="mask-type:luminance" maskUnits="userSpaceOnUse" x="-4" y="0" width="32" height="24">
<path fill-rule="evenodd" clip-rule="evenodd" d="M-4 0V24H28V0H-4Z" fill="white"/>
</mask>
<g mask="url(#mask1_6144_24248)">
<path fill-rule="evenodd" clip-rule="evenodd" d="M-4 0V8H28V0H-4Z" fill="#3CA5D9"/>
<path fill-rule="evenodd" clip-rule="evenodd" d="M-4 16V24H28V16H-4Z" fill="#73BE4A"/>
<path fill-rule="evenodd" clip-rule="evenodd" d="M13.1399 15.024C11.7929 14.7134 10.6103 13.5539 10.6243 12C10.6374 10.5454 11.4933 9.36784 12.9747 9.03345C14.4562 8.69905 15.9922 9.33448 15.9922 9.33448C15.5839 8.42657 14.1625 7.78992 12.9966 7.79298C10.8263 7.79867 8.51097 9.4555 8.4882 11.9856C8.4646 14.6086 10.961 16.0999 13.1581 16.0941C14.9194 16.0895 15.7561 14.9559 15.9297 14.4739C15.9297 14.4739 14.4869 15.3345 13.1399 15.024ZM14.0178 13.4207L15.1933 12.6027L16.3689 13.4207L15.9542 12.0499L17.0955 11.1846L15.6636 11.1554L15.1933 9.80266L14.7231 11.1554L13.2912 11.1846L14.4325 12.0499L14.0178 13.4207Z" fill="#F7FCFF"/>
</g>
</g>
</g>
<g style="mix-blend-mode:hard-light" opacity="0.12">
<rect width="24" height="24" rx="12" fill="white"/>
</g>
<rect width="24" height="24" fill="url(#paint0_linear_6144_24248)" fill-opacity="0.64" style="mix-blend-mode:overlay"/>
</g>
<defs>
<linearGradient id="paint0_linear_6144_24248" x1="24" y1="1.19273e-06" x2="-4.48665" y2="16.0237" gradientUnits="userSpaceOnUse">
<stop stop-color="white" stop-opacity="0.3"/>
<stop offset="0.262741" stop-opacity="0.27"/>
<stop offset="0.369956" stop-color="white" stop-opacity="0.26"/>
<stop offset="0.487001" stop-opacity="0.55"/>
<stop offset="0.594445" stop-opacity="0.24"/>
<stop offset="0.736408" stop-color="white" stop-opacity="0.3"/>
<stop offset="0.901459" stop-color="#272727" stop-opacity="0.22"/>
<stop offset="1" stop-opacity="0.2"/>
</linearGradient>
<clipPath id="clip0_6144_24248">
<rect width="24" height="24" rx="12" fill="white"/>
</clipPath>
<clipPath id="clip1_6144_24248">
<rect width="24" height="24" fill="white"/>
</clipPath>
</defs>
</svg>
