<svg width="24" height="24" viewBox="0 0 24 24" fill="none" xmlns="http://www.w3.org/2000/svg">
<g clip-path="url(#clip0_6144_24261)">
<g clip-path="url(#clip1_6144_24261)">
<mask id="mask0_6144_24261" style="mask-type:luminance" maskUnits="userSpaceOnUse" x="-4" y="0" width="32" height="24">
<rect x="-4" width="32" height="24" fill="white"/>
</mask>
<g mask="url(#mask0_6144_24261)">
<path fill-rule="evenodd" clip-rule="evenodd" d="M-4 0V24H28V0H-4Z" fill="#FECA00"/>
<mask id="mask1_6144_24261" style="mask-type:luminance" maskUnits="userSpaceOnUse" x="-4" y="0" width="32" height="24">
<path fill-rule="evenodd" clip-rule="evenodd" d="M-4 0V24H28V0H-4Z" fill="white"/>
</mask>
<g mask="url(#mask1_6144_24261)">
<path fill-rule="evenodd" clip-rule="evenodd" d="M-4 0V8H28V0H-4Z" fill="#DB501C"/>
<path fill-rule="evenodd" clip-rule="evenodd" d="M-4 16V24H28V16H-4Z" fill="#61A32E"/>
<path d="M9.63062 10.6407L9.65484 10.6172L14.4679 15.247L14.4437 15.2705L9.63062 10.6407Z" fill="#864C26"/>
<path d="M14.8143 14.9463L14.7935 14.9727L9.19409 10.8597L9.21487 10.8333L14.8143 14.9463Z" fill="#864C26"/>
<path d="M14.9323 14.5359L14.9154 14.5648L8.68677 11.1744L8.70362 11.1455L14.9323 14.5359Z" fill="#A05A2C"/>
<path fill-rule="evenodd" clip-rule="evenodd" d="M9.06787 10.0762L9.53956 10.3882L9.51324 10.4062C9.52398 10.4124 9.53506 10.419 9.54648 10.4261C9.55976 10.4343 9.56907 10.4442 9.57455 10.4556C9.5841 10.4274 9.58385 10.3932 9.57367 10.3524L9.54887 10.2531L9.60481 10.3402C9.69369 10.4786 9.70693 10.5776 9.63779 10.6336C9.57026 10.6883 9.464 10.6741 9.32043 10.5952L9.26208 10.5631L9.32864 10.5641C9.38334 10.5649 9.43023 10.5585 9.46945 10.5449L9.4422 10.5376C9.41915 10.5314 9.40208 10.5153 9.39049 10.49L9.34423 10.5215L9.06787 10.0762ZM8.5022 10.4289L9.02091 10.6543L8.99747 10.6772C9.00959 10.6815 9.02216 10.6863 9.03517 10.6915C9.04968 10.6973 9.06057 10.7054 9.06794 10.7157C9.07241 10.6864 9.06622 10.6528 9.04914 10.6144L9.00747 10.5209L9.07767 10.5969C9.18924 10.7178 9.21947 10.813 9.16111 10.8802C9.10411 10.9458 8.99698 10.9502 8.84189 10.8975L8.77887 10.876L8.84459 10.8655C8.89873 10.8567 8.94388 10.8422 8.98018 10.8219L8.95184 10.8194C8.92765 10.8173 8.90777 10.804 8.89182 10.7803L8.85169 10.8195L8.5022 10.4289ZM8.53638 10.9701L8 10.7908L8.38221 11.1494L8.41872 11.107C8.43675 11.1295 8.45785 11.1412 8.48232 11.1412H8.51093C8.47649 11.1647 8.4327 11.1831 8.37941 11.1966L8.31486 11.2128L8.37951 11.2287C8.53861 11.2677 8.64494 11.254 8.69601 11.1837C8.74829 11.1117 8.70988 11.0194 8.5882 10.9088L8.51163 10.8391L8.5613 10.9287C8.5816 10.9653 8.59071 10.9981 8.58887 11.0277C8.58064 11.0181 8.5691 11.011 8.55418 11.0065C8.54052 11.0024 8.52737 10.9987 8.51471 10.9953L8.53638 10.9701ZM8.47777 10.9864L8.47831 10.9857L8.13468 10.8708L8.37954 11.1006L8.3997 11.0772C8.39608 11.0702 8.39262 11.0627 8.38931 11.0546L8.39158 11.0538L8.37524 11.0362L8.44095 10.9792L8.44922 10.9807C8.45838 10.9823 8.4679 10.9842 8.47777 10.9864Z" fill="#E7E7E7"/>
<path fill-rule="evenodd" clip-rule="evenodd" d="M10.3142 14.8101L10.8707 13.8176L11.6513 14.0278L11.0895 14.9337H10.8707V15.0325L10.3142 14.8101Z" fill="#925229"/>
<path fill-rule="evenodd" clip-rule="evenodd" d="M10.0756 10.9937L9.70726 11.3764L9.57324 13.9059L10.9005 14.0994C10.9005 14.0994 10.3221 13.5916 10.2369 13.2782C10.1516 12.9648 10.1244 11.795 10.2857 11.6171L10.4116 11.6906L10.513 11.3897" fill="#FFE000"/>
<path fill-rule="evenodd" clip-rule="evenodd" d="M8.79278 11.1662C8.79278 11.1662 8.65015 13.1413 8.65015 13.4882C8.65015 13.8351 8.94465 14.6611 9.61598 14.6611C10.2873 14.6611 11.2085 14.2915 11.2085 14.1408C11.2085 13.9901 10.9335 13.8821 10.9335 13.8821C10.9335 13.8821 9.69886 13.9665 9.69886 13.4882C9.69886 13.0099 9.78274 11.5941 9.85602 11.4272C9.92931 11.2602 10.1834 11.0085 10.1834 11.0085L9.69886 10.6484L9.61598 11.0085L9.30531 10.9028L9.21054 11.4272L8.79278 11.1662Z" fill="#D52C1E"/>
<path fill-rule="evenodd" clip-rule="evenodd" d="M10.5176 11.3853L10.4284 11.6646L10.2481 11.5885C10.2481 11.5885 9.9785 12.8526 10.2481 13.3822C10.5176 13.9118 11.1966 13.9502 11.1966 13.9502L10.9097 11.6646L10.5176 11.3853Z" fill="#027934"/>
<path fill-rule="evenodd" clip-rule="evenodd" d="M10.4781 13.0935L9.83115 13.6052C9.83115 13.6052 9.65371 13.8595 9.83115 14.052C10.0086 14.2446 10.5006 14.4409 10.6166 14.2085C10.7327 13.976 11.0775 13.7038 11.0775 13.7038L10.4781 13.0935Z" fill="#E8A30C"/>
<path fill-rule="evenodd" clip-rule="evenodd" d="M10.9858 11.1629C11.1432 11.0261 11.2221 10.8591 11.162 10.79C11.1019 10.7209 10.9256 10.7758 10.7682 10.9126C10.6108 11.0495 10.5319 11.2164 10.592 11.2856C10.652 11.3547 10.8284 11.2998 10.9858 11.1629Z" fill="#E1E5E8"/>
<path fill-rule="evenodd" clip-rule="evenodd" d="M10.589 10.2035C10.589 10.2035 10.5256 10.1905 10.4969 10.1862C10.2923 10.1552 10.1899 10.1969 10.1899 10.3114C10.1899 10.5072 10.3204 10.7186 10.3204 10.8664C10.3204 11.0143 10.3267 11.2445 10.3894 11.1294C10.4522 11.0143 10.7712 10.6684 10.7712 10.6684L10.589 10.3684C10.589 10.3684 11.0415 10.4193 10.8428 10.3114" fill="#D52C1E"/>
<path fill-rule="evenodd" clip-rule="evenodd" d="M11.98 14.2535L11.6406 14.2501C11.3886 14.4993 11.3654 14.8345 11.5638 15.2394C11.5638 15.2394 11.6289 15.3335 11.6517 15.3248C11.6836 15.3124 11.728 15.1761 11.728 15.1761C11.7129 14.7807 11.9649 14.5189 11.98 14.2535Z" fill="#D52C1E"/>
<path fill-rule="evenodd" clip-rule="evenodd" d="M11.5504 14.2638L11.6724 14.207C11.7927 14.4569 11.7324 14.7157 11.5004 14.9726L11.3994 14.8846C11.5004 14.5898 11.5004 14.4677 11.5504 14.2638Z" fill="#FFE000"/>
<path d="M11.3945 14.2558L11.5218 14.2185C11.583 14.4278 11.5525 14.6437 11.4322 14.8628L11.3159 14.7989C11.4199 14.6095 11.4454 14.4296 11.3945 14.2558Z" fill="#027934"/>
<path d="M14.3694 10.6407L14.3452 10.6172L9.53207 15.247L9.55629 15.2705L14.3694 10.6407Z" fill="#864C26"/>
<path d="M9.18571 14.9463L9.20649 14.9727L14.8059 10.8597L14.7851 10.8333L9.18571 14.9463Z" fill="#864C26"/>
<path d="M9.06774 14.5359L9.0846 14.5648L15.3132 11.1744L15.2964 11.1455L9.06774 14.5359Z" fill="#A05A2C"/>
<path fill-rule="evenodd" clip-rule="evenodd" d="M14.9321 10.0762L14.4604 10.3882L14.4868 10.4062C14.476 10.4124 14.4649 10.419 14.4535 10.4261C14.4402 10.4343 14.4309 10.4442 14.4255 10.4556C14.4159 10.4274 14.4161 10.3932 14.4263 10.3524L14.4511 10.2531L14.3952 10.3402C14.3063 10.4786 14.2931 10.5776 14.3622 10.6336C14.4297 10.6883 14.536 10.6741 14.6796 10.5952L14.7379 10.5631L14.6714 10.5641C14.6167 10.5649 14.5698 10.5585 14.5305 10.5449L14.5578 10.5376C14.5809 10.5314 14.5979 10.5153 14.6095 10.49L14.6558 10.5215L14.9321 10.0762ZM15.4978 10.4289L14.9791 10.6543L15.0025 10.6772C14.9904 10.6815 14.9778 10.6863 14.9648 10.6915C14.9503 10.6973 14.9394 10.7054 14.9321 10.7157C14.9276 10.6864 14.9338 10.6528 14.9509 10.6144L14.9925 10.5209L14.9223 10.5969C14.8108 10.7178 14.7805 10.813 14.8389 10.8802C14.8959 10.9458 15.003 10.9502 15.1581 10.8975L15.2211 10.876L15.1554 10.8655C15.1013 10.8567 15.0561 10.8422 15.0198 10.8219L15.0482 10.8194C15.0723 10.8173 15.0922 10.804 15.1082 10.7803L15.1483 10.8195L15.4978 10.4289ZM15.4636 10.9701L16 10.7908L15.6178 11.1494L15.5813 11.107C15.5632 11.1295 15.5421 11.1412 15.5177 11.1412H15.4891C15.5235 11.1647 15.5673 11.1831 15.6206 11.1966L15.6851 11.2128L15.6205 11.2287C15.4614 11.2677 15.3551 11.254 15.304 11.1837C15.2517 11.1117 15.2901 11.0194 15.4118 10.9088L15.4884 10.8391L15.4387 10.9287C15.4184 10.9653 15.4093 10.9981 15.4111 11.0277C15.4194 11.0181 15.4309 11.011 15.4458 11.0065C15.4595 11.0024 15.4726 10.9987 15.4853 10.9953L15.4636 10.9701ZM15.5222 10.9864L15.5217 10.9857L15.8653 10.8708L15.6205 11.1006L15.6003 11.0772C15.6039 11.0702 15.6074 11.0627 15.6107 11.0546L15.6084 11.0538L15.6248 11.0362L15.559 10.9792L15.5508 10.9807C15.5416 10.9823 15.5321 10.9842 15.5222 10.9864Z" fill="#E7E7E7"/>
<path fill-rule="evenodd" clip-rule="evenodd" d="M13.6858 14.8101L13.1293 13.8176L12.3487 14.0278L12.9105 14.9337H13.1293V15.0325L13.6858 14.8101Z" fill="#925229"/>
<path fill-rule="evenodd" clip-rule="evenodd" d="M13.9244 10.9937L14.2927 11.3764L14.4268 13.9059L13.0995 14.0994C13.0995 14.0994 13.6779 13.5916 13.7631 13.2782C13.8484 12.9648 13.8756 11.795 13.7143 11.6171L13.5884 11.6906L13.487 11.3897" fill="#FFE000"/>
<path fill-rule="evenodd" clip-rule="evenodd" d="M15.2072 11.1662C15.2072 11.1662 15.3499 13.1413 15.3499 13.4882C15.3499 13.8351 15.0554 14.6611 14.384 14.6611C13.7127 14.6611 12.7915 14.2915 12.7915 14.1408C12.7915 13.9901 13.0665 13.8821 13.0665 13.8821C13.0665 13.8821 14.3011 13.9665 14.3011 13.4882C14.3011 13.0099 14.2173 11.5941 14.144 11.4272C14.0707 11.2602 13.8166 11.0085 13.8166 11.0085L14.3011 10.6484L14.384 11.0085L14.6947 10.9028L14.7895 11.4272L15.2072 11.1662Z" fill="#D52C1E"/>
<path fill-rule="evenodd" clip-rule="evenodd" d="M13.4824 11.3853L13.5716 11.6646L13.7519 11.5885C13.7519 11.5885 14.0215 12.8526 13.7519 13.3822C13.4824 13.9118 12.8034 13.9502 12.8034 13.9502L13.0903 11.6646L13.4824 11.3853Z" fill="#027934"/>
<path fill-rule="evenodd" clip-rule="evenodd" d="M13.5219 13.0935L14.1689 13.6052C14.1689 13.6052 14.3463 13.8595 14.1689 14.052C13.9914 14.2446 13.4994 14.4409 13.3834 14.2085C13.2673 13.976 12.9225 13.7038 12.9225 13.7038L13.5219 13.0935Z" fill="#E8A30C"/>
<path fill-rule="evenodd" clip-rule="evenodd" d="M13.0142 11.1629C12.8568 11.0261 12.7779 10.8591 12.838 10.79C12.8981 10.7209 13.0744 10.7758 13.2318 10.9126C13.3892 11.0495 13.4681 11.2164 13.408 11.2856C13.348 11.3547 13.1716 11.2998 13.0142 11.1629Z" fill="#E1E5E8"/>
<path fill-rule="evenodd" clip-rule="evenodd" d="M12.02 14.2535L12.3594 14.2501C12.6114 14.4993 12.6346 14.8345 12.4362 15.2394C12.4362 15.2394 12.3711 15.3335 12.3483 15.3248C12.3164 15.3124 12.272 15.1761 12.272 15.1761C12.2871 14.7807 12.0351 14.5189 12.02 14.2535Z" fill="#D52C1E"/>
<path fill-rule="evenodd" clip-rule="evenodd" d="M12.4496 14.2638L12.3276 14.207C12.2073 14.4569 12.2676 14.7157 12.4996 14.9726L12.6006 14.8846C12.4996 14.5898 12.4996 14.4677 12.4496 14.2638Z" fill="#FFE000"/>
<path d="M12.6055 14.2558L12.4782 14.2185C12.417 14.4278 12.4475 14.6437 12.5678 14.8628L12.6841 14.7989C12.5801 14.6095 12.5546 14.4296 12.6055 14.2558Z" fill="#027934"/>
<path fill-rule="evenodd" clip-rule="evenodd" d="M10.3691 12.5486C10.3691 13.5081 11.0776 14.3065 11.9829 14.3065C12.8881 14.3065 13.5966 13.5081 13.5966 12.5486C13.5966 11.5892 12.8881 10.7908 11.9829 10.7908C11.0776 10.7908 10.3691 11.5892 10.3691 12.5486ZM13.219 12.5486C13.219 13.318 12.6656 13.9417 11.9829 13.9417C11.3003 13.9417 10.7469 13.318 10.7469 12.5486C10.7469 11.7793 11.3003 11.1556 11.9829 11.1556C12.6656 11.1556 13.219 11.7793 13.219 12.5486Z" fill="#00A6DE"/>
<path fill-rule="evenodd" clip-rule="evenodd" d="M11.9829 13.9416C12.6655 13.9416 13.2189 13.3179 13.2189 12.5486C13.2189 11.7792 12.6655 11.1555 11.9829 11.1555C11.3002 11.1555 10.7468 11.7792 10.7468 12.5486C10.7468 13.3179 11.3002 13.9416 11.9829 13.9416Z" fill="#FFC036"/>
<mask id="mask2_6144_24261" style="mask-type:luminance" maskUnits="userSpaceOnUse" x="10" y="11" width="4" height="3">
<path fill-rule="evenodd" clip-rule="evenodd" d="M11.9829 13.9416C12.6655 13.9416 13.2189 13.3179 13.2189 12.5486C13.2189 11.7792 12.6655 11.1555 11.9829 11.1555C11.3002 11.1555 10.7468 11.7792 10.7468 12.5486C10.7468 13.3179 11.3002 13.9416 11.9829 13.9416Z" fill="white"/>
</mask>
<g mask="url(#mask2_6144_24261)">
<path fill-rule="evenodd" clip-rule="evenodd" d="M11.983 12.2997L11.8225 12.6305L11.8266 12.2652L11.5334 12.496L11.7011 12.1685L11.3334 12.2536L11.6315 12.0289L11.262 11.9514L11.6315 11.8739L11.3334 11.6492L11.7011 11.7343L11.5334 11.4068L11.8266 11.6376L11.8225 11.2723L11.983 11.6031L12.1434 11.2723L12.1394 11.6376L12.4325 11.4068L12.2649 11.7343L12.6326 11.6492L12.3345 11.8739L12.704 11.9514L12.3345 12.0289L12.6326 12.2536L12.2649 12.1685L12.4325 12.496L12.1394 12.2652L12.1434 12.6305L11.983 12.2997Z" fill="#D52C1E"/>
<path fill-rule="evenodd" clip-rule="evenodd" d="M10.6941 12.6286C10.6941 12.6286 11.6608 11.948 11.8982 11.948C12.1357 11.948 13.1487 12.6324 13.3559 12.7254C13.5632 12.8185 13.3559 14.644 13.3559 14.644H10.614L10.6941 12.6286Z" fill="#027934"/>
</g>
<path fill-rule="evenodd" clip-rule="evenodd" d="M10.687 11.8185L10.7466 11.8514C11.0723 11.3018 11.4867 11.0292 11.9922 11.0292C12.5582 11.0607 12.982 11.3696 13.2649 11.9602L13.3273 11.9323C13.0342 11.3205 12.5888 10.9959 11.9942 10.9629C11.46 10.9628 11.0242 11.2495 10.687 11.8185ZM10.447 12.8785L10.558 12.8039L10.669 12.8785L10.6299 12.7535L10.7376 12.6746L10.6024 12.6719L10.558 12.5485L10.5136 12.6719L10.3784 12.6746L10.4862 12.7535L10.447 12.8785ZM10.6954 13.3015L10.5844 13.3761L10.6235 13.251L10.5158 13.1721L10.651 13.1694L10.6954 13.0461L10.7398 13.1694L10.875 13.1721L10.7672 13.251L10.8064 13.3761L10.6954 13.3015ZM10.859 13.7741L10.97 13.6995L11.081 13.7741L11.0419 13.6491L11.1496 13.5701L11.0144 13.5675L10.97 13.4441L10.9256 13.5675L10.7904 13.5701L10.8982 13.6491L10.859 13.7741ZM11.3821 14.0311L11.2711 14.1057L11.3102 13.9807L11.2025 13.9018L11.3377 13.8991L11.3821 13.7757L11.4265 13.8991L11.5617 13.9018L11.4539 13.9807L11.4931 14.1057L11.3821 14.0311ZM11.8548 14.2716L11.9658 14.197L12.0768 14.2716L12.0377 14.1465L12.1454 14.0676L12.0102 14.065L11.9658 13.9416L11.9214 14.065L11.7862 14.0676L11.894 14.1465L11.8548 14.2716ZM13.4079 12.8039L13.5189 12.8785L13.4797 12.7535L13.5875 12.6746L13.4523 12.6719L13.4079 12.5485L13.3635 12.6719L13.2283 12.6746L13.336 12.7535L13.2969 12.8785L13.4079 12.8039ZM13.3815 13.3761L13.2705 13.3015L13.1595 13.3761L13.1987 13.251L13.0909 13.1721L13.2261 13.1694L13.2705 13.0461L13.3149 13.1694L13.4501 13.1721L13.3423 13.251L13.3815 13.3761ZM12.9958 13.6995L13.1068 13.7741L13.0677 13.6491L13.1754 13.5701L13.0402 13.5675L12.9958 13.4441L12.9514 13.5675L12.8162 13.5701L12.924 13.6491L12.8848 13.7741L12.9958 13.6995ZM12.6948 14.1057L12.5838 14.0311L12.4728 14.1057L12.512 13.9807L12.4042 13.9018L12.5394 13.8991L12.5838 13.7757L12.6282 13.8991L12.7634 13.9018L12.6557 13.9807L12.6948 14.1057Z" fill="#FFC036"/>
<path d="M11.122 8.67261L11.2545 8.76902C10.9149 9.07375 10.851 9.41356 10.9161 9.70549C10.9838 10.0096 11.285 10.3341 11.8325 10.6672L11.6312 10.9759C11.006 10.5955 10.6459 10.2435 10.5526 9.82426C10.4565 9.39284 10.6924 9.05808 11.122 8.67261Z" fill="#036A2D"/>
<path d="M12.9244 8.67261L12.7919 8.76902C13.1315 9.07375 13.1953 9.41356 13.1303 9.70549C13.0626 10.0096 12.7614 10.3341 12.2139 10.6672L12.4152 10.9759C13.0404 10.5955 13.4005 10.2435 13.4938 9.82426C13.5899 9.39284 13.354 9.05808 12.9244 8.67261Z" fill="#036A2D"/>
<path fill-rule="evenodd" clip-rule="evenodd" d="M9.84996 9.90892C9.84996 9.90892 10.4296 9.50817 10.7046 9.50817C10.9796 9.50817 11.3467 9.41637 11.4043 9.62722C11.4618 9.83806 11.5706 9.777 11.7836 9.777C11.9966 9.777 12.4152 9.777 12.4152 9.777C12.4152 9.777 12.2902 9.50817 12.5219 9.50817C12.7536 9.50817 13.7212 9.64507 14.0133 9.777C14.3053 9.90892 14.32 9.98691 14.32 9.98691C14.32 9.98691 14.0497 9.83093 13.7507 9.90892C13.4517 9.98691 12.9093 10.3303 12.6623 10.3303C12.4152 10.3303 12.2175 10.5957 12.2175 10.5957C12.2175 10.5957 12.2338 10.4597 12.0087 10.5277C11.7836 10.5957 11.7889 10.9162 11.5966 10.8573C11.4043 10.7985 11.652 10.3303 11.5966 10.3303C11.5412 10.3303 11.1485 10.1764 11.1485 10.1764C11.1485 10.1764 10.7675 9.83093 10.2018 9.90892C9.63602 9.98691 9.84996 9.90892 9.84996 9.90892Z" fill="#452C24"/>
<path fill-rule="evenodd" clip-rule="evenodd" d="M11.914 10.1935C12.0278 10.1935 12.12 10.1118 12.12 10.011C12.12 9.91029 12.0278 9.82861 11.914 9.82861C11.8002 9.82861 11.708 9.91029 11.708 10.011C11.708 10.1118 11.8002 10.1935 11.914 10.1935Z" fill="#E7E7E7"/>
<path fill-rule="evenodd" clip-rule="evenodd" d="M11.469 10.0059C11.469 10.0059 11.5356 9.87988 11.6676 9.87988C11.7997 9.87988 12.0472 9.87988 12.0472 9.94287C12.0472 10.0059 12.0671 10.0881 11.8674 10.0881C11.6676 10.0881 11.7956 10.0059 11.6676 10.0059C11.5397 10.0059 11.469 10.0059 11.469 10.0059Z" fill="#E8A30C"/>
<path fill-rule="evenodd" clip-rule="evenodd" d="M13.8242 10.8569C13.901 10.7766 13.9438 10.5816 13.9438 10.5816C13.9438 10.5816 13.6011 10.6365 13.5213 10.5816C13.4415 10.5268 13.4001 10.366 13.4001 10.366C13.4001 10.366 13.0912 10.5071 13.209 10.5071C13.3268 10.5071 13.4001 10.6115 13.4001 10.6115L13.6397 10.6997C13.6397 10.6997 13.4806 10.8569 13.5602 10.8569C13.6397 10.8569 13.7475 10.9373 13.8242 10.8569Z" fill="#E1E5E8"/>
<path d="M13.2204 10.9237L13.1772 10.8722L13.4784 10.6365L13.5215 10.688L13.2204 10.9237Z" fill="#925229"/>
</g>
</g>
</g>
<g style="mix-blend-mode:hard-light" opacity="0.12">
<rect width="24" height="24" rx="12" fill="white"/>
</g>
<rect width="24" height="24" fill="url(#paint0_linear_6144_24261)" fill-opacity="0.64" style="mix-blend-mode:overlay"/>
</g>
<defs>
<linearGradient id="paint0_linear_6144_24261" x1="24" y1="1.19273e-06" x2="-4.48665" y2="16.0237" gradientUnits="userSpaceOnUse">
<stop stop-color="white" stop-opacity="0.3"/>
<stop offset="0.262741" stop-opacity="0.27"/>
<stop offset="0.369956" stop-color="white" stop-opacity="0.26"/>
<stop offset="0.487001" stop-opacity="0.55"/>
<stop offset="0.594445" stop-opacity="0.24"/>
<stop offset="0.736408" stop-color="white" stop-opacity="0.3"/>
<stop offset="0.901459" stop-color="#272727" stop-opacity="0.22"/>
<stop offset="1" stop-opacity="0.2"/>
</linearGradient>
<clipPath id="clip0_6144_24261">
<rect width="24" height="24" rx="12" fill="white"/>
</clipPath>
<clipPath id="clip1_6144_24261">
<rect width="24" height="24" fill="white"/>
</clipPath>
</defs>
</svg>
