<svg width="24" height="24" viewBox="0 0 24 24" fill="none" xmlns="http://www.w3.org/2000/svg">
<g clip-path="url(#clip0_6144_24289)">
<g clip-path="url(#clip1_6144_24289)">
<mask id="mask0_6144_24289" style="mask-type:luminance" maskUnits="userSpaceOnUse" x="-4" y="0" width="32" height="24">
<rect x="-4" width="32" height="24" fill="white"/>
</mask>
<g mask="url(#mask0_6144_24289)">
<path fill-rule="evenodd" clip-rule="evenodd" d="M-4 0V24H28V0H-4Z" fill="#F7FCFF"/>
<mask id="mask1_6144_24289" style="mask-type:luminance" maskUnits="userSpaceOnUse" x="-4" y="0" width="32" height="24">
<path fill-rule="evenodd" clip-rule="evenodd" d="M-4 0V24H28V0H-4Z" fill="white"/>
</mask>
<g mask="url(#mask1_6144_24289)">
<path fill-rule="evenodd" clip-rule="evenodd" d="M3.59954 14.3208C3.17143 14.0232 3.36398 13.3704 3.36398 13.3704C3.36398 13.3704 3.99951 13.7315 4.2223 13.8991C4.4451 14.0667 4.6058 14.7583 4.6058 14.7583C4.6058 14.7583 4.02764 14.6183 3.59954 14.3208ZM4.74369 15.2542C4.7221 15.0656 4.77496 14.897 4.77496 14.897C4.77496 14.897 5.31142 15.1837 5.49948 15.3167C5.68754 15.4498 5.82319 15.9987 5.82319 15.9987C5.82319 15.9987 5.33516 15.8876 4.97379 15.6514C4.84239 15.5655 4.78026 15.4424 4.7544 15.3204C4.6465 15.3535 4.37135 15.4252 4.08749 15.3979C3.72293 15.3628 3.4599 14.8513 3.4599 14.8513C3.4599 14.8513 3.95732 14.8493 4.15397 14.8761C4.30716 14.8969 4.61508 15.1454 4.74369 15.2542ZM6.4353 16.2301C6.4353 16.2301 6.4739 16.7675 6.8629 16.8773C7.25191 16.9871 7.70616 16.94 7.70616 16.94C7.70616 16.94 7.4027 16.4663 7.1968 16.3996C6.99089 16.333 6.4353 16.2301 6.4353 16.2301ZM8.74121 17.6687C8.33905 17.6281 8.20772 17.1056 8.20772 17.1056C8.20772 17.1056 8.77272 17.1104 8.98708 17.1403C9.20143 17.1701 9.58254 17.584 9.58254 17.584C9.58254 17.584 9.14337 17.7093 8.74121 17.6687ZM9.45528 16.7013C9.45528 16.7013 9.40078 17.3282 9.80478 17.5384C10.2088 17.7485 10.712 17.7922 10.712 17.7922C10.712 17.7922 10.4666 17.1814 10.2543 17.0604C10.042 16.9393 9.45528 16.7013 9.45528 16.7013ZM9.73783 18.3021C9.29161 18.3931 8.93942 17.8715 8.93942 17.8715C8.93942 17.8715 9.54517 17.6873 9.78635 17.6478C10.0275 17.6083 10.6026 17.9284 10.6026 17.9284C10.6026 17.9284 10.1841 18.2112 9.73783 18.3021ZM6.51127 17.1768C6.51127 17.1768 6.72273 17.6724 7.12628 17.6495C7.52983 17.6266 7.944 17.4342 7.944 17.4342C7.944 17.4342 7.50284 17.0851 7.28645 17.0891C7.07006 17.0931 6.51127 17.1768 6.51127 17.1768ZM7.68283 16.6094C7.32192 16.4274 7.38656 15.8925 7.38656 15.8925C7.38656 15.8925 7.91233 16.0994 8.10174 16.2042C8.29115 16.3089 8.49863 16.8318 8.49863 16.8318C8.49863 16.8318 8.04374 16.7914 7.68283 16.6094ZM5.64955 14.6529C5.64955 14.6529 5.65043 15.3137 5.92207 15.5719C6.19371 15.8302 6.51959 15.9203 6.51959 15.9203C6.51959 15.9203 6.3269 15.2506 6.18354 15.1036C6.04018 14.9566 5.64955 14.6529 5.64955 14.6529ZM4.65352 16.1128C4.65352 16.1128 5.05928 16.6411 5.47716 16.6139C5.89503 16.5868 6.26173 16.3784 6.26173 16.3784C6.26173 16.3784 5.66721 16.0081 5.44011 16.0138C5.21301 16.0196 4.65352 16.1128 4.65352 16.1128ZM4.7513 15.9926C4.52907 16.013 4.32102 15.7361 4.32102 15.7361C4.32102 15.7361 4.61936 15.6784 4.74001 15.6722C4.86066 15.6659 5.17113 15.8556 5.17113 15.8556C5.17113 15.8556 4.97354 15.9723 4.7513 15.9926ZM4.93631 13.8545C4.93631 13.8545 4.69975 14.1074 4.75838 14.3228C4.81701 14.5381 4.96616 14.7124 4.96616 14.7124C4.96616 14.7124 5.0991 14.3737 5.07199 14.256C5.04489 14.1383 4.93631 13.8545 4.93631 13.8545ZM6.89517 16.0833C6.7576 16.0317 6.78947 15.8655 6.78947 15.8655C6.78947 15.8655 6.99061 15.9228 7.06269 15.9527C7.13477 15.9827 7.20852 16.1417 7.20852 16.1417C7.20852 16.1417 7.03273 16.135 6.89517 16.0833ZM6.18078 16.7242C6.18078 16.7242 6.14891 16.8904 6.28647 16.9421C6.42403 16.9937 6.59983 17.0005 6.59983 17.0005C6.59983 17.0005 6.52607 16.8414 6.454 16.8115C6.38192 16.7815 6.18078 16.7242 6.18078 16.7242ZM8.8227 16.9421C8.68514 16.8904 8.71701 16.7242 8.71701 16.7242C8.71701 16.7242 8.91815 16.7815 8.99023 16.8115C9.0623 16.8414 9.13606 17.0005 9.13606 17.0005C9.13606 17.0005 8.96027 16.9937 8.8227 16.9421ZM8.20976 17.7738C8.20976 17.7738 8.17789 17.94 8.31546 17.9917C8.45302 18.0433 8.62881 18.05 8.62881 18.05C8.62881 18.05 8.55506 17.891 8.48298 17.8611C8.4109 17.8311 8.20976 17.7738 8.20976 17.7738ZM10.9305 18.9121L10.4849 18.5409C10.7625 18.3804 11.0485 18.2526 11.2932 18.1567C11.2259 18.1104 11.165 18.0756 11.1158 18.0587V17.9371C11.1158 17.9371 11.2823 17.9803 11.5316 18.068C11.781 17.9803 11.9475 17.9371 11.9475 17.9371V18.0587C11.8983 18.0756 11.8374 18.1104 11.7701 18.1567C12.0148 18.2526 12.3008 18.3804 12.5784 18.5409L12.1328 18.9121C12.1328 18.9121 11.8268 18.5931 11.5316 18.3425C11.2365 18.5931 10.9305 18.9121 10.9305 18.9121ZM19.6993 13.3704C19.6993 13.3704 19.8919 14.0232 19.4638 14.3208C19.0357 14.6183 18.4575 14.7583 18.4575 14.7583C18.4575 14.7583 18.6182 14.0667 18.841 13.8991C19.0638 13.7315 19.6993 13.3704 19.6993 13.3704ZM18.3196 15.2542C18.3412 15.0656 18.2883 14.897 18.2883 14.897C18.2883 14.897 17.7519 15.1837 17.5638 15.3167C17.3758 15.4498 17.2401 15.9987 17.2401 15.9987C17.2401 15.9987 17.7281 15.8876 18.0895 15.6514C18.2209 15.5655 18.283 15.4424 18.3089 15.3204C18.4168 15.3535 18.6919 15.4252 18.9758 15.3979C19.3404 15.3628 19.6034 14.8513 19.6034 14.8513C19.6034 14.8513 19.106 14.8493 18.9093 14.8761C18.7561 14.8969 18.4482 15.1454 18.3196 15.2542ZM16.628 16.2301C16.628 16.2301 16.5894 16.7675 16.2004 16.8773C15.8114 16.9871 15.3571 16.94 15.3571 16.94C15.3571 16.94 15.6606 16.4663 15.8665 16.3996C16.0724 16.333 16.628 16.2301 16.628 16.2301ZM14.3221 17.6687C14.7242 17.6281 14.8556 17.1056 14.8556 17.1056C14.8556 17.1056 14.2906 17.1104 14.0762 17.1403C13.8619 17.1701 13.4808 17.584 13.4808 17.584C13.4808 17.584 13.9199 17.7093 14.3221 17.6687ZM13.608 16.7013C13.608 16.7013 13.6625 17.3282 13.2585 17.5384C12.8545 17.7485 12.3513 17.7922 12.3513 17.7922C12.3513 17.7922 12.5967 17.1814 12.809 17.0604C13.0213 16.9393 13.608 16.7013 13.608 16.7013ZM13.3255 18.3021C13.7717 18.3931 14.1239 17.8715 14.1239 17.8715C14.1239 17.8715 13.5181 17.6873 13.2769 17.6478C13.0358 17.6083 12.4607 17.9284 12.4607 17.9284C12.4607 17.9284 12.8792 18.2112 13.3255 18.3021ZM16.552 17.1768C16.552 17.1768 16.3406 17.6724 15.937 17.6495C15.5335 17.6266 15.1193 17.4342 15.1193 17.4342C15.1193 17.4342 15.5605 17.0851 15.7768 17.0891C15.9932 17.0931 16.552 17.1768 16.552 17.1768ZM15.3805 16.6094C15.7414 16.4274 15.6767 15.8925 15.6767 15.8925C15.6767 15.8925 15.151 16.0994 14.9616 16.2042C14.7722 16.3089 14.5647 16.8318 14.5647 16.8318C14.5647 16.8318 15.0196 16.7914 15.3805 16.6094ZM17.4138 14.6529C17.4138 14.6529 17.4129 15.3137 17.1412 15.5719C16.8696 15.8302 16.5437 15.9203 16.5437 15.9203C16.5437 15.9203 16.7364 15.2506 16.8798 15.1036C17.0231 14.9566 17.4138 14.6529 17.4138 14.6529ZM18.4098 16.1128C18.4098 16.1128 18.004 16.6411 17.5861 16.6139C17.1683 16.5868 16.8016 16.3784 16.8016 16.3784C16.8016 16.3784 17.3961 16.0081 17.6232 16.0138C17.8503 16.0196 18.4098 16.1128 18.4098 16.1128ZM18.312 15.9926C18.5342 16.013 18.7423 15.7361 18.7423 15.7361C18.7423 15.7361 18.4439 15.6784 18.3233 15.6722C18.2026 15.6659 17.8922 15.8556 17.8922 15.8556C17.8922 15.8556 18.0898 15.9723 18.312 15.9926ZM18.127 13.8545C18.127 13.8545 18.3636 14.1074 18.3049 14.3228C18.2463 14.5381 18.0971 14.7124 18.0971 14.7124C18.0971 14.7124 17.9642 14.3737 17.9913 14.256C18.0184 14.1383 18.127 13.8545 18.127 13.8545ZM16.1681 16.0833C16.3057 16.0317 16.2738 15.8655 16.2738 15.8655C16.2738 15.8655 16.0727 15.9228 16.0006 15.9527C15.9285 15.9827 15.8548 16.1417 15.8548 16.1417C15.8548 16.1417 16.0306 16.135 16.1681 16.0833ZM16.8825 16.7242C16.8825 16.7242 16.9144 16.8904 16.7768 16.9421C16.6393 16.9937 16.4635 17.0005 16.4635 17.0005C16.4635 17.0005 16.5372 16.8414 16.6093 16.8115C16.6814 16.7815 16.8825 16.7242 16.8825 16.7242ZM14.2406 16.9421C14.3782 16.8904 14.3463 16.7242 14.3463 16.7242C14.3463 16.7242 14.1451 16.7815 14.0731 16.8115C14.001 16.8414 13.9272 17.0005 13.9272 17.0005C13.9272 17.0005 14.103 16.9937 14.2406 16.9421ZM14.8535 17.7738C14.8535 17.7738 14.8854 17.94 14.7478 17.9917C14.6103 18.0433 14.4345 18.05 14.4345 18.05C14.4345 18.05 14.5082 17.891 14.5803 17.8611C14.6524 17.8311 14.8535 17.7738 14.8535 17.7738Z" fill="#006B49"/>
<path fill-rule="evenodd" clip-rule="evenodd" d="M23.806 3.01709C23.806 3.01709 24.1522 3.46195 23.806 3.46195C23.4599 3.46195 22.5796 3.94329 22.5796 3.94329C22.5796 3.94329 22.1609 4.5682 21.6538 4.70958C21.1466 4.85097 20.9756 5.376 20.2333 5.59483C19.4909 5.81365 19.4151 5.8734 19.4151 6.09487C19.4151 6.31634 19.5416 6.69141 19.0347 6.69141C18.5278 6.69141 18.1695 5.98167 17.8952 6.69141C17.6209 7.40116 17.343 7.60922 17.723 8.0434C18.103 8.47759 18.6064 8.89334 18.8205 9.14409C19.0347 9.39484 20.4633 10.1287 19.4151 10.1287C18.3669 10.1287 18.8939 9.46444 18.087 9.70707C17.28 9.9497 17.7433 10.3076 17.1266 10.1287C16.5099 9.9497 16.0988 9.78643 15.9074 9.86807C15.7161 9.9497 15.4087 9.41445 15.4087 10.1287C15.4087 10.8429 15.9842 10.5534 14.7502 11.3423C13.5162 12.1312 13.7613 11.9132 13.1949 11.9132C12.6285 11.9132 12.4295 12.2703 12.0519 12.2703C11.6742 12.2703 11.7203 12.2703 11.295 12.2703C10.8696 12.2703 11.3253 11.8185 10.6 12.2703C9.87468 12.7221 9.61483 12.812 9.61483 12.9856C9.61483 13.1592 9.61483 13.6195 9.61483 13.6195C9.61483 13.6195 8.95026 13.9997 8.95026 13.6195C8.95026 13.2393 8.74543 13.142 8.46989 12.9856C8.19434 12.8293 7.64375 12.9418 7.05573 12.9856C6.46772 13.0294 5.80295 12.3925 5.2925 12.3925C4.78205 12.3925 4.68708 11.9132 4.54744 11.9132C4.40781 11.9132 4.69312 11.5036 4.09876 11.136C3.50441 10.7684 3.29637 10.7227 3.29637 10.1287C3.29637 9.53468 3.02344 9.37222 3.02344 9.01128C3.02344 8.65035 3.31428 9.14409 3.93086 9.14409C4.54744 9.14409 4.58789 8.76213 5.2925 8.40276C5.99711 8.0434 6.23624 7.84674 6.82375 8.0434C7.41126 8.24006 7.98951 8.97288 8.46989 8.26952C8.95026 7.56616 8.95026 6.76183 8.95026 6.35574C8.95026 5.94965 8.66616 5.83399 9.43304 6.09487C10.1999 6.35574 10.6461 6.35574 11.9205 6.35574C13.1949 6.35574 14.7187 6.7725 15.1883 6.35574C15.6579 5.93898 16.1599 5.59483 17.3783 5.59483C18.5967 5.59483 18.9948 4.996 19.8141 4.70958C20.6334 4.42317 19.4252 5.02865 21.2629 4.2453C23.1007 3.46195 23.806 3.01709 23.806 3.01709Z" fill="#F57A01"/>
</g>
</g>
</g>
<g style="mix-blend-mode:hard-light" opacity="0.12">
<rect width="24" height="24" rx="12" fill="white"/>
</g>
<rect width="24" height="24" fill="url(#paint0_linear_6144_24289)" fill-opacity="0.64" style="mix-blend-mode:overlay"/>
</g>
<defs>
<linearGradient id="paint0_linear_6144_24289" x1="24" y1="1.19273e-06" x2="-4.48665" y2="16.0237" gradientUnits="userSpaceOnUse">
<stop stop-color="white" stop-opacity="0.3"/>
<stop offset="0.262741" stop-opacity="0.27"/>
<stop offset="0.369956" stop-color="white" stop-opacity="0.26"/>
<stop offset="0.487001" stop-opacity="0.55"/>
<stop offset="0.594445" stop-opacity="0.24"/>
<stop offset="0.736408" stop-color="white" stop-opacity="0.3"/>
<stop offset="0.901459" stop-color="#272727" stop-opacity="0.22"/>
<stop offset="1" stop-opacity="0.2"/>
</linearGradient>
<clipPath id="clip0_6144_24289">
<rect width="24" height="24" rx="12" fill="white"/>
</clipPath>
<clipPath id="clip1_6144_24289">
<rect width="24" height="24" fill="white"/>
</clipPath>
</defs>
</svg>
