<svg width="24" height="24" viewBox="0 0 24 24" fill="none" xmlns="http://www.w3.org/2000/svg">
<g clip-path="url(#clip0_6144_24295)">
<g clip-path="url(#clip1_6144_24295)">
<mask id="mask0_6144_24295" style="mask-type:luminance" maskUnits="userSpaceOnUse" x="-4" y="0" width="32" height="24">
<rect x="-4" width="32" height="24" fill="white"/>
</mask>
<g mask="url(#mask0_6144_24295)">
<path fill-rule="evenodd" clip-rule="evenodd" d="M-4 0V24H28V0H-4Z" fill="#C51918"/>
<mask id="mask1_6144_24295" style="mask-type:luminance" maskUnits="userSpaceOnUse" x="-4" y="0" width="32" height="24">
<path fill-rule="evenodd" clip-rule="evenodd" d="M-4 0V24H28V0H-4Z" fill="white"/>
</mask>
<g mask="url(#mask1_6144_24295)">
<rect x="-4" width="14" height="10" fill="#4257BF"/>
<rect x="14" y="14" width="14" height="10" fill="#4257BF"/>
<path fill-rule="evenodd" clip-rule="evenodd" d="M9 0H15V9H28V15H15V24H9V15H-4V9H9V0Z" fill="#F7FCFF"/>
<path fill-rule="evenodd" clip-rule="evenodd" d="M9.86529 10.5247C9.82754 10.3496 9.78495 10.1333 9.78495 10.1333C9.69023 10.3638 9.66041 10.5735 9.69844 10.761C9.65816 10.8201 9.6217 10.8754 9.58905 10.9271C9.48719 10.7836 9.3601 10.5151 9.3601 10.5151C9.36451 10.5933 9.36251 10.673 9.36056 10.7504C9.35598 10.9324 9.35172 11.1016 9.4318 11.2075L9.43084 11.2096C9.41486 11.2447 9.39972 11.2797 9.38541 11.3147C9.27503 11.1973 9.09185 10.9856 9.09185 10.9856C9.10618 11.2395 9.17204 11.4395 9.29172 11.5822C9.27006 11.6566 9.25218 11.7306 9.23803 11.8042C9.14547 11.7021 9.0562 11.6012 9.0562 11.6012C9.06928 11.8328 9.10562 11.9858 9.19999 12.1144C9.19808 12.151 9.19711 12.1874 9.19706 12.2237C9.09927 12.1161 8.99983 12.0037 8.99983 12.0037C9.01363 12.2482 9.103 12.409 9.2207 12.5429C9.23237 12.6203 9.24833 12.6969 9.26847 12.7726L9.27977 12.8145C9.14381 12.7433 8.99438 12.6622 8.99438 12.6622C9.08503 12.8734 9.21305 12.9926 9.35776 13.0772C9.3893 13.1752 9.42262 13.2699 9.45758 13.361C9.29762 13.312 9.05755 13.2316 9.05755 13.2316C9.20188 13.4519 9.37358 13.5447 9.55698 13.6005C9.59466 13.6845 9.63382 13.7647 9.67431 13.8408C9.52213 13.7928 9.34196 13.7325 9.34196 13.7325C9.4821 13.9464 9.64805 14.0401 9.82546 14.0965C9.94279 14.2744 10.0685 14.4203 10.1997 14.5291C10.0488 14.592 9.85553 14.6681 9.85553 14.6681C10.0697 14.7326 10.2399 14.714 10.3944 14.6609L10.405 14.6664C10.4683 14.6987 10.5392 14.7293 10.6191 14.7591C10.4947 14.8097 10.3752 14.8568 10.3752 14.8568C10.5854 14.9201 10.7532 14.9034 10.9053 14.8526L10.9127 14.8547C10.9841 14.8755 11.0568 14.8954 11.1527 14.9207C11.0893 14.9039 11.3232 14.9655 11.3707 14.9784C11.5228 15.0196 11.6094 15.0486 11.651 15.0736C11.6549 15.0759 11.6577 15.0779 11.6595 15.0791C11.6613 15.0803 11.6621 15.0808 11.6617 15.0803L11.778 14.9901C11.7645 14.9703 11.7458 14.9545 11.7216 14.94C11.6645 14.9057 11.572 14.8747 11.4062 14.8297C11.359 14.8169 11.1325 14.7573 11.1838 14.7709C11.0907 14.7462 11.0198 14.7269 10.9505 14.7067L10.8967 14.6908C10.9093 14.5306 10.8851 14.3634 10.7726 14.1745C10.7726 14.1745 10.734 14.4679 10.7073 14.6291C10.6151 14.5963 10.5357 14.5631 10.4671 14.528C10.4472 14.5178 10.4273 14.5067 10.4075 14.4945C10.3937 14.3305 10.3418 14.1662 10.1946 13.9954C10.1946 13.9954 10.2026 14.1776 10.2068 14.3349C10.109 14.2393 10.014 14.1196 9.92381 13.9787L10.0089 14.0258C10.0094 13.8248 9.97209 13.6254 9.79181 13.4163C9.79181 13.4163 9.80043 13.6134 9.80453 13.7747C9.75148 13.6757 9.70057 13.569 9.65225 13.4552C9.69705 13.2944 9.70589 13.1203 9.62476 12.9064C9.62476 12.9064 9.58399 13.0357 9.54083 13.1671C9.52817 13.1311 9.51576 13.0946 9.5036 13.0575C9.59742 12.8895 9.65713 12.703 9.60772 12.4432C9.60772 12.4432 9.50289 12.6446 9.42298 12.7903C9.41752 12.7705 9.41213 12.7507 9.40681 12.7307C9.38954 12.6658 9.3756 12.6002 9.36505 12.5339C9.49961 12.4118 9.60864 12.2601 9.64867 12.0138C9.64867 12.0138 9.46787 12.1794 9.34185 12.2894C9.34008 12.2337 9.34067 12.1775 9.34366 12.1209C9.48886 12.0254 9.61453 11.8962 9.6931 11.671C9.6931 11.671 9.51266 11.7859 9.37217 11.8715C9.38175 11.8168 9.39355 11.7617 9.40762 11.7063C9.5805 11.6064 9.73301 11.4744 9.82332 11.2156C9.82332 11.2156 9.64155 11.3314 9.50084 11.417C9.51902 11.3704 9.5388 11.3236 9.5602 11.2766C9.58542 11.2212 9.62131 11.155 9.66783 11.0781C9.82235 11.0223 9.96731 10.9297 10.0939 10.7436C10.0939 10.7436 9.96534 10.7841 9.83336 10.824C9.9074 10.7164 9.99432 10.596 10.0941 10.4628L9.98169 10.367C9.9408 10.4216 9.902 10.4742 9.86529 10.5247Z" fill="#5AB92D"/>
<path fill-rule="evenodd" clip-rule="evenodd" d="M13.9128 10.5247C13.9505 10.3496 13.9931 10.1333 13.9931 10.1333C14.0878 10.3638 14.1177 10.5735 14.0796 10.761C14.1199 10.8201 14.1564 10.8754 14.189 10.9271C14.2909 10.7836 14.418 10.5151 14.418 10.5151C14.4136 10.5933 14.4156 10.673 14.4175 10.7504C14.4221 10.9324 14.4264 11.1016 14.3463 11.2075L14.3472 11.2096C14.3632 11.2447 14.3784 11.2797 14.3927 11.3147C14.503 11.1973 14.6862 10.9856 14.6862 10.9856C14.6719 11.2395 14.606 11.4395 14.4864 11.5822C14.508 11.6566 14.5259 11.7306 14.5401 11.8042C14.6326 11.7021 14.7219 11.6012 14.7219 11.6012C14.7088 11.8328 14.6725 11.9858 14.5781 12.1144C14.58 12.151 14.581 12.1874 14.581 12.2237C14.6788 12.1161 14.7782 12.0037 14.7782 12.0037C14.7644 12.2482 14.6751 12.409 14.5574 12.5429C14.5457 12.6203 14.5297 12.6969 14.5096 12.7726L14.4983 12.8145C14.6343 12.7433 14.7837 12.6622 14.7837 12.6622C14.693 12.8734 14.565 12.9926 14.4203 13.0772C14.3888 13.1752 14.3555 13.2699 14.3205 13.361C14.4805 13.312 14.7205 13.2316 14.7205 13.2316C14.5762 13.4519 14.4045 13.5447 14.2211 13.6005C14.1834 13.6845 14.1443 13.7647 14.1038 13.8408C14.2559 13.7928 14.4361 13.7325 14.4361 13.7325C14.296 13.9464 14.13 14.0401 13.9526 14.0965C13.8353 14.2744 13.7096 14.4203 13.5784 14.5291C13.7293 14.592 13.9225 14.6681 13.9225 14.6681C13.7083 14.7326 13.5382 14.714 13.3837 14.6609L13.3731 14.6664C13.3097 14.6987 13.2389 14.7293 13.159 14.7591C13.2834 14.8097 13.4028 14.8568 13.4028 14.8568C13.1927 14.9201 13.0249 14.9034 12.8728 14.8526L12.8654 14.8547C12.794 14.8755 12.7212 14.8954 12.6254 14.9207C12.6888 14.9039 12.4549 14.9655 12.4074 14.9784C12.2553 15.0196 12.1687 15.0486 12.1271 15.0736C12.1232 15.0759 12.1204 15.0779 12.1186 15.0791C12.1167 15.0803 12.116 15.0808 12.1164 15.0803L12.0001 14.9901C12.0135 14.9703 12.0323 14.9545 12.0565 14.94C12.1136 14.9057 12.2061 14.8747 12.3719 14.8297C12.419 14.8169 12.6456 14.7573 12.5943 14.7709C12.6874 14.7462 12.7583 14.7269 12.8276 14.7067L12.8814 14.6908C12.8687 14.5306 12.893 14.3634 13.0055 14.1745C13.0055 14.1745 13.0441 14.4679 13.0708 14.6291C13.163 14.5963 13.2424 14.5631 13.311 14.528C13.3309 14.5178 13.3507 14.5067 13.3705 14.4945C13.3843 14.3305 13.4362 14.1662 13.5835 13.9954C13.5835 13.9954 13.5755 14.1776 13.5712 14.3349C13.6691 14.2393 13.7641 14.1196 13.8543 13.9787L13.7691 14.0258C13.7686 13.8248 13.806 13.6254 13.9863 13.4163C13.9863 13.4163 13.9777 13.6134 13.9735 13.7747C14.0266 13.6757 14.0775 13.569 14.1258 13.4552C14.081 13.2944 14.0722 13.1203 14.1533 12.9064C14.1533 12.9064 14.1941 13.0357 14.2373 13.1671C14.2499 13.1311 14.2623 13.0946 14.2745 13.0575C14.1807 12.8895 14.1209 12.703 14.1704 12.4432C14.1704 12.4432 14.2752 12.6446 14.3551 12.7903C14.3606 12.7705 14.3659 12.7507 14.3713 12.7307C14.3885 12.6658 14.4025 12.6002 14.413 12.5339C14.2785 12.4118 14.1694 12.2601 14.1294 12.0138C14.1294 12.0138 14.3102 12.1794 14.4362 12.2894C14.438 12.2337 14.4374 12.1775 14.4344 12.1209C14.2892 12.0254 14.1635 11.8962 14.085 11.671C14.085 11.671 14.2654 11.7859 14.4059 11.8715C14.3963 11.8168 14.3845 11.7617 14.3705 11.7063C14.1976 11.6064 14.0451 11.4744 13.9548 11.2156C13.9548 11.2156 14.1365 11.3314 14.2772 11.417C14.2591 11.3704 14.2393 11.3236 14.2179 11.2766C14.1927 11.2212 14.1568 11.155 14.1103 11.0781C13.9557 11.0223 13.8108 10.9297 13.6842 10.7436C13.6842 10.7436 13.8127 10.7841 13.9447 10.824C13.8707 10.7164 13.7838 10.596 13.684 10.4628L13.7964 10.367C13.8373 10.4216 13.8761 10.4742 13.9128 10.5247Z" fill="#5AB92D"/>
<path d="M9.25147 9.31567C9.65114 9.03466 10.3838 8.79205 10.7608 8.79205C10.7627 8.79205 10.7667 8.79115 10.7773 8.78676C10.8086 8.77381 11.0151 8.64592 11.028 8.63852C11.2945 8.48601 11.5732 8.40576 11.9529 8.40576V9.07243C11.6803 9.07243 11.5022 9.12372 11.3235 9.22596C11.3546 9.20816 11.0882 9.37322 11.0033 9.40832C10.9243 9.44102 10.8449 9.45872 10.7608 9.45872C10.5083 9.45872 9.8947 9.66188 9.59544 9.87229C9.48789 9.94791 9.49781 9.92483 9.50112 9.96991C9.51317 10.1338 9.5008 10.2341 9.39996 10.362C9.38683 10.3787 9.36599 10.4704 9.36421 10.6312L8.73926 10.6233C8.74216 10.3608 8.78199 10.1537 8.87654 9.99802C8.86279 9.72885 8.9574 9.52243 9.25147 9.31567Z" fill="#003994"/>
<path d="M14.4985 9.31567C14.0989 9.03466 13.3662 8.79205 12.9892 8.79205C12.9873 8.79205 12.9833 8.79115 12.9727 8.78676C12.9414 8.77381 12.7349 8.64592 12.722 8.63852C12.4555 8.48601 12.1768 8.40576 11.7971 8.40576V9.07243C12.0697 9.07243 12.2478 9.12372 12.4265 9.22596C12.3954 9.20816 12.6618 9.37322 12.7467 9.40832C12.8257 9.44102 12.9051 9.45872 12.9892 9.45872C13.2417 9.45872 13.8553 9.66188 14.1546 9.87229C14.2621 9.94791 14.2522 9.92483 14.2489 9.96991C14.2368 10.1338 14.2492 10.2341 14.35 10.362C14.3632 10.3787 14.384 10.4704 14.3858 10.6312L15.0107 10.6233C15.0078 10.3608 14.968 10.1537 14.8735 9.99802C14.8872 9.72885 14.7926 9.52243 14.4985 9.31567Z" fill="#003994"/>
<path d="M9.82205 10.0193L10.1482 10.3739V11.8467H10.4774V11.9404L10.9593 12.1721C10.9593 12.1721 11.0321 11.1978 10.8055 10.9411C10.5789 10.6844 10.9593 10.6212 10.9593 10.6212L11.5378 11.2004V10.0193H9.82205Z" fill="#003994"/>
<path d="M13.738 10.0193L13.4118 10.3739V11.8467H13.0826V11.9404L12.6007 12.1721C12.6007 12.1721 12.5279 11.1978 12.7545 10.9411C12.9812 10.6844 12.6007 10.6212 12.6007 10.6212L12.0222 11.2004V10.0193H13.738Z" fill="#D62818"/>
<path d="M10.1765 12.4219H10.5987L10.8868 12.5098C10.8868 12.5098 10.9794 13.1709 11.4422 13.1709L11.5181 14.0171L11.1594 13.8234C11.1594 13.8234 10.9262 13.9264 10.8868 13.9264C10.8473 13.9264 10.5149 14.1128 10.5149 13.9264C10.5149 13.7399 10.1765 13.4382 10.1765 13.4382V12.4219Z" fill="#D62818"/>
<path d="M13.5181 12.4219H13.0959L12.8078 12.5098C12.8078 12.5098 12.7152 13.1709 12.2524 13.1709L12.1765 14.0171L12.5352 13.8234C12.5352 13.8234 12.7684 13.9264 12.8078 13.9264C12.8473 13.9264 13.1797 14.1128 13.1797 13.9264C13.1797 13.7399 13.5181 13.4382 13.5181 13.4382V12.4219Z" fill="#003994"/>
<path d="M12.6137 12.5017L13.1137 12.5019C13.1136 12.8759 12.9816 13.179 12.7216 13.3841L12.4243 12.9553C12.5518 12.8548 12.6136 12.7126 12.6137 12.5017Z" fill="#D62818"/>
<path d="M11.304 11.4731V12.1744H11.8853C11.8853 12.1744 11.8307 12.7003 11.8307 13.032C11.8307 13.3638 11.8853 13.7943 11.8853 13.7943C11.8853 13.7943 12.0276 13.7232 12.0276 13.2746C12.0276 12.826 12.0276 12.1258 12.0276 12.1258L12.4869 12.1744L12.4383 11.542H12.2446C12.2446 11.542 12.5425 11.9361 12.2446 11.9361C11.9468 11.9361 11.6045 12.0131 11.5396 12.0131C11.4746 12.0131 11.304 11.4731 11.304 11.4731Z" fill="#D62818"/>
<path d="M11.8095 12.3208C11.8095 12.3208 11.4829 12.5131 11.4829 12.8261C11.4829 13.139 11.6462 13.4958 11.6462 13.4958C11.6462 13.4958 11.5687 12.7911 11.6891 12.6036C11.8095 12.4162 11.8095 12.3208 11.8095 12.3208Z" fill="#003994"/>
<path d="M11.2779 12.5525C11.2779 12.5525 11.2594 12.7789 11.3936 12.7789C11.5278 12.7789 11.2779 12.5525 11.2779 12.5525Z" fill="#003994"/>
<path fill-rule="evenodd" clip-rule="evenodd" d="M10.0359 15.4086L9.9609 15.4723C9.93581 15.4387 9.91433 15.4049 9.89644 15.3711C9.82119 15.3451 9.7501 15.3105 9.69154 15.2693C9.61034 15.2122 9.52659 15.2122 9.4206 15.2747L9.29967 15.0413C9.48395 14.9327 9.66701 14.9327 9.82915 15.0467C9.83112 15.0481 9.83314 15.0494 9.83518 15.0508C9.85767 14.919 9.94399 14.8018 10.0926 14.7172C10.3475 14.572 11.4627 14.4192 11.8015 14.4192V14.8459C11.5265 14.8459 10.4591 14.9922 10.281 15.0936C10.2758 15.0966 10.2709 15.0993 10.2665 15.1018C10.2429 15.1149 10.2304 15.1219 10.228 15.1315C10.226 15.1395 10.2314 15.1494 10.2437 15.1664C10.2533 15.1655 10.2598 15.1638 10.2624 15.161L10.4398 15.3489C10.3662 15.4278 10.2032 15.4411 10.0359 15.4086ZM8.84131 15.4161C8.84131 15.4161 9.21094 15.7409 9.47778 15.6622C9.74462 15.5834 9.82731 15.4948 9.82731 15.4948C9.82731 15.4948 9.5609 15.4593 9.27809 15.4161C8.99528 15.373 8.84131 15.4161 8.84131 15.4161Z" fill="#D62818"/>
<path fill-rule="evenodd" clip-rule="evenodd" d="M10.0651 15.1795L10.11 15.1155C9.97805 15.0099 10.0124 14.9509 10.2652 14.8941C10.2873 14.8892 10.3096 14.8843 10.3321 14.8795L10.3321 14.8795C10.5651 14.8299 10.8195 14.7877 11.0733 14.7571C11.3526 14.7235 11.632 14.7038 11.8806 14.7038C11.632 14.7038 11.3531 14.7234 11.0733 14.7571C10.8181 14.7878 10.5631 14.8301 10.3321 14.8795L10.3175 14.801C10.5528 14.7509 10.8096 14.7083 11.0659 14.6775C11.3475 14.6436 11.6294 14.6238 11.8806 14.6238C11.6293 14.6238 11.348 14.6435 11.0659 14.6775C10.783 14.7115 10.5004 14.7596 10.2498 14.8158C9.94487 14.8842 9.86588 15.0202 10.0651 15.1795Z" fill="#EBCA5E"/>
<path fill-rule="evenodd" clip-rule="evenodd" d="M13.4641 15.4086L13.5391 15.4723C13.5642 15.4387 13.5857 15.4049 13.6036 15.3711C13.6788 15.3451 13.7499 15.3105 13.8085 15.2693C13.8897 15.2122 13.9734 15.2122 14.0794 15.2747L14.2003 15.0413C14.016 14.9327 13.833 14.9327 13.6709 15.0467C13.6689 15.0481 13.6669 15.0494 13.6648 15.0508C13.6423 14.919 13.556 14.8018 13.4074 14.7172C13.1525 14.572 12.0373 14.4192 11.6985 14.4192V14.8459C11.9735 14.8459 13.0409 14.9922 13.219 15.0936C13.2242 15.0966 13.2291 15.0993 13.2335 15.1018C13.2571 15.1149 13.2696 15.1219 13.272 15.1315C13.274 15.1395 13.2686 15.1494 13.2563 15.1664C13.2467 15.1655 13.2402 15.1638 13.2376 15.161L13.0602 15.3489C13.1338 15.4278 13.2968 15.4411 13.4641 15.4086ZM14.6587 15.4161C14.6587 15.4161 14.2891 15.7409 14.0222 15.6622C13.7554 15.5834 13.6727 15.4948 13.6727 15.4948C13.6727 15.4948 13.9391 15.4593 14.2219 15.4161C14.5047 15.373 14.6587 15.4161 14.6587 15.4161Z" fill="#D62818"/>
<path fill-rule="evenodd" clip-rule="evenodd" d="M13.4349 15.1795L13.39 15.1155C13.522 15.0099 13.4876 14.9509 13.2348 14.8941C13.2127 14.8892 13.1904 14.8843 13.1679 14.8795L13.1679 14.8795C12.9349 14.8299 12.6805 14.7877 12.4267 14.7571C12.1474 14.7235 11.868 14.7038 11.6194 14.7038C11.868 14.7038 12.1469 14.7234 12.4267 14.7571C12.6819 14.7878 12.9369 14.8301 13.1679 14.8795L13.1825 14.801C12.9472 14.7509 12.6904 14.7083 12.4341 14.6775C12.1525 14.6436 11.8706 14.6238 11.6194 14.6238C11.8707 14.6238 12.152 14.6435 12.4341 14.6775C12.717 14.7115 12.9996 14.7596 13.2502 14.8158C13.5551 14.8842 13.6341 15.0202 13.4349 15.1795Z" fill="#EBCA5E"/>
<path d="M11.3655 15.5103L11.1711 15.1683C11.3481 15.0539 11.5754 14.9993 11.8513 14.9993C12.1285 14.9993 12.3531 15.0543 12.5239 15.1708L12.3218 15.5078C12.2189 15.4376 12.0626 15.3993 11.8513 15.3993C11.6388 15.3993 11.4774 15.438 11.3655 15.5103Z" fill="#D62818"/>
</g>
</g>
</g>
<g style="mix-blend-mode:hard-light" opacity="0.12">
<rect width="24" height="24" rx="12" fill="white"/>
</g>
<rect width="24" height="24" fill="url(#paint0_linear_6144_24295)" fill-opacity="0.64" style="mix-blend-mode:overlay"/>
</g>
<defs>
<linearGradient id="paint0_linear_6144_24295" x1="24" y1="1.19273e-06" x2="-4.48665" y2="16.0237" gradientUnits="userSpaceOnUse">
<stop stop-color="white" stop-opacity="0.3"/>
<stop offset="0.262741" stop-opacity="0.27"/>
<stop offset="0.369956" stop-color="white" stop-opacity="0.26"/>
<stop offset="0.487001" stop-opacity="0.55"/>
<stop offset="0.594445" stop-opacity="0.24"/>
<stop offset="0.736408" stop-color="white" stop-opacity="0.3"/>
<stop offset="0.901459" stop-color="#272727" stop-opacity="0.22"/>
<stop offset="1" stop-opacity="0.2"/>
</linearGradient>
<clipPath id="clip0_6144_24295">
<rect width="24" height="24" rx="12" fill="white"/>
</clipPath>
<clipPath id="clip1_6144_24295">
<rect width="24" height="24" fill="white"/>
</clipPath>
</defs>
</svg>
