<svg width="24" height="24" viewBox="0 0 24 24" fill="none" xmlns="http://www.w3.org/2000/svg">
<g id="Icons/arrow / east">
<path id="vector" d="M20.0266 12.0001C20.0266 12.1003 20.0123 12.1968 19.9837 12.2896C19.955 12.3829 19.8978 12.4654 19.8118 12.537L15.0655 17.2833C14.951 17.4121 14.8041 17.4766 14.6248 17.4766C14.4462 17.4766 14.2924 17.4121 14.1635 17.2833C14.049 17.1544 13.9917 17.0004 13.9917 16.8211C13.9917 16.6424 14.049 16.4886 14.1635 16.3598L17.9004 12.6443L4.67091 12.6443C4.48478 12.6443 4.33072 12.5834 4.20873 12.4614C4.08732 12.34 4.02661 12.1862 4.02661 12.0001C4.02661 11.8139 4.08732 11.6599 4.20873 11.5379C4.33072 11.4165 4.48478 11.3558 4.67091 11.3558L17.9004 11.3558L14.1635 7.61884C14.049 7.5043 13.988 7.3574 13.9805 7.17814C13.9737 6.99946 14.0347 6.84569 14.1635 6.71683C14.2924 6.58797 14.4462 6.52354 14.6248 6.52354C14.8041 6.52354 14.951 6.58797 15.0655 6.71683L19.8118 11.4631C19.8978 11.5347 19.955 11.6169 19.9837 11.7097C20.0123 11.803 20.0266 11.8998 20.0266 12.0001Z" fill="white"/>
</g>
</svg>
