<svg width="46" height="35" viewBox="0 0 46 35" fill="none" xmlns="http://www.w3.org/2000/svg">
<g clip-path="url(#clip0_219_3247)">
<g clip-path="url(#clip1_219_3247)">
<mask id="mask0_219_3247" style="mask-type:luminance" maskUnits="userSpaceOnUse" x="0" y="0" width="46" height="35">
<rect width="46" height="34.5" fill="white"/>
</mask>
<g mask="url(#mask0_219_3247)">
<path fill-rule="evenodd" clip-rule="evenodd" d="M0 0V34.5H46V0H0Z" fill="#2E42A5"/>
<mask id="mask1_219_3247" style="mask-type:luminance" maskUnits="userSpaceOnUse" x="0" y="0" width="46" height="35">
<path fill-rule="evenodd" clip-rule="evenodd" d="M0 0V34.5H46V0H0Z" fill="white"/>
</mask>
<g mask="url(#mask1_219_3247)">
<mask id="mask2_219_3247" style="mask-type:luminance" maskUnits="userSpaceOnUse" x="0" y="0" width="46" height="35">
<rect width="46" height="34.5" fill="white"/>
</mask>
<g mask="url(#mask2_219_3247)">
<path d="M-2.69074 0.893631L1.70991 -4.61968L48.875 33.6071L44.4744 39.1204L-2.69074 0.893631Z" fill="white"/>
<path fill-rule="evenodd" clip-rule="evenodd" d="M-2.48755 -0.552468L-0.97173 -2.41809L22.0591 17.1031L25.6507 15.9059L49.7018 35.6391L48.2219 37.5334L25.1872 18.5942L21.5674 19.8008L-2.48755 -0.552468Z" fill="#E31D1C"/>
<rect width="7.05424" height="67.9961" transform="matrix(-0.62383 -0.78156 -0.78156 0.62383 51.8638 -1.20215)" fill="white"/>
<path fill-rule="evenodd" clip-rule="evenodd" d="M47.2341 0.885032L45.7183 -0.980591L24.125 17.1031L20.5334 15.9059L-2.08023 34.2016L-0.60034 36.0959L20.9969 18.5942L24.6167 19.8008L47.2341 0.885032Z" fill="#E31D1C"/>
<path fill-rule="evenodd" clip-rule="evenodd" d="M28.0456 -1.4375H17.9603V11.9107H-23.9871V22.5893H17.9603V35.9375H28.0456V22.5893H70.0665V11.9107H28.0456V-1.4375Z" fill="#F50100"/>
<path fill-rule="evenodd" clip-rule="evenodd" d="M17.9603 11.9107H-35.4871V22.5893H17.9603V58.9375H28.0456V22.5893H81.5665V11.9107H28.0456V-35.9375H17.9603V11.9107ZM19.9625 -33.9353V13.9129H-33.4848V20.5871H19.9625V56.9353H26.0434V20.5871H79.5643V13.9129H26.0434V-33.9353H19.9625Z" fill="white"/>
</g>
</g>
</g>
</g>
<g style="mix-blend-mode:hard-light" opacity="0.12">
<rect width="46" height="34.5" fill="white"/>
</g>
<rect width="46" height="34.5" fill="url(#paint0_linear_219_3247)" fill-opacity="0.64" style="mix-blend-mode:overlay"/>
</g>
<defs>
<linearGradient id="paint0_linear_219_3247" x1="46" y1="1.71455e-06" x2="2.31409e-06" y2="34.5" gradientUnits="userSpaceOnUse">
<stop stop-color="white" stop-opacity="0.3"/>
<stop offset="0.262741" stop-opacity="0.27"/>
<stop offset="0.369956" stop-color="white" stop-opacity="0.26"/>
<stop offset="0.487001" stop-opacity="0.55"/>
<stop offset="0.594445" stop-opacity="0.24"/>
<stop offset="0.736408" stop-color="white" stop-opacity="0.3"/>
<stop offset="0.901459" stop-color="#272727" stop-opacity="0.22"/>
<stop offset="1" stop-opacity="0.2"/>
</linearGradient>
<clipPath id="clip0_219_3247">
<rect width="46" height="34.5" fill="white"/>
</clipPath>
<clipPath id="clip1_219_3247">
<rect width="46" height="34.5" fill="white"/>
</clipPath>
</defs>
</svg>
