<svg width="24" height="24" viewBox="0 0 24 24" fill="none" xmlns="http://www.w3.org/2000/svg">
<g clip-path="url(#clip0_232_24138)">
<g clip-path="url(#clip1_232_24138)">
<mask id="mask0_232_24138" style="mask-type:luminance" maskUnits="userSpaceOnUse" x="-4" y="0" width="32" height="24">
<rect x="-4" width="32" height="24" fill="white"/>
</mask>
<g mask="url(#mask0_232_24138)">
<path fill-rule="evenodd" clip-rule="evenodd" d="M-4 0V24H28V0H-4Z" fill="#FFC034"/>
<mask id="mask1_232_24138" style="mask-type:luminance" maskUnits="userSpaceOnUse" x="-4" y="0" width="32" height="24">
<path fill-rule="evenodd" clip-rule="evenodd" d="M-4 0V24H28V0H-4Z" fill="white"/>
</mask>
<g mask="url(#mask1_232_24138)">
<path fill-rule="evenodd" clip-rule="evenodd" d="M-4 0V6H28V0H-4Z" fill="#E33534"/>
<path fill-rule="evenodd" clip-rule="evenodd" d="M-4 18V24H28V18H-4Z" fill="#E33534"/>
<rect x="3.7147" y="11.4496" width="0.804396" height="4.18286" fill="white"/>
<path fill-rule="evenodd" clip-rule="evenodd" d="M4.84086 10.7256H3.39295V11.1278H3.63431V11.4496H4.59959V11.1278H4.84086V10.7256Z" fill="#C88A02"/>
<path fill-rule="evenodd" clip-rule="evenodd" d="M4.59954 15.8738H4.84086V16.276H3.39295V15.8738H3.63427V15.552H4.59954V15.8738Z" fill="#C88A02"/>
<path fill-rule="evenodd" clip-rule="evenodd" d="M4.1169 10.8061C4.29195 10.8061 4.30975 10.7402 4.41302 10.6417C4.49321 10.5653 4.67998 10.4705 4.67998 10.3637C4.67998 10.1193 4.42788 9.92126 4.1169 9.92126C3.80592 9.92126 3.55383 10.1193 3.55383 10.3637C3.55383 10.4827 3.68244 10.5622 3.77969 10.6417C3.88215 10.7255 3.95736 10.8061 4.1169 10.8061Z" fill="#E33534"/>
<path fill-rule="evenodd" clip-rule="evenodd" d="M3.39295 16.276H4.84086V16.9195C4.84086 16.9195 4.65987 16.8391 4.47888 16.8391C4.29789 16.8391 4.1169 16.9195 4.1169 16.9195C4.1169 16.9195 3.93591 16.8391 3.75492 16.8391C3.57394 16.8391 3.39295 16.9195 3.39295 16.9195V16.276Z" fill="#C88A02"/>
<mask id="mask2_232_24138" style="mask-type:luminance" maskUnits="userSpaceOnUse" x="3" y="16" width="2" height="1">
<path fill-rule="evenodd" clip-rule="evenodd" d="M3.39295 16.276H4.84086V16.9195C4.84086 16.9195 4.65987 16.8391 4.47888 16.8391C4.29789 16.8391 4.1169 16.9195 4.1169 16.9195C4.1169 16.9195 3.93591 16.8391 3.75492 16.8391C3.57394 16.8391 3.39295 16.9195 3.39295 16.9195V16.276Z" fill="white"/>
</mask>
<g mask="url(#mask2_232_24138)">
<path d="M3.37984 16.7931L3.34824 16.716C3.47865 16.658 3.60952 16.6288 3.7406 16.6288C3.82528 16.6288 3.8695 16.6407 3.94468 16.6741C4.01071 16.7035 4.04494 16.7126 4.11716 16.7126C4.18937 16.7126 4.2236 16.7035 4.28964 16.6741C4.36481 16.6407 4.40903 16.6288 4.49372 16.6288C4.62479 16.6288 4.75567 16.658 4.88608 16.716L4.85448 16.7931C4.73385 16.7394 4.61368 16.7126 4.49372 16.7126C4.4215 16.7126 4.38727 16.7218 4.32124 16.7512C4.24606 16.7846 4.20184 16.7964 4.11716 16.7964C4.03247 16.7964 3.98825 16.7846 3.91308 16.7512C3.84704 16.7218 3.81281 16.7126 3.7406 16.7126C3.62063 16.7126 3.50047 16.7394 3.37984 16.7931Z" fill="white"/>
<path d="M3.37984 16.5517L3.34824 16.4747C3.47865 16.4166 3.60952 16.3875 3.7406 16.3875C3.82528 16.3875 3.8695 16.3993 3.94468 16.4328C4.01071 16.4622 4.04494 16.4713 4.11716 16.4713C4.18937 16.4713 4.2236 16.4622 4.28964 16.4328C4.36481 16.3993 4.40903 16.3875 4.49372 16.3875C4.62479 16.3875 4.75567 16.4166 4.88608 16.4747L4.85448 16.5517C4.73385 16.498 4.61368 16.4713 4.49372 16.4713C4.4215 16.4713 4.38727 16.4804 4.32124 16.5098C4.24606 16.5433 4.20184 16.5551 4.11716 16.5551C4.03247 16.5551 3.98825 16.5433 3.91308 16.5098C3.84704 16.4804 3.81281 16.4713 3.7406 16.4713C3.62063 16.4713 3.50047 16.498 3.37984 16.5517Z" fill="white"/>
</g>
<rect x="11.5978" y="11.4496" width="0.804396" height="4.18286" fill="white"/>
<path fill-rule="evenodd" clip-rule="evenodd" d="M12.7239 10.7256H11.276V11.1278H11.5174V11.4496H12.4826V11.1278H12.7239V10.7256Z" fill="#C88A02"/>
<path fill-rule="evenodd" clip-rule="evenodd" d="M12.4826 15.8738H12.7239V16.276H11.276V15.8738H11.5173V15.552H12.4826V15.8738Z" fill="#C88A02"/>
<path fill-rule="evenodd" clip-rule="evenodd" d="M12 10.8061C12.175 10.8061 12.1928 10.7402 12.2961 10.6417C12.3763 10.5653 12.563 10.4705 12.563 10.3637C12.563 10.1193 12.3109 9.92126 12 9.92126C11.689 9.92126 11.4369 10.1193 11.4369 10.3637C11.4369 10.4827 11.5655 10.5622 11.6627 10.6417C11.7652 10.7255 11.8404 10.8061 12 10.8061Z" fill="#E33534"/>
<path fill-rule="evenodd" clip-rule="evenodd" d="M11.276 16.276H12.7239V16.9195C12.7239 16.9195 12.5429 16.8391 12.3619 16.8391C12.1809 16.8391 12 16.9195 12 16.9195C12 16.9195 11.819 16.8391 11.638 16.8391C11.457 16.8391 11.276 16.9195 11.276 16.9195V16.276Z" fill="#C88A02"/>
<mask id="mask3_232_24138" style="mask-type:luminance" maskUnits="userSpaceOnUse" x="11" y="16" width="2" height="1">
<path fill-rule="evenodd" clip-rule="evenodd" d="M11.276 16.276H12.7239V16.9195C12.7239 16.9195 12.5429 16.8391 12.3619 16.8391C12.1809 16.8391 12 16.9195 12 16.9195C12 16.9195 11.819 16.8391 11.638 16.8391C11.457 16.8391 11.276 16.9195 11.276 16.9195V16.276Z" fill="white"/>
</mask>
<g mask="url(#mask3_232_24138)">
<path d="M11.2629 16.7931L11.2313 16.716C11.3617 16.658 11.4926 16.6288 11.6236 16.6288C11.7083 16.6288 11.7525 16.6407 11.8277 16.6741C11.8938 16.7035 11.928 16.7126 12.0002 16.7126C12.0724 16.7126 12.1066 16.7035 12.1727 16.6741C12.2479 16.6407 12.2921 16.6288 12.3768 16.6288C12.5078 16.6288 12.6387 16.658 12.7691 16.716L12.7375 16.7931C12.6169 16.7394 12.4967 16.7126 12.3768 16.7126C12.3045 16.7126 12.2703 16.7218 12.2043 16.7512C12.1291 16.7846 12.0849 16.7964 12.0002 16.7964C11.9155 16.7964 11.8713 16.7846 11.7961 16.7512C11.7301 16.7218 11.6959 16.7126 11.6236 16.7126C11.5037 16.7126 11.3835 16.7394 11.2629 16.7931Z" fill="white"/>
<path d="M11.2629 16.5517L11.2313 16.4747C11.3617 16.4166 11.4926 16.3875 11.6236 16.3875C11.7083 16.3875 11.7525 16.3993 11.8277 16.4328C11.8938 16.4622 11.928 16.4713 12.0002 16.4713C12.0724 16.4713 12.1066 16.4622 12.1727 16.4328C12.2479 16.3993 12.2921 16.3875 12.3768 16.3875C12.5078 16.3875 12.6387 16.4166 12.7691 16.4747L12.7375 16.5517C12.6169 16.498 12.4967 16.4713 12.3768 16.4713C12.3045 16.4713 12.2703 16.4804 12.2043 16.5098C12.1291 16.5433 12.0849 16.5551 12.0002 16.5551C11.9155 16.5551 11.8713 16.5433 11.7961 16.5098C11.7301 16.4804 11.6959 16.4713 11.6236 16.4713C11.5037 16.4713 11.3835 16.498 11.2629 16.5517Z" fill="white"/>
</g>
<path fill-rule="evenodd" clip-rule="evenodd" d="M3.7003 15.3337C3.84533 15.1578 3.92642 14.9979 3.92642 14.828C3.92642 14.7209 3.89455 14.6284 3.8387 14.5528L3.84814 14.5485C3.84727 14.5489 4.00723 14.4792 4.06293 14.4525C4.16646 14.4029 4.25767 14.3503 4.3466 14.2856C4.40338 14.2443 4.47945 14.1994 4.59541 14.1371L4.7044 14.0791L4.73381 14.0635C4.79017 14.0334 4.83214 14.0104 4.87113 13.9878C4.99263 13.9173 5.07292 13.859 5.13433 13.7812C5.27978 13.5967 5.24958 13.3467 5.04576 13.2079C4.9459 13.1399 4.81114 13.1009 4.61361 13.0702L4.57273 13.0639L4.3311 13.0264C4.23658 13.0116 4.15223 12.9977 4.07703 12.9846C4.57157 12.9023 5.27774 12.9325 5.58836 13.0929L5.88359 12.5211C5.2506 12.1943 3.80834 12.2277 3.26958 12.5987C2.87443 12.8708 2.92745 13.2822 3.33859 13.4593C3.51039 13.5334 3.73435 13.5825 4.14879 13.6491C4.07934 13.6893 4.02176 13.7262 3.96811 13.7652C3.9137 13.8047 3.85541 13.8383 3.7847 13.8722C3.75088 13.8885 3.65074 13.9324 3.60485 13.9526L3.58177 13.9627C3.24688 14.115 3.08435 14.3257 3.13291 14.7059L3.15921 14.9118L3.20636 14.9263L3.7003 15.3337ZM3.28631 14.8018L3.28529 14.8047L3.28606 14.8026L3.28631 14.8018ZM12.1163 14.828C12.1163 14.9979 12.1974 15.1579 12.3424 15.3337L12.8363 14.9263L12.8835 14.9118L12.9098 14.706C12.9583 14.3257 12.7958 14.1151 12.4609 13.9628L12.4378 13.9526L12.4378 13.9526C12.3919 13.9325 12.2918 13.8885 12.258 13.8723C12.1873 13.8384 12.129 13.8048 12.0746 13.7652C12.0209 13.7262 11.9633 13.6894 11.8939 13.6491C12.3083 13.5825 12.5323 13.5334 12.7041 13.4594C13.1152 13.2822 13.1683 12.8709 12.7731 12.5987C12.2343 12.2277 10.7921 12.1943 10.1591 12.5212L10.4543 13.093C10.7649 12.9326 11.4711 12.9023 11.9656 12.9846C11.8904 12.9978 11.8061 13.0116 11.7116 13.0265L11.4699 13.0639L11.4291 13.0702C11.2315 13.101 11.0968 13.14 10.9969 13.208C10.7931 13.3467 10.7629 13.5968 10.9084 13.7812C10.9698 13.8591 11.0501 13.9173 11.1716 13.9878C11.2105 14.0104 11.2525 14.0335 11.3089 14.0635L11.3382 14.0791L11.4473 14.1371C11.5632 14.1994 11.6393 14.2444 11.6961 14.2856C11.785 14.3503 11.8762 14.4029 11.9798 14.4525C12.0354 14.4792 12.1954 14.549 12.1945 14.5486L12.204 14.5528C12.1481 14.6284 12.1163 14.7209 12.1163 14.828Z" fill="#E33534"/>
<path d="M4.37212 12.9779L4.60955 13.027V13.3809C4.35667 13.5827 3.7147 13.9228 3.7147 13.9228V12.9779H4.37212Z" fill="white"/>
<path d="M11.8352 12.9779L11.5978 13.027V13.3809C11.8507 13.5827 12.4926 13.9228 12.4926 13.9228V12.9779H11.8352Z" fill="white"/>
<path fill-rule="evenodd" clip-rule="evenodd" d="M10.7303 9.24753V9.12975C10.3165 8.83281 9.88322 8.68434 9.43041 8.68434C8.99631 8.49224 8.55691 8.41767 8.11222 8.46063C8.11234 8.45927 8.1124 8.45858 8.1124 8.45858C7.44376 8.39315 6.76992 8.68435 6.76992 8.68435C6.0907 8.68435 5.47008 9.12976 5.47008 9.12976V9.24754L6.28139 10.0624C6.28139 10.0624 6.50976 10.8467 8.1091 10.6623V10.6643C8.1091 10.6643 9.16799 10.6354 9.2424 10.6107C9.27192 10.6008 9.30254 10.5919 9.33382 10.5828C9.54123 10.5222 9.778 10.4531 9.91894 10.0624L10.7303 9.24753ZM8.1091 8.49665C8.08601 8.76784 7.95416 10.4033 8.1091 10.6568V8.49665Z" fill="#E33534"/>
<path fill-rule="evenodd" clip-rule="evenodd" d="M6.08887 9.92524L6.08941 9.92274L5.51865 9.38574L5.57377 9.32716L6.10935 9.83105L6.12305 9.76803C6.21067 9.78708 6.27471 9.79409 6.31204 9.79012V9.68081L6.43077 9.74506C6.48917 9.77667 6.5728 9.78516 6.68294 9.76724C6.76384 9.75408 6.81843 9.66012 6.83628 9.45991L6.87232 9.05573L6.99319 9.44309C7.04789 9.61837 7.13133 9.69565 7.25013 9.69565C7.36615 9.69565 7.41279 9.65311 7.41793 9.5459L7.43253 9.24182L7.57005 9.51342C7.61959 9.61126 7.68791 9.65566 7.78505 9.65566C7.92398 9.65566 8.01679 9.53983 8.01679 9.35809H8.0194H8.17767H8.18028C8.18028 9.53983 8.27309 9.65566 8.41202 9.65566C8.50916 9.65566 8.57748 9.61126 8.62702 9.51342L8.76454 9.24182L8.77914 9.5459C8.78428 9.65311 8.83092 9.69565 8.94694 9.69565C9.06574 9.69565 9.14918 9.61837 9.20388 9.44309L9.32475 9.05573L9.36079 9.45991C9.37864 9.66012 9.43323 9.75408 9.51413 9.76724C9.62427 9.78516 9.70791 9.77667 9.7663 9.74506L9.88503 9.68081V9.79012C9.92236 9.79409 9.9864 9.78708 10.074 9.76803L10.0995 9.88501L10.6924 9.32716L10.7475 9.38574L10.0097 10.0799C9.90204 10.2782 9.84783 10.409 9.84783 10.4634C9.84783 10.5463 9.63209 10.5955 9.21103 10.6461C8.88117 10.6857 8.49189 10.7122 8.17345 10.7162V10.7167L8.13308 10.7166L8.09271 10.7167V10.7162C7.77427 10.7122 7.38498 10.6857 7.05512 10.6461C6.63406 10.5955 6.41832 10.5463 6.41832 10.4634C6.41832 10.4531 6.41639 10.4401 6.41253 10.4244C6.37003 10.3703 6.34016 10.2818 6.32029 10.202C6.30166 10.1647 6.28038 10.1239 6.25647 10.0799L6.09303 9.92614L6.08887 9.92524ZM10.0429 9.93819C9.91118 9.96151 9.81605 9.95915 9.76558 9.91806C9.68663 9.94103 9.59402 9.94324 9.48829 9.92603C9.37536 9.90765 9.29672 9.83254 9.2494 9.70793C9.1876 9.78666 9.10946 9.83525 9.01586 9.85094C9.53067 9.92395 9.8913 10.0266 9.8913 10.0266C9.8913 10.0266 9.88241 10.1028 9.86081 10.1924C9.88369 10.1455 9.91078 10.0933 9.94211 10.0358L9.94987 10.0257L10.0429 9.93819ZM8.77309 9.82038C8.72829 9.79814 8.69252 9.76588 8.66667 9.72428C8.62827 9.75819 8.5846 9.78299 8.5361 9.79828C8.61708 9.80447 8.69626 9.81196 8.77309 9.82038ZM8.25225 9.78264C8.18957 9.75369 8.13745 9.70731 8.09854 9.64789C8.05989 9.70689 8.00824 9.75303 7.94615 9.78202C7.98294 9.78093 8.01994 9.78015 8.05712 9.77974V9.77937L8.08937 9.77946L8.12163 9.77937V9.77974C8.16543 9.78023 8.20899 9.78121 8.25225 9.78264ZM6.31046 10.0203L6.23545 9.94969C6.32546 9.95861 6.39209 9.95014 6.43149 9.91806C6.51044 9.94103 6.60305 9.94324 6.70878 9.92603C6.82171 9.90765 6.90035 9.83254 6.94767 9.70793C7.00768 9.78438 7.0831 9.83241 7.17312 9.8495C6.72934 9.91184 6.39822 9.99667 6.31046 10.0203ZM7.65749 9.79716C7.57951 9.80296 7.50316 9.80996 7.42892 9.81787C7.47142 9.79573 7.50551 9.76433 7.5304 9.72428C7.56788 9.75738 7.61037 9.78179 7.65749 9.79716ZM9.63634 10.465C9.69269 10.4913 9.73787 10.465 9.77358 10.4146C9.7705 10.4285 9.76857 10.4411 9.76779 10.4523C9.76307 10.4554 9.75584 10.4592 9.74635 10.4631C9.71985 10.4743 9.67938 10.4862 9.62674 10.4982C9.52327 10.5218 9.37599 10.5452 9.20144 10.5662C8.86059 10.6071 8.45529 10.634 8.13308 10.6362C7.81087 10.634 7.40556 10.6071 7.06471 10.5662C6.89017 10.5452 6.74288 10.5218 6.63941 10.4982C6.59532 10.4881 6.55977 10.4781 6.53381 10.4686C6.53665 10.4675 6.53951 10.4663 6.54241 10.465C6.71813 10.3828 7.88012 10.3056 8.08937 10.2923C8.29863 10.3056 9.46062 10.3828 9.63634 10.465ZM9.85799 10.4502L9.85677 10.4516L9.8575 10.4506L9.85799 10.4502Z" fill="#C88A02"/>
<path fill-rule="evenodd" clip-rule="evenodd" d="M7.94186 9.09733C7.947 9.12381 7.95504 9.14845 7.9652 9.17042C7.93403 9.15852 7.89703 9.15162 7.85735 9.15162C7.74628 9.15162 7.65625 9.20564 7.65625 9.27228C7.65625 9.33892 7.74628 9.39294 7.85735 9.39294C7.96841 9.39294 8.05844 9.33892 8.05844 9.27228L8.05835 9.26862L8.05857 9.2687L8.05849 9.27228C8.05849 9.33892 8.14852 9.39294 8.25959 9.39294C8.37065 9.39294 8.46068 9.33892 8.46068 9.27228C8.46068 9.20564 8.37065 9.15162 8.25959 9.15162C8.23162 9.15162 8.20498 9.15504 8.18078 9.16123C8.18661 9.12825 8.18635 9.09044 8.17874 9.05129C8.15755 8.94226 8.08734 8.86419 8.02193 8.87691C7.95652 8.88962 7.92067 8.98831 7.94186 9.09733ZM6.75861 9.25092C6.74843 9.22893 6.74038 9.20424 6.73523 9.17773C6.71403 9.06871 6.74988 8.97002 6.8153 8.9573C6.88071 8.94459 6.95092 9.02266 6.97211 9.13168C6.97973 9.17087 6.97998 9.20872 6.97413 9.24172C6.99834 9.23553 7.02498 9.2321 7.05295 9.2321C7.16402 9.2321 7.25405 9.28612 7.25405 9.35276C7.25405 9.4194 7.16402 9.47342 7.05295 9.47342C6.94189 9.47342 6.85185 9.4194 6.85185 9.35276L6.85194 9.34909L6.85172 9.34902L6.85181 9.35276C6.85181 9.4194 6.76178 9.47342 6.65071 9.47342C6.53965 9.47342 6.44961 9.4194 6.44961 9.35276C6.44961 9.28612 6.53965 9.2321 6.65071 9.2321C6.69042 9.2321 6.72743 9.23901 6.75861 9.25092ZM9.27795 9.32445C9.26868 9.39044 9.172 9.4314 9.06201 9.41595C8.95203 9.40049 8.87039 9.33446 8.87967 9.26847C8.88894 9.20248 8.98562 9.16152 9.0956 9.17698C9.13486 9.18249 9.17052 9.19446 9.19971 9.21056C9.19271 9.18739 9.18818 9.16187 9.18677 9.13493C9.18095 9.02402 9.23019 8.93128 9.29674 8.92779C9.36328 8.92431 9.42194 9.01139 9.42776 9.1223C9.42984 9.16213 9.42483 9.19962 9.41447 9.23147C9.43931 9.2287 9.46618 9.22902 9.49389 9.23291C9.60388 9.24837 9.68552 9.31439 9.67624 9.38038C9.66697 9.44637 9.57029 9.48734 9.46031 9.47188C9.35033 9.45642 9.26869 9.3904 9.27796 9.32441L9.27854 9.32089L9.27837 9.32081L9.27796 9.32441L9.27795 9.32445ZM10.0438 9.64348C10.1419 9.69562 10.2467 9.69019 10.278 9.63135L10.2797 9.62808C10.2893 9.63831 10.3008 9.64576 10.3138 9.64974C10.3775 9.66923 10.4555 9.59892 10.488 9.49271C10.5205 9.3865 10.4951 9.2846 10.4314 9.26512C10.3677 9.24564 10.2897 9.31594 10.2572 9.42216C10.2493 9.44794 10.2449 9.47348 10.2435 9.49764C10.2216 9.4725 10.1922 9.44903 10.1571 9.4304C10.0591 9.37826 9.9542 9.38369 9.92291 9.44253C9.89163 9.50137 9.94577 9.59133 10.0438 9.64348ZM6.0969 9.66811C5.99884 9.72025 5.89398 9.71482 5.8627 9.65599C5.86212 9.65491 5.86158 9.65382 5.86106 9.65272C5.8514 9.66295 5.83996 9.67039 5.82691 9.67438C5.76318 9.69386 5.6852 9.62356 5.65273 9.51735C5.62026 9.41113 5.64559 9.30924 5.70932 9.28976C5.77305 9.27027 5.85103 9.34058 5.8835 9.44679C5.89139 9.47258 5.89586 9.49811 5.89721 9.52228C5.91914 9.49713 5.94857 9.47367 5.98361 9.45504C6.08168 9.4029 6.18653 9.40833 6.21782 9.46716C6.2491 9.526 6.19497 9.61597 6.0969 9.66811Z" fill="#C88A02"/>
<path fill-rule="evenodd" clip-rule="evenodd" d="M8.00872 7H8.1763V7.10591H8.28583V7.27349H8.1763V7.60862H8.28583V7.7762H7.89755V7.60862H8.00872V7.27349H7.89755V7.10591H8.00872V7Z" fill="#C88A02"/>
<rect x="7.97803" y="7.91028" width="0.321759" height="1.04572" fill="#C88A02"/>
<path d="M6.6828 8.08544L6.68139 8.16586C5.96813 8.15341 5.559 8.2575 5.45515 8.46495C5.34778 8.67943 5.36774 8.94016 5.51819 9.24987L5.44584 9.28502C5.28532 8.95457 5.26339 8.6683 5.38322 8.42895C5.50656 8.18257 5.93937 8.07246 6.6828 8.08544Z" fill="white"/>
<path d="M6.82083 8.79868L6.77959 8.86775C6.62426 8.775 6.54652 8.61673 6.54652 8.39861C6.54652 8.08512 6.708 7.90129 7.06521 7.77549C7.29318 7.6952 7.60461 7.72812 8.00035 7.8716L7.97294 7.94723C7.59303 7.80949 7.29907 7.77841 7.09193 7.85136C6.76429 7.96675 6.62696 8.12309 6.62696 8.39861C6.62696 8.59002 6.69153 8.72148 6.82083 8.79868Z" fill="white"/>
<path d="M5.61949 9.1265L5.4677 9.17981C5.31021 8.7314 5.35519 8.42686 5.6243 8.2955C5.86142 8.17975 6.20702 8.13264 6.66279 8.15111L6.65627 8.31186C6.22475 8.29437 5.90371 8.33813 5.69487 8.44007C5.51801 8.52641 5.48566 8.74545 5.61949 9.1265Z" fill="#C88A02"/>
<path d="M7.39292 7.97826C7.0251 7.97826 6.87405 8.06785 6.78775 8.33235C6.73276 8.50092 6.78609 8.64479 6.95903 8.77908L6.86036 8.90615C6.63646 8.73228 6.55752 8.51935 6.63481 8.28246C6.74478 7.94537 6.96057 7.81738 7.39292 7.81738C7.67629 7.81738 7.89704 7.89183 8.05074 8.04335L8.07471 8.06697V8.84262H7.91383V8.13574C7.79379 8.03147 7.62136 7.97826 7.39292 7.97826Z" fill="#C88A02"/>
<path d="M9.4899 8.16582L9.49131 8.24625C10.2046 8.23379 10.6137 8.33788 10.7176 8.54534C10.8249 8.75982 10.805 9.02054 10.6545 9.33025L10.7269 9.3654C10.8874 9.03495 10.9093 8.74868 10.7895 8.50933C10.6661 8.26295 10.2333 8.15284 9.4899 8.16582Z" fill="white"/>
<path d="M9.23799 8.81547L9.27923 8.88453C9.43455 8.79179 9.51229 8.63351 9.51229 8.41539C9.51229 8.10191 9.35081 7.91808 8.9936 7.79228C8.76563 7.71199 8.45421 7.74491 8.05846 7.88839L8.08588 7.96401C8.46579 7.82627 8.75975 7.7952 8.96688 7.86815C9.29452 7.98354 9.43186 8.13987 9.43186 8.41539C9.43186 8.6068 9.36728 8.73827 9.23799 8.81547Z" fill="white"/>
<path d="M10.6033 9.20694L10.7551 9.26025C10.9125 8.81184 10.8676 8.50731 10.5985 8.37594C10.3613 8.26019 10.0157 8.21308 9.55997 8.23155L9.56649 8.3923C9.99801 8.37481 10.3191 8.41858 10.5279 8.52052C10.7047 8.60685 10.7371 8.8259 10.6033 9.20694Z" fill="#C88A02"/>
<path d="M8.82072 7.99071C9.18855 7.99071 9.3396 8.0803 9.42589 8.34481C9.48088 8.51337 9.42755 8.65724 9.25461 8.79153L9.35328 8.9186C9.57718 8.74474 9.65612 8.5318 9.57884 8.29491C9.46886 7.95782 9.25307 7.82983 8.82072 7.82983C8.53735 7.82983 8.3166 7.90428 8.1629 8.0558L8.13893 8.07943V8.85507H8.29981V8.14819C8.41985 8.04392 8.59228 7.99071 8.82072 7.99071Z" fill="#C88A02"/>
<path opacity="0.3" fill-rule="evenodd" clip-rule="evenodd" d="M5.48437 10.7256H10.7129V15.4233C10.7129 15.4233 10.3246 16.9999 8.09866 16.9999C5.87276 16.9999 5.48437 15.3818 5.48437 15.3818V10.7256Z" fill="#E1E5E8"/>
<mask id="mask4_232_24138" style="mask-type:luminance" maskUnits="userSpaceOnUse" x="5" y="10" width="6" height="7">
<path fill-rule="evenodd" clip-rule="evenodd" d="M5.48437 10.7256H10.7129V15.4233C10.7129 15.4233 10.3246 16.9999 8.09866 16.9999C5.87276 16.9999 5.48437 15.3818 5.48437 15.3818V10.7256Z" fill="white"/>
</mask>
<g mask="url(#mask4_232_24138)">
<rect x="5.48436" y="13.6215" width="2.65451" height="3.13715" fill="#FFC034"/>
<rect x="5.80612" y="13.7824" width="0.321759" height="2.97627" fill="#E33534"/>
<rect x="6.93227" y="13.7824" width="0.321759" height="2.97627" fill="#E33534"/>
<rect x="6.36924" y="13.7824" width="0.321759" height="2.97627" fill="#E33534"/>
<rect x="7.49539" y="13.7824" width="0.321759" height="2.97627" fill="#E33534"/>
<rect x="5.48436" y="10.6452" width="2.65451" height="3.05671" fill="#E33534"/>
<rect x="8.05842" y="13.5411" width="2.65451" height="3.05671" fill="#E33534"/>
<rect x="8.05842" y="10.7257" width="2.81539" height="2.97627" fill="white"/>
<path fill-rule="evenodd" clip-rule="evenodd" d="M6.6106 10.967H6.85192V11.6344H7.01275V11.3007H7.25407V11.6344H7.4954V12.0515H7.25412V12.8023H7.4954V13.2194H6.04748V12.8023H6.28884V12.0515H6.04748V11.6344H6.20836V11.3007H6.44968V11.6344H6.6106V10.967Z" fill="#C88A02"/>
<path d="M9.43943 11.1071L9.60416 10.9308L9.95001 11.2539L9.78528 11.4302L9.43943 11.1071Z" fill="#C88A02"/>
<path fill-rule="evenodd" clip-rule="evenodd" d="M10.4314 15.6641V13.903H8.42042V15.6494L8.42361 15.663C8.52541 16.0967 8.87209 16.3162 9.42591 16.3162C9.97921 16.3162 10.3258 16.1024 10.4281 15.6781L10.4314 15.6641ZM9.42597 16.0749C8.98161 16.0749 8.73894 15.9253 8.66179 15.621V14.1444H10.1901V15.635C10.1132 15.9293 9.8705 16.0749 9.42597 16.0749Z" fill="#FFC034"/>
<path fill-rule="evenodd" clip-rule="evenodd" d="M9.50891 14.0502H9.34133V14.8486L8.6807 14.1301L8.56227 14.239L9.15975 14.8888H8.61838V15.1301H9.03421H9.17287L8.5623 15.7942L8.68073 15.9031L9.34133 15.1846V16.1179H9.50891V15.2686L10.0923 15.9031L10.2107 15.7942L9.60017 15.1301H10.2817V14.8888H9.61329L10.2108 14.239L10.0923 14.1301L9.50891 14.7647V14.0502Z" fill="#FFC034"/>
<path fill-rule="evenodd" clip-rule="evenodd" d="M9.80134 16.5997C9.80134 16.5997 8.0976 16.7337 8.0976 15.6348C8.0976 15.6348 8.08135 16.5997 6.30234 16.5997V17.4672H9.80134V16.5997Z" fill="white"/>
<path fill-rule="evenodd" clip-rule="evenodd" d="M8.09868 14.265C8.43188 14.265 8.70198 13.9769 8.70198 13.6215C8.70198 13.2661 8.43188 12.978 8.09868 12.978C7.76549 12.978 7.49539 13.2661 7.49539 13.6215C7.49539 13.9769 7.76549 14.265 8.09868 14.265Z" fill="#C88A02" stroke="#E33534" stroke-width="1.16667"/>
</g>
</g>
</g>
</g>
<g style="mix-blend-mode:hard-light" opacity="0.12">
<rect width="24" height="24" rx="12" fill="white"/>
</g>
<rect width="24" height="24" fill="url(#paint0_linear_232_24138)" fill-opacity="0.64" style="mix-blend-mode:overlay"/>
</g>
<defs>
<linearGradient id="paint0_linear_232_24138" x1="24" y1="1.19273e-06" x2="-4.48665" y2="16.0237" gradientUnits="userSpaceOnUse">
<stop stop-color="white" stop-opacity="0.3"/>
<stop offset="0.262741" stop-opacity="0.27"/>
<stop offset="0.369956" stop-color="white" stop-opacity="0.26"/>
<stop offset="0.487001" stop-opacity="0.55"/>
<stop offset="0.594445" stop-opacity="0.24"/>
<stop offset="0.736408" stop-color="white" stop-opacity="0.3"/>
<stop offset="0.901459" stop-color="#272727" stop-opacity="0.22"/>
<stop offset="1" stop-opacity="0.2"/>
</linearGradient>
<clipPath id="clip0_232_24138">
<rect width="24" height="24" rx="12" fill="white"/>
</clipPath>
<clipPath id="clip1_232_24138">
<rect width="24" height="24" fill="white"/>
</clipPath>
</defs>
</svg>
