<svg width="46" height="35" viewBox="0 0 46 35" fill="none" xmlns="http://www.w3.org/2000/svg">
<g clip-path="url(#clip0_219_3391)">
<g clip-path="url(#clip1_219_3391)">
<mask id="mask0_219_3391" style="mask-type:luminance" maskUnits="userSpaceOnUse" x="0" y="0" width="46" height="35">
<rect width="46" height="34.5" fill="white"/>
</mask>
<g mask="url(#mask0_219_3391)">
<path fill-rule="evenodd" clip-rule="evenodd" d="M0 0V34.5H46V0H0Z" fill="#FFC034"/>
<mask id="mask1_219_3391" style="mask-type:luminance" maskUnits="userSpaceOnUse" x="0" y="0" width="46" height="35">
<path fill-rule="evenodd" clip-rule="evenodd" d="M0 0V34.5H46V0H0Z" fill="white"/>
</mask>
<g mask="url(#mask1_219_3391)">
<path fill-rule="evenodd" clip-rule="evenodd" d="M0 0V8.625H46V0H0Z" fill="#E33534"/>
<path fill-rule="evenodd" clip-rule="evenodd" d="M0 25.875V34.5H46V25.875H0Z" fill="#E33534"/>
<rect x="11.09" y="16.4587" width="1.15632" height="6.01286" fill="white"/>
<path fill-rule="evenodd" clip-rule="evenodd" d="M12.7087 15.418H10.6273V15.9961H10.9743V16.4587H12.3619V15.9961H12.7087V15.418Z" fill="#C88A02"/>
<path fill-rule="evenodd" clip-rule="evenodd" d="M12.3618 22.8185H12.7087V23.3966H10.6273V22.8185H10.9742V22.356H12.3618V22.8185Z" fill="#C88A02"/>
<path fill-rule="evenodd" clip-rule="evenodd" d="M11.6681 15.5338C11.9197 15.5338 11.9453 15.439 12.0937 15.2975C12.209 15.1876 12.4775 15.0513 12.4775 14.8978C12.4775 14.5466 12.1151 14.2618 11.6681 14.2618C11.221 14.2618 10.8586 14.5466 10.8586 14.8978C10.8586 15.0689 11.0435 15.1832 11.1833 15.2975C11.3306 15.4179 11.4387 15.5338 11.6681 15.5338Z" fill="#E33534"/>
<path fill-rule="evenodd" clip-rule="evenodd" d="M10.6273 23.3967H12.7087V24.3218C12.7087 24.3218 12.4485 24.2062 12.1884 24.2062C11.9282 24.2062 11.668 24.3218 11.668 24.3218C11.668 24.3218 11.4078 24.2062 11.1477 24.2062C10.8875 24.2062 10.6273 24.3218 10.6273 24.3218V23.3967Z" fill="#C88A02"/>
<mask id="mask2_219_3391" style="mask-type:luminance" maskUnits="userSpaceOnUse" x="10" y="23" width="3" height="2">
<path fill-rule="evenodd" clip-rule="evenodd" d="M10.6273 23.3967H12.7087V24.3218C12.7087 24.3218 12.4485 24.2062 12.1884 24.2062C11.9282 24.2062 11.668 24.3218 11.668 24.3218C11.668 24.3218 11.4078 24.2062 11.1477 24.2062C10.8875 24.2062 10.6273 24.3218 10.6273 24.3218V23.3967Z" fill="white"/>
</mask>
<g mask="url(#mask2_219_3391)">
<path d="M10.6085 24.1401L10.5631 24.0293C10.7506 23.9459 10.9387 23.9041 11.1271 23.9041C11.2489 23.9041 11.3124 23.921 11.4205 23.9691C11.5154 24.0114 11.5646 24.0245 11.6684 24.0245C11.7722 24.0245 11.8215 24.0114 11.9164 23.9691C12.0244 23.921 12.088 23.9041 12.2097 23.9041C12.3982 23.9041 12.5863 23.9459 12.7738 24.0293L12.7283 24.1401C12.5549 24.0629 12.3822 24.0245 12.2097 24.0245C12.1059 24.0245 12.0567 24.0376 11.9618 24.0799C11.8537 24.128 11.7902 24.145 11.6684 24.145C11.5467 24.145 11.4831 24.128 11.3751 24.0799C11.2801 24.0376 11.2309 24.0245 11.1271 24.0245C10.9547 24.0245 10.7819 24.0629 10.6085 24.1401Z" fill="white"/>
<path d="M10.6085 23.7931L10.5631 23.6823C10.7506 23.5989 10.9387 23.557 11.1271 23.557C11.2489 23.557 11.3124 23.574 11.4205 23.6221C11.5154 23.6643 11.5646 23.6775 11.6684 23.6775C11.7722 23.6775 11.8215 23.6643 11.9164 23.6221C12.0244 23.574 12.088 23.557 12.2097 23.557C12.3982 23.557 12.5863 23.5989 12.7738 23.6823L12.7283 23.7931C12.5549 23.7159 12.3822 23.6775 12.2097 23.6775C12.1059 23.6775 12.0567 23.6906 11.9618 23.7328C11.8537 23.7809 11.7902 23.7979 11.6684 23.7979C11.5467 23.7979 11.4831 23.7809 11.3751 23.7328C11.2801 23.6906 11.2309 23.6775 11.1271 23.6775C10.9547 23.6775 10.7819 23.7159 10.6085 23.7931Z" fill="white"/>
</g>
<rect x="22.4219" y="16.4587" width="1.15632" height="6.01286" fill="white"/>
<path fill-rule="evenodd" clip-rule="evenodd" d="M24.0406 15.418H21.9592V15.9961H22.3062V16.4587H23.6938V15.9961H24.0406V15.418Z" fill="#C88A02"/>
<path fill-rule="evenodd" clip-rule="evenodd" d="M23.6937 22.8185H24.0406V23.3966H21.9592V22.8185H22.3061V22.356H23.6937V22.8185Z" fill="#C88A02"/>
<path fill-rule="evenodd" clip-rule="evenodd" d="M22.9999 15.5338C23.2515 15.5338 23.2771 15.439 23.4255 15.2975C23.5408 15.1876 23.8093 15.0513 23.8093 14.8978C23.8093 14.5466 23.4469 14.2618 22.9999 14.2618C22.5528 14.2618 22.1904 14.5466 22.1904 14.8978C22.1904 15.0689 22.3753 15.1832 22.5151 15.2975C22.6624 15.4179 22.7705 15.5338 22.9999 15.5338Z" fill="#E33534"/>
<path fill-rule="evenodd" clip-rule="evenodd" d="M21.9592 23.3967H24.0406V24.3218C24.0406 24.3218 23.7804 24.2062 23.5203 24.2062C23.2601 24.2062 22.9999 24.3218 22.9999 24.3218C22.9999 24.3218 22.7397 24.2062 22.4796 24.2062C22.2194 24.2062 21.9592 24.3218 21.9592 24.3218V23.3967Z" fill="#C88A02"/>
<mask id="mask3_219_3391" style="mask-type:luminance" maskUnits="userSpaceOnUse" x="21" y="23" width="4" height="2">
<path fill-rule="evenodd" clip-rule="evenodd" d="M21.9592 23.3967H24.0406V24.3218C24.0406 24.3218 23.7804 24.2062 23.5203 24.2062C23.2601 24.2062 22.9999 24.3218 22.9999 24.3218C22.9999 24.3218 22.7397 24.2062 22.4796 24.2062C22.2194 24.2062 21.9592 24.3218 21.9592 24.3218V23.3967Z" fill="white"/>
</mask>
<g mask="url(#mask3_219_3391)">
<path d="M21.9404 24.1401L21.895 24.0293C22.0825 23.9459 22.2706 23.9041 22.459 23.9041C22.5808 23.9041 22.6443 23.921 22.7524 23.9691C22.8473 24.0114 22.8965 24.0245 23.0003 24.0245C23.1042 24.0245 23.1534 24.0114 23.2483 23.9691C23.3563 23.921 23.4199 23.9041 23.5416 23.9041C23.7301 23.9041 23.9182 23.9459 24.1057 24.0293L24.0602 24.1401C23.8868 24.0629 23.7141 24.0245 23.5416 24.0245C23.4378 24.0245 23.3886 24.0376 23.2937 24.0799C23.1856 24.128 23.1221 24.145 23.0003 24.145C22.8786 24.145 22.815 24.128 22.707 24.0799C22.6121 24.0376 22.5629 24.0245 22.459 24.0245C22.2866 24.0245 22.1139 24.0629 21.9404 24.1401Z" fill="white"/>
<path d="M21.9404 23.7931L21.895 23.6823C22.0825 23.5989 22.2706 23.557 22.459 23.557C22.5808 23.557 22.6443 23.574 22.7524 23.6221C22.8473 23.6643 22.8965 23.6775 23.0003 23.6775C23.1042 23.6775 23.1534 23.6643 23.2483 23.6221C23.3563 23.574 23.4199 23.557 23.5416 23.557C23.7301 23.557 23.9182 23.5989 24.1057 23.6823L24.0602 23.7931C23.8868 23.7159 23.7141 23.6775 23.5416 23.6775C23.4378 23.6775 23.3886 23.6906 23.2937 23.7328C23.1856 23.7809 23.1221 23.7979 23.0003 23.7979C22.8786 23.7979 22.815 23.7809 22.707 23.7328C22.6121 23.6906 22.5629 23.6775 22.459 23.6775C22.2866 23.6775 22.1139 23.7159 21.9404 23.7931Z" fill="white"/>
</g>
<path fill-rule="evenodd" clip-rule="evenodd" d="M23.1672 21.3152C23.1672 21.5594 23.2838 21.7894 23.4922 22.0421L24.2023 21.4565L24.2701 21.4356L24.3079 21.1397C24.3777 20.5931 24.144 20.2903 23.6626 20.0714L23.6295 20.0568C23.5635 20.0278 23.4195 19.9646 23.3709 19.9413C23.2693 19.8926 23.1855 19.8443 23.1073 19.7874C23.0301 19.7313 22.9474 19.6784 22.8475 19.6205C23.4433 19.5248 23.7652 19.4542 24.0122 19.3478C24.6032 19.0931 24.6794 18.5018 24.1114 18.1106C23.3369 17.5772 21.2637 17.5293 20.3538 17.9991L20.7781 18.821C21.2247 18.5905 22.2398 18.547 22.9507 18.6653C22.8426 18.6842 22.7213 18.7041 22.5855 18.7254C22.5215 18.7355 22.3355 18.7642 22.2384 18.7792L22.2381 18.7793L22.1793 18.7884C21.8954 18.8325 21.7017 18.8886 21.5581 18.9863C21.2651 19.1858 21.2217 19.5452 21.4308 19.8104C21.5191 19.9223 21.6345 20.0061 21.8092 20.1074C21.8652 20.1399 21.9256 20.173 22.0066 20.2162L22.0488 20.2387C22.0986 20.2651 22.1767 20.3065 22.2055 20.322C22.3722 20.4115 22.4816 20.4762 22.5632 20.5355C22.691 20.6285 22.8221 20.7041 22.971 20.7754C23.051 20.8138 23.281 20.9141 23.2797 20.9135L23.2933 20.9196C23.213 21.0282 23.1672 21.1612 23.1672 21.3152ZM11.0692 22.0422C11.2777 21.7894 11.3942 21.5595 11.3942 21.3153C11.3942 21.1613 11.3484 21.0283 11.2681 20.9196L11.2817 20.9135C11.2804 20.9141 11.5104 20.8139 11.5905 20.7755C11.7393 20.7041 11.8704 20.6285 11.9982 20.5356C12.0799 20.4762 12.1892 20.4116 12.3559 20.322C12.3847 20.3066 12.4628 20.2652 12.5126 20.2387L12.5548 20.2163C12.6359 20.173 12.6962 20.1399 12.7522 20.1074C12.9269 20.0061 13.0423 19.9224 13.1306 19.8104C13.3397 19.5453 13.2963 19.1859 13.0033 18.9864C12.8597 18.8886 12.666 18.8326 12.3821 18.7884L12.3234 18.7793L12.3233 18.7793C12.2263 18.7643 12.04 18.7355 11.976 18.7255C11.8401 18.7041 11.7188 18.6842 11.6107 18.6653C12.3216 18.5471 13.3368 18.5905 13.7833 18.8211L14.2077 17.9991C13.2977 17.5293 11.2245 17.5773 10.45 18.1106C9.88199 18.5018 9.95821 19.0932 10.5492 19.3478C10.7962 19.4542 11.1181 19.5248 11.7139 19.6205C11.6141 19.6784 11.5313 19.7313 11.4542 19.7874C11.3759 19.8443 11.2921 19.8926 11.1905 19.9413C11.1419 19.9647 10.9979 20.0279 10.932 20.0568L10.8988 20.0714C10.4174 20.2903 10.1837 20.5931 10.2536 21.1398L10.2914 21.4357L10.3591 21.4565L11.0692 22.0422ZM10.4741 21.2774L10.4726 21.2816L10.4737 21.2786L10.4741 21.2774Z" fill="#E33534"/>
<path d="M12.035 18.6558L12.3763 18.7264V19.2351C12.0128 19.5251 11.09 20.014 11.09 20.014V18.6558H12.035Z" fill="white"/>
<path d="M22.7632 18.6558L22.4219 18.7264V19.2351C22.7854 19.5251 23.7083 20.014 23.7083 20.014V18.6558H22.7632Z" fill="white"/>
<path fill-rule="evenodd" clip-rule="evenodd" d="M21.1748 13.2934V13.1241C20.58 12.6972 19.9572 12.4838 19.3063 12.4838C18.6823 12.2076 18.0506 12.1004 17.4114 12.1622C17.4115 12.1602 17.4116 12.1592 17.4116 12.1592C16.4505 12.0651 15.4818 12.4837 15.4818 12.4837C14.5054 12.4837 13.6133 13.124 13.6133 13.124V13.2933L14.7795 14.4646C14.7795 14.4646 15.1078 15.5921 17.4069 15.3271V15.33C17.4069 15.33 18.9291 15.2884 19.036 15.2529C19.0785 15.2387 19.1225 15.2259 19.1674 15.2128C19.4656 15.1257 19.8059 15.0263 20.0085 14.4647L21.1748 13.2934ZM17.4069 12.2136C17.3738 12.6027 17.1841 14.9548 17.4069 15.3192V12.2136Z" fill="#E33534"/>
<path fill-rule="evenodd" clip-rule="evenodd" d="M14.5028 14.2676L14.5036 14.2639L13.6831 13.492L13.7623 13.4078L14.5322 14.1321L14.5519 14.0416C14.6778 14.069 14.7699 14.0791 14.8236 14.0734V13.9163L14.9942 14.0086C15.0782 14.0541 15.1984 14.0663 15.3567 14.0405C15.473 14.0216 15.5515 13.8865 15.5772 13.5987L15.629 13.0177L15.8027 13.5745C15.8813 13.8265 16.0013 13.9376 16.1721 13.9376C16.3388 13.9376 16.4059 13.8764 16.4133 13.7223L16.4343 13.2852L16.6319 13.6756C16.7032 13.8163 16.8014 13.8801 16.941 13.8801C17.1407 13.8801 17.2741 13.7136 17.2741 13.4523H17.2778H17.5054H17.5091C17.5091 13.7136 17.6425 13.8801 17.8422 13.8801C17.9819 13.8801 18.0801 13.8163 18.1513 13.6756L18.349 13.2852L18.3699 13.7223C18.3773 13.8764 18.4444 13.9376 18.6112 13.9376C18.7819 13.9376 18.9019 13.8265 18.9805 13.5745L19.1543 13.0177L19.2061 13.5987C19.2317 13.8865 19.3102 14.0216 19.4265 14.0405C19.5848 14.0663 19.7051 14.0541 19.789 14.0086L19.9597 13.9163V14.0734C20.0133 14.0791 20.1054 14.069 20.2313 14.0416L20.2679 14.2098L21.1204 13.4078L21.1996 13.492L20.139 14.4899C19.9843 14.7748 19.9063 14.9629 19.9063 15.0411C19.9063 15.1603 19.5962 15.231 18.9909 15.3037C18.5168 15.3606 17.9571 15.3988 17.4994 15.4046V15.4053L17.4414 15.4051L17.3833 15.4053V15.4046C16.9256 15.3988 16.366 15.3606 15.8918 15.3037C15.2865 15.231 14.9764 15.1603 14.9764 15.0411C14.9764 15.0263 14.9736 15.0077 14.9681 14.9852C14.907 14.9075 14.864 14.7801 14.8354 14.6652C14.8087 14.6116 14.7781 14.5531 14.7437 14.4899L14.5089 14.269L14.5028 14.2676ZM20.1867 14.2862C19.9973 14.3198 19.8605 14.3164 19.788 14.2573C19.6745 14.2903 19.5413 14.2935 19.3894 14.2688C19.227 14.2423 19.114 14.1344 19.0459 13.9552C18.9571 14.0684 18.8449 14.1382 18.7104 14.1608C19.4504 14.2657 19.9688 14.4133 19.9688 14.4133C19.9688 14.4133 19.9561 14.5227 19.925 14.6514C19.9579 14.584 19.9969 14.5091 20.0419 14.4264L20.053 14.412L20.1867 14.2862ZM18.3612 14.1169C18.2968 14.0849 18.2454 14.0385 18.2083 13.9788C18.1531 14.0275 18.0904 14.0631 18.0207 14.0851C18.137 14.094 18.2508 14.1047 18.3612 14.1169ZM17.6125 14.0626C17.5224 14.021 17.4475 13.9544 17.3916 13.869C17.3361 13.9538 17.2619 14.0201 17.1726 14.0617C17.2255 14.0602 17.2787 14.059 17.3322 14.0584V14.0579L17.3785 14.0581L17.4249 14.0579V14.0584C17.4878 14.0592 17.5504 14.0606 17.6125 14.0626ZM14.8214 14.4042L14.7136 14.3028C14.8429 14.3156 14.9387 14.3034 14.9953 14.2573C15.1088 14.2903 15.2419 14.2935 15.3939 14.2688C15.5562 14.2423 15.6693 14.1344 15.7373 13.9552C15.8235 14.0651 15.9319 14.1342 16.0613 14.1587C15.4235 14.2483 14.9476 14.3702 14.8214 14.4042ZM16.7576 14.0835C16.6455 14.0918 16.5358 14.1019 16.4291 14.1133C16.4902 14.0814 16.5392 14.0363 16.575 13.9788C16.6288 14.0263 16.6899 14.0614 16.7576 14.0835ZM19.6023 15.0435C19.6833 15.0814 19.7482 15.0436 19.7996 14.9711C19.7952 14.991 19.7924 15.0091 19.7913 15.0252C19.7845 15.0297 19.7741 15.035 19.7605 15.0408C19.7224 15.0568 19.6642 15.0738 19.5885 15.0911C19.4398 15.125 19.2281 15.1588 18.9772 15.1889C18.4872 15.2477 17.9045 15.2864 17.4414 15.2895C16.9782 15.2864 16.3956 15.2477 15.9056 15.1889C15.6547 15.1588 15.4429 15.125 15.2942 15.0911C15.2309 15.0767 15.1798 15.0624 15.1425 15.0487C15.1466 15.0471 15.1506 15.0454 15.1548 15.0435C15.4074 14.9253 17.0778 14.8144 17.3785 14.7952C17.6793 14.8144 19.3497 14.9253 19.6023 15.0435ZM19.9209 15.0222C19.9205 15.0225 19.92 15.023 19.9194 15.0239L19.9202 15.0227L19.9209 15.0222Z" fill="#C88A02"/>
<path fill-rule="evenodd" clip-rule="evenodd" d="M17.1663 13.0775C17.1737 13.1155 17.1853 13.151 17.1999 13.1825C17.1551 13.1654 17.1019 13.1555 17.0449 13.1555C16.8852 13.1555 16.7558 13.2332 16.7558 13.329C16.7558 13.4247 16.8852 13.5024 17.0449 13.5024C17.2045 13.5024 17.3339 13.4247 17.3339 13.329L17.3338 13.3237L17.3341 13.3238L17.334 13.329C17.334 13.4247 17.4634 13.5024 17.623 13.5024C17.7827 13.5024 17.9121 13.4247 17.9121 13.329C17.9121 13.2332 17.7827 13.1555 17.623 13.1555C17.5829 13.1555 17.5446 13.1604 17.5098 13.1693C17.5182 13.1219 17.5178 13.0676 17.5069 13.0113C17.4764 12.8546 17.3755 12.7423 17.2815 12.7606C17.1874 12.7789 17.1359 12.9208 17.1663 13.0775ZM15.4654 13.2984C15.4508 13.2668 15.4392 13.2313 15.4318 13.1931C15.4013 13.0364 15.4528 12.8945 15.5469 12.8763C15.6409 12.858 15.7418 12.9702 15.7723 13.1269C15.7832 13.1833 15.7836 13.2377 15.7752 13.2852C15.81 13.2763 15.8484 13.2713 15.8886 13.2713C16.0483 13.2713 16.1777 13.349 16.1777 13.4448C16.1777 13.5406 16.0483 13.6182 15.8886 13.6182C15.729 13.6182 15.5996 13.5406 15.5996 13.4448L15.5997 13.4395L15.5992 13.4393L15.5994 13.4448C15.5994 13.5406 15.4699 13.6182 15.3103 13.6182C15.1506 13.6182 15.0212 13.5406 15.0212 13.4448C15.0212 13.349 15.1506 13.2713 15.3103 13.2713C15.3674 13.2713 15.4206 13.2813 15.4654 13.2984ZM19.087 13.404C19.0737 13.4989 18.9347 13.5578 18.7766 13.5356C18.6185 13.5134 18.5011 13.4184 18.5145 13.3236C18.5278 13.2287 18.6668 13.1698 18.8249 13.1921C18.8813 13.2 18.9326 13.2172 18.9745 13.2403C18.9644 13.207 18.9579 13.1703 18.9559 13.1316C18.9475 12.9721 19.0183 12.8388 19.114 12.8338C19.2096 12.8288 19.294 12.954 19.3023 13.1134C19.3053 13.1707 19.2981 13.2246 19.2832 13.2704C19.3189 13.2664 19.3576 13.2668 19.3975 13.2724C19.5556 13.2946 19.6729 13.3896 19.6596 13.4844C19.6463 13.5793 19.5073 13.6382 19.3492 13.6159C19.1911 13.5937 19.0737 13.4988 19.0871 13.404L19.0879 13.3989L19.0876 13.3988L19.087 13.404ZM20.188 13.8627C20.329 13.9376 20.4797 13.9298 20.5247 13.8452L20.5271 13.8405C20.5409 13.8552 20.5574 13.8659 20.5761 13.8716C20.6677 13.8996 20.7799 13.7985 20.8265 13.6459C20.8732 13.4932 20.8368 13.3467 20.7452 13.3187C20.6536 13.2907 20.5415 13.3918 20.4948 13.5444C20.4834 13.5815 20.477 13.6183 20.4751 13.6531C20.4436 13.6169 20.4012 13.5832 20.3509 13.5564C20.2099 13.4814 20.0592 13.4892 20.0142 13.5738C19.9692 13.6584 20.047 13.7877 20.188 13.8627ZM14.5143 13.8981C14.3734 13.9731 14.2226 13.9653 14.1777 13.8807C14.1768 13.8791 14.176 13.8775 14.1753 13.8759C14.1614 13.8906 14.1449 13.9013 14.1262 13.907C14.0346 13.9351 13.9225 13.834 13.8758 13.6813C13.8291 13.5286 13.8655 13.3822 13.9572 13.3541C14.0488 13.3261 14.1609 13.4272 14.2075 13.5799C14.2189 13.617 14.2253 13.6537 14.2272 13.6885C14.2588 13.6523 14.3011 13.6186 14.3515 13.5918C14.4924 13.5169 14.6432 13.5247 14.6881 13.6092C14.7331 13.6938 14.6553 13.8232 14.5143 13.8981Z" fill="#C88A02"/>
<path fill-rule="evenodd" clip-rule="evenodd" d="M17.2625 10.0625H17.5034V10.2148H17.6609V10.4557H17.5034V10.9374H17.6609V11.1783H17.1028V10.9374H17.2625V10.4557H17.1028V10.2148H17.2625V10.0625Z" fill="#C88A02"/>
<rect x="17.2184" y="11.371" width="0.462528" height="1.50322" fill="#C88A02"/>
<path d="M15.3565 11.6229L15.3545 11.7385C14.3292 11.7206 13.741 11.8703 13.5917 12.1685C13.4374 12.4768 13.4661 12.8516 13.6824 13.2968L13.5784 13.3473C13.3476 12.8723 13.3161 12.4608 13.4883 12.1167C13.6656 11.7626 14.2878 11.6043 15.3565 11.6229Z" fill="white"/>
<path d="M15.555 12.6481L15.4957 12.7474C15.2724 12.6141 15.1606 12.3866 15.1606 12.073C15.1606 11.6224 15.3928 11.3581 15.9063 11.1773C16.234 11.0619 16.6816 11.1092 17.2505 11.3154L17.2111 11.4242C16.665 11.2262 16.2424 11.1815 15.9447 11.2863C15.4737 11.4522 15.2763 11.677 15.2763 12.073C15.2763 12.3482 15.3691 12.5371 15.555 12.6481Z" fill="white"/>
<path d="M13.828 13.1194L13.6098 13.196C13.3834 12.5514 13.4481 12.1137 13.8349 11.9248C14.1758 11.7584 14.6726 11.6907 15.3277 11.7173L15.3184 11.9483C14.698 11.9232 14.2366 11.9861 13.9363 12.1327C13.6821 12.2568 13.6356 12.5716 13.828 13.1194Z" fill="#C88A02"/>
<path d="M16.3774 11.4688C15.8486 11.4688 15.6315 11.5976 15.5074 11.9778C15.4284 12.2201 15.505 12.4269 15.7536 12.62L15.6118 12.8027C15.2899 12.5527 15.1765 12.2466 15.2876 11.9061C15.4456 11.4215 15.7558 11.2375 16.3774 11.2375C16.7847 11.2375 17.102 11.3446 17.323 11.5624L17.3574 11.5963V12.7113H17.1262V11.6952C16.9536 11.5453 16.7057 11.4688 16.3774 11.4688Z" fill="#C88A02"/>
<path d="M19.3918 11.7384L19.3938 11.854C20.4191 11.8361 21.0073 11.9858 21.1566 12.284C21.3109 12.5923 21.2822 12.9671 21.0659 13.4123L21.1699 13.4628C21.4007 12.9878 21.4322 12.5763 21.26 12.2322C21.0827 11.878 20.4605 11.7198 19.3918 11.7384Z" fill="white"/>
<path d="M19.0296 12.6722L19.0889 12.7715C19.3122 12.6381 19.424 12.4106 19.424 12.0971C19.424 11.6464 19.1918 11.3822 18.6783 11.2013C18.3506 11.0859 17.9029 11.1332 17.3341 11.3395L17.3735 11.4482C17.9196 11.2502 18.3422 11.2055 18.6399 11.3104C19.1109 11.4763 19.3083 11.701 19.3083 12.0971C19.3083 12.3722 19.2155 12.5612 19.0296 12.6722Z" fill="white"/>
<path d="M20.9922 13.235L21.2104 13.3116C21.4368 12.667 21.3721 12.2293 20.9853 12.0404C20.6444 11.874 20.1476 11.8063 19.4925 11.8329L19.5018 12.0639C20.1221 12.0388 20.5836 12.1017 20.8838 12.2483C21.1381 12.3724 21.1846 12.6872 20.9922 13.235Z" fill="#C88A02"/>
<path d="M18.4298 11.4866C18.9585 11.4866 19.1757 11.6154 19.2997 11.9956C19.3788 12.238 19.3021 12.4448 19.0535 12.6378L19.1953 12.8205C19.5172 12.5705 19.6307 12.2644 19.5196 11.9239C19.3615 11.4393 19.0513 11.2554 18.4298 11.2554C18.0224 11.2554 17.7051 11.3624 17.4842 11.5802L17.4497 11.6142V12.7291H17.681V11.713C17.8535 11.5631 18.1014 11.4866 18.4298 11.4866Z" fill="#C88A02"/>
<path opacity="0.3" fill-rule="evenodd" clip-rule="evenodd" d="M13.6338 15.418H21.1499V22.1709C21.1499 22.1709 20.5916 24.4373 17.3918 24.4373C14.1921 24.4373 13.6338 22.1112 13.6338 22.1112V15.418Z" fill="#E1E5E8"/>
<mask id="mask4_219_3391" style="mask-type:luminance" maskUnits="userSpaceOnUse" x="13" y="15" width="9" height="10">
<path fill-rule="evenodd" clip-rule="evenodd" d="M13.6338 15.418H21.1499V22.1709C21.1499 22.1709 20.5916 24.4373 17.3918 24.4373C14.1921 24.4373 13.6338 22.1112 13.6338 22.1112V15.418Z" fill="white"/>
</mask>
<g mask="url(#mask4_219_3391)">
<rect x="13.6338" y="19.5808" width="3.81586" height="4.50965" fill="#FFC034"/>
<rect x="14.0963" y="19.8121" width="0.462528" height="4.27838" fill="#E33534"/>
<rect x="15.7151" y="19.8121" width="0.462528" height="4.27838" fill="#E33534"/>
<rect x="14.9058" y="19.8121" width="0.462528" height="4.27838" fill="#E33534"/>
<rect x="16.5245" y="19.8121" width="0.462528" height="4.27838" fill="#E33534"/>
<rect x="13.6338" y="15.3024" width="3.81586" height="4.39401" fill="#E33534"/>
<rect x="17.3341" y="19.4652" width="3.81586" height="4.39401" fill="#E33534"/>
<rect x="17.3341" y="15.418" width="4.04712" height="4.27838" fill="white"/>
<path fill-rule="evenodd" clip-rule="evenodd" d="M15.2527 15.7651H15.5996V16.7245H15.8309V16.2447H16.1778V16.7245H16.5246V17.324H16.1777V18.4032H16.5246V19.0028H14.4432V18.4032H14.7902V17.324H14.4432V16.7245H14.6745V16.2447H15.0214V16.7245H15.2527V15.7651Z" fill="#C88A02"/>
<path d="M19.3192 15.9664L19.556 15.7129L20.0532 16.1773L19.8164 16.4308L19.3192 15.9664Z" fill="#C88A02"/>
<path fill-rule="evenodd" clip-rule="evenodd" d="M20.7452 22.5171V19.9855H17.8544V22.4959L17.859 22.5154C18.0053 23.139 18.5036 23.4544 19.2998 23.4544C20.0951 23.4544 20.5934 23.1471 20.7403 22.5371L20.7452 22.5171ZM19.2998 23.1076C18.661 23.1076 18.3122 22.8924 18.2013 22.455V20.3324H20.3983V22.4751C20.2877 22.8982 19.9388 23.1076 19.2998 23.1076Z" fill="#FFC034"/>
<path fill-rule="evenodd" clip-rule="evenodd" d="M19.419 20.1971H19.1781V21.3448L18.2285 20.3119L18.0582 20.4684L18.9172 21.4027H18.1389V21.7496H18.7367H18.936L18.0583 22.7041L18.2286 22.8606L19.1781 21.8279V23.1694H19.419V21.9484L20.2577 22.8606L20.4279 22.7041L19.5503 21.7496H20.5299V21.4027H19.5691L20.428 20.4684L20.2578 20.3119L19.419 21.2242V20.1971Z" fill="#FFC034"/>
<path fill-rule="evenodd" clip-rule="evenodd" d="M19.8395 23.862C19.8395 23.862 17.3904 24.0545 17.3904 22.475C17.3904 22.475 17.367 23.862 14.8097 23.862V25.109H19.8395V23.862Z" fill="white"/>
<path fill-rule="evenodd" clip-rule="evenodd" d="M17.3918 20.5059C17.8707 20.5059 18.259 20.0917 18.259 19.5808C18.259 19.0699 17.8707 18.6558 17.3918 18.6558C16.9128 18.6558 16.5245 19.0699 16.5245 19.5808C16.5245 20.0917 16.9128 20.5059 17.3918 20.5059Z" fill="#C88A02" stroke="#E33534" stroke-width="1.67708"/>
</g>
</g>
</g>
</g>
<g style="mix-blend-mode:hard-light" opacity="0.12">
<rect width="46" height="34.5" fill="white"/>
</g>
<rect width="46" height="34.5" fill="url(#paint0_linear_219_3391)" fill-opacity="0.64" style="mix-blend-mode:overlay"/>
</g>
<defs>
<linearGradient id="paint0_linear_219_3391" x1="46" y1="1.71455e-06" x2="2.31409e-06" y2="34.5" gradientUnits="userSpaceOnUse">
<stop stop-color="white" stop-opacity="0.3"/>
<stop offset="0.262741" stop-opacity="0.27"/>
<stop offset="0.369956" stop-color="white" stop-opacity="0.26"/>
<stop offset="0.487001" stop-opacity="0.55"/>
<stop offset="0.594445" stop-opacity="0.24"/>
<stop offset="0.736408" stop-color="white" stop-opacity="0.3"/>
<stop offset="0.901459" stop-color="#272727" stop-opacity="0.22"/>
<stop offset="1" stop-opacity="0.2"/>
</linearGradient>
<clipPath id="clip0_219_3391">
<rect width="46" height="34.5" fill="white"/>
</clipPath>
<clipPath id="clip1_219_3391">
<rect width="46" height="34.5" fill="white"/>
</clipPath>
</defs>
</svg>
