<svg width="24" height="24" viewBox="0 0 24 24" fill="none" xmlns="http://www.w3.org/2000/svg">
<g clip-path="url(#clip0_6144_24305)">
<g clip-path="url(#clip1_6144_24305)">
<mask id="mask0_6144_24305" style="mask-type:luminance" maskUnits="userSpaceOnUse" x="-4" y="0" width="32" height="24">
<rect x="-4" width="32" height="24" fill="white"/>
</mask>
<g mask="url(#mask0_6144_24305)">
<path fill-rule="evenodd" clip-rule="evenodd" d="M-4 0V24H28V0H-4Z" fill="#67BFE5"/>
<mask id="mask1_6144_24305" style="mask-type:luminance" maskUnits="userSpaceOnUse" x="-4" y="0" width="32" height="24">
<path fill-rule="evenodd" clip-rule="evenodd" d="M-4 0V24H28V0H-4Z" fill="white"/>
</mask>
<g mask="url(#mask1_6144_24305)">
<path fill-rule="evenodd" clip-rule="evenodd" d="M16 10H25.6552V18.3333C25.6552 18.3333 24.8455 22 20.8276 22C16.8097 22 16 18.3333 16 18.3333V10Z" fill="#F7FCFF"/>
<mask id="mask2_6144_24305" style="mask-type:luminance" maskUnits="userSpaceOnUse" x="16" y="10" width="10" height="12">
<path fill-rule="evenodd" clip-rule="evenodd" d="M16 10H25.6552V18.3333C25.6552 18.3333 24.8455 22 20.8276 22C16.8097 22 16 18.3333 16 18.3333V10Z" fill="white"/>
</mask>
<g mask="url(#mask2_6144_24305)">
<rect x="16" y="10" width="9.65517" height="3" fill="#C3352C"/>
<rect x="20.1379" y="12.6667" width="1.37931" height="9.33333" fill="#C3352C"/>
<rect x="16" y="16.3333" width="9.65517" height="1.33333" fill="#C3352C"/>
<path fill-rule="evenodd" clip-rule="evenodd" d="M18.5405 20.737C19.121 21.5576 19.5941 21.878 19.9286 21.3943C20.1636 21.0545 20.1878 20.7146 19.853 20.648C19.6588 20.4012 19.5217 20.2087 19.4434 20.0744L19.4547 20.0638C19.5486 19.9725 19.5521 19.8508 19.5335 19.8054C19.5265 19.7433 19.573 19.6589 19.8748 19.4282C20.148 19.2193 20.2693 19.0226 20.0902 18.8059C19.996 18.692 19.9114 18.6692 19.6445 18.628L19.5625 18.6152C19.4835 18.6026 19.4261 18.59 19.3899 18.5791L19.2044 18.2235C18.8168 18.2116 18.5139 18.28 18.1826 18.4198C18.0399 18.4801 17.9437 18.5211 17.8795 18.5484C17.7818 18.59 17.7583 18.6 17.7575 18.5985C17.7573 18.5981 17.7593 18.5964 17.762 18.5943C17.7697 18.5882 17.7825 18.578 17.764 18.578C17.6941 18.578 17.6184 18.5702 17.4085 18.5435L17.3673 18.5383C16.7638 18.4625 16.6126 18.4649 16.5148 18.7459C16.366 19.1733 17.2469 19.9569 17.7147 20.0511C17.9489 20.0982 18.2293 20.3225 18.5405 20.737ZM19.1967 20.1485C19.2535 20.1485 19.2973 20.1462 19.3358 20.1358L19.3475 20.1101C19.3161 20.1315 19.2689 20.1485 19.1967 20.1485ZM16.9941 18.9681C16.9817 18.9536 16.9784 18.9349 16.987 18.9102C16.9852 18.9153 16.9908 18.9263 17.0026 18.9418C17.0142 18.9572 17.0316 18.977 17.0538 19.0001C17.027 18.9924 17.0062 18.9822 16.9941 18.9681ZM17.8133 19.5609C17.6457 19.5272 17.2193 19.1724 17.0538 19.0001C17.0972 19.0125 17.1564 19.0186 17.22 19.0251C17.2478 19.0279 17.2764 19.0308 17.305 19.0344L17.3455 19.0395C17.5813 19.0695 17.6636 19.078 17.764 19.078C17.8218 19.078 17.8098 19.098 17.8026 19.1101C17.8004 19.1138 17.7986 19.1168 17.7994 19.1182C17.8028 19.1239 17.8484 19.1046 18.0763 19.0079L18.0763 19.0079L18.0763 19.0078C18.1537 18.975 18.2522 18.9332 18.3771 18.8805C18.5541 18.8057 18.7158 18.7573 18.8932 18.7355C18.9128 18.8193 18.9615 18.895 19.0409 18.9566C19.1473 19.0392 19.2676 19.0739 19.4745 19.1075C19.2173 19.3191 19.0883 19.4961 19.0475 19.6687C18.8163 19.7418 18.8373 20.0025 18.9761 20.263C19.0728 20.4446 19.2556 20.702 19.5276 21.0424L19.7229 21.1364C19.6653 21.1364 19.6331 21.1099 19.6086 21.0899C19.5778 21.0645 19.5592 21.0493 19.5173 21.11C19.5145 21.1141 19.3326 20.9909 18.9445 20.4425C18.5625 19.9335 18.1919 19.6371 17.8133 19.5609ZM19.0327 19.8605C19.0362 19.8576 19.0359 19.8537 19.0355 19.8498L19.0355 19.8497L19.0327 19.8605ZM19.1926 19.6486L19.1776 19.6488L19.1846 19.6493C19.1873 19.6488 19.1899 19.6487 19.1926 19.6486ZM19.1967 19.6485C19.1953 19.6485 19.194 19.6485 19.1926 19.6486L19.1967 19.6485Z" fill="#979797"/>
<path d="M17.6551 16.1102C17.6551 16.1102 17.178 15.4501 17.178 15.2148" stroke="#964C36"/>
<path d="M17.3588 15.5426C17.3588 15.5426 16.7488 15.2821 16.7488 15.5426" stroke="#2A8E51"/>
<path d="M17.3489 15.2687C17.3489 15.2687 16.9198 14.7229 16.5973 14.7229C16.2747 14.7229 16.2824 14.9958 16.2824 14.9958" stroke="#2A8E51"/>
<path d="M17.104 14.7219C17.104 14.7219 16.9126 13.8291 16.6059 13.8291C16.2993 13.8291 16.2993 14.2755 16.2993 14.2755" stroke="#2A8E51"/>
<path d="M17.1814 14.7202C17.1814 14.7202 17.096 13.9551 17.4909 13.9551" stroke="#2A8E51"/>
<path d="M18.2612 15.9811C18.2612 15.9811 18.0387 15.1977 18.1191 14.9766" stroke="#964C36"/>
<path d="M18.1768 15.3467C18.1768 15.3467 17.6927 14.8932 17.6036 15.138" stroke="#2A8E51"/>
<path d="M18.2612 15.0857C18.2612 15.0857 18.0447 14.4261 17.7416 14.3158C17.4385 14.2054 17.3524 14.4645 17.3524 14.4645" stroke="#2A8E51"/>
<path d="M18.2182 14.4882C18.2182 14.4882 18.3436 13.5838 18.0555 13.4789C17.7673 13.374 17.6147 13.7935 17.6147 13.7935" stroke="#2A8E51"/>
<path d="M18.2914 14.513C18.2914 14.513 18.4728 13.7648 18.8438 13.8998" stroke="#2A8E51"/>
<path d="M18.7522 16.2602C18.7522 16.2602 19.0686 15.5098 19.0156 15.2805" stroke="#964C36" stroke-width="0.7"/>
<path d="M18.9132 15.6406C18.9132 15.6406 19.449 15.2495 19.5076 15.5034" stroke="#2A8E51" stroke-width="0.7"/>
<path d="M18.8613 15.3714C18.8613 15.3714 19.1566 14.743 19.4709 14.6705C19.7852 14.5979 19.839 14.8656 19.839 14.8656" stroke="#2A8E51" stroke-width="0.7"/>
<path d="M18.9768 14.7836C18.9768 14.7836 18.9625 13.8706 19.2613 13.8016C19.5601 13.7327 19.6605 14.1676 19.6605 14.1676" stroke="#2A8E51" stroke-width="0.7"/>
<path d="M18.901 14.7992C18.901 14.7992 18.8121 14.0345 18.4274 14.1233" stroke="#2A8E51" stroke-width="0.7"/>
<path d="M22.698 15.8017C22.698 15.8017 22.94 14.6882 23.6286 14.6882C24.3173 14.6882 24.6254 15.8646 24.6254 15.8646" stroke="#2A8E51" stroke-width="0.7"/>
<path d="M22.1294 15.0416C22.1294 15.0416 22.5002 14.3839 23.7241 14.4377C24.9479 14.4914 25.171 15.0416 25.171 15.0416" stroke="#2A8E51" stroke-width="0.7"/>
<path d="M21.8821 14.2052C21.8821 14.2052 22.5544 13.3725 23.4965 14.0784L23.8157 14.2052C23.8157 14.2052 24.1358 13.2616 25.6821 14.2052" stroke="#2A8E51" stroke-width="0.7"/>
<path d="M23.7384 16.0369C23.7384 16.0369 23.7876 14.9976 23.9524 14.7122" stroke="#964C36"/>
<path d="M25.0987 18.3138C25.0987 18.3138 24.4806 18.0231 24.2956 18.3138C24.1107 18.6045 21.8828 21.2756 21.8828 21.2756" stroke="#964C36"/>
<path fill-rule="evenodd" clip-rule="evenodd" d="M22.9644 18.5951L24.3452 19.5603C24.3452 19.5603 24.9807 19.107 24.6629 18.851C24.3452 18.5951 23.4793 18.1438 23.4793 18.1438L22.9644 18.5951Z" fill="#FFF203"/>
<path fill-rule="evenodd" clip-rule="evenodd" d="M22.9166 18.6445C22.9166 18.6445 22.5967 18.9794 22.5967 19.2354C22.5967 19.4913 22.2991 20.1774 22.2991 20.1774C22.2991 20.1774 23.1315 20.6898 23.3043 20.3634C23.4772 20.037 24.5997 20.2325 24.4018 19.7339C24.2038 19.2354 22.9166 18.6445 22.9166 18.6445Z" fill="#00A651"/>
<path fill-rule="evenodd" clip-rule="evenodd" d="M17.0562 11.1823C17.0562 11.1823 17.7935 10.804 18.1585 11.1823C18.5234 11.5607 18.8225 11.151 18.8225 10.9228C18.8225 10.6945 19.402 9.91107 19.402 10.5467C19.402 11.1823 19.2216 11.5412 19.731 11.5412C20.2404 11.5412 22.5341 10.6632 23.0841 10.9228C23.6342 11.1823 24.0551 11.1178 23.9152 10.7453C23.7754 10.3729 23.4161 10.1401 22.7241 10.3434C22.0322 10.5467 22.1955 10.7453 21.5974 10.7453C20.9994 10.7453 20.3338 10.5467 20.3338 10.5467C20.3338 10.5467 20.5208 10.2127 21.2035 10.4503C21.8863 10.6879 22.828 10.1561 23.0841 10.1561C23.3403 10.1561 24.0452 10.1401 24.115 10.3434C24.1849 10.5467 24.6105 10.7332 24.2861 10.9228C23.9617 11.1123 23.4267 11.231 23.7948 11.4738C24.1629 11.7166 25.0093 11.6698 25.0501 11.9224C25.0909 12.175 25.4921 12.5521 25.3311 12.5521C25.17 12.5521 24.8791 12.9078 24.6081 12.7995C24.3372 12.6912 24.3053 12.5961 24.5651 12.5084C24.8249 12.4206 24.8224 12.0517 24.6081 12.0517C24.3938 12.0517 24.4984 12.1809 24.0105 12.0517C23.5226 11.9224 22.8768 11.7787 22.9156 12.0517C22.9545 12.3246 23.2721 12.7437 22.686 12.7995C22.0999 12.8554 21.8256 13.0796 21.7115 12.899C21.5974 12.7185 21.1897 12.4779 21.5103 12.4007C21.8309 12.3236 22.1373 12.663 22.2528 12.6075C22.3683 12.5521 22.6301 12.5213 22.4108 12.2865C22.1916 12.0517 21.8302 11.9134 22.1652 11.7377C22.5003 11.5619 22.2359 11.5583 21.5974 11.9224C20.959 12.2865 20.6039 12.5959 20.0434 12.5521C19.4829 12.5084 19.2729 12.5674 19.0928 12.5084C18.9126 12.4494 18.0352 13.1605 17.7825 12.98C17.5299 12.7995 16.7142 12.7303 16.8611 12.5084C17.0079 12.2865 17.205 12.1722 17.4246 12.2865C17.6442 12.4007 17.8623 12.515 18.0104 12.4007C18.1585 12.2865 18.5861 11.8944 18.4785 11.8161C18.371 11.7377 18.475 11.4738 17.866 11.4738C17.257 11.4738 17.0429 11.7679 16.8984 11.5826C16.7538 11.3973 17.0562 11.1823 17.0562 11.1823Z" fill="#FFD100"/>
</g>
<rect x="-4" width="18" height="14" fill="#2B409A"/>
<mask id="mask3_6144_24305" style="mask-type:luminance" maskUnits="userSpaceOnUse" x="-4" y="0" width="18" height="14">
<rect x="-4" width="18" height="14" fill="white"/>
</mask>
<g mask="url(#mask3_6144_24305)">
<path d="M-6.00415 12.9999L-2.0432 14.7371L14.09 1.88878L16.1793 -0.692749L11.9436 -1.27337L5.3633 4.26332L0.0667939 7.99375L-6.00415 12.9999Z" fill="#F7FCFF"/>
<path d="M-5.46191 14.217L-3.44399 15.2251L15.429 -0.932617H12.5956L-5.46191 14.217Z" fill="#E31D1C"/>
<path d="M16.0044 12.9999L12.0434 14.7371L-4.08975 1.88878L-6.17906 -0.692749L-1.9434 -1.27337L4.63695 4.26332L9.93345 7.99375L16.0044 12.9999Z" fill="#F7FCFF"/>
<path d="M15.8691 13.8732L13.8512 14.8813L5.81489 7.96339L3.43229 7.19046L-6.3802 -0.684069H-3.54681L6.26018 7.00356L8.86513 7.93038L15.8691 13.8732Z" fill="#E31D1C"/>
<mask id="path-40-outside-1_6144_24305" maskUnits="userSpaceOnUse" x="-6" y="-2" width="22" height="18" fill="black">
<rect fill="white" x="-6" y="-2" width="22" height="18"/>
<path fill-rule="evenodd" clip-rule="evenodd" d="M5.98451 0H3.98451V6H-4V8H3.98451V14H5.98451V8H14V6H5.98451V0Z"/>
</mask>
<path fill-rule="evenodd" clip-rule="evenodd" d="M5.98451 0H3.98451V6H-4V8H3.98451V14H5.98451V8H14V6H5.98451V0Z" fill="#E31D1C"/>
<path d="M3.98451 0V-1.5H2.48451V0H3.98451ZM5.98451 0H7.48451V-1.5H5.98451V0ZM3.98451 6V7.5H5.48451V6H3.98451ZM-4 6V4.5H-5.5V6H-4ZM-4 8H-5.5V9.5H-4V8ZM3.98451 8H5.48451V6.5H3.98451V8ZM3.98451 14H2.48451V15.5H3.98451V14ZM5.98451 14V15.5H7.48451V14H5.98451ZM5.98451 8V6.5H4.48451V8H5.98451ZM14 8V9.5H15.5V8H14ZM14 6H15.5V4.5H14V6ZM5.98451 6H4.48451V7.5H5.98451V6ZM3.98451 1.5H5.98451V-1.5H3.98451V1.5ZM5.48451 6V0H2.48451V6H5.48451ZM-4 7.5H3.98451V4.5H-4V7.5ZM-2.5 8V6H-5.5V8H-2.5ZM3.98451 6.5H-4V9.5H3.98451V6.5ZM5.48451 14V8H2.48451V14H5.48451ZM5.98451 12.5H3.98451V15.5H5.98451V12.5ZM4.48451 8V14H7.48451V8H4.48451ZM14 6.5H5.98451V9.5H14V6.5ZM12.5 6V8H15.5V6H12.5ZM5.98451 7.5H14V4.5H5.98451V7.5ZM4.48451 0V6H7.48451V0H4.48451Z" fill="#F7FCFF" mask="url(#path-40-outside-1_6144_24305)"/>
</g>
</g>
</g>
</g>
<g style="mix-blend-mode:hard-light" opacity="0.12">
<rect width="24" height="24" rx="12" fill="white"/>
</g>
<rect width="24" height="24" fill="url(#paint0_linear_6144_24305)" fill-opacity="0.64" style="mix-blend-mode:overlay"/>
</g>
<defs>
<linearGradient id="paint0_linear_6144_24305" x1="24" y1="1.19273e-06" x2="-4.48665" y2="16.0237" gradientUnits="userSpaceOnUse">
<stop stop-color="white" stop-opacity="0.3"/>
<stop offset="0.262741" stop-opacity="0.27"/>
<stop offset="0.369956" stop-color="white" stop-opacity="0.26"/>
<stop offset="0.487001" stop-opacity="0.55"/>
<stop offset="0.594445" stop-opacity="0.24"/>
<stop offset="0.736408" stop-color="white" stop-opacity="0.3"/>
<stop offset="0.901459" stop-color="#272727" stop-opacity="0.22"/>
<stop offset="1" stop-opacity="0.2"/>
</linearGradient>
<clipPath id="clip0_6144_24305">
<rect width="24" height="24" rx="12" fill="white"/>
</clipPath>
<clipPath id="clip1_6144_24305">
<rect width="24" height="24" fill="white"/>
</clipPath>
</defs>
</svg>
