<svg width="24" height="24" viewBox="0 0 24 24" fill="none" xmlns="http://www.w3.org/2000/svg">
<g clip-path="url(#clip0_6144_24320)">
<g clip-path="url(#clip1_6144_24320)">
<mask id="mask0_6144_24320" style="mask-type:luminance" maskUnits="userSpaceOnUse" x="-4" y="0" width="32" height="24">
<rect x="-4" width="32" height="24" fill="white"/>
</mask>
<g mask="url(#mask0_6144_24320)">
<path fill-rule="evenodd" clip-rule="evenodd" d="M-4 16H28V24H-4V16Z" fill="#5EAA22"/>
<path fill-rule="evenodd" clip-rule="evenodd" d="M-4 8H28V16H-4V8Z" fill="#FECA00"/>
<path fill-rule="evenodd" clip-rule="evenodd" d="M-4 0H28V8H-4V0Z" fill="#E11C1B"/>
</g>
<path fill-rule="evenodd" clip-rule="evenodd" d="M12.1945 13.927C12.1171 13.8855 12.0237 13.8869 11.9476 13.9306L10.1479 14.9652C9.94534 15.0817 9.70612 14.8865 9.77954 14.6647L10.3534 12.9314C10.3848 12.8366 10.3578 12.7323 10.2845 12.6645L9.08228 11.5542C8.91382 11.3986 9.021 11.1171 9.25028 11.1129L10.9144 11.0827C11.0139 11.0809 11.1032 11.0212 11.143 10.93L11.9172 9.15281C12.0076 8.94516 12.3039 8.95034 12.3871 9.16101L13.0963 10.9581C13.1341 11.0537 13.2257 11.1173 13.3285 11.1191L14.9729 11.1478C15.2031 11.1518 15.31 11.4353 15.1396 11.5903L13.8978 12.7201C13.8216 12.7893 13.7947 12.8977 13.8296 12.9945L14.413 14.6125C14.492 14.8318 14.259 15.0332 14.0535 14.923L12.1945 13.927Z" fill="#292B2E"/>
</g>
<g style="mix-blend-mode:hard-light" opacity="0.12">
<rect width="24" height="24" rx="12" fill="white"/>
</g>
<rect width="24" height="24" fill="url(#paint0_linear_6144_24320)" fill-opacity="0.64" style="mix-blend-mode:overlay"/>
</g>
<defs>
<linearGradient id="paint0_linear_6144_24320" x1="24" y1="1.19273e-06" x2="-4.48665" y2="16.0237" gradientUnits="userSpaceOnUse">
<stop stop-color="white" stop-opacity="0.3"/>
<stop offset="0.262741" stop-opacity="0.27"/>
<stop offset="0.369956" stop-color="white" stop-opacity="0.26"/>
<stop offset="0.487001" stop-opacity="0.55"/>
<stop offset="0.594445" stop-opacity="0.24"/>
<stop offset="0.736408" stop-color="white" stop-opacity="0.3"/>
<stop offset="0.901459" stop-color="#272727" stop-opacity="0.22"/>
<stop offset="1" stop-opacity="0.2"/>
</linearGradient>
<clipPath id="clip0_6144_24320">
<rect width="24" height="24" rx="12" fill="white"/>
</clipPath>
<clipPath id="clip1_6144_24320">
<rect width="24" height="24" fill="white"/>
</clipPath>
</defs>
</svg>
