<svg width="81" height="82" viewBox="0 0 81 82" fill="none" xmlns="http://www.w3.org/2000/svg">
<path d="M56.1798 9.40991H28.0197C26.0756 9.40991 24.4996 11.178 24.4996 13.3587V68.6413C24.4996 70.822 26.0756 72.5899 28.0197 72.5899H56.1798C58.1239 72.5899 59.6999 70.822 59.6999 68.6413V13.3587C59.6999 11.178 58.1239 9.40991 56.1798 9.40991Z" fill="#292B2E" stroke="#292B2E" stroke-linecap="round" stroke-linejoin="round"/>
<path d="M52.9803 9.40991H24.8201C22.876 9.40991 21.3 11.178 21.3 13.3587V68.6413C21.3 70.822 22.876 72.5899 24.8201 72.5899H52.9803C54.9244 72.5899 56.5003 70.822 56.5003 68.6413V13.3587C56.5003 11.178 54.9244 9.40991 52.9803 9.40991Z" fill="white" stroke="#292B2E" stroke-linecap="round" stroke-linejoin="round"/>
<path d="M34.8997 12.6298H42.8997" stroke="#292B2E" stroke-linecap="round" stroke-linejoin="round"/>
<path d="M39.2466 31.4904C39.2419 31.4904 39.2371 31.4904 39.2324 31.4904C39.2276 31.4904 39.2229 31.4904 39.2182 31.4904C39.2134 31.4904 39.2087 31.4904 39.2039 31.4904C39.1992 31.4904 39.1944 31.4904 39.1897 31.4904C39.185 31.4904 39.1802 31.4904 39.1755 31.4904C39.1707 31.4904 39.166 31.4904 39.1612 31.4904C39.1565 31.4904 39.1518 31.4904 39.147 31.4904C39.1423 31.4904 39.1375 31.4904 39.1328 31.4904C39.128 31.4904 39.1233 31.4904 39.1186 31.4904C39.1138 31.4904 39.1091 31.4904 39.1043 31.4904C39.0996 31.4904 39.0948 31.4904 39.0901 31.4904C39.0854 31.4904 39.0806 31.4904 39.0759 31.4904C39.0711 31.4904 39.0664 31.4904 39.0616 31.4904C39.0569 31.4904 39.0522 31.4904 39.0474 31.4904C39.0427 31.4904 39.0379 31.4904 39.0332 31.4904C39.0284 31.4904 39.0237 31.4904 39.019 31.4904C39.0142 31.4904 39.0095 31.4904 39.0047 31.4904C39 31.4904 38.9952 31.4904 38.9905 31.4904C38.9858 31.4904 38.981 31.4904 38.9763 31.4904C38.9715 31.4904 38.9668 31.4904 38.962 31.4904C38.9573 31.4904 38.9526 31.4904 38.9478 31.4904C38.9431 31.4904 38.9383 31.4904 38.9336 31.4904C38.9288 31.4904 38.9241 31.4904 38.9194 31.4904C38.9146 31.4904 38.9099 31.4904 38.9051 31.4904C38.9004 31.4904 38.8956 31.4904 38.8909 31.4904C38.8862 31.4904 38.8814 31.4904 38.8767 31.4904C38.8719 31.4904 38.8672 31.4904 38.8624 31.4904C38.8577 31.4904 38.853 31.4904 38.8482 31.4904C38.8435 31.4904 38.8387 31.4904 38.834 31.4904C38.8292 31.4904 38.8245 31.4904 38.8198 31.4904C38.815 31.4904 38.8103 31.4904 38.8055 31.4904C38.8008 31.4904 38.796 31.4904 38.7913 31.4904C38.7866 31.4904 38.7818 31.4904 38.7771 31.4904C38.7723 31.4904 38.7676 31.4904 38.7628 31.4904C38.7581 31.4904 38.7534 31.4904 38.7486 31.4904C38.7439 31.4904 38.7391 31.4904 38.7344 31.4904C38.7296 31.4904 38.7249 31.4904 38.7202 31.4904C38.7154 31.4904 38.7107 31.4904 38.7059 31.4904C38.7012 31.4904 38.6965 31.4904 38.6917 31.4904C38.687 31.4904 38.6822 31.4904 38.6775 31.4904C38.6727 31.4904 38.668 31.4904 38.6633 31.4904C38.6585 31.4904 38.6538 31.4904 38.649 31.4904C38.6443 31.4904 38.6395 31.4904 38.6348 31.4904C38.6301 31.4904 38.6253 31.4904 38.6206 31.4904C38.6158 31.4904 38.6111 31.4904 38.6063 31.4904C38.6016 31.4904 38.5969 31.4904 38.5921 31.4904C38.5874 31.4904 38.5826 31.4904 38.5779 31.4904C38.5731 31.4904 38.5684 31.4904 38.5637 31.4904C38.5589 31.4904 38.5542 31.4904 38.5494 31.4904C38.5447 31.4904 38.5399 31.4904 38.5352 31.4904C38.5305 31.4904 38.5257 31.4904 38.521 31.4904C38.5162 31.4904 38.5115 31.4904 38.5067 31.4904C38.502 31.4904 38.4973 31.4904 38.4925 31.4904C38.4878 31.4904 38.483 31.4904 38.4783 31.4904C38.4735 31.4904 38.4688 31.4904 38.4641 31.4904C38.4593 31.4904 38.4546 31.4904 38.4498 31.4904C38.4451 31.4904 38.4403 31.4904 38.4356 31.4904C38.4309 31.4904 38.4261 31.4904 38.4214 31.4904C38.4166 31.4904 38.4119 31.4904 38.4071 31.4904C38.4024 31.4904 38.3977 31.4904 38.3929 31.4904C38.3882 31.4904 38.3834 31.4904 38.3787 31.4904C38.3739 31.4904 38.3692 31.4904 38.3645 31.4904C38.3597 31.4904 38.355 31.4904 38.3502 31.4904C38.3455 31.4904 38.3407 31.4904 38.336 31.4904C38.3313 31.4904 38.3265 31.4904 38.3218 31.4904C38.317 31.4904 38.3123 31.4904 38.3075 31.4904C38.3028 31.4904 38.2981 31.4904 38.2933 31.4904C38.2886 31.4904 38.2838 31.4904 38.2791 31.4904C38.2743 31.4904 38.2696 31.4904 38.2649 31.4904C38.2601 31.4904 38.2554 31.4904 38.2506 31.4904C38.2459 31.4904 38.2411 31.4904 38.2364 31.4904C38.2317 31.4904 38.2269 31.4904 38.2222 31.4904C38.2174 31.4904 38.2127 31.4904 38.2079 31.4904C38.2032 31.4904 38.1985 31.4904 38.1937 31.4904C38.189 31.4904 38.1842 31.4904 38.1795 31.4904C38.1747 31.4904 38.17 31.4904 38.1653 31.4904C38.1605 31.4904 38.1558 31.4904 38.151 31.4904C38.1463 31.4904 38.1415 31.4904 38.1368 31.4904C38.1321 31.4904 38.1273 31.4904 38.1226 31.4904C38.1178 31.4904 38.1131 31.4904 38.1083 31.4904C38.1036 31.4904 38.0989 31.4904 38.0941 31.4904C38.0894 31.4904 38.0846 31.4904 38.0799 31.4904C38.0752 31.4904 38.0704 31.4904 38.0657 31.4904C38.0609 31.4904 38.0562 31.4904 38.0514 31.4904C38.0467 31.4904 38.042 31.4904 38.0372 31.4904C38.0325 31.4904 38.0277 31.4904 38.023 31.4904C38.0182 31.4904 38.0135 31.4904 38.0088 31.4904C38.004 31.4904 37.9993 31.4904 37.9945 31.4904C37.9898 31.4904 37.985 31.4904 37.9803 31.4904C37.9756 31.4904 37.9708 31.4904 37.9661 31.4904C37.9613 31.4904 37.9566 31.4904 37.9518 31.4904C37.9471 31.4904 37.9424 31.4904 37.9376 31.4904C37.9329 31.4904 37.9281 31.4904 37.9234 31.4904C37.9186 31.4904 37.9139 31.4904 37.9092 31.4904C37.9044 31.4904 37.8997 31.4904 37.8949 31.4904C37.8902 31.4904 37.8854 31.4904 37.8807 31.4904C37.876 31.4904 37.8712 31.4904 37.8665 31.4904C37.8617 31.4904 37.857 31.4904 37.8522 31.4904C37.8475 31.4904 37.8428 31.4904 37.838 31.4904C37.8333 31.4904 37.8285 31.4904 37.8238 31.4904C37.819 31.4904 37.8143 31.4904 37.8096 31.4904C37.8048 31.4904 37.8001 31.4904 37.7953 31.4904C32.4265 31.4904 28.0831 35.8391 28.0831 41.185C28.0831 46.531 32.4265 50.8797 37.7659 50.8797C37.7707 50.8797 37.7754 50.8797 37.7802 50.8797C37.7849 50.8797 37.7896 50.8797 37.7944 50.8797C37.7991 50.8797 37.8039 50.8797 37.8086 50.8797C37.8134 50.8797 37.8181 50.8797 37.8228 50.8797C37.8276 50.8797 37.8323 50.8797 37.8371 50.8797C37.8418 50.8797 37.8465 50.8797 37.8513 50.8797C37.856 50.8797 37.8608 50.8797 37.8655 50.8797C37.8703 50.8797 37.875 50.8797 37.8797 50.8797C37.8845 50.8797 37.8892 50.8797 37.894 50.8797C37.8987 50.8797 37.9035 50.8797 37.9082 50.8797C37.9129 50.8797 37.9177 50.8797 37.9224 50.8797C37.9272 50.8797 37.9319 50.8797 37.9367 50.8797C37.9414 50.8797 37.9461 50.8797 37.9509 50.8797C37.9556 50.8797 37.9604 50.8797 37.9651 50.8797C37.9699 50.8797 37.9746 50.8797 37.9793 50.8797C37.9841 50.8797 37.9888 50.8797 37.9936 50.8797C37.9983 50.8797 38.0031 50.8797 38.0078 50.8797C38.0125 50.8797 38.0173 50.8797 38.022 50.8797C38.0268 50.8797 38.0315 50.8797 38.0363 50.8797C38.041 50.8797 38.0457 50.8797 38.0505 50.8797C38.0552 50.8797 38.06 50.8797 38.0647 50.8797C38.0695 50.8797 38.0742 50.8797 38.0789 50.8797C38.0837 50.8797 38.0884 50.8797 38.0932 50.8797C38.0979 50.8797 38.1027 50.8797 38.1074 50.8797C38.1121 50.8797 38.1169 50.8797 38.1216 50.8797C38.1264 50.8797 38.1311 50.8797 38.1359 50.8797C38.1406 50.8797 38.1453 50.8797 38.1501 50.8797C38.1548 50.8797 38.1596 50.8797 38.1643 50.8797C38.1691 50.8797 38.1738 50.8797 38.1785 50.8797C38.1833 50.8797 38.188 50.8797 38.1928 50.8797C38.1975 50.8797 38.2023 50.8797 38.207 50.8797C38.2117 50.8797 38.2165 50.8797 38.2212 50.8797C38.226 50.8797 38.2307 50.8797 38.2355 50.8797C38.2402 50.8797 38.2449 50.8797 38.2497 50.8797C38.2544 50.8797 38.2592 50.8797 38.2639 50.8797C38.2687 50.8797 38.2734 50.8797 38.2781 50.8797C38.2829 50.8797 38.2876 50.8797 38.2924 50.8797C38.2971 50.8797 38.3019 50.8797 38.3066 50.8797C38.3113 50.8797 38.3161 50.8797 38.3208 50.8797C38.3256 50.8797 38.3303 50.8797 38.3351 50.8797C38.3398 50.8797 38.3445 50.8797 38.3493 50.8797C38.354 50.8797 38.3588 50.8797 38.3635 50.8797C38.3683 50.8797 38.373 50.8797 38.3777 50.8797C38.3825 50.8797 38.3872 50.8797 38.392 50.8797C38.3967 50.8797 38.4015 50.8797 38.4062 50.8797C38.4109 50.8797 38.4157 50.8797 38.4204 50.8797C38.4252 50.8797 38.4299 50.8797 38.4347 50.8797C38.4394 50.8797 38.4441 50.8797 38.4489 50.8797C38.4536 50.8797 38.4584 50.8797 38.4631 50.8797C38.4678 50.8797 38.4726 50.8797 38.4773 50.8797C38.4821 50.8797 38.4868 50.8797 38.4916 50.8797C38.4963 50.8797 38.501 50.8797 38.5058 50.8797C38.5105 50.8797 38.5153 50.8797 38.52 50.8797C38.5248 50.8797 38.5295 50.8797 38.5342 50.8797C38.539 50.8797 38.5437 50.8797 38.5485 50.8797C38.5532 50.8797 38.558 50.8797 38.5627 50.8797C38.5674 50.8797 38.5722 50.8797 38.5769 50.8797C38.5817 50.8797 38.5864 50.8797 38.5912 50.8797C38.5959 50.8797 38.6006 50.8797 38.6054 50.8797C38.6101 50.8797 38.6149 50.8797 38.6196 50.8797C38.6244 50.8797 38.6291 50.8797 38.6338 50.8797C38.6386 50.8797 38.6433 50.8797 38.6481 50.8797C38.6528 50.8797 38.6576 50.8797 38.6623 50.8797C38.667 50.8797 38.6718 50.8797 38.6765 50.8797C38.6813 50.8797 38.686 50.8797 38.6908 50.8797C38.6955 50.8797 38.7002 50.8797 38.705 50.8797C38.7097 50.8797 38.7145 50.8797 38.7192 50.8797C38.724 50.8797 38.7287 50.8797 38.7334 50.8797C38.7382 50.8797 38.7429 50.8797 38.7477 50.8797C38.7524 50.8797 38.7572 50.8797 38.7619 50.8797C38.7666 50.8797 38.7714 50.8797 38.7761 50.8797C38.7809 50.8797 38.7856 50.8797 38.7904 50.8797C38.7951 50.8797 38.7998 50.8797 38.8046 50.8797C38.8093 50.8797 38.8141 50.8797 38.8188 50.8797C38.8236 50.8797 38.8283 50.8797 38.833 50.8797C38.8378 50.8797 38.8425 50.8797 38.8473 50.8797C38.852 50.8797 38.8568 50.8797 38.8615 50.8797C38.8662 50.8797 38.871 50.8797 38.8757 50.8797C38.8805 50.8797 38.8852 50.8797 38.89 50.8797C38.8947 50.8797 38.8994 50.8797 38.9042 50.8797C38.9089 50.8797 38.9137 50.8797 38.9184 50.8797C38.9232 50.8797 38.9279 50.8797 38.9326 50.8797C38.9374 50.8797 38.9421 50.8797 38.9469 50.8797C38.9516 50.8797 38.9564 50.8797 38.9611 50.8797C38.9658 50.8797 38.9706 50.8797 38.9753 50.8797C38.9801 50.8797 38.9848 50.8797 38.9896 50.8797C38.9943 50.8797 38.999 50.8797 39.0038 50.8797C39.0085 50.8797 39.0133 50.8797 39.018 50.8797C39.0228 50.8797 39.0275 50.8797 39.0322 50.8797C39.037 50.8797 39.0417 50.8797 39.0465 50.8797C39.0512 50.8797 39.056 50.8797 39.0607 50.8797C39.0654 50.8797 39.0702 50.8797 39.0749 50.8797C39.0797 50.8797 39.0844 50.8797 39.0891 50.8797C39.0939 50.8797 39.0986 50.8797 39.1034 50.8797C39.1081 50.8797 39.1129 50.8797 39.1176 50.8797C39.1223 50.8797 39.1271 50.8797 39.1318 50.8797C39.1366 50.8797 39.1413 50.8797 39.1461 50.8797C39.1508 50.8797 39.1555 50.8797 39.1603 50.8797C39.165 50.8797 39.1698 50.8797 39.1745 50.8797C39.1793 50.8797 39.184 50.8797 39.1887 50.8797C39.1935 50.8797 39.1982 50.8797 39.203 50.8797C39.2077 50.8797 39.2125 50.8797 39.2172 50.8797C44.5566 50.8797 48.9 46.531 48.9 41.185C48.9 35.8391 44.586 31.4904 39.2466 31.4904Z" fill="#292B2E"/>
<path d="M37.766 50.7999C43.0696 50.7999 47.3691 46.4951 47.3691 41.185C47.3691 35.8748 43.0696 31.5701 37.766 31.5701C32.4623 31.5701 28.1628 35.8748 28.1628 41.185C28.1628 46.4951 32.4623 50.7999 37.766 50.7999Z" fill="#EBF3FF" stroke="#292B2E" stroke-width="0.8" stroke-miterlimit="10"/>
<path d="M35.789 46.21C35.5196 46.21 35.2635 46.095 35.0833 45.8946L32.3287 42.8233C31.9787 42.4329 32.011 41.8327 32.4008 41.4823C32.7907 41.1318 33.3901 41.1641 33.7402 41.5545L35.789 43.8395L41.7905 37.1478C42.1405 36.7574 42.74 36.7252 43.1299 37.0756C43.5197 37.426 43.552 38.0263 43.2019 38.4166L36.4948 45.8956C36.3145 46.096 36.0584 46.2109 35.789 46.2109V46.21Z" fill="#292B2E"/>
<path d="M41.7907 37.1476C42.1407 36.7574 42.7399 36.7252 43.1298 37.0756C43.5196 37.4261 43.552 38.0261 43.202 38.4164L36.495 45.8955L36.4239 45.9667C36.2505 46.1229 36.0249 46.2107 35.7891 46.2107V46.2099C35.5534 46.2099 35.3278 46.1218 35.1544 45.9655L35.0833 45.8947L32.329 42.8232C32.0009 42.4572 32.0086 41.9069 32.3321 41.5508L32.4009 41.482C32.7907 41.1316 33.3903 41.1641 33.7403 41.5544L35.7891 43.8392L41.7907 37.1476ZM42.7583 37.4996C42.6075 37.3641 42.3793 37.3678 42.2333 37.5004L42.2052 37.5289L35.7891 44.6828L33.3255 41.9356C33.1822 41.7759 32.9336 41.7615 32.7727 41.906C32.6156 42.0473 32.6034 42.2857 32.7434 42.4419L35.4974 45.5126L35.5266 45.5419C35.598 45.6062 35.6913 45.6427 35.7891 45.6427H35.8099C35.9137 45.6372 36.0107 45.5911 36.0802 45.5142L42.7876 38.0351C42.9274 37.879 42.9153 37.6409 42.7583 37.4996Z" fill="#EBF3FF"/>
</svg>
