<svg width="100" height="100" viewBox="0 0 100 100" fill="none" xmlns="http://www.w3.org/2000/svg">
<path d="M69.5999 11H34.4C31.9699 11 30 13.1828 30 15.8751V84.1251C30 86.8174 31.9699 89 34.4 89H69.5999C72.03 89 73.9999 86.8174 73.9999 84.1251V15.8751C73.9999 13.1828 72.03 11 69.5999 11Z" fill="#292B2E" stroke="#292B2E" stroke-linecap="round" stroke-linejoin="round"/>
<path d="M65.5999 11H30.4C27.9699 11 26 13.1828 26 15.8751V84.1251C26 86.8174 27.9699 89 30.4 89H65.5999C68.03 89 69.9999 86.8174 69.9999 84.1251V15.8751C69.9999 13.1828 68.03 11 65.5999 11Z" fill="white" stroke="#292B2E" stroke-linecap="round" stroke-linejoin="round"/>
<path d="M43 14.9746H53" stroke="#292B2E" stroke-linecap="round" stroke-linejoin="round"/>
<rect x="38.5005" y="40.3162" width="7.84614" height="7.78981" stroke="#292B2E"/>
<rect x="49.6543" y="40.3162" width="7.84614" height="7.78981" stroke="#292B2E"/>
<rect x="38.5005" y="51.3984" width="7.84614" height="7.78981" stroke="#292B2E"/>
<path d="M53.5781 59.6892H51.3662V57.4919H53.5781V59.6892ZM58 59.6892H55.7881V57.4919H58V59.6892ZM51.3662 57.491H49.1543V55.2927H51.3662V57.491ZM55.7891 53.0955H58V55.2937H55.7891V57.491H53.5771V55.2937H51.3662V53.0955H53.5771V50.8982H55.7891V53.0955ZM53.5781 55.2927H55.7881V53.0955H53.5781V55.2927ZM51.3662 53.0955H49.1543V50.8982H51.3662V53.0955Z" fill="#292B2E"/>
<path d="M33.0005 42.2994L33.0005 38.6773C33.0005 36.8364 34.4929 35.344 36.3338 35.344L40.0005 35.344" stroke="#292B2E" stroke-miterlimit="10" stroke-linecap="round" stroke-linejoin="round"/>
<path d="M33.0005 57.7003L33.0005 61.3224C33.0005 63.1634 34.4929 64.6558 36.3338 64.6558L40.0005 64.6558" stroke="#292B2E" stroke-miterlimit="10" stroke-linecap="round" stroke-linejoin="round"/>
<path d="M63.001 42.2994L63.001 38.6773C63.001 36.8364 61.5086 35.344 59.6676 35.344L56.001 35.344" stroke="#292B2E" stroke-miterlimit="10" stroke-linecap="round" stroke-linejoin="round"/>
<path d="M63.001 57.7003L63.001 61.3224C63.001 63.1634 61.5086 64.6558 59.6676 64.6558L56.001 64.6558" stroke="#292B2E" stroke-miterlimit="10" stroke-linecap="round" stroke-linejoin="round"/>
</svg>
