<svg width="24" height="24" viewBox="0 0 24 24" fill="none" xmlns="http://www.w3.org/2000/svg">
<g clip-path="url(#clip0_6144_24342)">
<g clip-path="url(#clip1_6144_24342)">
<mask id="mask0_6144_24342" style="mask-type:luminance" maskUnits="userSpaceOnUse" x="-4" y="0" width="32" height="24">
<rect x="-4" width="32" height="24" fill="white"/>
</mask>
<g mask="url(#mask0_6144_24342)">
<path fill-rule="evenodd" clip-rule="evenodd" d="M-4 0V24H28V0H-4Z" fill="#F7FCFF"/>
<mask id="mask1_6144_24342" style="mask-type:luminance" maskUnits="userSpaceOnUse" x="-4" y="0" width="32" height="24">
<path fill-rule="evenodd" clip-rule="evenodd" d="M-4 0V24H28V0H-4Z" fill="white"/>
</mask>
<g mask="url(#mask1_6144_24342)">
<path fill-rule="evenodd" clip-rule="evenodd" d="M-4 3V6H28V3H-4Z" fill="#3D58DB"/>
<path fill-rule="evenodd" clip-rule="evenodd" d="M-4 18V21H28V18H-4Z" fill="#3D58DB"/>
<path fill-rule="evenodd" clip-rule="evenodd" d="M8.59326 14.1408H15.5155L12.0885 8L8.59326 14.1408ZM14.3307 13.3958H9.80341L12.0816 9.35802L14.3307 13.3958Z" fill="#3D58DB"/>
<path fill-rule="evenodd" clip-rule="evenodd" d="M8.50684 9.81293H15.4585L12.1033 15.7817L8.50684 9.81293ZM14.2512 10.5319H9.82602L12.0837 14.5782L14.2512 10.5319Z" fill="#3D58DB"/>
</g>
</g>
</g>
<g style="mix-blend-mode:hard-light" opacity="0.12">
<rect width="24" height="24" rx="12" fill="white"/>
</g>
<rect width="24" height="24" fill="url(#paint0_linear_6144_24342)" fill-opacity="0.64" style="mix-blend-mode:overlay"/>
</g>
<defs>
<linearGradient id="paint0_linear_6144_24342" x1="24" y1="1.19273e-06" x2="-4.48665" y2="16.0237" gradientUnits="userSpaceOnUse">
<stop stop-color="white" stop-opacity="0.3"/>
<stop offset="0.262741" stop-opacity="0.27"/>
<stop offset="0.369956" stop-color="white" stop-opacity="0.26"/>
<stop offset="0.487001" stop-opacity="0.55"/>
<stop offset="0.594445" stop-opacity="0.24"/>
<stop offset="0.736408" stop-color="white" stop-opacity="0.3"/>
<stop offset="0.901459" stop-color="#272727" stop-opacity="0.22"/>
<stop offset="1" stop-opacity="0.2"/>
</linearGradient>
<clipPath id="clip0_6144_24342">
<rect width="24" height="24" rx="12" fill="white"/>
</clipPath>
<clipPath id="clip1_6144_24342">
<rect width="24" height="24" fill="white"/>
</clipPath>
</defs>
</svg>
