<svg width="24" height="24" viewBox="0 0 24 24" fill="none" xmlns="http://www.w3.org/2000/svg">
<g clip-path="url(#clip0_6144_24352)">
<g clip-path="url(#clip1_6144_24352)">
<mask id="mask0_6144_24352" style="mask-type:luminance" maskUnits="userSpaceOnUse" x="-4" y="0" width="32" height="24">
<rect x="-4" width="32" height="24" fill="white"/>
</mask>
<g mask="url(#mask0_6144_24352)">
<path fill-rule="evenodd" clip-rule="evenodd" d="M-4 0V24H28V0H-4Z" fill="#F7FCFF"/>
<mask id="mask1_6144_24352" style="mask-type:luminance" maskUnits="userSpaceOnUse" x="-4" y="0" width="32" height="24">
<path fill-rule="evenodd" clip-rule="evenodd" d="M-4 0V24H28V0H-4Z" fill="white"/>
</mask>
<g mask="url(#mask1_6144_24352)">
<path fill-rule="evenodd" clip-rule="evenodd" d="M-4 0V8H28V0H-4Z" fill="#292B2E"/>
<path fill-rule="evenodd" clip-rule="evenodd" d="M-4 16V24H28V16H-4Z" fill="#009933"/>
</g>
<path fill-rule="evenodd" clip-rule="evenodd" d="M-4 0V24L16 12L-4 0Z" fill="#E31D1C"/>
<mask id="mask2_6144_24352" style="mask-type:luminance" maskUnits="userSpaceOnUse" x="-4" y="0" width="20" height="24">
<path fill-rule="evenodd" clip-rule="evenodd" d="M-4 0V24L16 12L-4 0Z" fill="white"/>
</mask>
<g mask="url(#mask2_6144_24352)">
<path fill-rule="evenodd" clip-rule="evenodd" d="M5.00179 13.8707L3.13112 15L3.55781 12.7962L2 11.1469L4.10936 11.0578L5.00179 9L5.89423 11.0578H8L6.44578 12.7962L6.91369 15L5.00179 13.8707Z" fill="#F7FCFF"/>
</g>
</g>
</g>
<g style="mix-blend-mode:hard-light" opacity="0.12">
<rect width="24" height="24" rx="12" fill="white"/>
</g>
<rect width="24" height="24" fill="url(#paint0_linear_6144_24352)" fill-opacity="0.64" style="mix-blend-mode:overlay"/>
</g>
<defs>
<linearGradient id="paint0_linear_6144_24352" x1="24" y1="1.19273e-06" x2="-4.48665" y2="16.0237" gradientUnits="userSpaceOnUse">
<stop stop-color="white" stop-opacity="0.3"/>
<stop offset="0.262741" stop-opacity="0.27"/>
<stop offset="0.369956" stop-color="white" stop-opacity="0.26"/>
<stop offset="0.487001" stop-opacity="0.55"/>
<stop offset="0.594445" stop-opacity="0.24"/>
<stop offset="0.736408" stop-color="white" stop-opacity="0.3"/>
<stop offset="0.901459" stop-color="#272727" stop-opacity="0.22"/>
<stop offset="1" stop-opacity="0.2"/>
</linearGradient>
<clipPath id="clip0_6144_24352">
<rect width="24" height="24" rx="12" fill="white"/>
</clipPath>
<clipPath id="clip1_6144_24352">
<rect width="24" height="24" fill="white"/>
</clipPath>
</defs>
</svg>
