<svg xmlns="http://www.w3.org/2000/svg" width="168" height="24" fill="none"><path fill="#292B2E" fill-rule="evenodd" d="M79.72.06c-10.38.5-30.3 5.12-49.05 11.36l-4.42 1.48C13.8 17.05 7.12 19.66 2.45 22.2c-1.83 1-2 1.11-1.94 1.49.07.54.36.46 3.76-1.06 3.5-1.57 6.65-2.71 15.27-5.54C48.36 7.65 61.83 4.18 76.93 2.33c2.95-.36 7.68-.3 7.68.1 0 .54-2.96 2.38-9.83 6.09-8.44 4.56-13.58 7.59-14.04 8.27-.77 1.15.08 1.99 1.93 1.88 1.06-.06 1.3-.11 6.15-1.21 13.93-3.17 22.83-4.77 34.89-6.3 18.37-2.32 30.07-3.17 52.07-3.8 7.9-.23 8.32-.27 9.78-.76.56-.2 1.23-.38 1.49-.42.6-.09.6-.2-.02-.28-.27-.04-.89-.21-1.37-.38-1.2-.43-2-.45-8.85-.25-22.98.67-35.07 1.54-52.59 3.76a267.95 267.95 0 0 0-20.03 3.1c-4.58.89-16.7 3.46-18.39 3.91-.92.25 3.1-2.08 10.15-5.87 8.92-4.8 10.7-6.1 10.7-7.86.02-1.98-1.6-2.5-6.93-2.25Z" clip-rule="evenodd"></path></svg>