<svg xmlns="http://www.w3.org/2000/svg" id="Layer_1" viewBox="0 0 184 100"><defs><style>.cls-1{fill:#56575a;stroke-width:0px;}</style></defs><path class="cls-1" d="M116.93,62.17c-3.66,2.75-7.1,2.72-10.67-.18-1.33-1.09-2.18-2.57-2.75-4.14-1.24-3.44-1.24-6.92.48-10.21,1.78-3.44,4.68-5.23,8.64-5.14,1.33.03,2.48.42,3.47,1.33.24.24.54.42.85.66.39-.33.69-.66,1.06-.94,1.99-1.48,4.44-.45,4.8,1.99.03.24.03.51.03.76,0,4.68.03,9.34,0,14.02-.03,2.54-1.96,3.99-4.14,3.14-.63-.21-1.12-.79-1.78-1.3ZM108.77,53.32c.03.45,0,.91.09,1.36.36,1.78,1.36,3.02,3.14,3.57,1.33.39,2.87-.24,3.84-1.54,1.21-1.6,1.24-4.99.12-6.65-1.69-2.45-5.17-2.27-6.47.36-.48.85-.79,2.87-.73,2.9Z"></path><path class="cls-1" d="M60.4,44.35c.27-.24.63-.6,1.06-.88,2.02-1.3,4.32-.21,4.62,2.18.03.15.03.3.03.45,0,4.86.03,9.76,0,14.62,0,1.93-1.66,3.38-3.38,2.96-.88-.21-1.66-.85-2.51-1.33-.88.45-1.81,1.21-2.9,1.51-3.69,1-6.62-.33-8.91-3.17-3.44-4.32-3.26-11.3.45-15.35,2.15-2.33,4.92-3.26,8.01-2.69,1.18.21,2.24,1.06,3.53,1.69ZM60.1,53.29c-.18-.85-.21-1.72-.54-2.51-.6-1.45-1.69-2.36-3.35-2.45-1.66-.09-2.84.66-3.53,2.11-.94,1.93-.97,3.96.06,5.86,1.33,2.45,4.23,2.75,6.1.66.97-1.06,1.18-2.33,1.27-3.69Z"></path><path class="cls-1" d="M144.15,53.41c-.21,4.26-1.81,7.7-5.68,9.64-6.07,3.02-13.17-.15-14.44-7.61-.51-3.05-.12-5.98,1.63-8.58,2.36-3.53,5.86-4.8,9.91-4.23,3.84.51,6.44,2.87,7.7,6.53.45,1.36.57,2.84.88,4.26ZM133.4,48.31c-.69-.06-1.57.48-2.3,1.36-1.6,1.93-1.66,5.26-.09,7.25,1.51,1.96,4.41,1.9,5.89-.12,1.39-1.9,1.45-4.95.12-6.89-.79-1.06-1.87-1.54-3.63-1.6Z"></path><path class="cls-1" d="M77.32,42.5c5.53-.03,9.18,4.05,9.85,9.09.42,3.26-.21,6.22-2.21,8.88-2.81,3.72-8.58,4.8-12.63,2.45-2.93-1.72-4.44-4.35-5.02-7.58-.3-1.75-.21-3.5.24-5.26,1.21-4.71,4.89-7.58,9.76-7.58ZM81.37,52.96c-.21-.69-.36-1.66-.76-2.51-1.21-2.54-4.8-2.84-6.41-.6-1.33,1.84-1.36,4.99-.06,6.89,1,1.45,2.99,1.99,4.59,1.27,2.05-.94,2.36-2.84,2.63-5.05Z"></path><path class="cls-1" d="M45.03,49.97c0,3.41.03,6.8,0,10.21,0,.69-.06,1.45-.33,2.08-.45,1.18-1.39,1.87-2.69,1.93-1.24.03-2.39-.73-2.81-1.93-.18-.45-.27-1-.27-1.48-.03-7.16,0-14.32,0-21.48,0-.3,0-.6.06-.91.27-1.54,1.3-2.48,2.75-2.57,1.51-.09,2.66.69,3.11,2.15.15.51.18,1.09.18,1.66v10.33Z"></path><path class="cls-1" d="M31.58,49.88c0-3.66-.03-7.31,0-10.97.03-1.96,1.36-3.2,3.17-3.11,1.33.09,2.3.82,2.69,2.08.15.51.24,1.09.24,1.63.03,6.95,0,13.9,0,20.88,0,.45-.03.91-.15,1.36-.39,1.51-1.69,2.51-3.08,2.42-1.51-.09-2.69-1.27-2.84-2.87-.06-.76-.03-1.51-.03-2.3,0-3.02,0-6.07,0-9.12h0Z"></path><path class="cls-1" d="M88.32,50c0-3.72-.03-7.4,0-11.12.03-1.84,1.21-3.05,2.87-3.08,1.39-.03,2.6.82,2.93,2.18.18.66.27,1.39.27,2.11.03,6.59.03,13.2,0,19.79,0,.66-.06,1.33-.21,1.96-.36,1.51-1.66,2.48-3.11,2.36-1.6-.15-2.72-1.24-2.75-2.9-.03-3.78,0-7.55,0-11.3h0Z"></path><path class="cls-1" d="M95.66,49.85v-10.21c0-.63.09-1.33.3-1.93.48-1.36,1.42-1.96,2.78-1.9,1.3.06,2.33.79,2.72,2.05.18.57.27,1.21.27,1.78.03,6.8.03,13.63,0,20.42,0,.63-.12,1.33-.3,1.93-.48,1.51-1.69,2.33-3.11,2.15-1.45-.18-2.45-1.21-2.63-2.72-.06-.39-.03-.82-.03-1.21,0-3.44,0-6.92,0-10.36Z"></path><path class="cls-1" d="M152.43,60.84c0,1.87-1.54,3.38-3.41,3.35-1.72-.03-3.29-1.6-3.32-3.32-.03-1.84,1.51-3.38,3.35-3.38,1.93-.03,3.38,1.45,3.38,3.35Z"></path></svg>