<svg xmlns="http://www.w3.org/2000/svg" width="184" height="100" fill="none"><path fill="#56575A" d="M64.04 61.98c-.84-.1-2-.32-2.72-.54a12.76 12.76 0 0 1-3.64-1.98 11.57 11.57 0 0 1-4.43-8.35c-.14-1.8.24-3.76 1.07-5.55 1.62-3.53 4.85-6.32 8.3-7.2 1.11-.27 1.89-.36 3.13-.36s1.85.08 2.98.37a11.7 11.7 0 0 1 8.49 13.21 12.32 12.32 0 0 1-5.54 8.48 12.49 12.49 0 0 1-3.77 1.63c-.86.21-3.02.37-3.87.29Zm4.5-2.29c.4-.05.58-.1.76-.22.32-.21 1.43-1.3 1.76-1.72a11.34 11.34 0 0 0 2.4-7.11c0-2.37-.68-4.58-1.93-6.3a9.28 9.28 0 0 0-6.04-3.75 13.44 13.44 0 0 0-4.15.08c-.22.06-1.05.77-1.54 1.32-1.7 1.91-2.55 4.33-2.55 7.33 0 1.25.08 1.92.38 3.1a9.52 9.52 0 0 0 5.85 6.68c.65.25 1.74.49 2.8.61.4.05 1.76.04 2.25-.02Zm35.78 2.03-.5-.03-.1-.32-1.85-6.54A4182.94 4182.94 0 0 0 98 41.15c-.1-.37-.24-.77-.3-.9-.1-.17-.77-.94-1.34-1.52-.04-.05-.07-.17-.07-.28v-.2l3.5.02 3.5.01.02.16c.02.14-.07.26-.56.78-.76.79-.8.86-.76 1.15.03.2.45 1.76 1.24 4.6 1.34 4.8 2.08 7.48 2.5 9.07.4 1.47.46 1.65.5 1.54.05-.1.22-.58 1.5-4.29 3.86-11.23 4.46-12.95 4.52-12.98.22-.13 2.42-.1 2.53.02.05.05.7 2.3 1.4 4.8a497.46 497.46 0 0 0 1.53 5.3l1.16 4.02c.49 1.67.88 3.07.88 3.11 0 .15.11.08.17-.11a472.6 472.6 0 0 1 1.96-5.98 655.45 655.45 0 0 1 1.69-5.13l.98-3c.16-.48.29-.95.29-1.04 0-.23-.22-.5-.89-1.1-.53-.5-.59-.57-.59-.75v-.2h5.66l.04.15a.39.39 0 0 1-.17.42c-.24.13-1.6 1.51-1.71 1.75-.08.14-.41 1.07-.74 2.06a3493.1 3493.1 0 0 1-4.15 12.31l-1.88 5.6-.4 1.15-1.19.02c-1.09.01-1.2 0-1.24-.09-.06-.11-.67-2.12-1.81-6.01a996.51 996.51 0 0 0-2-6.75l-.96-3.22-.3-.99a1.74 1.74 0 0 0-.18-.47c-.03.03-1.56 4.46-3.31 9.57l-1.85 5.4-.87 2.54-.38.02-.74.03c-.2 0-.58 0-.86-.02Zm-66.28-.1c-.08-.07-.04-.35.06-.46l.62-.56c.35-.31.56-.55.67-.75l.15-.3v-9.44c0-7.04-.02-9.5-.07-9.67a5.57 5.57 0 0 0-.74-1.04c-.5-.6-.67-.86-.67-.97 0-.1.04-.18.1-.2.12-.05 6.54-.05 6.66 0 .06.02.1.1.1.19 0 .14-.1.27-.58.85-.43.5-.72.9-.8 1.1-.1.2-.1 1.1-.1 9.8v9.58h1.73c1.94 0 2.67-.06 4.42-.38 1.25-.22 2.07-.45 2.85-.78.5-.2.99-.3.99-.19 0 .04-.56 2.3-.76 3.06l-.04.17-7.28.02c-4 0-7.29 0-7.31-.03Zm41.47-.03c-.17-.16-.07-.32.53-.86.34-.31.67-.67.77-.83l.16-.3v-9.55c0-8.94 0-9.58-.1-9.75-.06-.1-.39-.54-.74-.97-.52-.64-.64-.81-.62-.95l.02-.16h7.16c3.94 0 7.18.02 7.2.04.04.04.56 2.3.56 2.43 0 .19-.4.14-2.03-.23l-1.52-.35h-5.96v8.75h4l.67-.3c.4-.17.77-.3.91-.3l.24-.01.01 1.98.02 1.99h-.22c-.16 0-.38-.1-.85-.38l-.64-.38H84.9v8.29h1.62a33.2 33.2 0 0 0 6.56-.61c.12-.02.48-.12.81-.23.63-.21.97-.26.97-.13 0 .15-.67 2.52-.77 2.75l-.06.13h-7.23c-5.54 0-7.25-.01-7.3-.07Zm51.1.03c-.02-.02-.04-.12-.04-.22 0-.16.07-.25.56-.66.31-.27.65-.61.74-.77l.18-.28v-9.62c0-8.84 0-9.63-.1-9.8-.05-.1-.37-.53-.7-.94-.46-.54-.62-.79-.62-.9 0-.1.04-.18.09-.2.13-.05 14.18-.04 14.25.01.05.03.62 2.35.62 2.52 0 .14-.66.03-2.8-.48l-.76-.17h-6.02l.01 4.36.02 4.36 1.99.01 1.98.02.7-.3c.4-.16.81-.3.94-.3l.24-.01.02 1.98.01 1.99h-.23c-.18 0-.37-.08-.87-.38l-.64-.38H136v8.3l2.02-.03c2.53-.03 4.02-.18 6.4-.65.1-.02.41-.1.69-.2.49-.16.88-.22.88-.13 0 .14-.8 2.83-.85 2.87-.08.05-14.49.06-14.54 0Z"></path></svg>