<svg width="24" height="24" viewBox="0 0 24 24" fill="none" xmlns="http://www.w3.org/2000/svg">
<path d="M12.0087 23.993C18.6313 23.993 24 18.622 24 11.9965C24 5.37102 18.6313 0 12.0087 0C5.38604 0 0.017334 5.37102 0.017334 11.9965C0.017334 18.622 5.38604 23.993 12.0087 23.993Z" fill="#DCF4FF"/>
<mask id="mask0_23_18867" style="mask-type:luminance" maskUnits="userSpaceOnUse" x="0" y="0" width="24" height="24">
<path d="M23.9837 12.0029C23.9837 18.6169 18.6214 24 11.9919 24C5.38073 24 0 18.6353 0 12.0029C0 5.38897 5.36236 0.00592041 11.9919 0.00592041C18.6214 0.00592041 23.9837 5.38897 23.9837 12.0029Z" fill="white"/>
</mask>
<g mask="url(#mask0_23_18867)">
<path d="M60.9456 -8.39944C60.2839 -8.76281 59.4236 -9.19224 58.6295 -9.06011C58.3979 -9.02708 58.5633 -8.59764 58.431 -8.63068C58.2986 -8.69674 58.1663 -8.92798 58.0008 -8.92798C57.6038 -8.92798 57.1737 -8.96101 56.7766 -8.96101C56.6774 -8.96101 56.4788 -8.92797 56.3796 -8.96101C56.2803 -9.35741 55.9494 -9.45651 55.5855 -9.45651C55.2877 -9.45651 54.8907 -9.29134 54.6921 -9.58864C54.4936 -9.88594 54.1958 -9.91897 53.865 -9.98504C53.501 -10.0511 53.0378 -10.1502 52.6738 -10.0181C52.5415 -9.98504 52.3099 -9.52257 52.3099 -9.52257C51.979 -9.52257 51.5489 -9.4565 51.218 -9.52257C51.0856 -9.52257 51.0195 -9.62167 50.8871 -9.65471C50.6555 -9.75381 50.7548 -9.55561 50.6555 -9.42348C50.457 -9.09314 50.1592 -9.75381 50.1592 -9.91897C50.1592 -10.0511 50.3908 -10.1172 50.1592 -10.2823C49.8945 -10.4145 49.5636 -10.4475 49.2989 -10.4475C48.9681 -10.4805 49.1335 -10.1832 48.8026 -10.1832C48.3725 -10.1832 48.0085 -10.2163 47.6115 -10.2823C47.3468 -10.3154 47.0821 -10.3814 46.8505 -10.4805C46.7843 -10.5136 46.6851 -10.5466 46.652 -10.6127C46.4865 -10.4805 46.3211 -10.3154 46.1226 -10.2163C45.9241 -10.1172 45.891 -10.2823 46.0233 -10.3814C46.3542 -10.6127 46.8174 -10.7118 47.1152 -11.0091C47.4791 -11.3394 46.7512 -11.6037 46.5196 -11.6037C46.3211 -11.6037 46.1226 -11.6037 45.891 -11.6037C45.6594 -11.6037 45.5932 -12.0001 45.2623 -12.0001C45.2292 -12.0001 43.4756 -10.976 43.608 -11.4385C43.1116 -11.2733 42.6153 -11.2733 42.1521 -11.0421C41.8874 -10.91 41.8874 -10.7118 41.6889 -10.5136C41.5566 -10.3814 41.1595 -10.4805 41.0272 -10.4805C40.8617 -10.4805 40.597 -10.4475 40.5309 -10.2493C40.4316 -10.0511 40.7625 -9.78684 40.3985 -9.81987C40.2331 -9.85291 40.0676 -9.8529 39.9353 -9.8529C39.9022 -9.78684 39.7698 -9.58864 39.6375 -9.62167C39.4721 -9.6547 39.5382 -9.952 39.439 -10.0511C39.4059 -9.85291 39.2405 -9.72077 39.075 -9.62167C39.1412 -9.42347 39.439 -9.22528 39.2074 -8.99404C39.1081 -8.89494 39.439 -8.20125 39.2074 -8.33338C38.9427 -8.49855 38.9427 -9.06011 38.9096 -9.32438C38.9096 -9.45651 39.0419 -9.91897 38.9758 -9.952C38.5787 -10.1832 38.1155 -9.88594 37.8839 -9.55561C37.5861 -9.09314 38.1486 -8.86191 38.2148 -8.46551C38.2478 -8.30034 37.5861 -8.66371 37.5199 -8.69674C37.3545 -8.79584 36.6927 -9.06011 36.5604 -8.86191C36.5273 -8.79584 36.6927 -8.36641 36.4611 -8.43248C36.3619 -8.46551 36.2957 -8.59765 36.1964 -8.59765C35.9648 -8.59765 35.7332 -8.43248 35.5016 -8.43248C35.1377 -8.39945 35.0715 -8.66371 34.6744 -8.46551C34.3766 -8.30034 34.112 -8.06911 33.7811 -7.97001C33.4171 -7.87091 33.6487 -8.39944 33.5164 -8.53158C33.4502 -8.63067 33.3509 -8.43248 33.3179 -8.39944C33.1524 -8.10215 33.2848 -8.06911 33.2848 -7.83788C33.2848 -7.57362 32.7554 -7.83788 32.623 -7.57361C32.4576 -7.21025 32.226 -7.14418 31.8289 -7.30935C31.862 -7.21025 31.7959 -7.11115 31.8289 -7.04508C31.4319 -7.07811 31.4981 -7.47451 31.3326 -7.70575C31.6635 -7.70575 32.1267 -7.54058 32.4576 -7.67272C32.7885 -7.80485 32.7554 -8.06911 32.4576 -8.26731C32.0275 -8.49855 31.5312 -8.66371 31.0679 -8.82888C30.7702 -8.92798 30.4393 -8.86191 30.2077 -9.06011C30.34 -9.09314 30.4393 -9.06011 30.4724 -9.22527C30.34 -9.29134 30.2077 -9.42347 30.1084 -9.22527C30.0422 -9.25831 30.0092 -9.32437 30.0422 -9.39044C29.8437 -9.25831 29.8437 -9.12618 29.7445 -9.32438C29.6452 -9.25831 29.579 -9.09314 29.4467 -9.12617C29.5128 -9.19224 29.5459 -9.25831 29.579 -9.35741C29.579 -9.25831 28.9173 -9.39044 28.9173 -9.25831C28.9173 -9.19224 28.9834 -9.19224 29.0165 -9.15921C28.8842 -9.09314 28.7518 -9.12617 28.6857 -8.96101C28.6857 -8.99404 28.6857 -9.02708 28.6857 -9.09314C28.5533 -9.09314 28.5533 -8.92798 28.421 -8.89494C28.421 -8.92798 28.421 -8.96101 28.421 -8.99404C28.3217 -8.99404 28.2224 -8.96101 28.1232 -8.89494C28.1563 -8.86191 28.1563 -8.86191 28.1894 -8.82888C28.057 -8.76281 27.9908 -8.86191 27.8916 -8.69674C27.9247 -8.69674 27.9578 -8.69674 27.9908 -8.69674C27.7592 -8.56461 27.8254 -8.46551 27.6269 -8.72978C27.5607 -8.66371 27.4284 -8.66371 27.3953 -8.53158C27.4284 -8.53158 27.4614 -8.49855 27.4945 -8.49855C27.4284 -8.46551 27.3953 -8.43248 27.3622 -8.39944C27.5276 -8.39944 27.6269 -8.49854 27.7923 -8.53158C27.6931 -8.13518 27.1967 -8.06911 27.0644 -7.70575C26.899 -7.37541 26.6674 -6.94598 26.2703 -6.84689C26.3365 -6.84689 26.3696 -6.81385 26.4357 -6.81385C26.2041 -6.84688 25.8402 -6.54958 25.7078 -6.38442C25.6086 -6.21925 25.5424 -6.31835 25.5755 -6.02106C25.5755 -5.92196 25.6086 -5.78982 25.6747 -5.72375C25.6086 -5.65769 25.5755 -5.62465 25.5755 -5.55859C25.6417 -5.59162 25.7078 -5.59162 25.774 -5.59162C25.7078 -5.42646 25.6086 -5.39342 25.8071 -5.26129C26.138 -5.06309 26.4688 -5.36039 26.6343 -5.65769C26.8328 -5.39342 26.932 -4.96399 27.0313 -4.63366C27.0975 -4.43546 27.1637 -4.2703 27.3622 -4.4685C27.4945 -4.63366 27.6269 -4.56759 27.7592 -4.69973C28.0239 -4.96399 27.7592 -4.93096 27.8254 -5.19523C27.8916 -5.42646 28.2886 -5.42646 28.2886 -5.65769C28.2886 -5.92195 27.9247 -5.85589 27.9247 -6.12016C27.9247 -6.31835 28.0239 -6.54958 28.2224 -6.64868C28.3879 -6.74778 28.6526 -6.84689 28.7849 -7.01205C28.8842 -7.17722 28.7518 -7.37541 28.9504 -7.47451C29.1158 -7.57361 29.4798 -7.60665 29.6121 -7.44148C29.7775 -7.24328 29.3143 -7.07812 29.2151 -6.94599C29.0827 -6.78082 28.7518 -6.68172 28.7518 -6.48352C28.7518 -6.41745 28.7849 -6.25228 28.8842 -6.21925C28.818 -6.12015 28.7188 -6.08712 28.818 -5.92195C28.9504 -5.75679 29.2481 -5.69072 29.4467 -5.75679C29.6121 -5.78982 30.1084 -5.78982 30.2077 -5.95499C30.2738 -5.88892 30.34 -5.78982 30.3731 -5.72375C30.0422 -5.49252 29.7445 -5.69072 29.4136 -5.55859C28.9504 -5.36039 29.7114 -5.06309 29.3805 -4.93096C29.1158 -4.83186 29.0496 -5.32736 28.818 -4.86489C28.6857 -4.53456 28.6857 -4.13816 28.2555 -4.13816C28.2555 -4.53456 27.1967 -3.6757 27.2629 -4.13816C27.0313 -4.1712 26.4688 -3.84087 26.4688 -4.30333C26.4688 -4.50153 26.7004 -4.53456 26.7004 -4.66669C26.7004 -4.73276 26.5681 -4.83186 26.6012 -5.03006C26.4357 -4.89793 26.138 -4.86489 26.138 -4.60063C26.138 -4.40243 26.3365 -4.20423 26.3365 -4.00603C26.3365 -3.8739 25.6747 -3.80783 25.6086 -3.70873C25.3439 -3.4775 25.41 -3.14717 24.9468 -3.14717C24.8476 -2.81684 24.5167 -2.65167 24.252 -2.81684C24.2851 -2.71774 24.3182 -2.5856 24.2189 -2.55257C24.2189 -2.55257 23.4248 -2.5856 23.7226 -2.3874C23.8219 -2.32134 23.9873 -2.2883 24.0866 -2.25527C24.2189 -2.22223 24.1527 -2.09011 24.252 -1.99101C24.4174 -1.85887 24.4836 -1.66067 24.3513 -1.39641C24.2189 -1.13214 24.0535 -1.23124 23.7557 -1.23124C23.5903 -1.23124 23.2263 -1.23124 23.0939 -1.29731C22.6969 -1.49551 22.8292 -0.768778 22.8292 -0.669678C22.7962 -0.504512 22.6969 -0.306311 22.6969 -0.141145C22.6969 -0.0420453 22.7962 -0.0750795 22.7962 0.0900865C22.7962 0.486485 23.0609 0.0900885 23.2594 0.288288C23.3917 0.42042 23.3586 0.585586 23.5903 0.453454C23.7226 0.387387 23.9211 0.288285 24.0866 0.321318C24.1858 0.288285 24.6821 -0.0750805 24.5498 -0.17418C24.2851 -0.471479 25.0461 -0.735742 25.1123 -0.801809C25.2446 -0.900908 25.1123 -1.03304 25.1453 -1.06608C25.1453 -1.36337 25.6086 -1.16518 25.7409 -1.16518C26.0718 -1.16518 26.3365 -1.75977 26.6343 -1.26427C26.7997 -0.966973 27.0644 -0.768776 27.3622 -0.636643C27.4614 -0.60361 27.9578 -0.00901415 27.5938 -0.00901415C27.5938 0.156152 27.9247 -0.20721 27.9247 -0.20721C27.9247 -0.30631 27.6931 -0.405413 27.8585 -0.504512C27.9908 -0.603612 28.0901 -0.438442 28.1894 -0.438442C28.2224 -0.73574 27.7261 -0.636644 27.7261 -0.900909C27.2629 -0.900909 27.4614 -1.26427 27.1306 -1.36337C26.7666 -1.49551 27.0644 -1.75977 27.1967 -1.82584C27.2298 -1.79281 27.1967 -1.62764 27.296 -1.62764C27.4945 -1.52854 27.4284 -1.75977 27.5276 -1.49551C27.6269 -1.26428 27.9577 -1.16518 28.1232 -1.06608C28.4541 -0.900909 28.4541 0.0570522 28.8842 -0.00901415C28.7849 0.156152 28.8511 0.354351 29.1158 0.321318C29.0827 0.288285 29.0827 0.024019 29.0827 -0.00901415C29.182 0.0900854 29.2812 0.123123 29.4136 0.0570563C29.2812 -0.0750765 29.2151 -0.240247 29.1489 -0.339346C28.9173 -0.603612 29.182 -0.438442 29.3143 -0.438442C29.4136 -0.900906 29.9761 -0.405412 30.3069 -0.735744C30.2408 -0.834843 30.0753 -0.900907 30.0753 -1.03304C30.0753 -1.19821 30.2738 -1.26427 30.2738 -1.39641C30.2738 -1.66067 30.4393 -1.7928 30.5716 -1.92494C31.0018 -2.3874 31.2334 -1.03304 31.8289 -1.75977C31.1341 -1.75977 31.9944 -2.12314 32.226 -2.22224C31.9613 -2.0901 32.2922 -1.85887 31.8951 -1.75977C31.9613 -1.62764 33.0863 -1.00001 32.9208 -0.867874C32.8216 -0.834841 31.8289 -0.504512 31.8289 -0.834844C31.5642 -0.834844 31.3657 -1.03304 31.0679 -0.867874C31.0349 -0.834841 30.4062 -0.669675 30.4062 -0.702708C30.4062 -0.669675 30.4393 -0.636641 30.4724 -0.603608C30.3069 -0.504508 30.0092 -0.603608 29.8768 -0.438442C29.7775 -0.339342 30.0753 -0.30631 29.8106 -0.0420443C29.8768 -0.00901113 30.3069 0.32132 30.1746 0.354353C30.3069 0.32132 30.3731 0.354352 30.4724 0.420418C30.6709 0.552551 30.6709 0.321318 30.8363 0.321318C31.0348 0.321318 31.101 0.585586 31.3326 0.453454C31.5312 0.387387 31.5973 0.387387 31.7959 0.288288C31.7297 0.453454 31.862 0.684685 31.7297 0.849851C31.5973 1.04805 31.3988 1.37838 31.465 1.60962C31.465 1.60962 30.9687 1.51051 30.8694 1.51051C30.4393 1.51051 30.2077 1.64265 29.7445 1.47748C29.579 1.41141 29.1158 1.41142 29.1158 1.18018C28.9173 1.14715 28.5533 1.21322 28.5533 1.44445C28.421 1.60962 28.4871 1.80781 28.1232 1.60962C27.8585 1.47748 27.6931 1.21321 27.4284 1.14715C27.1967 1.08108 26.9982 1.21322 26.8328 0.948952C26.7004 0.750752 26.8659 0.387386 26.899 0.189187C26.7335 0.22222 26.6012 0.024019 26.4357 0.156152C26.3696 0.222218 25.8733 0.255252 25.774 0.255252C25.5093 0.255252 25.3439 0.189188 25.0461 0.288288C24.7814 0.354354 24.4174 0.65165 24.1527 0.65165C23.9542 0.65165 23.5572 0.420421 23.491 0.552554C23.3586 0.750753 23.1601 0.948949 22.9947 1.14715C22.7631 1.41141 22.8292 1.54355 22.73 1.87388C22.6307 2.23725 22.2006 2.13815 22.0021 2.36938C21.7043 2.79881 21.2411 3.42644 21.4065 3.95497C21.5058 4.25227 21.5058 4.51653 21.3403 4.7808C21.2411 4.94597 21.1418 4.91293 21.2411 5.11113C21.2742 5.1772 21.3072 5.3754 21.3072 5.44146C21.4396 5.70573 21.8697 5.97 22.0682 6.30033C22.3329 6.76279 22.9285 7.22526 23.4579 7.02706C23.7557 6.92796 23.9211 7.06009 24.2189 7.06009C24.4174 7.06009 24.7483 6.82886 24.9468 6.76279C25.5424 6.56459 25.6086 7.09312 26.138 7.09312C26.3696 7.09312 26.535 7.19223 26.6343 7.39043C26.5681 7.45649 26.535 7.75379 26.5681 7.85289C26.0056 8.18322 27.0313 8.87692 27.0644 9.20725C27.1306 9.60365 27.5276 10.1652 27.296 10.5616C27.1967 10.7598 26.9982 10.8919 26.9321 11.1232C26.8328 11.4865 27.0313 11.8829 27.2298 12.1802C27.5276 12.6757 27.4614 13.2043 27.7592 13.7328C27.8916 13.964 28.0239 14.1953 28.1894 14.3935C28.2555 14.4926 28.3217 14.5917 28.2555 14.6908C28.1563 14.889 28.3217 14.889 28.3217 15.1202C28.4541 15.0541 28.5533 15.2523 28.7518 15.1863C28.9504 15.1202 29.2151 14.922 29.4467 15.0211C29.7775 15.2193 30.34 14.6908 30.5055 14.4595C30.6047 14.2944 31.2665 13.5346 31.1341 13.3694C31.0018 13.1712 31.2995 12.973 31.5312 12.973C31.7297 12.973 31.7297 12.5106 31.6635 12.3784C31.5973 12.2133 31.3988 12.0811 31.5642 11.916C31.6966 11.7838 31.7959 11.6187 31.9613 11.5196C32.1267 11.4205 33.0201 11.0901 32.6561 10.7598C32.6561 10.5286 32.7885 10.0661 32.623 9.86792C32.4576 9.66972 32.4576 9.47152 32.4245 9.20725C32.3914 8.87692 32.5569 8.87692 32.6561 8.61265C32.7885 8.08412 33.2517 7.88592 33.6487 7.62166C34.1119 7.29132 34.4759 6.6637 34.7075 6.1682C34.8068 5.97 34.906 5.70573 34.8068 5.50753C34.509 5.5736 34.2112 5.73876 33.8803 5.70573C33.5826 5.6727 33.5495 5.97 33.3179 5.63966C33.2186 5.5736 33.1855 5.50753 33.2517 5.44146C33.1855 5.24326 33.1524 5.34236 33.0201 5.21023C32.8877 5.04507 32.8546 4.94597 32.6561 4.84687C32.3583 4.6817 32.4907 4.35137 32.226 4.15317C32.0275 4.02104 32.0275 3.92194 32.0275 3.69071C32.0275 3.49251 31.8951 3.42644 31.7959 3.26128C31.6635 2.99701 31.5642 2.73274 31.3988 2.43545C31.2996 2.23725 31.0349 1.97298 31.0679 1.74175C31.2003 1.87388 31.2665 2.17118 31.465 2.20421C31.4981 2.07208 31.5642 1.97298 31.5973 1.84085C31.5642 2.07208 31.9282 2.93094 32.1267 2.96397C32.2922 2.96397 32.4245 3.26127 32.4245 3.39341C32.4245 3.75677 32.6561 3.75677 32.7554 3.988C32.8546 4.1862 33.0532 4.31834 33.1524 4.51654C33.2186 4.6817 33.1524 4.84687 33.2186 5.04507C33.4171 5.5736 33.5495 5.21023 33.9134 5.21023C34.112 5.21023 35.0384 4.81383 35.0384 4.71473C35.0384 4.54957 35.4354 4.4835 35.5347 4.4835C35.667 4.45047 35.8987 4.25227 35.9648 4.12014C36.031 4.02104 36.6927 3.39341 36.4942 3.32734C36.3619 3.26127 36.3288 3.12914 36.1303 3.06307C35.8987 2.96397 35.7994 2.79881 35.8325 2.53455C35.634 2.69971 35.5347 2.93094 35.2369 2.99701C34.7406 3.09611 34.873 2.86488 34.8068 2.56758C34.7737 2.60061 34.7075 2.66668 34.6744 2.69971C34.6413 2.46848 34.3766 2.36938 34.2774 2.13814C34.0789 1.70871 34.4428 1.47748 34.7075 1.87388C34.873 2.10511 35.0384 2.33635 35.3362 2.43545C35.5678 2.50151 35.667 2.33634 35.8325 2.33634C35.9979 2.33634 35.9648 2.53455 36.0641 2.60061C36.1303 2.66668 36.3619 2.66668 36.4611 2.66668C36.7258 2.69971 36.9574 2.73274 37.2221 2.73274C37.2883 2.66668 37.7846 2.66668 37.8508 2.69971C37.9501 2.73275 37.9831 2.89791 38.0493 2.96397C38.1817 3.19521 38.4133 3.16217 38.6118 3.22824C38.5125 3.32734 38.4464 3.29431 38.3471 3.36038C38.4464 3.45948 38.6449 3.82284 38.8765 3.65767C38.9758 3.55857 38.9758 3.42644 39.1081 3.36038C39.1081 3.95497 39.1743 4.5826 39.5382 5.14417C39.7698 5.50753 40.0015 6.79583 40.3985 5.8709C40.4316 5.80483 40.5639 5.80483 40.5639 5.7718C40.597 5.6727 40.5309 5.5736 40.5639 5.4745C40.6301 5.24327 40.5639 5.11113 40.5639 4.8799C40.5639 4.71473 40.8948 4.61564 41.0272 4.51654C41.3249 4.25227 41.8543 3.95497 41.9536 3.59161C42.0859 3.26128 42.7146 3.69071 42.7146 3.22824C43.0124 3.29431 42.9131 3.45947 43.0455 3.65767C43.1778 3.88891 43.3763 3.98801 43.4756 4.25227C43.5087 4.3844 43.4425 4.54957 43.5087 4.6817C43.641 4.94597 43.9057 4.45047 43.9719 4.41744C44.369 4.81384 44.2697 5.60663 44.2697 6.13516C44.2697 6.23426 44.369 6.13516 44.4351 6.23426C44.5675 6.39943 44.6337 6.69673 44.6667 6.86189C44.766 7.25829 45.0638 7.62165 45.4608 7.58862C45.2623 7.15919 45.3285 6.79583 44.8983 6.5646C44.6667 6.43246 44.3028 5.8709 44.5013 5.63966C44.6337 5.4745 44.5344 5.3754 44.5675 5.21023C44.6006 5.11113 44.9314 5.40843 44.9976 5.40843C45.2292 5.4745 45.2292 5.7718 45.4277 5.80483C45.5932 5.83786 45.5601 6.1682 45.6263 6.1682C45.7255 6.1682 45.7917 6.00303 45.7917 5.90393C45.7917 5.93696 45.7917 5.93696 45.8248 5.97C45.9902 5.97 46.4204 5.50753 46.4534 5.3754C46.5858 4.979 46.2549 4.71473 46.0564 4.45047C45.8579 4.1862 45.5601 3.988 45.9241 3.72374C46.0233 3.65767 46.1557 3.5916 46.2218 3.45947C46.3211 3.4925 46.4534 3.52554 46.5527 3.52554C46.5196 3.59161 46.5527 3.65767 46.5858 3.69071C46.652 3.65767 46.652 3.59161 46.6851 3.55857C46.7512 3.49251 47.0159 3.42644 47.1152 3.39341C47.1483 3.39341 47.3468 3.19521 47.3468 3.19521C47.5122 3.19521 47.5122 3.29431 47.6777 3.22824C48.2071 3.09611 48.3394 2.56758 48.6372 2.20421C49.0012 1.74175 48.9681 1.34535 48.6703 0.849851C48.6372 0.783785 48.4056 0.552553 48.5379 0.453454C48.7034 0.354354 49.0012 0.189187 49.1335 0.0240211C49.0673 -0.0420453 48.9019 -0.0420463 48.8026 -0.0750795C48.6372 -0.207212 48.7034 0.0570563 48.6041 0.0570563C48.5048 0.0570563 48.1409 -0.141143 48.1409 -0.273276C48.1409 -0.372375 48.6703 -0.537542 48.7365 -0.702708C48.8026 -0.768775 48.8357 -0.834843 48.935 -0.735744C49.0673 -0.603611 48.8357 -0.504509 48.8357 -0.372376C49.0012 -0.372376 49.1335 -0.504509 49.2659 -0.537542C49.4644 -0.603609 49.4644 -0.504512 49.6629 -0.504512C49.5636 -0.306313 49.5305 -0.10811 49.7622 -0.10811C49.9938 -0.10811 49.8614 0.486486 49.8614 0.684685C50.3577 0.684685 50.6555 0.255254 50.3246 -0.20721C50.0599 -0.537542 50.093 -0.504508 50.4239 -0.768774C50.6886 -0.966973 50.6224 -1.33034 50.9864 -1.26427C51.7805 -1.13214 51.9128 -1.8919 52.376 -2.35437C52.6407 -2.61863 52.6738 -2.8829 52.7069 -3.21323C52.74 -3.5766 53.0378 -3.7748 52.7069 -4.10513C52.4422 -4.36939 52.343 -4.03906 52.0452 -4.13816C51.7805 -4.23726 51.7474 -4.46849 51.9459 -4.66669C52.4753 -5.16219 52.9054 -5.65769 53.6664 -5.72375C54.262 -5.78982 54.7583 -5.65769 55.3208 -5.65769C55.5524 -5.65769 55.5524 -6.02106 55.7178 -6.18622C55.9494 -6.41745 56.3796 -6.41745 56.6774 -6.38442C56.4788 -6.21925 56.6443 -6.02105 56.8759 -6.21925C57.0082 -6.31835 57.2068 -6.68172 57.3722 -6.61565C57.6369 -6.48352 57.2729 -6.21925 57.1737 -6.15319C56.909 -5.98802 56.7766 -6.02105 56.5781 -5.75679C56.3796 -5.45949 56.0818 -5.32736 55.8833 -5.06309C55.6848 -4.76579 55.784 -3.74176 56.0818 -3.51053C56.3465 -3.90693 56.5781 -4.13816 56.8428 -4.4685C57.1737 -4.86489 57.0744 -5.36039 57.4384 -5.78982C57.7031 -6.05409 57.9678 -6.05409 58.2655 -5.88892C58.6957 -5.65769 59.192 -6.18622 59.4898 -6.41745C59.6552 -6.51655 60.5816 -6.68172 60.5155 -6.84689C60.35 -7.14418 59.9861 -7.24328 60.5486 -7.47451C60.714 -7.54058 60.714 -7.83788 60.8133 -7.83788C61.0779 -7.83788 61.2765 -7.63968 61.475 -7.47451C62.0706 -7.01205 62.0375 -7.57362 62.6 -7.77182C62.1036 -8.06911 61.3757 -8.13518 60.9456 -8.39944C61.3426 -8.16821 60.3831 -8.69674 60.9456 -8.39944ZM28.9835 -2.5856C29.0827 -2.45347 28.9504 -2.42043 29.1489 -2.42043C29.0496 -2.42043 28.9835 -2.45347 28.9835 -2.5856ZM29.1158 -2.982C29.3474 -3.14717 29.182 -3.1802 29.1489 -3.44446C29.182 -3.21323 29.3474 -3.1802 29.1158 -2.982ZM30.3069 -7.93698C30.3069 -8.06911 30.5055 -8.20125 30.4062 -8.33338C30.34 -8.39945 30.2077 -8.43248 30.2077 -8.53158C30.2077 -8.36641 30.4393 -8.39945 30.4393 -8.26731C30.3731 -8.13518 30.34 -8.03608 30.3069 -7.93698ZM34.6413 -1.36337C34.7737 -1.16517 34.9722 -1.03304 34.9722 -0.768774C35.1707 -0.867873 35.3362 -0.900906 35.3362 -0.603608C35.27 -0.636641 35.1046 -0.636644 35.0384 -0.570578C34.906 -0.405412 35.2369 -0.372377 35.2369 -0.141145C35.2369 0.255253 35.3031 0.321318 34.8068 0.321318C34.6083 0.321318 34.6083 0.189185 34.4759 0.156152C34.1781 0.0900854 34.3766 -0.00901415 34.1781 -0.17418C34.112 -0.240247 34.1781 -0.438445 34.0458 -0.405412C33.9465 -0.405412 33.8473 -0.273279 33.748 -0.240246C34.0458 -0.240246 33.9134 -0.537543 34.145 -0.306311C34.1119 -0.240245 34.2112 -0.240246 34.2443 -0.240246C34.3105 -0.339345 34.3105 -0.504511 34.4428 -0.570578C34.0458 -0.768777 33.7149 -1.52854 33.9465 -1.89191C34.0127 -2.02404 34.4428 -2.15617 34.5752 -2.15617C34.9722 -2.22224 35.1377 -2.0901 35.3693 -1.7928C35.2369 -1.69371 34.873 -1.7928 34.6744 -1.6937C34.3766 -1.52854 34.5421 -1.56157 34.6413 -1.36337C34.7737 -1.13214 34.5752 -1.42944 34.6413 -1.36337ZM35.4685 0.0240211C36.4942 -0.966975 34.5752 0.915917 35.4685 0.0240211ZM35.667 -0.0420443C35.7001 -0.0420443 35.7663 -0.0750765 35.7994 -0.10811C35.7663 -0.0750765 35.7332 -0.0420443 35.667 -0.0420443ZM36.5604 0.981982C36.5935 0.948949 36.5935 0.948949 36.5604 0.981982ZM36.7589 0.585584C36.6927 0.585584 36.5935 0.849853 36.5935 0.882886C36.6597 0.684687 36.7258 0.684683 36.7258 0.486484C36.7258 0.585583 36.8251 0.65165 36.9574 0.65165C36.8913 0.618617 36.8251 0.585584 36.7589 0.585584ZM37.4868 0.156152C37.5199 0.123119 37.5861 0.0900865 37.6192 0.0900865C37.553 0.12312 37.5199 0.156152 37.4868 0.156152C37.5199 0.123119 37.5199 0.123119 37.4868 0.156152ZM38.0824 0.222222C38.0493 0.222222 37.7184 0.123122 37.7184 0.123122C37.7184 0.189188 38.0162 0.189189 38.0824 0.222222ZM38.4133 0.0570563C38.3802 0.0570563 38.4464 0.0570522 38.4795 -0.00901415C38.4795 0.024019 38.4464 0.0240231 38.4133 0.0570563ZM38.8103 0.255252C38.7772 0.222219 38.7772 0.22222 38.7441 0.189187C38.8103 0.22222 38.8434 0.255252 38.8103 0.255252ZM39.0088 0.189187C39.0419 0.156154 39.1081 0.123122 39.1743 0.123122C39.1081 0.156155 39.075 0.156154 39.0088 0.189187ZM39.5713 0.288288C39.4059 0.222221 39.3728 0.156152 39.1743 0.156152C39.2405 0.156152 39.4059 0.156152 39.4059 0.156152C39.439 0.288285 39.6706 0.288288 39.5713 0.288288C39.6044 0.288288 39.4721 0.255254 39.5713 0.288288ZM40.3323 1.57658C40.2992 1.57658 40.2662 1.57658 40.2331 1.54355C40.2331 1.57658 40.4647 1.60961 40.3323 1.57658ZM40.5309 -1.6937C40.5309 -1.29731 40.3985 -0.867874 40.0015 -0.702708C39.836 -0.603609 39.6375 -0.570578 39.439 -0.570578C39.3066 -0.570578 39.075 -0.141143 39.2074 -0.10811C39.075 -0.141143 39.2735 -0.471476 39.3397 -0.537542C39.4721 -0.669675 39.836 -0.603609 40.0015 -0.702708C40.2 -0.801808 40.3654 -1.00001 40.4316 -1.19821C40.4647 -1.29731 40.4978 -1.39641 40.4978 -1.52854C40.5309 -1.82584 40.5639 -1.66067 40.7625 -1.82584C40.7294 -1.75977 40.6301 -1.72674 40.5309 -1.6937C40.6301 -1.72674 40.5309 -0.900907 40.5309 -1.6937ZM44.7329 -3.41143C44.6006 -3.4775 44.3359 -3.51053 44.2366 -3.51053C44.3028 -3.51053 44.5675 -3.4775 44.7329 -3.41143ZM42.0198 2.23724C41.7551 2.27028 41.6227 2.20421 41.3911 2.07208C41.6889 2.27028 41.8213 2.20421 42.1521 2.20421C42.0859 2.20421 42.0529 2.23724 42.0198 2.23724ZM42.6484 -3.01503C42.4168 -2.8829 41.5896 -2.7838 41.5566 -2.45347C41.5235 -1.991 41.1264 -2.2883 40.9279 -2.02404C41.0602 -2.22224 41.2257 -2.0901 41.4242 -2.1892C41.5565 -2.25527 41.5235 -2.42044 41.5566 -2.55257C41.5896 -2.71774 41.9536 -2.81683 42.0859 -2.84987C42.2183 -2.84987 42.7146 -3.0811 42.6484 -3.01503C42.6484 -3.04807 42.2845 -2.81683 42.6484 -3.01503ZM43.7072 -2.982C43.3763 -2.982 43.0124 -3.34536 42.7477 -3.0811C43.1447 -3.44446 43.7734 -2.5856 44.0712 -3.2793C43.9719 -3.14717 43.8727 -2.982 43.7072 -2.982ZM43.9719 4.2853C43.9719 4.1862 44.005 4.12014 44.0381 4.05407C43.9719 4.12014 43.9719 4.1862 43.9719 4.2853ZM43.9719 4.35137C44.0381 4.51654 44.2697 4.71474 44.0712 4.91294C44.2697 4.71474 44.0712 4.54957 43.9719 4.35137C44.005 4.41744 44.005 4.41744 43.9719 4.35137ZM44.0712 4.979C44.0712 4.84687 44.1373 5.0781 44.2035 5.14417C44.1373 5.11113 44.1043 5.04507 44.0712 4.979ZM44.6006 3.62464C44.6337 3.5916 44.6337 3.55858 44.6667 3.52554C44.5013 3.52554 44.402 3.52554 44.3359 3.36038C44.369 3.52554 44.5013 3.55858 44.6667 3.52554C44.6337 3.59161 44.6337 3.62464 44.6006 3.62464ZM44.6998 3.55857C44.6998 3.59161 44.6998 3.62464 44.7329 3.62464C44.6998 3.5916 44.6998 3.59161 44.6998 3.55857ZM45.7917 3.32734C45.7255 3.32734 45.6263 3.29431 45.5601 3.26128C45.7586 3.32734 45.7255 3.29431 45.8248 3.45947C45.7917 3.42644 45.7917 3.36037 45.7917 3.32734C45.7917 3.39341 45.6924 3.32734 45.7917 3.32734ZM46.4534 -2.7838C46.0564 -2.7838 45.8248 -3.14717 45.4277 -3.14717C45.7586 -3.14717 45.9571 -2.8829 46.2549 -2.81684C46.652 -2.71774 47.049 -3.01503 47.4461 -3.01503C47.1483 -2.982 46.8174 -2.7838 46.4534 -2.7838ZM48.4718 -3.4775C48.6041 -3.74177 48.8026 -3.8739 49.1004 -3.8739C48.8026 -3.8739 48.6041 -3.70873 48.4718 -3.4775ZM50.457 -2.71774C50.3246 -2.84987 50.0269 -2.81684 49.9276 -2.982C49.7622 -3.21323 49.7291 -3.5766 49.4975 -3.74176C49.7291 -3.5766 49.7952 -3.21323 49.9276 -2.982C50.0599 -2.7838 50.3908 -2.81683 50.5232 -2.5856C50.5232 -2.65167 50.4901 -2.6847 50.457 -2.71774C50.4901 -2.6847 50.3246 -2.81683 50.457 -2.71774ZM50.6555 -1.5946C50.6224 -1.62764 50.7548 -1.4955 50.7548 -1.42944C50.7548 -1.4955 50.7217 -1.56157 50.6555 -1.5946Z" fill="#90C6DE"/>
<path d="M9.59998 3.92128C9.12379 3.76141 8.04442 3.01535 7.59998 3.65483C7.69521 3.62818 7.79045 3.57489 7.88569 3.54825C8.13966 3.46831 8.04442 3.60154 8.1714 3.60154C8.52061 3.60154 8.71109 3.76141 8.9968 3.86799C8.93331 3.89463 8.93331 3.92128 8.93331 3.94792C9.09204 3.94792 9.47299 4.08115 9.59998 3.92128C9.53648 4.00121 9.53648 3.89463 9.59998 3.92128Z" fill="#90C6DE"/>
<path d="M9.59998 4.27093C9.59998 4.32253 9.63241 4.34833 9.69727 4.34833C9.69727 4.19351 10.1189 4.39994 10.1838 4.39994C10.2486 4.39994 10.3135 4.32253 10.4108 4.32253C10.5405 4.32253 10.6378 4.27093 10.8 4.27093C10.7351 4.21932 10.6702 4.19352 10.6054 4.14191L10.6378 4.16771C10.5729 4.14191 9.827 3.90969 9.827 4.0387C9.827 4.0387 10.0216 4.24512 9.95673 4.21932C9.85943 4.29673 9.66484 4.27093 9.59998 4.27093C9.63241 4.27093 9.59998 4.32253 9.59998 4.27093Z" fill="#90C6DE"/>
<path d="M14.5039 7.99994C14.228 7.99994 14.5652 8.69246 14.7798 8.25508C14.8718 8.07284 14.6265 7.99994 14.5039 7.99994Z" fill="#90C6DE"/>
<path d="M17.3784 9.07989C17.1793 9.01357 17.0798 9.07989 16.9139 8.9141C16.748 8.78147 16.6152 8.58253 16.3498 8.61568C16.0844 8.64884 15.8521 8.48306 15.6198 8.61568C15.6198 8.35043 15.3544 8.28411 15.1221 8.18464C14.8235 8.08517 14.8567 8.51621 14.6576 8.51621C14.5581 8.51621 14.4253 8.31727 14.3258 8.28411C14.0272 8.18464 14.4585 7.88623 14.5581 7.78676C14.5581 7.68728 14.2594 7.25624 14.2263 7.22309C14.0604 7.09046 13.9608 7.0573 13.7617 6.95783C13.5958 6.89151 13.3967 6.89151 13.2308 6.89151C12.9986 6.85836 12.899 6.69257 12.7663 6.55994C12.6004 6.39416 11.8373 6.1289 12.0695 5.92996C11.8373 5.86365 11.7709 5.96311 11.605 6.02943C11.4059 6.09574 11.3727 5.96311 11.2068 5.96311C10.875 5.96311 10.7755 5.6647 10.4769 5.6647C10.5101 5.73102 10.5432 5.76417 10.6096 5.79733C10.1119 5.69786 10.4105 6.26153 10.2778 6.26153C9.97917 6.26153 10.311 5.73102 10.311 5.6647C10.311 5.49892 9.84645 5.76417 9.74691 5.79733C9.4151 5.8968 9.28238 6.26153 9.05012 6.42732C9.18284 6.29469 8.81786 6.16206 8.68513 6.16206C8.48605 6.16206 8.25379 6.42731 8.08789 6.19521C7.98835 6.02943 7.75609 6.06259 7.75609 5.83049C7.75609 5.6647 7.75608 5.49892 7.78927 5.33313C7.88881 4.83578 7.42428 4.86893 7.02612 4.90209C6.56159 4.93525 6.86021 4.66999 6.86021 4.33842C6.92657 4.37158 6.8934 4.33841 6.92658 4.37157C7.02612 4.20579 7.09248 3.90737 7.12566 3.70843C6.8934 3.70843 6.59477 3.5758 6.42887 3.8079C6.22979 4.07316 6.32933 4.27211 5.99752 4.27211C5.89798 4.27211 5.63254 4.43789 5.56618 4.33842C5.46664 4.23895 5.30074 4.10632 5.2012 3.97369C5.06847 3.84106 4.96893 3.60896 4.96893 3.41002C4.96893 3.1116 4.90257 2.24952 5.23438 2.11689C5.40028 2.05058 5.73208 1.75216 5.89799 1.85163C5.96435 1.88479 6.52841 2.01742 6.59477 1.98426C6.52841 1.91795 6.52841 1.85163 6.59477 1.75216C6.56159 1.78532 6.52841 1.78532 6.49523 1.75216C6.66113 1.68585 6.89339 1.78532 6.99294 1.719C7.12566 1.65269 7.25838 1.75216 7.35792 1.81848C7.52382 1.91795 7.49064 1.75216 7.62336 1.75216C7.85563 1.75216 8.15425 3.07845 8.41969 2.81319C8.7515 2.44846 8.05471 1.81848 8.28697 1.42059C8.51923 0.989549 9.05012 0.989548 9.31556 0.657976C9.21602 0.492191 9.34874 0.624821 9.2492 0.425878C9.4151 0.425878 9.21602 -0.0383226 9.2492 -0.170951L9.34874 0.193779C9.54782 0.193779 9.48146 -0.17095 9.44828 -0.237264C9.54782 -0.204107 9.61419 -0.303581 9.71373 -0.436209C9.78009 -0.568838 9.68054 -0.469366 9.68054 -0.601995C9.68054 -0.668309 10.0124 -0.668308 10.0455 -0.668308C9.97917 -0.701465 9.87963 -0.668308 9.81327 -0.668308C10.0123 -0.800936 10.4105 -0.800935 10.5764 -0.900406C10.311 -0.834092 10.4105 -1.23198 10.5764 -1.3646C10.7423 -1.49723 11.1737 -1.49723 11.1073 -1.69617C11.3396 -1.56355 11.4723 -1.8288 11.6382 -1.86196C11.605 -1.76249 11.6382 -1.72934 11.7377 -1.76249C11.24 -1.72934 11.3727 -1.23198 11.5386 -1.3646C11.6382 -1.43092 12.3018 -1.72933 12.3018 -1.79565C12.3018 -1.99459 11.5055 -1.86196 11.605 -2.42564C11.5386 -2.42564 11.4723 -2.42563 11.4391 -2.45879C11.5055 -2.5251 12.0032 -2.79036 11.5386 -2.79036C11.2068 -2.79036 11.0078 -2.59142 10.7091 -2.55826C10.7755 -2.72405 11.2732 -3.05562 11.4723 -3.08878C11.8041 -3.12194 12.335 -2.92299 12.6336 -3.12193C12.8327 -3.28772 13.2308 -3.35403 13.3636 -3.51982C13.4963 -3.6856 13.2308 -3.95086 13.2308 -4.11665C13.1313 -4.05033 12.5672 -3.78508 12.5009 -3.91771C12.6004 -3.98402 13.3967 -4.21612 12.899 -4.24928C12.7331 -4.24928 12.5009 -4.34875 12.5009 -4.54769C12.4345 -4.614 12.2686 -4.64716 12.1691 -4.74663C12.4677 -4.91242 12.0695 -5.11136 12.0032 -5.27714C11.9036 -5.47609 11.9036 -5.64187 11.7045 -5.80766C11.5386 -5.94029 11.3727 -5.3103 11.0741 -5.3103C10.7755 -5.3103 10.676 -5.74134 10.6428 -5.94029C10.6428 -6.0066 10.1783 -6.27186 10.1119 -6.30502C9.78009 -6.53712 9.64737 -6.40449 9.2492 -6.53712C8.65196 -6.73606 9.0833 -6.20555 8.88422 -6.07292C8.78468 -6.0066 9.18284 -5.64187 8.7515 -5.47609C9.01694 -5.04505 9.44828 -4.34874 8.58559 -4.18296C8.7515 -4.11664 8.7515 -3.91771 8.78468 -3.75192C8.81786 -3.51982 8.71832 -3.58613 8.71832 -3.38719C8.48605 -3.38719 8.61877 -3.18825 8.35333 -3.42035C8.08789 -3.68561 8.12107 -3.81823 8.05471 -4.1498C7.98835 -4.48138 7.52382 -4.34875 7.29156 -4.48138C7.0593 -4.614 6.82704 -4.71348 6.59477 -4.81295C6.52841 -4.8461 6.46205 -4.87926 6.39569 -4.91242C6.22979 -4.97873 6.19661 -4.8461 6.0307 -4.8461C6.0307 -5.21083 5.89798 -5.40977 5.59936 -5.34346C5.66572 -5.50924 5.59936 -5.67503 5.59936 -5.84081C5.63254 -6.07291 5.83162 -6.2387 5.93117 -6.43764C6.06389 -6.66974 6.16343 -6.50396 6.32933 -6.66974C6.52841 -6.83553 6.06389 -6.90184 5.99752 -6.935C5.99752 -6.935 6.06389 -6.96816 6.09707 -6.96816C6.19661 -6.935 6.32933 -6.935 6.42887 -6.90185C6.59477 -6.86869 6.46205 -7.06763 6.56159 -7.06763C6.79386 -7.13395 6.8934 -7.1671 7.09248 -7.33288C7.09248 -7.56498 6.62795 -7.43236 6.49523 -7.66446C6.69431 -7.6313 6.86022 -7.43236 7.0593 -7.53183C7.12566 -7.56499 7.32474 -7.8634 7.19202 -7.8634C7.32474 -7.8634 7.3911 -7.73077 7.49064 -7.73077C7.62336 -7.73077 7.72291 -7.89656 7.72291 -7.89656C7.88881 -7.89656 7.92199 -7.83024 8.08789 -8.02919C8.28697 -8.22813 8.05471 -8.22813 8.02153 -8.42707C7.98835 -8.59286 8.18743 -8.5597 8.18743 -8.69233C8.15425 -8.85811 8.08789 -8.7918 7.98835 -8.89127C7.88881 -8.95759 7.3911 -9.15653 7.3911 -8.89127C7.42428 -8.82496 7.45746 -8.75864 7.49064 -8.69233C7.49064 -8.62601 7.32474 -8.62602 7.29156 -8.5597C7.19202 -8.3276 7.02612 -7.92971 6.79385 -8.36076C6.69431 -8.5597 7.02612 -8.59285 6.69431 -8.82495C6.49523 -8.99074 6.52841 -8.5597 6.36251 -8.5597C6.36251 -8.72549 6.13025 -8.82495 6.26297 -8.92443C6.16343 -8.99074 5.99753 -8.92443 5.89799 -9.0239C6.16343 -9.15653 5.93116 -9.45494 5.79844 -9.65388C5.533 -9.98545 5.40028 -9.65388 5.23438 -9.62073C5.16802 -9.58757 5.13484 -9.12337 5.23438 -9.09021C5.43346 -8.99074 5.76526 -8.99074 5.56618 -8.65917C6.03071 -8.92443 5.16802 -8.06234 5.23438 -8.29444C5.33392 -8.82496 4.70349 -8.3276 4.60395 -8.3276C4.20579 -8.3276 3.40946 -8.22813 3.24356 -8.75864C3.07765 -8.72548 2.84539 -8.75864 2.71267 -8.62601C2.51359 -8.46023 3.07765 -8.5597 3.14401 -8.59286C3.14401 -8.65917 2.61313 -8.0955 2.84539 -8.0955C2.64631 -8.0955 2.51359 -8.36076 2.21496 -8.36076C2.04906 -8.36076 1.31909 -8.19497 1.31909 -8.39392C1.31909 -8.46023 1.55136 -8.42707 1.58454 -8.46023C1.31909 -8.82496 1.05365 -8.5597 0.688667 -8.69233C0.489584 -8.75864 0.323684 -8.89127 0.124602 -8.95759C-0.107661 -9.0239 -0.439465 -8.75864 -0.505826 -9.09021C-0.638547 -9.05705 -0.638547 -8.89127 -0.771269 -8.89127C-0.90399 -8.89127 -1.00353 -9.09021 -1.10307 -9.18968C-1.20261 -9.28916 -1.23579 -9.12337 -1.30216 -9.05706C-1.36852 -8.95759 -1.60078 -9.09021 -1.70032 -9.05706C-1.76668 -9.05706 -2.52983 -8.85812 -2.49665 -8.89127C-2.49665 -8.89127 -2.96117 -8.62601 -2.76209 -8.62601C-3.12707 -8.62601 -3.4257 -8.85811 -3.72432 -8.92443C-3.72432 -7.89656 -3.72432 -6.90184 -3.72432 -5.87397C-3.72432 -6.86869 -3.72432 -7.8634 -3.72432 -8.85811C-3.72432 -9.15653 -4.35475 -9.0239 -4.48747 -9.0239C-4.81927 -9.0239 -5.08472 -9.18968 -5.38334 -9.18968C-5.51606 -9.18968 -5.64878 -9.18968 -5.7815 -9.18968C-5.88105 -9.18968 -5.94741 -9.32231 -6.04695 -9.32231C-6.14649 -9.32231 -6.24603 -9.32231 -6.34557 -9.32231C-6.54465 -9.38862 -6.54465 -9.256 -6.67737 -9.28916C-6.47829 -9.62073 -7.27462 -9.32231 -7.40734 -9.28916C-7.77233 -9.15653 -8.13731 -8.62601 -8.43593 -8.62601C-8.63502 -8.62601 -8.96682 -8.46023 -8.63502 -8.36076C-8.43593 -8.29444 -8.36957 -8.26129 -8.27003 -8.06234C-8.13731 -7.8634 -7.87187 -7.92971 -7.77233 -7.66446C-7.93823 -7.6313 -8.23685 -7.59814 -8.23685 -7.83024C-8.46911 -7.8634 -8.80092 -7.6313 -9 -7.53183C-8.96682 -7.46551 -8.90046 -7.3992 -8.80092 -7.43236C-8.8341 -7.36604 -8.8341 -7.33288 -8.76774 -7.26657C-8.63502 -7.10079 -8.60184 -7.1671 -8.36957 -7.1671C-8.13731 -7.1671 -8.03777 -7.06763 -7.83869 -7.20026C-7.70597 -7.29973 -7.6396 -7.23342 -7.6396 -7.13394C-7.67279 -7.1671 -7.70597 -7.1671 -7.73915 -7.13394C-7.67278 -6.96816 -7.54006 -6.96816 -7.73915 -6.83553C-7.90505 -6.73606 -8.07095 -6.7029 -8.27003 -6.63659C-8.43593 -6.60343 -8.70138 -6.4708 -8.70138 -6.27186C-8.70138 -6.17239 -8.23685 -5.94029 -8.53547 -5.94029C-8.43593 -5.80766 -8.27003 -5.70819 -8.13731 -5.64187C-8.03777 -5.57556 -7.87187 -5.84082 -7.87187 -5.64187C-7.83869 -5.60872 -7.93823 -5.3103 -7.80551 -5.3103C-7.67279 -5.3103 -7.63961 -5.37662 -7.60643 -5.47609C-7.50688 -5.40977 -7.40734 -5.34346 -7.27462 -5.27714C-7.24144 -5.40977 -6.84328 -5.40977 -6.67737 -5.44293C-6.84328 -5.34346 -6.84328 -5.11136 -7.00918 -5.01189C-7.20826 -4.87926 -7.44052 -4.81294 -7.57324 -4.614C-7.67278 -4.48137 -7.90505 -4.58085 -8.00459 -4.3819C-8.13731 -4.21612 -8.36957 -4.28243 -8.46911 -4.11665C-8.23685 -4.05033 -7.70597 -4.34874 -7.4737 -4.44822C-7.20826 -4.54769 -6.87646 -4.77979 -6.71055 -5.01189C-6.61101 -5.14451 -6.44511 -5.11136 -6.34557 -5.24399C-6.27921 -5.34346 -6.31239 -5.47609 -6.27921 -5.57556C-6.17967 -5.84082 -5.88105 -6.10608 -5.58242 -6.07292C-5.58242 -5.94029 -5.94741 -5.74134 -5.94741 -5.50924C-5.94741 -5.47609 -5.08472 -5.60872 -5.25062 -5.94029C-4.91881 -6.10607 -4.48747 -5.70819 -4.05613 -5.70819C-3.85704 -5.70819 -3.62478 -5.60872 -3.4257 -5.5424C-3.2598 -5.47609 -2.96117 -5.01189 -2.82845 -5.3103C-2.72891 -5.21083 -2.43029 -5.24399 -2.52983 -5.11136C-2.72891 -4.8461 -2.29757 -5.01189 -2.26438 -5.01189C-2.43029 -4.58084 -2.03212 -4.87926 -2.03212 -4.54769C-2.03212 -4.1498 -1.26897 -4.28243 -1.7335 -4.64716C-1.46806 -4.44822 -1.70032 -4.24927 -1.60078 -3.95086C-1.5676 -3.81823 -1.16943 -3.65245 -1.13625 -3.48666C-1.06989 -3.32088 -1.06989 -3.12193 -0.83763 -3.12193C-0.804449 -2.95615 -0.539006 -3.05562 -0.505826 -2.88983C-0.439465 -2.65773 0.157781 -2.75721 -0.174022 -2.32616C-0.240383 -2.45879 -0.605367 -2.49195 -0.439465 -2.25985C-0.240383 -1.96144 -0.373104 -1.79565 -0.439465 -1.46408C-0.505826 -1.13251 -0.505826 -0.0383207 -0.00812043 0.0279936C-0.0413008 0.326408 0.224142 0.459033 0.257322 0.72429C0.290503 0.890075 0.887749 1.02271 1.02047 1.25481C1.05365 1.32112 1.51818 2.48162 1.6509 2.41531C1.61772 2.41531 1.55136 2.41531 1.51818 2.41531C1.68408 2.64741 2.04906 2.58109 2.04906 2.94582C2.04906 3.04529 2.44723 3.41002 2.51359 3.41002C2.57995 3.41002 2.18178 2.71372 2.11542 2.61425C1.9827 2.44846 1.94952 2.21636 1.8168 2.08373C1.68408 1.95111 1.31909 1.68585 1.485 1.45375C1.58454 1.52007 1.68408 1.55322 1.8168 1.58638C1.84998 1.65269 1.88316 1.75216 1.91634 1.81848C2.04906 1.9511 2.11542 2.15005 2.24814 2.31583C2.34769 2.21636 2.71267 2.8795 2.77903 2.91266C2.97811 3.01213 3.17719 3.24424 3.30992 3.44318C3.47582 3.70843 3.40946 3.74159 3.40946 3.97369C3.40946 4.2721 4.07306 4.37157 4.27215 4.53736C4.47123 4.7363 4.96893 4.7363 5.2012 4.86893C5.3671 4.9684 5.40028 4.76946 5.533 4.76946C5.76526 4.76946 5.89798 4.9684 6.0307 5.10103C6.19661 5.26682 6.46205 5.26682 6.66113 5.36629C6.76067 5.4326 6.86021 5.4326 6.95976 5.36629C7.02612 5.39944 7.09248 5.53208 7.15884 5.59839C7.32474 5.73102 7.42428 6.16206 7.49064 6.02943C7.65654 6.02943 8.38651 6.85836 8.48605 6.49363C8.32015 6.42732 8.65196 6.16206 8.7515 6.29469C8.85104 6.42731 8.81786 6.49363 8.9174 6.62626C9.14966 6.85836 9.01694 7.35572 8.81786 7.48834C8.61877 7.62097 8.51923 7.95254 8.41969 8.11833C8.25379 8.38358 8.32015 8.41674 8.51923 8.54937C8.45287 8.81463 8.08789 8.84778 8.28697 9.21251C8.32015 9.27883 8.51923 9.54408 8.58559 9.6104C8.81786 9.80934 9.21602 10.5388 9.21602 10.8704C9.21602 11.2683 10.1783 11.434 10.3773 11.6993C10.6428 12.064 10.4437 12.5614 10.4437 12.9593C10.4437 13.3571 10.2446 13.7219 10.2446 14.1198C10.2446 14.4845 10.2446 14.9155 10.1451 15.2803C10.0787 15.645 9.74691 15.8771 9.81327 16.3081C9.84645 16.5071 9.84645 16.4076 9.78009 16.6397C9.74691 16.706 9.71373 17.0376 9.84645 17.0376C9.91281 17.0376 9.94599 16.9713 10.0123 16.9713C10.0123 17.336 9.84645 17.7339 9.78009 18.1318C9.68055 18.1318 9.61418 17.8997 9.51464 18.0655C9.48146 18.1318 9.54783 18.2644 9.58101 18.2644C9.68055 18.4965 9.44828 18.4633 9.44828 18.6623C9.44828 18.8281 9.51465 19.1265 9.54783 19.2923C9.54783 19.4249 9.74691 19.4249 9.74691 19.5907C9.74691 19.7233 9.61419 19.7565 9.61419 19.8559C9.61419 20.1875 10.4437 20.1875 10.5764 20.4528C10.676 20.6849 11.4059 20.6186 11.5386 20.4196C11.0409 20.1875 11.0078 19.9554 10.7091 19.5575C10.5764 19.3917 10.7423 19.1265 10.9082 19.0933C11.0741 19.0602 11.0409 18.7949 11.2068 18.6954C11.7377 18.3639 10.8087 18.2644 11.1073 17.8997C11.3064 17.7007 11.4059 17.8665 11.4723 17.5681C11.5055 17.4686 11.5386 17.3692 11.605 17.3028C11.5386 17.3028 11.5386 17.2697 11.5386 17.2034C11.605 17.2034 11.8041 17.336 11.8041 17.1702C11.8041 17.0376 11.6382 17.1702 11.5718 17.1039C11.1737 16.5402 12.0364 17.0707 12.0364 16.7723C12.0364 16.0097 12.5672 16.5734 12.9654 16.1755C13.0649 16.076 13.3304 15.8108 13.1313 15.7113C13.0981 15.7113 12.8327 15.3134 12.8327 15.3134C12.8327 15.3797 13.6954 15.4792 13.8281 15.2471C14.0604 14.9155 14.3258 14.6171 14.4917 14.2524C14.6908 13.9871 14.724 13.9208 14.7571 13.5893C14.7571 13.1582 15.2548 12.9593 15.5867 12.7603C15.7857 12.6609 15.9848 12.7603 16.1839 12.6277C16.2834 12.5614 16.3166 12.3624 16.383 12.263C16.5489 11.9977 16.748 11.5335 16.748 11.2019C16.748 10.9698 16.6152 10.7709 16.8475 10.6051C16.9802 10.5056 17.0466 10.3399 17.1461 10.2404C17.3452 10.0414 17.9093 9.21252 17.3784 9.07989C17.5443 9.11304 17.2789 9.04673 17.3784 9.07989ZM10.9082 -2.293C10.9082 -2.25985 10.9414 -2.22669 10.9414 -2.22669C10.9414 -2.19353 10.8419 -2.39248 10.9082 -2.293ZM10.3442 -1.82881C10.4437 -1.92828 10.2446 -1.72934 10.3442 -1.82881ZM9.54783 -1.72933C9.61419 -1.76249 9.05012 -1.23198 9.44828 -1.66302C9.48146 -1.66302 9.51465 -1.69618 9.54783 -1.72933ZM8.58559 -1.29829C8.7515 -1.33145 9.14966 -1.36461 9.2492 -1.43092C9.0833 -1.29829 9.11648 -1.19882 8.85104 -1.19882C8.78468 -1.19882 8.48605 -1.26514 8.51923 -1.16566C8.48605 -1.26514 8.48605 -1.26513 8.58559 -1.29829C8.71832 -1.3646 8.55241 -1.29829 8.58559 -1.29829ZM8.55241 -1.06619C8.5856 -1.03303 8.55241 -1.03304 8.45287 -0.999879C8.48605 -1.03304 8.51923 -1.03303 8.55241 -1.06619ZM8.45287 -0.999879C8.32015 -0.933565 7.82245 -0.635151 7.82245 -0.999879C7.88881 -0.900408 7.95517 -0.900408 8.02153 -0.999879C8.15425 -1.09935 8.35333 -0.933565 8.45287 -0.999879C8.41969 -0.999879 8.28697 -0.933565 8.45287 -0.999879ZM5.63254 -2.59142C5.89798 -2.59142 5.99753 -2.5251 6.22979 -2.45879C6.39569 -2.42563 6.59477 -2.42563 6.76067 -2.49195C6.92658 -2.59142 6.82703 -2.69089 7.02612 -2.49195C7.02612 -2.52511 7.02612 -2.55826 7.02612 -2.59142C7.42428 -2.52511 7.3911 -2.0609 7.75609 -1.96143C7.85563 -1.92828 8.15425 -1.89512 8.22061 -1.86196C8.48605 -1.69618 8.38651 -1.39776 8.15425 -1.66302C8.12107 -1.56355 8.08789 -1.19882 7.95517 -1.19882C7.88881 -1.26513 7.85562 -1.33145 7.85562 -1.43092C7.82244 -1.39777 7.75609 -1.39776 7.72291 -1.39776C7.85563 -2.06091 7.15884 -1.89512 7.15884 -1.3646C7.15884 -1.26513 7.2252 -0.834093 7.02612 -0.834093C6.69431 -0.834093 6.92657 -1.53039 7.02612 -1.66302C6.95975 -1.62986 6.89339 -1.59671 6.86021 -1.56355C6.89339 -1.89512 7.65654 -1.89512 7.62336 -1.99459C7.35792 -1.99459 6.99294 -2.02775 6.76067 -2.09406C6.79385 -2.16038 6.82703 -2.19354 6.82703 -2.25985C6.66113 -2.22669 6.49523 -2.02775 6.32933 -2.02775C6.22979 -2.02775 6.13025 -2.09406 5.99752 -2.06091C6.13025 -2.25985 6.36251 -2.32616 6.56159 -2.45879C6.29615 -2.45879 5.66572 -2.5251 5.49982 -2.72405C5.533 -2.69089 5.56618 -2.65774 5.63254 -2.59142ZM-2.99435 -5.47609C-3.06071 -5.50925 -3.09389 -5.5424 -3.16026 -5.5424C-2.96117 -5.37662 -2.96117 -5.47609 -2.86163 -5.60872C-2.89481 -5.5424 -2.92799 -5.50925 -2.99435 -5.47609ZM-2.66255 -5.67503C-2.52983 -5.57556 -2.43029 -5.44293 -2.33075 -5.3103C-2.43029 -5.44293 -2.56301 -5.57556 -2.66255 -5.67503ZM-2.09848 -5.01189C-2.13166 -5.04504 -2.13166 -5.0782 -2.19802 -5.11136C-2.09848 -5.01189 -2.0653 -4.77979 -1.93258 -4.71347C-1.99894 -4.77979 -2.0653 -4.91241 -2.09848 -5.01189C-2.0653 -4.94557 -2.09848 -5.0782 -2.09848 -5.01189ZM-1.8994 -4.74663C-1.86622 -4.74663 -1.83304 -4.74663 -1.79986 -4.71347C-1.83304 -4.71347 -1.86622 -4.71348 -1.8994 -4.74663ZM1.45182 1.22165C1.71726 1.28796 1.94952 1.38744 2.21496 1.45375C1.94952 1.38744 1.71726 1.32112 1.45182 1.22165ZM4.0067 1.81848C4.20579 1.81848 4.30533 1.95111 4.40487 2.11689C4.30533 1.95111 4.1726 1.81848 4.0067 1.81848Z" fill="#90C6DE"/>
<mask id="mask1_23_18867" style="mask-type:alpha" maskUnits="userSpaceOnUse" x="8" y="5" width="11" height="17">
<path d="M9.10032 6.22549L8.91999 6.7665L8.55932 7.48784L8.19865 8.02884L8.01831 8.56985V8.93052L8.37898 9.8322L8.73965 10.7339L8.91999 11.2749L10.1823 11.9962L10.002 12.3569L9.82166 13.9799L9.46099 16.1439L9.28066 17.7669L8.91999 18.308V20.1113L9.46099 21.013L12.166 21.3736L11.9857 20.1113L11.625 19.39L11.8053 17.7669L12.8874 16.8653L14.1497 15.6029L15.2317 13.9799L16.4941 13.0782L17.3957 11.2749L18.1171 8.93052L16.8547 8.38951L14.871 7.84851L15.0514 7.12717L13.9694 6.7665L12.707 6.22549L12.3464 5.86482H12.166L10.9037 5.50415H10.002L9.10032 6.22549Z" fill="#D9D9D9"/>
</mask>
<g mask="url(#mask1_23_18867)">
<path d="M17.395 9.12816C17.1963 9.0619 17.0969 9.12816 16.9313 8.96251C16.7657 8.82998 16.6333 8.63119 16.3683 8.66432C16.1034 8.69745 15.8716 8.53179 15.6398 8.66432C15.6398 8.39927 15.3748 8.333 15.143 8.23361C14.8449 8.13421 14.8781 8.56492 14.6794 8.56492C14.58 8.56492 14.4475 8.36614 14.3482 8.333C14.0501 8.23361 14.4807 7.93543 14.58 7.83603C14.58 7.73664 14.282 7.30593 14.2488 7.2728C14.0833 7.14027 13.9839 7.10714 13.7852 7.00774C13.6196 6.94148 13.4209 6.94148 13.2553 6.94148C13.0235 6.90835 12.9241 6.74269 12.7917 6.61017C12.6261 6.44451 11.8644 6.17946 12.0962 5.98067C11.8644 5.91441 11.7982 6.0138 11.6326 6.08006C11.4339 6.14633 11.4008 6.0138 11.2352 6.0138C10.904 6.0138 10.8046 5.71562 10.5066 5.71562C10.5397 5.78188 10.5728 5.81501 10.6391 5.84814C10.1423 5.74875 10.4404 6.31199 10.3079 6.31199C10.0098 6.31199 10.341 5.78188 10.341 5.71562C10.341 5.54996 9.87736 5.81501 9.77801 5.84814C9.44684 5.94754 9.31437 6.31199 9.08255 6.47764C9.21502 6.34512 8.85073 6.21259 8.71826 6.21259C8.51955 6.21259 8.28773 6.47764 8.12215 6.24572C8.0228 6.08006 7.79098 6.1132 7.79098 5.88128C7.79098 5.71562 7.79097 5.54996 7.82409 5.3843C7.92344 4.88733 7.4598 4.92046 7.06239 4.95359C6.59875 4.98672 6.89681 4.72167 6.89681 4.39036C6.96304 4.42349 6.92993 4.39036 6.96304 4.42349C7.0624 4.25783 7.12863 3.95965 7.16175 3.76086C6.92993 3.76086 6.63187 3.62833 6.46629 3.86025C6.26758 4.12531 6.36693 4.3241 6.03576 4.3241C5.93641 4.3241 5.67147 4.48975 5.60524 4.39036C5.50589 4.29097 5.3403 4.15844 5.24095 4.02591C5.10848 3.89339 5.00913 3.66147 5.00913 3.46268C5.00913 3.16449 4.94289 2.30308 5.27407 2.17055C5.43965 2.10429 5.77082 1.8061 5.93641 1.9055C6.00265 1.93863 6.56564 2.07115 6.63187 2.03802C6.56564 1.97176 6.56564 1.9055 6.63187 1.8061C6.59876 1.83923 6.56564 1.83923 6.53252 1.8061C6.69811 1.73984 6.92993 1.83923 7.02928 1.77297C7.16175 1.70671 7.29422 1.8061 7.39357 1.87236C7.55915 1.97176 7.52604 1.8061 7.65851 1.8061C7.89033 1.8061 8.18838 3.13136 8.45332 2.86631C8.78449 2.50186 8.08903 1.87237 8.32085 1.47479C8.55267 1.04408 9.08255 1.04408 9.34748 0.712761C9.24813 0.547104 9.3806 0.679631 9.28125 0.480842C9.44684 0.480842 9.24813 0.0170004 9.28125 -0.115526L9.3806 0.248923C9.5793 0.248923 9.51307 -0.115525 9.47995 -0.181788C9.57931 -0.148656 9.64554 -0.248053 9.74489 -0.380579C9.81113 -0.513105 9.71177 -0.41371 9.71177 -0.546236C9.71177 -0.612499 10.0429 -0.612498 10.0761 -0.612498C10.0098 -0.645629 9.91048 -0.612498 9.84424 -0.612498C10.0429 -0.745024 10.4404 -0.745023 10.6059 -0.844417C10.341 -0.778154 10.4404 -1.17573 10.6059 -1.30826C10.7715 -1.44078 11.202 -1.44078 11.1358 -1.63957C11.3676 -1.50704 11.5001 -1.7721 11.6657 -1.80523C11.6326 -1.70583 11.6657 -1.67271 11.765 -1.70584C11.2683 -1.67271 11.4008 -1.17573 11.5663 -1.30826C11.6657 -1.37452 12.328 -1.6727 12.328 -1.73897C12.328 -1.93776 11.5332 -1.80523 11.6326 -2.36847C11.5663 -2.36847 11.5001 -2.36846 11.467 -2.4016C11.5332 -2.46786 12.03 -2.73291 11.5663 -2.73291C11.2352 -2.73291 11.0365 -2.53412 10.7384 -2.50099C10.8046 -2.66665 11.3014 -2.99797 11.5001 -3.0311C11.8313 -3.06423 12.3612 -2.86544 12.6592 -3.06423C12.8579 -3.22988 13.2553 -3.29615 13.3878 -3.4618C13.5203 -3.62746 13.2553 -3.89251 13.2553 -4.05817C13.156 -3.99191 12.593 -3.72686 12.5267 -3.85938C12.6261 -3.92565 13.4209 -4.15757 12.9241 -4.1907C12.7586 -4.1907 12.5267 -4.29009 12.5267 -4.48888C12.4605 -4.55514 12.2949 -4.58828 12.1956 -4.68767C12.4936 -4.85333 12.0962 -5.05212 12.03 -5.21777C11.9306 -5.41656 11.9306 -5.58222 11.7319 -5.74788C11.5663 -5.8804 11.4008 -5.25091 11.1027 -5.25091C10.8046 -5.25091 10.7053 -5.68161 10.6722 -5.8804C10.6722 -5.94667 10.2085 -6.21172 10.1423 -6.24485C9.81113 -6.47677 9.67866 -6.34424 9.28125 -6.47677C8.68514 -6.67556 9.11567 -6.14546 8.91696 -6.01293C8.81761 -5.94667 9.21502 -5.58222 8.78449 -5.41656C9.04943 -4.98585 9.47995 -4.29009 8.61891 -4.12443C8.78449 -4.05817 8.78449 -3.85939 8.81761 -3.69373C8.85073 -3.46181 8.75138 -3.52807 8.75138 -3.32928C8.51956 -3.32928 8.65202 -3.13049 8.38708 -3.36241C8.12215 -3.62746 8.15527 -3.75999 8.08903 -4.0913C8.0228 -4.42262 7.55915 -4.29009 7.32733 -4.42262C7.09551 -4.55515 6.86369 -4.65454 6.63187 -4.75393C6.56564 -4.78707 6.4994 -4.8202 6.43317 -4.85333C6.26758 -4.91959 6.23446 -4.78706 6.06888 -4.78706C6.06888 -5.15151 5.93641 -5.3503 5.63836 -5.28403C5.70459 -5.44969 5.63836 -5.61535 5.63836 -5.78101C5.67147 -6.01293 5.87018 -6.17859 5.96953 -6.37738C6.102 -6.6093 6.20135 -6.44364 6.36693 -6.60929C6.56564 -6.77495 6.102 -6.84122 6.03576 -6.87435C6.03576 -6.87435 6.102 -6.90748 6.13511 -6.90748C6.23447 -6.87435 6.36693 -6.87435 6.46629 -6.84122C6.63187 -6.80809 6.4994 -7.00688 6.59876 -7.00688C6.83058 -7.07314 6.92993 -7.10627 7.12863 -7.27192C7.12863 -7.50384 6.66499 -7.37132 6.53252 -7.60324C6.73122 -7.57011 6.89681 -7.37132 7.09551 -7.47072C7.16175 -7.50385 7.36045 -7.80203 7.22798 -7.80203C7.36045 -7.80203 7.42668 -7.66951 7.52604 -7.66951C7.65851 -7.66951 7.75786 -7.83516 7.75786 -7.83516C7.92344 -7.83516 7.95656 -7.7689 8.12215 -7.96769C8.32085 -8.16648 8.08903 -8.16648 8.05591 -8.36526C8.02279 -8.53092 8.2215 -8.49779 8.2215 -8.63032C8.18838 -8.79597 8.12215 -8.72971 8.02279 -8.82911C7.92344 -8.89537 7.42669 -9.09416 7.42669 -8.82911C7.4598 -8.76285 7.49292 -8.69658 7.52604 -8.63032C7.52604 -8.56405 7.36045 -8.56406 7.32733 -8.49779C7.22798 -8.26587 7.0624 -7.86829 6.83058 -8.299C6.73122 -8.49779 7.06239 -8.53092 6.73122 -8.76284C6.53252 -8.9285 6.56564 -8.49779 6.40005 -8.49779C6.40005 -8.66345 6.16823 -8.76284 6.3007 -8.86224C6.20135 -8.9285 6.03576 -8.86224 5.93641 -8.96163C6.20135 -9.09416 5.96953 -9.39234 5.83706 -9.59113C5.57212 -9.92244 5.43965 -9.59113 5.27407 -9.558C5.20783 -9.52487 5.17471 -9.06103 5.27407 -9.02789C5.47277 -8.9285 5.80394 -8.9285 5.60524 -8.59718C6.06888 -8.86224 5.20783 -8.00082 5.27407 -8.23274C5.37342 -8.76284 4.74419 -8.26587 4.64484 -8.26587C4.24743 -8.26587 3.45262 -8.16648 3.28703 -8.69658C3.12145 -8.66345 2.88962 -8.69658 2.75715 -8.56406C2.55845 -8.3984 3.12145 -8.49779 3.18768 -8.53092C3.18768 -8.59718 2.6578 -8.03395 2.88962 -8.03395C2.69092 -8.03395 2.55845 -8.299 2.2604 -8.299C2.09481 -8.299 1.36623 -8.13335 1.36623 -8.33214C1.36623 -8.3984 1.59805 -8.36527 1.63117 -8.3984C1.36623 -8.76284 1.10129 -8.49779 0.737004 -8.63032C0.538301 -8.69658 0.372716 -8.82911 0.174012 -8.89537C-0.0578083 -8.96163 -0.388981 -8.69658 -0.455216 -9.02789C-0.587685 -8.99476 -0.587684 -8.82911 -0.720153 -8.82911C-0.852622 -8.82911 -0.951974 -9.0279 -1.05133 -9.12729C-1.15068 -9.22668 -1.1838 -9.06103 -1.25003 -8.99477C-1.31626 -8.89537 -1.54808 -9.0279 -1.64744 -8.99477C-1.71367 -8.99477 -2.47537 -8.79598 -2.44225 -8.82911C-2.44225 -8.82911 -2.90589 -8.56406 -2.70719 -8.56406C-3.07148 -8.56406 -3.36953 -8.79597 -3.66759 -8.86224C-3.66759 -7.83516 -3.66759 -6.84122 -3.66759 -5.81414C-3.66759 -6.80809 -3.66759 -7.80203 -3.66759 -8.79597C-3.66759 -9.09416 -4.29681 -8.96163 -4.42928 -8.96163C-4.76046 -8.96163 -5.02539 -9.12729 -5.32345 -9.12729C-5.45592 -9.12729 -5.58839 -9.12729 -5.72086 -9.12729C-5.82021 -9.12729 -5.88644 -9.25981 -5.98579 -9.25981C-6.08515 -9.25981 -6.1845 -9.25981 -6.28385 -9.25981C-6.48255 -9.32608 -6.48255 -9.19355 -6.61502 -9.22668C-6.41632 -9.558 -7.21113 -9.25982 -7.3436 -9.22668C-7.70789 -9.09416 -8.07218 -8.56406 -8.37023 -8.56406C-8.56894 -8.56406 -8.90011 -8.3984 -8.56894 -8.299C-8.37023 -8.23274 -8.304 -8.19961 -8.20465 -8.00082C-8.07218 -7.80203 -7.80724 -7.86829 -7.70789 -7.60324C-7.87348 -7.57011 -8.17153 -7.53698 -8.17153 -7.7689C-8.40335 -7.80203 -8.73452 -7.57011 -8.93323 -7.47072C-8.90011 -7.40445 -8.83388 -7.33819 -8.73452 -7.37132C-8.76764 -7.30506 -8.76764 -7.27193 -8.70141 -7.20566C-8.56894 -7.04 -8.53582 -7.10627 -8.304 -7.10627C-8.07218 -7.10627 -7.97283 -7.00687 -7.77412 -7.1394C-7.64165 -7.23879 -7.57542 -7.17253 -7.57542 -7.07314C-7.60854 -7.10627 -7.64166 -7.10627 -7.67477 -7.07314C-7.60854 -6.90748 -7.47607 -6.90748 -7.67477 -6.77495C-7.84036 -6.67556 -8.00595 -6.64243 -8.20465 -6.57617C-8.37023 -6.54303 -8.63517 -6.41051 -8.63517 -6.21172C-8.63517 -6.11232 -8.17153 -5.8804 -8.46959 -5.8804C-8.37023 -5.74788 -8.20465 -5.64848 -8.07218 -5.58222C-7.97283 -5.51596 -7.80724 -5.78101 -7.80724 -5.58222C-7.77412 -5.54909 -7.87348 -5.25091 -7.74101 -5.25091C-7.60854 -5.25091 -7.57542 -5.31717 -7.5423 -5.41656C-7.44295 -5.3503 -7.3436 -5.28404 -7.21113 -5.21777C-7.17801 -5.3503 -6.78061 -5.3503 -6.61502 -5.38343C-6.78061 -5.28404 -6.78061 -5.05211 -6.94619 -4.95272C-7.1449 -4.82019 -7.37672 -4.75393 -7.50919 -4.55514C-7.60854 -4.42262 -7.84036 -4.52201 -7.93971 -4.32322C-8.07218 -4.15757 -8.304 -4.22383 -8.40335 -4.05817C-8.17153 -3.99191 -7.64166 -4.29009 -7.40983 -4.38949C-7.1449 -4.48888 -6.81372 -4.7208 -6.64814 -4.95272C-6.54879 -5.08525 -6.3832 -5.05212 -6.28385 -5.18464C-6.21761 -5.28404 -6.25073 -5.41656 -6.21761 -5.51596C-6.11826 -5.78101 -5.82021 -6.04606 -5.52215 -6.01293C-5.52215 -5.88041 -5.88644 -5.68161 -5.88644 -5.44969C-5.88644 -5.41656 -5.02539 -5.54909 -5.19098 -5.8804C-4.85981 -6.04606 -4.42928 -5.64848 -3.99876 -5.64848C-3.80006 -5.64848 -3.56824 -5.54909 -3.36953 -5.48283C-3.20395 -5.41656 -2.90589 -4.95272 -2.77342 -5.25091C-2.67407 -5.15151 -2.37601 -5.18464 -2.47537 -5.05212C-2.67407 -4.78706 -2.24355 -4.95272 -2.21043 -4.95272C-2.37601 -4.52201 -1.97861 -4.8202 -1.97861 -4.48888C-1.97861 -4.0913 -1.21691 -4.22383 -1.68055 -4.58828C-1.41562 -4.38949 -1.64744 -4.1907 -1.54808 -3.89251C-1.51497 -3.75999 -1.11756 -3.59433 -1.08444 -3.42867C-1.01821 -3.26302 -1.01821 -3.06423 -0.786388 -3.06423C-0.753271 -2.89857 -0.488333 -2.99796 -0.455216 -2.83231C-0.388981 -2.60039 0.207129 -2.69978 -0.124043 -2.26907C-0.190278 -2.4016 -0.554567 -2.43473 -0.388981 -2.20281C-0.190277 -1.90463 -0.322746 -1.73897 -0.388981 -1.40765C-0.455215 -1.07634 -0.455216 0.0170023 0.0415429 0.0832653C0.00842562 0.381449 0.273363 0.513972 0.30648 0.779024C0.339598 0.944681 0.935708 1.07721 1.06818 1.30913C1.10129 1.37539 1.56493 2.535 1.6974 2.46873C1.66429 2.46873 1.59805 2.46873 1.56493 2.46873C1.73052 2.70065 2.09481 2.63439 2.09481 2.99884C2.09481 3.09823 2.49222 3.46268 2.55845 3.46268C2.62469 3.46268 2.22728 2.76692 2.16105 2.66752C2.02858 2.50187 1.99546 2.26994 1.86299 2.13742C1.73052 2.00489 1.36623 1.73984 1.53182 1.50792C1.63117 1.57418 1.73052 1.60731 1.86299 1.64045C1.89611 1.70671 1.92923 1.8061 1.96234 1.87236C2.09481 2.00489 2.16105 2.20368 2.29351 2.36934C2.39287 2.26994 2.75716 2.93257 2.82339 2.9657C3.02209 3.0651 3.2208 3.29702 3.35327 3.49581C3.51885 3.76086 3.45262 3.79399 3.45262 4.02591C3.45262 4.32409 4.11496 4.42349 4.31367 4.58914C4.51237 4.78793 5.00913 4.78793 5.24095 4.92046C5.40653 5.01985 5.43965 4.82107 5.57212 4.82107C5.80394 4.82107 5.93641 5.01986 6.06888 5.15238C6.23446 5.31804 6.4994 5.31804 6.69811 5.41743C6.79746 5.4837 6.89681 5.4837 6.99616 5.41743C7.0624 5.45056 7.12863 5.58309 7.19486 5.64936C7.36045 5.78188 7.4598 6.21259 7.52604 6.08006C7.69162 6.08006 8.4202 6.90835 8.51955 6.54391C8.35397 6.47764 8.68514 6.21259 8.78449 6.34512C8.88384 6.47764 8.85073 6.5439 8.95008 6.67643C9.1819 6.90835 9.04943 7.40532 8.85073 7.53785C8.65202 7.67038 8.55267 8.00169 8.45332 8.16735C8.28773 8.4324 8.35397 8.46553 8.55267 8.59806C8.48644 8.86311 8.12215 8.89624 8.32085 9.26069C8.35397 9.32695 8.55267 9.592 8.61891 9.65826C8.85073 9.85705 9.24813 10.5859 9.24813 10.9173C9.24813 11.3148 10.2085 11.4805 10.4072 11.7455C10.6722 12.11 10.4735 12.607 10.4735 13.0045C10.4735 13.4021 10.2748 13.7666 10.2748 14.1641C10.2748 14.5286 10.2748 14.9593 10.1754 15.3237C10.1092 15.6882 9.77801 15.9201 9.84424 16.3508C9.87736 16.5496 9.87736 16.4502 9.81113 16.6821C9.77801 16.7484 9.74489 17.0797 9.87736 17.0797C9.94359 17.0797 9.97671 17.0135 10.0429 17.0135C10.0429 17.3779 9.87736 17.7755 9.81113 18.1731C9.71177 18.1731 9.64554 17.9411 9.54619 18.1068C9.51307 18.1731 9.57931 18.3056 9.61242 18.3056C9.71177 18.5375 9.47995 18.5044 9.47995 18.7032C9.47995 18.8688 9.54619 19.167 9.57931 19.3327C9.57931 19.4652 9.77801 19.4652 9.77801 19.6308C9.77801 19.7634 9.64554 19.7965 9.64554 19.8959C9.64554 20.2272 10.4735 20.2272 10.6059 20.4923C10.7053 20.7242 11.4339 20.6579 11.5663 20.4591C11.0696 20.2272 11.0365 19.9953 10.7384 19.5977C10.6059 19.4321 10.7715 19.167 10.9371 19.1339C11.1027 19.1007 11.0696 18.8357 11.2352 18.7363C11.765 18.405 10.8378 18.3056 11.1358 17.9411C11.3345 17.7424 11.4339 17.908 11.5001 17.6098C11.5332 17.5104 11.5663 17.411 11.6326 17.3448C11.5663 17.3448 11.5663 17.3116 11.5663 17.2454C11.6326 17.2454 11.8313 17.3779 11.8313 17.2122C11.8313 17.0797 11.6657 17.2122 11.5995 17.146C11.2021 16.5827 12.0631 17.1128 12.0631 16.8147C12.0631 16.0526 12.593 16.6159 12.9904 16.2183C13.0897 16.1189 13.3547 15.8539 13.156 15.7545C13.1228 15.7545 12.8579 15.3569 12.8579 15.3569C12.8579 15.4231 13.719 15.5225 13.8514 15.2906C14.0832 14.9593 14.3482 14.6611 14.5138 14.2967C14.7125 14.0316 14.7456 13.9654 14.7787 13.634C14.7787 13.2033 15.2755 13.0045 15.6066 12.8058C15.8053 12.7064 16.0041 12.8058 16.2028 12.6732C16.3021 12.607 16.3352 12.4082 16.4015 12.3088C16.567 12.0437 16.7657 11.5799 16.7657 11.2486C16.7657 11.0167 16.6333 10.8179 16.8651 10.6522C16.9976 10.5528 17.0638 10.3872 17.1632 10.2878C17.3619 10.089 17.9248 9.26069 17.395 9.12816C17.5606 9.1613 17.2956 9.09503 17.395 9.12816ZM10.9371 -2.23594C10.9371 -2.20281 10.9702 -2.16968 10.9702 -2.16968C10.9702 -2.13655 10.8709 -2.33533 10.9371 -2.23594ZM10.3741 -1.7721C10.4735 -1.87149 10.2748 -1.67271 10.3741 -1.7721ZM9.57931 -1.6727C9.64554 -1.70584 9.08255 -1.17573 9.47995 -1.60644C9.51307 -1.60644 9.54619 -1.63957 9.57931 -1.6727ZM8.61891 -1.24199C8.78449 -1.27513 9.1819 -1.30826 9.28125 -1.37452C9.11566 -1.242 9.14878 -1.1426 8.88384 -1.1426C8.81761 -1.1426 8.51955 -1.20886 8.55267 -1.10947C8.51955 -1.20886 8.51955 -1.20886 8.61891 -1.24199C8.75138 -1.30826 8.58579 -1.24199 8.61891 -1.24199ZM8.58579 -1.01007C8.61891 -0.976943 8.58579 -0.976945 8.48644 -0.943813C8.51955 -0.976945 8.55267 -0.976943 8.58579 -1.01007ZM8.48644 -0.943813C8.35397 -0.87755 7.85721 -0.579367 7.85721 -0.943813C7.92344 -0.844419 7.98968 -0.844419 8.05591 -0.943813C8.18838 -1.04321 8.38709 -0.87755 8.48644 -0.943813C8.45332 -0.943813 8.32085 -0.87755 8.48644 -0.943813ZM5.67147 -2.53413C5.93641 -2.53413 6.03576 -2.46786 6.26758 -2.4016C6.43317 -2.36846 6.63187 -2.36847 6.79746 -2.43473C6.96304 -2.53412 6.86369 -2.63352 7.06239 -2.43473C7.06239 -2.46786 7.06239 -2.50099 7.06239 -2.53413C7.4598 -2.46786 7.42669 -2.00402 7.79098 -1.90462C7.89033 -1.87149 8.18838 -1.83836 8.25462 -1.80523C8.51956 -1.63957 8.4202 -1.34139 8.18838 -1.60644C8.15526 -1.50705 8.12215 -1.1426 7.98968 -1.1426C7.92344 -1.20886 7.89033 -1.27513 7.89033 -1.37452C7.85721 -1.34139 7.79098 -1.34139 7.75786 -1.34139C7.89033 -2.00402 7.19486 -1.83836 7.19486 -1.30826C7.19486 -1.20886 7.2611 -0.778156 7.06239 -0.778156C6.73122 -0.778156 6.96304 -1.47392 7.06239 -1.60644C6.99616 -1.57331 6.92993 -1.54018 6.89681 -1.50705C6.92993 -1.83836 7.69162 -1.83836 7.65851 -1.93776C7.39357 -1.93776 7.02928 -1.97089 6.79746 -2.03715C6.83058 -2.10342 6.86369 -2.13655 6.86369 -2.20281C6.69811 -2.16968 6.53252 -1.97089 6.36693 -1.97089C6.26758 -1.97089 6.16823 -2.03715 6.03576 -2.00402C6.16823 -2.20281 6.40005 -2.26907 6.59876 -2.4016C6.33382 -2.4016 5.70459 -2.46786 5.539 -2.66665C5.57212 -2.63352 5.60524 -2.60039 5.67147 -2.53413ZM-2.93901 -5.41656C-3.00524 -5.4497 -3.03836 -5.48283 -3.10459 -5.48283C-2.90589 -5.31717 -2.90589 -5.41656 -2.80654 -5.54909C-2.83966 -5.48282 -2.87277 -5.4497 -2.93901 -5.41656ZM-2.60784 -5.61535C-2.47537 -5.51596 -2.37602 -5.38343 -2.27666 -5.25091C-2.37602 -5.38343 -2.50848 -5.51596 -2.60784 -5.61535ZM-2.04484 -4.95272C-2.07796 -4.98585 -2.07796 -5.01898 -2.14419 -5.05212C-2.04484 -4.95272 -2.01173 -4.7208 -1.87926 -4.65454C-1.94549 -4.7208 -2.01173 -4.85333 -2.04484 -4.95272C-2.01173 -4.88646 -2.04484 -5.01898 -2.04484 -4.95272ZM-1.84614 -4.68767C-1.81302 -4.68767 -1.77991 -4.68767 -1.74679 -4.65454C-1.77991 -4.65454 -1.81302 -4.65454 -1.84614 -4.68767ZM1.4987 1.276C1.76364 1.34226 1.99546 1.44166 2.2604 1.50792C1.99546 1.44166 1.76364 1.37539 1.4987 1.276ZM4.04873 1.87236C4.24743 1.87236 4.34678 2.00489 4.44614 2.17055C4.34678 2.00489 4.21431 1.87236 4.04873 1.87236Z" fill="#176C93"/>
</g>
<path d="M14.5039 7.99994C14.228 7.99994 14.5652 8.69246 14.7798 8.25508C14.8718 8.07284 14.6265 7.99994 14.5039 7.99994Z" fill="#176C93"/>
</g>
</svg>
