<svg width="24" height="24" viewBox="0 0 24 24" fill="none" xmlns="http://www.w3.org/2000/svg">
<g clip-path="url(#clip0_6144_24376)">
<g clip-path="url(#clip1_6144_24376)">
<mask id="mask0_6144_24376" style="mask-type:luminance" maskUnits="userSpaceOnUse" x="-4" y="0" width="32" height="24">
<rect x="-4" width="32" height="24" fill="white"/>
</mask>
<g mask="url(#mask0_6144_24376)">
<path fill-rule="evenodd" clip-rule="evenodd" d="M-4 0H28V22C28 23.1046 27.1046 24 26 24H-2C-3.10457 24 -4 23.1046 -4 22V0Z" fill="#CA2827"/>
<path fill-rule="evenodd" clip-rule="evenodd" d="M-4 0H28V24H-4V0Z" fill="#CA2827"/>
<path fill-rule="evenodd" clip-rule="evenodd" d="M16.0445 16.4434L12.1038 5.88354H11.9328L8.12915 16.4434L12.0793 14.0694L16.0445 16.4434ZM11.6675 9.32834L12.09 7.68226L12.5284 9.37549L13.7878 12.9046L14.5273 14.6132L12.9309 13.4885L12.0784 12.978L11.2396 13.4821L9.68025 14.6132L10.4011 12.8696L11.6675 9.32834Z" fill="#83B35E"/>
<path fill-rule="evenodd" clip-rule="evenodd" d="M9.91812 12.6046L12.0992 14.0545L14.1345 12.6046L18.0001 9.3374H6.00171L9.91812 12.6046ZM9.96341 11.3574L8.48001 10.4496H10.2898H13.8858H15.4822L14.2088 11.2562L12.0898 12.8639L9.96341 11.3574Z" fill="#83B35E"/>
</g>
</g>
<g style="mix-blend-mode:hard-light" opacity="0.12">
<rect width="24" height="24" rx="12" fill="white"/>
</g>
<rect width="24" height="24" fill="url(#paint0_linear_6144_24376)" fill-opacity="0.64" style="mix-blend-mode:overlay"/>
</g>
<defs>
<linearGradient id="paint0_linear_6144_24376" x1="24" y1="1.19273e-06" x2="-4.48665" y2="16.0237" gradientUnits="userSpaceOnUse">
<stop stop-color="white" stop-opacity="0.3"/>
<stop offset="0.262741" stop-opacity="0.27"/>
<stop offset="0.369956" stop-color="white" stop-opacity="0.26"/>
<stop offset="0.487001" stop-opacity="0.55"/>
<stop offset="0.594445" stop-opacity="0.24"/>
<stop offset="0.736408" stop-color="white" stop-opacity="0.3"/>
<stop offset="0.901459" stop-color="#272727" stop-opacity="0.22"/>
<stop offset="1" stop-opacity="0.2"/>
</linearGradient>
<clipPath id="clip0_6144_24376">
<rect width="24" height="24" rx="12" fill="white"/>
</clipPath>
<clipPath id="clip1_6144_24376">
<rect width="24" height="24" fill="white"/>
</clipPath>
</defs>
</svg>
