<svg xmlns="http://www.w3.org/2000/svg" fill="none" viewBox="0 0 44 44" height="44" width="44">
<path fill="#DCF4FF" d="M22.0159 43.9872C34.1574 43.9872 44 34.1403 44 21.9936C44 9.84687 34.1574 0 22.0159 0C9.87437 0 0.0317383 9.84687 0.0317383 21.9936C0.0317383 34.1403 9.87437 43.9872 22.0159 43.9872Z"></path>
<mask height="44" width="44" y="0" x="0" maskUnits="userSpaceOnUse" style="mask-type:luminance" id="mask0_491_24096">
<path fill="white" d="M43.9702 22.0055C43.9702 34.1311 34.1392 44 21.9851 44C9.86467 44 0 34.1648 0 22.0055C0 9.87982 9.831 0.0109015 21.9851 0.0109015C34.1392 0.0109015 43.9702 9.87982 43.9702 22.0055Z"></path>
</mask>
<g mask="url(#mask0_491_24096)">
<path fill="#DCF4FF" d="M54.5716 0.0411921H-9.46289V46.411H54.5716V0.0411921Z"></path>
<path fill="#90C6DE" d="M86.3419 -6.52666C85.0178 -7.22872 83.2963 -8.05841 81.7072 -7.80313C81.2438 -7.73929 81.5748 -6.9096 81.31 -6.97342C81.0451 -7.10107 80.7803 -7.54784 80.4492 -7.54784C79.6547 -7.54784 78.7941 -7.61166 77.9994 -7.61166C77.8009 -7.61166 77.4035 -7.54782 77.205 -7.61166C77.0063 -8.37753 76.3441 -8.56898 75.616 -8.56898C75.02 -8.56898 74.2256 -8.24988 73.8282 -8.82429C73.431 -9.39869 72.8351 -9.46251 72.1731 -9.59016C71.4447 -9.71771 70.5178 -9.90918 69.7894 -9.65396C69.5247 -9.59014 69.0612 -8.69663 69.0612 -8.69663C68.3991 -8.69663 67.5384 -8.56898 66.8762 -8.69663C66.6113 -8.69663 66.479 -8.8881 66.2141 -8.95194C65.7506 -9.14341 65.9493 -8.76047 65.7506 -8.50517C65.3534 -7.86694 64.7575 -9.14341 64.7575 -9.46251C64.7575 -9.71772 65.221 -9.84543 64.7575 -10.1646C64.2278 -10.4198 63.5657 -10.4836 63.036 -10.4836C62.374 -10.5475 62.705 -9.97314 62.0429 -9.97314C61.1822 -9.97314 60.4538 -10.0369 59.6594 -10.1646C59.1297 -10.2284 58.6 -10.3561 58.1365 -10.5475C58.0041 -10.6113 57.8056 -10.6751 57.7393 -10.8028C57.4082 -10.5475 57.0772 -10.2284 56.68 -10.0369C56.2827 -9.84543 56.2165 -10.1646 56.4813 -10.3561C57.1434 -10.8028 58.0703 -10.9942 58.6662 -11.5686C59.3944 -12.2068 57.9378 -12.7175 57.4744 -12.7175C57.0772 -12.7175 56.68 -12.7175 56.2165 -12.7175C55.7531 -12.7175 55.6206 -13.4833 54.9584 -13.4833C54.8922 -13.4833 51.3831 -11.5049 51.6481 -12.3983C50.6547 -12.0793 49.6616 -12.0793 48.7347 -11.6324C48.205 -11.3772 48.205 -10.9942 47.8078 -10.6113C47.543 -10.3561 46.7484 -10.5475 46.4837 -10.5475C46.1525 -10.5475 45.6228 -10.4836 45.4905 -10.1007C45.2918 -9.71772 45.954 -9.20722 45.2256 -9.27104C44.8946 -9.33487 44.5634 -9.33486 44.2987 -9.33486C44.2325 -9.20722 43.9675 -8.82429 43.7028 -8.8881C43.3718 -8.95192 43.5041 -9.52632 43.3056 -9.71771C43.2393 -9.33486 42.9084 -9.07957 42.5772 -8.8881C42.7096 -8.50516 43.3056 -8.12223 42.8421 -7.67548C42.6434 -7.48401 43.3056 -6.14374 42.8421 -6.39903C42.3124 -6.71813 42.3124 -7.80313 42.2462 -8.3137C42.2462 -8.569 42.5109 -9.46251 42.3787 -9.52632C41.584 -9.97313 40.6571 -9.39869 40.1937 -8.76047C39.5978 -7.86694 40.7234 -7.42019 40.8559 -6.65432C40.9219 -6.3352 39.5978 -7.03725 39.4653 -7.10107C39.1343 -7.29254 37.81 -7.80313 37.5453 -7.42019C37.479 -7.29254 37.81 -6.46285 37.3466 -6.5905C37.1481 -6.65431 37.0156 -6.9096 36.8169 -6.9096C36.3534 -6.9096 35.89 -6.5905 35.4265 -6.5905C34.6983 -6.52668 34.5659 -7.03725 33.7712 -6.65432C33.1753 -6.3352 32.6458 -5.88844 31.9837 -5.69697C31.2553 -5.5055 31.7187 -6.52666 31.454 -6.78195C31.3215 -6.97342 31.1228 -6.5905 31.0568 -6.52666C30.7256 -5.95226 30.9905 -5.88844 30.9905 -5.44169C30.9905 -4.9311 29.9312 -5.44169 29.6662 -4.9311C29.3353 -4.22906 28.8718 -4.10141 28.0772 -4.42053C28.1434 -4.22906 28.0111 -4.03759 28.0772 -3.90994C27.2827 -3.97376 27.4152 -4.73963 27.084 -5.18638C27.7462 -5.18638 28.6731 -4.86728 29.3352 -5.12257C29.9974 -5.37787 29.9312 -5.88844 29.3352 -6.27138C28.4746 -6.71815 27.4815 -7.03725 26.5544 -7.35637C25.9586 -7.54784 25.2965 -7.42019 24.833 -7.80313C25.0978 -7.86694 25.2965 -7.80313 25.3627 -8.12223C25.0978 -8.24988 24.833 -8.50517 24.6343 -8.12223C24.5018 -8.18606 24.4358 -8.3137 24.5018 -8.44135C24.1046 -8.18606 24.1046 -7.93076 23.9061 -8.3137C23.7074 -8.18606 23.575 -7.86694 23.3102 -7.93076C23.4425 -8.05841 23.5087 -8.18604 23.5749 -8.37751C23.5749 -8.18604 22.2508 -8.44135 22.2508 -8.18606C22.2508 -8.05841 22.3831 -8.05841 22.4493 -7.9946C22.1846 -7.86694 21.9197 -7.93076 21.7874 -7.61166C21.7874 -7.67547 21.7874 -7.73931 21.7874 -7.86694C21.5224 -7.86694 21.5224 -7.54782 21.2577 -7.48401C21.2577 -7.54782 21.2577 -7.61166 21.2577 -7.67548C21.059 -7.67548 20.8603 -7.61166 20.6618 -7.48401C20.728 -7.42019 20.728 -7.42019 20.7943 -7.35637C20.5293 -7.22872 20.3968 -7.42019 20.1983 -7.10107C20.2646 -7.10107 20.3308 -7.10107 20.3968 -7.10107C19.9334 -6.84578 20.0659 -6.65432 19.6686 -7.16491C19.5362 -7.03725 19.2714 -7.03725 19.2052 -6.78195C19.2714 -6.78195 19.3375 -6.71813 19.4037 -6.71813C19.2714 -6.65431 19.2052 -6.5905 19.139 -6.52666C19.4699 -6.52666 19.6686 -6.71813 19.9996 -6.78195C19.8011 -6.01609 18.8078 -5.88844 18.543 -5.18638C18.2121 -4.54816 17.7486 -3.71847 16.954 -3.527C17.0865 -3.527 17.1527 -3.46319 17.285 -3.46319C16.8215 -3.527 16.0933 -2.9526 15.8284 -2.6335C15.6299 -2.31437 15.4974 -2.50584 15.5636 -1.93144C15.5636 -1.73997 15.6299 -1.48468 15.7621 -1.35703C15.6299 -1.2294 15.5636 -1.16556 15.5636 -1.03793C15.6961 -1.10175 15.8284 -1.10175 15.9609 -1.10175C15.8284 -0.782645 15.6299 -0.71881 16.0271 -0.463525C16.6892 -0.0805883 17.3512 -0.654994 17.6824 -1.2294C18.0796 -0.71881 18.2781 0.11088 18.4768 0.749102C18.6093 1.13204 18.7417 1.45114 19.139 1.06822C19.4037 0.749103 19.6686 0.876755 19.9334 0.62145C20.4631 0.110881 19.9334 0.174697 20.0659 -0.335873C20.1983 -0.782645 20.9928 -0.782626 20.9928 -1.2294C20.9928 -1.73997 20.2646 -1.61234 20.2646 -2.12291C20.2646 -2.50584 20.4631 -2.9526 20.8603 -3.14407C21.1915 -3.33553 21.7212 -3.527 21.9859 -3.84612C22.1846 -4.16524 21.9197 -4.54816 22.3171 -4.73963C22.6481 -4.9311 23.3764 -4.99493 23.6412 -4.67581C23.9722 -4.29288 23.0453 -3.97377 22.8468 -3.71847C22.5818 -3.39937 21.9197 -3.2079 21.9197 -2.82496C21.9197 -2.69731 21.9859 -2.37819 22.1846 -2.31437C22.0521 -2.12291 21.8536 -2.05909 22.0521 -1.73997C22.3171 -1.42087 22.9128 -1.29322 23.3102 -1.42087C23.6412 -1.48468 24.6343 -1.48468 24.833 -1.8038C24.9653 -1.67615 25.0978 -1.48468 25.164 -1.35703C24.5019 -0.910278 23.9061 -1.29322 23.244 -1.03793C22.3171 -0.654993 23.8399 -0.0805883 23.1777 0.174697C22.6481 0.366165 22.5156 -0.591177 22.0521 0.302349C21.7874 0.940571 21.7874 1.70644 20.9265 1.70644C20.9265 0.940571 18.8078 2.59995 18.9403 1.70644C18.4768 1.64261 17.3512 2.28085 17.3512 1.38733C17.3512 1.00439 17.8146 0.940572 17.8146 0.685287C17.8146 0.557634 17.5499 0.366165 17.6161 -0.0167723C17.285 0.238513 16.6892 0.302349 16.6892 0.812919C16.6892 1.19586 17.0865 1.57879 17.0865 1.96173C17.0865 2.21703 15.7621 2.34467 15.6299 2.53614C15.1002 2.98289 15.2325 3.62111 14.3056 3.62111C14.1071 4.25935 13.4449 4.57845 12.9152 4.25935C12.9815 4.4508 13.0477 4.70611 12.849 4.76992C12.849 4.76992 11.2599 4.7061 11.8558 5.08904C12.0546 5.21667 12.3855 5.28051 12.5842 5.34433C12.849 5.40816 12.7165 5.66345 12.9152 5.8549C13.2462 6.1102 13.3787 6.49314 13.1139 7.00371C12.849 7.5143 12.518 7.32283 11.9221 7.32283C11.5911 7.32283 10.8627 7.32283 10.5978 7.19518C9.80334 6.81224 10.0681 8.21634 10.0681 8.40781C10.002 8.72692 9.80334 9.10986 9.80334 9.42898C9.80334 9.62045 10.002 9.55662 10.002 9.87573C10.002 10.6416 10.5317 9.87574 10.9289 10.2587C11.1937 10.514 11.1275 10.8331 11.5911 10.5778C11.8558 10.4501 12.2531 10.2587 12.5842 10.3225C12.7827 10.2587 13.7759 9.55662 13.5111 9.36515C12.9815 8.79075 14.5043 8.28017 14.6367 8.15252C14.9015 7.96106 14.6367 7.70577 14.7028 7.64195C14.7028 7.06755 15.6299 7.45046 15.8946 7.45046C16.5568 7.45046 17.0865 6.30167 17.6824 7.25901C18.0134 7.83342 18.543 8.21635 19.139 8.47164C19.3375 8.53546 20.3308 9.68426 19.6024 9.68426C19.6024 10.0034 20.2646 9.30133 20.2646 9.30133C20.2646 9.10987 19.8011 8.91839 20.1321 8.72692C20.3968 8.53546 20.5955 8.85458 20.7943 8.85458C20.8603 8.28017 19.8672 8.47163 19.8672 7.96106C18.9403 7.96106 19.3375 7.25901 18.6755 7.06754C17.9471 6.81226 18.543 6.30167 18.8078 6.17402C18.874 6.23783 18.8078 6.55696 19.0065 6.55696C19.4037 6.74842 19.2714 6.30167 19.4699 6.81224C19.6686 7.25901 20.3306 7.45048 20.6618 7.64195C21.3239 7.96106 21.3239 9.81191 22.1846 9.68426C21.9859 10.0034 22.1184 10.3863 22.648 10.3225C22.5818 10.2587 22.5818 9.74809 22.5818 9.68426C22.7805 9.87573 22.979 9.93956 23.244 9.81192C22.979 9.55663 22.8468 9.23751 22.7143 9.04604C22.2508 8.53546 22.7805 8.85458 23.0453 8.85458C23.244 7.96106 24.3696 8.9184 25.0315 8.28017C24.8993 8.0887 24.5681 7.96106 24.5681 7.70577C24.5681 7.38665 24.9653 7.25901 24.9653 7.00371C24.9653 6.49314 25.2965 6.23786 25.5612 5.98257C26.4221 5.08904 26.8855 7.70577 28.0772 6.30167C26.6868 6.30167 28.4084 5.59962 28.8718 5.40815C28.3421 5.66345 29.0043 6.1102 28.2096 6.30167C28.3421 6.55696 30.5933 7.76959 30.2621 8.02488C30.0636 8.0887 28.0772 8.72692 28.0772 8.0887C27.5475 8.0887 27.1503 7.70577 26.5544 8.02488C26.4883 8.0887 25.2302 8.40782 25.2302 8.34399C25.2302 8.40782 25.2965 8.47164 25.3627 8.53546C25.0315 8.72693 24.4358 8.53546 24.1709 8.85458C23.9722 9.04605 24.5681 9.10987 24.0384 9.62045C24.1709 9.68427 25.0315 10.3225 24.7668 10.3863C25.0315 10.3225 25.164 10.3863 25.3627 10.514C25.7599 10.7692 25.7599 10.3225 26.0909 10.3225C26.4881 10.3225 26.6206 10.8331 27.084 10.5778C27.4815 10.4501 27.6137 10.4501 28.0111 10.2587C27.8787 10.5778 28.1434 11.0245 27.8787 11.3437C27.6137 11.7266 27.2165 12.3648 27.349 12.8116C27.349 12.8116 26.3558 12.6201 26.1571 12.6201C25.2965 12.6201 24.833 12.8754 23.9061 12.5563C23.5749 12.4286 22.648 12.4286 22.648 11.9819C22.2508 11.9181 21.5224 12.0457 21.5224 12.4925C21.2577 12.8116 21.39 13.1945 20.6618 12.8116C20.1321 12.5563 19.8011 12.0457 19.2714 11.9181C18.8078 11.7904 18.4106 12.0457 18.0796 11.5351C17.8147 11.1522 18.1458 10.4501 18.2121 10.0672C17.8809 10.131 17.6161 9.74809 17.285 10.0034C17.1527 10.131 16.1596 10.1948 15.9609 10.1948C15.4312 10.1948 15.1002 10.0672 14.5043 10.2587C13.9746 10.3863 13.2462 10.9607 12.7165 10.9607C12.3193 10.9607 11.5249 10.514 11.3924 10.7693C11.1275 11.1522 10.7302 11.5351 10.3993 11.9181C9.93581 12.4286 10.0681 12.6839 9.86958 13.3222C9.67087 14.0242 8.81021 13.8327 8.41299 14.2795C7.81707 15.1092 6.89017 16.3218 7.22115 17.343C7.41986 17.9174 7.41986 18.428 7.08868 18.9385C6.89017 19.2577 6.69147 19.1938 6.89017 19.5768C6.95641 19.7044 7.02244 20.0874 7.02244 20.215C7.28739 20.7256 8.14805 21.2362 8.54526 21.8744C9.07495 22.7679 10.2668 23.6614 11.3262 23.2785C11.9221 23.087 12.2531 23.3423 12.849 23.3423C13.2462 23.3423 13.9083 22.8955 14.3056 22.7679C15.4974 22.385 15.6299 23.4061 16.6892 23.4061C17.1527 23.4061 17.4837 23.5976 17.6824 23.9805C17.5499 24.1082 17.4837 24.6826 17.5499 24.874C16.4243 25.5123 18.4768 26.8525 18.543 27.4908C18.6755 28.2566 19.4699 29.3417 19.0065 30.1075C18.8078 30.4905 18.4106 30.7457 18.2783 31.1924C18.0796 31.8945 18.4768 32.6604 18.874 33.2348C19.4699 34.1921 19.3375 35.2132 19.9334 36.2345C20.1983 36.6812 20.4631 37.1279 20.7943 37.5109C20.9265 37.7023 21.059 37.8938 20.9265 38.0853C20.728 38.4682 21.059 38.4682 21.059 38.9151C21.3239 38.7874 21.5224 39.1703 21.9197 39.0426C22.3171 38.9151 22.8468 38.5322 23.3102 38.7236C23.9722 39.1066 25.0978 38.0853 25.4289 37.6386C25.6275 37.3194 26.9518 35.8516 26.6868 35.5324C26.4221 35.1495 27.0178 34.7666 27.4815 34.7666C27.8787 34.7666 27.8787 33.873 27.7462 33.6177C27.6137 33.2986 27.2165 33.0433 27.5475 32.7242C27.8124 32.4689 28.0111 32.1498 28.3421 31.9583C28.6731 31.7668 30.4609 31.1286 29.7325 30.4905C29.7325 30.0436 29.9974 29.1502 29.6662 28.7672C29.3353 28.3843 29.3352 28.0014 29.269 27.4908C29.2028 26.8525 29.534 26.8525 29.7325 26.342C29.9974 25.3208 30.9243 24.9379 31.7187 24.4273C32.6456 23.7891 33.374 22.5764 33.8375 21.6191C34.0362 21.2362 34.2347 20.7256 34.0362 20.3426C33.4403 20.4703 32.8443 20.7894 32.1822 20.7256C31.5865 20.6618 31.5202 21.2362 31.0568 20.5979C30.8581 20.4703 30.7918 20.3426 30.9243 20.215C30.7918 19.8321 30.7256 20.0235 30.4609 19.7682C30.1959 19.4491 30.1297 19.2577 29.7325 19.0662C29.1365 18.7471 29.4015 18.1088 28.8718 17.7259C28.4746 17.4706 28.4746 17.2792 28.4746 16.8324C28.4746 16.4495 28.2096 16.3218 28.0111 16.0027C27.7462 15.4921 27.5475 14.9816 27.2165 14.4071C27.018 14.0242 26.4883 13.5136 26.5544 13.0669C26.8193 13.3222 26.9518 13.8966 27.349 13.9604C27.4152 13.7051 27.5475 13.5136 27.6137 13.2583C27.5475 13.7051 28.2759 15.3645 28.6731 15.4283C29.0043 15.4283 29.269 16.0027 29.269 16.258C29.269 16.96 29.7325 16.96 29.9312 17.4068C30.1297 17.7897 30.5271 18.045 30.7256 18.428C30.8581 18.7471 30.7256 19.0662 30.8581 19.4491C31.2553 20.4703 31.5202 19.7682 32.2484 19.7682C32.6458 19.7682 34.4996 19.0024 34.4996 18.8109C34.4996 18.4918 35.2941 18.3641 35.4928 18.3641C35.7575 18.3003 36.2212 17.9174 36.3534 17.6621C36.4859 17.4706 37.81 16.258 37.4128 16.1303C37.1481 16.0027 37.0818 15.7474 36.6846 15.6198C36.2212 15.4283 36.0224 15.1092 36.0887 14.5986C35.6915 14.9177 35.4928 15.3645 34.8968 15.4921C33.9037 15.6836 34.1687 15.2368 34.0362 14.6624C33.9699 14.7262 33.8375 14.8539 33.7712 14.9177C33.705 14.471 33.1753 14.2795 32.9768 13.8327C32.5796 13.003 33.3078 12.5563 33.8375 13.3222C34.1687 13.7689 34.4996 14.2157 35.0956 14.4071C35.559 14.5348 35.7575 14.2157 36.0887 14.2157C36.4197 14.2157 36.3534 14.5986 36.5521 14.7262C36.6846 14.8539 37.1481 14.8539 37.3466 14.8539C37.8762 14.9177 38.3397 14.9815 38.8694 14.9815C39.0019 14.8539 39.995 14.8539 40.1275 14.9177C40.3262 14.9816 40.3922 15.3007 40.5247 15.4283C40.7896 15.8751 41.2531 15.8112 41.6503 15.9389C41.4516 16.1303 41.3193 16.0665 41.1206 16.1942C41.3193 16.3856 41.7165 17.0877 42.18 16.7686C42.3787 16.5771 42.3787 16.3218 42.6434 16.1942C42.6434 17.343 42.7759 18.5556 43.5041 19.6406C43.9675 20.3426 44.4312 22.8317 45.2256 21.0447C45.2918 20.917 45.5566 20.917 45.5566 20.8532C45.6228 20.6618 45.4905 20.4703 45.5566 20.2788C45.689 19.8321 45.5566 19.5768 45.5566 19.13C45.5566 18.8109 46.2187 18.6194 46.4837 18.428C47.0794 17.9174 48.1388 17.343 48.3375 16.6409C48.6022 16.0027 49.8603 16.8324 49.8603 15.9389C50.4562 16.0665 50.2575 16.3856 50.5225 16.7686C50.7872 17.2153 51.1844 17.4068 51.3831 17.9174C51.4494 18.1727 51.3169 18.4918 51.4494 18.7471C51.7141 19.2577 52.2438 18.3003 52.3762 18.2365C53.1709 19.0024 52.9722 20.5341 52.9722 21.5553C52.9722 21.7467 53.1709 21.5553 53.3031 21.7467C53.5681 22.0658 53.7006 22.6403 53.7666 22.9594C53.9653 23.7252 54.5612 24.4273 55.3557 24.3635C54.9584 23.5338 55.0909 22.8317 54.23 22.385C53.7666 22.1297 53.0384 21.0447 53.4356 20.5979C53.7006 20.2788 53.5019 20.0873 53.5681 19.7682C53.6343 19.5768 54.2963 20.1512 54.4288 20.1512C54.8922 20.2788 54.8922 20.8532 55.2894 20.917C55.6206 20.9809 55.5544 21.6191 55.6868 21.6191C55.8853 21.6191 56.0178 21.3 56.0178 21.1085C56.0178 21.1723 56.0178 21.1723 56.084 21.2362C56.415 21.2362 57.2759 20.3426 57.3419 20.0873C57.6069 19.3215 56.9447 18.8109 56.5475 18.3003C56.1503 17.7897 55.5544 17.4068 56.2827 16.8962C56.4813 16.7686 56.7462 16.6409 56.8785 16.3856C57.0772 16.4495 57.3419 16.5133 57.5406 16.5133C57.4744 16.6409 57.5406 16.7686 57.6069 16.8324C57.7393 16.7686 57.7393 16.6409 57.8056 16.5771C57.9378 16.4495 58.4675 16.3218 58.6662 16.258C58.7325 16.258 59.1297 15.8751 59.1297 15.8751C59.4607 15.8751 59.4607 16.0665 59.7918 15.9389C60.8512 15.6836 61.1159 14.6624 61.7119 13.9604C62.4403 13.0669 62.374 12.301 61.7781 11.3437C61.7119 11.216 61.2484 10.7693 61.5132 10.5778C61.8443 10.3863 62.4403 10.0672 62.705 9.74809C62.5725 9.62045 62.2416 9.62044 62.0429 9.55662C61.7119 9.30133 61.8443 9.81192 61.6456 9.81192C61.4469 9.81192 60.7187 9.42898 60.7187 9.17369C60.7187 8.98222 61.7781 8.66311 61.9106 8.34399C62.0428 8.21635 62.1091 8.0887 62.3078 8.28017C62.5725 8.53546 62.1091 8.72693 62.1091 8.98222C62.4403 8.98222 62.705 8.72693 62.9699 8.66311C63.3672 8.53546 63.3672 8.72692 63.7644 8.72692C63.5657 9.10986 63.4994 9.4928 63.9631 9.4928C64.4265 9.4928 64.1616 10.6416 64.1616 11.0245C65.1547 11.0245 65.7506 10.1948 65.0885 9.30133C64.5588 8.66311 64.625 8.72693 65.2872 8.21635C65.8169 7.83342 65.6844 7.13136 66.4128 7.25901C68.0019 7.5143 68.2666 6.04639 69.1935 5.15286C69.7232 4.64229 69.7894 4.1317 69.8557 3.49348C69.9219 2.79142 70.5178 2.40848 69.8557 1.77026C69.326 1.25969 69.1275 1.89791 68.5315 1.70644C68.0019 1.51498 67.9356 1.06822 68.3328 0.685287C69.3922 -0.272057 70.2529 -1.2294 71.7757 -1.35703C72.9675 -1.48468 73.9607 -1.2294 75.0863 -1.2294C75.5497 -1.2294 75.5497 -1.93144 75.8807 -2.25056C76.3441 -2.69731 77.205 -2.69731 77.8009 -2.6335C77.4035 -2.31437 77.7347 -1.93144 78.1981 -2.31437C78.4629 -2.50584 78.8603 -3.2079 79.1913 -3.08025C79.721 -2.82496 78.9926 -2.31437 78.7941 -2.18672C78.2644 -1.86762 77.9994 -1.93144 77.6022 -1.42087C77.205 -0.846462 76.6091 -0.591157 76.2119 -0.0805874C75.8147 0.493818 76.0132 2.47232 76.6091 2.91907C77.1388 2.1532 77.6022 1.70644 78.1319 1.06822C78.7941 0.302349 78.5954 -0.654994 79.3237 -1.48468C79.8534 -1.99527 80.3831 -1.99525 80.9788 -1.67615C81.8397 -1.2294 82.8328 -2.25056 83.4288 -2.69731C83.7597 -2.88878 85.6135 -3.2079 85.4813 -3.527C85.1501 -4.10141 84.4219 -4.29288 85.5475 -4.73963C85.8785 -4.86728 85.8785 -5.44169 86.0772 -5.44169C86.6067 -5.44169 87.0041 -5.05875 87.4013 -4.73963C88.5931 -3.84612 88.5269 -4.93112 89.6525 -5.31404C88.6592 -5.88844 87.2026 -6.01609 86.3419 -6.52666C87.1364 -6.07991 85.2163 -7.10107 86.3419 -6.52666ZM22.3833 4.70611C22.5818 4.96139 22.3171 5.02523 22.7143 5.02523C22.5156 5.02523 22.3833 4.96139 22.3833 4.70611ZM22.648 3.94023C23.1115 3.62111 22.7805 3.55729 22.7143 3.04673C22.7805 3.49348 23.1115 3.55729 22.648 3.94023ZM25.0315 -5.63316C25.0315 -5.88844 25.4289 -6.14374 25.2302 -6.39903C25.0978 -6.52666 24.833 -6.59048 24.833 -6.78195C24.833 -6.46285 25.2965 -6.52668 25.2965 -6.27138C25.164 -6.01609 25.0978 -5.82463 25.0315 -5.63316ZM33.705 7.06754C33.9699 7.45048 34.3672 7.70577 34.3672 8.21635C34.7644 8.02488 35.0956 7.96106 35.0956 8.53546C34.9631 8.47164 34.6321 8.47164 34.4996 8.59928C34.2347 8.9184 34.8968 8.98222 34.8968 9.42898C34.8968 10.1948 35.0293 10.3225 34.0362 10.3225C33.639 10.3225 33.639 10.0672 33.374 10.0034C32.7781 9.87573 33.1753 9.68426 32.7781 9.36515C32.6458 9.2375 32.7781 8.85457 32.5134 8.9184C32.3147 8.9184 32.1161 9.17368 31.9174 9.23751C32.5134 9.23751 32.2484 8.66311 32.7119 9.10986C32.6456 9.23751 32.8443 9.23751 32.9106 9.23751C33.043 9.04604 33.043 8.72693 33.3078 8.59928C32.5134 8.21634 31.8512 6.74842 32.3146 6.04639C32.4471 5.79108 33.3078 5.5358 33.5727 5.5358C34.3672 5.40815 34.6983 5.66345 35.1618 6.23785C34.8968 6.42932 34.1687 6.23786 33.7712 6.42932C33.1753 6.74842 33.5065 6.68461 33.705 7.06754C33.9699 7.5143 33.5727 6.93989 33.705 7.06754ZM35.3603 9.74809C33.5727 11.4713 37.4128 7.83341 35.3603 9.74809V9.74809ZM35.7575 9.62045C35.8237 9.62045 35.9562 9.55663 36.0224 9.4928C35.9562 9.55663 35.89 9.62045 35.7575 9.62045ZM37.5453 11.5989C37.6115 11.5351 37.6115 11.5351 37.5453 11.5989V11.5989ZM37.9425 10.8331C37.81 10.8331 37.6115 11.3437 37.6115 11.4075C37.744 11.0245 37.8762 11.0245 37.8762 10.6416C37.8762 10.8331 38.075 10.9607 38.3397 10.9607C38.2074 10.8969 38.075 10.8331 37.9425 10.8331ZM39.3991 10.0034C39.4653 9.93955 39.5978 9.87573 39.664 9.87573C39.5315 9.93956 39.4653 10.0034 39.3991 10.0034C39.4653 9.93955 39.4653 9.93955 39.3991 10.0034ZM40.5909 10.131C40.5247 10.131 39.8625 9.93956 39.8625 9.93956C39.8625 10.0672 40.4584 10.0672 40.5909 10.131ZM41.2531 9.81192C41.1868 9.81192 41.3193 9.81191 41.3855 9.68426C41.3855 9.74809 41.3193 9.74809 41.2531 9.81192ZM42.0475 10.1948C41.9813 10.131 41.9813 10.131 41.915 10.0672C42.0475 10.131 42.1137 10.1948 42.0475 10.1948ZM42.4447 10.0672C42.5109 10.0034 42.6434 9.93956 42.7759 9.93956C42.6434 10.0034 42.5772 10.0034 42.4447 10.0672ZM43.5703 10.2587C43.2393 10.131 43.1731 10.0034 42.7759 10.0034C42.9084 10.0034 43.2393 10.0034 43.2393 10.0034C43.3056 10.2587 43.769 10.2587 43.5703 10.2587C43.6365 10.2587 43.3718 10.1948 43.5703 10.2587ZM45.0931 12.7477C45.0269 12.7477 44.9609 12.7477 44.8946 12.6839C44.8946 12.7477 45.3581 12.8116 45.0931 12.7477ZM45.4905 6.42932C45.4905 7.1952 45.2256 8.02488 44.4312 8.34399C44.1 8.53546 43.7028 8.59928 43.3056 8.59928C43.0406 8.59928 42.5772 9.42898 42.8421 9.4928C42.5772 9.42898 42.9744 8.79075 43.1069 8.66311C43.3718 8.40782 44.1 8.53546 44.4312 8.34399C44.8284 8.15253 45.1594 7.76959 45.2918 7.38665C45.3581 7.1952 45.4243 7.00373 45.4243 6.74842C45.4905 6.17402 45.5566 6.49314 45.954 6.17402C45.8878 6.30167 45.689 6.36549 45.4905 6.42932C45.689 6.36549 45.4905 7.96106 45.4905 6.42932ZM53.8991 3.11054C53.6343 2.98291 53.1046 2.91907 52.9059 2.91907C53.0384 2.91907 53.5681 2.98291 53.8991 3.11054ZM48.4699 14.0242C47.9403 14.088 47.6753 13.9604 47.2119 13.7051C47.8078 14.088 48.0727 13.9604 48.7347 13.9604C48.6022 13.9604 48.5362 14.0242 48.4699 14.0242ZM49.7278 3.87642C49.2644 4.1317 47.6091 4.32317 47.543 4.96139C47.4768 5.85492 46.6822 5.28051 46.285 5.79108C46.5497 5.40816 46.8809 5.66345 47.2781 5.47198C47.5428 5.34433 47.4768 5.02521 47.543 4.76992C47.6091 4.45082 48.3375 4.25935 48.6022 4.19552C48.8672 4.19552 49.8603 3.74876 49.7278 3.87642C49.7278 3.8126 48.9996 4.25935 49.7278 3.87642ZM51.8466 3.94023C51.1844 3.94023 50.4562 3.2382 49.9265 3.74876C50.721 3.04673 51.979 4.70611 52.575 3.36583C52.3763 3.62113 52.1777 3.94023 51.8466 3.94023ZM52.3762 17.9812C52.3762 17.7897 52.4425 17.6621 52.5087 17.5344C52.3763 17.6621 52.3762 17.7897 52.3762 17.9812ZM52.3762 18.1088C52.5087 18.428 52.9722 18.8109 52.575 19.1938C52.9722 18.8109 52.575 18.4918 52.3762 18.1088C52.4425 18.2365 52.4425 18.2365 52.3762 18.1088ZM52.575 19.3215C52.575 19.0662 52.7072 19.5129 52.8397 19.6406C52.7072 19.5768 52.6412 19.4491 52.575 19.3215ZM53.6343 16.7048C53.7006 16.6409 53.7006 16.5771 53.7666 16.5133C53.4356 16.5133 53.2369 16.5133 53.1046 16.1942C53.1709 16.5133 53.4356 16.5771 53.7666 16.5133C53.7006 16.6409 53.7006 16.7048 53.6343 16.7048ZM53.8328 16.5771C53.8328 16.6409 53.8328 16.7048 53.8991 16.7048C53.8328 16.6409 53.8328 16.6409 53.8328 16.5771ZM56.0178 16.1303C55.8853 16.1303 55.6868 16.0665 55.5544 16.0027C55.9516 16.1303 55.8853 16.0665 56.084 16.3856C56.0178 16.3218 56.0178 16.1942 56.0178 16.1303C56.0178 16.258 55.8191 16.1303 56.0178 16.1303ZM57.3419 4.32317C56.5475 4.32317 56.084 3.62111 55.2894 3.62111C55.9516 3.62111 56.3488 4.1317 56.9447 4.25935C57.7393 4.4508 58.5338 3.87642 59.3284 3.87642C58.7325 3.94023 58.0703 4.32317 57.3419 4.32317ZM61.3809 2.98289C61.6456 2.47232 62.0428 2.21701 62.6388 2.21701C62.0428 2.21701 61.6456 2.53614 61.3809 2.98289ZM65.3534 4.45082C65.0885 4.19552 64.4928 4.25935 64.2941 3.94023C63.9631 3.49348 63.8968 2.79144 63.4334 2.47232C63.8968 2.79144 64.0291 3.49348 64.2941 3.94023C64.5588 4.32317 65.221 4.25935 65.4859 4.70611C65.4859 4.57847 65.4197 4.51464 65.3534 4.45082C65.4197 4.51464 65.0885 4.25935 65.3534 4.45082ZM65.7506 6.62079C65.6844 6.55696 65.9493 6.81226 65.9493 6.93989C65.9493 6.81226 65.8831 6.68461 65.7506 6.62079Z"></path>
<path fill="#90C6DE" d="M-0.838814 27.245C-1.23723 27.1169 -1.43634 27.245 -1.76831 26.9247C-2.10029 26.6685 -2.36604 26.2841 -2.89712 26.3482C-3.42821 26.4122 -3.89306 26.0919 -4.35791 26.3482C-4.35791 25.8357 -4.88899 25.7076 -5.35384 25.5154C-5.95137 25.3232 -5.88493 26.156 -6.28334 26.156C-6.48245 26.156 -6.7482 25.7716 -6.9473 25.7076C-7.54483 25.5154 -6.68176 24.9388 -6.48245 24.7466C-6.48245 24.5544 -7.08018 23.7216 -7.14641 23.6576C-7.47839 23.4013 -7.6777 23.3373 -8.07611 23.1451C-8.40809 23.017 -8.8065 23.017 -9.13848 23.017C-9.60313 22.9529 -9.80244 22.6326 -10.068 22.3763C-10.4 22.056 -11.927 21.5435 -11.4623 21.1592C-11.927 21.031 -12.0599 21.2232 -12.3918 21.3513C-12.7902 21.4795 -12.8567 21.2232 -13.1887 21.2232C-13.8526 21.2232 -14.0517 20.6467 -14.6492 20.6467C-14.5828 20.7748 -14.5166 20.8389 -14.3837 20.9029C-15.3796 20.7107 -14.7821 21.7998 -15.0477 21.7998C-15.6452 21.7998 -14.9812 20.7748 -14.9812 20.6467C-14.9812 20.3263 -15.9109 20.8389 -16.11 20.9029C-16.774 21.0951 -17.0395 21.7998 -17.5044 22.1201C-17.2388 21.8638 -17.969 21.6076 -18.2348 21.6076C-18.633 21.6076 -19.0978 22.1201 -19.4298 21.6717C-19.6291 21.3513 -20.0938 21.4154 -20.0938 20.967C-20.0938 20.6467 -20.0938 20.3263 -20.0273 20.0061C-19.8282 19.0451 -20.7577 19.1092 -21.5546 19.1732C-22.4841 19.2373 -21.8865 18.7248 -21.8865 18.0842C-21.7537 18.1482 -21.8201 18.0842 -21.7537 18.1482C-21.5546 17.8279 -21.4217 17.2514 -21.3553 16.867C-21.8201 16.867 -22.4176 16.6108 -22.7496 17.0592C-23.148 17.5717 -22.9489 17.9561 -23.6128 17.9561C-23.812 17.9561 -24.3432 18.2764 -24.476 18.0842C-24.6752 17.892 -25.0071 17.6357 -25.2063 17.3795C-25.4719 17.1232 -25.6711 16.6748 -25.6711 16.2904C-25.6711 15.7139 -25.8039 14.0483 -25.1399 13.792C-24.808 13.6639 -24.144 13.0874 -23.812 13.2795C-23.6792 13.3436 -22.5505 13.5998 -22.4176 13.5358C-22.5505 13.4076 -22.5505 13.2795 -22.4176 13.0874C-22.4841 13.1514 -22.5505 13.1514 -22.6169 13.0874C-22.285 12.9592 -21.8201 13.1514 -21.621 13.0233C-21.3553 12.8951 -21.0897 13.0873 -20.8906 13.2155C-20.5586 13.4076 -20.6251 13.0874 -20.3593 13.0874C-19.8947 13.0874 -19.2971 15.6498 -18.7659 15.1373C-18.1019 14.4327 -19.4963 13.2155 -19.0314 12.4467C-18.5668 11.6139 -17.5044 11.6139 -16.9731 10.9733C-17.1724 10.653 -16.9069 10.9092 -17.106 10.5249C-16.774 10.5249 -17.1724 9.62799 -17.106 9.37175L-16.9069 10.0764C-16.5084 10.0764 -16.6411 9.37175 -16.7076 9.24362C-16.5084 9.30768 -16.3756 9.1155 -16.1765 8.85925C-16.0436 8.603 -16.2429 8.79519 -16.2429 8.53894C-16.2429 8.41081 -15.5787 8.41082 -15.5125 8.41082C-15.6452 8.34675 -15.8445 8.41082 -15.9772 8.41082C-15.5789 8.15457 -14.7821 8.15457 -14.4501 7.96239C-14.9812 8.09051 -14.7821 7.32177 -14.4501 7.06552C-14.1182 6.80927 -13.2549 6.80927 -13.3878 6.4249C-12.9229 6.68115 -12.6574 6.16865 -12.3254 6.10458C-12.3918 6.29677 -12.3254 6.36083 -12.1263 6.29677C-13.1222 6.36083 -12.8567 7.32177 -12.5247 7.06552C-12.3254 6.9374 -10.9975 6.36083 -10.9975 6.23272C-10.9975 5.84833 -12.5909 6.10458 -12.3918 5.01553C-12.5247 5.01553 -12.6574 5.01553 -12.7238 4.95146C-12.5909 4.82335 -11.595 4.31085 -12.5247 4.31085C-13.1887 4.31085 -13.5869 4.69523 -14.1846 4.75928C-14.0517 4.43898 -13.0558 3.79834 -12.6574 3.73429C-11.9934 3.67023 -10.931 4.05459 -10.3335 3.67023C-9.93511 3.34993 -9.13848 3.22179 -8.87274 2.90149C-8.6072 2.58117 -9.13848 2.06867 -9.13848 1.74837C-9.33759 1.87649 -10.4664 2.38899 -10.5991 2.13274C-10.4 2.00461 -8.8065 1.55617 -9.80244 1.49212C-10.1344 1.49212 -10.5991 1.29994 -10.5991 0.915572C-10.7319 0.787437 -11.0639 0.72337 -11.263 0.531187C-10.6655 0.210887 -11.4623 -0.173479 -11.595 -0.493798C-11.7943 -0.878164 -11.7943 -1.19848 -12.1927 -1.5188C-12.5247 -1.77503 -12.8567 -0.557866 -13.4542 -0.557866C-14.0517 -0.557866 -14.2508 -1.39067 -14.3173 -1.77503C-14.3173 -1.90317 -15.2468 -2.41567 -15.3796 -2.47972C-16.0436 -2.92815 -16.3091 -2.6719 -17.106 -2.92815C-18.301 -3.31252 -17.4379 -2.28754 -17.8364 -2.03128C-18.0355 -1.90317 -17.2388 -1.19848 -18.1019 -0.878165C-17.5708 -0.0453644 -16.7076 1.29994 -18.4339 1.62026C-18.1019 1.74837 -18.1019 2.13274 -18.0355 2.45304C-17.969 2.90147 -18.1683 2.77336 -18.1683 3.15773C-18.633 3.15773 -18.3675 3.54211 -18.8987 3.09368C-19.4298 2.58117 -19.3634 2.32492 -19.4963 1.68431C-19.6291 1.04369 -20.5586 1.29994 -21.0233 1.04369C-21.4881 0.787437 -21.953 0.595254 -22.4176 0.403071C-22.5505 0.339004 -22.6832 0.274936 -22.816 0.210887C-23.148 0.0827522 -23.2145 0.339003 -23.5464 0.339003C-23.5464 -0.365664 -23.812 -0.75005 -24.4096 -0.621915C-24.2768 -0.942233 -24.4096 -1.26253 -24.4096 -1.58285C-24.3432 -2.03128 -23.9448 -2.3516 -23.7456 -2.73597C-23.48 -3.1844 -23.2809 -2.86409 -22.9489 -3.1844C-22.5505 -3.5047 -23.48 -3.63284 -23.6128 -3.69691C-23.6128 -3.69691 -23.48 -3.76095 -23.4136 -3.76095C-23.2145 -3.69691 -22.9489 -3.69691 -22.7496 -3.63284C-22.4176 -3.56877 -22.6832 -3.95316 -22.4841 -3.95316C-22.0192 -4.08127 -21.8201 -4.14532 -21.4217 -4.46564C-21.4217 -4.91408 -22.3512 -4.65782 -22.6169 -5.10626C-22.2185 -5.04219 -21.8865 -4.65782 -21.4881 -4.85001C-21.3553 -4.91407 -20.957 -5.49064 -21.2226 -5.49064C-20.957 -5.49064 -20.8242 -5.23439 -20.6251 -5.23439C-20.3593 -5.23439 -20.1602 -5.55469 -20.1602 -5.55469C-19.8282 -5.55469 -19.7618 -5.42658 -19.4298 -5.81094C-19.0314 -6.19531 -19.4963 -6.19531 -19.5627 -6.5797C-19.6291 -6.9 -19.2307 -6.83593 -19.2307 -7.09218C-19.2971 -7.4125 -19.4298 -7.28438 -19.6291 -7.47657C-19.8282 -7.60468 -20.8242 -7.98905 -20.8242 -7.47657C-20.7577 -7.34843 -20.6913 -7.22031 -20.6251 -7.09218C-20.6251 -6.96406 -20.957 -6.96406 -21.0233 -6.83595C-21.2226 -6.38751 -21.5546 -5.61876 -22.0192 -6.45156C-22.2185 -6.83593 -21.5546 -6.9 -22.2185 -7.34843C-22.6169 -7.66875 -22.5505 -6.83595 -22.8825 -6.83595C-22.8825 -7.15625 -23.3473 -7.34843 -23.0816 -7.54061C-23.2809 -7.66875 -23.6128 -7.54061 -23.812 -7.7328C-23.2809 -7.98905 -23.7456 -8.5656 -24.0112 -8.94998C-24.5424 -9.5906 -24.808 -8.94998 -25.1399 -8.88592C-25.2727 -8.82187 -25.3391 -7.92498 -25.1399 -7.86093C-24.7416 -7.66875 -24.0776 -7.66875 -24.476 -7.02811C-23.5464 -7.54061 -25.2727 -5.87501 -25.1399 -6.32345C-24.9407 -7.34843 -26.2023 -6.38749 -26.4015 -6.38749C-27.1982 -6.38749 -28.7917 -6.19531 -29.1237 -7.22031C-29.4557 -7.15625 -29.9205 -7.22031 -30.1861 -6.96406C-30.5844 -6.64374 -29.4557 -6.83593 -29.3229 -6.9C-29.3229 -7.02813 -30.3853 -5.93906 -29.9205 -5.93906C-30.3189 -5.93906 -30.5844 -6.45156 -31.182 -6.45156C-31.514 -6.45156 -32.9747 -6.13126 -32.9747 -6.51563C-32.9747 -6.64376 -32.5099 -6.5797 -32.4435 -6.64374C-32.9747 -7.34843 -33.5059 -6.83593 -34.2362 -7.09218C-34.6346 -7.22031 -34.9666 -7.47657 -35.365 -7.60468C-35.8298 -7.73282 -36.4937 -7.22031 -36.6265 -7.86093C-36.8921 -7.79686 -36.8921 -7.47657 -37.1577 -7.47657C-37.4233 -7.47657 -37.6225 -7.86093 -37.8217 -8.05312C-38.0208 -8.2453 -38.0872 -7.925 -38.2201 -7.79687C-38.3528 -7.60468 -38.8176 -7.86093 -39.0168 -7.79687C-39.1496 -7.79687 -40.6767 -7.4125 -40.6103 -7.47657C-40.6103 -7.47657 -41.5399 -6.96406 -41.1415 -6.96406C-41.8718 -6.96406 -42.4694 -7.4125 -43.067 -7.54061C-43.067 -5.55469 -43.067 -3.63284 -43.067 -1.64692C-43.067 -3.56877 -43.067 -5.49064 -43.067 -7.4125C-43.067 -7.98905 -44.3285 -7.7328 -44.5941 -7.7328C-45.2581 -7.7328 -45.7892 -8.05312 -46.3868 -8.05312C-46.6524 -8.05312 -46.918 -8.05312 -47.1836 -8.05312C-47.3828 -8.05312 -47.5156 -8.30937 -47.7147 -8.30937C-47.9139 -8.30937 -48.1131 -8.30937 -48.3123 -8.30937C-48.7107 -8.43748 -48.7107 -8.18125 -48.9763 -8.2453C-48.5779 -8.88592 -50.1714 -8.30937 -50.437 -8.2453C-51.1674 -7.98905 -51.8977 -6.96406 -52.4953 -6.96406C-52.8937 -6.96406 -53.5576 -6.64374 -52.8937 -6.45156C-52.4953 -6.32345 -52.3625 -6.25938 -52.1633 -5.87501C-51.8977 -5.49065 -51.3665 -5.61876 -51.1674 -5.10626C-51.4993 -5.04219 -52.0969 -4.97814 -52.0969 -5.42658C-52.5617 -5.49062 -53.2256 -5.04221 -53.624 -4.85001C-53.5576 -4.72189 -53.4248 -4.59378 -53.2256 -4.65782C-53.292 -4.52971 -53.292 -4.46564 -53.1593 -4.33752C-52.8937 -4.01721 -52.8273 -4.14532 -52.3625 -4.14532C-51.8977 -4.14532 -51.6985 -3.95314 -51.3002 -4.20939C-51.0346 -4.40157 -50.9018 -4.27346 -50.9018 -4.08127C-50.9682 -4.14534 -51.0346 -4.14534 -51.101 -4.08127C-50.9682 -3.76095 -50.7026 -3.76095 -51.101 -3.5047C-51.4329 -3.31252 -51.7649 -3.24847 -52.1633 -3.12034C-52.4953 -3.05629 -53.0265 -2.80004 -53.0265 -2.41565C-53.0265 -2.22347 -52.0969 -1.77503 -52.6945 -1.77503C-52.4953 -1.51878 -52.1633 -1.3266 -51.8977 -1.19848C-51.6985 -1.07037 -51.3665 -1.58285 -51.3665 -1.19848C-51.3002 -1.13442 -51.4993 -0.557866 -51.2338 -0.557866C-50.9682 -0.557866 -50.9018 -0.685982 -50.8354 -0.878165C-50.6362 -0.75005 -50.437 -0.621914 -50.1714 -0.493798C-50.105 -0.750049 -49.3083 -0.750049 -48.9763 -0.814116C-49.3083 -0.621914 -49.3083 -0.17348 -49.6402 0.0187035C-50.0386 0.274955 -50.5034 0.40307 -50.769 0.787437C-50.9682 1.04369 -51.4329 0.851505 -51.6321 1.23587C-51.8977 1.55619 -52.3625 1.42806 -52.5617 1.74837C-52.0969 1.87649 -51.0346 1.29994 -50.5698 1.10776C-50.0386 0.915573 -49.3747 0.467138 -49.0427 0.0187035C-48.8435 -0.237548 -48.5115 -0.173499 -48.3123 -0.42975C-48.1795 -0.621934 -48.2459 -0.878184 -48.1795 -1.07037C-47.9803 -1.58285 -47.3828 -2.09535 -46.7852 -2.03128C-46.7852 -1.77505 -47.5156 -1.39067 -47.5156 -0.942232C-47.5156 -0.878165 -45.7892 -1.13442 -46.1212 -1.77503C-45.4573 -2.09535 -44.5941 -1.3266 -43.731 -1.3266C-43.3326 -1.3266 -42.8678 -1.13442 -42.4694 -1.0063C-42.1374 -0.878165 -41.5399 0.0186844 -41.2743 -0.557866C-41.0751 -0.365683 -40.4775 -0.429731 -40.6767 -0.17348C-41.0751 0.339003 -40.2119 0.0187035 -40.1455 0.0187035C-40.4775 0.851505 -39.6808 0.274936 -39.6808 0.915572C-39.6808 1.68431 -38.1536 1.42805 -39.0832 0.72337C-38.552 1.10776 -39.0168 1.49212 -38.8176 2.06867C-38.7512 2.32492 -37.9545 2.64524 -37.8881 2.96554C-37.7553 3.28586 -37.7553 3.67023 -37.2905 3.67023C-37.2241 3.99055 -36.6929 3.79836 -36.6265 4.11866C-36.4937 4.5671 -35.2986 4.37491 -35.9626 5.20771C-36.0954 4.95146 -36.8257 4.88739 -36.4937 5.33583C-36.0954 5.9124 -36.3609 6.23272 -36.4937 6.87334C-36.6265 7.51395 -36.6265 9.628 -35.6306 9.75612C-35.697 10.3327 -35.1658 10.5889 -35.0994 11.1014C-35.033 11.4217 -33.8379 11.678 -33.5723 12.1264C-33.5059 12.2545 -32.5763 14.4967 -32.3108 14.3686C-32.3771 14.3686 -32.5099 14.3686 -32.5763 14.3686C-32.2444 14.817 -31.514 14.6889 -31.514 15.3936C-31.514 15.5858 -30.7172 16.2904 -30.5844 16.2904C-30.4517 16.2904 -31.2484 14.9452 -31.3812 14.753C-31.6468 14.4327 -31.7132 13.9842 -31.9788 13.728C-32.2444 13.4717 -32.9747 12.9592 -32.6427 12.5108C-32.4435 12.6389 -32.2444 12.703 -31.9788 12.767C-31.9124 12.8952 -31.846 13.0873 -31.7796 13.2155C-31.514 13.4717 -31.3812 13.8561 -31.1156 14.1764C-30.9164 13.9842 -30.1861 15.2655 -30.0533 15.3295C-29.6549 15.5217 -29.2565 15.9701 -28.9909 16.3545C-28.6589 16.867 -28.7917 16.9311 -28.7917 17.3795C-28.7917 17.9561 -27.4638 18.1482 -27.0654 18.4685C-26.6671 18.8529 -25.6711 18.8529 -25.2063 19.1092C-24.8744 19.3013 -24.808 18.917 -24.5424 18.917C-24.0776 18.917 -23.812 19.3014 -23.5464 19.5576C-23.2145 19.8779 -22.6832 19.8779 -22.285 20.0701C-22.0856 20.1982 -21.8865 20.1982 -21.6872 20.0701C-21.5546 20.1342 -21.4217 20.3904 -21.289 20.5185C-20.957 20.7748 -20.7577 21.6076 -20.6251 21.3513C-20.2931 21.3513 -18.8323 22.9529 -18.633 22.2482C-18.965 22.1201 -18.301 21.6076 -18.1019 21.8638C-17.9028 22.1201 -17.969 22.2482 -17.7699 22.5045C-17.3051 22.9529 -17.5708 23.9138 -17.969 24.1701C-18.3675 24.4263 -18.5668 25.0669 -18.7659 25.3872C-19.0978 25.8997 -18.9652 25.9638 -18.5668 26.22C-18.6994 26.7325 -19.4298 26.7966 -19.0314 27.5013C-18.965 27.6294 -18.5668 28.1419 -18.4339 28.27C-17.969 28.6544 -17.1724 30.0637 -17.1724 30.7044C-17.1724 31.4731 -15.2468 31.7935 -14.8486 32.3059C-14.3173 33.0107 -14.7157 33.9715 -14.7157 34.7403C-14.7157 35.5091 -15.1141 36.2137 -15.1141 36.9825C-15.1141 37.6871 -15.1141 38.52 -15.3132 39.2246C-15.4461 39.9292 -16.11 40.3777 -15.9772 41.2106C-15.9109 41.5949 -15.9109 41.4026 -16.0436 41.8511C-16.11 41.9794 -16.1765 42.6199 -15.9109 42.6199C-15.7781 42.6199 -15.7116 42.4918 -15.579 42.4918C-15.579 43.1964 -15.9109 43.9652 -16.0436 44.7339C-16.2429 44.7339 -16.3756 44.2855 -16.5749 44.6058C-16.6411 44.7339 -16.5084 44.9901 -16.442 44.9901C-16.2429 45.4386 -16.7076 45.3746 -16.7076 45.7589C-16.7076 46.0792 -16.5749 46.6558 -16.5084 46.9761C-16.5084 47.2323 -16.11 47.2323 -16.11 47.5526C-16.11 47.809 -16.3756 47.873 -16.3756 48.0652C-16.3756 48.7059 -14.7157 48.7059 -14.4501 49.2183C-14.2508 49.6667 -12.7902 49.5386 -12.5247 49.1543C-13.5206 48.7059 -13.5869 48.2575 -14.1846 47.4887C-14.4501 47.1683 -14.1182 46.6558 -13.7862 46.5918C-13.4542 46.5277 -13.5206 46.0153 -13.1887 45.823C-12.1263 45.1824 -13.9853 44.9903 -13.3878 44.2855C-12.9894 43.9012 -12.7902 44.2215 -12.6574 43.645C-12.5909 43.4528 -12.5247 43.2605 -12.3918 43.1324C-12.5247 43.1324 -12.5247 43.0683 -12.5247 42.9402C-12.3918 42.9402 -11.9934 43.1964 -11.9934 42.8762C-11.9934 42.6199 -12.3254 42.8762 -12.4583 42.748C-13.2549 41.659 -11.5286 42.684 -11.5286 42.1075C-11.5286 40.6341 -10.4664 41.723 -9.66957 40.9544C-9.47046 40.7622 -8.93917 40.2496 -9.33759 40.0575C-9.40403 40.0575 -9.93511 39.2888 -9.93511 39.2888C-9.93511 39.4169 -8.20878 39.6091 -7.94324 39.1607C-7.47839 38.52 -6.9473 37.9435 -6.61533 37.2386C-6.21691 36.7263 -6.15047 36.5982 -6.08424 35.9575C-6.08424 35.1248 -5.0883 34.7403 -4.42414 34.356C-4.02593 34.1637 -3.62751 34.356 -3.2291 34.0996C-3.02999 33.9715 -2.96356 33.5872 -2.83069 33.395C-2.49871 32.8826 -2.1003 31.9857 -2.1003 31.345C-2.1003 30.8966 -2.36604 30.5121 -1.90119 30.192C-1.63564 29.9997 -1.50277 29.6794 -1.30367 29.4872C-0.905254 29.1029 0.223557 27.5013 -0.838814 27.245C-0.506836 27.3091 -1.03792 27.181 -0.838814 27.245ZM-13.7862 5.27178C-13.7862 5.33585 -13.7197 5.3999 -13.7197 5.3999C-13.7197 5.46397 -13.9189 5.0796 -13.7862 5.27178ZM-14.9148 6.16865C-15.1141 6.36083 -14.7157 5.97647 -14.9148 6.16865V6.16865ZM-16.5084 6.36083C-16.3756 6.29677 -17.5044 7.32177 -16.7076 6.48895C-16.6411 6.48895 -16.5749 6.4249 -16.5084 6.36083ZM-18.4339 7.19364C-18.1019 7.12959 -17.3051 7.06552 -17.106 6.93738C-17.438 7.19363 -17.3715 7.38584 -17.9028 7.38584C-18.0355 7.38584 -18.633 7.2577 -18.5668 7.44988C-18.633 7.2577 -18.633 7.2577 -18.4339 7.19364C-18.1683 7.06552 -18.5003 7.19364 -18.4339 7.19364ZM-18.5003 7.64207C-18.4339 7.70614 -18.5003 7.70614 -18.6994 7.7702C-18.633 7.70614 -18.5668 7.70614 -18.5003 7.64207ZM-18.6994 7.7702C-18.965 7.89832 -19.9611 8.47488 -19.9611 7.7702C-19.8282 7.96238 -19.6954 7.96238 -19.5627 7.7702C-19.2971 7.578 -18.8987 7.89832 -18.6994 7.7702C-18.7659 7.7702 -19.0314 7.89832 -18.6994 7.7702ZM-24.3432 4.69521C-23.812 4.69521 -23.6128 4.82335 -23.148 4.95146C-22.816 5.01553 -22.4176 5.01553 -22.0856 4.88741C-21.7537 4.69521 -21.953 4.50303 -21.5546 4.88741C-21.5546 4.82335 -21.5546 4.75928 -21.5546 4.69521C-20.7577 4.82335 -20.8242 5.72022 -20.0938 5.9124C-19.8947 5.97647 -19.2969 6.04053 -19.1643 6.10458C-18.633 6.4249 -18.8323 7.00145 -19.2971 6.48895C-19.3634 6.68113 -19.4298 7.38584 -19.6954 7.38584C-19.8282 7.2577 -19.8947 7.12957 -19.8947 6.93738C-19.9611 7.00145 -20.0938 7.00145 -20.1602 7.00145C-19.8947 5.72022 -21.289 6.04053 -21.289 7.06552C-21.289 7.2577 -21.1562 8.09051 -21.5546 8.09051C-22.2185 8.09051 -21.7537 6.7452 -21.5546 6.48895C-21.6872 6.55302 -21.8201 6.61708 -21.8865 6.68115C-21.8201 6.04051 -20.2931 6.04051 -20.3593 5.84833C-20.8906 5.84833 -21.621 5.78426 -22.0856 5.65615C-22.0192 5.52803 -21.953 5.46396 -21.953 5.33583C-22.285 5.3999 -22.6169 5.78428 -22.9489 5.78428C-23.148 5.78428 -23.3473 5.65615 -23.6128 5.72022C-23.3473 5.33585 -22.8825 5.20771 -22.4841 4.95146C-23.0154 4.95146 -24.2768 4.82335 -24.6088 4.43898C-24.5424 4.50303 -24.476 4.5671 -24.3432 4.69521ZM-41.6063 -0.878165C-41.7391 -0.942233 -41.8055 -1.0063 -41.9382 -1.0063C-41.5399 -0.685982 -41.5399 -0.878165 -41.3407 -1.13442C-41.4071 -1.0063 -41.4735 -0.942233 -41.6063 -0.878165ZM-40.9423 -1.26253C-40.6767 -1.07035 -40.4775 -0.814116 -40.2783 -0.557866C-40.4775 -0.814116 -40.7431 -1.07035 -40.9423 -1.26253ZM-39.8136 0.0187035C-39.8799 -0.0453644 -39.8799 -0.109432 -40.0127 -0.17348C-39.8136 0.0187035 -39.7472 0.467138 -39.4816 0.595254C-39.6144 0.467138 -39.7472 0.210887 -39.8136 0.0187035C-39.7472 0.146819 -39.8136 -0.109431 -39.8136 0.0187035ZM-39.4152 0.531187C-39.3488 0.531187 -39.2824 0.531186 -39.216 0.595254C-39.2824 0.595254 -39.3488 0.595254 -39.4152 0.531187ZM-32.7091 12.0623C-32.178 12.1905 -31.7132 12.3827 -31.182 12.5108C-31.7132 12.3827 -32.178 12.2545 -32.7091 12.0623ZM-27.5966 13.2155C-27.1982 13.2155 -26.999 13.4717 -26.7998 13.792C-26.999 13.4717 -27.2646 13.2155 -27.5966 13.2155Z"></path>
<path fill="#90C6DE" d="M19.215 9.70156C19.1207 9.70156 18.4146 9.78743 18.4146 9.78743C18.4146 9.95917 19.0267 10.4744 19.0737 10.4744C19.1207 10.4744 19.168 9.78743 19.215 9.70156Z"></path>
<path fill="#176C93" d="M12.7753 10.946C13.032 11.1234 12.9354 11.4058 12.9826 11.6418C13.0078 11.7672 13.0152 11.8905 13.1228 11.9695C13.2057 12.0307 13.1816 12.0745 13.159 12.1566C13.1286 12.2667 13.0587 12.2723 12.9889 12.2514C12.6992 12.1653 12.4835 12.3529 12.241 12.4354C12.1601 12.463 12.1071 12.5455 12.1622 12.6378C12.2525 12.7897 12.1754 12.8616 12.0331 12.8891C11.8972 12.9156 11.7749 12.9895 11.7019 13.0782C11.4704 13.3576 11.1518 13.3321 10.8432 13.3596C10.4763 13.3927 10.2443 13.6053 10.1714 13.9784C10.1577 14.0493 10.133 14.0895 10.0585 14.0865C9.50476 14.0641 8.94838 14.14 8.39673 14.0483C8.44397 14.0131 8.47966 13.9626 8.54684 13.9555C9.05441 13.902 9.37301 13.5757 9.66642 13.2174C9.74883 13.117 9.79974 13.014 9.70946 12.8733C9.64228 12.7683 9.65645 12.6103 9.70894 12.5104C9.90314 12.1393 10.0344 11.7106 10.5304 11.5796C10.924 11.4756 11.0511 11.1412 11.177 10.8145C11.2164 10.713 11.2327 10.5958 11.3765 10.5784C11.4237 10.5846 11.4704 10.5902 11.5177 10.5963C11.5849 10.8185 11.7423 10.9001 11.9707 10.8675C12.2462 10.8277 12.5186 10.8099 12.7758 10.946H12.7753Z"></path>
<path fill="#176C93" d="M34.9008 15.5685C34.7779 15.568 34.6544 15.567 34.5315 15.5665C34.6555 15.4262 34.7779 15.5241 34.9008 15.5685Z"></path>
<path fill="#176C93" d="M36.9976 17.1212C37.0106 17.0648 37.0237 17.0089 37.0368 16.9525C37.1105 16.9657 37.1329 17.0114 37.1068 17.0744C37.089 17.1176 37.0592 17.1618 36.9976 17.1212Z"></path>
<path fill="#176C93" d="M35.1149 15.5247C35.0716 15.662 34.9897 15.6317 34.9004 15.5696C34.9701 15.5469 35.0357 15.506 35.1149 15.5247Z"></path>
<path fill="#176C93" d="M33.8521 14.9582V15.2302C33.7558 15.1862 33.7516 15.1215 33.7495 15.0558C33.7813 15.0209 33.7511 14.9249 33.8521 14.9582Z"></path>
<path fill="#176C93" d="M27.4406 13.7101C27.3915 13.6527 27.3967 13.5731 27.4432 13.56C27.5209 13.5379 27.5084 13.6078 27.4901 13.6542C27.4823 13.6748 27.4593 13.6899 27.4406 13.7106V13.7101Z"></path>
<path fill="#176C93" d="M27.481 13.3173C27.5363 13.3234 27.5489 13.3535 27.5557 13.3852C27.563 13.4189 27.5546 13.4526 27.5165 13.4601C27.4689 13.4691 27.4637 13.4284 27.4627 13.3983C27.4621 13.3711 27.4747 13.3435 27.481 13.3173Z"></path>
<path fill="#176C93" d="M37.2734 16.1166C37.2466 16.0569 37.1805 16.0146 37.15 15.9555C37.0766 15.8122 36.9516 15.7628 36.8005 15.7307C36.6267 15.694 36.4446 15.6884 36.3029 15.5431C36.0882 15.3234 36.0614 15.0721 36.1092 14.7958C36.1171 14.7505 36.168 14.6939 36.0956 14.6679C36.0677 14.6577 36.0032 14.6852 35.9864 14.7132C35.8021 15.0145 35.4746 15.1848 35.2678 15.4621C35.2201 15.5263 35.1628 15.5044 35.1114 15.5253C35.0474 15.5706 34.9776 15.5915 34.8983 15.5706L34.8994 15.5681C34.7765 15.5278 34.6537 15.5237 34.5304 15.566C34.4369 15.614 34.3393 15.6772 34.2648 15.5451C34.2249 15.4743 34.0422 15.4641 34.1351 15.3479C34.2522 15.2011 34.1514 15.0553 34.1734 14.9105C34.1902 14.8009 34.1073 14.7076 33.9588 14.7596C33.9257 14.8121 33.8931 14.8646 33.8606 14.9166C33.8401 14.9202 33.8228 14.9304 33.806 14.9416C33.8034 14.9528 33.8008 14.964 33.7997 14.9758C33.7987 14.9992 33.8076 15.0262 33.7987 15.0456C33.785 15.0757 33.7929 15.0364 33.7855 15.0405C33.7756 15.0196 33.7614 15.0002 33.7441 14.9834C33.7299 14.9905 33.7147 14.9956 33.6968 14.9961C33.4234 14.8549 33.4145 14.8121 33.594 14.5022C33.3336 14.2876 33.0586 14.0847 32.9515 13.7473C32.825 13.7784 32.6465 13.8355 32.5872 13.7254C32.4739 13.5138 32.3001 13.5337 32.1232 13.5388C31.6813 13.5521 31.2855 13.4598 30.9585 13.1458C30.811 13.0041 30.6394 12.8833 30.4688 12.7665C30.156 12.553 29.841 12.3363 29.4511 12.2752C29.3461 12.2583 29.303 12.215 29.2374 12.1299C29.1403 12.0035 29.2217 11.7476 29.039 11.7471C28.8894 11.7471 28.7388 11.9005 28.5892 11.9856C28.5593 12.0029 28.5294 12.0198 28.5 12.0376C28.1646 12.2415 27.9205 12.1401 27.8538 11.7537C27.7688 11.8225 27.6717 11.8465 27.5694 11.8531C27.5715 11.8704 27.5694 11.8872 27.5652 11.9035C27.5226 11.9515 27.5489 11.9933 27.5772 12.0351C27.7468 12.216 27.7489 12.239 27.6166 12.4296C27.5741 12.3761 27.584 12.2976 27.5253 12.2532C27.5022 12.241 27.4801 12.2425 27.4597 12.2593C27.3342 12.3521 27.4423 12.6182 27.1526 12.6039C26.8487 12.5886 26.5584 12.7023 26.2487 12.4943C26.012 12.3358 25.7128 12.4719 25.4714 12.634C25.3759 12.6982 25.2898 12.7798 25.1412 12.7329C24.7848 12.6208 24.4237 12.5224 24.0589 12.4357C23.9125 12.4011 23.7671 12.5377 23.6369 12.4107C23.4359 12.6386 23.4905 12.9235 23.4968 13.1779C23.5026 13.4098 23.5514 13.6448 23.5503 13.8819C23.5477 14.6602 23.5571 15.4391 23.544 16.2175C23.5403 16.426 23.6117 16.4703 23.8122 16.4693C25.2378 16.4611 26.6634 16.4647 28.089 16.4642C28.1756 16.4642 28.2643 16.4749 28.3415 16.4214C28.3688 16.2996 28.2585 16.2629 28.1898 16.2114C27.9929 16.0651 27.7867 15.9336 27.8848 15.6374C27.9027 15.5834 27.8449 15.5288 27.804 15.485C27.7336 15.4095 27.677 15.327 27.6302 15.2347C27.4455 14.8728 27.2528 14.5139 27.0891 14.1418C27.0754 14.1066 27.0571 14.0735 27.0408 14.0394C27.0387 14.0781 27.0371 14.1168 27.035 14.1556C26.9857 14.0623 26.9899 13.9491 26.8833 13.8645C27.0114 13.8518 27.0282 13.915 27.0439 13.9792C27.0439 13.9843 27.0439 13.9889 27.0434 13.994C27.0445 13.994 27.0445 13.9945 27.0434 13.9955C27.0434 14.0016 27.0429 14.0083 27.0424 14.0144C27.0434 14.0154 27.0434 14.0159 27.0445 14.0169C27.1489 14.124 27.278 14.1199 27.4024 14.0705C27.5578 14.0088 27.6376 14.0689 27.7137 14.1959C27.8433 14.4125 28.0003 14.6128 28.1462 14.8198C28.1588 14.9008 28.3357 14.9197 28.237 15.043C28.2879 15.12 28.3635 15.1812 28.3771 15.2816C28.3987 15.4361 28.4947 15.537 28.6343 15.6119C28.9477 15.7801 29.0684 16.0579 29.0863 16.3918C29.1057 16.7583 29.2185 17.0708 29.5875 17.2497C29.7403 17.3236 29.8458 17.4536 29.8993 17.6126C30.0384 18.0271 30.4027 18.2993 30.6053 18.6734C30.6158 18.6933 30.6515 18.6943 30.6777 18.6948C30.7995 18.6683 30.8362 18.575 30.864 18.4731C30.8824 18.4068 30.9013 18.338 30.9911 18.3344C31.3921 18.3176 31.8057 18.3059 32.181 18.4247C32.4413 18.5072 32.55 18.4405 32.6654 18.2564C32.8208 18.0092 33.0528 17.8731 33.3436 17.8283C33.5929 17.79 33.8454 17.7722 34.0942 17.7304C34.2364 17.7064 34.3246 17.7579 34.3813 17.8874C34.4637 18.074 34.5377 18.2646 34.6537 18.4354C34.7104 18.5185 34.7613 18.6184 34.8967 18.575C35.0852 18.522 35.2615 18.4211 35.4736 18.4675C35.5565 18.4858 35.6368 18.4226 35.6415 18.3411C35.6573 18.0561 35.9008 18.1372 36.0609 18.0735C36.2399 18.0021 36.1843 17.6815 36.4609 17.6973C36.6551 17.7085 36.6834 17.6335 36.6477 17.4521C36.5926 17.1738 36.7081 17.0815 36.9994 17.1187C37.0535 17.0713 37.0608 17.0137 37.0388 16.9495C37.0503 16.8256 37.149 16.7655 37.2356 16.6956C37.3616 16.5947 37.4198 16.4515 37.4666 16.3082C37.5169 16.1553 37.317 16.2047 37.2755 16.113L37.2734 16.1166ZM26.6188 13.3808C26.5584 13.3594 26.517 13.3237 26.5395 13.2559C26.5458 13.2375 26.5852 13.21 26.591 13.2141C26.6524 13.2539 26.644 13.3216 26.6566 13.3818C26.7665 13.4943 26.8305 13.6341 26.8487 13.8013C26.6702 13.704 26.6351 13.5475 26.6198 13.3808H26.6188Z"></path>
<path fill="#176C93" d="M35.0003 16.1202H34.791C34.8618 16.046 34.9316 16.085 35.0003 16.1202Z"></path>
<path fill="#176C93" d="M30.2569 18.4862C30.3639 18.4393 30.3814 18.5386 30.4481 18.5533C30.3983 18.6476 30.3491 18.6017 30.3093 18.583C30.2717 18.5659 30.2426 18.5346 30.2569 18.4862Z"></path>
</g>
</svg>
