<svg width="24" height="24" viewBox="0 0 24 24" fill="none" xmlns="http://www.w3.org/2000/svg">
<g clip-path="url(#clip0_6144_24393)">
<g clip-path="url(#clip1_6144_24393)">
<rect x="-4" width="32" height="24" fill="#F7FCFF"/>
<mask id="mask0_6144_24393" style="mask-type:luminance" maskUnits="userSpaceOnUse" x="-4" y="0" width="32" height="24">
<rect x="-4" width="32" height="24" fill="white"/>
</mask>
<g mask="url(#mask0_6144_24393)">
<mask id="path-4-inside-1_6144_24393" fill="white">
<path fill-rule="evenodd" clip-rule="evenodd" d="M6 4H2V6.99254C1.55943 7.09705 1.23168 7.49303 1.23168 7.96556C1.23168 7.97709 1.23188 7.98857 1.23226 8H-2V12H1.33074C1.45991 12.2674 1.70459 12.4685 2 12.5386V16H6V12.5514C6.3236 12.4966 6.59431 12.2863 6.7326 12H10V8H6.83108C6.83146 7.98857 6.83166 7.97709 6.83166 7.96556C6.83166 7.47065 6.47213 7.05971 6 6.97967V4Z"/>
</mask>
<path fill-rule="evenodd" clip-rule="evenodd" d="M6 4H2V6.99254C1.55943 7.09705 1.23168 7.49303 1.23168 7.96556C1.23168 7.97709 1.23188 7.98857 1.23226 8H-2V12H1.33074C1.45991 12.2674 1.70459 12.4685 2 12.5386V16H6V12.5514C6.3236 12.4966 6.59431 12.2863 6.7326 12H10V8H6.83108C6.83146 7.98857 6.83166 7.97709 6.83166 7.96556C6.83166 7.47065 6.47213 7.05971 6 6.97967V4Z" fill="#A0A0A0"/>
<path d="M2 4V3H1V4H2ZM6 4H7V3H6V4ZM2 6.99254L2.23081 7.96554L3 7.78307V6.99254H2ZM1.23226 8V9H2.26668L2.23169 7.96617L1.23226 8ZM-2 8V7H-3V8H-2ZM-2 12H-3V13H-2V12ZM1.33074 12L2.23116 11.565L1.95821 11H1.33074V12ZM2 12.5386H3V11.748L2.23081 11.5656L2 12.5386ZM2 16H1V17H2V16ZM6 16V17H7V16H6ZM6 12.5514L5.83286 11.5655L5 11.7067V12.5514H6ZM6.7326 12V11H6.10513L5.83218 11.565L6.7326 12ZM10 12V13H11V12H10ZM10 8H11V7H10V8ZM6.83108 8L5.83165 7.96615L5.79663 9H6.83108V8ZM6 6.97967H5V7.82442L5.83286 7.9656L6 6.97967ZM2 5H6V3H2V5ZM3 6.99254V4H1V6.99254H3ZM2.23168 7.96556L2.23081 7.96554L1.76919 6.01954C0.88802 6.22856 0.231681 7.01919 0.231681 7.96556H2.23168ZM2.23169 7.96617L2.23168 7.96556H0.231681C0.231681 7.98837 0.232067 8.01113 0.232836 8.03383L2.23169 7.96617ZM-2 9H1.23226V7H-2V9ZM-1 12V8H-3V12H-1ZM1.33074 11H-2V13H1.33074V11ZM2.23081 11.5656L2.23116 11.565L0.430311 12.435C0.688076 12.9686 1.17589 13.3708 1.76919 13.5116L2.23081 11.5656ZM3 16V12.5386H1V16H3ZM6 15H2V17H6V15ZM5 12.5514V16H7V12.5514H5ZM6.16714 13.5374C6.81737 13.4271 7.35721 13.0059 7.63303 12.435L5.83218 11.565L5.83286 11.5655L6.16714 13.5374ZM10 11H6.7326V13H10V11ZM9 8V12H11V8H9ZM6.83108 9H10V7H6.83108V9ZM5.83166 7.96556C5.83166 7.96583 5.83165 7.96603 5.83165 7.96615L7.8305 8.03385C7.83127 8.01111 7.83166 7.98834 7.83166 7.96556H5.83166ZM5.83286 7.9656C5.83037 7.96518 5.83051 7.96418 5.83198 7.96591C5.83246 7.96647 5.83229 7.96648 5.83197 7.96561C5.83146 7.96427 5.83166 7.96374 5.83166 7.96556H7.83166C7.83166 6.97473 7.11213 6.15393 6.16714 5.99374L5.83286 7.9656ZM5 4V6.97967H7V4H5Z" fill="#FECA00" mask="url(#path-4-inside-1_6144_24393)"/>
<path fill-rule="evenodd" clip-rule="evenodd" d="M12 0H28V24H12V0Z" fill="#E31D1C"/>
<mask id="mask1_6144_24393" style="mask-type:luminance" maskUnits="userSpaceOnUse" x="12" y="0" width="16" height="24">
<path fill-rule="evenodd" clip-rule="evenodd" d="M12 0H28V24H12V0Z" fill="white"/>
</mask>
<g mask="url(#mask1_6144_24393)">
</g>
</g>
</g>
<g style="mix-blend-mode:hard-light" opacity="0.12">
<rect width="24" height="24" rx="12" fill="white"/>
</g>
<rect width="24" height="24" fill="url(#paint0_linear_6144_24393)" fill-opacity="0.64" style="mix-blend-mode:overlay"/>
</g>
<defs>
<linearGradient id="paint0_linear_6144_24393" x1="24" y1="1.19273e-06" x2="-4.48665" y2="16.0237" gradientUnits="userSpaceOnUse">
<stop stop-color="white" stop-opacity="0.3"/>
<stop offset="0.262741" stop-opacity="0.27"/>
<stop offset="0.369956" stop-color="white" stop-opacity="0.26"/>
<stop offset="0.487001" stop-opacity="0.55"/>
<stop offset="0.594445" stop-opacity="0.24"/>
<stop offset="0.736408" stop-color="white" stop-opacity="0.3"/>
<stop offset="0.901459" stop-color="#272727" stop-opacity="0.22"/>
<stop offset="1" stop-opacity="0.2"/>
</linearGradient>
<clipPath id="clip0_6144_24393">
<rect width="24" height="24" rx="12" fill="white"/>
</clipPath>
<clipPath id="clip1_6144_24393">
<rect width="24" height="24" fill="white"/>
</clipPath>
</defs>
</svg>
