<svg width="24" height="24" viewBox="0 0 24 24" fill="none" xmlns="http://www.w3.org/2000/svg">
<path d="M12.0087 23.993C18.6313 23.993 24 18.622 24 11.9965C24 5.37102 18.6313 0 12.0087 0C5.38604 0 0.017334 5.37102 0.017334 11.9965C0.017334 18.622 5.38604 23.993 12.0087 23.993Z" fill="#DCF4FF"/>
<mask id="mask0_23_18236" style="mask-type:luminance" maskUnits="userSpaceOnUse" x="0" y="0" width="24" height="24">
<path d="M23.9837 12.003C23.9837 18.617 18.6214 24 11.9919 24C5.38073 24 0 18.6353 0 12.003C0 5.38899 5.36236 0.0059433 11.9919 0.0059433C18.6214 0.0059433 23.9837 5.38899 23.9837 12.003Z" fill="white"/>
</mask>
<g mask="url(#mask0_23_18236)">
<path d="M16.2 19.5213C15.7238 19.3614 14.6445 18.6154 14.2 19.2549C14.2953 19.2282 14.3905 19.1749 14.4857 19.1483C14.7397 19.0683 14.6445 19.2016 14.7714 19.2016C15.1206 19.2016 15.3111 19.3614 15.5968 19.468C15.5333 19.4947 15.5333 19.5213 15.5333 19.548C15.6921 19.548 16.073 19.6812 16.2 19.5213C16.1365 19.6012 16.1365 19.4947 16.2 19.5213Z" fill="#90C6DE"/>
<path d="M17.4 19.8703C17.4 20.0328 17.5778 20.0328 17.6 19.9245C17.5778 19.8704 17.4 19.7079 17.4 19.8703Z" fill="#90C6DE"/>
<path d="M16.2 19.871C16.2 19.9226 16.227 19.9484 16.2811 19.9484C16.2811 19.7936 16.6324 20 16.6865 20C16.7406 20 16.7946 19.9226 16.8757 19.9226C16.9838 19.9226 17.0649 19.871 17.2 19.871C17.146 19.8194 17.0919 19.7936 17.0379 19.742L17.0649 19.7678C17.0108 19.742 16.3892 19.5097 16.3892 19.6388C16.3892 19.6388 16.5514 19.8452 16.4973 19.8194C16.4162 19.8968 16.2541 19.871 16.2 19.871C16.227 19.871 16.2 19.9226 16.2 19.871Z" fill="#90C6DE"/>
<path d="M20.3039 23C20.028 23 20.3652 23.6925 20.5798 23.2551C20.6718 23.0729 20.4265 23 20.3039 23Z" fill="#90C6DE"/>
<path d="M22.8084 23.9957C22.6362 23.9381 22.5502 23.9957 22.4067 23.8518C22.2633 23.7366 22.1485 23.5638 21.919 23.5926C21.6895 23.6214 21.4886 23.4774 21.2878 23.5926C21.2878 23.3623 21.0583 23.3047 20.8575 23.2183C20.5993 23.1319 20.628 23.5062 20.4558 23.5062C20.3697 23.5062 20.255 23.3335 20.1689 23.3047C19.9107 23.2183 20.2837 22.9591 20.3697 22.8727C20.3697 22.7864 20.1115 22.412 20.0829 22.3832C19.9394 22.2681 19.8533 22.2393 19.6812 22.1529C19.5377 22.0953 19.3656 22.0953 19.2222 22.0953C19.0213 22.0665 18.9353 21.9225 18.8205 21.8074C18.6771 21.6634 18.0172 21.433 18.218 21.2603C18.0172 21.2027 17.9598 21.2891 17.8164 21.3466C17.6442 21.4042 17.6155 21.2891 17.4721 21.2891C17.1852 21.2891 17.0991 21.0299 16.8409 21.0299C16.8696 21.0875 16.8983 21.1163 16.9557 21.1451C16.5253 21.0587 16.7835 21.5482 16.6688 21.5482C16.4106 21.5482 16.6975 21.0875 16.6975 21.0299C16.6975 20.8859 16.2958 21.1163 16.2097 21.1451C15.9228 21.2315 15.8081 21.5482 15.6072 21.6922C15.722 21.577 15.4064 21.4618 15.2917 21.4618C15.1195 21.4618 14.9187 21.6922 14.7752 21.4906C14.6892 21.3466 14.4883 21.3754 14.4883 21.1739C14.4883 21.0299 14.4883 20.8859 14.517 20.742C14.6031 20.3101 14.2014 20.3388 13.8572 20.3676C13.4555 20.3964 13.7137 20.1661 13.7137 19.8781C13.7711 19.9069 13.7424 19.8781 13.7711 19.9069C13.8572 19.763 13.9145 19.5038 13.9432 19.331C13.7424 19.331 13.4842 19.2159 13.3408 19.4174C13.1686 19.6478 13.2547 19.8206 12.9678 19.8206C12.8817 19.8206 12.6522 19.9645 12.5948 19.8781C12.5087 19.7918 12.3653 19.6766 12.2792 19.5614C12.1645 19.4462 12.0784 19.2447 12.0784 19.0719C12.0784 18.8127 12.021 18.0641 12.3079 17.9489C12.4514 17.8913 12.7383 17.6322 12.8817 17.7186C12.9391 17.7474 13.4268 17.8625 13.4842 17.8337C13.4268 17.7762 13.4268 17.7186 13.4842 17.6322C13.4555 17.661 13.4268 17.661 13.3981 17.6322C13.5416 17.5746 13.7424 17.661 13.8285 17.6034C13.9432 17.5458 14.058 17.6322 14.1441 17.6898C14.2875 17.7762 14.2588 17.6322 14.3736 17.6322C14.5744 17.6322 14.8326 18.784 15.0621 18.5536C15.349 18.2369 14.7465 17.6898 14.9474 17.3442C15.1482 16.9699 15.6072 16.9699 15.8368 16.682C15.7507 16.538 15.8655 16.6532 15.7794 16.4804C15.9228 16.4804 15.7507 16.0773 15.7794 15.9621L15.8655 16.2788C16.0376 16.2788 15.9802 15.9621 15.9515 15.9045C16.0376 15.9333 16.095 15.8469 16.181 15.7318C16.2384 15.6166 16.1523 15.703 16.1523 15.5878C16.1523 15.5302 16.4392 15.5302 16.4679 15.5302C16.4106 15.5014 16.3245 15.5302 16.2671 15.5302C16.4392 15.415 16.7835 15.415 16.927 15.3286C16.6975 15.3862 16.7835 15.0407 16.927 14.9255C17.0704 14.8103 17.4434 14.8103 17.386 14.6376C17.5868 14.7527 17.7016 14.5224 17.845 14.4936C17.8164 14.58 17.845 14.6088 17.9311 14.58C17.5008 14.6088 17.6155 15.0407 17.759 14.9255C17.845 14.8679 18.4188 14.6088 18.4188 14.5512C18.4188 14.3784 17.7303 14.4936 17.8164 14.0041C17.759 14.0041 17.7016 14.0041 17.6729 13.9753C17.7303 13.9177 18.1606 13.6874 17.759 13.6874C17.4721 13.6874 17.2999 13.8601 17.0417 13.8889C17.0991 13.7449 17.5295 13.457 17.7016 13.4282C17.9885 13.3994 18.4475 13.5722 18.7057 13.3994C18.8779 13.2554 19.2222 13.1979 19.3369 13.0539C19.4517 12.9099 19.2222 12.6796 19.2222 12.5356C19.1361 12.5932 18.6484 12.8235 18.591 12.7083C18.677 12.6508 19.3656 12.4492 18.9353 12.4204C18.7918 12.4204 18.591 12.334 18.591 12.1613C18.5336 12.1037 18.3902 12.0749 18.3041 11.9885C18.5623 11.8445 18.218 11.6718 18.1606 11.5278C18.0746 11.355 18.0746 11.211 17.9024 11.0671C17.759 10.9519 17.6155 11.499 17.3573 11.499C17.0991 11.499 17.013 11.1247 16.9844 10.9519C16.9844 10.8943 16.5827 10.664 16.5253 10.6352C16.2384 10.4336 16.1237 10.5488 15.7794 10.4336C15.263 10.2608 15.6359 10.7215 15.4638 10.8367C15.3777 10.8943 15.722 11.211 15.349 11.355C15.5786 11.7293 15.9515 12.334 15.2056 12.478C15.349 12.5356 15.349 12.7083 15.3777 12.8523C15.4064 13.0539 15.3203 12.9963 15.3203 13.1691C15.1195 13.1691 15.2343 13.3418 15.0048 13.1403C14.7752 12.9099 14.8039 12.7947 14.7466 12.5068C14.6892 12.2188 14.2875 12.334 14.0867 12.2188C13.8859 12.1037 13.685 12.0173 13.4842 11.9309C13.4268 11.9021 13.3694 11.8733 13.3121 11.8445C13.1686 11.7869 13.1399 11.9021 12.9965 11.9021C12.9965 11.5854 12.8817 11.4126 12.6235 11.4702C12.6809 11.3262 12.6235 11.1823 12.6235 11.0383C12.6522 10.8367 12.8243 10.6927 12.9104 10.52C13.0252 10.3184 13.1112 10.4624 13.2547 10.3184C13.4268 10.1745 13.0252 10.1169 12.9678 10.0881C12.9678 10.0881 13.0252 10.0593 13.0539 10.0593C13.1399 10.0881 13.2547 10.0881 13.3408 10.1169C13.4842 10.1457 13.3694 9.97289 13.4555 9.97289C13.6563 9.9153 13.7424 9.88651 13.9145 9.74254C13.9145 9.54098 13.5129 9.65615 13.3981 9.45459C13.5703 9.48339 13.7137 9.65615 13.8859 9.56977C13.9432 9.54097 14.1154 9.28183 14.0006 9.28183C14.1154 9.28183 14.1728 9.397 14.2588 9.397C14.3736 9.397 14.4597 9.25303 14.4597 9.25303C14.6031 9.25303 14.6318 9.31062 14.7752 9.13785C14.9474 8.96509 14.7465 8.96509 14.7179 8.79232C14.6892 8.64835 14.8613 8.67714 14.8613 8.56197C14.8326 8.418 14.7752 8.47558 14.6892 8.3892C14.6031 8.33161 14.1728 8.15884 14.1728 8.3892C14.2014 8.44679 14.2301 8.50438 14.2588 8.56197C14.2588 8.61956 14.1154 8.61955 14.0867 8.67714C14.0006 8.8787 13.8572 9.22424 13.6563 8.84991C13.5703 8.67714 13.8572 8.64835 13.5703 8.44679C13.3981 8.30282 13.4268 8.67714 13.2834 8.67714C13.2834 8.53317 13.0825 8.44679 13.1973 8.36041C13.1112 8.30282 12.9678 8.36041 12.8817 8.27402C13.1112 8.15885 12.9104 7.8997 12.7956 7.72693C12.5661 7.43899 12.4514 7.72693 12.3079 7.75572C12.2505 7.78452 12.2218 8.18764 12.3079 8.21644C12.4801 8.30282 12.767 8.30282 12.5948 8.59076C12.9965 8.36041 12.2505 9.10906 12.3079 8.9075C12.394 8.44679 11.8489 8.87871 11.7628 8.87871C11.4185 8.87871 10.73 8.96509 10.5865 8.50438C10.4431 8.53317 10.2423 8.50438 10.1275 8.61955C9.95535 8.76353 10.4431 8.67715 10.5005 8.64835C10.5005 8.59076 10.0414 9.08027 10.2423 9.08027C10.0701 9.08027 9.95536 8.84991 9.69715 8.84991C9.5537 8.84991 8.92252 8.99388 8.92252 8.82111C8.92252 8.76353 9.12335 8.79232 9.15204 8.76353C8.92252 8.44679 8.69301 8.67714 8.37742 8.56197C8.20528 8.50438 8.06183 8.3892 7.88969 8.33161C7.68886 8.27402 7.40197 8.50438 7.34459 8.21644C7.22983 8.24523 7.22983 8.3892 7.11507 8.3892C7.00031 8.3892 6.91424 8.21643 6.82817 8.13005C6.7421 8.04367 6.71341 8.18764 6.65603 8.24523C6.59865 8.33161 6.39782 8.21643 6.31175 8.24523C6.25437 8.24523 5.59451 8.41799 5.6232 8.3892C5.6232 8.3892 5.22154 8.61955 5.39368 8.61955C5.07809 8.61955 4.81988 8.418 4.56168 8.36041C4.56168 9.25303 4.56168 10.1169 4.56168 11.0095C4.56168 10.1457 4.56168 9.28183 4.56168 8.418C4.56168 8.15885 4.01657 8.27402 3.90181 8.27402C3.61491 8.27402 3.38539 8.13005 3.12719 8.13005C3.01243 8.13005 2.89767 8.13005 2.78291 8.13005C2.69684 8.13005 2.63946 8.01488 2.55339 8.01488C2.46732 8.01488 2.38125 8.01488 2.29518 8.01488C2.12304 7.95729 2.12304 8.07246 2.00829 8.04367C2.18042 7.75572 1.49187 8.01487 1.37711 8.04367C1.06152 8.15885 0.745935 8.61955 0.487727 8.61955C0.315588 8.61955 0.0286899 8.76353 0.315588 8.84991C0.487726 8.9075 0.545106 8.93629 0.631175 9.10906C0.745934 9.28182 0.975452 9.22424 1.06152 9.45459C0.918073 9.48339 0.659865 9.51218 0.659865 9.31062C0.459037 9.28183 0.172139 9.48339 0 9.56977C0.0286898 9.62736 0.0860695 9.68495 0.172139 9.65615C0.143449 9.71374 0.143449 9.74254 0.200829 9.80012C0.315588 9.9441 0.344277 9.88651 0.545106 9.88651C0.745934 9.88651 0.832004 9.97289 1.00414 9.85771C1.1189 9.77133 1.17628 9.82892 1.17628 9.9153C1.14759 9.88651 1.1189 9.88651 1.09021 9.9153C1.14759 10.0593 1.26235 10.0593 1.09021 10.1745C0.946763 10.2608 0.803314 10.2896 0.631175 10.3472C0.487726 10.376 0.258208 10.4912 0.258208 10.664C0.258208 10.7503 0.659865 10.9519 0.401657 10.9519C0.487726 11.0671 0.631175 11.1535 0.745935 11.211C0.832004 11.2686 0.975453 11.0383 0.975453 11.211C1.00414 11.2398 0.918073 11.499 1.03283 11.499C1.14759 11.499 1.17628 11.4414 1.20497 11.355C1.29104 11.4126 1.37711 11.4702 1.49187 11.5278C1.52056 11.4126 1.86484 11.4126 2.00829 11.3838C1.86484 11.4702 1.86484 11.6718 1.72139 11.7581C1.54925 11.8733 1.34842 11.9309 1.23366 12.1037C1.14759 12.2188 0.946764 12.1325 0.860694 12.3052C0.745935 12.4492 0.545106 12.3916 0.459037 12.5356C0.659865 12.5932 1.1189 12.334 1.31973 12.2476C1.54925 12.1613 1.83615 11.9597 1.9796 11.7581C2.06566 11.643 2.20911 11.6718 2.29518 11.5566C2.35256 11.4702 2.32387 11.355 2.35256 11.2686C2.43863 11.0383 2.69684 10.8079 2.95505 10.8367C2.95505 10.9519 2.63946 11.1247 2.63946 11.3262C2.63946 11.355 3.3854 11.2398 3.24195 10.9519C3.52884 10.8079 3.90181 11.1535 4.27478 11.1535C4.44692 11.1535 4.64775 11.2398 4.81988 11.2974C4.96333 11.355 5.22154 11.7581 5.3363 11.499C5.42237 11.5854 5.68058 11.5566 5.59451 11.6718C5.42237 11.9021 5.79534 11.7581 5.82403 11.7581C5.68058 12.1325 6.02486 11.8733 6.02486 12.1613C6.02486 12.5068 6.68472 12.3916 6.28306 12.0749C6.51258 12.2476 6.31175 12.4204 6.39782 12.6796C6.42651 12.7947 6.77079 12.9387 6.79948 13.0827C6.85686 13.2266 6.85686 13.3994 7.05769 13.3994C7.08638 13.5434 7.3159 13.457 7.34459 13.601C7.40197 13.8025 7.91838 13.7162 7.63148 14.0905C7.5741 13.9753 7.25852 13.9465 7.40197 14.1481C7.5741 14.4072 7.45934 14.5512 7.40197 14.8391C7.34459 15.1271 7.34459 16.0773 7.77493 16.1349C7.74624 16.394 7.97576 16.5092 8.00445 16.7396C8.03314 16.8835 8.54956 16.9987 8.66432 17.2003C8.69301 17.2579 9.09466 18.2657 9.20942 18.2081C9.18073 18.2081 9.12335 18.2081 9.09466 18.2081C9.23811 18.4096 9.5537 18.352 9.5537 18.6688C9.5537 18.7552 9.89798 19.0719 9.95536 19.0719C10.0127 19.0719 9.66846 18.4672 9.61108 18.3808C9.49632 18.2369 9.46763 18.0353 9.35287 17.9201C9.23811 17.8049 8.92252 17.5746 9.06597 17.373C9.15204 17.4306 9.23811 17.4594 9.35287 17.4882C9.38156 17.5458 9.41025 17.6322 9.43894 17.6898C9.5537 17.8049 9.61108 17.9777 9.72584 18.1217C9.81191 18.0353 10.1275 18.6112 10.1849 18.64C10.357 18.7264 10.5292 18.9279 10.6439 19.1007C10.7874 19.331 10.73 19.3598 10.73 19.5614C10.73 19.8205 11.3038 19.9069 11.4759 20.0509C11.6481 20.2237 12.0784 20.2237 12.2792 20.3388C12.4227 20.4252 12.4514 20.2525 12.5661 20.2525C12.767 20.2525 12.8817 20.4252 12.9965 20.5404C13.1399 20.6844 13.3694 20.6844 13.5416 20.7708C13.6276 20.8283 13.7137 20.8283 13.7998 20.7708C13.8572 20.7996 13.9145 20.9147 13.9719 20.9723C14.1154 21.0875 14.2014 21.4618 14.2588 21.3466C14.4023 21.3466 15.0334 22.0665 15.1195 21.7498C14.9761 21.6922 15.263 21.4618 15.349 21.577C15.4351 21.6922 15.4064 21.7498 15.4925 21.8649C15.6933 22.0665 15.5786 22.4984 15.4064 22.6136C15.2343 22.7288 15.1482 23.0167 15.0621 23.1607C14.9187 23.391 14.9761 23.4198 15.1482 23.535C15.0908 23.7654 14.7752 23.7942 14.9474 24.1109C14.9761 24.1685 15.1482 24.3988 15.2056 24.4564C15.4064 24.6292 15.7507 25.2627 15.7507 25.5506C15.7507 25.8962 16.5827 26.0401 16.7548 26.2705C16.9844 26.5872 16.8122 27.0191 16.8122 27.3647C16.8122 27.7102 16.6401 28.0269 16.6401 28.3725C16.6401 28.6892 16.6401 29.0635 16.554 29.3803C16.4966 29.697 16.2097 29.8986 16.2671 30.2729C16.2958 30.4457 16.2958 30.3593 16.2384 30.5608C16.2097 30.6184 16.181 30.9064 16.2958 30.9064C16.3532 30.9064 16.3819 30.8488 16.4392 30.8488C16.4392 31.1655 16.2958 31.511 16.2384 31.8566C16.1523 31.8566 16.095 31.655 16.0089 31.799C15.9802 31.8566 16.0376 31.9718 16.0663 31.9718C16.1523 32.1733 15.9515 32.1445 15.9515 32.3173C15.9515 32.4613 16.0089 32.7204 16.0376 32.8644C16.0376 32.9796 16.2097 32.9796 16.2097 33.1235C16.2097 33.2387 16.095 33.2675 16.095 33.3539C16.095 33.6418 16.8122 33.6418 16.927 33.8722C17.013 34.0737 17.6442 34.0161 17.759 33.8434C17.3286 33.6418 17.2999 33.4403 17.0417 33.0947C16.927 32.9508 17.0704 32.7204 17.2139 32.6916C17.3573 32.6628 17.3286 32.4325 17.4721 32.3461C17.9311 32.0581 17.1278 31.9718 17.386 31.655C17.5581 31.4823 17.6442 31.6262 17.7016 31.3671C17.7303 31.2807 17.759 31.1943 17.8164 31.1367C17.759 31.1367 17.759 31.1079 17.759 31.0503C17.8164 31.0503 17.9885 31.1655 17.9885 31.0215C17.9885 30.9064 17.845 31.0215 17.7877 30.964C17.4434 30.4744 18.1893 30.9352 18.1893 30.676C18.1893 30.0137 18.6484 30.5032 18.9926 30.1577C19.0787 30.0713 19.3082 29.841 19.1361 29.7546C19.1074 29.7546 18.8779 29.4091 18.8779 29.4091C18.8779 29.4666 19.6238 29.553 19.7386 29.3515C19.9394 29.0635 20.1689 28.8044 20.3124 28.4876C20.4845 28.2573 20.5132 28.1997 20.5419 27.9118C20.5419 27.5374 20.9722 27.3647 21.2591 27.1919C21.4313 27.1055 21.6034 27.1919 21.7755 27.0767C21.8616 27.0191 21.8903 26.8464 21.9477 26.76C22.0911 26.5296 22.2633 26.1265 22.2633 25.8386C22.2633 25.637 22.1485 25.4642 22.3493 25.3203C22.4641 25.2339 22.5215 25.0899 22.6076 25.0035C22.7797 24.8308 23.2674 24.1109 22.8084 23.9957C22.9518 24.0245 22.7223 23.9669 22.8084 23.9957ZM17.2139 14.1193C17.2139 14.1481 17.2426 14.1769 17.2426 14.1769C17.2426 14.2057 17.1565 14.0329 17.2139 14.1193ZM16.7261 14.5224C16.8122 14.436 16.6401 14.6088 16.7261 14.5224ZM16.0376 14.6088C16.095 14.58 15.6072 15.0407 15.9515 14.6664C15.9802 14.6664 16.0089 14.6376 16.0376 14.6088ZM15.2056 14.9831C15.349 14.9543 15.6933 14.9255 15.7794 14.8679C15.6359 14.9831 15.6646 15.0695 15.4351 15.0695C15.3777 15.0695 15.1195 15.0119 15.1482 15.0983C15.1195 15.0119 15.1195 15.0119 15.2056 14.9831C15.3203 14.9255 15.1769 14.9831 15.2056 14.9831ZM15.1769 15.1847C15.2056 15.2135 15.1769 15.2135 15.0908 15.2422C15.1195 15.2135 15.1482 15.2135 15.1769 15.1847ZM15.0908 15.2422C14.9761 15.2998 14.5457 15.559 14.5457 15.2422C14.6031 15.3286 14.6605 15.3286 14.7179 15.2422C14.8326 15.1559 15.0048 15.2998 15.0908 15.2422C15.0621 15.2422 14.9474 15.2998 15.0908 15.2422ZM12.6522 13.8601C12.8817 13.8601 12.9678 13.9177 13.1686 13.9753C13.3121 14.0041 13.4842 14.0041 13.6276 13.9465C13.7711 13.8601 13.685 13.7737 13.8572 13.9465C13.8572 13.9177 13.8572 13.8889 13.8572 13.8601C14.2014 13.9177 14.1728 14.3208 14.4883 14.4072C14.5744 14.436 14.8326 14.4648 14.89 14.4936C15.1195 14.6376 15.0334 14.8967 14.8326 14.6664C14.8039 14.7527 14.7752 15.0695 14.6605 15.0695C14.6031 15.0119 14.5744 14.9543 14.5744 14.8679C14.5457 14.8967 14.4883 14.8967 14.4597 14.8967C14.5744 14.3208 13.9719 14.4648 13.9719 14.9255C13.9719 15.0119 14.0293 15.3862 13.8572 15.3862C13.5703 15.3862 13.7711 14.7815 13.8572 14.6664C13.7998 14.6952 13.7424 14.724 13.7137 14.7527C13.7424 14.4648 14.4023 14.4648 14.3736 14.3784C14.1441 14.3784 13.8285 14.3496 13.6276 14.292C13.6563 14.2344 13.685 14.2057 13.685 14.1481C13.5416 14.1769 13.3981 14.3496 13.2547 14.3496C13.1686 14.3496 13.0825 14.292 12.9678 14.3208C13.0825 14.1481 13.2834 14.0905 13.4555 13.9753C13.226 13.9753 12.6809 13.9177 12.5374 13.7449C12.5661 13.7737 12.5948 13.8025 12.6522 13.8601ZM5.19285 11.355C5.13547 11.3262 5.10678 11.2974 5.0494 11.2974C5.22154 11.4414 5.22154 11.355 5.30761 11.2398C5.27892 11.2974 5.25023 11.3262 5.19285 11.355ZM5.47975 11.1823C5.59451 11.2686 5.68058 11.3838 5.76665 11.499C5.68058 11.3838 5.56582 11.2686 5.47975 11.1823ZM5.96748 11.7581C5.93879 11.7293 5.93879 11.7005 5.88141 11.6718C5.96748 11.7581 5.99617 11.9597 6.11092 12.0173C6.05355 11.9597 5.99617 11.8445 5.96748 11.7581C5.99617 11.8157 5.96748 11.7006 5.96748 11.7581ZM6.13961 11.9885C6.1683 11.9885 6.19699 11.9885 6.22568 12.0173C6.19699 12.0173 6.1683 12.0173 6.13961 11.9885ZM9.03728 17.1715C9.2668 17.2291 9.46763 17.3154 9.69715 17.373C9.46763 17.3154 9.2668 17.2579 9.03728 17.1715ZM11.2464 17.6898C11.4185 17.6898 11.5046 17.8049 11.5907 17.9489C11.5046 17.8049 11.3898 17.6898 11.2464 17.6898Z" fill="#90C6DE"/>
<mask id="mask1_23_18236" style="mask-type:alpha" maskUnits="userSpaceOnUse" x="3" y="7" width="18" height="14">
<path d="M12.3608 20.5606L12.048 20.717L9.70201 19.3094L6.41756 16.1814L5.94836 13.0533L4.07153 11.8021L3.44592 11.6457V10.7073L4.54074 7.73566L5.00994 7.57926L8.45079 7.73566L10.9532 7.11005L13.7685 7.42286L17.2093 8.51767L20.0246 11.3329V14.461L18.3041 16.4942L15.8017 18.8402H14.5505C14.4254 18.8402 14.0813 18.5274 13.9249 18.371L12.9865 18.6838L12.6737 19.7786L12.3608 20.5606Z" fill="#D9D9D9"/>
</mask>
<g mask="url(#mask1_23_18236)">
<path d="M22.8392 24.0165C22.6669 23.9591 22.5807 24.0165 22.4371 23.8729C22.2935 23.7579 22.1786 23.5855 21.9488 23.6142C21.719 23.643 21.518 23.4993 21.3169 23.6142C21.3169 23.3844 21.0871 23.3269 20.8861 23.2407C20.6276 23.1545 20.6563 23.528 20.484 23.528C20.3978 23.528 20.2829 23.3556 20.1968 23.3269C19.9383 23.2407 20.3117 22.9821 20.3978 22.8959C20.3978 22.8097 20.1393 22.4361 20.1106 22.4074C19.967 22.2925 19.8808 22.2637 19.7085 22.1775C19.5649 22.1201 19.3925 22.1201 19.2489 22.1201C19.0479 22.0913 18.9617 21.9476 18.8468 21.8327C18.7032 21.689 18.0426 21.4592 18.2437 21.2868C18.0426 21.2293 17.9852 21.3155 17.8415 21.373C17.6692 21.4304 17.6405 21.3155 17.4969 21.3155C17.2097 21.3155 17.1235 21.0569 16.865 21.0569C16.8937 21.1143 16.9224 21.1431 16.9799 21.1718C16.5491 21.0856 16.8076 21.5741 16.6927 21.5741C16.4342 21.5741 16.7214 21.1143 16.7214 21.0569C16.7214 20.9132 16.3193 21.1431 16.2331 21.1718C15.9459 21.258 15.831 21.5741 15.6299 21.7178C15.7448 21.6028 15.4289 21.4879 15.314 21.4879C15.1417 21.4879 14.9406 21.7178 14.797 21.5166C14.7108 21.373 14.5098 21.4017 14.5098 21.2005C14.5098 21.0569 14.5098 20.9132 14.5385 20.7695C14.6247 20.3385 14.2226 20.3672 13.8779 20.396C13.4758 20.4247 13.7343 20.1948 13.7343 19.9075C13.7917 19.9362 13.763 19.9075 13.7917 19.9362C13.8779 19.7926 13.9353 19.5339 13.9641 19.3615C13.763 19.3615 13.5045 19.2466 13.3609 19.4477C13.1886 19.6776 13.2747 19.85 12.9875 19.85C12.9013 19.85 12.6716 19.9937 12.6141 19.9075C12.528 19.8213 12.3844 19.7064 12.2982 19.5914C12.1833 19.4765 12.0971 19.2753 12.0971 19.1029C12.0971 18.8443 12.0397 18.0972 12.3269 17.9823C12.4705 17.9248 12.7577 17.6662 12.9013 17.7524C12.9588 17.7811 13.4471 17.8961 13.5045 17.8673C13.4471 17.8099 13.4471 17.7524 13.5045 17.6662C13.4758 17.6949 13.4471 17.6949 13.4183 17.6662C13.562 17.6087 13.763 17.6949 13.8492 17.6375C13.9641 17.58 14.079 17.6662 14.1651 17.7237C14.3087 17.8099 14.28 17.6662 14.3949 17.6662C14.596 17.6662 14.8545 18.8156 15.0842 18.5857C15.3714 18.2696 14.7683 17.7237 14.9693 17.3789C15.1704 17.0053 15.6299 17.0053 15.8597 16.718C15.7736 16.5743 15.8884 16.6892 15.8023 16.5168C15.9459 16.5168 15.7736 16.1145 15.8023 15.9996L15.8884 16.3157C16.0608 16.3157 16.0033 15.9996 15.9746 15.9421C16.0608 15.9709 16.1182 15.8847 16.2044 15.7697C16.2618 15.6548 16.1757 15.741 16.1757 15.6261C16.1757 15.5686 16.4629 15.5686 16.4916 15.5686C16.4342 15.5399 16.348 15.5686 16.2906 15.5686C16.4629 15.4537 16.8076 15.4537 16.9512 15.3675C16.7214 15.4249 16.8076 15.0801 16.9512 14.9652C17.0948 14.8502 17.4682 14.8502 17.4107 14.6778C17.6118 14.7928 17.7267 14.5629 17.8703 14.5342C17.8415 14.6204 17.8703 14.6491 17.9564 14.6204C17.5256 14.6491 17.6405 15.0801 17.7841 14.9652C17.8703 14.9077 18.4447 14.6491 18.4447 14.5916C18.4447 14.4192 17.7554 14.5342 17.8415 14.0457C17.7841 14.0457 17.7267 14.0457 17.6979 14.0169C17.7554 13.9595 18.1862 13.7296 17.7841 13.7296C17.4969 13.7296 17.3246 13.902 17.0661 13.9307C17.1235 13.7871 17.5543 13.4997 17.7267 13.471C18.0139 13.4422 18.4734 13.6147 18.7319 13.4422C18.9043 13.2986 19.2489 13.2411 19.3638 13.0974C19.4787 12.9538 19.2489 12.7239 19.2489 12.5802C19.1628 12.6377 18.6745 12.8676 18.617 12.7526C18.7032 12.6951 19.3925 12.494 18.9617 12.4653C18.8181 12.4653 18.617 12.3791 18.617 12.2067C18.5596 12.1492 18.416 12.1205 18.3298 12.0343C18.5883 11.8906 18.2437 11.7182 18.1862 11.5745C18.1 11.4021 18.1 11.2584 17.9277 11.1148C17.7841 10.9998 17.6405 11.5458 17.382 11.5458C17.1235 11.5458 17.0373 11.1722 17.0086 10.9998C17.0086 10.9423 16.6065 10.7125 16.5491 10.6837C16.2618 10.4826 16.1469 10.5975 15.8023 10.4826C15.2853 10.3102 15.6587 10.7699 15.4863 10.8849C15.4002 10.9423 15.7448 11.2584 15.3714 11.4021C15.6012 11.7756 15.9746 12.3791 15.2278 12.5227C15.3714 12.5802 15.3714 12.7526 15.4002 12.8963C15.4289 13.0974 15.3427 13.04 15.3427 13.2124C15.1417 13.2124 15.2566 13.3848 15.0268 13.1836C14.797 12.9538 14.8257 12.8388 14.7683 12.5515C14.7108 12.2641 14.3087 12.3791 14.1077 12.2641C13.9066 12.1492 13.7056 12.063 13.5045 11.9768C13.4471 11.948 13.3896 11.9193 13.3322 11.8906C13.1886 11.8331 13.1598 11.9481 13.0162 11.9481C13.0162 11.632 12.9013 11.4596 12.6429 11.517C12.7003 11.3734 12.6429 11.2297 12.6429 11.086C12.6716 10.8849 12.8439 10.7412 12.9301 10.5688C13.045 10.3677 13.1311 10.5113 13.2747 10.3677C13.4471 10.224 13.045 10.1665 12.9875 10.1378C12.9875 10.1378 13.045 10.109 13.0737 10.109C13.1598 10.1378 13.2747 10.1378 13.3609 10.1665C13.5045 10.1952 13.3896 10.0228 13.4758 10.0228C13.6768 9.96537 13.763 9.93664 13.9353 9.79297C13.9353 9.59183 13.5332 9.70676 13.4183 9.50562C13.5907 9.53436 13.7343 9.70676 13.9066 9.62056C13.9641 9.59182 14.1364 9.33321 14.0215 9.33321C14.1364 9.33321 14.1938 9.44815 14.28 9.44815C14.3949 9.44815 14.4811 9.30448 14.4811 9.30448C14.6247 9.30448 14.6534 9.36195 14.797 9.18954C14.9693 9.01714 14.7683 9.01714 14.7396 8.84473C14.7108 8.70106 14.8832 8.72979 14.8832 8.61485C14.8545 8.47118 14.797 8.52865 14.7108 8.44244C14.6247 8.38498 14.1938 8.21257 14.1938 8.44244C14.2226 8.49991 14.2513 8.55738 14.28 8.61485C14.28 8.67232 14.1364 8.67232 14.1077 8.72979C14.0215 8.93093 13.8779 9.27575 13.6768 8.9022C13.5907 8.72979 13.8779 8.70106 13.5907 8.49992C13.4183 8.35624 13.4471 8.72979 13.3035 8.72979C13.3035 8.58612 13.1024 8.49992 13.2173 8.41371C13.1311 8.35624 12.9875 8.41371 12.9013 8.32751C13.1311 8.21257 12.9301 7.95396 12.8152 7.78156C12.5854 7.49421 12.4705 7.78155 12.3269 7.81029C12.2695 7.83902 12.2407 8.24131 12.3269 8.27004C12.4992 8.35624 12.7865 8.35624 12.6141 8.64359C13.0162 8.41371 12.2695 9.16081 12.3269 8.95967C12.4131 8.49991 11.8674 8.93093 11.7812 8.93093C11.4365 8.93093 10.7472 9.01714 10.6036 8.55738C10.46 8.58612 10.2589 8.55738 10.144 8.67232C9.97169 8.81599 10.46 8.72979 10.5174 8.70106C10.5174 8.64359 10.0579 9.13207 10.2589 9.13207C10.0866 9.13207 9.9717 8.9022 9.7132 8.9022C9.56959 8.9022 8.9377 9.04587 8.9377 8.87346C8.9377 8.81599 9.13875 8.84473 9.16748 8.81599C8.9377 8.49991 8.70792 8.72979 8.39198 8.61485C8.21965 8.55738 8.07604 8.44245 7.9037 8.38498C7.70265 8.32751 7.41543 8.55738 7.35798 8.27004C7.2431 8.29877 7.2431 8.44244 7.12821 8.44244C7.01332 8.44244 6.92715 8.27004 6.84099 8.18384C6.75482 8.09763 6.7261 8.2413 6.66865 8.29877C6.61121 8.38498 6.41016 8.27004 6.32399 8.29877C6.26654 8.29877 5.60594 8.47118 5.63466 8.44244C5.63466 8.44244 5.23255 8.67232 5.40488 8.67232C5.08894 8.67232 4.83044 8.47118 4.57194 8.41371C4.57194 9.30448 4.57194 10.1665 4.57194 11.0573C4.57194 10.1952 4.57194 9.33321 4.57194 8.47118C4.57194 8.21257 4.02622 8.32751 3.91133 8.32751C3.62411 8.32751 3.39433 8.18384 3.13584 8.18384C3.02095 8.18384 2.90606 8.18384 2.79117 8.18384C2.705 8.18384 2.64756 8.0689 2.56139 8.0689C2.47523 8.0689 2.38906 8.0689 2.3029 8.0689C2.13056 8.01143 2.13056 8.12637 2.01567 8.09763C2.18801 7.81029 1.49868 8.0689 1.38379 8.09763C1.06784 8.21257 0.751902 8.67232 0.493403 8.67232C0.32107 8.67232 0.0338492 8.81599 0.32107 8.9022C0.493403 8.95967 0.550846 8.9884 0.637013 9.16081C0.751901 9.33321 0.981678 9.27575 1.06784 9.50562C0.924234 9.53436 0.665736 9.56309 0.665736 9.36195C0.464681 9.33322 0.17746 9.53436 0.00512695 9.62056C0.0338491 9.67803 0.0912934 9.7355 0.17746 9.70676C0.148738 9.76423 0.148738 9.79297 0.206182 9.85044C0.32107 9.99411 0.349792 9.93664 0.550847 9.93664C0.751901 9.93664 0.838068 10.0228 1.0104 9.9079C1.12529 9.8217 1.18273 9.87917 1.18273 9.96537C1.15401 9.93664 1.12529 9.93664 1.09657 9.96537C1.15401 10.109 1.2689 10.109 1.09657 10.224C0.952957 10.3102 0.809345 10.3389 0.637013 10.3964C0.493402 10.4251 0.263626 10.5401 0.263626 10.7125C0.263626 10.7987 0.665735 10.9998 0.407236 10.9998C0.493403 11.1148 0.637013 11.201 0.751902 11.2584C0.838068 11.3159 0.981678 11.086 0.981678 11.2584C1.0104 11.2872 0.924234 11.5458 1.03912 11.5458C1.15401 11.5458 1.18273 11.4883 1.21145 11.4021C1.29762 11.4596 1.38379 11.517 1.49868 11.5745C1.5274 11.4596 1.87206 11.4596 2.01567 11.4308C1.87206 11.517 1.87206 11.7182 1.72845 11.8044C1.55612 11.9193 1.35507 11.9768 1.24018 12.1492C1.15401 12.2641 0.952957 12.1779 0.86679 12.3503C0.751902 12.494 0.550847 12.4365 0.464681 12.5802C0.665735 12.6377 1.12529 12.3791 1.32634 12.2929C1.55612 12.2067 1.84334 12.0055 1.98695 11.8044C2.07312 11.6894 2.21673 11.7182 2.3029 11.6032C2.36034 11.517 2.33162 11.4021 2.36034 11.3159C2.4465 11.086 2.705 10.8561 2.9635 10.8849C2.9635 10.9998 2.64756 11.1722 2.64756 11.3734C2.64756 11.4021 3.39433 11.2872 3.25072 10.9998C3.53795 10.8561 3.91133 11.201 4.28472 11.201C4.45705 11.201 4.65811 11.2872 4.83044 11.3446C4.97405 11.4021 5.23255 11.8044 5.34744 11.5458C5.4336 11.632 5.6921 11.6032 5.60594 11.7182C5.4336 11.9481 5.80699 11.8044 5.83571 11.8044C5.6921 12.1779 6.03677 11.9193 6.03677 12.2067C6.03677 12.5515 6.69738 12.4365 6.29527 12.1205C6.52504 12.2929 6.32399 12.4653 6.41016 12.7239C6.43888 12.8388 6.78354 12.9825 6.81226 13.1262C6.86971 13.2698 6.86971 13.4422 7.07076 13.4422C7.09949 13.5859 7.32926 13.4997 7.35798 13.6434C7.41543 13.8445 7.93243 13.7583 7.64521 14.1319C7.58776 14.0169 7.27182 13.9882 7.41543 14.1893C7.58776 14.4479 7.47287 14.5916 7.41543 14.879C7.35798 15.1663 7.35798 16.1145 7.78882 16.172C7.76009 16.4306 7.98987 16.5456 8.01859 16.7754C8.04731 16.9191 8.56431 17.0341 8.6792 17.2352C8.70792 17.2927 9.11003 18.2984 9.22492 18.2409C9.1962 18.2409 9.13875 18.2409 9.11003 18.2409C9.25364 18.442 9.56959 18.3846 9.56959 18.7007C9.56959 18.7869 9.91425 19.1029 9.97169 19.1029C10.0291 19.1029 9.68447 18.4995 9.62703 18.4133C9.51214 18.2696 9.48342 18.0685 9.36853 17.9536C9.25364 17.8386 8.9377 17.6087 9.08131 17.4076C9.16748 17.4651 9.25364 17.4938 9.36853 17.5225C9.39725 17.58 9.42598 17.6662 9.4547 17.7237C9.56959 17.8386 9.62703 18.011 9.74192 18.1547C9.82809 18.0685 10.144 18.6432 10.2015 18.6719C10.3738 18.7581 10.5461 18.9593 10.661 19.1317C10.8046 19.3615 10.7472 19.3903 10.7472 19.5914C10.7472 19.85 11.3216 19.9362 11.494 20.0799C11.6663 20.2523 12.0971 20.2523 12.2982 20.3672C12.4418 20.4535 12.4705 20.281 12.5854 20.281C12.7865 20.281 12.9013 20.4535 13.0162 20.5684C13.1598 20.7121 13.3896 20.7121 13.562 20.7983C13.6481 20.8557 13.7343 20.8557 13.8205 20.7983C13.8779 20.827 13.9353 20.9419 13.9928 20.9994C14.1364 21.1143 14.2226 21.4879 14.28 21.373C14.4236 21.373 15.0555 22.0913 15.1417 21.7752C14.9981 21.7178 15.2853 21.4879 15.3714 21.6028C15.4576 21.7178 15.4289 21.7752 15.5151 21.8902C15.7161 22.0913 15.6012 22.5223 15.4289 22.6373C15.2566 22.7522 15.1704 23.0396 15.0842 23.1832C14.9406 23.4131 14.9981 23.4418 15.1704 23.5568C15.1129 23.7867 14.797 23.8154 14.9693 24.1315C14.9981 24.1889 15.1704 24.4188 15.2278 24.4763C15.4289 24.6487 15.7736 25.2808 15.7736 25.5682C15.7736 25.913 16.6065 26.0567 16.7788 26.2865C17.0086 26.6026 16.8363 27.0336 16.8363 27.3785C16.8363 27.7233 16.6639 28.0393 16.6639 28.3842C16.6639 28.7002 16.6639 29.0738 16.5778 29.3899C16.5203 29.7059 16.2331 29.9071 16.2906 30.2806C16.3193 30.453 16.3193 30.3668 16.2618 30.568C16.2331 30.6255 16.2044 30.9128 16.3193 30.9128C16.3767 30.9128 16.4054 30.8553 16.4629 30.8553C16.4629 31.1714 16.3193 31.5162 16.2618 31.861C16.1757 31.861 16.1182 31.6599 16.0321 31.8036C16.0033 31.861 16.0608 31.976 16.0895 31.976C16.1757 32.1771 15.9746 32.1484 15.9746 32.3208C15.9746 32.4645 16.0321 32.7231 16.0608 32.8667C16.0608 32.9817 16.2331 32.9817 16.2331 33.1253C16.2331 33.2403 16.1182 33.269 16.1182 33.3552C16.1182 33.6426 16.8363 33.6426 16.9512 33.8724C17.0373 34.0736 17.6692 34.0161 17.7841 33.8437C17.3533 33.6426 17.3246 33.4414 17.0661 33.0966C16.9512 32.9529 17.0948 32.7231 17.2384 32.6943C17.382 32.6656 17.3533 32.4357 17.4969 32.3495C17.9564 32.0622 17.1522 31.976 17.4107 31.6599C17.5831 31.4875 17.6692 31.6312 17.7267 31.3726C17.7554 31.2863 17.7841 31.2001 17.8415 31.1427C17.7841 31.1427 17.7841 31.1139 17.7841 31.0565C17.8416 31.0565 18.0139 31.1714 18.0139 31.0277C18.0139 30.9128 17.8703 31.0277 17.8128 30.9703C17.4682 30.4818 18.2149 30.9415 18.2149 30.6829C18.2149 30.022 18.6745 30.5105 19.0192 30.1657C19.1053 30.0795 19.3351 29.8496 19.1628 29.7634C19.134 29.7634 18.9043 29.4186 18.9043 29.4186C18.9043 29.4761 19.651 29.5623 19.7659 29.3611C19.967 29.0738 20.1968 28.8152 20.3404 28.4991C20.5127 28.2692 20.5414 28.2118 20.5701 27.9244C20.5701 27.5509 21.001 27.3785 21.2882 27.2061C21.4605 27.1199 21.6329 27.206 21.8052 27.0911C21.8914 27.0336 21.9201 26.8612 21.9775 26.775C22.1211 26.5452 22.2935 26.1429 22.2935 25.8555C22.2935 25.6544 22.1786 25.482 22.3796 25.3383C22.4945 25.2521 22.552 25.1084 22.6381 25.0222C22.8105 24.8498 23.2987 24.1315 22.8392 24.0165C22.9828 24.0453 22.753 23.9878 22.8392 24.0165ZM17.2384 14.1606C17.2384 14.1893 17.2671 14.2181 17.2671 14.2181C17.2671 14.2468 17.1809 14.0744 17.2384 14.1606ZM16.7501 14.5629C16.8363 14.4767 16.6639 14.6491 16.7501 14.5629ZM16.0608 14.6491C16.1182 14.6204 15.6299 15.0801 15.9746 14.7066C16.0033 14.7066 16.0321 14.6778 16.0608 14.6491ZM15.2278 15.0226C15.3714 14.9939 15.7161 14.9652 15.8023 14.9077C15.6587 15.0226 15.6874 15.1088 15.4576 15.1088C15.4002 15.1088 15.1417 15.0514 15.1704 15.1376C15.1417 15.0514 15.1417 15.0514 15.2278 15.0226C15.3427 14.9652 15.1991 15.0226 15.2278 15.0226ZM15.1991 15.2238C15.2278 15.2525 15.1991 15.2525 15.113 15.2812C15.1417 15.2525 15.1704 15.2525 15.1991 15.2238ZM15.113 15.2812C14.9981 15.3387 14.5672 15.5973 14.5672 15.2812C14.6247 15.3675 14.6821 15.3675 14.7396 15.2812C14.8545 15.195 15.0268 15.3387 15.113 15.2812C15.0842 15.2812 14.9693 15.3387 15.113 15.2812ZM12.6716 13.902C12.9013 13.902 12.9875 13.9595 13.1886 14.0169C13.3322 14.0457 13.5045 14.0457 13.6481 13.9882C13.7917 13.902 13.7056 13.8158 13.8779 13.9882C13.8779 13.9595 13.8779 13.9307 13.8779 13.902C14.2226 13.9595 14.1938 14.3617 14.5098 14.4479C14.596 14.4767 14.8545 14.5054 14.9119 14.5342C15.1417 14.6778 15.0555 14.9364 14.8545 14.7066C14.8257 14.7928 14.797 15.1088 14.6821 15.1088C14.6247 15.0514 14.596 14.9939 14.596 14.9077C14.5672 14.9364 14.5098 14.9364 14.4811 14.9364C14.596 14.3617 13.9928 14.5054 13.9928 14.9652C13.9928 15.0514 14.0502 15.4249 13.8779 15.4249C13.5907 15.4249 13.7917 14.8215 13.8779 14.7066C13.8205 14.7353 13.763 14.764 13.7343 14.7928C13.763 14.5054 14.4236 14.5054 14.3949 14.4192C14.1651 14.4192 13.8492 14.3905 13.6481 14.333C13.6768 14.2755 13.7056 14.2468 13.7056 14.1893C13.562 14.2181 13.4183 14.3905 13.2747 14.3905C13.1886 14.3905 13.1024 14.333 12.9875 14.3617C13.1024 14.1893 13.3035 14.1319 13.4758 14.0169C13.246 14.0169 12.7003 13.9595 12.5567 13.7871C12.5854 13.8158 12.6141 13.8445 12.6716 13.902ZM5.20383 11.4021C5.14638 11.3734 5.11766 11.3446 5.06022 11.3446C5.23255 11.4883 5.23255 11.4021 5.31872 11.2872C5.28999 11.3446 5.26127 11.3734 5.20383 11.4021ZM5.49105 11.2297C5.60594 11.3159 5.6921 11.4308 5.77827 11.5458C5.6921 11.4308 5.57721 11.3159 5.49105 11.2297ZM5.97932 11.8044C5.9506 11.7756 5.9506 11.7469 5.89316 11.7182C5.97932 11.8044 6.00805 12.0055 6.12293 12.063C6.06549 12.0055 6.00805 11.8906 5.97932 11.8044C6.00805 11.8618 5.97932 11.7469 5.97932 11.8044ZM6.15166 12.0343C6.18038 12.0343 6.2091 12.0343 6.23782 12.063C6.2091 12.063 6.18038 12.063 6.15166 12.0343ZM9.05259 17.2065C9.28237 17.2639 9.48342 17.3501 9.7132 17.4076C9.48342 17.3501 9.28237 17.2927 9.05259 17.2065ZM11.2642 17.7237C11.4365 17.7237 11.5227 17.8386 11.6089 17.9823C11.5227 17.8386 11.4078 17.7237 11.2642 17.7237Z" fill="#176C93"/>
</g>
<path d="M5.97858 12.6C6.07779 12.6 5.79999 11.9109 5.79999 12.3416C5.93889 12.2268 5.83967 12.6 5.97858 12.6Z" fill="#90C6DE"/>
<path d="M5.56693 11.9224C5.39049 11.9918 5.47871 11.6447 5.47871 11.61C5.39049 11.6447 5.30227 11.5753 5.21405 11.61C5.12583 11.6447 5.47871 12.1306 5.56693 12.2C5.61104 12.0959 5.61104 12.0265 5.56693 11.9224Z" fill="#90C6DE"/>
<path d="M11.3671 8.2817C11.4545 8.30902 11.5418 8.2817 11.6 8.22707C11.3089 8.00856 11.076 8.06319 10.9304 7.7081C10.843 7.5169 10.7266 7.38032 10.9013 7.21644C11.076 6.99792 10.5228 6.91597 10.5228 7.10717C10.5228 7.21643 10.4354 7.16181 10.3481 7.16181C10.1443 7.16181 10.2899 7.46227 10.3481 7.54421C10.4354 7.73541 10.2316 7.68078 10.2316 7.54421C10.2025 7.38032 10.057 7.27107 9.88226 7.29838C9.94049 7.48958 9.76581 7.46227 9.67846 7.35301C9.53289 7.18912 9.38732 7.29838 9.27086 7.38032C9.18351 7.27106 9.27086 7.1618 9.06706 7.18912C8.92148 7.21643 8.7468 7.27106 8.63034 7.35301C8.19362 7.59884 8.45565 7.70809 8.77591 7.79004C8.71768 7.84467 8.54299 7.79004 8.54299 7.8993C8.54299 8.06319 8.83414 8.00856 8.92148 8.00856C9.12528 8.00856 9.32909 7.98124 9.50377 8.06318C9.24174 8.0905 8.92148 8.03587 8.68857 8.19976C8.86325 8.50022 9.24174 8.2817 9.3582 8.55485C9.38732 8.63679 9.88226 8.58216 9.96961 8.58216C10.2899 8.36365 10.6101 8.39096 10.9304 8.50022C11.0468 8.55485 11.3671 8.58216 11.4253 8.41827C11.3962 8.44559 11.1633 8.2817 11.3671 8.2817Z" fill="#176C93"/>
<path d="M7.32512 7.82907C7.48669 8.0906 7.68059 8.00342 7.93911 7.88719C8.10069 7.82907 8.06837 7.71284 8.19763 7.5966C8.35921 7.42225 8.55311 7.36414 8.77931 7.30602C9.32868 7.18979 8.71468 6.89921 8.42384 6.95732C8.29458 6.98638 8.06837 6.84109 7.93911 6.81203C7.80985 6.78297 7.35743 6.81203 7.26049 6.84109C7.2928 7.13167 7.38975 7.13167 7.13122 7.42226C6.80807 7.82907 7.16354 7.62566 7.32512 7.82907C7.35743 7.85813 7.26048 7.7419 7.32512 7.82907Z" fill="#176C93"/>
<path d="M8.98728 6.25562C8.92857 6.25562 8.75245 6.32035 8.89922 6.35271C8.7818 6.32035 8.66439 6.41744 8.84051 6.48217C8.7231 6.44981 8.51762 6.57927 8.63503 6.70872C8.84051 6.93527 9.1047 6.67636 9.25146 6.644C9.28082 6.70872 9.31017 6.77345 9.36888 6.80582C9.1634 6.80582 9.1634 7 9.36888 7C9.545 7 9.72113 6.90291 9.89725 6.87054C10.0734 6.83818 10.5724 6.83818 10.6604 6.74109C10.7485 6.644 10.9246 6.28799 10.6604 6.28799C10.5137 6.28799 10.2495 6.44981 10.2495 6.12616C10.2495 5.86725 9.89725 6.06144 9.89725 6.22326C9.89725 6.44981 10.1027 6.22326 9.98531 6.44981C10.0734 6.48217 10.1908 6.5469 9.98531 6.5469C9.77983 6.5469 9.66242 6.38508 9.51565 6.32035C9.36888 6.25562 9.13405 6.15853 8.95793 6.19089C8.95793 6.19089 8.95793 6.22326 8.98728 6.25562ZM9.1634 6.38508C9.13405 6.38508 9.10469 6.38508 9.07534 6.38508C9.07534 6.38508 9.13405 6.38508 9.1634 6.38508Z" fill="#176C93"/>
<path d="M8.20001 6.5287C8.20001 6.70889 8.56001 6.50296 8.60001 6.39999C8.48001 6.39999 8.20001 6.42573 8.20001 6.5287Z" fill="#176C93"/>
<path d="M9.07906 6.2C9.31623 6.07753 9.15811 5.95505 9 6.01629C9.02635 6.13876 9.05271 6.2 9.07906 6.2Z" fill="#176C93"/>
<path d="M7.74001 6.31633C7.85726 6.31633 7.94519 6.4 8.03312 6.4C8.12105 6.4 8.35553 6.14901 8.38484 6.09323C8.5314 6.1769 8.61933 6.37211 8.79519 6.06534C8.79519 5.87013 8.85381 5.75858 8.56071 5.81435C8.29691 5.87013 8.23829 5.9259 8.03312 6.03745C7.85726 6.12112 7.35898 6.31633 7.74001 6.31633Z" fill="#176C93"/>
<path d="M9.50001 5.59999C9.66668 5.59999 9.83335 5.59999 10 5.54097C9.93335 5.3049 9.20001 5.39343 9.20001 5.59999C9.30001 5.59999 9.36668 5.59999 9.50001 5.59999Z" fill="#176C93"/>
<path d="M9.84763 5.6C9.69525 5.6 9.20001 5.6 9.20001 5.69502C9.20001 5.84707 9.92382 5.82806 9.88573 5.67602C9.80954 5.67602 9.73335 5.67602 9.65716 5.67602C9.77144 5.67602 9.88573 5.65702 10 5.619C9.96192 5.619 9.92382 5.6 9.84763 5.6Z" fill="#176C93"/>
<path d="M9.11147 5.8C9.14098 5.8 9.17049 5.75277 9.2 5.65831C8.9344 5.46938 8.96391 5.8 9.11147 5.8Z" fill="#176C93"/>
<path d="M12.0402 7.39792C12.0402 7.23308 11.986 7.28803 11.8505 7.3155C12.3384 6.68361 11.3626 7.20561 11.3626 7.15066C11.3626 7.26056 11.5524 7.15066 11.5524 7.34297C11.5524 7.45287 11.2813 7.3155 11.2 7.3155C11.2 7.45287 11.8234 7.89244 11.8776 7.78255C11.9589 7.70013 12.4468 7.50781 12.0402 7.39792C12.0673 7.39792 12.0402 7.34297 12.0402 7.39792Z" fill="#176C93"/>
<path d="M10.8743 6.07902C10.8495 6.07902 10.8248 6.07902 10.8 6.07902C10.8 6.22883 10.8495 6.37865 10.9486 6.45355C11.122 6.60337 11.3945 6.34119 11.5431 6.49101C11.4936 6.56592 11.3697 6.60337 11.3697 6.75318C11.3697 6.82809 11.5183 6.79064 11.5431 6.79064C11.7908 6.79064 11.7165 6.71573 11.7908 6.4161C11.8651 6.04157 11.4688 5.92921 11.2706 6.04157C11.3202 6.26629 11.4688 6.04156 11.444 6.34119C11.3202 6.34119 11.2706 6.15392 11.1468 6.15392C11.2211 6.30374 10.9734 6.11647 11.2459 6.37865C11.0972 6.49101 11.0477 6.07902 10.8743 6.07902Z" fill="#176C93"/>
<path d="M11.889 8.58883C11.8534 8.58883 11.8356 8.58883 11.8 8.61932C11.8 8.7108 12.1204 8.86326 12.1738 8.77179C12.245 8.64981 12.156 8.55834 12.0848 8.46686C11.9424 8.2839 11.9958 8.52785 11.889 8.58883C11.9424 8.58883 11.8712 8.61932 11.889 8.58883Z" fill="#176C93"/>
<path d="M12.5555 7C12.5555 7 12.2654 7.09527 12.3621 7.11909C12.0398 7.09527 12.2976 7.45253 12.2976 7.59544C12.4588 7.61925 12.5555 7.5478 12.5877 7.42871C12.5555 7.42871 12.5232 7.42871 12.491 7.42871C12.5232 7.33345 12.5877 7.4049 12.6844 7.4049C12.8777 7.4049 12.9744 7.30963 13.0711 7.21436C13.1356 7.14291 13.1678 7.16672 13.2 7.07145C13.0066 7.04764 12.7811 7 12.5555 7Z" fill="#176C93"/>
<path d="M10.88 6C10.96 6 11 5.95555 11 5.86666C10.84 5.82222 10.8 5.6 10.6 5.6C10.6 5.77778 10.76 6 10.88 6Z" fill="#176C93"/>
<path d="M10.8 6.8C11.2185 6.71077 10.8598 6.39845 10.8 6.8C10.8598 6.8 10.8299 6.62153 10.8 6.8Z" fill="#176C93"/>
<path d="M10.6978 5.15463C10.6978 5.18721 10.6669 5.1872 10.6669 5.21978C10.7288 5.25235 10.8216 5.25235 10.8835 5.21978C10.8216 5.31749 10.7907 5.28492 10.6978 5.38264C10.7907 5.48036 11.2549 5.48036 11.4097 5.48036C11.5644 5.48036 12.0596 5.80608 11.6263 5.38264C11.6882 5.28492 11.5335 5.08949 11.4406 5.18721C11.3478 5.28493 11.3168 5.05691 11.193 5.05691C11.0383 5.05691 11.0692 5.12206 10.9145 5.02435C10.7288 4.92663 10.4502 5.15463 10.6978 5.15463C10.6978 5.18721 10.605 5.15463 10.6978 5.15463Z" fill="#176C93"/>
<path d="M11.275 5.6C11.25 5.6 11.225 5.67528 11.2 5.75056C11.2 5.82583 11.375 5.82583 11.4 5.67528C11.35 5.6 11.3 5.6 11.275 5.6Z" fill="#176C93"/>
<path d="M13.4295 6.88307C13.6737 6.97559 13.9179 6.97559 14.2537 6.97559C14.4063 6.97559 14.4368 6.85224 14.559 6.94475C14.7116 7.0681 15.1695 6.97559 15.2 6.75973C15.1695 6.75973 15.1389 6.75973 15.1084 6.75973C15.1084 6.69805 15.1389 6.69805 15.2 6.69805C15.0168 6.35884 14.4674 6.54387 14.2232 6.63638C14.0705 6.69805 13.2463 6.66721 13.3684 6.54387C13.2769 6.45135 13.1242 6.5747 13.0632 6.38968C13.1548 6.38968 13.2463 6.35884 13.3074 6.38968C13.1853 6.20465 12.9105 6.23549 12.7579 6.23549C12.6053 6.23549 12.4832 6.08131 12.3305 6.01963C12.1779 5.95796 11.8421 6.05047 12.0863 6.17382C12.1779 6.23549 12.3305 6.328 12.4527 6.328C12.5442 6.23549 12.6358 6.23549 12.6663 6.35884C12.7274 6.45135 12.7579 6.51303 12.8495 6.5747C12.6358 6.72889 13.1853 7.19145 13.4295 6.88307Z" fill="#176C93"/>
<path d="M12.6 6.70023C12.6 6.52876 12.2 6.6067 12.2 6.71582C12.3111 6.76259 12.6 6.88729 12.6 6.70023Z" fill="#176C93"/>
<path d="M12.6 5.70986C12.6 5.67324 12.6 5.63662 12.6 5.6C12.4824 5.63662 12.3177 5.52676 12.2 5.70986C12.2471 5.74648 12.6 5.89295 12.6 5.70986Z" fill="#176C93"/>
<path d="M11.976 5.51633C11.9428 5.51633 11.9096 5.55066 11.9096 5.58498C11.9096 5.6193 12.7731 5.61931 12.2085 5.31039C11.8763 5.13877 11.6106 5.13877 11.976 5.51633Z" fill="#176C93"/>
<path d="M12.5031 4.81842C12.4122 4.81842 12.3213 4.75658 12.2 4.75658C12.2303 4.97303 12.4122 4.97302 12.5638 4.97302C12.5335 5.03487 12.3819 5.03487 12.4122 5.09671C12.4728 5.18948 12.5334 5.03487 12.6244 5.12763C12.6547 5.15855 13.0488 5.12763 13.1397 5.15855C13.0185 5.18947 12.8972 5.15855 12.7456 5.18947C12.4728 5.25131 12.8063 5.43684 12.9275 5.43684C12.7456 5.62237 13.2609 5.68421 13.2609 5.43684C13.3216 5.49868 13.4125 5.52961 13.5034 5.56053C13.5641 5.52961 13.5035 5.52961 13.6247 5.46776C13.5641 5.34408 13.4731 5.375 13.6247 5.25132C13.7156 5.52961 13.9278 5.18947 14.1097 5.15855C14.4431 5.12763 13.746 4.84934 13.746 4.94211C13.746 4.81842 13.7763 4.6329 13.5641 4.6329C13.655 4.91119 13.5034 4.63289 13.4125 4.57105C13.2003 4.47829 13.17 4.60197 13.0488 4.3546C12.9578 4.2 12.685 4.2 12.5638 4.2C12.5941 4.29276 12.6547 4.32368 12.7456 4.32368C12.6244 4.29276 12.5031 4.32368 12.3819 4.38553C12.3819 4.54013 12.5638 4.44737 12.6547 4.47829C12.5334 4.60197 11.9575 4.50921 12.5335 4.69474C12.5335 4.7875 12.5031 4.7875 12.5031 4.81842Z" fill="#176C93"/>
<path d="M14.7209 9.9037C14.6372 9.84444 14.3302 9.42963 14.2186 9.57777C14.1907 9.51851 14.1628 9.45925 14.1349 9.39999C13.9674 9.42962 13.9395 9.63703 13.9395 9.78518C13.9116 9.84444 13.8 10.0222 13.8 10.0815C13.8837 10.0518 13.9674 10.0518 14.0512 10.0815C14.0232 10.1407 14.0232 10.2 14.0791 10.2C14.1907 10.2 14.4139 10.0518 14.4139 9.9037C14.6372 9.99259 14.7209 10.1704 15 9.99259C14.8884 9.96296 14.8046 9.93333 14.7209 9.9037C14.8046 9.96296 14.693 9.87407 14.7209 9.9037Z" fill="#176C93"/>
<path d="M16 9.02378C16 8.79362 15.7278 8.7169 15.637 8.9087C15.4555 9.25394 16 9.2923 16 9.02378Z" fill="#176C93"/>
<path d="M14.5818 10.4C14.5455 10.475 14.4 10.5 14.4 10.6C14.5455 10.6 14.6909 10.5 14.8 10.425C14.7273 10.4 14.6546 10.4 14.5818 10.4C14.7273 10.4 14.5455 10.425 14.5818 10.4Z" fill="#176C93"/>
<path d="M15.1914 7.4C15.3693 7.4 15.5116 7.36858 15.6895 7.36858C16.0453 7.36858 15.4404 7.05436 15.2981 7.05436C15.1914 7.05436 14.8 6.89725 14.8 7.11721C14.8356 7.24289 15.0846 7.4 15.1914 7.4Z" fill="#176C93"/>
<path d="M15.0939 10.8C15.1805 10.8 15.2672 10.636 15.1228 10.6032C14.9495 10.5704 14.9783 10.8 15.0939 10.8Z" fill="#176C93"/>
<path d="M16.2 8.95222C16.1714 8.90446 16 8.66562 16 8.90446C16 9.04777 16.1714 8.99999 16.2 8.95222Z" fill="#176C93"/>
<path d="M15.4 8.39999C15.2917 8.39999 15.1472 8.59999 15.2195 8.59999C15.2917 8.59999 15.3639 8.47999 15.4 8.39999Z" fill="#176C93"/>
<path d="M16.6998 7.87266C16.7292 7.72882 16.4645 7.75759 16.3762 7.75759C16.1409 7.75759 16.1115 7.5562 15.935 7.44113C15.6114 7.21097 15.2584 7.49866 14.9642 7.49866C14.9642 7.49866 14.9348 7.03836 14.7289 7.03836C14.5524 7.03836 14.0523 7.06713 14.0523 7.35482C14.0523 7.46989 14.17 7.49866 14.0523 7.58497C13.964 7.67128 13.9052 7.61374 13.9052 7.52743C13.7287 7.29728 14.0523 7.21097 14.1111 7.03836C13.9052 7.03836 13.8464 6.95205 13.611 7.03836C13.4051 7.15344 13.4051 7.26851 13.2874 7.44113C12.9639 7.81513 13.6405 7.81513 13.6699 7.95897C13.5816 7.9302 13.4934 7.9302 13.3757 7.9302C13.4051 8.18912 13.7581 8.10282 13.9052 8.18913C14.1405 8.36174 14.67 8.21789 14.9642 8.21789C14.9054 8.56312 15.229 8.13159 15.3172 8.13159C15.4643 8.13159 15.6996 8.36174 15.7879 8.47682C15.6114 8.50559 15.6114 8.70697 15.7879 8.59189C15.935 8.50559 16.1409 8.6782 16.2586 8.76451C16.6704 9.13851 15.9056 9.33989 16.1997 9.51251C16.0526 9.59881 15.4055 9.54128 15.4055 9.77143C15.4055 10.0591 15.7879 9.85774 15.8467 9.85774C16.0526 9.85774 16.1115 9.82897 16.3174 9.97282C16.641 10.203 16.8175 10.3756 17.2882 10.4907C17.347 10.4907 17.5823 10.692 17.5823 10.5482C17.5823 10.3468 17.2293 10.2605 17.1411 10.1167C17.347 10.1167 17.5529 10.2893 17.7294 10.3468C18.0236 10.4331 17.7883 9.97282 17.7883 9.85774C17.5235 9.8002 17.1705 9.57005 17.3764 9.39743C17.347 9.4262 17.2882 9.39743 17.2587 9.39743C17.3764 9.39743 17.347 9.28236 17.4941 9.33989C17.6412 9.39743 17.7 9.54128 17.7883 9.65635C17.9059 9.77143 18.0824 9.77143 18.0824 9.57005C18.2001 9.57005 18.2295 9.51251 18.2295 9.4262C18.6413 9.4262 18.2001 9.0522 18.0236 9.10974C17.8177 9.16728 17.8177 8.93712 17.6412 8.87959C17.4941 8.82205 17.4353 8.70697 17.2882 8.64943C17.347 8.59189 17.4058 8.53435 17.4941 8.50559C17.4647 8.41928 17.2882 8.44805 17.1999 8.44805C17.2587 8.39051 17.347 8.36174 17.4058 8.36174C17.3176 8.18912 17.2293 8.27543 17.1117 8.21789C17.1117 8.18912 17.1117 8.16036 17.1117 8.10282C16.994 8.04528 16.8469 7.9302 16.6998 7.87266C16.8763 7.9302 16.7292 7.78636 16.6998 7.87266Z" fill="#176C93"/>
<path d="M13.1023 4.2129C13.1628 4.2129 13.2233 4.2129 13.2837 4.2129C13.2233 4.242 13.1628 4.2711 13.1023 4.32929C13.2837 4.41659 13.4047 4.242 13.6163 4.2711C13.4651 4.3002 13.2837 4.30019 13.2233 4.47479C13.314 4.47479 13.4349 4.47479 13.5256 4.47479C13.4651 4.47479 13.4047 4.50389 13.3442 4.53299C13.4651 4.67848 13.707 4.70758 13.8279 4.59119C13.9489 4.59119 13.9791 4.70758 14.1605 4.70758C14.4629 4.70758 14.7954 4.62028 15.0978 4.56209C14.9466 4.73668 14.735 4.73668 14.4931 4.73668C14.2815 4.73668 14.614 4.96947 14.6443 4.99857C14.3722 5.02767 14.1908 4.62028 13.7977 4.76578C13.7977 4.82398 13.8279 4.85308 13.8884 4.85308C13.5558 4.85308 13.8884 4.99857 13.9791 5.02767C14.3722 5.17317 13.9791 5.31866 13.7977 5.37686C13.6163 5.43506 13.5256 5.75515 13.7372 5.63875C13.8582 5.55145 14.0698 5.84244 14.1605 5.92974C13.9791 5.92974 13.1326 5.60965 13.707 6.01704C13.5861 6.10434 13.4349 6.04614 13.3442 6.10434C13.2837 6.13344 13.193 6.30803 13.314 6.30803C13.6163 6.30803 14.0093 6.30803 14.3722 6.30803C14.5838 6.30803 14.7954 6.42443 14.9768 6.39533C15.2489 6.33713 15.5513 6.04614 15.128 6.13343C15.128 5.90064 15.4303 6.01704 15.3396 5.75515C15.4303 5.75515 15.521 5.75515 15.6117 5.75515C15.7327 5.75515 15.8234 5.52236 15.9443 5.46416C15.9141 5.37686 15.8536 5.34776 15.7629 5.31866C15.8536 5.31866 15.9746 5.34776 15.9443 5.20227C15.8839 5.20227 15.8234 5.20227 15.7629 5.20227C16.0653 4.96947 16.4281 5.14407 16.7304 4.85308C17.0327 4.53299 17.5467 4.59119 17.8491 4.3002C17.7281 4.3002 17.456 4.35839 17.3653 4.2711C17.6374 4.1256 18.0305 4.2129 18.2723 4.0383C18.5444 3.86371 18.3328 3.89281 18.0909 3.83461C17.97 3.80551 17.9095 3.60182 17.7584 3.66001C17.6072 3.71821 17.4258 3.74731 17.2746 3.80551C17.3351 3.80551 17.3653 3.77641 17.3955 3.74731C17.2141 3.57272 16.4583 3.60182 16.1862 3.60182C16.035 3.60182 16.035 3.77641 15.8536 3.66001C15.7327 3.60182 15.7024 3.66001 15.5815 3.66001C15.3699 3.66001 15.1582 3.66001 14.9466 3.66001C14.7954 3.66001 14.7954 3.74731 14.6443 3.74731C14.5233 3.74731 14.4326 3.80551 14.3722 3.92191C14.2815 4.0965 14.1907 3.95101 14.0093 3.92191C13.7977 3.86371 13.707 4.0965 13.5256 4.0965C13.3442 4.0965 12.8605 4.0965 12.8 4.32929C12.9512 4.2711 13.0116 4.242 13.1023 4.2129Z" fill="#176C93"/>
<path d="M25.2788 8.22617C25.1634 8.19752 24.615 8.22617 24.615 8.02563C24.817 7.99698 24.7016 7.91104 24.7016 7.79644C24.7882 7.85374 24.8747 7.7678 24.9613 7.88239C25.0479 7.99698 25.1056 8.11158 25.2788 8.11158C25.7983 8.11158 25.0191 7.53861 24.9325 7.45267C24.9902 7.48131 24.7304 7.30942 24.817 7.28077C24.9613 7.28077 25.0191 7.45267 25.1345 7.53861C25.2788 7.59591 25.3942 7.42402 25.2788 7.30942C25.1922 7.22348 25.0191 7.25213 24.9613 7.10889C25.1056 7.10889 25.1634 7.28078 25.2788 7.19483C25.5097 7.08024 25.5097 7.13753 25.5097 6.937C25.6251 6.937 25.7406 6.8797 25.7983 6.76511C25.654 6.70781 25.3942 6.56457 25.7406 6.56457C25.7117 6.53592 25.7117 6.33538 25.6829 6.27809C25.654 6.24944 25.3077 5.96296 25.5963 5.96296C25.6829 5.96296 26.0292 6.02026 26.0292 5.87701C26.0292 5.67648 25.6251 5.79107 25.8849 5.61918C25.7406 5.50459 25.5963 5.56188 25.452 5.50459C25.5097 5.41864 25.4808 5.30405 25.5674 5.24675C25.6829 5.16081 25.7983 5.13216 25.8272 4.96027C25.8272 4.84568 26.2024 4.84568 26.0869 4.67379C26.2024 4.64514 26.3755 4.64514 26.3755 4.47325C26.3467 4.5019 26.2889 4.5019 26.2601 4.47325C26.3755 4.47325 27.1259 4.18677 26.9816 4.04353C26.7219 3.81434 26.5487 3.95758 26.2889 3.95758C26.1446 3.95758 26.0869 4.10082 25.9426 4.07218C25.8272 4.04353 25.7117 4.07218 25.5674 4.07218C25.2788 4.07218 25.1922 4.5019 24.9036 4.58784C24.9613 4.41596 25.3077 4.24407 25.3077 4.07218C25.3077 3.58516 24.5861 4.24407 24.4418 4.24407C24.4418 4.24407 24.6727 3.98623 24.6727 3.92893C24.3264 3.81434 23.7203 4.15812 23.4317 3.92893C23.6914 3.92893 25.3365 3.98623 25.3943 3.61381C25.1634 3.55651 24.9613 3.6138 24.7304 3.49921C24.4707 3.38462 24.2398 3.21273 23.9512 3.21273C23.6914 3.18408 23.4028 3.21273 23.1431 3.21273C22.7679 3.21273 22.3638 3.32732 21.9886 3.38462C21.9886 3.41327 21.9886 3.44192 21.9886 3.47057C21.902 3.47057 21.8443 3.44192 21.7289 3.44192C21.4691 3.41327 21.1805 3.44191 20.9496 3.55651C20.9785 3.58516 21.0362 3.6138 21.0651 3.64245C20.6899 3.7284 20.8919 3.81434 21.1805 3.95758C20.9496 3.95758 20.0838 3.52786 20.2569 3.95758C20.1415 3.95758 19.9395 3.92894 19.8817 3.81434C19.8529 3.95758 19.8529 3.75704 19.8529 3.98623C19.7374 3.98623 19.7086 3.81434 19.5931 3.81434C19.3911 3.81434 19.1891 3.92894 18.987 3.95758C18.8427 3.98623 18.6984 4.01488 18.583 4.04353C18.4387 4.07218 18.4964 4.24407 18.4387 4.33001C18.3521 4.41596 18.2367 4.30136 18.0923 4.38731C17.948 4.5019 17.746 4.58784 17.5728 4.64514C17.1976 4.73108 17.8326 4.84568 17.9192 4.84568C17.9192 5.30405 17.5151 5.10351 17.2265 5.2181C17.1399 5.24675 16.4761 5.44729 16.6204 5.56188C16.7359 5.67647 17.0533 5.79107 17.1976 5.79107C17.3997 5.79107 17.5151 5.67648 17.7171 5.73377C17.6306 6.02026 16.8802 5.73377 16.8513 6.04891C16.9956 6.1062 17.1399 6.1062 17.3131 6.1635C17.2842 6.22079 17.2554 6.24944 17.1976 6.24944C17.2554 6.33539 17.7749 6.47863 17.6017 6.33539C17.746 6.27809 17.8615 6.42133 18.0058 6.30674C18.1501 6.22079 18.4675 6.27809 18.6119 6.30674C19.0159 6.42133 19.5643 6.90835 19.5643 7.36672C19.5643 7.50996 19.824 7.45267 19.622 7.68185C19.3622 7.96833 19.9683 7.79644 19.9972 7.79644C20.0838 7.85374 20.3435 8.11157 20.3147 8.16887C20.2858 8.28346 19.9106 8.05428 19.7952 8.11158C19.824 8.31211 20.3147 8.31211 20.459 8.36941C20.4301 8.45535 20.3724 8.5413 20.3147 8.62724C20.1992 8.88508 20.2858 8.68454 20.0838 8.79913C19.9683 8.91372 19.7952 9.11426 19.8529 9.28615C19.8817 9.2575 19.9395 9.2575 19.9683 9.28615C19.9106 9.48669 19.9106 9.54398 20.0549 9.71587C20.1126 9.80182 20.0838 9.91641 20.1704 10.0024C20.2569 10.0597 20.3147 9.91641 20.4012 10.031C20.1415 10.2888 20.661 10.7186 20.863 10.8905C21.0362 11.0337 21.1805 10.8045 21.3248 11.091C21.3825 11.1769 21.6711 11.2342 21.7289 11.1769C21.8443 11.0337 21.8732 10.7759 21.8732 10.604C21.8732 10.3461 22.1618 10.3748 22.1618 10.1742C22.1618 10.0597 22.0175 9.85912 22.2195 9.77317C22.3061 9.71588 22.4215 9.71588 22.5081 9.68723C22.6236 9.62993 22.5947 9.51534 22.7102 9.48669C22.6813 9.71588 22.9988 9.54399 23.1431 9.48669C23.3451 9.40075 23.4605 9.08561 23.6626 8.94237C23.8069 8.85643 24.1821 8.82778 24.3552 8.79913C24.5861 8.65589 25.0191 8.4267 25.2788 8.22617C25.1922 8.31211 25.1345 8.19752 25.2788 8.22617Z" fill="#90C6DE"/>
<path d="M19.4965 8.39852C19.5899 8.39852 19.8 8.41657 19.8 8.32633C19.6833 8.30828 19.6366 8.2 19.4965 8.2C19.3564 8.2 19.3798 8.39852 19.4965 8.39852Z" fill="#90C6DE"/>
<path d="M19.3422 13.2388C19.3422 13.0038 18.8845 13.9104 18.8306 13.9775C18.8575 14.0447 18.7498 14.2462 18.8306 14.2462C19.046 14.2462 19.2345 14.2462 19.4499 14.2462C19.423 14.2797 19.3961 14.3133 19.3961 14.3469C19.3961 14.4476 19.6115 14.1119 19.5846 14.1454C19.7461 14.3469 19.8 14.6155 19.8 14.1119C19.6384 14.2462 19.7461 14.0111 19.7461 13.944C19.6384 13.944 19.6923 13.8768 19.6923 13.7425C19.6115 13.8096 19.423 13.7425 19.3422 13.7425C19.3422 13.7089 19.3692 13.6753 19.3692 13.6418C19.2884 13.541 19.2614 13.6418 19.1807 13.6753C19.2076 13.5074 19.3422 13.4067 19.3422 13.2388Z" fill="#90C6DE"/>
<path d="M7.0857 13.8193C7.22856 13.887 7.39999 14 7.59999 14C7.54285 13.8419 6.99999 13.5256 6.79999 13.6159C6.82856 13.6159 6.8857 13.6385 6.91427 13.6385C6.85713 13.7515 6.97142 13.7967 7.17142 13.7967C7.11427 13.7741 7.0857 13.7967 7.0857 13.8193C7.17142 13.8644 7.0857 13.7741 7.0857 13.8193Z" fill="#90C6DE"/>
<path d="M5.99999 13.04C5.97499 12.9867 5.94999 12.9067 5.97499 12.8533C5.97499 12.88 5.94999 12.9067 5.89999 12.9333C5.89999 12.9067 5.89999 12.88 5.92499 12.8533C5.87499 12.8267 5.84999 12.8267 5.79999 12.8C5.79999 12.8533 5.97499 13.2 5.99999 13.2V13.04Z" fill="#90C6DE"/>
<path d="M2.20001 11.8901C2.26125 12.1133 2.41434 11.9397 2.59805 11.8653C2.62867 11.7164 2.29187 11.8653 2.20001 11.8901Z" fill="#90C6DE"/>
<path d="M18.4 13.7525C18.2 13.6645 18.04 13.5764 17.8 13.6058C17.88 13.6645 18.28 13.8993 18.4 13.7525C18.36 13.7819 18.2 13.6938 18.4 13.7525Z" fill="#90C6DE"/>
<path d="M18.0051 14.4C17.9697 14.4307 18.1646 14.7683 18.2 14.4921C18.1291 14.5228 18.0228 14.5228 18.0051 14.4C18.0228 14.4614 17.9874 14.4 18.0051 14.4Z" fill="#90C6DE"/>
<path d="M18.6 14.5463C18.6 14.5463 18.5551 14.5254 18.5326 14.5045C18.5326 14.5045 18.5326 14.4 18.5101 14.4C18.2178 14.5045 18.6 14.6927 18.6 14.5463Z" fill="#90C6DE"/>
</g>
</svg>
