<svg width="24" height="24" viewBox="0 0 24 24" fill="none" xmlns="http://www.w3.org/2000/svg">
<g clip-path="url(#clip0_6144_24417)">
<g clip-path="url(#clip1_6144_24417)">
<mask id="mask0_6144_24417" style="mask-type:luminance" maskUnits="userSpaceOnUse" x="-4" y="0" width="32" height="24">
<rect x="-4" width="32" height="24" fill="white"/>
</mask>
<g mask="url(#mask0_6144_24417)">
<path fill-rule="evenodd" clip-rule="evenodd" d="M-4 0V24H28V0H-4Z" fill="#BF2714"/>
<mask id="mask1_6144_24417" style="mask-type:luminance" maskUnits="userSpaceOnUse" x="-4" y="0" width="32" height="24">
<path fill-rule="evenodd" clip-rule="evenodd" d="M-4 0V24H28V0H-4Z" fill="white"/>
</mask>
<g mask="url(#mask1_6144_24417)">
<path fill-rule="evenodd" clip-rule="evenodd" d="M-4 -2V12H28V-2H-4Z" fill="#3D58DB"/>
</g>
<path fill-rule="evenodd" clip-rule="evenodd" d="M-4 0V24L14 12L-4 0Z" fill="#F7FCFF"/>
<mask id="mask2_6144_24417" style="mask-type:luminance" maskUnits="userSpaceOnUse" x="-4" y="0" width="18" height="24">
<path fill-rule="evenodd" clip-rule="evenodd" d="M-4 0V24L14 12L-4 0Z" fill="white"/>
</mask>
<g mask="url(#mask2_6144_24417)">
<path fill-rule="evenodd" clip-rule="evenodd" d="M9.60514 10.9203L10.881 11.4123L11.6401 10.519L11.6603 11.7137L12.8345 12.0957L11.5985 12.5152L11.68 13.6131L10.8659 12.7721L9.58628 13.0155L10.3418 12.0468L9.60514 10.9203Z" fill="#FECA00"/>
<path fill-rule="evenodd" clip-rule="evenodd" d="M-2.39486 16.9203L-1.22209 17.4388L-0.359866 16.519L-0.442844 17.7402L0.83453 18.0957L-0.504584 18.5417L-0.320017 19.6131L-1.25238 18.8475L-2.41372 19.0155L-1.76134 18.0733L-2.39486 16.9203Z" fill="#FECA00"/>
<path fill-rule="evenodd" clip-rule="evenodd" d="M-2.39486 4.92026L-1.0971 5.39848L-0.359866 4.51896L-0.317858 5.69991L0.83453 6.09566L-0.379598 6.5014L-0.320017 7.6131L-1.12739 6.80723L-2.41372 7.01548L-1.63635 6.03303L-2.39486 4.92026Z" fill="#FECA00"/>
<path fill-rule="evenodd" clip-rule="evenodd" d="M4.12158 14.5327C5.50229 14.5327 6.62158 13.4134 6.62158 12.0327C6.62158 10.652 5.50229 9.53271 4.12158 9.53271C2.74087 9.53271 1.62158 10.652 1.62158 12.0327C1.62158 13.4134 2.74087 14.5327 4.12158 14.5327Z" fill="#FECA00"/>
<path fill-rule="evenodd" clip-rule="evenodd" d="M3.82596 8.23965L3.9603 9.84565C3.97315 9.94317 4.04818 10.0209 4.14519 10.0371C4.26707 10.0575 4.3824 9.97525 4.40281 9.85338L4.58011 8.25282C4.58323 8.2342 4.58496 8.21539 4.58529 8.19652C4.58896 7.98595 4.42124 7.81227 4.21067 7.8086C4.19181 7.80827 4.17294 7.80934 4.15423 7.8118C3.94543 7.8393 3.79846 8.03086 3.82596 8.23965ZM3.40785 9.01582L3.61547 9.71445C3.63474 9.7793 3.69951 9.81946 3.77275 9.80654C3.8328 9.79235 3.86997 9.73218 3.85578 9.67213L3.69009 8.97098C3.67103 8.89035 3.59291 8.83814 3.51112 8.85137C3.50566 8.85226 3.50025 8.85349 3.49495 8.85507C3.42651 8.87541 3.38752 8.94738 3.40785 9.01582ZM4.53068 9.74356C4.5144 9.80307 4.54945 9.86451 4.6155 9.88236C4.68171 9.89625 4.74784 9.85838 4.76936 9.79424L5.00123 9.10328C5.02395 9.03559 4.98749 8.9623 4.9198 8.93959C4.91455 8.93783 4.9092 8.9364 4.90377 8.93533C4.82249 8.91924 4.74259 8.9687 4.72073 9.04862L4.53068 9.74356ZM6.60779 9.0414L5.49008 10.2756C5.4302 10.3536 5.42832 10.4616 5.48544 10.5417C5.55719 10.6423 5.69691 10.6657 5.79752 10.594L7.13175 9.58397C7.14711 9.57301 7.16164 9.56093 7.17522 9.54782C7.32671 9.40152 7.33092 9.16012 7.18463 9.00863C7.17152 8.99505 7.15742 8.98247 7.14245 8.97098C6.97536 8.84279 6.73599 8.87431 6.60779 9.0414ZM6.26778 11.6613L7.93673 11.5322C8.14553 11.5047 8.33708 11.6516 8.36458 11.8604C8.36704 11.8792 8.36812 11.898 8.36779 11.9169C8.36411 12.1275 8.19043 12.2952 7.97987 12.2915C7.961 12.2912 7.94218 12.2894 7.92357 12.2863L6.26005 12.1038C6.13818 12.0834 6.05592 11.9681 6.07632 11.8462C6.09256 11.7492 6.17025 11.6742 6.26778 11.6613ZM7.13395 14.3195L5.83782 13.1911C5.75978 13.1312 5.65179 13.1294 5.57171 13.1865C5.4711 13.2582 5.44771 13.398 5.51947 13.4986L6.59138 14.8435C6.60233 14.8588 6.61442 14.8734 6.62753 14.887C6.77382 15.0384 7.01523 15.0427 7.16672 14.8964C7.18029 14.8833 7.19288 14.8692 7.20436 14.8542C7.33256 14.6871 7.30103 14.4477 7.13395 14.3195ZM4.45209 13.9688L4.55104 15.6538C4.57854 15.8626 4.43157 16.0542 4.22277 16.0817C4.20406 16.0842 4.1852 16.0852 4.16633 16.0849C3.95576 16.0812 3.78804 15.9075 3.79172 15.697C3.79205 15.6781 3.79378 15.6593 3.79689 15.6407L4.00958 13.9611C4.02998 13.8392 4.14532 13.757 4.2672 13.7774C4.36421 13.7936 4.43924 13.8713 4.45209 13.9688ZM1.82101 14.8791L2.92231 13.5389C2.98218 13.4608 2.98407 13.3528 2.92695 13.2727C2.8552 13.1721 2.71548 13.1488 2.61487 13.2205L1.29706 14.3366C1.28169 14.3475 1.26716 14.3596 1.25359 14.3727C1.10209 14.519 1.09788 14.7604 1.24418 14.9119C1.25729 14.9255 1.27138 14.9381 1.28636 14.9496C1.45344 15.0778 1.69282 15.0462 1.82101 14.8791ZM2.14461 12.1531L0.465405 12.2915C0.256609 12.319 0.0650542 12.172 0.0375551 11.9632C0.0350909 11.9445 0.034019 11.9257 0.0343484 11.9068C0.0380238 11.6962 0.211702 11.5285 0.422269 11.5322C0.441138 11.5325 0.459956 11.5342 0.478569 11.5373L2.15234 11.7106C2.27421 11.731 2.35647 11.8464 2.33607 11.9682C2.31983 12.0653 2.24214 12.1403 2.14461 12.1531ZM1.15033 9.52205L2.57456 10.6233C2.65261 10.6832 2.7606 10.6851 2.84068 10.628C2.94129 10.5562 2.96468 10.4165 2.89292 10.3159L1.69291 8.9981C1.68195 8.98273 1.66987 8.9682 1.65676 8.95463C1.51046 8.80313 1.26906 8.79892 1.11756 8.94521C1.10399 8.95832 1.09141 8.97242 1.07992 8.9874C0.951722 9.15448 0.983249 9.39386 1.15033 9.52205ZM5.33902 9.939L5.68622 9.29818C5.72024 9.23541 5.7987 9.21209 5.86147 9.2461C5.86634 9.24874 5.87103 9.25168 5.87552 9.25492C5.94272 9.3034 5.96104 9.39556 5.9175 9.46605L5.53887 10.079C5.50644 10.1315 5.43761 10.1478 5.38512 10.1153C5.32419 10.0727 5.30679 9.99848 5.33902 9.939ZM7.09761 11.1089L6.39898 11.3165C6.33413 11.3358 6.29397 11.4005 6.30689 11.4738C6.32107 11.5338 6.38125 11.571 6.44129 11.5568L7.14245 11.3911C7.22308 11.3721 7.27529 11.294 7.26205 11.2122C7.26117 11.2067 7.25994 11.2013 7.25836 11.196C7.23802 11.1275 7.16605 11.0886 7.09761 11.1089ZM6.17443 13.0401L6.81525 13.3873C6.87802 13.4213 6.90134 13.4997 6.86733 13.5625C6.86469 13.5674 6.86174 13.5721 6.8585 13.5766C6.81003 13.6438 6.71787 13.6621 6.64738 13.6185L6.03443 13.2399C5.98194 13.2075 5.96567 13.1386 5.99809 13.0862C6.04075 13.0252 6.11495 13.0078 6.17443 13.0401ZM5.00453 14.7987L4.79692 14.1C4.77765 14.0352 4.71288 13.995 4.63963 14.0079C4.57959 14.0221 4.54242 14.0823 4.55661 14.1423L4.7223 14.8435C4.74135 14.9241 4.81948 14.9763 4.90127 14.9631C4.90673 14.9622 4.91213 14.961 4.91744 14.9594C4.98588 14.9391 5.02487 14.8671 5.00453 14.7987ZM3.07337 13.8755L2.72617 14.5163C2.69215 14.5791 2.61369 14.6024 2.55091 14.5684C2.54605 14.5657 2.54136 14.5628 2.53687 14.5595C2.46967 14.5111 2.45135 14.4189 2.49489 14.3484L2.87352 13.7355C2.90594 13.683 2.97478 13.6667 3.02727 13.6991C3.0882 13.7418 3.1056 13.816 3.07337 13.8755ZM1.31478 12.7056L2.01341 12.498C2.07826 12.4787 2.11842 12.4139 2.1055 12.3407C2.09131 12.2806 2.03114 12.2435 1.9711 12.2576L1.26994 12.4233C1.18931 12.4424 1.1371 12.5205 1.15033 12.6023C1.15122 12.6078 1.15245 12.6132 1.15403 12.6185C1.17437 12.6869 1.24634 12.7259 1.31478 12.7056ZM2.23796 10.7744L1.59714 10.4272C1.53437 10.3932 1.51105 10.3147 1.54506 10.252C1.5477 10.2471 1.55065 10.2424 1.55388 10.2379C1.60236 10.1707 1.69452 10.1524 1.76501 10.1959L2.37796 10.5746C2.43045 10.607 2.44672 10.6758 2.41429 10.7283C2.37163 10.7892 2.29744 10.8066 2.23796 10.7744ZM5.96558 10.6067C5.912 10.6373 5.89334 10.7055 5.92741 10.7649C5.96441 10.8215 6.03796 10.8415 6.09853 10.8113L6.75107 10.4867C6.81499 10.4549 6.84104 10.3773 6.80923 10.3134C6.80677 10.3084 6.80399 10.3036 6.80091 10.299C6.75481 10.2302 6.66335 10.2087 6.59138 10.2497L5.96558 10.6067ZM6.23106 12.3165C6.24892 12.2505 6.31036 12.2154 6.36987 12.2317L7.06481 12.4218C7.14473 12.4436 7.19418 12.5235 7.1781 12.6048C7.17702 12.6102 7.1756 12.6156 7.17384 12.6208C7.15113 12.6885 7.07784 12.725 7.01015 12.7023L6.31919 12.4704C6.25505 12.4489 6.21718 12.3828 6.23106 12.3165ZM5.5067 13.6666C5.47613 13.613 5.4079 13.5944 5.34857 13.6285C5.29193 13.6655 5.27195 13.739 5.30209 13.7996L5.62671 14.4521C5.65852 14.516 5.73612 14.5421 5.80004 14.5103C5.805 14.5078 5.80979 14.505 5.81439 14.5019C5.88324 14.4558 5.90476 14.3644 5.86371 14.2924L5.5067 13.6666ZM3.79689 13.9321C3.86294 13.95 3.89799 14.0114 3.88171 14.0709L3.69165 14.7658C3.6698 14.8458 3.5899 14.8952 3.50862 14.8791C3.50319 14.8781 3.49783 14.8766 3.49259 14.8749C3.4249 14.8522 3.38844 14.7789 3.41115 14.7112L3.64303 14.0202C3.66455 13.9561 3.73068 13.9182 3.79689 13.9321ZM2.4468 13.2077C2.50039 13.1772 2.51905 13.1089 2.48497 13.0496C2.44797 12.993 2.37443 12.973 2.31386 13.0031L1.66132 13.3278C1.59739 13.3596 1.57135 13.4372 1.60315 13.5011C1.60562 13.506 1.6084 13.5108 1.61148 13.5154C1.65758 13.5843 1.74904 13.6058 1.82101 13.5647L2.4468 13.2077ZM2.18132 11.4979C2.16347 11.564 2.10203 11.599 2.04252 11.5828L1.34758 11.3927C1.26766 11.3708 1.2182 11.2909 1.23429 11.2097C1.23536 11.2042 1.23679 11.1989 1.23855 11.1936C1.26126 11.1259 1.33455 11.0895 1.40224 11.1122L2.0932 11.3441C2.15734 11.3656 2.19521 11.4317 2.18132 11.4979ZM2.90569 10.1478C2.93626 10.2014 3.00449 10.2201 3.06381 10.186C3.12046 10.149 3.14043 10.0755 3.1103 10.0149L2.78567 9.36236C2.75387 9.29843 2.67627 9.27239 2.61235 9.30419C2.60739 9.30666 2.6026 9.30944 2.598 9.31252C2.52915 9.35862 2.50762 9.45008 2.54868 9.52205L2.90569 10.1478Z" fill="#FECA00"/>
</g>
</g>
</g>
<g style="mix-blend-mode:hard-light" opacity="0.12">
<rect width="24" height="24" rx="12" fill="white"/>
</g>
<rect width="24" height="24" fill="url(#paint0_linear_6144_24417)" fill-opacity="0.64" style="mix-blend-mode:overlay"/>
</g>
<defs>
<linearGradient id="paint0_linear_6144_24417" x1="24" y1="1.19273e-06" x2="-4.48665" y2="16.0237" gradientUnits="userSpaceOnUse">
<stop stop-color="white" stop-opacity="0.3"/>
<stop offset="0.262741" stop-opacity="0.27"/>
<stop offset="0.369956" stop-color="white" stop-opacity="0.26"/>
<stop offset="0.487001" stop-opacity="0.55"/>
<stop offset="0.594445" stop-opacity="0.24"/>
<stop offset="0.736408" stop-color="white" stop-opacity="0.3"/>
<stop offset="0.901459" stop-color="#272727" stop-opacity="0.22"/>
<stop offset="1" stop-opacity="0.2"/>
</linearGradient>
<clipPath id="clip0_6144_24417">
<rect width="24" height="24" rx="12" fill="white"/>
</clipPath>
<clipPath id="clip1_6144_24417">
<rect width="24" height="24" fill="white"/>
</clipPath>
</defs>
</svg>
