<svg width="168" height="119" viewBox="0 0 168 119" fill="none" xmlns="http://www.w3.org/2000/svg">
<g clip-path="url(#clip0_271_1955)">
<path d="M31.7801 103.678C23.2913 99.5864 7.12177 90.4174 3.32288 94.9018C0.276885 99.3311 10.6375 105.747 31.7801 103.678ZM98.6544 110.48C103.766 98.8205 121.441 89.0858 125.993 92.8044C129.798 96.6059 119.721 108.341 98.6544 110.48Z" fill="#292B2E"/>
<path d="M152.671 123.7C149.219 124.846 145.639 125.64 142.026 126.095C140.302 126.312 138.568 126.453 136.831 126.517L136.707 126.521C136.686 126.522 136.666 126.523 136.646 126.524C133.143 126.641 129.653 126.447 126.26 125.952C122.604 125.419 119.06 124.535 115.736 123.314C113.626 122.54 111.605 121.631 109.699 120.588C108.433 119.896 107.217 119.145 106.061 118.336C103.252 116.374 100.792 114.072 98.7922 111.446C98.7922 111.446 98.5248 110.765 98.068 109.566C97.8604 109.02 97.654 108.473 97.4487 107.926C93.4206 97.1802 82.0842 65.4196 88.0865 63.5582C96.5856 60.9286 104.745 69.962 113.413 82.7977C114.546 84.4768 115.689 86.2209 116.842 88.0129C117.295 88.7178 117.746 89.4237 118.196 90.1307C118.473 90.5651 118.748 90.9999 119.024 91.435C119.261 91.8103 119.499 92.1872 119.738 92.5657C119.883 92.7953 120.028 93.0259 120.174 93.2571C120.635 93.9894 121.098 94.7265 121.562 95.4674C121.795 95.8373 122.028 96.2083 122.261 96.5798C122.728 97.3246 123.196 98.0691 123.664 98.8131C123.874 99.147 124.084 99.4814 124.296 99.8164C125.115 101.118 125.938 102.416 126.766 103.712C127.805 104.435 129.082 105.085 130.504 105.669C133.463 106.883 137.05 107.809 140.429 108.497L140.596 108.53L140.65 108.542C141.544 108.721 142.44 108.888 143.338 109.043C145.901 109.488 148.171 109.787 149.711 109.969C150.673 114.578 151.646 119.173 152.671 123.7L152.671 123.7Z" fill="white"/>
<path d="M134.659 126.77C131.821 126.77 128.995 126.567 126.229 126.163C122.535 125.624 118.98 124.733 115.662 123.514C113.528 122.731 111.487 121.81 109.595 120.774C108.319 120.077 107.088 119.315 105.937 118.51C103.052 116.494 100.59 114.16 98.6209 111.574C98.6089 111.559 98.5991 111.541 98.5919 111.523C98.5892 111.516 98.3188 110.827 97.8667 109.64C97.659 109.094 97.4524 108.547 97.247 107.999C95.4454 103.193 92.0411 93.8033 89.4852 84.9181C86.3575 74.0447 85.4278 67.1937 86.722 64.5554C87.0296 63.9283 87.4672 63.523 88.0226 63.3507C92.0751 62.0968 96.2629 63.36 100.825 67.2122C104.564 70.3692 108.501 75.1382 113.591 82.6754C114.652 84.2467 115.774 85.9539 117.023 87.8945C117.076 87.9764 117.129 88.059 117.182 88.1417L117.196 88.1637C117.869 89.2129 118.539 90.2644 119.206 91.318L119.214 91.3304C119.449 91.7031 119.685 92.076 119.92 92.4491C120.065 92.6785 120.211 92.9093 120.356 93.1407C120.82 93.8771 121.282 94.6139 121.745 95.3511C121.977 95.7209 122.21 96.0919 122.443 96.4635C122.91 97.2083 123.378 97.9526 123.846 98.6965C124.056 99.0304 124.267 99.3647 124.478 99.6995C125.289 100.988 126.105 102.274 126.924 103.558C127.888 104.223 129.12 104.866 130.586 105.468C133.167 106.527 136.493 107.474 140.472 108.284L140.694 108.329C141.585 108.508 142.479 108.675 143.374 108.829C145.961 109.278 148.262 109.58 149.737 109.753C149.781 109.759 149.823 109.778 149.857 109.808C149.89 109.839 149.913 109.879 149.922 109.923C150.836 114.3 151.827 118.992 152.881 123.65C152.893 123.703 152.885 123.757 152.859 123.804C152.833 123.85 152.79 123.885 152.739 123.902C149.327 125.035 145.732 125.844 142.053 126.307C140.322 126.524 138.582 126.666 136.838 126.73L136.716 126.735C136.696 126.735 136.676 126.736 136.657 126.737C135.991 126.759 135.325 126.77 134.659 126.77L134.659 126.77ZM98.9819 111.337C100.921 113.878 103.344 116.173 106.184 118.157C107.322 118.953 108.539 119.707 109.802 120.397C111.675 121.422 113.697 122.335 115.81 123.11C119.101 124.319 122.627 125.203 126.291 125.737C129.68 126.232 133.161 126.423 136.638 126.306C136.657 126.305 136.679 126.305 136.702 126.304L136.822 126.3C138.553 126.236 140.281 126.096 142 125.88C145.584 125.428 149.088 124.646 152.418 123.555C151.391 119.01 150.425 114.438 149.532 110.162C148.049 109.985 145.809 109.688 143.301 109.253C142.401 109.098 141.503 108.93 140.608 108.751L140.386 108.705C136.381 107.89 133.029 106.935 130.422 105.866C128.91 105.244 127.638 104.578 126.643 103.887C126.62 103.87 126.6 103.85 126.585 103.826C125.843 102.666 125.035 101.391 124.114 99.9289C123.903 99.5947 123.692 99.2602 123.482 98.9255C123.013 98.1814 122.546 97.4369 122.078 96.692C121.846 96.3205 121.613 95.9496 121.38 95.5797C120.918 94.8427 120.455 94.106 119.991 93.3696C119.847 93.1391 119.701 92.9087 119.556 92.6786C119.32 92.304 119.084 91.9313 118.85 91.5602L118.842 91.5478C118.567 91.1129 118.291 90.6783 118.015 90.2441C117.622 89.6272 117.228 89.0111 116.833 88.3958L116.819 88.3737C116.766 88.2915 116.714 88.2092 116.661 88.1274C115.414 86.1892 114.293 84.4846 113.234 82.9159C108.236 75.5144 104.205 70.6287 100.547 67.5408C96.1063 63.7909 92.051 62.5547 88.1503 63.7617C87.7065 63.8992 87.3658 64.2209 87.1088 64.7447C86.4436 66.1007 86.4102 68.7222 87.0095 72.5363C87.5188 75.7778 88.4911 79.9037 89.8993 84.7991C92.4511 93.6702 95.8509 103.048 97.6505 107.848C97.8556 108.395 98.062 108.941 98.2695 109.488C98.6697 110.539 98.9271 111.198 98.9819 111.337ZM87.4785 36.0977C83.3622 37.5945 73.5469 47.7157 73.5469 47.7157C73.5469 47.7157 68.6294 41.9758 66.1149 41.0032C66.7089 38.1053 65.2588 34.6557 64.4092 33.0138C62.0884 28.5498 67.9314 22.5819 73.174 26.1282C73.8993 22.0588 80.6189 20.6421 82.8972 25.3583C82.9793 25.5286 83.0539 25.7024 83.1205 25.8792C83.1254 25.8911 83.1297 25.9023 83.1339 25.9142C84.6401 25.0243 86.4701 24.9276 88.0865 25.5969C91.7331 27.1007 92.6177 34.2207 87.4785 36.0976L87.4785 36.0977Z" fill="#292B2E"/>
<path d="M89.1227 56.3584C85.0618 58.6493 79.7153 57.4208 79.7153 57.4208C79.7153 57.4208 79.3401 60.9124 80.024 65.7694C80.0577 66.0087 79.1611 66.5074 79.0044 66.6009C78.351 66.9907 77.6169 67.2272 76.9145 67.516C72.235 69.4397 66.5527 68.8568 62.502 65.6508C62.3592 65.5377 61.0781 64.6262 61.149 64.4537C62.351 61.5284 64.2921 56.4412 67.0547 50.7148C64.1883 50.3358 59.7335 47.3481 60.4308 43.4642C60.8247 41.2496 63.1799 39.4351 65.4797 40.0905C67.7176 40.7249 68.5673 42.0566 70.3704 44.0088C72.0487 45.8233 72.5319 44.8024 73.6371 42.6018C74.625 40.6491 76.1236 38.9383 77.2428 37.9931C79.3768 36.1877 83.0272 35.8619 85.9662 35.9952C86.4807 36.0183 86.9945 36.0563 87.5068 36.1092C87.5089 36.9323 87.5304 37.755 87.5708 38.5754C87.644 40.0859 87.7815 41.5927 87.983 43.0916C88.5082 47.162 91.0635 48.9836 91.3471 52.4465C91.4714 53.9299 90.6836 55.4756 89.1226 56.3584H89.1227Z" fill="white"/>
<path d="M71.2954 68.8375C68.0598 68.8375 64.8711 67.8055 62.3679 65.8244C62.3474 65.8082 62.3024 65.7748 62.2408 65.7291C60.9593 64.7776 60.8632 64.5864 60.9493 64.3769C61.1756 63.8261 61.4341 63.1837 61.7079 62.5036C62.912 59.5119 64.5527 55.4353 66.735 50.8865C64.9822 50.5601 62.6206 49.3177 61.2488 47.4411C60.3295 46.1836 59.9731 44.7969 60.2184 43.4311C60.4343 42.217 61.2204 41.0816 62.3212 40.3943C63.33 39.7644 64.4725 39.5846 65.5382 39.8885C67.4633 40.4341 68.4006 41.4881 69.6978 42.9468C69.9589 43.2404 70.2289 43.5439 70.528 43.8678C71.1056 44.4922 71.543 44.7742 71.8652 44.7282C72.366 44.6574 72.8026 43.7877 73.4071 42.5839L73.4441 42.5102C74.4773 40.468 76.0117 38.7555 77.1033 37.8337C79.3759 35.911 83.1825 35.6585 85.9755 35.7852C86.4874 35.808 87.0099 35.8467 87.5284 35.9001C87.5813 35.9056 87.6303 35.9304 87.666 35.9698C87.7017 36.0093 87.7215 36.0605 87.7216 36.1136C87.7238 36.9267 87.7453 37.7531 87.7854 38.5698C87.8586 40.0743 87.9955 41.575 88.1959 43.0679C88.4569 45.0913 89.2279 46.5467 89.9734 47.9541C90.7161 49.356 91.4176 50.6803 91.5612 52.434C91.6993 54.0812 90.8053 55.6588 89.2282 56.5507H89.228C85.5846 58.6062 81.0139 57.8993 79.9082 57.6858C79.841 58.5482 79.6647 61.6818 80.2367 65.7445C80.2739 66.0086 79.9839 66.2838 79.1666 66.7601L79.1143 66.7907C78.6145 67.0889 78.0693 67.3001 77.5422 67.5042C77.3621 67.5739 77.1759 67.6461 76.996 67.72C75.1693 68.471 73.2239 68.8377 71.2952 68.8377L71.2954 68.8375ZM61.3792 64.4637C61.4657 64.5725 61.7409 64.8217 62.4978 65.3837C62.5644 65.4331 62.6131 65.4694 62.6353 65.487C66.5104 68.5541 72.083 69.2743 76.8322 67.3219C77.0162 67.2462 77.2045 67.1733 77.3866 67.1027C77.8971 66.9051 78.4249 66.7006 78.8936 66.4211L78.9497 66.3881C79.6189 65.9981 79.7714 65.8304 79.806 65.7739C79.132 60.9616 79.497 57.4378 79.5007 57.4027C79.504 57.3725 79.5136 57.3433 79.529 57.3171C79.5444 57.2908 79.5652 57.2682 79.5899 57.2505C79.6147 57.2329 79.6429 57.2207 79.6728 57.2147C79.7026 57.2087 79.7334 57.2092 79.763 57.2159C79.8156 57.2279 85.0774 58.3978 89.0162 56.1759C90.4451 55.3677 91.2558 53.9474 91.132 52.4694C90.9955 50.8033 90.3141 49.5171 89.5927 48.1553C88.8292 46.7139 88.0397 45.2236 87.7689 43.1239C87.567 41.6194 87.4289 40.1069 87.3552 38.5906C87.3178 37.8306 87.2967 37.0699 87.2918 36.309C86.8475 36.2664 86.4021 36.235 85.9562 36.215C83.7324 36.1141 79.6618 36.2329 77.3815 38.1621C76.3221 39.0567 74.8327 40.7195 73.8288 42.7036L73.7921 42.7767C73.1043 44.1467 72.6499 45.0517 71.9256 45.1541C71.4402 45.2227 70.9114 44.916 70.2118 44.1596C69.9098 43.8326 69.6384 43.5275 69.376 43.2325C68.0807 41.776 67.2249 40.8138 65.4204 40.3022C64.4731 40.0322 63.4536 40.1946 62.5495 40.7591C61.5503 41.3829 60.8374 42.4101 60.6424 43.5066C60.4152 44.7721 60.7362 46.0103 61.5966 47.1872C62.9746 49.0721 65.3993 50.2837 67.0825 50.5062C67.1162 50.5107 67.1484 50.5232 67.1764 50.5425C67.2044 50.5618 67.2275 50.5875 67.2436 50.6174C67.2598 50.6473 67.2686 50.6806 67.2694 50.7146C67.2702 50.7486 67.263 50.7823 67.2482 50.813C65.0096 55.4534 63.3323 59.621 62.1075 62.664C61.8461 63.3137 61.5984 63.9289 61.3792 64.4636V64.4637Z" fill="#292B2E"/>
<path d="M76.8213 40.1502L76.8282 39.9087C76.8351 39.8328 76.842 39.7638 76.849 39.6948C76.8697 39.5568 76.8973 39.4119 76.9388 39.2809C77.0147 39.0049 77.1253 38.7427 77.2634 38.4944C77.5535 37.9701 77.9679 37.5216 78.4583 37.1904C78.7208 37.0111 79.004 36.8731 79.301 36.7696C79.6038 36.6667 79.9207 36.6109 80.2404 36.604C80.5512 36.5971 80.8621 36.6454 81.159 36.742C81.4491 36.8317 81.7254 36.9835 81.9534 37.1836C82.2434 37.4457 82.2711 37.8941 82.0086 38.1908C81.9593 38.2462 81.9009 38.2928 81.836 38.3288L81.7185 38.3978C81.4906 38.5289 81.2972 38.6117 81.1245 38.7014C80.9519 38.7841 80.7999 38.8739 80.6617 38.9429C80.3785 39.0946 80.1368 39.2257 79.8674 39.3844C79.598 39.5362 79.3149 39.7224 79.0041 39.9363L78.5067 40.2744C78.4238 40.3365 78.3341 40.3985 78.2373 40.4538C78.0301 40.6055 77.7884 40.6953 77.5328 40.7228C77.4016 40.7366 77.2634 40.7159 77.1391 40.6677C76.9734 40.5918 76.8559 40.4469 76.8214 40.2675C76.8283 40.2261 76.8213 40.1847 76.8213 40.1502ZM66.9491 50.4864C67.5078 50.5235 68.1744 50.4901 68.9013 50.2998C69.0311 50.2654 69.1679 50.3483 69.2019 50.4794C69.2359 50.6101 69.154 50.7483 69.0242 50.7827C68.273 50.983 67.492 51.0473 66.7181 50.9725L66.9491 50.4864ZM87.5708 38.5801C87.3115 38.4968 87.0737 38.4205 86.8503 38.3635C86.5813 38.2941 86.3391 38.2392 86.0561 38.1699C85.9178 38.1354 85.7661 38.094 85.5934 38.0666C85.4207 38.0253 85.2339 38.0043 85.0063 37.9424L84.889 37.915C84.8234 37.8958 84.7606 37.8679 84.7023 37.8322C84.4053 37.6387 84.3155 37.2387 84.5091 36.9419C84.6588 36.7096 84.8566 36.5119 85.0892 36.3624C85.3237 36.2107 85.5794 36.0935 85.8559 36.0247C85.8925 36.0156 85.9296 36.0075 85.9662 36C86.4807 36.0231 86.9944 36.0611 87.5067 36.114C87.5089 36.9371 87.5305 37.7597 87.5708 38.5801ZM79.7953 57.224L79.7943 57.2219C79.7943 57.2219 76.3338 56.1735 74.5312 54.3385C73.8264 54.759 73.6951 59.5746 79.29 61.2306C79.4999 61.2924 79.6904 61.3392 79.8631 61.3709L79.7953 57.224ZM85.6693 48.4707C85.3447 48.6846 84.9717 48.8087 84.578 48.8156C84.1923 48.8364 83.807 48.7679 83.4521 48.6156C83.1067 48.45 82.8098 48.2016 82.5818 47.8911C82.3539 47.5737 82.2157 47.2012 82.1882 46.8149V46.808C82.1813 46.6838 82.0707 46.5941 81.9464 46.601C81.8428 46.6079 81.7599 46.6838 81.7391 46.7873C81.6632 47.2909 81.7668 47.8084 82.0361 48.243C82.1659 48.4623 82.329 48.6602 82.5196 48.8295C83.0929 49.3469 83.8734 49.5745 84.6332 49.4573C84.8814 49.4232 85.1233 49.3535 85.3515 49.2503C85.5863 49.1468 85.7936 48.9881 85.9662 48.795C86.0491 48.6983 86.0353 48.5604 85.9386 48.4776C85.8626 48.4086 85.7452 48.4086 85.6623 48.4638L85.6693 48.4707ZM68.3671 47.2013C68.5052 47.2289 68.6365 47.1461 68.6641 47.0081C68.671 46.9667 68.671 46.9185 68.6572 46.877C67.3449 42.6892 63.6979 42.9445 63.6634 42.9445C63.5252 42.9582 63.4216 43.0756 63.4354 43.2135C63.4493 43.3514 63.5667 43.4481 63.7049 43.4412C63.8361 43.4343 66.9926 43.2273 68.1807 47.0288C68.2083 47.1184 68.2773 47.1805 68.3671 47.2013Z" fill="#292B2E"/>
<ellipse cx="82.3899" cy="41.5816" rx="0.49" ry="0.98" fill="#292B2E"/>
<ellipse cx="86.5899" cy="41.5816" rx="0.49" ry="0.98" fill="#292B2E"/>
<path d="M85.2407 45.683C85.2959 45.6968 85.3511 45.683 85.3995 45.6554C86.0695 45.1931 86.3872 44.8137 86.4287 44.4135C86.484 43.9099 86.0764 43.4891 85.6136 42.9992C84.5707 41.9022 84.7779 41.164 84.7779 41.1571C84.8125 41.0536 84.7503 40.9432 84.6467 40.9087C84.5431 40.8742 84.4326 40.9294 84.398 41.0329C84.3843 41.0742 84.0941 41.9918 85.3236 43.2751C85.7864 43.758 86.0626 44.0754 86.035 44.3721C86.0074 44.6342 85.7311 44.9447 85.1786 45.3242C85.0888 45.3863 85.0681 45.5104 85.1302 45.6002C85.144 45.6484 85.1924 45.6761 85.2407 45.6829L85.2407 45.683Z" fill="#292B2E"/>
<path d="M83.1208 25.8804C81.6142 27.0218 81.1504 28.9304 81.145 28.9509C81.1245 29.082 81.0072 29.1648 80.8829 29.1648C80.8619 29.1648 80.8415 29.1648 80.8204 29.1579C80.6687 29.1234 80.5789 28.9788 80.6133 28.8272C80.6202 28.7858 80.8414 27.875 81.4699 26.8884C81.8735 26.2588 82.3534 25.746 82.8974 25.3594C82.9795 25.5296 83.0541 25.7034 83.1207 25.8803L83.1208 25.8804Z" fill="white"/>
<path d="M126.144 92.9564C119.306 89.8515 102.039 104.271 98.7923 111.446C98.6545 114.689 98.6545 125.314 98.6545 125.314L33.727 125.342C34.2376 121.097 34.6415 108.197 34.2435 105.282C34.2421 105.272 34.2241 105.288 34.2139 105.292C34.1617 105.264 34.1096 105.235 34.0568 105.207C28.6577 102.289 23.188 99.4658 17.5101 97.1236H17.5031C15.0451 96.1118 12.6963 95.2671 10.6231 94.7113C10.6021 94.7054 10.5811 94.7 10.5601 94.6946C7.16318 93.7903 4.51423 93.6699 3.3503 94.8742L3.3363 94.8882C3.70277 94.4188 13.2898 82.2353 25.3634 72.5486C31.2688 67.8088 37.7753 63.6695 44.0881 61.7926C47.0774 60.9038 50.4104 60.507 53.5921 61.0095C55.2157 61.2658 56.8029 61.7424 58.2897 62.4446C59.3848 62.9619 60.3142 63.862 61.4496 64.2581C66.2603 69.2066 74.4784 69.8466 80.1991 65.3937C80.3222 65.3126 80.499 65.2047 80.7076 65.0812C88.2991 60.5851 97.1467 61.3632 104.228 66.4706C115.024 74.2595 126.179 92.9221 126.144 92.9565L126.144 92.9564Z" fill="#BFEBFF"/>
<path d="M35.6414 106.368C35.6068 106.368 35.5723 106.361 35.5378 106.347C35.3927 106.292 35.3236 106.133 35.3858 105.988C35.4342 105.871 40.0688 94.3012 43.9782 88.2782C44.0611 88.1471 44.2338 88.1126 44.3581 88.1954C44.4893 88.2782 44.5239 88.4507 44.441 88.5748C40.5661 94.5565 35.9453 106.071 35.9039 106.189C35.8555 106.306 35.7519 106.368 35.6414 106.368H35.6414ZM72.0998 68.3524C72.0858 68.5792 72.0675 68.8125 72.0449 69.0513V69.0518C72.0031 69.4939 71.9494 69.9347 71.884 70.3739C71.446 73.3299 70.4225 76.6235 68.6845 77.9294C68.1529 78.3364 67.5863 78.5434 66.9928 78.5434C66.6543 78.5434 66.3018 78.4746 65.9424 78.3434C63.7255 77.5364 62.1301 74.8111 61.2046 70.2438C60.5347 66.9593 60.4679 63.8544 60.4652 63.6953C60.6571 63.8306 60.846 63.9701 61.0318 64.1136C61.1244 66.3282 61.7862 76.238 66.1291 77.8192C66.9443 78.116 67.6696 78.0122 68.353 77.495C69.4168 76.6945 70.3353 74.8799 70.9364 72.3826C71.2495 71.0836 71.4637 69.6525 71.5476 68.3658C71.5842 68.3658 71.6203 68.3658 71.6568 68.3648C71.7262 68.3642 71.7951 68.3626 71.864 68.3605C71.9431 68.3589 72.0216 68.3562 72.0997 68.3524L72.0998 68.3524Z" fill="white"/>
<path d="M80.8619 76.9476C80.3992 77.603 79.7637 77.9616 78.9765 78.01C78.8866 78.017 78.8107 78.017 78.7279 78.017C77.4639 78.017 76.2892 77.3756 75.2395 76.1057C74.3693 75.0573 73.5816 73.5809 72.8912 71.718C72.7298 71.281 72.5791 70.8402 72.4392 70.3959C72.2988 69.9498 72.1673 69.501 72.0449 69.0497V69.0491C71.9822 68.8195 71.9219 68.5892 71.8641 68.3582C71.9432 68.3567 72.0217 68.3539 72.0998 68.3502C72.1359 68.3491 72.1719 68.3475 72.208 68.3454C72.2849 68.3422 72.3613 68.3379 72.4372 68.3331C73.3858 72.0358 75.4144 77.6778 78.9421 77.4584C79.5635 77.417 80.0468 77.1476 80.4062 76.6305C81.915 74.4756 80.9857 68.8798 80.1996 65.3911C80.3228 65.3099 80.4998 65.2018 80.7086 65.0781C81.5254 68.6324 82.5317 74.5659 80.862 76.9477L80.8619 76.9476Z" fill="white"/>
<path d="M71.1435 79.3907C71.4868 79.3907 71.7652 79.1126 71.7652 78.7696C71.7652 78.4265 71.4868 78.1484 71.1435 78.1484C70.8002 78.1484 70.5219 78.4265 70.5219 78.7696C70.5219 79.1126 70.8002 79.3907 71.1435 79.3907Z" fill="white"/>
<path d="M71.6666 84.5704C72.0099 84.5704 72.2882 84.2923 72.2882 83.9493C72.2882 83.6062 72.0099 83.3281 71.6666 83.3281C71.3232 83.3281 71.0449 83.6062 71.0449 83.9493C71.0449 84.2923 71.3232 84.5704 71.6666 84.5704Z" fill="white"/>
<path d="M98.4469 111.716C98.3433 111.716 98.2397 111.654 98.1913 111.55C97.8805 110.846 97.5075 110.032 97.1207 109.17C95.1039 104.72 92.3342 98.628 91.0632 93.7778C91.0218 93.6329 91.1115 93.4812 91.2635 93.4398C91.4086 93.3984 91.5605 93.4881 91.602 93.6398C92.8591 98.4417 95.615 104.513 97.6249 108.942C98.0186 109.805 98.3847 110.626 98.7024 111.329C98.7646 111.467 98.7024 111.633 98.5643 111.695C98.5229 111.702 98.4814 111.716 98.4469 111.716Z" fill="white"/>
<path d="M67.0412 128.505L62.6802 126.401L78.73 93.1875L83.0911 95.2914L67.0412 128.505Z" fill="#E6485C"/>
<path d="M78.7291 93.1918L80.8764 91.8396C81.4492 91.4789 82.0214 91.1185 82.5942 90.7578L82.8146 92.7747C82.9064 93.6148 82.9984 94.4557 83.0902 95.2957L78.7291 93.1918Z" fill="white"/>
<path d="M80.8762 91.8396C81.4491 91.4789 82.0212 91.1185 82.5941 90.7578L82.8145 92.7747L80.8762 91.8396ZM65.1908 130.064L62.6123 128.82C62.1204 128.583 61.9139 127.991 62.1514 127.5L63.2653 125.195L67.6262 127.299L66.5125 129.604C66.2749 130.095 65.6827 130.302 65.1908 130.064Z" fill="#292B2E"/>
<path d="M86.0861 107.58C86.0834 107.564 86.0813 107.547 86.0786 107.53C86.0759 107.511 86.0727 107.493 86.0694 107.474C86.0662 107.456 86.063 107.437 86.0598 107.418C86.056 107.399 86.0522 107.38 86.0479 107.361C86.0382 107.312 86.027 107.264 86.0145 107.216C86.0119 107.204 86.0091 107.192 86.0054 107.18C85.9847 107.103 85.9619 107.026 85.9371 106.95C85.9301 106.929 85.9236 106.909 85.9161 106.889C85.8875 106.807 85.8565 106.725 85.823 106.644C85.8067 106.604 85.7897 106.564 85.7719 106.524C85.7702 106.521 85.7692 106.517 85.7681 106.515C85.7302 106.431 85.6903 106.347 85.6486 106.265C85.6271 106.223 85.6051 106.18 85.5814 106.137C85.558 106.093 85.5339 106.05 85.5092 106.007C85.4974 105.985 85.485 105.964 85.4721 105.942C85.4592 105.92 85.4463 105.898 85.4334 105.876C85.4069 105.832 85.3799 105.788 85.3522 105.744C85.3382 105.722 85.3242 105.7 85.3102 105.678C85.2957 105.655 85.2811 105.633 85.2666 105.611C85.2371 105.566 85.2071 105.522 85.1767 105.478C85.1408 105.425 85.1042 105.374 85.067 105.322C85.0395 105.284 85.011 105.246 84.9825 105.207C84.9658 105.185 84.9481 105.163 84.9308 105.14C84.8959 105.094 84.8604 105.048 84.8242 105.003C84.7882 104.957 84.7515 104.912 84.714 104.867C84.5375 104.654 84.353 104.447 84.1607 104.248C84.1376 104.224 84.1144 104.2 84.0908 104.177C84.0682 104.153 84.0451 104.13 84.0219 104.107C83.9971 104.081 83.9719 104.057 83.9466 104.031C83.8284 103.915 83.7082 103.801 83.5861 103.689C83.5835 103.688 83.5812 103.685 83.5791 103.683C83.5307 103.639 83.4812 103.595 83.4312 103.551C83.4053 103.528 83.379 103.504 83.3526 103.481C83.3257 103.458 83.2988 103.435 83.272 103.412C83.2451 103.389 83.2181 103.366 83.1907 103.343L83.0971 103.264C83.0734 103.244 83.0492 103.224 83.025 103.204C82.997 103.181 82.9685 103.158 82.9405 103.135C82.854 103.065 82.7668 102.996 82.6789 102.928C82.589 102.859 82.4984 102.79 82.4072 102.723C82.3142 102.653 82.2204 102.585 82.1258 102.518C82.0935 102.495 82.0613 102.473 82.029 102.45C81.9929 102.424 81.9569 102.4 81.9203 102.374C81.8582 102.332 81.796 102.29 81.7336 102.247C81.6755 102.208 81.6179 102.17 81.5587 102.132C81.4442 102.057 81.329 101.984 81.2133 101.911C81.1439 101.868 81.074 101.824 81.0029 101.782C80.9669 101.76 80.9303 101.738 80.8937 101.716C80.8571 101.695 80.8205 101.673 80.784 101.651C80.749 101.63 80.714 101.61 80.679 101.589C80.6602 101.579 80.6408 101.568 80.622 101.557C80.5817 101.534 80.5407 101.51 80.4998 101.487C80.4783 101.474 80.4568 101.463 80.4347 101.451C80.4006 101.431 80.3661 101.412 80.3314 101.393C80.1361 101.284 79.9389 101.179 79.7401 101.076C79.6997 101.055 79.6594 101.035 79.6179 101.014C79.5775 100.993 79.5366 100.973 79.4957 100.952C79.4564 100.932 79.4172 100.913 79.3778 100.894C79.3084 100.86 79.2384 100.826 79.1685 100.792C79.1346 100.775 79.1002 100.759 79.0657 100.743C79.02 100.721 78.9737 100.7 78.9274 100.678C78.8628 100.648 78.7983 100.618 78.7337 100.588C78.731 100.588 78.7283 100.586 78.7257 100.585C78.6659 100.558 78.6056 100.531 78.5449 100.503C78.5309 100.498 78.518 100.492 78.504 100.486C78.4733 100.472 78.4432 100.459 78.4119 100.445L78.2247 100.364C78.2214 100.363 78.2182 100.361 78.2145 100.36C78.144 100.33 78.073 100.3 78.0008 100.27C77.932 100.241 77.8615 100.212 77.7915 100.184C77.7803 100.179 77.769 100.174 77.7576 100.17C77.6876 100.142 77.6161 100.113 77.5445 100.085C77.3837 100.022 77.2225 99.9598 77.0608 99.8992C76.9737 99.8669 76.8854 99.8347 76.7971 99.8029C67.2014 96.3469 52.2325 99.0556 34.2437 105.282L34.2292 105.286C34.2241 105.288 34.2191 105.29 34.2141 105.292C33.8916 105.116 33.5684 104.941 33.2445 104.768C33.0373 104.65 32.8232 104.54 32.6091 104.422C32.1119 104.154 31.6007 103.884 31.0755 103.608C30.8409 103.484 30.6128 103.36 30.3782 103.243C26.3377 101.124 21.758 98.8755 17.5104 97.1233H17.5033C15.0453 96.1115 12.6966 95.2668 10.6233 94.7109C10.5986 94.7195 10.5781 94.7271 10.5615 94.7335C9.1872 96.5658 4.94253 103.396 5.86935 111.788C7.02746 122.274 17.29 129.632 26.2601 129.582C33.6788 129.541 40.577 127.986 46.4341 125.341C55.2533 121.361 61.6904 115.893 63.8654 114.826C64.2637 114.633 64.6684 114.453 65.0787 114.287C65.0917 114.292 65.0954 114.301 65.1083 114.306C65.126 114.315 65.1439 114.325 65.1616 114.334C65.3795 114.451 65.6174 114.569 65.8848 114.692L65.888 114.693C66.835 115.115 68.1178 115.548 69.9118 116.014C70.9061 116.277 74.2874 117.182 75.7257 116.596C76.9617 116.094 77.2571 115.15 76.9299 114.057L76.9364 114.06C76.9558 114.065 76.9757 114.07 76.9956 114.074C77.2039 114.126 77.4148 114.158 77.6295 114.181C77.651 114.183 77.672 114.186 77.6935 114.187C78.0158 114.215 78.329 114.209 78.6481 114.169C80.2662 113.962 80.5492 113.014 80.0191 111.813C80.0191 111.813 80.0278 111.808 80.0342 111.811C80.0746 111.816 80.1149 111.82 80.1553 111.823C80.3336 111.84 80.5129 111.843 80.6918 111.834C80.7079 111.834 80.7241 111.832 80.7407 111.831C80.9944 111.813 81.2435 111.754 81.4779 111.655C82.6838 111.135 82.9754 110.337 82.6466 109.458L82.6665 109.465C82.7204 109.489 82.7741 109.513 82.8285 109.534C83.0238 109.613 83.2229 109.678 83.4241 109.727C83.4333 109.729 83.4419 109.731 83.4505 109.733C83.6646 109.783 83.8831 109.787 84.1021 109.772C85.1842 109.693 85.8293 109.211 86.0371 108.484C86.0414 108.468 86.0462 108.451 86.05 108.435C86.0548 108.416 86.0591 108.397 86.064 108.378C86.0672 108.363 86.0699 108.348 86.0726 108.333C86.0796 108.3 86.0855 108.264 86.0903 108.229C86.0925 108.212 86.0951 108.194 86.0968 108.177C86.1027 108.123 86.1066 108.068 86.1086 108.014C86.1086 108.007 86.1091 108 86.1091 107.993C86.1097 107.968 86.1102 107.943 86.1102 107.918C86.1088 107.805 86.1008 107.693 86.086 107.581L86.0861 107.58Z" fill="white" stroke="#292B2E" stroke-width="0.807692" stroke-linecap="round" stroke-linejoin="round"/>
<path d="M71.3411 88.4329C71.2692 88.4328 71.1999 88.4057 71.147 88.357C71.0941 88.3083 71.0614 88.2415 71.0554 88.1699C71.0494 88.0983 71.0706 88.027 71.1146 87.9702C71.1587 87.9134 71.2224 87.8752 71.2934 87.8631C73.1054 87.5559 73.7061 86.5331 73.4357 84.2152L71.6589 68.3877C71.6508 68.3123 71.673 68.2368 71.7205 68.1776C71.768 68.1185 71.837 68.0806 71.9124 68.0721C71.9878 68.0636 72.0635 68.0854 72.1229 68.1325C72.1824 68.1797 72.2207 68.2484 72.2296 68.3237L74.0063 84.15C74.16 85.467 74.0436 86.4016 73.6399 87.0897C73.2203 87.8051 72.4841 88.2432 71.3894 88.4287C71.3734 88.4314 71.3572 88.4328 71.341 88.4328L71.3411 88.4329Z" fill="white"/>
<path d="M73.7782 115.264L73.356 115.433L70.8809 120.595L66.7914 117.906L68.2442 114.896L68.7565 113.838C70.7172 113.751 72.4381 114.238 73.7783 115.264H73.7782Z" fill="#BFEBFF"/>
<path d="M150.767 129.603C147.967 129.629 145.166 129.656 142.366 129.682L137.047 129.732C137.007 129.733 136.967 129.733 136.927 129.734C137.005 129.362 137.083 128.991 137.162 128.618C138.408 122.684 139.728 116.657 141.05 110.627C143.006 101.707 143.006 101.8 143.013 101.659C143.17 98.2522 142.674 94.4237 145.071 90.7079C145.202 90.5042 145.339 90.3046 145.483 90.1094C147.126 97.323 148.632 104.712 150.166 112.066C151.128 116.674 152.1 121.269 153.126 125.796C153.173 126.01 153.222 126.224 153.271 126.437C153.638 128.049 152.421 129.587 150.767 129.603Z" fill="#292B2E"/>
<path d="M133.981 133.44H96.1786C94.5325 133.44 93.3031 131.927 93.641 130.318L102.025 90.375H145.126L136.518 131.381C136.267 132.581 135.208 133.44 133.981 133.44L133.981 133.44Z" fill="white"/>
<path d="M133.981 133.765H96.1789C95.2966 133.765 94.4716 133.373 93.9154 132.688C93.3592 132.004 93.1441 131.117 93.3252 130.254L101.763 90.0547H145.524L136.835 131.45C136.553 132.792 135.353 133.765 133.981 133.765V133.765ZM102.288 90.7002L93.9575 130.386C93.8875 130.717 93.8925 131.058 93.972 131.386C94.0515 131.714 94.2035 132.02 94.4169 132.281C94.6293 132.544 94.8978 132.755 95.2027 132.9C95.5076 133.046 95.8412 133.12 96.1789 133.12H133.981C135.049 133.12 135.983 132.362 136.203 131.317L144.729 90.7002H102.288Z" fill="#292B2E"/>
<path d="M114.227 133.212L123.261 90.0391L123.893 90.1711L114.859 133.344L114.227 133.212ZM103.465 133.427L112.499 90.2541L113.131 90.3862L104.097 133.559L103.465 133.427ZM125.258 133.427L134.291 90.2541L134.924 90.3862L125.89 133.559L125.258 133.427Z" fill="#292B2E"/>
<path d="M97.4316 111.339H140.627V111.984H97.4316V111.339ZM99.853 100.586H143.048V101.231H99.853V100.586ZM95.1178 122.36H138.313V123.006H95.1178V122.36Z" fill="#292B2E"/>
<path d="M104.058 84.8906H143.215C144.467 84.8906 145.483 85.9061 145.483 87.1567V90.1058H101.79V87.1567C101.79 85.9061 102.806 84.8906 104.058 84.8906Z" fill="#BFEBFF"/>
<path d="M149.344 123.779C149.901 124.561 152.901 123.774 155.39 121.387C157.594 119.274 156.454 116.035 154.352 117.855C151.833 120.036 148.528 122.633 149.344 123.779Z" fill="white"/>
<path d="M150.162 124.292C150.089 124.292 150.019 124.289 149.952 124.283C149.584 124.249 149.32 124.123 149.169 123.911C148.328 122.73 150.771 120.642 153.357 118.432C153.647 118.184 153.934 117.939 154.211 117.699C155.421 116.651 156.16 117.276 156.357 117.492C157.111 118.317 156.96 120.187 155.539 121.55C153.639 123.371 151.419 124.292 150.162 124.293V124.292ZM155.505 117.542C155.209 117.542 154.862 117.705 154.493 118.024C154.215 118.265 153.928 118.511 153.637 118.759C152.467 119.759 151.257 120.794 150.429 121.703C149.572 122.646 149.266 123.305 149.52 123.661C149.593 123.764 149.761 123.833 149.993 123.855C151.12 123.961 153.392 123.011 155.241 121.239C156.547 119.986 156.586 118.381 156.039 117.782C155.893 117.622 155.712 117.542 155.505 117.542Z" fill="#292B2E"/>
<path d="M148.369 120.95C148.74 121.425 151.019 121.392 155.35 117.304C157.738 115.05 155.753 111.181 153.482 113.558C150.761 116.406 147.343 119.639 148.369 120.95L148.369 120.95Z" fill="white"/>
<path d="M148.987 121.366C148.938 121.366 148.896 121.364 148.861 121.362C148.554 121.338 148.326 121.241 148.199 121.079C147.172 119.766 149.71 117.144 152.398 114.368C152.711 114.044 153.023 113.723 153.326 113.406C153.953 112.749 154.641 112.477 155.265 112.64C155.874 112.799 156.357 113.356 156.555 114.129C156.787 115.037 156.631 116.387 155.498 117.457C151.749 120.995 149.684 121.366 148.987 121.366L148.987 121.366ZM148.538 120.814C148.573 120.859 148.687 120.917 148.893 120.932C149.921 121.011 152.117 120.055 155.202 117.144C156.2 116.203 156.339 115.025 156.137 114.236C155.979 113.617 155.612 113.175 155.155 113.056C154.684 112.933 154.159 113.157 153.637 113.703C153.334 114.02 153.022 114.343 152.708 114.667C151.472 115.944 150.194 117.264 149.355 118.392C148.477 119.57 148.203 120.385 148.538 120.814Z" fill="#292B2E"/>
<path d="M146.872 117.764C147.324 117.984 149.42 117.662 153.482 113.555C157.037 109.959 154.054 105.909 151.498 108.74C148.859 111.664 145.375 117.035 146.872 117.764Z" fill="white"/>
<path d="M147.165 118.035C146.999 118.035 146.871 118.008 146.778 117.963C146.536 117.845 146.379 117.628 146.322 117.334C145.995 115.652 149.08 111.103 151.338 108.601C152.068 107.792 152.902 107.445 153.685 107.624C154.396 107.787 154.965 108.378 155.205 109.205C155.616 110.617 155.029 112.301 153.635 113.711C150.227 117.157 148.104 118.035 147.165 118.035ZM146.967 117.576C147.286 117.731 149.302 117.48 153.328 113.409C154.611 112.111 155.158 110.585 154.792 109.326C154.595 108.651 154.145 108.171 153.589 108.044C152.965 107.901 152.279 108.201 151.657 108.89C149.17 111.646 146.482 115.899 146.744 117.253C146.786 117.466 146.891 117.539 146.967 117.576Z" fill="#292B2E"/>
<path d="M146.343 113.818C147.052 114.075 148.773 113.055 152.111 109.152C155.457 105.238 150.432 102.212 148.373 105.765C146.398 109.172 145.074 113.359 146.343 113.818Z" fill="white"/>
<path d="M146.571 114.076C146.462 114.076 146.361 114.059 146.269 114.026C146.022 113.936 145.844 113.744 145.739 113.456C145.22 112.032 146.613 108.378 148.187 105.662C148.846 104.525 149.867 103.913 150.989 103.982C151.978 104.044 152.862 104.659 153.24 105.55C153.711 106.662 153.36 108.028 152.275 109.297C149.56 112.471 147.644 114.076 146.571 114.076ZM146.416 113.621C146.702 113.724 147.944 113.698 151.947 109.017C153.282 107.456 153.081 106.28 152.843 105.718C152.528 104.976 151.79 104.463 150.962 104.412C150.009 104.353 149.133 104.887 148.559 105.878C146.825 108.871 145.741 112.204 146.143 113.309C146.204 113.474 146.293 113.576 146.416 113.621H146.416ZM109.109 82.3207C107.832 82.3207 106.767 83.4321 106.543 84.8949C106.514 85.0839 106.5 85.2749 106.5 85.4662C106.5 85.7206 106.525 85.9683 106.573 86.2052C106.569 86.2069 106.566 86.2092 106.563 86.2109C106.545 86.2211 106.527 86.2313 106.51 86.2426C106.44 86.2858 106.374 86.3349 106.312 86.3894V86.39C106.292 86.407 106.274 86.4246 106.255 86.4433C106.237 86.4614 106.219 86.4807 106.2 86.4994V86.4999C106.183 86.5192 106.166 86.539 106.149 86.5595C106.133 86.5793 106.117 86.6003 106.102 86.6212C106.087 86.6416 106.072 86.6623 106.059 86.6836C106.057 86.6859 106.055 86.6887 106.053 86.6915C106.042 86.7085 106.031 86.7261 106.022 86.7437C106.018 86.7492 106.014 86.7551 106.011 86.7612C106.001 86.7788 105.992 86.7964 105.983 86.8145C105.98 86.8193 105.977 86.8242 105.975 86.8292C105.966 86.8462 105.958 86.8638 105.95 86.8814L105.945 86.8939V86.8944C105.938 86.9097 105.931 86.9251 105.925 86.9409C105.92 86.9526 105.916 86.9646 105.912 86.9766C105.904 86.9982 105.896 87.0197 105.889 87.0418C105.888 87.0452 105.887 87.0481 105.886 87.0514C105.88 87.0713 105.874 87.0923 105.869 87.1126C105.863 87.1359 105.858 87.1591 105.853 87.1823C105.852 87.1835 105.852 87.1846 105.852 87.1857C105.848 87.2084 105.844 87.231 105.84 87.2543C105.829 87.3274 105.823 87.4013 105.823 87.4754C105.823 88.2773 106.474 88.9274 107.276 88.9274C107.321 88.9274 107.367 88.9251 107.412 88.9206H107.413C107.421 88.9194 107.43 88.9188 107.439 88.9178C107.458 88.916 107.477 88.9132 107.496 88.9104H107.497C107.524 88.9059 107.551 88.9013 107.578 88.8957C107.604 88.89 107.629 88.8843 107.654 88.8775C107.658 88.8764 107.661 88.8752 107.665 88.8742C107.691 88.8669 107.717 88.859 107.743 88.8504C107.762 88.8442 107.781 88.8374 107.799 88.83C107.807 88.8272 107.813 88.825 107.82 88.8215C107.843 88.8125 107.865 88.8028 107.887 88.7926C108.03 88.7267 108.161 88.6376 108.274 88.5291C108.279 88.5251 108.284 88.5205 108.289 88.516C108.302 88.5035 108.314 88.4905 108.327 88.4775C108.329 88.4752 108.332 88.473 108.333 88.4701H108.334C108.344 88.4588 108.355 88.4475 108.365 88.4361C108.377 88.4231 108.389 88.4095 108.399 88.3953C108.413 88.3789 108.426 88.3619 108.44 88.3443C108.451 88.3285 108.463 88.312 108.475 88.2955C108.49 88.2734 108.504 88.2514 108.518 88.2287C108.53 88.2083 108.542 88.1884 108.553 88.1675C108.564 88.1471 108.575 88.1261 108.585 88.1052C108.595 88.0837 108.605 88.0621 108.614 88.0406C108.621 88.0264 108.626 88.012 108.631 87.9974C108.635 87.9901 108.637 87.9832 108.64 87.9759V87.9748C108.646 87.9584 108.652 87.9419 108.657 87.9255C108.659 87.9204 108.661 87.9159 108.662 87.9108C108.663 87.908 108.664 87.9051 108.664 87.9023C108.671 87.8813 108.677 87.8597 108.682 87.8382C108.695 87.7917 108.704 87.7447 108.711 87.6966C108.715 87.6756 108.718 87.6546 108.72 87.6331C108.721 87.6254 108.722 87.6176 108.722 87.6098C108.723 87.5968 108.724 87.5843 108.725 87.5713C108.726 87.5611 108.727 87.5504 108.727 87.5396C108.728 87.5187 108.728 87.4971 108.728 87.4756C108.728 87.4693 108.728 87.4637 108.728 87.4574C108.728 87.4512 108.728 87.4455 108.727 87.4393C108.727 87.4198 108.726 87.4003 108.725 87.3809C108.721 87.3235 108.714 87.2663 108.703 87.2097C108.7 87.1912 108.696 87.1727 108.692 87.1542C108.688 87.1358 108.684 87.1174 108.678 87.0993C108.671 87.0722 108.663 87.0454 108.655 87.0188C108.651 87.0063 108.646 86.9939 108.641 86.9814C108.637 86.9674 108.631 86.9536 108.626 86.94C108.619 86.923 108.612 86.9054 108.604 86.889C108.582 86.8381 108.557 86.7887 108.528 86.7411C108.519 86.7253 108.51 86.7098 108.5 86.6946C108.491 86.6804 108.482 86.6669 108.472 86.6526C108.45 86.6213 108.427 86.5908 108.403 86.5614C108.381 86.533 108.356 86.5055 108.331 86.4792C108.319 86.4656 108.306 86.4526 108.293 86.4401C108.255 86.4021 108.214 86.3663 108.171 86.333L108.169 86.3313C108.155 86.3206 108.141 86.3098 108.126 86.299C108.099 86.2799 108.072 86.2616 108.045 86.2441C108.025 86.2321 108.005 86.2206 107.985 86.2095C107.97 86.2005 107.954 86.1925 107.939 86.184C107.939 86.184 107.938 86.184 107.937 86.1834C107.923 86.176 107.908 86.1692 107.893 86.1619C107.889 86.1602 107.885 86.1585 107.881 86.1562C107.85 86.1415 107.818 86.1284 107.786 86.1171C107.768 86.1103 107.751 86.1041 107.733 86.0984V86.0978C107.73 86.0967 107.727 86.0961 107.724 86.095C107.713 86.0911 107.702 86.0877 107.691 86.0849C107.677 86.0804 107.663 86.0764 107.649 86.073C107.645 86.0718 107.64 86.0702 107.635 86.069C107.62 86.0651 107.605 86.0617 107.59 86.0588C107.555 86.0509 107.52 86.0441 107.484 86.0395C107.468 86.0367 107.452 86.035 107.436 86.0333C107.429 86.0321 107.421 86.0316 107.413 86.031C107.397 86.0293 107.382 86.0281 107.365 86.0271C107.336 86.0253 107.305 86.0243 107.275 86.0243C107.26 86.0243 107.244 86.0243 107.228 86.0254C107.19 86.026 107.153 86.0288 107.116 86.0328C107.083 85.8459 107.067 85.6564 107.067 85.4666C107.067 85.2705 107.084 85.0789 107.117 84.8953C107.324 83.7471 108.138 82.8879 109.109 82.8879C110.079 82.8879 110.894 83.7471 111.1 84.8953H111.675C111.451 83.4325 110.385 82.3212 109.109 82.3212L109.109 82.3207ZM120.226 82.3207C118.95 82.3207 117.884 83.4321 117.66 84.8949C117.632 85.0839 117.617 85.2749 117.617 85.4662C117.617 85.6912 117.637 85.9105 117.675 86.1219C117.668 86.1243 117.661 86.1269 117.654 86.1298C117.637 86.1366 117.621 86.144 117.604 86.1508C117.598 86.1536 117.592 86.1564 117.587 86.1592C117.575 86.1643 117.563 86.17 117.552 86.1762C117.545 86.1791 117.539 86.1825 117.533 86.1859C117.517 86.1938 117.502 86.2022 117.486 86.2108C117.396 86.2607 117.312 86.3206 117.236 86.3893C117.216 86.4069 117.197 86.4251 117.178 86.4432C117.122 86.4979 117.071 86.5575 117.025 86.6212C117.01 86.6415 116.995 86.662 116.982 86.6835C116.98 86.6858 116.978 86.6886 116.976 86.6915C116.966 86.7085 116.955 86.726 116.945 86.7436C116.941 86.7493 116.938 86.7549 116.934 86.7612C116.924 86.7787 116.915 86.7963 116.905 86.8145C116.903 86.8184 116.901 86.8229 116.899 86.8275C116.888 86.849 116.878 86.8711 116.868 86.8938V86.8944C116.858 86.9166 116.849 86.9391 116.84 86.9618C116.831 86.9845 116.823 87.0077 116.816 87.0309C116.81 87.05 116.804 87.0693 116.799 87.0887C116.794 87.1031 116.79 87.1176 116.788 87.1324C116.783 87.1488 116.779 87.1654 116.776 87.1822C116.776 87.1834 116.775 87.1845 116.775 87.1856C116.771 87.2082 116.767 87.2309 116.763 87.2541C116.759 87.278 116.756 87.3023 116.754 87.3267C116.748 87.376 116.746 87.4255 116.746 87.4751C116.746 88.2771 117.397 88.9272 118.199 88.9272C118.245 88.9272 118.291 88.9249 118.336 88.9203C118.343 88.9198 118.351 88.9186 118.359 88.9181C118.379 88.9158 118.399 88.9135 118.419 88.9101H118.421C118.448 88.9056 118.475 88.9011 118.501 88.8954C118.526 88.8903 118.55 88.8841 118.574 88.8778C118.581 88.8761 118.588 88.8744 118.595 88.8721C118.614 88.8671 118.633 88.8608 118.652 88.8546C118.673 88.8478 118.695 88.8404 118.716 88.8319C118.726 88.8285 118.735 88.8251 118.745 88.8206C118.765 88.8126 118.785 88.8041 118.805 88.795C118.808 88.7937 118.812 88.792 118.815 88.7899C118.832 88.782 118.85 88.7735 118.867 88.7644C118.973 88.7102 119.071 88.6428 119.16 88.5638C119.173 88.5525 119.186 88.5411 119.198 88.5286C119.203 88.5247 119.208 88.5201 119.212 88.5156C119.225 88.5031 119.238 88.4901 119.25 88.4771L119.254 88.4737C119.266 88.4612 119.277 88.4487 119.288 88.4358C119.296 88.4278 119.303 88.4193 119.31 88.4108C119.314 88.4057 119.319 88.4006 119.323 88.395C119.337 88.3785 119.35 88.3615 119.363 88.344C119.375 88.3281 119.387 88.3117 119.398 88.2952C119.413 88.2731 119.428 88.251 119.441 88.2283C119.453 88.208 119.465 88.1881 119.477 88.1671C119.488 88.1468 119.498 88.1258 119.508 88.1048C119.519 88.0833 119.528 88.0617 119.538 88.0402C119.547 88.0187 119.555 87.9966 119.563 87.9744C119.567 87.9642 119.571 87.9541 119.574 87.9438L119.581 87.9251C119.582 87.9211 119.583 87.9177 119.584 87.9137C119.586 87.9099 119.587 87.9059 119.588 87.9018C119.595 87.8809 119.601 87.8593 119.606 87.8378C119.612 87.8163 119.617 87.7947 119.621 87.7726C119.622 87.7692 119.623 87.7652 119.624 87.7618C119.628 87.7403 119.631 87.7182 119.635 87.696C119.638 87.6751 119.641 87.6541 119.643 87.6326C119.644 87.6249 119.645 87.6171 119.646 87.6093C119.647 87.5963 119.648 87.5838 119.648 87.5708C119.65 87.5606 119.65 87.5499 119.65 87.5391C119.651 87.5182 119.652 87.4966 119.652 87.4751C119.652 87.4688 119.652 87.4632 119.651 87.4569C119.651 87.4507 119.651 87.445 119.651 87.4388C119.65 87.4193 119.65 87.3998 119.648 87.3804C119.645 87.323 119.637 87.2658 119.627 87.2092C119.624 87.1907 119.62 87.1722 119.616 87.1537C119.612 87.1353 119.607 87.1169 119.602 87.0988C119.595 87.0718 119.587 87.045 119.578 87.0183C119.574 87.0057 119.57 86.9932 119.565 86.9809C119.56 86.9669 119.555 86.9531 119.549 86.9395C119.542 86.9225 119.536 86.9049 119.528 86.8885C119.505 86.8377 119.48 86.7883 119.452 86.7406C119.443 86.7248 119.433 86.7093 119.423 86.6941C119.415 86.6799 119.405 86.6664 119.396 86.6521C119.374 86.6208 119.351 86.5903 119.327 86.5609C119.304 86.5325 119.28 86.505 119.255 86.4787C119.242 86.4651 119.23 86.4521 119.217 86.4396C119.181 86.404 119.142 86.3703 119.102 86.3388C119.084 86.3241 119.065 86.3098 119.046 86.2957C119.021 86.2775 118.995 86.2605 118.968 86.2435C118.947 86.2305 118.925 86.218 118.903 86.2056C118.894 86.1999 118.883 86.1948 118.873 86.1897C118.849 86.1767 118.824 86.1648 118.799 86.1529C118.77 86.1395 118.74 86.1274 118.71 86.1166C118.692 86.1098 118.675 86.1035 118.657 86.0978V86.0973C118.652 86.0956 118.647 86.0939 118.642 86.0928C118.635 86.09 118.627 86.0875 118.62 86.0854C118.601 86.0795 118.581 86.0742 118.562 86.0695C118.542 86.0644 118.523 86.0599 118.503 86.0553C118.47 86.0485 118.437 86.0428 118.405 86.0383C118.39 86.0359 118.375 86.034 118.36 86.0326C118.352 86.0315 118.344 86.0309 118.336 86.0298L118.291 86.0264C118.282 86.0258 118.274 86.0253 118.265 86.0253C118.254 86.0247 118.243 86.0241 118.233 86.0241C118.2 85.8398 118.184 85.653 118.184 85.4659C118.184 85.2698 118.202 85.0782 118.235 84.8946C118.441 83.7464 119.256 82.8872 120.226 82.8872C121.197 82.8872 122.011 83.7464 122.218 84.8946H122.792C122.569 83.4318 121.503 82.3205 120.226 82.3205L120.226 82.3207ZM130.096 82.3207C128.819 82.3207 127.753 83.4321 127.53 84.8949C127.501 85.0839 127.487 85.2749 127.487 85.4662C127.487 85.7523 127.519 86.0301 127.579 86.2942C127.537 86.3236 127.497 86.3553 127.459 86.3893V86.3899C127.439 86.4069 127.42 86.4245 127.402 86.4432C127.384 86.4614 127.365 86.4806 127.347 86.4993V86.4999C127.33 86.5192 127.313 86.539 127.296 86.5594C127.28 86.5793 127.264 86.6002 127.249 86.6212C127.234 86.6415 127.219 86.662 127.205 86.6835C127.204 86.6858 127.202 86.6886 127.2 86.6915C127.189 86.7085 127.178 86.726 127.169 86.7436C127.165 86.7491 127.161 86.755 127.158 86.7612C127.148 86.7787 127.138 86.7963 127.129 86.8145C127.127 86.8196 127.124 86.8241 127.122 86.8292C127.113 86.8462 127.105 86.8637 127.097 86.8813L127.091 86.8938V86.8944C127.085 86.9096 127.078 86.925 127.072 86.9408C127.067 86.9526 127.063 86.9645 127.059 86.9766C127.051 86.9981 127.043 87.0196 127.036 87.0418C127.035 87.0451 127.034 87.048 127.033 87.0514C127.027 87.0712 127.021 87.0922 127.016 87.1126C127.01 87.1358 127.005 87.159 127 87.1823C126.999 87.1834 126.999 87.1846 126.999 87.1856C126.994 87.2083 126.991 87.231 126.987 87.2542C126.976 87.3273 126.97 87.4013 126.97 87.4753C126.97 88.2772 127.621 88.9273 128.423 88.9273C128.468 88.9273 128.514 88.925 128.559 88.9205H128.56C128.569 88.9193 128.577 88.9188 128.586 88.9177C128.605 88.916 128.624 88.9132 128.643 88.9103H128.644C128.671 88.9058 128.699 88.9013 128.725 88.8956C128.751 88.8899 128.776 88.8843 128.801 88.8775C128.805 88.8763 128.809 88.8752 128.812 88.8741C128.835 88.8678 128.857 88.861 128.88 88.8537L128.89 88.8503C128.909 88.8441 128.928 88.8373 128.946 88.83C128.954 88.8272 128.961 88.8249 128.967 88.8214C129.015 88.8024 129.061 88.7808 129.106 88.7568C129.206 88.7038 129.299 88.6391 129.384 88.5642C129.397 88.5529 129.409 88.5412 129.422 88.529C129.426 88.5251 129.431 88.5205 129.436 88.516C129.438 88.5142 129.439 88.5126 129.441 88.5114C129.452 88.5001 129.464 88.4888 129.474 88.4774L129.477 88.4741C129.489 88.4616 129.501 88.4491 129.512 88.4361C129.524 88.4231 129.536 88.4095 129.546 88.3953C129.561 88.3789 129.574 88.3619 129.587 88.3443C129.599 88.3285 129.61 88.312 129.622 88.2955C129.636 88.2734 129.651 88.2514 129.665 88.2287C129.677 88.2083 129.689 88.1884 129.7 88.1675C129.711 88.1471 129.722 88.1261 129.732 88.1052C129.742 88.0837 129.752 88.0621 129.761 88.0406C129.765 88.0315 129.769 88.0224 129.773 88.0128C129.775 88.0066 129.778 88.0003 129.78 87.9941C129.783 87.9878 129.785 87.9816 129.787 87.9748C129.793 87.9584 129.799 87.9419 129.804 87.9255C129.806 87.9204 129.808 87.9159 129.809 87.9108C129.81 87.908 129.811 87.9051 129.811 87.9023C129.818 87.8813 129.824 87.8597 129.829 87.8382C129.842 87.7917 129.852 87.7447 129.858 87.6966C129.862 87.6756 129.865 87.6546 129.867 87.6331C129.868 87.6254 129.869 87.6176 129.869 87.6098C129.87 87.5968 129.871 87.5843 129.872 87.5713C129.873 87.5611 129.874 87.5504 129.874 87.5396C129.875 87.5187 129.875 87.4971 129.875 87.4756C129.875 87.4693 129.875 87.4637 129.875 87.4574C129.875 87.4512 129.875 87.4455 129.874 87.4393C129.874 87.4198 129.873 87.4003 129.872 87.3809C129.868 87.3235 129.861 87.2663 129.85 87.2097C129.847 87.1912 129.843 87.1727 129.839 87.1542C129.835 87.1358 129.831 87.1174 129.825 87.0993C129.811 87.0451 129.794 86.9919 129.773 86.94C129.766 86.923 129.759 86.9054 129.751 86.889C129.729 86.8381 129.704 86.7887 129.675 86.7411C129.666 86.7253 129.657 86.7098 129.647 86.6946C129.638 86.6804 129.629 86.6669 129.619 86.6526C129.598 86.6213 129.575 86.5908 129.55 86.5614C129.528 86.533 129.504 86.5055 129.478 86.4792C129.466 86.4656 129.453 86.4526 129.44 86.4401C129.402 86.4021 129.361 86.3663 129.318 86.333L129.316 86.3313C129.302 86.3206 129.288 86.3098 129.273 86.299C129.247 86.2799 129.22 86.2616 129.192 86.2441C129.172 86.2321 129.153 86.2206 129.132 86.2095C129.117 86.2005 129.102 86.1925 129.086 86.184C129.086 86.184 129.085 86.184 129.085 86.1834C129.07 86.176 129.055 86.1692 129.041 86.1619C129.037 86.1602 129.032 86.1585 129.028 86.1562C128.997 86.1415 128.966 86.1284 128.933 86.1171C128.916 86.1103 128.898 86.1041 128.881 86.0984V86.0978C128.878 86.0967 128.874 86.0961 128.872 86.095C128.861 86.0911 128.849 86.0877 128.838 86.0849C128.824 86.0804 128.811 86.0764 128.797 86.073C128.792 86.0718 128.788 86.0702 128.782 86.069C128.768 86.0651 128.753 86.0617 128.738 86.0588C128.702 86.0509 128.667 86.0441 128.631 86.0395C128.616 86.0367 128.599 86.035 128.583 86.0333C128.576 86.0321 128.568 86.0316 128.561 86.031C128.545 86.0293 128.529 86.0281 128.512 86.0271C128.483 86.0253 128.453 86.0243 128.423 86.0243C128.407 86.0243 128.392 86.0243 128.376 86.0254C128.332 86.0265 128.289 86.0299 128.245 86.0356C128.224 86.0379 128.203 86.0413 128.183 86.0446C128.182 86.0446 128.181 86.0446 128.18 86.0452C128.159 86.0486 128.139 86.052 128.119 86.0565C128.116 86.0571 128.112 86.0577 128.109 86.0588C128.072 85.8635 128.054 85.6653 128.054 85.4666C128.054 85.2705 128.072 85.0789 128.105 84.8953C128.311 83.7471 129.126 82.8879 130.096 82.8879C131.067 82.8879 131.881 83.7471 132.088 84.8953H132.662C132.439 83.4325 131.373 82.3212 130.096 82.3212L130.096 82.3207ZM141.213 82.3207C139.936 82.3207 138.871 83.4321 138.647 84.8949C138.618 85.0839 138.604 85.2749 138.604 85.4662C138.604 85.715 138.628 85.9564 138.674 86.1887C138.66 86.1954 138.646 86.2028 138.633 86.2108C138.543 86.2607 138.459 86.3206 138.382 86.3893C138.363 86.4069 138.343 86.4251 138.325 86.4432C138.306 86.4614 138.288 86.4801 138.271 86.4993C138.235 86.5378 138.203 86.5786 138.171 86.6212C138.156 86.6415 138.142 86.6623 138.128 86.6835C138.126 86.6858 138.125 86.6886 138.123 86.6915C138.112 86.7085 138.102 86.726 138.091 86.7436C138.088 86.7493 138.084 86.7549 138.081 86.7612C138.071 86.7787 138.061 86.7963 138.052 86.8145C138.05 86.8184 138.048 86.8229 138.046 86.8275C138.035 86.849 138.024 86.8711 138.015 86.8938V86.8944C138.005 86.9166 137.996 86.9391 137.987 86.9618C137.978 86.9845 137.97 87.0077 137.963 87.0309C137.956 87.05 137.951 87.0693 137.946 87.0887C137.941 87.1031 137.937 87.1176 137.934 87.1324C137.93 87.1488 137.926 87.1655 137.922 87.1822C137.922 87.1834 137.922 87.1845 137.922 87.1856C137.917 87.2082 137.913 87.2309 137.91 87.2541C137.906 87.278 137.903 87.3023 137.9 87.3267C137.895 87.376 137.893 87.4255 137.893 87.4751C137.893 88.2771 138.543 88.9272 139.346 88.9272C139.392 88.9272 139.437 88.9249 139.483 88.9203C139.49 88.9198 139.498 88.9186 139.505 88.9181C139.526 88.9158 139.546 88.9135 139.566 88.9101H139.567C139.594 88.9056 139.622 88.9011 139.648 88.8954C139.673 88.8903 139.697 88.8841 139.721 88.8778C139.728 88.8761 139.735 88.8744 139.742 88.8721C139.761 88.8671 139.78 88.8608 139.798 88.8546C139.82 88.8478 139.842 88.8404 139.863 88.8319C139.872 88.8285 139.882 88.8251 139.892 88.8206C139.912 88.8125 139.931 88.804 139.951 88.795C139.955 88.7937 139.958 88.792 139.962 88.7899C139.979 88.782 139.996 88.7735 140.013 88.7644C140.119 88.7102 140.218 88.6428 140.307 88.5638C140.32 88.5525 140.332 88.5411 140.345 88.5286C140.349 88.5247 140.354 88.5201 140.359 88.5156C140.372 88.5031 140.384 88.4901 140.397 88.4771C140.403 88.472 140.408 88.4657 140.413 88.4601H140.413C140.421 88.4521 140.428 88.4442 140.435 88.4357C140.447 88.4226 140.459 88.4091 140.47 88.3949C140.484 88.3785 140.497 88.3615 140.51 88.3439C140.522 88.328 140.534 88.3116 140.545 88.2951C140.56 88.273 140.574 88.2509 140.588 88.2283C140.6 88.2079 140.612 88.188 140.623 88.1671C140.635 88.1467 140.645 88.1257 140.655 88.1047C140.665 88.0832 140.675 88.0616 140.685 88.0401C140.694 88.0186 140.702 87.9965 140.71 87.9743C140.711 87.9718 140.712 87.9692 140.713 87.9664H140.714C140.719 87.9528 140.723 87.9392 140.728 87.925C140.729 87.9199 140.731 87.9154 140.732 87.9103C140.733 87.9075 140.734 87.9046 140.735 87.9018C140.741 87.8808 140.748 87.8592 140.753 87.8377C140.758 87.8162 140.764 87.7947 140.768 87.7725C140.769 87.7691 140.77 87.7651 140.77 87.7618C140.775 87.7402 140.778 87.7181 140.782 87.696C140.785 87.675 140.788 87.654 140.79 87.6325C140.791 87.6248 140.792 87.617 140.792 87.6093C140.794 87.5962 140.795 87.5837 140.795 87.5707C140.796 87.5606 140.797 87.5498 140.797 87.539C140.798 87.5181 140.799 87.4965 140.799 87.475C140.799 87.4688 140.799 87.4631 140.798 87.4568C140.798 87.4506 140.798 87.4449 140.798 87.4387C140.797 87.4192 140.796 87.3998 140.795 87.3803C140.791 87.3229 140.784 87.2658 140.774 87.2092C140.77 87.1906 140.766 87.1721 140.762 87.1537C140.758 87.1352 140.754 87.1169 140.749 87.0987C140.741 87.0717 140.734 87.0449 140.725 87.0182C140.721 87.0057 140.717 86.9932 140.712 86.9808C140.707 86.9669 140.702 86.9531 140.696 86.9394C140.689 86.9224 140.682 86.9048 140.674 86.8884C140.652 86.8377 140.627 86.7883 140.598 86.7405C140.59 86.7247 140.58 86.7092 140.57 86.694C140.562 86.6798 140.552 86.6663 140.542 86.6521C140.521 86.6207 140.498 86.5902 140.474 86.5608C140.451 86.5324 140.427 86.505 140.402 86.4786C140.389 86.465 140.377 86.452 140.364 86.4395C140.327 86.4039 140.289 86.3702 140.249 86.3387C140.23 86.3241 140.212 86.3097 140.192 86.2956C140.167 86.2775 140.141 86.2605 140.115 86.2435C140.094 86.2305 140.072 86.2178 140.05 86.2055C140.04 86.1998 140.03 86.1948 140.02 86.1897C139.996 86.1766 139.971 86.1647 139.946 86.1528C139.917 86.1394 139.887 86.1273 139.857 86.1165C139.839 86.1097 139.821 86.1034 139.804 86.0978V86.0972C139.799 86.0955 139.794 86.0938 139.789 86.0927C139.763 86.0838 139.736 86.076 139.709 86.0694C139.689 86.0644 139.67 86.0598 139.65 86.0552C139.617 86.0484 139.584 86.0428 139.551 86.0382C139.537 86.0358 139.522 86.0339 139.507 86.0326C139.499 86.0314 139.491 86.0309 139.483 86.0297L139.437 86.0263C139.429 86.0257 139.42 86.0253 139.412 86.0252C139.39 86.024 139.368 86.0235 139.346 86.0235C139.33 86.0235 139.315 86.0235 139.299 86.0246C139.273 86.0253 139.246 86.0268 139.22 86.0291C139.188 85.8431 139.171 85.6546 139.171 85.4658C139.171 85.2697 139.189 85.0781 139.222 84.8945C139.428 83.7463 140.243 82.8871 141.213 82.8871C142.184 82.8871 142.998 83.7468 143.205 84.8951C143.409 84.899 143.605 84.9302 143.792 84.9846C143.599 83.4776 142.516 82.3203 141.213 82.3203L141.213 82.3207Z" fill="#292B2E"/>
<path d="M102.355 97.4003L108.585 92.0703L110.173 93.9237L103.943 99.2537L102.355 97.4003Z" fill="#E6485C"/>
<path d="M103.285 93.7192L105.193 92.1965L109.515 97.6043L107.607 99.127L103.285 93.7192ZM113.075 97.4003L119.305 92.0703L120.893 93.9237L114.663 99.2537L113.075 97.4003Z" fill="#E6485C"/>
<path d="M114.005 93.718L115.913 92.1953L120.235 97.6031L118.327 99.1258L114.005 93.718ZM110.806 107.941L117.036 102.611L118.624 104.464L112.394 109.794L110.806 107.941Z" fill="#E6485C"/>
<path d="M111.736 104.257L113.645 102.734L117.967 108.142L116.059 109.665L111.736 104.257ZM119.428 118.82L125.658 113.49L127.246 115.343L121.016 120.673L119.428 118.82Z" fill="#E6485C"/>
<path d="M120.358 115.14L122.266 113.617L126.588 119.025L124.68 120.548L120.358 115.14ZM95.5482 129.703L101.778 124.373L103.367 126.227L97.1366 131.557L95.5482 129.703Z" fill="#E6485C"/>
<path d="M96.4786 126.023L98.3869 124.5L102.709 129.908L100.801 131.431L96.4786 126.023ZM123.965 97.4004L130.195 92.0703L131.784 93.9237L125.554 99.2537L123.965 97.4004Z" fill="#E6485C"/>
<path d="M124.896 93.7181L126.804 92.1953L131.126 97.6031L129.218 99.1259L124.896 93.7181Z" fill="#E6485C"/>
<path d="M25.2213 109.182C25.1727 109.182 25.1255 109.165 25.0874 109.135C25.0493 109.105 25.0225 109.063 25.0114 109.015C25.0003 108.968 25.0056 108.918 25.0263 108.875C25.047 108.831 25.082 108.795 25.1256 108.773C27.9586 107.371 30.687 106.319 34.1711 105.076C34.1979 105.066 34.2263 105.062 34.2548 105.063C34.2832 105.064 34.3112 105.071 34.337 105.083C34.3629 105.095 34.386 105.112 34.4052 105.133C34.4244 105.154 34.4392 105.179 34.4488 105.206C34.4584 105.232 34.4626 105.261 34.4611 105.289C34.4596 105.318 34.4524 105.345 34.4401 105.371C34.4277 105.397 34.4104 105.42 34.3891 105.439C34.3678 105.458 34.343 105.472 34.316 105.481C30.8466 106.719 28.131 107.766 25.3168 109.159C25.2872 109.174 25.2545 109.182 25.2214 109.182H25.2213ZM73.6221 115.636C73.5684 115.636 73.5167 115.616 73.4771 115.58C71.7029 113.964 68.1215 113.495 65.1468 114.488C65.0926 114.506 65.0334 114.502 64.9823 114.477C64.9312 114.451 64.8923 114.406 64.8742 114.352C64.8561 114.298 64.8603 114.239 64.8858 114.188C64.9113 114.137 64.956 114.098 65.0102 114.08C68.1218 113.041 71.8865 113.549 73.7673 115.262C73.7994 115.291 73.8219 115.33 73.8318 115.372C73.8417 115.414 73.8387 115.458 73.823 115.499C73.8073 115.539 73.7797 115.574 73.7438 115.599C73.708 115.623 73.6655 115.636 73.6221 115.636ZM76.9362 114.272C76.8907 114.272 76.8464 114.258 76.8096 114.231C76.7728 114.204 76.7454 114.166 76.7313 114.123C75.8656 111.451 72.6832 110.486 71.1215 110.35C71.0646 110.345 71.012 110.317 70.9753 110.273C70.9386 110.23 70.9208 110.173 70.9257 110.116C70.9307 110.059 70.9581 110.007 71.0019 109.97C71.0456 109.934 71.1022 109.916 71.1591 109.921C72.8192 110.066 76.2058 111.104 77.1411 113.99C77.1516 114.023 77.1543 114.057 77.1489 114.091C77.1436 114.124 77.1304 114.156 77.1104 114.183C77.0904 114.211 77.0642 114.233 77.0339 114.249C77.0036 114.264 76.9702 114.272 76.9362 114.272ZM80.019 112.025C79.9344 112.025 79.8542 111.975 79.8198 111.892C78.4926 108.675 74.7016 107.155 73.4847 107.12C73.4276 107.119 73.3735 107.094 73.3343 107.053C73.2951 107.011 73.274 106.956 73.2756 106.899C73.279 106.78 73.3787 106.688 73.4971 106.69C74.8342 106.728 78.7968 108.283 80.218 111.728C80.2315 111.761 80.2368 111.796 80.2333 111.831C80.2298 111.867 80.2177 111.9 80.198 111.93C80.1783 111.959 80.1517 111.983 80.1205 112C80.0893 112.017 80.0544 112.025 80.019 112.025ZM82.6466 109.67C82.6033 109.67 82.5609 109.657 82.5252 109.633C82.4894 109.608 82.4618 109.574 82.446 109.534C80.9647 105.75 77.4749 104.619 76.1611 104.193C76.0895 104.17 76.0179 104.147 75.9465 104.123C75.9194 104.114 75.8943 104.1 75.8726 104.082C75.851 104.063 75.8333 104.04 75.8205 104.015C75.8076 103.99 75.8 103.962 75.798 103.933C75.796 103.905 75.7997 103.876 75.8088 103.849C75.8179 103.822 75.8323 103.798 75.8512 103.776C75.87 103.755 75.8929 103.737 75.9185 103.725C75.9442 103.712 75.972 103.705 76.0005 103.703C76.0289 103.702 76.0574 103.706 76.0843 103.715C76.1446 103.736 76.2148 103.758 76.294 103.784C77.5301 104.185 81.2916 105.403 82.8471 109.377C82.8599 109.409 82.8645 109.445 82.8606 109.479C82.8566 109.514 82.8442 109.548 82.8245 109.577C82.8047 109.606 82.7782 109.629 82.7472 109.646C82.7162 109.662 82.6817 109.67 82.6466 109.67Z" fill="#292B2E"/>
</g>
<g clip-path="url(#clip1_271_1955)">
<path d="M47.7332 40.5722C48.235 41.8556 47.6004 40.7713 47.4012 41.6565C47.106 42.9694 40.657 41.6933 38.1335 39.3182C35.9789 37.2898 35.396 34.3246 37.2849 31.9347C39.6535 29.2646 41.7417 30.4595 42.4279 32.4879C44.4054 38.3446 44.6194 38.647 47.7332 40.5722ZM39.5724 63.0768C41.3211 64.5004 41.4908 63.5193 44.6342 62.9956C49.9394 62.1105 51.8653 63.3939 52.7876 64.1168C54.042 65.0978 54.0568 66.6911 55.2669 66.9861C56.8754 67.3697 57.6945 64.1168 56.8607 61.8081C55.4661 57.9651 49.6886 56.7554 49.6886 56.7554C49.6886 56.7554 37.8236 61.6532 39.5724 63.0768Z" fill="#292B2E"/>
<path d="M55.5256 67.2369C55.4223 67.2369 55.319 67.2222 55.2157 67.2C54.4556 67.0156 54.1162 66.4034 53.7547 65.7543C53.4743 65.238 53.1791 64.7143 52.6479 64.2938C51.9543 63.748 50.117 62.3097 44.6715 63.2169C43.6753 63.3866 42.9891 63.5931 42.4357 63.7628C41.2477 64.1242 40.7091 64.2938 39.4326 63.2538C39.2334 63.0915 39.1448 62.8776 39.1817 62.6416C39.226 62.3392 39.3588 61.4171 44.546 58.8502C47.0622 57.6037 49.5857 56.5636 49.6078 56.5489C49.6521 56.5341 49.6964 56.5268 49.7406 56.5341C49.7997 56.5489 51.2311 56.8513 52.8545 57.6332C55.0238 58.6806 56.4848 60.0968 57.0751 61.7269C57.6875 63.4382 57.4514 65.7322 56.5512 66.7353C56.2487 67.0673 55.9019 67.2369 55.5256 67.2369ZM47.8812 62.4793C51.0614 62.4793 52.3527 63.4972 52.9209 63.9472C53.5185 64.4192 53.8506 65.0167 54.1384 65.5404C54.4778 66.1526 54.7434 66.6321 55.3116 66.7722C55.6436 66.8534 55.9461 66.7427 56.2118 66.4477C57.0013 65.5699 57.2079 63.4382 56.6545 61.8892C55.4001 58.4224 50.3457 57.139 49.7111 56.9915C45.8742 58.5847 39.7941 61.513 39.617 62.708C39.6097 62.767 39.6097 62.8334 39.7056 62.9145C40.7976 63.807 41.1813 63.689 42.3029 63.3423C42.8637 63.1727 43.5647 62.9588 44.5903 62.7817C45.8742 62.5678 46.9589 62.4793 47.8812 62.4793ZM11.268 83.575C11.3123 83.5898 11.3492 83.5972 11.3935 83.6119L11.4599 83.6267C11.5779 83.6562 11.6886 83.6857 11.8067 83.7152C11.8509 83.7226 11.9026 83.7373 11.9469 83.7447C11.9764 83.7521 12.0133 83.7595 12.0428 83.7668C12.0723 83.7742 12.0944 83.7742 12.1239 83.7816L11.7329 80.0124L11.6591 79.3116C11.5779 79.319 11.3418 79.319 11.1131 79.319C10.8917 79.319 10.6851 79.3116 10.6261 79.3116H10.6113C8.88469 79.1936 7.24662 78.5003 5.94796 77.357C5.033 76.5382 4.06639 76.6562 4.75999 78.279C5.87418 80.868 8.58954 82.8079 11.268 83.575Z" fill="#292B2E"/>
<path d="M12.1237 83.9976C12.109 83.9976 12.0942 83.9976 12.0795 83.9902L11.9983 83.9754C11.9688 83.9681 11.9319 83.9607 11.9024 83.9533C11.8507 83.9459 11.8064 83.9312 11.7548 83.9238C11.6441 83.8943 11.526 83.8722 11.4006 83.8353L11.3194 83.8132C11.2826 83.8058 11.2457 83.791 11.2014 83.7837C8.20563 82.928 5.60094 80.7963 4.56054 78.3548C4.1252 77.3443 4.3318 76.9239 4.5753 76.7468C4.9221 76.496 5.52715 76.6657 6.10269 77.1894C7.35708 78.3032 8.96564 78.9744 10.6332 79.0924H10.7144C10.8103 79.0924 10.9579 79.0924 11.1202 79.0998C11.5113 79.0998 11.6146 79.0998 11.6441 79.0924C11.7622 79.0777 11.8728 79.1662 11.8876 79.2916L12.3525 83.7615C12.3598 83.8353 12.3303 83.9017 12.2787 83.9459C12.2344 83.9754 12.1828 83.9976 12.1237 83.9976ZM4.95899 77.0714C4.89996 77.0714 4.86307 77.0861 4.83355 77.1009C4.74501 77.1673 4.66384 77.4697 4.97375 78.1778C5.96988 80.5013 8.46388 82.5297 11.3342 83.3559H11.3416C11.3785 83.3632 11.408 83.378 11.4449 83.3854L11.5261 83.4075C11.6441 83.437 11.7548 83.4665 11.8655 83.4886C11.8728 83.4886 11.8802 83.4886 11.8802 83.496L11.467 79.535H11.1202C10.9653 79.535 10.8103 79.535 10.7144 79.5276H10.6037C8.83282 79.4022 7.12834 78.6868 5.80755 77.514C5.44599 77.1894 5.13608 77.0714 4.95899 77.0714Z" fill="#292B2E"/>
<path d="M42.0002 63.589C49.6667 59.1486 55.1638 54.627 55.8131 51.5142C55.9312 50.9389 55.8722 50.489 55.5992 50.2013C55.3261 49.9136 54.9793 49.7145 54.5956 49.6112C53.7028 49.353 52.4706 49.4342 51.0465 49.8325C52.4484 47.9663 52.9723 42.6998 49.615 40.332C46.9365 38.4364 43.0111 38.2372 37.5213 40.7156C30.6148 43.8431 25.708 49.3973 19.9526 57.2898C12.3746 67.6827 10.5078 77.6479 12.1164 84.729C25.0439 71.3782 31.6109 68.4572 42.0002 63.589Z" fill="white"/>
<path d="M12.1164 84.9465C12.0942 84.9465 12.0795 84.9465 12.0573 84.9391C11.9762 84.917 11.9171 84.8506 11.9024 84.7768C11.0538 81.0298 11.2162 76.6778 12.3746 72.1931C13.6806 67.1552 16.1673 62.0952 19.7755 57.1606C23.1402 52.5505 25.6415 49.5263 28.1503 47.0553C31.1534 44.0974 34.1049 42.0174 37.4327 40.5126C42.6273 38.167 46.7668 38.0416 49.7478 40.1512C51.4449 41.3535 52.05 43.1533 52.2492 44.4441C52.5296 46.2218 52.2344 48.1986 51.5335 49.482C52.7878 49.1944 53.8577 49.1649 54.6547 49.4009C55.0752 49.5115 55.4589 49.7328 55.7615 50.05C56.0787 50.3893 56.1673 50.8909 56.0345 51.5547V51.5621C55.7098 53.1185 54.2488 55.0215 51.6884 57.2196C49.3198 59.2554 46.0142 61.5273 42.1182 63.7843C42.1108 63.7843 42.1035 63.7917 42.1035 63.7917L41.4763 64.0868C31.5076 68.7559 24.9184 71.8391 12.2787 84.8875C12.2344 84.9244 12.1754 84.9465 12.1164 84.9465ZM44.7524 39.0964C42.679 39.0964 40.2957 39.7013 37.6172 40.911C34.3411 42.3936 31.4265 44.4441 28.4602 47.3651C25.9662 49.8213 23.4796 52.8234 20.1296 57.4114C16.5583 62.3165 14.0939 67.3249 12.8026 72.3038C11.6958 76.5598 11.5113 80.6831 12.2418 84.2752C24.7487 71.4113 31.3453 68.328 41.2844 63.6811L41.8969 63.3934C49.9987 58.6874 54.9941 54.3429 55.5991 51.4736V51.4662C55.7098 50.9499 55.6508 50.5737 55.4442 50.3524C55.2007 50.1016 54.8908 49.9172 54.5514 49.8287H54.5366C53.7028 49.5853 52.5148 49.6591 51.1055 50.05C51.0169 50.0721 50.9136 50.0426 50.862 49.9615C50.8103 49.8803 50.8103 49.7771 50.8694 49.7033C51.5925 48.7444 52.1459 46.6496 51.8138 44.5179C51.622 43.3082 51.0686 41.6264 49.4896 40.5126C48.1614 39.5685 46.575 39.0964 44.7524 39.0964Z" fill="#292B2E"/>
<path d="M16.1007 63.4844C18.5283 63.986 20.1959 68.2494 18.9784 72.5939C17.7683 76.9384 14.8759 80.6929 11.5702 79.1218C11.762 73.7593 13.3854 68.5592 16.1007 63.4844Z" fill="#292B2E"/>
<path d="M57.404 50.0203C57.8688 48.9209 57.6645 47.7841 56.9475 47.4811C56.2306 47.1782 55.2726 47.8239 54.8077 48.9234C54.3429 50.0228 54.5473 51.1596 55.2642 51.4625C55.9811 51.7654 56.9392 51.1197 57.404 50.0203Z" fill="#292B2E"/>
<path d="M55.6435 51.7455C55.4812 51.7455 55.3262 51.716 55.1787 51.6496C54.3375 51.2955 54.0866 50.0563 54.6031 48.8245C55.1196 47.5927 56.1895 46.9067 57.0307 47.2682C57.4513 47.4452 57.7317 47.8509 57.835 48.4041C57.9309 48.9278 57.8498 49.5253 57.6063 50.0932C57.1783 51.1038 56.3814 51.7455 55.6435 51.7455ZM56.5732 47.6222C56.0198 47.6222 55.3631 48.1828 55.0163 49.0016C54.6105 49.9678 54.7581 51.0005 55.3557 51.2513C55.946 51.5021 56.7946 50.8972 57.2004 49.9236C57.407 49.4294 57.4808 48.9204 57.3997 48.4852C57.3259 48.0795 57.134 47.7992 56.861 47.6812C56.7651 47.637 56.6692 47.6222 56.5732 47.6222Z" fill="#292B2E"/>
<path d="M49.4022 49.9242C49.7775 49.2471 49.6454 48.4566 49.1072 48.1584C48.5689 47.8603 47.8284 48.1674 47.4531 48.8445C47.0778 49.5215 47.2099 50.312 47.7481 50.6102C48.2864 50.9083 49.027 50.6012 49.4022 49.9242Z" fill="#292B2E"/>
<path d="M47.4233 56.0039C47.8586 56.0481 48.3013 56.0334 48.7293 55.9522C48.8695 55.9301 48.958 55.7973 48.9359 55.6572C48.9138 55.5244 48.7809 55.4285 48.6481 55.4507C47.6741 55.6056 47.0469 55.5097 46.8256 55.1777C46.5378 54.7499 46.9289 53.9238 47.106 53.6435C47.1798 53.5255 47.1429 53.3632 47.0248 53.2895C46.9067 53.2157 46.7444 53.2526 46.6706 53.3706C46.5378 53.5919 46.4271 53.8353 46.346 54.0787C46.1541 54.6467 46.1763 55.1114 46.405 55.458C46.6042 55.7605 46.9363 55.9449 47.4233 56.0039ZM40.3176 41.3696C42.7083 42.4982 44.4644 41.8712 45.4089 43.3317C46.8108 45.5076 41.4317 49.5866 34.7688 49.8374C29.0798 50.0513 23.4572 47.691 23.5162 41.0303C23.5752 33.6099 28.7477 32.8576 31.3598 34.3697C33.5808 35.6605 35.2926 39.5994 40.3176 41.3696Z" fill="#292B2E"/>
<path d="M28.0104 70.7616C32.5114 70.0166 36.2155 71.0714 37.4846 71.6098C39.167 72.3253 39.1596 74.4496 40.5763 74.6783C42.4579 74.9807 43.1072 71.1746 41.9561 68.6004C40.0229 64.3148 33.3009 63.4297 33.3009 63.4297" fill="white"/>
<path d="M40.7753 74.918C40.6942 74.918 40.613 74.9107 40.5318 74.8959C39.7202 74.7631 39.3365 74.114 38.9307 73.4281C38.5543 72.7937 38.1633 72.1372 37.3959 71.8127C35.898 71.1783 32.2382 70.2858 28.047 70.9792C27.929 71.0013 27.8109 70.9202 27.7888 70.7948C27.7667 70.6768 27.8478 70.5587 27.9733 70.5366C32.2677 69.8285 36.0234 70.7431 37.5656 71.3996C38.4732 71.7832 38.9159 72.5355 39.307 73.1994C39.6759 73.819 39.9932 74.3574 40.5982 74.4533C40.9967 74.5197 41.3435 74.3574 41.6313 73.9886C42.4651 72.9044 42.5167 70.426 41.7419 68.6852C39.8825 64.5619 33.3228 63.6547 33.2564 63.6473C33.1384 63.6325 33.0498 63.5219 33.0646 63.3965C33.0793 63.2785 33.19 63.19 33.3154 63.2047C33.3819 63.2121 35.0494 63.4408 36.9753 64.1931C39.5431 65.2037 41.3361 66.6936 42.1478 68.5008C42.9963 70.3965 42.9225 73.0297 41.9854 74.2542C41.6534 74.6967 41.2402 74.918 40.7753 74.918Z" fill="#292B2E"/>
<mask id="mask0_271_1955" style="mask-type:luminance" maskUnits="userSpaceOnUse" x="12" y="38" width="44" height="47">
<path d="M42.0001 63.589C49.6666 59.1485 55.1638 54.627 55.8131 51.5142C55.9311 50.9389 55.8721 50.489 55.5991 50.2013C55.3261 49.9136 54.9793 49.7145 54.5956 49.6112C53.7028 49.353 52.4705 49.4342 51.0464 49.8325C52.4484 47.9663 52.9723 42.6998 49.615 40.332C46.9365 38.4364 43.011 38.2372 37.5213 40.7156C30.6148 43.8431 26.0473 49.3383 22.631 54.6639C15.695 65.4994 12.4779 76.9398 12.1163 84.5814C24.7487 71.6732 31.6109 68.4572 42.0001 63.589Z" fill="white"/>
</mask>
<g mask="url(#mask0_271_1955)">
<path d="M22.9263 71.9709C22.8304 71.9709 22.7418 71.9045 22.7123 71.8086C22.6828 71.6906 22.7492 71.5726 22.8673 71.5357C22.9115 71.5209 27.6044 70.2523 31.3897 70.2818C31.5151 70.2818 31.611 70.385 31.611 70.503C31.611 70.6284 31.5151 70.7243 31.3897 70.7243C27.6634 70.6874 23.037 71.9488 22.9927 71.9635C22.9632 71.9709 22.9484 71.9709 22.9263 71.9709Z" fill="#292B2E"/>
</g>
</g>
<defs>
<clipPath id="clip0_271_1955">
<rect width="154" height="111.366" fill="white" transform="translate(2.79993 22.3984)"/>
</clipPath>
<clipPath id="clip1_271_1955">
<rect width="53.5621" height="54.5686" fill="white" transform="translate(4.30957 30.3828)"/>
</clipPath>
</defs>
</svg>
