<svg width="24" height="24" viewBox="0 0 24 24" fill="none" xmlns="http://www.w3.org/2000/svg">
<g clip-path="url(#clip0_6144_24423)">
<g clip-path="url(#clip1_6144_24423)">
<mask id="mask0_6144_24423" style="mask-type:luminance" maskUnits="userSpaceOnUse" x="-4" y="0" width="32" height="24">
<rect x="-4" width="32" height="24" fill="white"/>
</mask>
<g mask="url(#mask0_6144_24423)">
<path fill-rule="evenodd" clip-rule="evenodd" d="M-4 0V24H28V0H-4Z" fill="#E31D1C"/>
<mask id="mask1_6144_24423" style="mask-type:luminance" maskUnits="userSpaceOnUse" x="-4" y="0" width="32" height="24">
<path fill-rule="evenodd" clip-rule="evenodd" d="M-4 0V24H28V0H-4Z" fill="white"/>
</mask>
<g mask="url(#mask1_6144_24423)">
<path d="M-4 8H-6V10V14V16H-4H28H30V14V10V8H28H-4Z" fill="#E31D1C" stroke="#F7FCFF" stroke-width="4"/>
</g>
<path fill-rule="evenodd" clip-rule="evenodd" d="M-4 0V24L14 12L-4 0Z" fill="#3D58DB"/>
<mask id="mask2_6144_24423" style="mask-type:luminance" maskUnits="userSpaceOnUse" x="-4" y="0" width="18" height="24">
<path fill-rule="evenodd" clip-rule="evenodd" d="M-4 0V24L14 12L-4 0Z" fill="white"/>
</mask>
<g mask="url(#mask2_6144_24423)">
<path fill-rule="evenodd" clip-rule="evenodd" d="M2.68789 14.217L-0.984041 16.1549L0.803622 12.261L-1.47437 10.1809L1.33812 10.0771L2.68789 6.5564L3.71793 10.0771H6.52563L4.65424 12.261L6.14279 16.1549L2.68789 14.217Z" fill="#F7FCFF"/>
</g>
</g>
</g>
<g style="mix-blend-mode:hard-light" opacity="0.12">
<rect width="24" height="24" rx="12" fill="white"/>
</g>
<rect width="24" height="24" fill="url(#paint0_linear_6144_24423)" fill-opacity="0.64" style="mix-blend-mode:overlay"/>
</g>
<defs>
<linearGradient id="paint0_linear_6144_24423" x1="24" y1="1.19273e-06" x2="-4.48665" y2="16.0237" gradientUnits="userSpaceOnUse">
<stop stop-color="white" stop-opacity="0.3"/>
<stop offset="0.262741" stop-opacity="0.27"/>
<stop offset="0.369956" stop-color="white" stop-opacity="0.26"/>
<stop offset="0.487001" stop-opacity="0.55"/>
<stop offset="0.594445" stop-opacity="0.24"/>
<stop offset="0.736408" stop-color="white" stop-opacity="0.3"/>
<stop offset="0.901459" stop-color="#272727" stop-opacity="0.22"/>
<stop offset="1" stop-opacity="0.2"/>
</linearGradient>
<clipPath id="clip0_6144_24423">
<rect width="24" height="24" rx="12" fill="white"/>
</clipPath>
<clipPath id="clip1_6144_24423">
<rect width="24" height="24" fill="white"/>
</clipPath>
</defs>
</svg>
