<svg xmlns="http://www.w3.org/2000/svg" id="Layer_1" viewBox="0 0 184 100"><defs><style>.cls-1{fill:#56575a;stroke-width:0px;}</style></defs><path class="cls-1" d="M96.24,23.06c-.36.06-.7,1.36-1.39,2.05-.51.5-1.13.46-1.47,1.07-.13.23-.08.61-.23.99-.28.75-1.27.81-1.27,1.63,0,.88.82,1.05,1.55,1.68.55.5.61.84,1.29,1.09.58.2,1.44-.45,2.22-.22.64.18,1.25.32,1.39.98.13.6-.01,1.54-.79,1.43-.27-.03-1.39-.4-2.77-.27-1.68.2-3.58.74-3.77,2.6-.1,1.04,1.19,2.28,2.44,2.02.87-.17.45-1.19.92-1.68.61-.64,4.1,2.21,7.34,2.21,1.36,0,2.38-.35,3.39-1.4.09-.08.21-.25.36-.27.14.01.38.15.45.21,2.61,2.09,4.58,6.3,14.17,6.34,1.35.01,2.89.65,4.14,1.79,1.12,1.03,1.77,2.65,2.4,4.28.96,2.45,2.68,4.83,5.28,7.48.14.14,2.29,1.81,2.46,1.93.02.02.18.39.13.6-.07,1.59-.3,6.22,3.16,6.43.84.05.62-.55.62-.96,0-.81-.15-1.61.28-2.43.58-1.13-1.23-1.65-1.18-4.1.03-1.83-1.5-1.51-2.28-2.91-.45-.81-.84-1.24-.82-2.22.17-5.55-1.18-9.2-1.86-10.1-.53-.68-.96-.95-.49-1.26,2.88-1.9,3.52-3.66,3.52-3.66,1.53-3.59,2.9-6.88,4.81-8.32.38-.3,1.36-1.03,1.96-1.32,1.77-.83,2.7-1.34,3.21-1.84.81-.79,1.46-2.45.68-3.44-.97-1.24-2.65-.25-3.39.18-5.28,3.13-6.07,8.67-7.89,11.85-1.46,2.54-3.84,4.4-5.96,4.55-1.59.12-3.31-.21-5.02-.96-4.16-1.83-6.43-4.17-6.97-4.59-1.12-.87-9.79-9.37-16.82-9.72,0,0-.87-1.75-1.09-1.78-.51-.07-1.04,1.04-1.42,1.17-.36.14-.96-1.18-1.32-1.12"></path><path class="cls-1" d="M65.33,73.86c-.66-.01-1.23-.55-1.23-1.23v-21.91h-7.22v24.15c0,1.18.96,2.15,2.14,2.15h12.62c1.18,0,2.13-.97,2.13-2.15v-24.15h-7.21v21.91c0,.66-.57,1.2-1.23,1.23"></path><path class="cls-1" d="M100.44,50.71h-21.87c-1.29,0-2.35,1.05-2.35,2.36v23.95h7.22v-21.96c0-.67.54-1.2,1.23-1.2s1.21.52,1.24,1.19v21.98h7.2v-21.99c.01-.67.55-1.19,1.23-1.19s1.21.53,1.23,1.2v21.96h7.22v-23.93c0-1.31-1.05-2.36-2.35-2.36Z"></path><path class="cls-1" d="M47.22,55.1c0-.73-.59-1.25-1.23-1.25h-1.23v13.3h1.23c.64,0,1.23-.51,1.23-1.24v-10.82ZM52.06,70.4h-7.29v6.61h-7.22v-26.3h14.56c1.31,0,2.32,1.06,2.32,2.37v14.95c0,1.32-1.05,2.37-2.37,2.37"></path><path class="cls-1" d="M127.55,71.13c-1.46,0-2.67,1.25-2.67,2.77s1.21,2.76,2.72,2.76,2.69-1.25,2.69-2.76-1.2-2.77-2.69-2.77h-.05ZM130.8,73.89c0,1.79-1.43,3.24-3.2,3.24s-3.22-1.44-3.22-3.24,1.44-3.24,3.18-3.24,3.25,1.43,3.25,3.24"></path><path class="cls-1" d="M127.26,73.69c.5,0,.76-.17.76-.53,0-.31-.25-.49-.74-.49h-.15v1.02s.13,0,.13,0ZM129.11,75.77h-.87l-1.11-1.48v1.48h-.7v-3.73h.74c1.01,0,1.54.38,1.54,1.11,0,.49-.31.91-.75,1.04l-.06.02,1.21,1.56Z"></path><path class="cls-1" d="M114.89,67.16v-12.11c-.01-.67-.55-1.18-1.23-1.18s-1.21.53-1.23,1.2v12.09h2.45ZM114.89,77.01v-6.6h-2.45v6.6h-7.21v-23.95c0-1.31,1.05-2.36,2.35-2.36h12.18c1.29,0,2.35,1.05,2.35,2.36v23.95s-7.21,0-7.21,0Z"></path></svg>