<svg width="24" height="24" viewBox="0 0 24 24" fill="none" xmlns="http://www.w3.org/2000/svg">
<g clip-path="url(#clip0_6144_24451)">
<g clip-path="url(#clip1_6144_24451)">
<mask id="mask0_6144_24451" style="mask-type:luminance" maskUnits="userSpaceOnUse" x="-4" y="0" width="32" height="24">
<rect x="-4" width="32" height="24" fill="white"/>
</mask>
<g mask="url(#mask0_6144_24451)">
<path fill-rule="evenodd" clip-rule="evenodd" d="M-4 0V24H28V0H-4Z" fill="#F7FCFF"/>
<mask id="mask1_6144_24451" style="mask-type:luminance" maskUnits="userSpaceOnUse" x="-4" y="0" width="32" height="24">
<path fill-rule="evenodd" clip-rule="evenodd" d="M-4 0V24H28V0H-4Z" fill="white"/>
</mask>
<g mask="url(#mask1_6144_24451)">
<path fill-rule="evenodd" clip-rule="evenodd" d="M-4 0V8H28V0H-4Z" fill="#465BC5"/>
<path fill-rule="evenodd" clip-rule="evenodd" d="M-4 16V24H28V16H-4Z" fill="#465BC5"/>
<path d="M15.4257 11.8583C15.4257 13.8696 13.7952 15.5001 11.7839 15.5001C9.77258 15.5001 8.14209 13.8696 8.14209 11.8583C8.14209 9.84704 9.77258 8.21655 11.7839 8.21655C13.7952 8.21655 15.4257 9.84704 15.4257 11.8583Z" stroke="#E8AA00"/>
<path fill-rule="evenodd" clip-rule="evenodd" d="M9.81095 9.66235C9.81095 9.66235 8.8584 11.23 8.8584 12.3062C8.8584 13.3824 9.99858 14.7351 11.7925 14.7351C13.5423 14.7351 14.7999 13.6899 14.838 12.3062C14.876 10.9225 13.8967 9.93753 13.8967 9.93753C13.8967 9.93753 14.4509 11.9296 14.1738 12.7369C13.8967 13.5441 12.9996 14.5208 11.7925 14.3964C10.5853 14.2721 9.43966 12.7862 9.43966 12.3062C9.43966 11.8262 9.81095 9.66235 9.81095 9.66235Z" fill="#1E601B"/>
<path d="M10.1606 12.3283H13.3679" stroke="#188396"/>
<path d="M10.459 11.8061H13.2185" stroke="#E8AA00"/>
<path d="M13.0498 12.4113H10.5936L11.8329 10.355L13.0498 12.4113Z" stroke="#E8AA00"/>
</g>
</g>
</g>
<g style="mix-blend-mode:hard-light" opacity="0.12">
<rect width="24" height="24" rx="12" fill="white"/>
</g>
<rect width="24" height="24" fill="url(#paint0_linear_6144_24451)" fill-opacity="0.64" style="mix-blend-mode:overlay"/>
</g>
<defs>
<linearGradient id="paint0_linear_6144_24451" x1="24" y1="1.19273e-06" x2="-4.48665" y2="16.0237" gradientUnits="userSpaceOnUse">
<stop stop-color="white" stop-opacity="0.3"/>
<stop offset="0.262741" stop-opacity="0.27"/>
<stop offset="0.369956" stop-color="white" stop-opacity="0.26"/>
<stop offset="0.487001" stop-opacity="0.55"/>
<stop offset="0.594445" stop-opacity="0.24"/>
<stop offset="0.736408" stop-color="white" stop-opacity="0.3"/>
<stop offset="0.901459" stop-color="#272727" stop-opacity="0.22"/>
<stop offset="1" stop-opacity="0.2"/>
</linearGradient>
<clipPath id="clip0_6144_24451">
<rect width="24" height="24" rx="12" fill="white"/>
</clipPath>
<clipPath id="clip1_6144_24451">
<rect width="24" height="24" fill="white"/>
</clipPath>
</defs>
</svg>
