<svg xmlns="http://www.w3.org/2000/svg" id="Layer_1" viewBox="0 0 184 100"><defs><style>.cls-1{fill:#56575a;stroke-width:0px;}</style></defs><path class="cls-1" d="M58.76,46.7v5.99c0,9.81-14.62,9.81-14.62.05v-6.03c0-.76.54-1.3,1.3-1.3s1.3.54,1.3,1.3l.02,6c0,6.54,9.4,6.54,9.4,0l-.02-6c0-.76.54-1.3,1.3-1.3.77-.02,1.31.53,1.31,1.3M82.14,46.31l4.58,10.38,4.63-10.44c.31-.7,1.02-1.02,1.72-.7.7.31.91.97.6,1.67l-5.17,11.68c-.32.73-.97,1.16-1.76,1.16s-1.45-.43-1.76-1.16l-5.18-11.69c-.31-.7-.11-1.36.6-1.67.68-.31,1.44.06,1.75.77M102.68,46.7c0-.76.54-1.3,1.3-1.3s1.3.54,1.3,1.3v.71c3.59-3.9,12.31-2.13,12.31,5.31v6.03c0,.76-.54,1.3-1.3,1.3s-1.3-.54-1.3-1.3v-6.03c0-6.67-9.7-6.51-9.7,0v6.03c0,.36-.14.68-.39.93s-.57.39-.93.39-.68-.14-.93-.39-.37-.57-.37-.93v-12.05ZM135.15,49.51c.51.97.67,2.27.09,3.22s-1.69,1.28-2.78,1.28h-9.58c.14.84.77,2,2.09,2.8.88.54,2.01.85,3.05.85.79,0,1.59-.14,2.35-.36.53-.15,1.66-.7,1.66-.7.71-.4,1.38-.46,1.83.15.36.48.29,1.25-.31,1.72-.7.53-1.59.93-2.57,1.19-.96.26-1.98.37-2.91.37-1.22,0-2.43-.26-3.54-.77-1.14-.54-2.18-1.35-2.94-2.37-.37-.49-.68-1.04-.91-1.61-.22-.54-.37-1.1-.45-1.66-.08-.54-.08-1.1-.03-1.64.06-.57.19-1.13.39-1.67.43-1.16,1.18-2.2,2.12-3,.96-.82,2.13-1.41,3.36-1.7,1.72-.42,3.57-.28,5.21.4.42.17.82.37,1.19.62.37.23.74.51,1.07.8.7.57,1.21,1.27,1.62,2.06M130.54,48.24c-.77-.34-1.27-.43-2-.51-.97-.09-1.98.09-2.88.48-.54.23-1.21.65-1.62,1.07-.48.48-1.16,1.58-1.22,2.46h9.75c.37,0,.53-.12.57-.28.11-.37-.22-1.08-.62-1.69-.43-.65-1.36-1.27-1.98-1.53M122.25,42.01c0-.63.53-1.16,1.16-1.16h8.77c.65,0,1.16.51,1.16,1.16s-.53,1.14-1.16,1.14h-8.77c-.65,0-1.16-.51-1.16-1.14M139.15,59.63c-.53.56-1.28.57-1.84.05-.56-.53-.53-1.25,0-1.79l4.89-5.14-4.9-5.15c-.53-.56-.53-1.27.03-1.79.56-.53,1.25-.48,1.79.08l4.83,5.06,4.84-5.07c.53-.56,1.24-.57,1.78-.05.56.53.59,1.24.06,1.79l-4.92,5.17,4.89,5.14c.53.56.59,1.24.03,1.76s-1.31.51-1.84-.05l-4.8-5.04-4.84,5.04ZM155.68,41.98c0-.96-.77-1.7-1.7-1.7s-1.72.74-1.72,1.7.77,1.7,1.72,1.7c.93.02,1.7-.74,1.7-1.7M156,41.98c0,1.13-.9,2.04-2.04,2.04s-2.04-.9-2.04-2.04.9-2.04,2.04-2.04c1.14.02,2.04.91,2.04,2.04M154.93,41.47c0,.45-.31.62-.62.63l.59,1.05h-.39l-.59-1.05h-.42v1.05h-.32v-2.3h.96c.42,0,.79.12.79.62M154.59,41.5c0-.29-.25-.31-.53-.31h-.56v.57h.36c.31,0,.73.05.73-.26M96.59,46.7c0-.76.54-1.3,1.3-1.3s1.3.54,1.3,1.3v12.07c0,.76-.54,1.3-1.3,1.3s-1.3-.54-1.3-1.3v-12.07h0ZM69.04,47.84c-.97.02-1.95.28-2.8.76-.62.36-1.16.84-1.59,1.39-.28.37-.49.77-.67,1.21-.15.42-.25.87-.26,1.3-.03.49.03,1.01.19,1.47.09.31.22.6.37.88.23.43.54.84.9,1.18.6.59,1.35,1.02,2.13,1.27.74.23,1.52.32,2.29.26.88-.08,1.76-.36,2.52-.82.36-.22.7-.48.99-.77.28-.28.53-.59.73-.91.4-.67.65-1.44.67-2.21.02-.42-.03-.84-.14-1.24-.11-.43-.28-.85-.51-1.22-.25-.4-.54-.76-.88-1.08-.34-.31-.73-.59-1.13-.79-.85-.45-1.83-.68-2.8-.67M74.42,58.75v-.59c-.53.43-1.1.8-1.7,1.1-.73.34-1.52.59-2.3.7-.79.12-1.61.12-2.4.02-.8-.11-1.58-.32-2.32-.67-.76-.34-1.47-.8-2.09-1.36-.51-.46-.94-.99-1.3-1.56-.22-.34-.39-.7-.54-1.07-.2-.51-.36-1.04-.43-1.58-.11-.73-.11-1.45.02-2.18.12-.76.39-1.48.76-2.17.39-.73.91-1.36,1.52-1.92.62-.56,1.33-1.02,2.09-1.36.74-.32,1.52-.56,2.32-.67.8-.11,1.61-.09,2.4.02.8.12,1.58.36,2.3.7.62.29,1.19.67,1.7,1.1v-.59c0-.76.54-1.3,1.3-1.3s1.3.54,1.3,1.3v12.07c0,.77-.54,1.3-1.3,1.3-.77.03-1.31-.51-1.31-1.28M34.29,53.5c-1.58-.12-2.91-.36-3.76-.79-.77-.4-2.26-1.25-2.23-3.03.02-1.13.48-2.29,2.07-3.26.71-.43,1.75-.73,2.57-.88.45-.08,1.76-.23,3.09-.11.9.09,2.83.42,4.27,1.5.46.36.76,1.04.36,1.61-.36.51-1.07.59-1.69.23-1.11-.54-2.44-1.02-4.15-1.01-1.45,0-2.15.23-2.72.46-1.53.63-1.52,2.09.15,2.55.94.25,2.17.36,3.22.45.84.08,2.52.25,3.65.62,1.48.49,2.72,1.53,3.02,3.06.05.28.08.79.05,1.07-.03.29-.12.59-.23.87-.14.29-.31.57-.53.84-.23.28-.49.53-.79.74-.32.25-.73.49-1.08.68-1.3.67-2.75.96-4.66.96-2.18,0-4.55-.9-6.4-2.44-.6-.6-.68-1.25-.17-1.79.49-.54,1.22-.54,1.79-.08,1.19.96,2.37,1.42,3.48,1.69,1.19.28,2.97.26,4.18-.23.68-.28,1.62-.8,1.62-1.64,0-.71-.65-1.27-1.42-1.52-1.18-.39-2.83-.48-3.7-.54"></path></svg>