<svg width="343" height="452" viewBox="0 0 343 452" fill="none" xmlns="http://www.w3.org/2000/svg">
<g clip-path="url(#clip0_254_63833)">
<rect width="343" height="452" rx="16" fill="url(#paint0_linear_254_63833)"/>
<path d="M386.337 131.437C386.091 137.394 383.098 141.128 377.378 142.986C378.175 143.696 378.727 144.187 379.218 144.624C387.007 151.555 394.523 158.795 401.546 166.588C406.144 171.672 410.461 176.948 413.882 182.86C415.168 184.997 416.228 187.264 417.117 189.599C417.728 191.136 418.004 192.925 418.041 194.613C418.08 198.398 415.677 201.222 412.001 202.142C409.992 202.67 407.895 202.68 405.95 202.272C402.531 201.545 399.166 200.757 395.842 199.675C386.883 196.775 378.28 192.98 369.787 189.062C359.323 184.272 348.968 179.359 338.558 174.507C337.958 174.193 337.241 173.887 336.286 173.478C336.564 174.277 336.768 174.789 336.972 175.301C337.732 177.412 337.788 179.447 336.316 181.225C334.734 183.126 332.664 183.6 330.418 183.036C328.644 182.56 326.74 181.859 325.062 181.027C318.234 177.708 311.886 173.603 305.538 169.498C293.441 161.602 281.722 153.158 270.543 143.983C261.015 136.165 251.876 128.033 243.997 118.484C241.055 114.874 238.277 111.079 236.293 106.887C235.233 104.62 234.344 102.284 234.083 99.7364C233.407 93.9507 236.176 89.3564 241.651 87.2798C244.446 86.238 247.397 85.886 250.368 85.8825C256.193 85.8823 261.906 86.9958 267.462 88.4101C268.349 88.6482 269.352 88.8792 270.459 88.8711C270.091 88.5436 269.723 88.2161 269.416 87.9432C262.886 82.6838 256.514 77.1236 251.024 70.6947C248.532 67.8147 246.319 64.7431 244.606 61.2336C243.417 58.7414 242.453 56.1192 242.296 53.332C242.007 48.2222 243.997 44.2574 248.264 41.4376C250.679 39.8361 253.303 38.8628 256.199 38.5724C259.615 38.1925 263.03 37.8126 266.417 37.9589C272.023 38.2049 277.539 38.9224 283.158 39.4007C283.978 39.468 284.681 39.5423 286.026 39.6364C285.345 38.9198 285.031 38.5308 284.602 38.1487C280.922 34.8739 277.187 31.6607 273.671 28.2012C271.702 26.3385 269.945 24.1135 268.305 21.8815C267.297 20.5437 266.509 18.9597 265.952 17.3617C263.95 11.8304 265.997 6.81341 271.262 4.10853C274.092 2.65679 277.207 2.12016 280.397 1.87037C281.497 1.74607 282.603 1.73791 283.996 1.65425C283.56 1.15606 283.309 0.821607 283.002 0.548707C281.646 -0.768188 280.235 -2.02353 278.989 -3.46353C278.117 -4.45992 277.348 -5.69554 276.812 -6.9451C275.324 -10.5846 276.808 -14.2277 280.39 -15.7829C281.812 -16.3926 283.479 -16.784 284.933 -16.8131C287.672 -16.8027 290.472 -16.7378 293.181 -16.2014C298.662 -15.0739 304.089 -13.8849 309.48 -12.2859C317.491 -9.67899 325.338 -6.88742 333.233 -4.27354C334.598 -3.83112 336.024 -3.33412 337.437 -3.06938C350.263 -0.809858 362.505 3.46573 374.279 8.75982C393.64 17.3855 411.835 28.0621 428.864 40.7896C435.736 45.912 442.224 51.4652 447.775 57.9487C449.955 60.4397 451.908 63.0607 453.247 66.1266C453.919 67.7176 454.598 69.4247 454.813 71.1597C455.458 75.3741 453.278 79.059 449.225 80.5259C447.571 81.1496 445.788 81.548 444.04 81.5364C440.373 81.5818 436.692 81.395 433.054 80.9143C425.838 80.0075 418.808 78.2739 411.833 76.4787C411.123 76.2883 410.474 76.1524 409.491 76.2698C410.049 76.8771 410.547 77.4299 411.05 78.0988C411.997 79.382 412.998 80.6037 413.773 81.9555C416.636 87.2603 413.763 92.0938 407.767 92.1625C405.903 92.1579 403.91 91.928 402.08 91.5135C398.067 90.5892 394.041 89.4327 390.13 88.2692C386.691 87.1939 383.307 86.0571 379.642 85.1119C379.955 85.5009 380.329 85.9445 380.697 86.272C387.109 92.529 393.295 98.9161 398.817 105.926C401.704 109.598 404.536 113.331 406.582 117.578C407.445 119.449 408.315 121.436 408.72 123.451C409.773 128.689 406.739 132.717 401.417 133.386C399.737 133.545 397.989 133.534 396.289 133.344C393.531 132.986 390.869 132.272 388.159 131.735C387.633 131.708 387.046 131.627 386.337 131.437Z" fill="#ECFCF4"/>
<path d="M272.244 8.07667C265.41 3.00856 262.506 -4.10958 260.798 -11.8541C259.829 -16.1819 259.374 -20.5667 259.943 -25.0084C260.171 -26.8876 260.513 -28.7099 261.31 -30.4182C261.823 -31.4432 262.392 -32.4113 263.189 -33.2655C264.67 -34.8599 266.72 -35.1447 268.713 -34.2335C269.966 -33.6641 270.991 -32.696 271.845 -31.671C273.325 -29.8488 274.407 -27.7987 275.262 -25.6348C277.539 -19.9403 278.28 -13.9611 278.166 -7.81101C278.052 -3.71096 277.596 0.389083 276.742 4.37524C276.685 4.65997 276.685 4.88775 276.628 5.22942C278.223 6.02665 279.931 6.19749 281.696 6.25443C289.042 6.5961 296.217 5.51414 303.165 3.12245C305.443 2.32522 307.663 1.4141 309.827 0.332139C314.041 -1.66094 317.629 -4.56514 320.476 -8.20963C320.989 -8.83602 321.501 -9.46242 322.071 -10.0888C322.127 -10.1458 322.241 -10.1458 322.526 -10.1458C322.412 -9.74714 322.355 -9.46242 322.241 -9.17769C320.021 -4.45125 316.775 -0.635928 312.447 2.32522C307.037 5.9697 301.058 8.24751 294.737 9.5003C289.555 10.5253 284.373 10.9809 279.134 10.3545C277.995 10.2406 276.799 9.95586 275.546 9.72808C275.432 10.0128 275.319 10.3545 275.205 10.6962C273.667 15.8782 271.845 20.8893 269.225 25.6158C267.118 29.4311 264.67 32.9617 261.538 36.0367C259.829 37.6881 257.95 39.1687 255.843 40.2507C250.434 42.984 245.479 42.1298 241.379 37.6881C241.151 37.4603 240.924 37.2326 240.582 36.8909C240.354 37.5173 240.183 37.9729 239.956 38.4854C238.475 42.5854 236.824 46.6285 234.717 50.5008C232.894 53.8036 230.787 56.9356 228.054 59.612C226.744 60.9217 225.321 62.0037 223.669 62.8579C219.683 64.8509 215.868 64.5662 212.223 61.9467C211.54 61.4912 210.971 60.9217 210.23 60.3523C210.002 60.9787 209.832 61.4342 209.661 61.9467C208.123 66.5024 206.244 71.001 203.909 75.215C203.34 76.2969 202.657 77.3219 201.916 78.29C201.575 78.8025 201.005 79.1442 200.493 79.5428C200.037 79.8275 199.525 79.8275 199.126 79.3719C198.727 78.9164 198.898 78.4608 199.24 78.0053C199.923 77.0372 200.55 76.0122 201.119 74.9872C203.966 69.8052 206.13 64.3384 207.895 58.7578C208.066 58.2453 208.18 57.7328 207.782 57.2203C204.08 51.9814 202.144 46.0591 200.948 39.7951C199.24 31.0825 198.898 22.256 199.923 13.4295C200.265 10.4114 200.834 7.50722 202.087 4.71691C202.543 3.6919 203.112 2.66689 203.795 1.81271C205.504 -0.294258 207.839 -0.408147 209.889 1.4141C211.141 2.553 211.996 3.91968 212.679 5.4572C214.103 8.41834 214.9 11.6073 215.412 14.8531C216.437 21.0602 216.437 27.2672 215.811 33.5311C215.071 41.1618 213.59 48.6785 211.54 56.0245C211.312 56.8786 211.312 57.505 212.052 58.0745C212.964 58.8148 213.818 59.6689 214.786 60.2953C216.95 61.662 219.228 61.7759 221.562 60.7509C223.157 60.0676 224.467 59.0425 225.662 57.8467C227.769 55.8536 229.421 53.5189 230.958 51.0702C234.147 45.8313 236.482 40.1937 238.418 34.3853C238.589 33.8728 238.646 33.4742 238.361 32.9617C235.799 27.7797 234.66 22.1991 234.09 16.5045C233.464 10.3545 233.521 4.20441 234.546 -1.88872C234.944 -4.22347 235.457 -6.55822 236.425 -8.72213C236.824 -9.63325 237.336 -10.5444 237.963 -11.2847C239.5 -13.1069 241.664 -13.05 243.088 -11.1708C243.771 -10.2596 244.283 -9.23464 244.682 -8.15268C245.764 -5.13459 246.106 -1.94566 246.333 1.24326C246.903 11.4364 245.195 21.4018 242.347 31.1394C242.233 31.4811 242.176 31.8228 242.006 32.1645C241.778 32.7339 241.892 33.2464 242.233 33.702C243.031 34.727 243.771 35.8659 244.739 36.7201C246.96 38.827 249.636 39.3395 252.484 38.2006C253.964 37.6312 255.388 36.7201 256.697 35.752C258.975 34.0436 260.798 31.8797 262.449 29.6019C265.923 24.8185 268.371 19.4657 270.307 13.8851C270.991 12.1198 271.56 10.1267 272.244 8.07667ZM209.148 54.2592C209.319 53.9175 209.376 53.8036 209.433 53.6328C209.547 53.348 209.604 53.0064 209.718 52.7216C211.825 45.2618 213.248 37.6312 213.704 29.8866C214.046 24.2491 213.932 18.6115 212.679 13.0309C212.109 10.5253 211.483 8.07667 210.23 5.79887C209.661 4.8308 208.977 3.91968 208.18 3.12245C207.44 2.38216 206.586 2.43911 205.959 3.35023C205.39 4.14746 204.877 5.05858 204.536 5.9697C203.283 9.10169 202.827 12.4045 202.543 15.7643C201.973 23.1102 202.372 30.3992 203.625 37.6881C204.536 42.8701 205.845 47.9383 208.237 52.6647C208.522 53.0633 208.75 53.5758 209.148 54.2592ZM273.269 3.23634C273.439 2.553 273.553 2.09744 273.61 1.69882C273.838 0.104359 274.123 -1.43316 274.294 -3.02762C274.92 -8.77908 274.749 -14.4736 273.325 -20.1112C272.585 -23.0154 271.56 -25.7487 269.909 -28.2543C269.282 -29.1654 268.542 -29.9627 267.745 -30.7029C266.663 -31.6141 265.923 -31.3863 265.182 -30.1904C264.898 -29.7349 264.67 -29.2224 264.556 -28.7099C264.271 -27.4001 263.93 -26.0334 263.816 -24.6668C263.417 -19.7125 264.1 -14.8722 265.467 -10.0888C266.663 -5.98877 268.428 -2.17344 271.219 1.12937C271.788 1.81271 272.471 2.43911 273.269 3.23634ZM240.753 -9.40547C240.639 -9.40547 240.468 -9.40547 240.354 -9.34853C240.07 -8.83602 239.671 -8.38046 239.443 -7.86795C239.044 -6.786 238.589 -5.6471 238.304 -4.50819C236.938 0.958535 236.71 6.53916 236.994 12.1767C237.222 17.3018 237.906 22.4268 239.386 27.3811C239.5 27.7797 239.671 28.1783 239.842 28.5769C240.183 28.1213 240.411 27.6658 240.468 27.2102C241.151 23.8505 242.006 20.5476 242.518 17.1879C243.543 11.0948 243.885 4.94469 243.145 -1.14843C242.917 -3.19846 242.347 -5.24848 241.778 -7.24156C241.664 -8.03879 241.151 -8.72213 240.753 -9.40547Z" fill="white"/>
<path d="M113.922 386.896C117.793 391.607 118.045 396.488 114.932 401.789C116.026 401.789 116.783 401.789 117.456 401.789C128.142 401.789 138.828 402.209 149.514 403.387C156.498 404.145 163.398 405.238 170.045 407.426C172.485 408.183 174.841 409.193 177.113 410.371C178.627 411.128 180.058 412.306 181.236 413.568C183.844 416.429 183.928 420.216 181.741 423.413C180.563 425.18 178.964 426.61 177.197 427.62C174.084 429.387 170.97 431.07 167.689 432.5C158.854 436.371 149.683 439.316 140.511 442.093C129.236 445.542 117.961 448.824 106.686 452.19C106.013 452.358 105.256 452.61 104.246 452.947C105.003 453.368 105.508 453.62 106.013 453.872C108.032 454.966 109.463 456.481 109.547 458.837C109.631 461.361 108.369 463.128 106.265 464.222C104.583 465.063 102.647 465.821 100.796 466.325C93.3075 468.429 85.6507 469.607 77.9937 470.785C63.3531 472.973 48.6282 474.487 33.8193 475.076C21.198 475.581 8.66087 475.581 -3.87626 473.646C-8.5882 472.888 -13.3001 471.879 -17.6755 470.028C-20.0315 469.018 -22.3033 467.84 -24.2386 466.073C-28.6981 462.118 -29.7078 456.733 -26.9311 451.432C-25.5007 448.74 -23.4813 446.468 -21.2095 444.449C-16.75 440.494 -11.6173 437.465 -6.40052 434.772C-5.5591 434.352 -4.63354 433.847 -3.79212 433.089C-4.29697 433.089 -4.80183 433.089 -5.22254 433.089C-13.805 433.51 -22.4716 433.594 -31.0541 432.416C-34.9246 431.911 -38.711 431.07 -42.4132 429.555C-45.0216 428.462 -47.5459 427.115 -49.5653 425.096C-53.2675 421.394 -54.4455 417.018 -53.0992 411.97C-52.342 409.109 -50.9957 406.585 -48.9763 404.397C-46.6203 401.789 -44.2643 399.18 -41.5718 396.993C-37.1123 393.374 -32.4003 390.177 -27.7725 386.727C-27.0994 386.222 -26.5104 385.802 -25.4166 384.96C-26.4263 384.876 -26.9311 384.792 -27.5201 384.792C-32.5686 384.792 -37.6171 384.876 -42.6656 384.624C-45.4423 384.54 -48.3032 384.035 -51.0798 383.446C-52.7627 383.109 -54.4455 382.436 -55.9601 381.595C-61.261 378.734 -63.1121 373.517 -60.9244 367.879C-59.7464 364.85 -57.727 362.326 -55.4552 359.97C-54.6979 359.129 -53.8565 358.371 -52.8468 357.362C-53.5199 357.278 -53.9407 357.193 -54.3614 357.193C-56.2966 357.109 -58.2319 357.109 -60.1671 356.857C-61.5134 356.689 -62.9438 356.268 -64.206 355.679C-67.8241 353.912 -69.1703 350.126 -67.4875 346.507C-66.8144 345.077 -65.8047 343.647 -64.7108 342.637C-62.6073 340.786 -60.4196 338.935 -57.9795 337.504C-53.0151 334.643 -48.0507 331.867 -42.8339 329.427C-34.9246 325.977 -27.0153 322.78 -19.1901 319.414C-17.8438 318.825 -16.4134 318.236 -15.1513 317.479C-3.79212 310.495 8.49258 305.446 21.1139 301.492C41.8128 294.929 63.0165 290.721 84.7251 288.87C93.4758 288.113 102.227 287.945 110.893 289.123C114.259 289.543 117.54 290.217 120.654 291.647C122.252 292.404 123.935 293.246 125.281 294.424C128.647 297.2 129.489 301.492 127.385 305.362C126.544 306.961 125.45 308.475 124.103 309.653C121.327 312.178 118.382 314.534 115.269 316.637C109.126 320.844 102.563 324.294 96.0001 327.66C95.327 327.996 94.738 328.333 94.0648 329.09C94.9062 329.174 95.6635 329.258 96.5049 329.427C98.1036 329.763 99.7023 330.016 101.217 330.521C107.023 332.624 108.117 338.262 103.573 342.385C102.142 343.647 100.46 344.825 98.7768 345.75C95.0745 347.77 91.204 349.621 87.4176 351.388C84.052 352.902 80.6863 354.333 77.2365 356.1C77.7413 356.184 78.3303 356.268 78.8352 356.268C88.0066 356.689 97.0939 357.362 106.097 358.96C110.809 359.802 115.521 360.727 119.981 362.579C121.916 363.42 123.935 364.346 125.618 365.608C129.993 368.889 130.414 374.022 126.796 378.145C125.618 379.407 124.272 380.585 122.841 381.595C120.485 383.193 117.961 384.455 115.521 385.886C115.1 386.222 114.595 386.559 113.922 386.896Z" fill="#ECFCF4"/>
<path d="M175.325 375.248C175.566 374.581 175.767 374.039 175.925 373.456C176.677 370.417 176.475 367.432 175.774 364.369C174.768 360.107 172.854 356.27 170.487 352.647C166.555 346.677 161.556 341.632 155.901 337.343C147.524 330.97 138.256 326.434 128.179 323.568C122.515 321.976 116.818 321.007 110.969 321.202C108.853 321.269 106.781 321.543 104.711 321.9C103.51 322.122 102.355 322.717 101.199 323.229C100.786 323.4 100.373 323.571 100.037 323.243C99.8263 322.955 99.6133 322.501 99.6093 322.169C99.6413 321.381 100.174 320.835 100.835 320.578C102.156 319.981 103.434 319.26 104.842 318.994C107.118 318.51 109.439 318.233 111.804 318.163C116.282 317.86 120.812 318.427 125.224 319.453C140.623 323.085 154.114 330.268 165.413 341.461C170.454 346.464 174.589 352.141 177.201 358.791C179.471 364.615 180.413 370.455 178.08 376.625C178.54 376.91 178.999 377.112 179.417 377.356C184.888 380.237 190.117 383.618 194.814 387.712C199.386 391.682 203.382 396.157 206.104 401.603C206.955 403.335 207.641 405.153 208.161 406.973C210.552 415.95 207.161 423.793 199.082 428.372C196.155 430.026 193.014 431.06 189.744 431.805C183.37 433.21 176.898 433.371 170.419 432.951C168.633 432.848 166.887 432.62 165.059 432.477C164.685 432.44 164.353 432.444 163.813 432.409C163.986 432.988 164.117 433.525 164.247 433.98C165.586 438.322 166.221 442.796 165.654 447.327C164.975 452.979 162.668 457.862 158.399 461.732C155.853 464.004 153.009 465.574 149.785 466.691C144.702 468.454 139.437 468.891 134.08 468.666C133.374 468.633 132.668 468.6 131.838 468.527C131.845 469.108 131.893 469.647 131.899 470.144C132.126 475.205 131.104 479.948 128.083 484.135C125.921 487.19 123.042 489.383 119.701 491.042C115.41 493.169 110.899 494.178 106.173 494.567C99.6225 495.144 93.1413 494.558 86.7331 493.142C86.2342 493.065 85.6932 492.947 85.0693 492.83C85.1183 493.452 85.1653 493.907 85.2134 494.446C85.8604 499.917 86.2585 505.39 85.8267 510.873C85.6498 513.407 85.2649 515.902 84.797 518.397C84.4871 520.227 83.8032 522.02 82.7434 523.61C81.9695 524.823 81.2286 525.33 80.0698 525.593C80.0688 525.51 80.0258 525.386 80.0258 525.386C81.3806 524.166 81.9835 522.54 82.4194 520.833C83.0932 518.21 83.3101 515.552 83.361 512.895C83.5279 506.087 82.9478 499.288 81.9947 492.535C81.9517 492.411 81.9087 492.287 81.8637 491.997C81.4888 491.877 81.0718 491.716 80.6139 491.597C69.5343 488.245 59.4275 482.972 50.4585 475.693C45.681 471.849 41.4365 467.46 38.3838 462.102C37.2819 460.206 36.4699 458.265 35.9049 456.156C35.512 454.542 35.3679 452.925 35.5559 451.304C36.0517 447.688 38.0134 445.174 41.4009 443.888C43.7556 442.988 46.1623 442.959 48.6559 443.261C53.7683 443.905 58.3157 445.883 62.5412 448.696C71.9142 455.057 78.2025 463.738 81.2804 474.615C82.4943 478.917 83.2543 483.431 84.2203 487.818C84.3093 488.315 84.3983 488.812 84.4873 489.309C84.6543 489.39 84.7383 489.472 84.8633 489.512C92.4803 491.371 100.209 492.19 108.04 491.141C112.474 490.548 116.651 489.377 120.482 486.966C126.783 482.947 129.771 476.105 128.597 468.234C128.181 468.156 127.64 468.038 127.141 467.961C117.286 466.378 108.036 463.253 99.4656 458.086C95.912 455.929 92.6044 453.521 89.7867 450.442C88.1469 448.677 86.63 446.787 85.7731 444.556C85.2601 443.317 84.8701 441.952 84.7711 440.625C84.4851 437.558 86.0318 435.049 88.8374 433.687C90.4472 432.962 92.145 432.651 93.8877 432.63C96.8753 432.594 99.788 433.223 102.581 434.227C109.166 436.554 114.814 440.346 119.688 445.267C125.149 450.762 129.127 457.105 131.045 464.718C131.088 464.842 131.131 464.966 131.217 465.214C131.591 465.251 132.006 465.329 132.38 465.366C136.742 465.687 141.139 465.551 145.444 464.586C148.796 463.84 151.894 462.599 154.691 460.573C158.518 457.829 160.921 454.107 161.987 449.57C162.858 446.074 162.898 442.504 162.191 438.944C161.793 436.915 161.147 434.972 160.625 432.987C160.407 432.118 159.863 431.751 158.948 431.596C152.711 430.592 146.634 429.088 140.675 427.127C131.552 424.207 122.709 420.496 114.555 415.407C110.582 412.923 106.896 410.146 103.742 406.656C102.185 404.891 100.834 402.998 100.101 400.724C98.9362 397.045 100.434 393.914 104.027 392.501C105.018 392.074 106.094 391.812 107.172 391.716C108.872 391.571 110.532 391.551 112.193 391.697C115.891 392.026 119.513 393.02 122.974 394.348C135.147 398.932 145.567 406.068 154.029 416.051C157.145 419.748 159.809 423.825 161.854 428.199C162.152 428.818 162.448 429.271 163.278 429.344C169.929 430.177 176.533 430.637 183.206 429.933C187.019 429.555 190.746 428.846 194.298 427.475C196.364 426.704 198.344 425.684 200.071 424.335C204.553 420.919 206.49 416.414 206.049 410.816C205.71 406.795 204.131 403.203 202.016 399.826C199.181 395.337 195.525 391.604 191.377 388.293C187.102 384.858 182.503 382.009 177.617 379.536C177.366 379.373 177.116 379.293 176.784 379.214C176.538 379.466 176.291 379.635 176.128 379.886C174.003 382.651 171.329 384.634 168.065 385.794C165.916 386.566 163.683 387.257 161.447 387.616C151.878 389.101 142.648 387.719 133.802 383.759C131.758 382.829 129.793 381.649 128.197 380.091C127.693 379.599 127.189 379.107 126.726 378.573C123.987 375.162 124.689 371.418 128.313 369.051C129.836 368.078 131.531 367.518 133.27 367.165C136.002 366.551 138.822 366.434 141.687 366.524C148.869 366.727 155.859 368.22 162.651 370.504C166.443 371.744 170.114 373.36 173.825 374.768C174.365 374.803 174.824 375.005 175.325 375.248ZM81.5717 488.431C81.2607 486.734 80.9937 485.243 80.6847 483.711C79.6707 478.785 78.5327 473.901 76.4439 469.32C72.3952 460.529 66.2939 453.589 57.8129 448.919C54.6792 447.172 51.3037 446.01 47.6901 445.763C45.9454 445.618 44.2446 445.68 42.5508 446.323C40.1552 447.265 38.6814 448.942 38.5055 451.559C38.4375 452.805 38.4536 454.133 38.8415 455.332C39.3605 457.068 40.0455 458.803 40.9364 460.411C43.4811 464.945 47.0128 468.721 50.9543 472.076C59.5504 479.401 69.3252 484.678 80.0739 488.117C80.4898 488.195 80.9468 488.231 81.5717 488.431ZM158.785 428.402C158.614 427.989 158.57 427.782 158.443 427.576C156.744 424.36 154.757 421.354 152.483 418.56C146.67 411.492 139.671 405.808 131.691 401.38C126.302 398.416 120.712 396.076 114.64 394.988C112.685 394.638 110.651 394.538 108.659 394.562C107.414 394.577 106.173 394.924 104.975 395.395C103.241 396.08 102.636 397.54 103.114 399.318C103.332 400.187 103.715 400.971 104.181 401.754C105.495 404.021 107.301 405.866 109.272 407.544C112.25 410.123 115.472 412.366 118.94 414.275C131.1 421.142 144.143 425.591 157.829 428.289C158.037 428.328 158.328 428.366 158.785 428.402ZM128.098 464.712C128.01 464.298 128.006 463.966 127.878 463.677C127.363 462.273 126.972 460.825 126.333 459.463C122.665 451.29 116.821 445.011 109.294 440.288C105.614 438.008 101.776 436.312 97.4923 435.575C95.5376 435.225 93.5858 435.124 91.5991 435.563C88.3715 436.349 87.0288 438.565 87.8977 441.791C88.3757 443.57 89.3906 445.135 90.5285 446.574C92.9743 449.781 96.1579 452.233 99.5455 454.391C107.994 459.767 117.245 462.976 127.059 464.6C127.309 464.68 127.641 464.676 128.098 464.712ZM174.068 377.711C173.692 377.508 173.441 377.346 173.232 377.224C164.929 373.547 156.305 370.788 147.285 369.61C143.503 369.116 139.723 368.871 135.912 369.415C134.213 369.643 132.475 370.079 130.906 370.762C127.521 372.214 127.136 374.709 129.7 377.376C131.338 379.057 133.303 380.237 135.431 381.166C143.316 384.598 151.507 385.869 160.044 384.853C163.193 384.483 166.213 383.658 169.017 382.13C170.954 381.069 172.639 379.679 174.068 377.711Z" fill="white"/>
</g>
<defs>
<linearGradient id="paint0_linear_254_63833" x1="-23.8195" y1="-853.703" x2="-630.538" y2="-284.101" gradientUnits="userSpaceOnUse">
<stop stop-color="#F2FDEB"/>
<stop offset="1" stop-color="#E0F4FD"/>
</linearGradient>
<clipPath id="clip0_254_63833">
<rect width="343" height="452" rx="16" fill="white"/>
</clipPath>
</defs>
</svg>
