<svg width="24" height="24" viewBox="0 0 24 24" fill="none" xmlns="http://www.w3.org/2000/svg">
<g clip-path="url(#clip0_6144_24474)">
<g clip-path="url(#clip1_6144_24474)">
<mask id="mask0_6144_24474" style="mask-type:luminance" maskUnits="userSpaceOnUse" x="-4" y="0" width="32" height="24">
<rect x="-4" width="32" height="24" fill="white"/>
</mask>
<g mask="url(#mask0_6144_24474)">
<path fill-rule="evenodd" clip-rule="evenodd" d="M-4 0V24H28V0H-4Z" fill="#F7FCFF"/>
<mask id="mask1_6144_24474" style="mask-type:luminance" maskUnits="userSpaceOnUse" x="-4" y="0" width="32" height="24">
<path fill-rule="evenodd" clip-rule="evenodd" d="M-4 0V24H28V0H-4Z" fill="white"/>
</mask>
<g mask="url(#mask1_6144_24474)">
<rect x="-4" y="2" width="32" height="3" fill="#465BC5"/>
<rect x="-4" y="8" width="32" height="3" fill="#465BC5"/>
<rect x="-4" y="14" width="32" height="3" fill="#465BC5"/>
<rect x="-4" y="19" width="32" height="3" fill="#465BC5"/>
<rect x="-4" width="14" height="14" fill="#F7FCFF"/>
<path fill-rule="evenodd" clip-rule="evenodd" d="M0.782384 2.58209C0.709098 2.57717 0.645116 2.63207 0.639476 2.70471C0.612056 3.05786 0.922904 3.3789 1.095 3.55663L1.11197 3.57418C1.13915 3.60232 1.16699 3.63012 1.20187 3.66417C1.20185 3.66416 1.28325 3.74318 1.30553 3.7652C1.45498 3.913 1.48737 4.05143 1.52374 4.20687L1.53275 4.24509C1.54848 4.31096 1.56465 4.39058 1.58241 4.478L1.58241 4.47801C1.66113 4.86548 1.771 5.40629 2.011 5.58259C2.06978 5.62577 2.48159 5.36926 2.52572 5.31064C2.54129 5.28996 2.58732 5.25574 2.6378 5.21821L2.6378 5.2182C2.73043 5.14934 2.83804 5.06933 2.8 5.04138C2.54869 4.85678 2.35778 4.40939 2.10973 3.7652C1.9773 3.4619 1.63053 3.2691 1.34276 3.10911C1.09696 2.97245 0.894214 2.85973 0.904868 2.72252C0.910508 2.64989 0.85567 2.58701 0.782384 2.58209ZM4.82968 2.68152C4.79389 2.61738 4.713 2.59362 4.64901 2.62845C4.33791 2.79779 4.23796 3.23334 4.18263 3.47447L4.17716 3.49826C4.16836 3.53638 4.16021 3.57487 4.15064 3.62267C4.15065 3.62265 4.12871 3.73395 4.12237 3.76463C4.07981 3.97047 3.98136 4.07303 3.87081 4.18819L3.84365 4.21656C3.79698 4.26563 3.73901 4.32256 3.67536 4.38507C3.39327 4.66212 2.99955 5.04882 2.98241 5.34611C2.97821 5.41892 3.41762 5.62459 3.49082 5.62968C3.51664 5.63147 3.57041 5.65144 3.62939 5.67333C3.73759 5.71351 3.8633 5.76019 3.86602 5.71306C3.88397 5.40175 4.15521 4.99797 4.56037 4.4391C4.74262 4.16284 4.71544 3.767 4.69289 3.43852C4.67363 3.15795 4.65774 2.92652 4.77862 2.86073C4.84261 2.8259 4.86547 2.74566 4.82968 2.68152ZM7.41596 5.03042C7.48651 5.04859 7.52947 5.12113 7.5119 5.19245C7.49433 5.26377 7.42289 5.30686 7.35233 5.28869C7.21906 5.25437 7.07285 5.43446 6.89558 5.6528C6.68805 5.90841 6.43796 6.21644 6.11627 6.29419C5.4388 6.4266 4.96506 6.53692 4.73962 6.75236C4.70549 6.78497 4.64538 6.6651 4.59365 6.56193L4.59365 6.56192L4.59364 6.56192C4.56545 6.50569 4.53974 6.45441 4.52208 6.43549C4.47201 6.38185 4.29091 5.93176 4.34364 5.88137C4.55893 5.67563 5.11061 5.66134 5.50586 5.6511L5.50588 5.6511C5.59506 5.64879 5.67627 5.64669 5.74386 5.64264L5.78308 5.64041C5.94246 5.63158 6.08441 5.62372 6.25592 5.5022C6.28106 5.48439 6.37042 5.41982 6.37334 5.41771L6.37341 5.41766C6.41301 5.38923 6.44522 5.36663 6.47766 5.34475L6.49788 5.33109C6.7028 5.19247 7.07294 4.94209 7.41596 5.03042ZM-1.67732 5.47369C-1.73262 5.52203 -1.73904 5.60609 -1.69167 5.66144C-1.46135 5.93054 -1.01453 5.93775 -0.767164 5.94174C-0.758796 5.94187 -0.750655 5.942 -0.742759 5.94214C-0.703642 5.94282 -0.664296 5.94279 -0.615551 5.94221C-0.615577 5.94221 -0.502144 5.94053 -0.470817 5.94035C-0.260626 5.93918 -0.139836 6.01416 -0.00421131 6.09835C0.00680506 6.10519 0.0179193 6.11209 0.0291872 6.11902C0.0868813 6.15447 0.154621 6.19933 0.229002 6.24859C0.558646 6.46691 1.01875 6.77164 1.31311 6.72659C1.38521 6.71556 1.49502 6.243 1.48478 6.17034C1.48117 6.14471 1.48952 6.08796 1.49867 6.02572C1.51547 5.91153 1.53499 5.77886 1.48833 5.786C1.18009 5.83317 0.728742 5.65181 0.097844 5.37169C-0.210267 5.25087 -0.591805 5.35975 -0.908418 5.4501C-1.17886 5.52727 -1.40192 5.59093 -1.49141 5.48638C-1.53879 5.43102 -1.62202 5.42534 -1.67732 5.47369Z" fill="#FFC125"/>
<path fill-rule="evenodd" clip-rule="evenodd" d="M0.755529 11.2453C0.682243 11.2502 0.61826 11.1953 0.61262 11.1227C0.5852 10.7695 0.896049 10.4485 1.06814 10.2708L1.08511 10.2532C1.11229 10.2251 1.14014 10.1973 1.17501 10.1632C1.175 10.1632 1.2564 10.0842 1.27867 10.0622C1.42813 9.91439 1.46052 9.77596 1.49689 9.62053L1.50589 9.5823C1.52162 9.51644 1.5378 9.43682 1.55556 9.34939L1.55556 9.34938C1.63428 8.96191 1.74415 8.4211 1.98414 8.2448C2.04292 8.20163 2.45473 8.45813 2.49886 8.51675C2.51443 8.53743 2.56046 8.57165 2.61094 8.60918L2.61095 8.60919C2.70357 8.67805 2.81119 8.75806 2.77314 8.78601C2.52183 8.97061 2.33092 9.41801 2.08288 10.0622C1.95045 10.3655 1.60367 10.5583 1.3159 10.7183C1.07011 10.8549 0.867359 10.9677 0.878012 11.1049C0.883653 11.1775 0.828815 11.2404 0.755529 11.2453ZM4.80283 11.1459C4.76704 11.21 4.68615 11.2338 4.62216 11.1989C4.31105 11.0296 4.2111 10.5941 4.15577 10.3529L4.1503 10.3291C4.1415 10.291 4.13335 10.2525 4.12379 10.2047C4.12379 10.2047 4.10185 10.0934 4.09551 10.0628C4.05296 9.85692 3.9545 9.75436 3.84395 9.6392L3.8168 9.61083C3.77003 9.56167 3.71121 9.50393 3.64637 9.44028L3.64635 9.44026L3.64634 9.44025C3.35971 9.15888 2.95555 8.76214 2.95555 8.48128C2.95555 8.35371 3.39076 8.2028 3.46396 8.19771C3.48978 8.19592 3.54356 8.17596 3.60253 8.15406C3.71073 8.11388 3.83645 8.06721 3.83916 8.11433C3.85711 8.42564 4.12835 8.82942 4.53351 9.3883C4.71576 9.66455 4.68859 10.0604 4.66604 10.3889C4.64678 10.6694 4.63089 10.9009 4.75176 10.9667C4.81575 11.0015 4.83862 11.0817 4.80283 11.1459ZM7.3891 8.79697C7.45966 8.7788 7.50261 8.70626 7.48504 8.63494C7.46747 8.56362 7.39603 8.52054 7.32548 8.53871C7.19221 8.57302 7.04599 8.39293 6.86873 8.1746C6.66119 7.91898 6.41111 7.61095 6.08942 7.5332C5.41195 7.40079 4.9382 7.29047 4.71276 7.07503C4.67863 7.04242 4.61853 7.16229 4.56679 7.26546L4.56679 7.26547L4.56679 7.26547C4.53859 7.32171 4.51288 7.37298 4.49522 7.3919C4.44515 7.44554 4.26406 7.89564 4.31679 7.94602C4.53208 8.15176 5.08376 8.16605 5.47901 8.17629L5.47903 8.17629C5.5682 8.1786 5.64942 8.1807 5.71701 8.18475L5.75622 8.18699C5.91561 8.19581 6.05756 8.20367 6.22907 8.32519C6.2542 8.34301 6.34357 8.40757 6.34649 8.40968L6.34656 8.40973C6.38616 8.43817 6.41837 8.46076 6.4508 8.48264L6.47102 8.4963C6.67594 8.63492 7.04609 8.8853 7.3891 8.79697ZM-1.70417 8.35371C-1.75947 8.30536 -1.7659 8.2213 -1.71852 8.16595C-1.4882 7.89685 -1.04139 7.88965 -0.79402 7.88566C-0.785651 7.88552 -0.777511 7.88539 -0.769615 7.88525C-0.730498 7.88457 -0.691152 7.8846 -0.642406 7.88518C-0.642433 7.88518 -0.528999 7.88687 -0.497673 7.88704C-0.287481 7.88821 -0.166692 7.81323 -0.0310668 7.72904C-0.0200504 7.7222 -0.00893617 7.7153 0.00233173 7.70838C0.0600258 7.67292 0.127765 7.62806 0.202147 7.5788C0.531791 7.36048 0.991896 7.05575 1.28626 7.1008C1.35835 7.11183 1.46817 7.5844 1.45792 7.65706C1.45431 7.68269 1.46266 7.73944 1.47182 7.80167C1.48862 7.91587 1.50814 8.04853 1.46147 8.04139C1.15324 7.99423 0.701886 8.17559 0.0709885 8.4557C-0.237122 8.57653 -0.61866 8.46765 -0.935274 8.3773C-1.20571 8.30012 -1.42878 8.23646 -1.51827 8.34102C-1.56564 8.39637 -1.64888 8.40205 -1.70417 8.35371Z" fill="#FFC125"/>
<path fill-rule="evenodd" clip-rule="evenodd" d="M2.9999 2.05908C2.87246 2.05908 2.76447 2.15293 2.74671 2.27914L2.33324 5.21698H3.66657L3.2531 2.27914C3.23533 2.15293 3.12735 2.05908 2.9999 2.05908ZM6.49359 3.50621C6.40347 3.4161 6.26075 3.4061 6.15895 3.48278L3.78922 5.26778L4.73203 6.21059L6.51702 3.84085C6.5937 3.73905 6.58371 3.59633 6.49359 3.50621ZM7.72067 6.74671C7.84687 6.76447 7.94072 6.87246 7.94072 6.9999C7.94072 7.12735 7.84687 7.23533 7.72067 7.2531L4.78283 7.66657V6.33324L7.72067 6.74671ZM6.49359 10.4936C6.58371 10.4035 6.5937 10.2608 6.51702 10.159L4.73203 7.78922L3.78922 8.73203L6.15896 10.517C6.26075 10.5937 6.40347 10.5837 6.49359 10.4936ZM3.2531 11.7207C3.23533 11.8469 3.12735 11.9407 2.9999 11.9407C2.87246 11.9407 2.76447 11.8469 2.74671 11.7207L2.33324 8.78283H3.66657L3.2531 11.7207ZM-0.493785 10.4936C-0.403668 10.5837 -0.260946 10.5937 -0.15915 10.517L2.21059 8.73203L1.26778 7.78922L-0.517218 10.159C-0.593896 10.2608 -0.583902 10.4035 -0.493785 10.4936ZM-1.72086 7.2531C-1.84707 7.23533 -1.94092 7.12735 -1.94092 6.9999C-1.94092 6.87246 -1.84707 6.76447 -1.72086 6.74671L1.21698 6.33324V7.66657L-1.72086 7.2531ZM-0.493785 3.50621C-0.583902 3.59633 -0.593896 3.73905 -0.517218 3.84085L1.26778 6.21059L2.21059 5.26778L-0.159149 3.48278C-0.260946 3.4061 -0.403668 3.4161 -0.493785 3.50621Z" fill="#FFC125"/>
<path fill-rule="evenodd" clip-rule="evenodd" d="M2.99998 8.84191C4.06773 8.84191 4.93332 7.98772 4.93332 6.93402C4.93332 5.88032 4.06773 5.02612 2.99998 5.02612C1.93223 5.02612 1.06665 5.88032 1.06665 6.93402C1.06665 7.98772 1.93223 8.84191 2.99998 8.84191Z" fill="#FFC125"/>
<path d="M3.19324 6.47339C3.19378 6.47222 3.19431 6.47116 3.19482 6.47021C3.19465 6.47053 3.19445 6.47087 3.19421 6.47121L3.19324 6.47339Z" fill="#984111"/>
</g>
</g>
</g>
<g style="mix-blend-mode:hard-light" opacity="0.12">
<rect width="24" height="24" rx="12" fill="white"/>
</g>
<rect width="24" height="24" fill="url(#paint0_linear_6144_24474)" fill-opacity="0.64" style="mix-blend-mode:overlay"/>
</g>
<defs>
<linearGradient id="paint0_linear_6144_24474" x1="24" y1="1.19273e-06" x2="-4.48665" y2="16.0237" gradientUnits="userSpaceOnUse">
<stop stop-color="white" stop-opacity="0.3"/>
<stop offset="0.262741" stop-opacity="0.27"/>
<stop offset="0.369956" stop-color="white" stop-opacity="0.26"/>
<stop offset="0.487001" stop-opacity="0.55"/>
<stop offset="0.594445" stop-opacity="0.24"/>
<stop offset="0.736408" stop-color="white" stop-opacity="0.3"/>
<stop offset="0.901459" stop-color="#272727" stop-opacity="0.22"/>
<stop offset="1" stop-opacity="0.2"/>
</linearGradient>
<clipPath id="clip0_6144_24474">
<rect width="24" height="24" rx="12" fill="white"/>
</clipPath>
<clipPath id="clip1_6144_24474">
<rect width="24" height="24" fill="white"/>
</clipPath>
</defs>
</svg>
