<svg xmlns="http://www.w3.org/2000/svg" id="Layer_1" viewBox="0 0 184 100"><defs><style>.cls-1{fill:#56575a;stroke-width:0px;}</style></defs><g id="BLOCK_RECORD"><polygon class="cls-1" points="30.17 46.68 34.57 54.69 39.67 54.69 44 46.68 46.18 46.68 46.18 45.23 39.65 45.23 39.65 46.68 41.53 46.68 38.38 52.51 35.18 46.68 37.47 46.68 37.47 45.23 28 45.23 28 46.68 30.17 46.68"></polygon><path class="cls-1" d="M86.3,46.68v-1.45s8.73,0,8.73,0v1.45h-2.18v6.53h2.02c1.87,0,3.09-1.23,3.09-2.91h1.44v4.37h-13.11s0-1.46,0-1.46h2.2v-6.54h-2.2Z"></path><path class="cls-1" d="M65.12,45.03c-4.39,0-6.72,2.19-6.72,4.93s2.24,5,6.74,5,6.72-2.22,6.72-5-2.35-4.93-6.74-4.93ZM65.07,53.47c-1.6-.03-2.31-1.8-2.28-3.56.03-1.82.9-3.41,2.4-3.38,1.5.03,2.29,1.65,2.26,3.47-.03,1.72-.74,3.51-2.39,3.48Z"></path><polygon class="cls-1" points="114.31 46.68 118.71 54.69 123.81 54.69 128.14 46.68 130.31 46.68 130.31 45.23 123.79 45.23 123.79 46.68 125.67 46.68 122.52 52.51 119.32 46.68 121.61 46.68 121.61 45.23 112.14 45.23 112.14 46.68 114.31 46.68"></polygon><path class="cls-1" d="M149.26,45.03c-4.39,0-6.72,2.19-6.72,4.93s2.24,5,6.74,5,6.72-2.22,6.72-5-2.35-4.93-6.74-4.93ZM149.21,53.47c-1.6-.03-2.31-1.8-2.28-3.56.03-1.82.9-3.41,2.4-3.38,1.5.03,2.29,1.65,2.26,3.47-.03,1.72-.74,3.51-2.39,3.48Z"></path></g></svg>