<svg width="24" height="24" viewBox="0 0 24 24" fill="none" xmlns="http://www.w3.org/2000/svg">
<g clip-path="url(#clip0_6144_24482)">
<g clip-path="url(#clip1_6144_24482)">
<mask id="mask0_6144_24482" style="mask-type:luminance" maskUnits="userSpaceOnUse" x="-4" y="0" width="32" height="24">
<rect x="-4" width="32" height="24" fill="white"/>
</mask>
<g mask="url(#mask0_6144_24482)">
<path fill-rule="evenodd" clip-rule="evenodd" d="M-4 0H28V24H-4V0Z" fill="#F7FCFF"/>
<path fill-rule="evenodd" clip-rule="evenodd" d="M-4 0V8H28V0H-4Z" fill="#C51918"/>
<path fill-rule="evenodd" clip-rule="evenodd" d="M-4 16V24H28V16H-4Z" fill="#5EAA22"/>
<path fill-rule="evenodd" clip-rule="evenodd" d="M-4 -2L12.6696 12L-4 26V-2Z" fill="#292B2E"/>
<mask id="path-7-outside-1_6144_24482" maskUnits="userSpaceOnUse" x="-6" y="-8.35498" width="36" height="40" fill="black">
<rect fill="white" x="-6" y="-8.35498" width="36" height="40"/>
<path fill-rule="evenodd" clip-rule="evenodd" d="M-4 -3.35498L13.4083 9.99997H28V14H13.1694L-4 26.8115V22.3402L10 12L-4 1.53447V-3.35498Z"/>
</mask>
<path fill-rule="evenodd" clip-rule="evenodd" d="M-4 -3.35498L13.4083 9.99997H28V14H13.1694L-4 26.8115V22.3402L10 12L-4 1.53447V-3.35498Z" fill="#FFD018"/>
<path d="M13.4083 9.99997L12.1909 11.5868L12.7295 12H13.4083V9.99997ZM-4 -3.35498L-2.78264 -4.94182L-6 -7.41004V-3.35498H-4ZM28 9.99997H30V7.99997H28V9.99997ZM28 14V16H30V14H28ZM13.1694 14V12H12.5054L11.9733 12.397L13.1694 14ZM-4 26.8115H-6V30.7993L-2.80392 28.4144L-4 26.8115ZM-4 22.3402L-5.18821 20.7314L-6 21.331V22.3402H-4ZM10 12L11.1882 13.6087L13.3533 12.0096L11.1975 10.3981L10 12ZM-4 1.53447H-6V2.53645L-5.19747 3.13636L-4 1.53447ZM14.6257 8.41313L-2.78264 -4.94182L-5.21736 -1.76815L12.1909 11.5868L14.6257 8.41313ZM28 7.99997H13.4083V12H28V7.99997ZM30 14V9.99997H26V14H30ZM13.1694 16H28V12H13.1694V16ZM-2.80392 28.4144L14.3655 15.6029L11.9733 12.397L-5.19608 25.2086L-2.80392 28.4144ZM-6 22.3402V26.8115H-2V22.3402H-6ZM8.81179 10.3912L-5.18821 20.7314L-2.81179 23.9489L11.1882 13.6087L8.81179 10.3912ZM-5.19747 3.13636L8.80253 13.6019L11.1975 10.3981L-2.80253 -0.0674217L-5.19747 3.13636ZM-6 -3.35498V1.53447H-2V-3.35498H-6Z" fill="#292B2E" mask="url(#path-7-outside-1_6144_24482)"/>
<path d="M0.873622 16.7682L0.87562 15.1878C2.28395 14.8771 3.2169 14.473 3.67101 13.987C4.78925 12.6088 4.04589 9.37996 1.74852 9.40107C0.610338 9.40107 -0.566653 9.94345 -0.566653 11.22C-0.566653 12.8054 -0.24039 13.4832 0.87562 13.4832C1.98467 13.4832 2.39128 13.5425 3.12183 12.5467L3.91461 12.7917C3.13177 13.8587 2.07651 14.7016 0.873622 14.7016C-1.10792 14.7016 -2.18628 13.2075 -2.18628 11.4796C-2.18628 9.34648 -0.454599 7.85254 1.63334 7.85254C3.19125 7.85254 5.6554 9.76074 5.6554 11.4796C5.6554 13.1984 5.6554 13.987 4.30423 15.1878C3.76 15.6715 2.41155 16.5353 0.873622 16.7682Z" fill="#FFD018"/>
<path fill-rule="evenodd" clip-rule="evenodd" d="M0.991438 9.88001C0.915155 9.85987 0.836986 9.90538 0.816843 9.98166L0.762231 10.1885C0.759497 10.1849 0.75676 10.1814 0.754019 10.1778C0.705794 10.1154 0.616079 10.1039 0.553635 10.1521C0.491191 10.2003 0.479665 10.29 0.52789 10.3525C0.560985 10.3953 0.593643 10.4377 0.625858 10.4795L0.461226 10.6316C0.403261 10.6851 0.399661 10.7755 0.453186 10.8334C0.50671 10.8914 0.597091 10.895 0.655056 10.8415L0.800531 10.7071C0.887385 10.8207 0.970617 10.93 1.05014 11.0351L0.776283 11.1821C0.70677 11.2194 0.680671 11.306 0.71799 11.3755C0.755308 11.445 0.841913 11.4711 0.911427 11.4338L1.2242 11.2659C1.29924 11.3659 1.37039 11.4612 1.43756 11.5519L1.062 11.7535C0.992484 11.7908 0.966385 11.8774 1.0037 11.9469C1.04102 12.0165 1.12763 12.0426 1.19714 12.0052L1.60868 11.7843C1.71813 11.934 1.81408 12.0676 1.89601 12.184L1.63343 12.3249C1.56391 12.3623 1.53781 12.4489 1.57513 12.5184C1.61245 12.5879 1.69906 12.614 1.76857 12.5767L2.05919 12.4207C2.18006 12.6008 2.24264 12.7088 2.24264 12.7373C2.24264 12.8162 2.3066 12.8801 2.3855 12.8801C2.4644 12.8801 2.52836 12.8162 2.52836 12.7373C2.52836 12.665 2.45314 12.5129 2.29595 12.2691C2.29823 12.2652 2.30032 12.2611 2.30221 12.2569L2.51361 11.7915C2.54623 11.7197 2.51445 11.635 2.44261 11.6024C2.37078 11.5697 2.28609 11.6015 2.25347 11.6733L2.10905 11.9913C2.01883 11.8615 1.91351 11.7145 1.79259 11.5494L1.94218 11.2201C1.97481 11.1482 1.94302 11.0635 1.87118 11.0309C1.79935 10.9983 1.71466 11.0301 1.68204 11.1019L1.59818 11.2866C1.55196 11.2246 1.50394 11.1605 1.45408 11.0943L1.65647 10.6486C1.68909 10.5768 1.65731 10.4921 1.58547 10.4595C1.51363 10.4269 1.42895 10.4587 1.39632 10.5305L1.25799 10.8351C1.17086 10.7205 1.07898 10.6002 0.982279 10.4743L1.09309 10.0546C1.11323 9.97833 1.06772 9.90016 0.991438 9.88001Z" fill="#FFD018"/>
<path fill-rule="evenodd" clip-rule="evenodd" d="M1.95217 9.88001C2.02845 9.85987 2.10662 9.90538 2.12676 9.98166L2.18137 10.1885C2.18411 10.1849 2.18684 10.1814 2.18958 10.1778C2.23781 10.1154 2.32752 10.1039 2.38997 10.1521C2.45241 10.2003 2.46394 10.29 2.41571 10.3525C2.38262 10.3953 2.34996 10.4377 2.31775 10.4795L2.48238 10.6316C2.54034 10.6851 2.54394 10.7755 2.49042 10.8334C2.43689 10.8914 2.34651 10.895 2.28855 10.8415L2.14307 10.7071C2.05622 10.8207 1.97299 10.93 1.89346 11.0351L2.16732 11.1821C2.23683 11.2194 2.26293 11.306 2.22561 11.3755C2.1883 11.445 2.10169 11.4711 2.03218 11.4338L1.7194 11.2659C1.64436 11.3659 1.57321 11.4612 1.50604 11.5519L1.88161 11.7535C1.95112 11.7908 1.97722 11.8774 1.9399 11.9469C1.90258 12.0165 1.81598 12.0426 1.74646 12.0052L1.33493 11.7843C1.22548 11.934 1.12952 12.0676 1.0476 12.184L1.31018 12.3249C1.37969 12.3623 1.40579 12.4489 1.36847 12.5184C1.33115 12.5879 1.24455 12.614 1.17503 12.5767L0.884415 12.4207C0.763544 12.6008 0.700962 12.7088 0.700962 12.7373C0.700962 12.8162 0.637003 12.8801 0.558105 12.8801C0.479207 12.8801 0.415248 12.8162 0.415248 12.7373C0.415248 12.665 0.490465 12.5129 0.647649 12.2691C0.645376 12.2652 0.643286 12.2611 0.641389 12.2569L0.429995 11.7915C0.397369 11.7197 0.429155 11.635 0.500991 11.6024C0.572827 11.5697 0.65751 11.6015 0.690136 11.6733L0.834554 11.9913C0.924777 11.8615 1.03009 11.7145 1.15102 11.5494L1.00142 11.2201C0.968798 11.1482 1.00058 11.0635 1.07242 11.0309C1.14426 10.9983 1.22894 11.0301 1.26156 11.1019L1.34543 11.2866C1.39164 11.2246 1.43967 11.1605 1.48953 11.0943L1.28714 10.6486C1.25451 10.5768 1.2863 10.4921 1.35813 10.4595C1.42997 10.4269 1.51465 10.4587 1.54728 10.5305L1.68561 10.8351C1.77274 10.7205 1.86462 10.6002 1.96132 10.4743L1.85051 10.0546C1.83037 9.97833 1.87588 9.90016 1.95217 9.88001Z" fill="#FFD018"/>
</g>
</g>
<g style="mix-blend-mode:hard-light" opacity="0.12">
<rect width="24" height="24" rx="12" fill="white"/>
</g>
<rect width="24" height="24" fill="url(#paint0_linear_6144_24482)" fill-opacity="0.64" style="mix-blend-mode:overlay"/>
</g>
<defs>
<linearGradient id="paint0_linear_6144_24482" x1="24" y1="1.19273e-06" x2="-4.48665" y2="16.0237" gradientUnits="userSpaceOnUse">
<stop stop-color="white" stop-opacity="0.3"/>
<stop offset="0.262741" stop-opacity="0.27"/>
<stop offset="0.369956" stop-color="white" stop-opacity="0.26"/>
<stop offset="0.487001" stop-opacity="0.55"/>
<stop offset="0.594445" stop-opacity="0.24"/>
<stop offset="0.736408" stop-color="white" stop-opacity="0.3"/>
<stop offset="0.901459" stop-color="#272727" stop-opacity="0.22"/>
<stop offset="1" stop-opacity="0.2"/>
</linearGradient>
<clipPath id="clip0_6144_24482">
<rect width="24" height="24" rx="12" fill="white"/>
</clipPath>
<clipPath id="clip1_6144_24482">
<rect width="24" height="24" fill="white"/>
</clipPath>
</defs>
</svg>
