<svg xmlns="http://www.w3.org/2000/svg" id="Layer_1" data-name="Layer 1" viewBox="0 0 36 36"><defs><style>      .cls-1 {        fill: #292b2e;        stroke-width: 0px;      }      .cls-2 {        fill: none;        stroke: #292b2e;        stroke-width: .3px;      }    </style></defs><path class="cls-1" d="M6.9,35c-.6,0-1.2-.2-1.7-.7-.5-.5-.7-1-.7-1.7V3.4c0-.6.2-1.2.7-1.7.5-.5,1-.7,1.7-.7h15.7c.6,0,1.2.2,1.7.7.5.5.7,1,.7,1.7v4.7c0,.4-.3.7-.7.7s-.7-.3-.7-.7v-2.1H5.8v24.1h17.8v-2.1c0-.4.3-.7.7-.7s.7.3.7.7v4.7c0,.6-.2,1.2-.7,1.7-.5.5-1,.7-1.7.7H6.9ZM5.8,31.3v1.3c0,.3.1.5.3.7.2.2.5.3.7.3h15.7c.3,0,.5-.1.7-.3.2-.2.3-.5.3-.7v-1.3H5.8ZM5.8,4.7h17.8v-1.3c0-.3-.1-.5-.3-.7-.2-.2-.5-.3-.7-.3H6.9c-.3,0-.5.1-.7.3-.2.2-.3.5-.3.7v1.3Z"></path><path class="cls-1" d="M28.4,13l.5,1c0,.2.2.3.4.3s.3,0,.4-.3l.5-1,1-.5c.2,0,.3-.2.3-.4s0-.3-.3-.4l-1-.5-.5-1c0-.2-.2-.3-.4-.3s-.3,0-.4.3l-.5,1-1,.5c-.2,0-.3.2-.3.4s0,.3.3.4l1,.5Z"></path><path class="cls-1" d="M17.7,19.6l1.3,2.8c.1.3.4.4.7.4s.5-.1.7-.4l1.3-2.8,2.8-1.3c.3-.1.4-.3.4-.7s-.1-.5-.4-.7l-2.8-1.3-1.3-2.8c-.1-.3-.4-.4-.7-.4s-.5.1-.7.4l-1.3,2.8-2.8,1.3c-.3.1-.4.3-.4.7s.1.5.4.7l2.8,1.3Z"></path><path class="cls-1" d="M28.4,24.2l.5,1c0,.2.2.3.4.3s.3,0,.4-.3l.5-1,1-.5c.2,0,.3-.2.3-.4s0-.3-.3-.4l-1-.5-.5-1c0-.2-.2-.3-.4-.3s-.3,0-.4.3l-.5,1-1,.5c-.2,0-.3.2-.3.4s0,.3.3.4l1,.5Z"></path><path class="cls-2" d="M5.8,31.3v1.3c0,.3.1.5.3.7.2.2.5.3.7.3h15.7c.3,0,.5-.1.7-.3.2-.2.3-.5.3-.7v-1.3H5.8ZM5.8,31.3v2.4M5.8,4.7h17.8v-1.3c0-.3-.1-.5-.3-.7-.2-.2-.5-.3-.7-.3H6.9c-.3,0-.5.1-.7.3-.2.2-.3.5-.3.7v1.3ZM5.8,4.7v-2.4M6.9,35c-.6,0-1.2-.2-1.7-.7-.5-.5-.7-1-.7-1.7V3.4c0-.6.2-1.2.7-1.7.5-.5,1-.7,1.7-.7h15.7c.6,0,1.2.2,1.7.7.5.5.7,1,.7,1.7v4.7c0,.4-.3.7-.7.7s-.7-.3-.7-.7v-2.1H5.8v24.1h17.8v-2.1c0-.4.3-.7.7-.7s.7.3.7.7v4.7c0,.6-.2,1.2-.7,1.7-.5.5-1,.7-1.7.7H6.9ZM28.9,14l-.5-1-1-.5c-.2,0-.3-.2-.3-.4s0-.3.3-.4l1-.5.5-1c0-.2.2-.3.4-.3s.3,0,.4.3l.5,1,1,.5c.2,0,.3.2.3.4s0,.3-.3.4l-1,.5-.5,1c0,.2-.2.3-.4.3s-.3,0-.4-.3ZM19,22.4l-1.3-2.8-2.8-1.3c-.3-.1-.4-.3-.4-.7s.1-.5.4-.7l2.8-1.3,1.3-2.8c.1-.3.4-.4.7-.4s.5.1.7.4l1.3,2.8,2.8,1.3c.3.1.4.3.4.7s-.1.5-.4.7l-2.8,1.3-1.3,2.8c-.1.3-.4.4-.7.4s-.5-.1-.7-.4ZM28.9,25.2l-.5-1-1-.5c-.2,0-.3-.2-.3-.4s0-.3.3-.4l1-.5.5-1c0-.2.2-.3.4-.3s.3,0,.4.3l.5,1,1,.5c.2,0,.3.2.3.4s0,.3-.3.4l-1,.5-.5,1c0,.2-.2.3-.4.3s-.3,0-.4-.3Z"></path></svg>