<svg width="24" height="24" viewBox="0 0 24 24" fill="none" xmlns="http://www.w3.org/2000/svg">
<g clip-path="url(#clip0_6144_24488)">
<g clip-path="url(#clip1_6144_24488)">
<mask id="mask0_6144_24488" style="mask-type:luminance" maskUnits="userSpaceOnUse" x="-4" y="0" width="32" height="24">
<rect x="-4" width="32" height="24" fill="white"/>
</mask>
<g mask="url(#mask0_6144_24488)">
<path fill-rule="evenodd" clip-rule="evenodd" d="M-4 0H28V24H-4V0Z" fill="#F7FCFF"/>
<path fill-rule="evenodd" clip-rule="evenodd" d="M-4 0V24H28V0H-4Z" fill="#5EAA22"/>
<mask id="mask1_6144_24488" style="mask-type:luminance" maskUnits="userSpaceOnUse" x="-4" y="0" width="32" height="24">
<path fill-rule="evenodd" clip-rule="evenodd" d="M-4 0V24H28V0H-4Z" fill="white"/>
</mask>
<g mask="url(#mask1_6144_24488)">
<rect x="23" y="10" width="5" height="14" fill="#FF8126"/>
<rect x="18" y="10" width="5" height="14" fill="#292B2E"/>
<rect x="13" y="10" width="5" height="14" fill="#C51918"/>
<path fill-rule="evenodd" clip-rule="evenodd" d="M20.5469 4.83768C21.0281 4.98695 20.5469 5.21545 20.5469 5.21545C20.5469 5.21545 20.4519 5.12228 20.4519 5.04448C20.4519 4.96668 20.0833 5.04448 19.8932 5.3268C19.713 5.59435 20.0451 5.59358 20.3941 5.59276C20.4133 5.59272 20.4326 5.59267 20.4519 5.59267C20.6491 5.59267 20.9576 5.57628 21.2444 5.56104C21.4938 5.54779 21.7269 5.5354 21.8565 5.5354C22.135 5.5354 22.2668 5.5354 22.6342 5.3268C22.8731 5.19119 23.663 5.0252 24.2502 4.90179C24.5664 4.83536 24.8238 4.78126 24.9049 4.75089C25.1367 4.6641 24.6731 5.12228 24.6731 5.12228C24.6731 5.12228 26.4616 4.51368 26.8199 4.30585C27.0413 4.17745 26.941 4.28704 26.7772 4.46597C26.6759 4.57665 26.5503 4.71386 26.4616 4.83768C26.3104 5.04865 26.6183 4.84752 26.9604 4.62413C27.1436 4.50444 27.3367 4.37836 27.4742 4.30585C27.8681 4.09803 27.374 4.66175 27.1568 4.83768C26.9396 5.01362 27.6668 4.83768 27.9185 4.66175C28.1038 4.53229 27.9346 4.75858 27.7922 4.94908C27.741 5.01746 27.6934 5.08124 27.6668 5.12228L27.6625 5.12882C27.5651 5.27905 27.5342 5.3268 27.7674 5.3268C28.0041 5.3268 27.1568 5.88259 27.1568 5.88259C27.1568 5.88259 27.4092 5.84878 27.1568 6.21885C27.008 6.437 26.2834 6.65737 25.6952 6.83629C25.2855 6.96089 24.9419 7.06539 24.9049 7.13503C24.8385 7.26009 24.1787 7.40493 23.8712 7.47243C23.7615 7.4965 23.6966 7.51074 23.7195 7.51074C23.8063 7.51074 23.9506 7.6034 23.7939 7.6034C23.6372 7.6034 23.362 7.67814 23.362 7.67814C23.362 7.67814 23.5068 7.67814 23.362 7.85228C23.2926 7.9357 23.171 7.92249 23.0857 7.91322C22.9929 7.90315 22.9431 7.89774 23.0503 8.02643C23.1445 8.13951 23.1805 8.18252 23.1716 8.19592C23.1611 8.21179 23.0878 8.18613 22.9739 8.18613C22.8741 8.18613 22.7675 8.1501 22.6555 8.11226C22.5318 8.07044 22.4015 8.02643 22.2668 8.02643C22.0204 8.02643 22.2677 8.17358 22.4222 8.2655C22.4287 8.26934 22.4349 8.27309 22.441 8.27672C22.5789 8.35902 22.5215 8.35885 22.2719 8.35813C22.2467 8.35806 22.2196 8.35798 22.1905 8.35798C22.0357 8.35798 21.9525 8.34373 21.9078 8.33608C21.8608 8.32804 21.8565 8.32729 21.8565 8.35798C21.8565 8.38742 21.7398 8.34644 21.5994 8.29714C21.454 8.2461 21.2833 8.18613 21.1903 8.18613C21.0074 8.18613 21.5779 8.50443 21.5779 8.50443C21.5779 8.50443 21.2807 8.42335 21.1198 8.35798C21.0283 8.32083 21.1446 8.4961 21.2495 8.65432C21.3292 8.77446 21.4024 8.88476 21.3731 8.88476C21.3509 8.88476 21.3019 8.86493 21.2461 8.84233C21.1316 8.79595 20.9883 8.7379 20.9883 8.81565C20.9883 8.93129 21.1198 9.01722 21.2807 9.01722C21.4417 9.01722 21.4681 9.19783 21.3731 9.19783C21.3402 9.19783 21.2996 9.18587 21.2607 9.1744C21.1874 9.15278 21.1198 9.13287 21.1198 9.19783C21.1198 9.23974 21.1484 9.27111 21.1815 9.30742C21.2269 9.35726 21.2807 9.4164 21.2807 9.52485C21.2807 9.71229 21.0413 9.73896 21.1198 9.61474C21.1984 9.49051 20.8473 9.19065 20.8473 9.33742V9.52485C20.8473 9.65737 20.817 9.66583 20.7697 9.67906C20.7406 9.6872 20.705 9.69714 20.6661 9.73896C20.608 9.80137 20.5992 9.83688 20.5944 9.85677C20.5895 9.87646 20.5885 9.88084 20.5469 9.88084C20.5139 9.88084 20.4865 9.83942 20.4497 9.78376C20.3931 9.69831 20.3143 9.57928 20.1592 9.52485C20.0118 9.47315 20.004 9.51066 19.9906 9.57551C19.9807 9.6234 19.9677 9.68619 19.8932 9.73896C19.7811 9.81827 19.8121 9.85116 19.8492 9.89048C19.8702 9.91276 19.8932 9.9371 19.8932 9.9731C19.8932 10.0727 19.6971 9.87353 19.6971 9.73896C19.6971 9.60439 19.4742 9.42537 19.4742 9.52485C19.4742 9.62433 19.4742 9.73896 19.3596 9.73896C19.3045 9.73896 19.3024 9.77213 19.2997 9.81669C19.2967 9.86469 19.2929 9.92591 19.221 9.9731C19.1502 10.0196 19.1517 9.99482 19.1551 9.94037C19.1584 9.88826 19.1634 9.80897 19.1082 9.73896C19.0392 9.65137 19.0969 9.51581 19.1262 9.44687C19.1448 9.40314 19.152 9.38622 19.1082 9.42537C18.9969 9.52489 18.855 9.52487 18.759 9.52485H18.7552C18.7069 9.52485 18.6646 9.57672 18.6346 9.61361C18.6049 9.65002 18.5872 9.67183 18.5872 9.61474C18.5872 9.4998 18.7294 9.19783 18.997 9.19783C19.2031 9.19783 19.3068 9.12729 19.396 9.06667C19.4226 9.04859 19.4479 9.03139 19.4742 9.01722C19.5888 8.9555 19.4742 8.87499 19.3596 8.81565C19.3076 8.78869 19.3265 8.70179 19.3626 8.62415C19.4262 8.58964 19.4742 8.54704 19.4742 8.50443C19.4742 8.45107 19.406 8.53092 19.3626 8.62415C19.2803 8.66887 19.1719 8.70001 19.1082 8.70001C19.0471 8.70001 19.0854 8.60673 19.1332 8.49002C19.1737 8.39139 19.221 8.27605 19.221 8.18613C19.221 8.1005 19.2379 8.02606 19.2496 7.97458C19.2647 7.90803 19.2711 7.87985 19.221 7.9155C19.1588 7.95974 18.8276 7.91108 18.6017 7.87789C18.5048 7.86366 18.4274 7.85228 18.3988 7.85228C18.3565 7.85228 18.3906 7.78534 18.4244 7.71876C18.4669 7.63497 18.5092 7.55176 18.3988 7.6034C18.2257 7.68433 17.8738 7.68091 17.6512 7.67874C17.6189 7.67843 17.5893 7.67814 17.5634 7.67814C17.4332 7.67814 17.5226 7.58129 17.5705 7.52936C17.5979 7.4997 17.6117 7.48469 17.5634 7.51074C17.4306 7.5824 17.2986 7.6034 17.1492 7.6034C17.0818 7.6034 17.0626 7.56971 17.0415 7.53284C17.0158 7.48792 16.9874 7.43828 16.8661 7.43907C16.6452 7.44053 16.5956 7.43762 16.474 7.35667C16.4107 7.31454 16.4462 7.28977 16.4664 7.2757C16.485 7.26273 16.4906 7.25886 16.3938 7.25886H15.7944C15.4958 7.25886 15.7953 7.06266 15.9029 7.06266C16.0105 7.06266 16.1353 6.8861 15.9029 6.96538C15.7542 7.01612 15.595 7.00191 15.4069 6.9851C15.301 6.97565 15.186 6.96538 15.0586 6.96538C14.7044 6.96538 14.6365 6.82729 14.8459 6.82729C15.0553 6.82729 15.0677 6.72613 14.7422 6.72613C14.5379 6.72613 14.37 6.67936 14.2449 6.6445C14.1706 6.62379 14.1113 6.60728 14.0685 6.60728C13.9537 6.60728 13.8295 6.47113 14.0685 6.47113C14.3076 6.47113 14.6142 6.35765 14.3526 6.35765C14.2048 6.35765 13.9583 6.29128 13.7439 6.23355C13.5788 6.18909 13.4326 6.14974 13.3651 6.14974C13.3133 6.14974 13.3943 6.13507 13.5023 6.11553C13.7175 6.07656 14.0397 6.01821 13.6287 6.01821C13.1899 6.01821 12.7301 5.71646 12.4126 5.50805C12.2836 5.42343 12.1781 5.3542 12.107 5.3268C11.8607 5.23189 12.107 5.04448 12.178 5.12228C12.2489 5.20008 12.7457 5.31971 12.5305 5.21545C12.3153 5.11118 12.178 4.93375 12.107 4.83768C12.0361 4.74162 12.0907 4.67526 12.178 4.75089C12.2652 4.82652 12.668 5.04448 12.668 5.04448C12.668 5.04448 12.4525 4.83768 12.2814 4.51368C12.1104 4.18967 12.4525 4.26859 12.7457 4.51368C13.0389 4.75876 13.3138 4.82361 13.4518 4.83768C13.5898 4.85176 13.3138 4.66115 13.0481 4.51368C12.7824 4.3662 12.8427 3.83824 13.0481 4.04905C13.1549 4.15872 13.6611 4.36772 14.1562 4.57214C14.6127 4.76065 15.0598 4.94527 15.1756 5.04448C15.3759 5.21618 15.2147 4.96022 15.0401 4.68294C15.0044 4.62625 14.9682 4.56867 14.9343 4.51368C14.8184 4.32531 15.2843 4.53933 15.8144 4.78282C16.1961 4.95817 16.6112 5.1488 16.8661 5.21545C17.0417 5.26136 17.2515 5.33486 17.461 5.40831C17.9781 5.58954 18.4941 5.7704 18.4941 5.5354C18.4941 5.20516 18.9671 4.68842 19.4742 4.51368C19.7961 4.40277 19.9476 4.50303 20.1384 4.62924C20.2482 4.70189 20.3711 4.78315 20.5469 4.83768ZM20.0012 8.71366C20.1157 8.71366 20.0844 7.71019 20.0844 7.71019C20.0844 7.71019 20.4222 8.32554 20.4222 8.59181C20.4222 8.71297 20.4121 8.7491 20.4152 8.78405C20.4189 8.82591 20.4417 8.86608 20.5236 9.04865C20.6069 9.23427 20.5517 9.21418 20.4012 9.15935C20.28 9.11524 20.0971 9.04865 19.8749 9.04865C19.3767 9.04865 19.8868 8.71366 20.0012 8.71366Z" fill="#FF8126"/>
</g>
</g>
</g>
<g style="mix-blend-mode:hard-light" opacity="0.12">
<rect width="24" height="24" rx="12" fill="white"/>
</g>
<rect width="24" height="24" fill="url(#paint0_linear_6144_24488)" fill-opacity="0.64" style="mix-blend-mode:overlay"/>
</g>
<defs>
<linearGradient id="paint0_linear_6144_24488" x1="24" y1="1.19273e-06" x2="-4.48665" y2="16.0237" gradientUnits="userSpaceOnUse">
<stop stop-color="white" stop-opacity="0.3"/>
<stop offset="0.262741" stop-opacity="0.27"/>
<stop offset="0.369956" stop-color="white" stop-opacity="0.26"/>
<stop offset="0.487001" stop-opacity="0.55"/>
<stop offset="0.594445" stop-opacity="0.24"/>
<stop offset="0.736408" stop-color="white" stop-opacity="0.3"/>
<stop offset="0.901459" stop-color="#272727" stop-opacity="0.22"/>
<stop offset="1" stop-opacity="0.2"/>
</linearGradient>
<clipPath id="clip0_6144_24488">
<rect width="24" height="24" rx="12" fill="white"/>
</clipPath>
<clipPath id="clip1_6144_24488">
<rect width="24" height="24" fill="white"/>
</clipPath>
</defs>
</svg>
