<svg xmlns="http://www.w3.org/2000/svg" width="140" height="40" fill="none"><rect width="139" height="39" x=".5" y=".5" stroke="#292B2E" rx="7.5"></rect><path fill="#292B2E" d="M34.95 20.7a5 5 0 0 1 2.38-4.2 5.12 5.12 0 0 0-4.03-2.18c-1.7-.17-3.34 1.02-4.2 1.02-.89 0-2.22-1-3.65-.97a5.37 5.37 0 0 0-4.52 2.76c-1.96 3.38-.5 8.35 1.37 11.09.94 1.34 2.03 2.83 3.47 2.78 1.4-.06 1.92-.9 3.61-.9 1.68 0 2.17.9 3.63.86 1.5-.02 2.45-1.34 3.35-2.7.68-.95 1.2-2 1.54-3.12a4.83 4.83 0 0 1-2.95-4.44ZM32.19 12.53A4.92 4.92 0 0 0 33.32 9a5 5 0 0 0-4.16 3.26c-.2.58-.28 1.2-.24 1.81a4.14 4.14 0 0 0 3.27-1.54ZM52.66 22.69h-4.78l-1.15 3.39h-2.02l4.53-12.55h2.1l4.53 12.55h-2.06l-1.15-3.4Zm-4.28-1.57h3.79l-1.87-5.5h-.05l-1.87 5.5ZM65.65 21.5c0 2.85-1.52 4.67-3.81 4.67a3.1 3.1 0 0 1-2.88-1.6h-.05v4.54h-1.87V16.93h1.81v1.52h.04a3.24 3.24 0 0 1 2.91-1.61c2.32 0 3.85 1.83 3.85 4.67Zm-1.93 0c0-1.85-.95-3.06-2.41-3.06-1.44 0-2.4 1.24-2.4 3.07 0 1.84.96 3.07 2.4 3.07 1.46 0 2.41-1.2 2.41-3.07ZM75.72 21.5c0 2.85-1.52 4.67-3.82 4.67a3.1 3.1 0 0 1-2.87-1.6h-.05v4.54H67.1V16.93h1.82v1.52h.04a3.24 3.24 0 0 1 2.9-1.61c2.33 0 3.86 1.83 3.86 4.67Zm-1.93 0c0-1.85-.96-3.06-2.42-3.06-1.43 0-2.4 1.24-2.4 3.07 0 1.84.97 3.07 2.4 3.07 1.46 0 2.42-1.2 2.42-3.07ZM82.37 22.58c.14 1.25 1.35 2.06 3 2.06 1.59 0 2.72-.81 2.72-1.93 0-.98-.68-1.56-2.3-1.96l-1.63-.4c-2.3-.55-3.38-1.63-3.38-3.37 0-2.17 1.89-3.66 4.57-3.66 2.65 0 4.47 1.5 4.53 3.66h-1.9c-.11-1.26-1.15-2.01-2.66-2.01-1.51 0-2.55.76-2.55 1.88 0 .88.66 1.4 2.28 1.8l1.38.34c2.58.61 3.65 1.65 3.65 3.48 0 2.35-1.87 3.82-4.85 3.82-2.78 0-4.66-1.44-4.78-3.7h1.92ZM94.13 14.77v2.16h1.74v1.49h-1.74v5.04c0 .78.35 1.15 1.11 1.15.2 0 .42-.02.62-.04v1.47c-.34.07-.7.1-1.04.1-1.85 0-2.58-.7-2.58-2.48v-5.24h-1.33v-1.49h1.33v-2.16h1.89ZM96.88 21.5c0-2.87 1.7-4.68 4.33-4.68 2.66 0 4.34 1.8 4.34 4.69 0 2.88-1.67 4.68-4.34 4.68-2.66 0-4.33-1.8-4.33-4.68Zm6.76 0c0-1.97-.9-3.13-2.43-3.13-1.52 0-2.42 1.17-2.42 3.14 0 1.98.9 3.14 2.42 3.14 1.53 0 2.43-1.16 2.43-3.14ZM107.1 16.93h1.8v1.56h.04a2.18 2.18 0 0 1 2.2-1.65c.21 0 .43.02.64.07v1.75a2.62 2.62 0 0 0-.84-.11 1.9 1.9 0 0 0-1.96 2.1v5.43h-1.88v-9.15ZM120.44 23.4c-.26 1.65-1.87 2.8-3.94 2.8-2.66 0-4.32-1.79-4.32-4.65 0-2.87 1.66-4.73 4.24-4.73 2.53 0 4.12 1.74 4.12 4.51v.65h-6.46v.1a2.38 2.38 0 0 0 2.46 2.6 2.07 2.07 0 0 0 2.11-1.29h1.78Zm-6.35-2.74h4.57a2.21 2.21 0 0 0-2.24-2.32 2.32 2.32 0 0 0-2.33 2.32Z"></path></svg>