<svg width="44" height="44" viewBox="0 0 44 44" fill="none" xmlns="http://www.w3.org/2000/svg">
<path d="M22.0159 43.9872C34.1574 43.9872 44 34.1403 44 21.9936C44 9.84687 34.1574 0 22.0159 0C9.87437 0 0.0317383 9.84687 0.0317383 21.9936C0.0317383 34.1403 9.87437 43.9872 22.0159 43.9872Z" fill="#DCF4FF"/>
<mask id="mask0_4164_29111" style="mask-type:alpha" maskUnits="userSpaceOnUse" x="0" y="0" width="44" height="44">
<path d="M22.0159 43.9872C34.1574 43.9872 44 34.1403 44 21.9936C44 9.84687 34.1574 0 22.0159 0C9.87437 0 0.0317383 9.84687 0.0317383 21.9936C0.0317383 34.1403 9.87437 43.9872 22.0159 43.9872Z" fill="#DCF4FF"/>
</mask>
<g mask="url(#mask0_4164_29111)">
<path d="M67.9837 20.633L65.5485 22.4075L65.5169 22.9695L64.7452 22.2307L63.4232 22.2749L63.4928 21.1193L63.1512 20.633L62.7654 19.5216L62.4111 19.5532L61.6394 18.467L58.4325 18.6439C58.4325 18.6439 56.4464 16.5221 54.8397 15.6822L51.9744 16.5916L51.9175 22.0602H51.3165C51.3165 22.0602 50.3361 20.5951 49.9946 20.4878C49.7415 20.412 48.9446 20.8919 48.5397 21.1571C48.2994 20.9424 48.3816 20.2099 48.3563 20.0394C48.3247 19.7995 47.4834 19.2059 47.1671 19.1048C46.8572 18.9975 46.4714 17.6777 46.2626 17.3935C46.0539 17.1157 46.1171 16.8063 46.5726 16.9389C47.0217 17.0841 46.8256 16.1053 47.243 16.0359C47.6605 15.9601 48.1159 16.0043 48.565 15.7201C48.7232 15.6254 49.0141 15.0571 48.9825 14.7097C48.9509 14.3687 48.4955 13.8762 48.4955 13.8762C46.9268 13.4594 45.7819 14.0088 44.9849 14.6277L43.7768 13.8762L44.5042 13.7752L43.4668 12.2596H42.4675L42.518 11.3124L41.8918 11.2114L42.3599 10.0557L42.3093 8.74859L43.0494 7.91504C43.0494 7.91504 43.9349 8.7991 44.1942 8.84962C44.4536 8.90646 44.0867 7.59299 44.0867 7.59299L44.9217 7.33408L44.9786 6.81626L46.4461 5.76801L47.0153 5.81853C47.0153 5.81853 47.0153 6.28582 47.2304 6.18478C47.4328 6.07743 48.1159 5.66066 48.1159 5.66066L48.3753 6.07743H49.2102L49.887 6.75312L50.4626 7.75086L50.6208 6.9173L51.8289 7.86452C51.8289 7.86452 51.9807 7.59929 52.2464 7.28987C52.5057 6.98044 53.0813 6.76575 53.0813 6.76575L53.6506 7.23936L53.9163 6.76575C53.9163 6.76575 54.5361 6.66471 54.6437 6.8731C54.7512 7.08149 55.8518 7.75717 55.8518 7.75717L56.2123 7.18252C56.2123 7.18252 56.9018 7.54878 57.5786 7.54878C58.2554 7.54878 57.8885 6.50052 57.528 6.14689C57.1675 5.79327 56.5286 5.62277 56.5286 5.62277C56.5286 5.62277 56.2693 5.25651 56.7373 4.94709C57.2054 4.63135 57.3129 4.53031 57.2623 4.25878C57.2054 3.99987 57.3635 3.3747 57.3635 3.3747L58.6223 3.48205L57.5723 2.95793L57.8316 2.59168L57.1548 2.28225L57.5723 1.55605L58.2491 1.7076L58.9385 1.75812L60.3428 1.18979L61.9684 0.924573L62.0696 0.305717L65.0614 -0.167892L65.3208 -0.52783L65.8394 -1.10248C65.8394 -1.10248 66.3138 -0.635182 66.8958 -0.52783C67.4651 -0.426794 67.6738 -0.6857 67.8825 -0.6857C68.0913 -0.6857 67.9331 -0.111059 68.0912 -0.0100226C68.2494 0.0910139 68.1482 0.924569 68.1988 1.40449C68.2494 1.87179 69.1855 1.14558 69.1855 1.14558L69.7611 1.71392L71.2792 1.61288C71.2792 1.61288 71.0199 1.92231 70.7605 2.02966C70.5012 2.1307 70.7605 2.70534 70.7605 2.70534L71.5955 2.23804C71.5955 2.23804 72.5316 1.76444 73.7904 1.08244C75.0491 0.40676 74.366 1.13927 74.1572 1.29082C73.9485 1.44869 74.1066 1.86547 74.1066 1.86547C74.1066 1.86547 75.5741 3.22947 75.7322 3.38102C75.884 3.53889 77.7184 7.35302 77.7184 7.35302C77.7184 7.35302 78.3952 6.5763 78.5533 6.30476C78.7114 6.04586 79.0783 7.0878 79.0783 7.0878L79.4958 7.29619L80.2801 7.34671C80.2801 7.34671 80.5395 7.0878 81.2669 7.03728C82.0069 6.98676 82.1524 7.92135 82.1524 7.92135L82.8925 8.43917C82.8925 8.43917 83.1518 9.01381 83.7274 9.38638C84.303 9.75264 84.9355 8.86225 84.9355 8.86225C84.9355 8.86225 84.8849 9.17799 84.8849 9.33586C84.8849 9.4369 85.2518 9.64529 85.5744 9.78422L84.8849 10.1694L84.9355 10.7946L83.6768 11.4703C83.6768 11.4703 83.7274 11.6787 83.6768 12.6764C83.6262 13.6741 82.8419 13.6741 82.8419 13.6741L81.0581 12.9858L80.2232 15.2844L80.4319 16.2316L79.5464 16.0737L77.8196 16.541L78.6039 19.048L77.9651 19.5721V20.6204L76.9783 19.8374L72.3735 19.73L71.684 19.0038L70.6973 19.2627L70.7985 20.4183L68.4455 19.8437L68.2367 20.4373L67.9521 20.6456L67.9837 20.633Z" fill="#90C6DE"/>
<path d="M39.9501 24.5485C40.3612 24.7063 40.9242 25.1736 41.4302 25.4073C41.4365 25.4136 41.4555 25.4136 41.4619 25.4262C41.5884 25.4767 41.7212 25.4831 41.854 25.4515C42.5308 25.3189 43.2835 24.3843 43.5555 24.3843C43.8718 24.3843 43.6567 25.3189 43.6567 25.3189L44.0742 25.7925C44.0742 25.7925 44.3082 25.9188 44.6435 26.0324C44.6245 26.525 44.8206 26.8534 45.5037 27.2891C46.7245 28.0469 48.8182 28.6783 49.4823 28.3373C49.767 28.1858 49.9188 27.8637 49.9567 27.4659L50.507 27.4091L51.342 26.5755H52.2402L52.6576 26.2156L53.1763 26.1587L53.385 26.5755L54.4793 26.7839L55.1688 27.0491L55.6369 27.1502L55.7381 27.7753H56.1555L56.6236 28.35L57.5218 28.451L57.5661 29.6824V30.0739L57.1043 30.8127L56.9968 32.1704L57.2055 35.0436L58.1037 35.1952L58.1543 36.0287L57.2688 37.1338L57.3004 37.1844L58.4643 38.9083H59.2486V40.3228H59.8242C59.8242 40.3228 60.0329 40.948 59.7167 41.1058C59.4067 41.2637 58.5718 41.1564 58.4073 41.5226C58.3125 41.731 58.148 42.3309 58.0278 42.8045C55.8646 42.8487 53.4293 42.6845 53.0688 41.8826C53.0119 41.7499 52.9107 41.6426 52.7842 41.5479C51.8796 40.8785 49.533 40.9732 49.3495 40.7901C49.1408 40.5817 46.7308 39.3756 46.6802 38.8578C46.6296 38.34 46.3007 36.3129 44.6941 36.8686C44.4537 36.9507 44.2513 37.0454 44.0932 37.1465L43.2835 35.7761C43.2835 35.7761 43.1254 34.8416 42.9167 34.1596C42.7079 33.4713 41.4492 33.2123 41.4492 33.2123L41.1329 32.2146L40.4561 31.7473L40.8736 31.5895L40.9305 30.5412L41.348 30.0234L41.5504 29.4487L40.5637 29.2404L40.3549 28.8741L40.0387 27.7816L39.7793 26.8976L39.52 26.2219C39.52 26.2219 39.1531 24.8074 39.52 24.5485C39.6212 24.4727 39.773 24.4916 39.9375 24.5548L39.9501 24.5485Z" fill="#90C6DE"/>
<path d="M41.8286 38.0625L42.5813 38.1193L43.1759 38.7571L43.8907 38.776C44.1753 39.3128 44.637 39.919 45.0292 40.601C45.7819 41.9082 46.4714 43.2911 47.5087 43.8468L47.4328 43.9794L48.331 45.394L50.5828 45.6529C50.5828 45.6529 50.8865 45.817 51.1837 46.0381C51.4431 46.2275 51.7087 46.4548 51.7783 46.6506C51.9365 47.0674 50.469 49.0565 50.469 49.0565L47.8503 49.8333L47.6416 49.8774L44.3524 50.5216L42.6256 52.1445L42.3093 51.8287L38.4889 51.513L38.3307 52.6181L37.5843 52.8707C36.8063 51.2288 35.6172 49.6375 34.3015 47.3326C32.2584 43.79 30.7403 39.2875 29.6461 39.3886C29.469 39.4075 29.3108 39.4138 29.159 39.4138L29.1147 37.8225L29.2602 37.5447C29.5132 37.8604 30.3482 37.8857 30.6202 37.8857C30.9364 37.8857 31.1072 37.3679 32.1952 36.9132C33.2768 36.4522 32.0497 35.5492 31.7461 35.2713C31.4298 34.9935 31.8789 34.7788 32.9289 34.6083C33.34 34.5388 33.7259 34.4883 34.0864 34.4883C34.6367 34.4883 35.1491 34.583 35.7184 34.8167C36.6672 35.1956 40.1587 37.9172 40.1587 37.9172L41.8413 38.0625H41.8286Z" fill="#90C6DE"/>
<path d="M44.1312 21.3409C44.6751 22.0039 45.1622 23.1532 44.9155 24.5046C44.7953 25.1992 44.6625 25.6728 44.6498 26.0454C44.3146 25.9254 44.0806 25.8054 44.0806 25.8054L43.6631 25.3318C43.6631 25.3318 43.8781 24.3972 43.5619 24.3972C43.2962 24.3972 42.5372 25.3318 41.8604 25.4644L41.7845 24.2836L41.1456 23.9173L41.0444 23.2985L40.6269 22.8249L40.8863 22.5154L40.2095 22.1997L40.4182 21.8334L41.1456 21.9913L41.7845 22.3576L41.9363 22.0481L41.6263 21.7324L41.5947 21.1136L42.2083 21.3156L42.6763 21.8903L43.3532 22.0987L44.1312 21.3535V21.3409Z" fill="#90C6DE"/>
<path d="M43.3024 35.7697L44.112 37.14C44.112 37.14 44.0614 37.1716 44.0361 37.1905C43.4921 36.9632 42.7015 36.6222 42.5813 36.8306C42.4801 37.0137 42.0563 37.6894 41.8286 38.062L40.1461 37.9167C40.1461 37.9167 36.6545 35.1888 35.7057 34.8162C35.1364 34.5825 34.6241 34.4878 34.0738 34.4878L33.5994 32.6376C33.5994 32.6376 33.6057 32.6313 33.6183 32.6313C35.5096 31.4883 36.2876 31.1662 36.2876 29.9727C36.2876 28.7792 36.3445 28.7161 36.762 28.4004C37.015 28.2109 37.6413 27.6994 38.103 27.3205C38.2801 27.3205 38.4319 27.3458 38.5394 27.4026C38.8936 27.5921 39.5768 27.712 40.0575 27.7689L40.3738 28.8613L40.5825 29.2276L41.5693 29.436L41.3668 30.0106L40.9494 30.5284L40.8924 31.5767L40.475 31.7346L41.1518 32.2019L41.468 33.1996C41.468 33.1996 42.7268 33.4585 42.9355 34.1468C43.1443 34.8225 43.3024 35.7634 43.3024 35.7634V35.7697Z" fill="#90C6DE"/>
<path d="M43.8907 38.77L43.1759 38.751L42.5813 38.1132L41.8286 38.0564C42.0563 37.6901 42.4801 37.0081 42.5813 36.825C42.7078 36.6166 43.4922 36.9576 44.0361 37.185C43.4479 37.5954 43.5428 38.1322 43.8843 38.7637L43.8907 38.77Z" fill="#90C6DE"/>
<path d="M41.8601 25.4519C41.7272 25.4898 41.5944 25.4771 41.4679 25.4329C41.4553 25.4266 41.4426 25.4266 41.43 25.414V24.9278L41.2212 24.8204L41.1453 24.5047H40.7658L40.5191 24.2584L40.1016 24.0626L39.4185 23.8037L38.7417 23.5953L38.7923 22.3892L38.7796 22.3766L39.2098 22.2187L40.2155 22.1935L40.886 22.5092L40.6266 22.8186L41.0441 23.2985L41.139 23.9111L41.7715 24.2773L41.8474 25.4519H41.8601Z" fill="#90C6DE"/>
<path d="M41.9363 22.0358L41.7845 22.3452L41.152 21.979L40.4246 21.8211L40.2159 22.1874H40.2222L39.2164 22.2252L38.7863 22.3831L37.964 21.7706H36.4586C36.7749 21.2464 37.0595 20.2929 35.9652 19.5983C35.6237 19.3899 35.2948 19.1373 34.9722 18.8973L35.3517 18.7521L36.7686 19.2194L37.6541 19.1689L38.9128 19.9582L39.2291 20.2677L39.8553 20.0593L40.589 19.9645L40.8547 20.1603L41.2722 20.9939L41.6074 21.1138L41.6327 21.7327L41.949 22.0547L41.9363 22.0358Z" fill="#90C6DE"/>
<path d="M41.4364 24.9148V25.4074C40.9241 25.1737 40.3674 24.7064 39.9563 24.5486L40.1144 24.0623L40.5319 24.2518L40.7723 24.4917H41.1518L41.2277 24.8075L41.4364 24.9085V24.9148Z" fill="#90C6DE"/>
<path d="M21.4363 21.1328V21.1348H22.2302C22.2485 21.1655 22.2722 21.2061 22.2957 21.2471L22.2966 21.2481C22.4404 21.4586 22.6865 21.6688 22.8962 21.8252C23.0013 21.9036 23.0979 21.969 23.1677 22.0147C23.2026 22.0375 23.2311 22.0552 23.2507 22.0674C23.2604 22.0734 23.268 22.0779 23.2732 22.0811C23.2757 22.0826 23.2777 22.0842 23.2791 22.085L23.281 22.086L23.2888 22.0733L23.281 22.0869L23.2859 22.0879C23.6321 22.1539 24.1506 22.2917 24.658 22.3526C24.9117 22.383 25.1639 22.3946 25.3923 22.3682C25.6209 22.3417 25.8266 22.2765 25.9861 22.1543H25.9871C26.1438 22.0325 26.2807 21.906 26.4119 21.7852C26.5433 21.6641 26.6691 21.5483 26.8035 21.4483C27.0717 21.2486 27.376 21.1094 27.8308 21.1094C28.2874 21.1094 28.9059 21.2223 29.5847 21.3975C30.2633 21.5726 31.0015 21.8095 31.697 22.0557C32.3984 22.2996 33.4582 22.3855 34.3757 22.376C34.8348 22.3713 35.2592 22.3422 35.5857 22.2979C35.7487 22.2758 35.8878 22.2499 35.9949 22.2207C36.0484 22.2061 36.0947 22.1901 36.1316 22.1739C36.1679 22.1578 36.1967 22.1408 36.2156 22.1221H36.2166V22.1211C36.2721 22.0533 36.3715 21.9407 36.4656 21.792H37.9597L38.783 22.4092L38.7332 23.6075V23.6192L38.7439 23.6221L39.4197 23.8301L40.0955 24.083L39.946 24.542C39.8068 24.486 39.6741 24.4693 39.573 24.5176L39.53 24.543C39.4327 24.6118 39.3862 24.7547 39.3689 24.9239C39.3515 25.0944 39.3635 25.2969 39.3865 25.4903C39.4095 25.6838 39.4437 25.8699 39.4724 26.0069C39.4867 26.0752 39.5002 26.1317 39.5095 26.1709C39.5141 26.1902 39.5177 26.2054 39.5203 26.2159C39.5216 26.2211 39.5225 26.2258 39.5232 26.2285C39.5235 26.2297 39.524 26.2309 39.5242 26.2315V26.2325L39.5251 26.2334L39.7839 26.9092L40.0359 27.7696C39.8035 27.7411 39.5229 27.6993 39.2566 27.6407C38.9811 27.58 38.7218 27.5029 38.5466 27.4092V27.4082C38.439 27.3514 38.2897 27.3266 38.1179 27.3252V27.3116L38.1023 27.3125C37.7396 27.3221 37.2779 27.4393 36.8386 27.5655C36.398 27.6921 35.9801 27.8269 35.7029 27.8741C35.3626 27.925 35.0333 28.0811 34.74 28.1973C34.5927 28.2557 34.4538 28.3038 34.3269 28.3252C34.2005 28.3465 34.0864 28.3413 33.9861 28.293C33.7737 28.1838 33.4188 28.1443 33.0662 28.1641C32.7171 28.1837 32.3657 28.2618 32.1501 28.3907L31.322 28.0274L31.2957 28.0157L31.3015 28.044L31.4998 29.0244L31.0486 29.0742H31.0466L30.8777 29.1153C30.8576 29.013 30.8196 28.9197 30.7488 28.8682C30.4327 28.6074 30.0108 28.4771 29.5896 28.4707C29.1679 28.4644 28.7456 28.5825 28.4294 28.8184C28.2724 28.9356 28.1454 29.0355 28.0291 29.1123C27.913 29.189 27.808 29.2414 27.696 29.2637C27.5287 29.297 27.3417 29.2636 27.071 29.1358L26.7693 28.9746C26.3265 28.7126 26.0092 28.5679 25.6912 28.5352C25.3728 28.5024 25.0553 28.5823 24.6121 28.7657C24.3908 28.8559 24.093 28.877 23.7634 28.8379C23.4342 28.7988 23.0739 28.7 22.7273 28.5498C22.0767 28.2679 21.4769 27.8083 21.2185 27.2364L21.1716 27.1201C20.9779 26.5779 20.7235 26.2496 20.5183 25.9981C20.4157 25.8723 20.3265 25.7667 20.2625 25.6631C20.1987 25.5599 20.161 25.4594 20.1609 25.3448C20.1609 25.2482 20.186 25.0802 20.2126 24.8721C20.2392 24.6648 20.2661 24.4183 20.2693 24.168C20.2755 23.6749 20.188 23.1584 19.8074 22.8858L20.3328 22.3614L20.3337 22.3623L20.3357 22.3584L20.5691 21.9414L20.5779 21.9463L20.5701 21.9287L20.322 21.3223L21.0251 20.9776L21.4363 21.1328Z" fill="#176C93" stroke="#DCF4FF" stroke-width="0.03"/>
<path d="M33.5933 32.6446C31.7337 33.7876 31.6261 33.9392 30.7849 33.6802C30.38 33.554 30.3547 33.2382 30.4686 32.9288C30.5888 32.5878 30.8607 32.2531 30.9936 32.171C31.2529 32.0131 31.3099 31.2364 31.0442 31.0154C30.9367 30.9333 30.7153 30.9396 30.5192 30.9712C30.7595 30.2261 30.9493 29.5188 30.8608 29.121L31.0442 29.0768L31.5123 29.0263L31.3098 28.0285L32.1448 28.3948C32.5623 28.1359 33.549 28.079 33.9728 28.2937C34.3903 28.4958 35.0228 27.978 35.6996 27.877C36.2499 27.7822 37.3758 27.3339 38.0969 27.3149C37.6352 27.6938 37.009 28.199 36.7559 28.3948C36.3385 28.7105 36.2815 28.761 36.2815 29.9672C36.2815 31.1733 35.5035 31.4827 33.6123 32.6257C33.6059 32.6257 33.6059 32.632 33.5933 32.632V32.6446Z" fill="#90C6DE"/>
<path d="M20.639 11.3821C20.5631 11.5273 20.424 11.6978 20.2089 11.8178C19.8231 12.0262 19.3234 12.0009 19.3234 12.0009C19.3234 12.0009 19.0387 12.2346 18.8047 12.2598C18.5706 12.2851 18.3619 11.8936 18.3619 11.8936H17.2297L16.9704 11.6852L16.3694 12.0262L15.6926 11.1926C15.7243 11.0727 15.9583 10.3338 16.0595 10.3338C16.1164 10.3338 16.2493 10.2391 16.3505 10.157C16.4264 10.1065 16.477 10.0623 16.477 10.0623L16.2935 9.43714L17.3435 7.99736L17.8369 7.9721L17.8875 6.85439L17.5776 6.77229L17.6535 6.46287L17.3246 6.22291C17.3246 6.22291 18.3366 5.38936 18.539 5.35147C18.7541 5.31989 20.3228 5.48408 20.7782 5.48408C21.2336 5.48408 21.7902 6.22291 21.7902 6.22291L22.2393 5.69878L22.8023 6.32394L23.2198 5.80613L23.3652 6.22291L23.7447 6.25448L24.2697 6.01452L24.7252 6.50075L24.7568 5.66721L25.111 5.21254L25.9839 5.18097L26.6987 5.16202V4.68841L27.2679 4.77051L27.3185 4.9789L27.6348 4.79576L28.1535 4.56212L28.4444 4.9789L29.0137 5.74298H28.571L28.6532 6.54496L29.7475 6.46919L29.7222 7.09435L29.9309 7.06909L29.9562 7.56164L30.2155 8.13629L30.6077 7.77003C30.6077 7.77003 31.1011 8.2689 31.3225 8.2689C31.5249 8.2689 32.1258 7.90264 32.1258 7.90264C32.1258 7.90264 32.5749 8.92563 32.7773 8.76145C32.9923 8.60358 33.1948 8.50255 33.1948 8.50255L33.9095 9.07719C33.9095 9.07719 34.3776 9.3361 34.561 9.3361C34.7445 9.3361 35.1619 9.36135 35.1366 9.46239C35.1113 9.56974 34.9532 10.0623 34.9532 10.0623L34.3776 10.1697L35.0038 10.4538L34.4282 10.9779C34.4282 10.9779 34.9785 11.2621 34.9532 11.4958C34.9279 11.7294 35.0038 12.0451 34.6369 12.0451C34.2701 12.0451 33.5869 12.0199 33.3529 12.2535C33.2201 12.3861 33.0682 12.9166 32.967 13.3144C32.3282 13.4597 31.6767 13.6996 31.2086 13.8638C30.5128 14.1164 29.4692 14.3564 29.3237 14.7416C29.2667 14.8931 29.2541 15.0762 29.2984 15.2531L28.2484 14.7858L27.8372 14.9942C27.3881 14.9626 26.7176 15.0005 26.6291 14.8426C26.5279 14.6342 26.8694 13.8638 26.1104 14.0848C25.3387 14.2869 24.6429 15.0573 24.4342 15.4425C24.2571 15.7582 24.1559 15.834 23.9914 16.2129C23.8143 16.055 23.6119 15.8845 23.5297 15.8845C23.3779 15.8845 23.0869 16.175 22.8023 16.175C22.5176 16.175 22.3595 15.8845 22.3595 15.8845L22.3152 15.5309L23.011 15.0952L23.0363 14.2869C23.0363 14.2869 23.321 14.3437 23.7131 14.4448C24.1053 14.5521 24.08 14.1606 24.08 13.9017C24.08 13.6428 23.7131 13.5859 23.7131 13.5859L23.6625 12.8345L23.2957 12.9355L23.3526 11.8431C23.3526 11.8431 22.6631 11.8431 22.3279 11.6852C21.9863 11.5273 21.6764 11.1358 21.6764 11.1358L20.7276 11.1674C20.7276 11.1674 20.7023 11.2621 20.6264 11.3821H20.639Z" fill="#90C6DE"/>
<path d="M33.593 32.6443L34.0674 34.4945C33.7069 34.4945 33.321 34.5451 32.9099 34.6145C31.8599 34.7787 31.4108 34.9997 31.7271 35.2776C32.037 35.5554 33.2578 36.4585 32.1761 36.9194C31.0882 37.3678 30.9174 37.8919 30.6011 37.8919C30.3355 37.8919 29.4942 37.8667 29.2412 37.5509L29.9876 36.048L30.0951 34.1725L29.4499 33.9389C29.5005 33.7936 29.5322 33.661 29.5701 33.5347C29.6017 33.3895 29.6903 33.1748 29.7978 32.8969L30.462 32.9411C30.3545 33.2505 30.3798 33.5663 30.7783 33.6926C31.6132 33.9515 31.7271 33.7999 33.5867 32.6569L33.593 32.6443Z" fill="#90C6DE"/>
<path d="M31.4931 46.549L18.7539 46.448V37.4999L18.5768 37.3231L18.3364 36.7295L18.6464 36.2054L18.6147 35.4792L19.2852 34.5509C21.5307 35.435 23.1373 35.9086 23.7256 35.6686C24.5099 35.3529 26.0786 34.7214 27.4955 35.195C28.0205 35.3718 28.4253 35.2961 28.7289 35.0751C28.9187 35.9023 29.1717 37.0453 29.1906 37.3547C29.197 37.4242 29.2223 37.481 29.2666 37.5315L29.1211 37.8094L29.1653 39.4007C28.4063 39.4323 28.0331 39.2807 27.8181 38.8071C27.5587 38.2324 26.243 36.7674 26.9199 38.3903C27.6093 40.0132 28.0774 40.43 28.9123 41.8382C29.5828 42.9559 30.772 44.7809 31.4994 46.5553L31.4931 46.549Z" fill="#90C6DE"/>
<path d="M31.0503 31.0148C31.316 31.2295 31.259 32.0126 30.9997 32.1704C30.8669 32.2525 30.5886 32.5872 30.4747 32.9282L29.8105 32.884C30.013 32.3662 30.2976 31.6526 30.5253 30.9706C30.7277 30.939 30.9428 30.9264 31.0503 31.0148Z" fill="#90C6DE"/>
<path d="M41.5946 21.0943L41.2593 20.9744L40.8419 20.1408L40.5825 19.9387L39.8425 20.0398L39.2163 20.2482L38.9063 19.9387L37.6476 19.1557L36.762 19.2062L35.3452 18.7389L34.9657 18.8905C33.941 18.0696 33.0807 17.1918 32.7392 17.116C32.2837 17.015 31.9801 16.2825 32.4292 15.4742C32.8846 14.6722 33.4792 13.8323 33.65 13.7376C33.8271 13.6303 34.662 13.2135 33.8271 13.2135C33.5614 13.2135 33.2641 13.2577 32.9669 13.3208C33.0681 12.9167 33.2199 12.3926 33.3527 12.26C33.5867 12.0263 34.2762 12.0516 34.6367 12.0516C34.9973 12.0516 34.9277 11.7358 34.953 11.5022C34.9783 11.2685 34.428 10.9844 34.428 10.9844L35.0036 10.4602L34.3774 10.1761L34.953 10.0687C34.953 10.0687 35.1111 9.57618 35.1364 9.46883C35.1617 9.36779 34.7443 9.34252 34.5608 9.34252C34.3774 9.34252 33.9093 9.08363 33.9093 9.08363L33.1946 8.50897C33.1946 8.50897 32.9922 8.61002 32.7771 8.76788C32.5747 8.92575 32.1256 7.90907 32.1256 7.90907C32.1256 7.90907 31.5247 8.27533 31.3223 8.27533C31.1072 8.27533 30.6075 7.77646 30.6075 7.77646L30.2154 8.14272L29.956 7.56807L29.9307 7.07552L29.722 7.10078L29.7473 6.47561L28.653 6.55138L28.5708 5.74941H29.0135L28.4443 4.98532L28.1533 4.56854L27.6346 4.8022L27.3184 4.98532L27.2678 4.77693L26.6922 4.69485V5.16846L25.99 5.1874V4.38542H25.7117L25.6675 3.24245L26.6795 3.37505L27.2425 2.712L26.8566 2.40257V2.04895L26.1608 2.22576L26.2304 1.3922L25.7117 1.34801L25.4714 0.413414L25.0539 0.173454L25.2563 -0.35067L24.9147 -0.691673L25.1551 -1.00742L25.1867 -1.39262L24.8009 -1.52522L24.5226 -1.91042L23.9596 -1.56943L23.6181 -1.39262L23.5738 -1.9862L22.9096 -1.91042L22.2328 -2.28931L22.1126 -3.76066L21.537 -3.60279L21.6952 -4.60052L21.3789 -4.91626L21.4042 -4.9731L21.7964 -6.00872C21.7964 -6.00872 21.4295 -7.3664 21.4801 -7.68214C21.537 -7.99157 22.315 -8.67988 22.315 -8.67988L22.1126 -9.09034C22.7135 -9.3303 23.0108 -9.93652 23.3714 -9.93652C23.8394 -9.93652 24.5668 -9.93652 24.3075 -10.1954C24.0482 -10.4543 23.15 -10.5554 22.9982 -10.7701C22.8717 -10.9216 22.6629 -11.3384 21.7584 -11.2563C22.8084 -12.5635 25.3955 -15.8156 25.7687 -16.5165C26.2367 -17.4006 24.2 -18.7141 24.2 -18.7141L24.7693 -19.4908L24.3012 -20.0149L24.2506 -21.2716H23.8331L23.675 -21.6378L23.9849 -21.9978L23.7256 -22.2062L23.8331 -23.4628L24.3012 -23.5701C24.3012 -23.5701 23.0931 -26.7528 23.0931 -26.917C23.0931 -27.0812 23.7825 -27.9652 23.8331 -28.1736C23.8837 -28.382 24.2506 -29.1714 23.8331 -29.6387C23.4156 -30.106 22.625 -30.4217 22.625 -30.4217L22.7831 -32.0383C22.7831 -32.0383 22.7641 -32.2656 22.7894 -32.5813L23.2512 -32.8213L23.5105 -33.6043L24.2949 -33.9643V-34.6526L24.7123 -34.3874H25.1804L25.1551 -34.8989C26.0343 -34.3874 27.2804 -33.7812 28.1596 -33.7117C29.5259 -33.6107 30.5696 -33.4023 32.0876 -31.9372C33.6057 -30.4722 36.1169 -29.6387 36.1738 -28.2241C36.2244 -26.8096 36.5343 -26.5507 35.4337 -25.5088C34.3395 -24.4605 33.7069 -23.9932 31.3033 -25.092C28.8934 -26.1845 27.5334 -26.8665 27.2172 -27.0243C26.9009 -27.1822 26.591 -27.4411 27.2678 -26.4497C27.9572 -25.4646 29.3108 -24.9341 29.3614 -24.1574C29.412 -23.3744 29.5196 -21.3789 29.7283 -20.7032C29.937 -20.0275 31.1452 -19.0298 31.7208 -18.9793C32.29 -18.9225 32.9795 -18.9225 32.8151 -19.4466C32.6506 -19.9707 32.0307 -20.3307 31.6069 -21.0127C31.1894 -21.701 31.4488 -22.4272 32.4419 -21.7957C33.4413 -21.1705 35.9524 -20.5896 35.3705 -21.5873C34.7949 -22.585 34.1623 -22.8439 34.7949 -23.3681C35.4211 -23.8859 36.9961 -26.1845 38.0461 -25.6667C39.0961 -25.1425 39.7223 -24.991 39.7223 -25.7677C39.7223 -26.1087 39.5895 -26.5444 39.444 -27.0307L41.1328 -27.3211C41.2024 -27.2011 41.2973 -27.1127 41.4428 -27.037C42.2777 -26.6202 41.8602 -26.4876 43.606 -28.5778C45.3581 -30.668 47.8693 -32.8908 49.5455 -32.0572C51.2217 -31.2237 51.4304 -31.7162 52.6892 -31.8488C53.9479 -31.9941 55.2003 -32.0572 56.3831 -32.5498C57.5723 -33.036 56.9461 -34.7726 56.2503 -35.1262C55.5482 -35.4798 56.2503 -36.1745 57.7178 -35.543C59.1852 -34.9178 61.1334 -34.7094 62.3922 -33.3075C63.6509 -31.9183 64.6313 -30.8764 65.0488 -30.8764C65.4663 -30.8764 66.7883 -31.1542 65.4663 -32.9666C64.1316 -34.7726 63.088 -36.9386 63.5054 -37.9805C63.9229 -39.0287 65.1121 -41.3273 65.7446 -43.4807C66.3771 -45.634 66.5795 -46.2655 67.6991 -45.9876C68.8187 -45.7098 70.6277 -45.293 70.0015 -42.5777C69.3753 -39.8623 70.2862 -39.5781 70.2103 -38.252C70.1407 -36.9322 69.66 -32.2593 70.3557 -32.2593C71.0515 -32.2593 72.2407 -31.6341 71.8865 -33.8633C71.5449 -36.0987 71.0515 -40.5506 72.6581 -41.5294C74.2648 -42.5019 76.428 -44.1058 76.991 -43.7522C77.5413 -43.4112 78.9455 -41.662 79.635 -41.662C80.3244 -41.662 80.8241 -42.224 80.1979 -43.127C79.5717 -44.0364 78.0347 -46.6128 78.3826 -47.5158C78.7368 -48.4252 84.5308 -48.2168 85.0178 -49.265C85.5048 -50.3133 83.3416 -51.3552 84.6003 -52.8834C85.8591 -54.4116 87.4657 -56.5775 89.2747 -56.5775C91.0838 -56.5775 91.7226 -57.4111 92.6271 -57.7584C93.538 -58.112 95.075 -58.4593 96.6058 -58.5288C98.1491 -58.5983 98.2124 -59.5771 99.1928 -59.9938C100.167 -60.4106 100.584 -60.9726 100.869 -62.3619C101.147 -63.7575 101.982 -65.5003 103.096 -65.8476C104.215 -66.2013 106.309 -65.153 105.891 -64.6605C105.474 -64.1742 104.076 -63.0628 104.702 -63.1323C105.328 -63.2018 107.492 -62.8544 107.631 -62.084C107.77 -61.3136 111.331 -61.9388 112.027 -61.2505C112.723 -60.5622 115.651 -57.2785 113.912 -55.1883C112.172 -53.0981 108.82 -50.2375 109.237 -49.6881C109.655 -49.1261 111.255 -49.2713 112.931 -48.9872C114.608 -48.7093 119.004 -48.8546 119.839 -47.6674C120.674 -46.4802 124.652 -44.8826 124.652 -46.4107C124.652 -47.9389 124.235 -48.9872 127.448 -47.5979C130.655 -46.2023 131.009 -45.5772 130.592 -44.5289C130.174 -43.4807 129.757 -42.5082 130.383 -41.4599C131.009 -40.4117 132.818 -36.8628 133.381 -39.5087C133.944 -42.1609 133.59 -42.6471 135.057 -41.5294C136.525 -40.4117 141.617 -40.197 141.965 -41.3842C142.319 -42.5713 141.547 -45.0783 144.476 -44.6615C147.404 -44.2448 151.111 -44.0995 152.015 -43.0576C152.92 -42.0093 153.622 -41.321 154.527 -39.9886C155.431 -38.6688 157.183 -38.6688 158.36 -39.0161C159.549 -39.3571 163.382 -39.2245 163.458 -37.8289C163.527 -36.4334 162.965 -34.2737 165.197 -34.5516C167.437 -34.8357 169.593 -34.8357 170.289 -34.419C170.991 -34.0022 171.965 -35.0441 172.459 -35.1136C172.946 -35.183 176.57 -36.6418 179.366 -35.5998C182.156 -34.5516 185.647 -31.9814 187.532 -30.7248C189.417 -29.4682 190.6 -28.9125 190.6 -28.4262C190.6 -27.94 190.322 -26.336 190.809 -26.336C191.296 -26.336 191.688 -27.2201 191.688 -27.2201C191.998 -27.2201 193.8 -27.0433 193.883 -26.9107C194.041 -26.6518 195.926 -24.5616 195.926 -24.5616C195.508 -23.8733 195.091 -23.728 195.141 -23.507C195.192 -23.3049 194.205 -23.1976 193.883 -22.7303C193.566 -22.2567 192.997 -19.6423 192.674 -19.7434C192.365 -19.8507 189.645 -20.899 189.594 -21.4736C189.537 -22.0483 188.81 -23.1471 187.861 -22.9387C186.925 -22.7303 186.185 -23.9869 186.292 -24.2963C186.393 -24.6121 185.508 -25.1804 185.407 -24.6121C185.299 -24.0374 186.027 -22.7303 185.299 -21.9978C184.572 -21.2716 183.206 -20.5833 182.737 -20.9053C182.263 -21.221 181.371 -21.3726 181.738 -20.8043C182.105 -20.2296 182.624 -20.0654 183.098 -19.4908C183.572 -18.9161 183.414 -18.3983 183.882 -17.8742C184.35 -17.3501 184.932 -15.9356 184.458 -15.5693C183.99 -15.2094 182.522 -16.0429 181.839 -15.7272C181.162 -15.4178 175.09 -11.8625 175.04 -11.0795C174.989 -10.2965 174.363 -9.56395 173.465 -11.2879C172.579 -13.0118 171.112 -9.4566 170.277 -9.66498C169.518 -9.85443 168.803 -10.7764 167.892 -9.9302L165.609 -10.808C166.633 -11.8183 167.835 -12.9297 168.189 -13.9527C168.664 -15.3104 169.448 -16.6681 168.031 -16.0934C166.627 -15.5188 167.253 -15.1462 165.577 -13.1192C163.901 -11.0795 164.002 -10.5049 163.844 -11.3384C163.692 -12.172 164.261 -14.1169 162.908 -14.1169C161.554 -14.1169 158.771 -11.4521 158.094 -10.4038C157.417 -9.35556 159.093 -8.41465 157.31 -8.2631C155.532 -8.10523 155.007 -8.52201 150.927 -8.67988C146.841 -8.83143 145.323 -9.14717 141.655 -4.60052C137.992 -0.0538712 136.689 0.937546 139.093 1.35432C141.503 1.7711 143.489 0.470253 143.647 2.82567C143.805 5.17477 142.49 13.1693 138.992 16.5666C135.481 19.9703 135.064 20.646 134.115 19.9703C133.697 19.6672 132.926 20.0966 132.141 20.7723L132.021 20.0714L131.844 19.9451L132.654 19.7051L132.805 17.8801C132.805 17.8801 132.236 16.9834 132.439 16.775C132.654 16.5666 133.387 15.7899 133.912 16.1499C134.431 16.5161 134.482 16.6235 134.95 15.7331C135.424 14.849 136.006 13.9018 135.848 13.5419C135.69 13.1756 136.424 12.3863 136.424 12.3863V11.338L134.64 11.6537C134.64 11.6537 134.38 12.3294 133.691 12.3294C133.002 12.3294 131.914 12.3294 132.015 11.9126C132.122 11.4959 131.914 10.4476 131.914 10.4476L131.496 10.2897L130.756 9.51302L130.079 9.35516L128.985 9.19728L128.726 8.10483L127.891 6.58929C127.891 6.58929 127.891 4.85903 127.682 4.85903C127.473 4.85903 127.315 3.34348 125.43 2.87618C123.545 2.40889 122.71 2.9267 122.388 2.9267C122.065 2.9267 121.028 3.18561 120.87 3.81077C120.711 4.43594 121.344 4.22755 121.344 4.22755L121.445 5.0611C121.445 5.0611 120.509 5.79993 120.395 6.26722C120.288 6.73452 119.718 7.78277 119.82 7.99116C119.927 8.19955 119.56 8.98889 118.934 9.14677C118.46 9.26675 117.821 9.10256 117.226 8.91312C117.043 8.85629 116.859 8.78683 116.682 8.73C115.955 8.46478 115.373 8.83103 115.114 8.57213C114.848 8.31322 114.538 7.84592 113.804 8.67947C113.064 9.51303 111.913 9.93611 110.604 9.93611C109.294 9.93611 107.991 9.62038 107.783 9.10256C107.574 8.57844 106.948 8.68579 106.948 8.68579C106.948 8.68579 106.581 7.63123 105.531 7.85224C104.481 8.05431 102.811 8.73631 102.128 7.90275C101.438 7.0692 101.343 6.27985 101.343 6.27985L100.249 5.76204L98.9335 5.70521L98.9904 5.34527L98.0416 4.87166C96.7323 6.23566 96.9916 7.27759 97.2067 7.58701C97.4154 7.90275 97.1055 9.05205 96.6374 9.00153C96.163 8.95101 95.3787 8.32584 94.7461 8.53423C94.1262 8.74261 93.2913 8.4774 93.0193 7.85855C92.76 7.22076 91.7606 7.64385 91.7606 7.64385L91.71 7.33443L90.7738 7.02499L87.5226 9.3741L86.5232 9.53197C86.5232 9.53197 86.403 9.69615 86.2639 9.81613H86.2576C86.1753 9.89191 86.0804 9.94875 86.0045 9.94875C85.9286 9.94875 85.7705 9.89823 85.5934 9.82245C85.2771 9.67721 84.9039 9.46882 84.9039 9.3741C84.9039 9.21622 84.9545 8.90049 84.9545 8.90049C84.9545 8.90049 84.3283 9.79719 83.7464 9.42461C83.1708 9.05836 82.9115 8.4774 82.9115 8.4774L82.1714 7.95959C82.1714 7.95959 82.0196 7.02499 81.2859 7.07552C80.5585 7.12603 80.2991 7.38494 80.2991 7.38494L79.5148 7.33443L79.0973 7.12604C79.0973 7.12604 78.7304 6.07777 78.5723 6.34299C78.4142 6.60822 77.7374 7.39125 77.7374 7.39125C77.7374 7.39125 75.903 3.57713 75.7512 3.41926C75.5931 3.2677 74.1256 1.9037 74.1256 1.9037C74.1256 1.9037 73.9675 1.48693 74.1762 1.32906C74.385 1.17751 75.0618 0.444992 73.8094 1.12067C72.5506 1.79636 71.6145 2.27628 71.6145 2.27628L70.7795 2.74357C70.7795 2.74357 70.5202 2.16893 70.7795 2.06789C71.0389 1.96054 71.2982 1.65112 71.2982 1.65112L69.7801 1.75215L69.2045 1.18382C69.2045 1.18382 68.2684 1.91002 68.2178 1.44273C68.1672 0.969116 68.2684 0.12925 68.1102 0.0282135C67.9521 -0.0728302 68.1103 -0.647469 67.9015 -0.647469C67.6928 -0.647469 67.4841 -0.388557 66.9148 -0.489601C66.3392 -0.596947 65.8584 -1.06425 65.8584 -1.06425L65.3398 -0.489601L65.0804 -0.129662L62.0886 0.343948L61.9874 0.962807L60.3617 1.22803L58.9576 1.79635L58.2681 1.74583L57.5913 1.59428L57.1738 2.32048L57.8506 2.62991L57.5913 2.99617L58.6413 3.52029L57.3825 3.41293C57.3825 3.41293 57.2244 4.03811 57.2813 4.29701C57.3319 4.56223 57.2244 4.66327 56.7563 4.98532C56.2883 5.29475 56.5476 5.66101 56.5476 5.66101C56.5476 5.66101 57.1738 5.81887 57.547 6.18513C57.9202 6.55138 58.2744 7.58701 57.5976 7.58701C56.9208 7.58701 56.2313 7.22076 56.2313 7.22076L55.8708 7.7954C55.8708 7.7954 54.7765 7.11972 54.6627 6.91133C54.5551 6.70295 53.9353 6.80399 53.9353 6.80399L53.6696 7.2776L53.1003 6.80399C53.1003 6.80399 52.5247 7.01868 52.2654 7.32811C51.9997 7.63754 51.8479 7.90275 51.8479 7.90275L50.6398 6.95554L50.4816 7.78909L49.906 6.79135L49.2292 6.11568H48.3943L48.1349 5.6989C48.1349 5.6989 47.4455 6.11567 47.2494 6.22302C47.0343 6.32406 47.0343 5.85677 47.0343 5.85677L46.4651 5.80624L44.9976 6.8545L44.9407 7.37231L44.1057 7.63122C44.1057 7.63122 44.4726 8.9447 44.2132 8.88786C43.9539 8.83735 43.0684 7.95327 43.0684 7.95327L42.3283 8.78683L42.3789 10.094L41.9108 11.2496L42.537 11.3506L42.4864 12.2978H43.4858L44.5232 13.8134L43.7958 13.9144L45.0039 14.6659C45.0039 14.6659 44.9976 14.6722 44.9849 14.6848C44.1816 15.31 42.6066 16.4656 42.6066 16.9203C42.6066 17.3749 43.1 17.9685 43.1316 18.7326C43.1632 19.4904 43.2328 20.5071 43.859 21.0628C43.9602 21.1449 44.0615 21.2522 44.15 21.3785L43.372 22.1237L42.6952 21.9153L42.2271 21.3406L41.6136 21.1385L41.5946 21.0943Z" fill="#90C6DE"/>
<path d="M31.0313 15.9607C31.1009 16.1375 31.4171 16.5985 30.8985 16.5543C30.3735 16.5227 29.7789 16.8384 29.2539 17.0784C28.7289 17.3183 28.343 17.7414 28.1659 16.971C28.0015 16.2133 27.0843 15.7586 27.1602 15.6512C27.2298 15.5439 28.5138 15.1966 28.1659 15.0577C28.09 15.0261 27.9762 15.0071 27.837 15.0008L28.2482 14.7924L29.2982 15.2597C29.3424 15.525 29.4879 15.7712 29.741 15.7965C30.1584 15.8281 30.9617 15.7965 31.0313 15.9607Z" fill="#90C6DE"/>
<path d="M30.1142 34.1532L30.0067 36.0287L29.2603 37.5316C29.216 37.4811 29.1907 37.4243 29.1844 37.3548C29.1654 37.0454 28.9187 35.9024 28.7227 35.0752C29.1022 34.8162 29.3236 34.349 29.469 33.9196L30.1142 34.1532Z" fill="#90C6DE"/>
<path d="M27.9011 31.0005L27.9001 31.0015C27.8025 31.0503 27.6926 31.0508 27.571 31.0572L27.4128 31.0523C27.2804 31.0437 27.1484 31.0211 27.033 30.9683L26.9656 30.9332C26.877 30.8813 26.8063 30.7953 26.7703 30.6998C26.7343 30.6044 26.733 30.4998 26.781 30.4097C26.8292 30.3195 26.9148 30.2625 27.0164 30.2261C27.1179 30.1898 27.2352 30.174 27.3455 30.1646L27.3445 30.1636C27.6043 30.1447 27.8685 30.1328 28.1414 30.1138C28.2492 30.1075 28.3716 30.0958 28.4812 30.0572V30.0562C28.546 30.0304 28.606 29.9936 28.6638 29.9556L28.8376 29.8472C28.9529 29.7806 29.0804 29.735 29.196 29.7847C29.243 29.8727 29.2211 29.9863 29.1658 30.0787C29.1384 30.1242 29.1009 30.163 29.0603 30.1988C29.0191 30.2352 28.9766 30.2666 28.9343 30.3023C28.7891 30.4095 28.6424 30.5169 28.4949 30.6216L28.0505 30.9263C28.0254 30.9389 27.9998 30.9534 27.9753 30.9664C27.9503 30.9797 27.9254 30.9915 27.9011 31.0005Z" fill="#176C93" stroke="#DCF4FF" stroke-width="0.03"/>
<path d="M20.5187 -1.48115V-1.52535L21.0879 -1.84109L21.5054 -1.66428L22.2012 -2.32733H22.2202L22.897 -1.94213L23.5611 -2.0179L23.6054 -1.42431L23.947 -1.60113L24.5099 -1.94213L24.7882 -1.55693L25.1741 -1.42431L25.1425 -1.03911L24.9021 -0.72337L25.2437 -0.382376L25.0413 0.141753L25.4587 0.381718L25.6991 1.3163L26.2178 1.3605L26.1482 2.19406L26.844 2.01725V2.37087L27.2298 2.6803L26.6669 3.34335L25.6548 3.21074L25.6991 4.35371H25.9774V5.1557L25.1045 5.18727L24.7503 5.64194L24.7187 6.47548L24.2633 5.98924L23.7382 6.22921L23.3587 6.19763L23.2133 5.78085L22.7958 6.29867L22.2328 5.6735L21.7837 6.19763C21.7837 6.19763 21.2208 5.4588 20.7717 5.4588C20.3226 5.4588 18.7539 5.29462 18.5325 5.3262C18.3301 5.35777 17.3181 6.19763 17.3181 6.19763L17.2738 5.11781L16.8184 4.80207L17.103 4.31583C17.103 4.31583 17.5901 3.89905 17.6217 3.75381C17.6533 3.6212 17.3434 2.70555 17.3117 2.56663C17.2675 2.43402 17.2358 1.80886 17.2358 1.80886C17.2358 1.80886 17.9063 1.87832 18.2163 1.77728C18.5262 1.66993 19.3295 1.39208 19.3295 1.18369C19.3295 0.975301 19.5383 0.0659785 19.5383 0.0659785L20.5503 -0.597076L20.3416 -0.837041L20.506 -1.48746L20.5187 -1.48115Z" fill="#90C6DE"/>
<path d="M24.0926 13.9023C24.0926 14.1612 24.1179 14.5527 23.7257 14.4453C23.3336 14.3443 23.0489 14.2875 23.0489 14.2875L23.0236 15.0958L22.3278 15.5315L22.1381 13.7191C22.1381 13.7191 21.7206 12.7719 21.6131 12.614C21.5435 12.5067 20.9742 11.7931 20.6516 11.3763C20.7275 11.25 20.7528 11.1616 20.7528 11.1616L21.7016 11.1301C21.7016 11.1301 22.0116 11.5216 22.3531 11.6795C22.6884 11.8373 23.3778 11.8373 23.3778 11.8373L23.3209 12.9298L23.6878 12.8287L23.7384 13.5802C23.7384 13.5802 24.1052 13.6307 24.1052 13.8959L24.0926 13.9023Z" fill="#90C6DE"/>
<path d="M14.218 15.2317L13.844 14.763H13.9153C14.23 14.7629 14.3897 14.7113 14.5081 14.6409C14.5665 14.6061 14.6144 14.5662 14.6653 14.5286C14.7165 14.4907 14.7721 14.4537 14.845 14.4212C14.884 14.4029 14.9212 14.3652 14.9563 14.3157C14.9916 14.2659 15.0263 14.2025 15.0598 14.1302C15.127 13.9852 15.1911 13.8026 15.2512 13.6194C15.3114 13.4359 15.3672 13.2522 15.4182 13.1018C15.4436 13.0269 15.4679 12.9605 15.4905 12.9075C15.5132 12.8541 15.5339 12.8152 15.552 12.7942C15.6303 12.7036 15.8384 12.517 16.0276 12.3518C16.1219 12.2695 16.2107 12.1921 16.2766 12.136C16.3094 12.1081 16.3369 12.0855 16.3557 12.0696C16.365 12.0618 16.3722 12.0553 16.3772 12.0511C16.3796 12.049 16.3818 12.0473 16.3831 12.0462L16.385 12.0442L16.9749 11.7093L17.2258 11.9124L17.2239 11.9153H18.3596C18.361 11.9178 18.3624 11.9215 18.3645 11.9251C18.3707 11.9359 18.3802 11.9509 18.3918 11.969C18.4153 12.0057 18.4492 12.0548 18.4905 12.1028C18.5317 12.1507 18.5809 12.1985 18.635 12.2327C18.6892 12.2669 18.7498 12.2883 18.8127 12.2815C18.933 12.2684 19.0647 12.2026 19.1653 12.1409C19.2159 12.1098 19.2597 12.0794 19.2903 12.0569C19.3056 12.0457 19.3181 12.0361 19.3264 12.0296C19.3298 12.0269 19.3322 12.0244 19.3342 12.0227C19.3381 12.0229 19.3445 12.0236 19.3518 12.0237C19.3663 12.024 19.3872 12.0241 19.4133 12.0237C19.4666 12.0228 19.542 12.019 19.6292 12.0091C19.8031 11.9892 20.0267 11.9436 20.2219 11.8382L20.2229 11.8372C20.4243 11.7213 20.5661 11.5581 20.6458 11.4153C20.8089 11.6219 21.0269 11.8957 21.2131 12.1331C21.3088 12.255 21.3968 12.3669 21.4641 12.4554C21.5318 12.5442 21.5787 12.6082 21.594 12.6341V12.635C21.6201 12.6734 21.6656 12.7612 21.72 12.8723C21.7741 12.9831 21.8369 13.1162 21.8958 13.2444C21.9546 13.3726 22.0102 13.496 22.051 13.5872C22.0714 13.6327 22.0882 13.6704 22.0999 13.6966C22.1056 13.7096 22.1104 13.7199 22.1135 13.7268C22.1147 13.7294 22.1147 13.732 22.1155 13.7337H22.1165L22.3059 15.5452V15.5462L22.3499 15.8987V15.8997L22.3528 15.9055L22.3547 15.9085C22.356 15.9107 22.3581 15.9142 22.3606 15.9182C22.3656 15.9263 22.3725 15.9379 22.3821 15.9514C22.4018 15.9792 22.4316 16.0169 22.47 16.054C22.5465 16.1279 22.6605 16.2032 22.8079 16.2034C22.9546 16.2034 23.1026 16.1284 23.2297 16.0559C23.2937 16.0194 23.352 15.9833 23.4045 15.9563C23.4574 15.9292 23.5014 15.9125 23.5354 15.9124C23.5519 15.9124 23.5776 15.921 23.6106 15.9388C23.6429 15.9562 23.6808 15.9815 23.7219 16.012C23.8016 16.0711 23.8929 16.1496 23.9788 16.2288C23.948 16.3011 23.9059 16.3896 23.8635 16.4983C23.745 16.8065 23.5107 16.9855 23.2952 17.1555C23.0809 17.3246 22.8823 17.4868 22.8499 17.7591C22.819 18.017 22.6976 18.2202 22.5481 18.4993C22.2627 18.3918 21.8112 18.2261 21.3997 18.0891C21.191 18.0197 20.992 17.9575 20.8303 17.9143C20.7497 17.8928 20.6776 17.8762 20.6184 17.8655C20.5596 17.8549 20.5111 17.8494 20.4788 17.8528C20.4371 17.8563 20.3865 17.8721 20.3303 17.8958C20.2735 17.9198 20.2095 17.9521 20.1428 17.9905C20.0094 18.0672 19.8616 18.1671 19.7239 18.2659C19.5861 18.3647 19.4579 18.4631 19.3645 18.5364C19.3179 18.573 19.2796 18.604 19.2532 18.6253C19.2402 18.6358 19.2298 18.644 19.2229 18.6497C19.2208 18.6514 19.2185 18.6524 19.217 18.6536L16.8469 18.4466L16.592 17.8616L16.5881 17.8528H16.5676V17.8313L16.5569 17.8284L16.2581 17.7307L16.3069 17.0921L16.3167 17.093L16.304 17.0804L16.1458 16.9231L16.137 16.9134L16.1262 16.9212L15.6067 17.2825L15.3323 17.2044L14.8987 16.8255L15.0051 16.1839L15.0071 16.1721L14.9963 16.1682L14.2454 15.8548L14.2209 15.2405H14.2249L14.218 15.2317Z" fill="#176C93" stroke="#DCF4FF" stroke-width="0.03"/>
<path d="M16.144 20.5883L16.1304 20.5873L15.9663 20.5707L16.0034 20.4946V20.4936L16.3188 19.561L16.7349 19.0707L16.7456 19.058L16.731 19.0483L16.4468 18.8715L15.8647 18.5161L16.2378 18.476L16.2495 18.475L16.2515 18.4643L16.3198 18.0522L16.5532 17.851H16.562L16.8169 18.4418L16.8208 18.4506L16.8296 18.4516L19.2144 18.6596L19.2134 18.6655L19.2251 18.6557H19.2261C19.2265 18.6553 19.2272 18.6544 19.228 18.6537C19.2298 18.6523 19.2326 18.6506 19.2358 18.6479C19.2428 18.6422 19.253 18.6331 19.2661 18.6225C19.2923 18.6013 19.3303 18.571 19.3765 18.5346C19.4691 18.4615 19.5961 18.3635 19.7329 18.2651C19.8698 18.1666 20.0165 18.0676 20.1489 17.9916C20.2152 17.9536 20.2778 17.9212 20.3335 17.8979C20.3891 17.8746 20.4372 17.8609 20.4751 17.8578H20.4761C20.5038 17.855 20.5477 17.8591 20.606 17.8696C20.6641 17.8801 20.7355 17.8969 20.8159 17.9184C20.9767 17.9613 21.1748 18.0228 21.3833 18.0922C21.7923 18.2283 22.2413 18.3929 22.5269 18.5004C22.4198 18.6968 22.3077 18.9288 22.2104 19.2348L22.1167 19.5756C22.0027 20.0307 21.9696 20.325 21.9937 20.5502C22.0167 20.7665 22.0929 20.918 22.1997 21.0864H21.4448L21.0298 20.9291L21.0327 20.9223L21.0181 20.9301L20.2974 21.2836L20.2886 21.2875V21.2934L19.8921 21.4916L19.8911 21.4897L19.8862 21.4965L19.6313 21.8569H18.9038L18.3599 21.6743V21.6733H18.356L17.3569 21.6225L17.356 21.6381L17.3569 21.6215L17.3501 21.6235L16.4897 21.9584L16.4302 21.9809L16.5298 20.9135L16.5308 20.8989L16.5171 20.8969L16.144 20.8295V20.5883Z" fill="#176C93" stroke="#DCF4FF" stroke-width="0.03"/>
<path d="M20.3542 -0.830467L20.563 -0.590512L19.5509 0.0725429C19.5509 0.0725429 19.3422 0.981875 19.3422 1.19026C19.3422 1.39865 18.5389 1.6765 18.229 1.78385C17.919 1.88489 17.2485 1.81542 17.2485 1.81542L16.6287 0.988185H16.3693L16.3187 0.438802L16.5528 0.154638L16.3946 -0.344235L15.7178 -0.287405L15.0663 -0.729438L14.6805 -0.773636C14.6488 -1.00097 14.6046 -1.34197 14.5729 -1.85978C14.5666 -1.99239 14.554 -2.11869 14.554 -2.23867L14.769 -2.21973L15.7178 -2.95856L16.8374 -2.69965L17.9696 -2.49126L18.7539 -2.95856L18.7793 -2.49126L19.6142 -2.40916L20.5187 -1.48721L20.3542 -0.836788V-0.830467Z" fill="#90C6DE"/>
<path d="M20.5459 21.9267L20.3154 22.3369L19.7881 22.8623C19.6428 22.7642 19.4729 22.7023 19.249 22.6836C18.8465 22.6456 18.4101 22.6538 18.0947 22.7021C17.9374 22.7262 17.8082 22.7607 17.7285 22.8056C17.6888 22.828 17.6588 22.854 17.6455 22.8847C17.6316 22.9167 17.6364 22.9512 17.6592 22.9853H17.6602C17.7028 23.043 17.7214 23.1027 17.7197 23.1582C17.718 23.2135 17.6955 23.2662 17.6543 23.3115C17.5715 23.4023 17.4111 23.4637 17.1865 23.4482C17.0748 23.4405 16.956 23.4041 16.8447 23.3672C16.7345 23.3305 16.6299 23.2921 16.5498 23.2812C16.5099 23.2758 16.4733 23.2767 16.4443 23.29C16.4141 23.304 16.394 23.3307 16.3857 23.3701C16.3777 23.4086 16.3812 23.4602 16.3955 23.5273C16.4099 23.5948 16.4359 23.6796 16.4756 23.7841C16.6312 24.2025 16.8753 24.605 17.1162 24.9277C17.2967 25.1695 17.4761 25.3671 17.6152 25.4941L17.7393 25.5966C17.8094 25.6507 17.9187 25.7184 18.0312 25.7929C18.1447 25.8681 18.2628 25.9506 18.3506 26.0371C18.4389 26.1241 18.494 26.2118 18.4902 26.2959C18.4873 26.358 18.4513 26.4224 18.3643 26.4863L18.2598 26.5498C17.9291 26.7258 17.6783 26.7951 17.4805 26.8037C17.2829 26.8122 17.1362 26.7606 17.0146 26.6953H17.0137C16.9536 26.6592 16.9031 26.6396 16.8633 26.6357C16.823 26.6319 16.7899 26.6437 16.7754 26.6738C16.7618 26.702 16.7675 26.7404 16.7871 26.7822C16.8071 26.8249 16.8435 26.8748 16.8965 26.9277C16.9452 26.9764 16.9609 27.0286 16.958 27.084C16.9549 27.1406 16.9321 27.202 16.9033 27.2666C16.875 27.3301 16.8402 27.3979 16.8154 27.4658C16.7967 27.517 16.7828 27.5699 16.7812 27.623L16.7842 27.6767C16.7923 27.7491 16.8207 27.8517 16.8516 27.9619C16.8827 28.073 16.9175 28.1933 16.9375 28.3017C16.9577 28.411 16.9628 28.5056 16.9395 28.5674C16.928 28.5975 16.9098 28.6194 16.8838 28.6318C16.8706 28.6381 16.8547 28.6421 16.8359 28.6435L16.7705 28.6386L16.6006 28.6064C16.419 28.5663 16.2057 28.5023 16 28.4052C15.7257 28.2757 15.4663 28.0865 15.3135 27.8125C15.2358 27.6717 15.1402 27.519 15.0459 27.3691C14.9514 27.219 14.8573 27.0718 14.7832 26.9424C14.7088 26.8124 14.6551 26.7012 14.6387 26.624C14.6305 26.5855 14.6328 26.5588 14.6426 26.542C14.6516 26.5265 14.6696 26.5157 14.7051 26.5156C14.8635 26.5156 15.023 26.4539 15.1416 26.3935C15.2011 26.3632 15.2513 26.3332 15.2861 26.3105C15.3033 26.2993 15.3168 26.2898 15.3262 26.2832C15.3307 26.2799 15.3345 26.2772 15.3369 26.2754C15.338 26.2745 15.3392 26.2739 15.3398 26.2734L15.3408 26.2724L15.376 26.2451H15.3242C15.3192 26.2447 15.3117 26.2437 15.3018 26.2422C15.2811 26.239 15.2498 26.2325 15.209 26.2197C15.1274 26.1941 15.0073 26.1424 14.8535 26.039H14.8525C14.6974 25.9367 14.5943 25.7988 14.5078 25.6591C14.4643 25.5889 14.4255 25.5195 14.3857 25.4531C14.3463 25.3872 14.3068 25.3245 14.2617 25.2715C14.2364 25.2418 14.2011 25.2278 14.1611 25.2236C14.1216 25.2195 14.0762 25.225 14.0273 25.2353C13.9781 25.2457 13.9238 25.2617 13.8682 25.2783C13.8125 25.2949 13.7546 25.3123 13.6963 25.3271C13.5789 25.357 13.4613 25.3754 13.3584 25.3525C13.2568 25.3299 13.1679 25.2663 13.1064 25.1299C13.0136 24.9321 12.9566 24.6224 12.9248 24.2666L14.0498 23.5136L14.0508 23.5146L14.0547 23.5088L14.4932 22.7871L14.5645 22.7636L14.5752 22.7597V22.747L16.4248 22.0244L16.5078 21.9931L17.3643 21.6591L18.3584 21.709L18.9004 21.8925H19.6455V21.9043L19.6582 21.8867L19.9141 21.5234L20.3018 21.33L20.5459 21.9267Z" fill="#176C93" stroke="#DCF4FF" stroke-width="0.03"/>
<path d="M17.4937 29.9548C17.7986 29.866 18.122 29.8864 18.4458 29.9391L18.77 30.0007C18.9028 30.0259 19.0393 30.0529 19.1753 30.0798C19.3111 30.1066 19.4469 30.1336 19.5796 30.1589H19.5806C19.6593 30.1715 19.7366 30.1857 19.814 30.1999C19.8914 30.2141 19.9691 30.2283 20.0483 30.2409V30.2399C20.0986 30.2525 20.1502 30.2669 20.1948 30.2888C20.2396 30.3107 20.2762 30.3404 20.2964 30.3835C20.3101 30.4198 20.3056 30.463 20.2886 30.5036C20.28 30.5239 20.2683 30.543 20.2544 30.5602L20.2065 30.6052C20.128 30.6594 20.0368 30.6721 19.9487 30.6784H19.9478C19.7843 30.6972 19.6143 30.696 19.4497 30.696C18.8004 30.6707 18.1438 30.5139 17.5513 30.237C17.5129 30.2179 17.4738 30.1999 17.4419 30.1725L17.4126 30.1413C17.3984 30.1215 17.3884 30.0936 17.3862 30.0671C17.3842 30.0405 17.3902 30.0172 17.4048 30.0026C17.4155 29.9919 17.4278 29.985 17.4429 29.9782C17.4568 29.972 17.4751 29.9639 17.4937 29.9548Z" fill="#176C93" stroke="#DCF4FF" stroke-width="0.03"/>
<path d="M2.29549 36.6667C2.60543 36.3763 3.11777 35.8963 3.11777 35.8963L3.08616 34.8165L4.47773 33.9072L4.42712 32.7958C5.49609 33.2315 8.35514 33.4588 8.6461 34.2103C8.96237 34.9933 9.64549 35.568 10.6892 35.6122C11.7392 35.669 11.7392 36.1868 12.416 36.351C13.0928 36.5089 13.6747 36.0921 13.6241 35.0438C13.6241 35.0438 13.3142 32.0064 16.8121 33.522C17.6976 33.9072 18.5262 34.2608 19.2853 34.5513L18.6148 35.4796L18.6464 36.2058L18.3365 36.7299L18.5768 37.3235L18.7539 37.5003V48.7154H17.6344V49.2837C15.819 48.2796 9.8732 45.0591 9.38615 44.9707C9.08254 44.9202 8.60182 45.1475 8.16537 45.3622C7.75423 45.5895 7.39368 45.8042 7.29248 45.8042C7.08374 45.8042 6.53977 45.0907 6.26145 45.0275C5.97681 44.9517 4.8952 44.8128 4.8952 44.8128C4.8952 44.8128 4.88888 44.8065 4.87623 44.7876C4.80032 44.636 4.36388 43.8088 4.26267 43.7772C4.16147 43.733 2.7952 43.2152 2.7952 43.2152L2.13103 41.4344L2.58014 41.0934L2.5485 37.9234C2.5485 37.9234 1.99821 37.014 2.06146 36.913C2.08044 36.8814 2.16898 36.7867 2.28916 36.6731L2.29549 36.6667Z" fill="#90C6DE"/>
<path d="M16.3692 0.987562H16.6285L17.2484 1.82112C17.2484 1.82112 17.28 2.44628 17.3243 2.57889C17.3559 2.72413 17.6659 3.63346 17.6343 3.76607C17.6026 3.91131 17.1156 4.32809 17.1156 4.32809L16.8309 4.81432L17.2864 5.13006L17.3306 6.20989L17.6596 6.44986L17.5837 6.75928L17.8936 6.84137L17.843 7.95909L17.3496 7.98435L16.2996 9.42412L16.483 10.0493C16.483 10.0493 16.4325 10.0935 16.3565 10.144C16.0403 10.0619 15.5785 9.90405 15.5785 9.90405L15.1927 9.61987L14.674 9.65145C14.674 9.65145 14.3957 9.93562 14.1111 9.7588C13.8327 9.58199 13.1749 9.96719 13.1749 9.96719L12.8207 9.26625L12.1249 9.51885V9.48727L12.0174 8.71687L10.8345 8.40113C10.8345 8.40113 10.9041 7.91489 10.5815 7.94646C10.2716 7.97803 10.0945 8.78001 9.91737 8.54005C9.74026 8.30009 9.46829 7.59283 9.32281 7.42864C9.18998 7.25183 8.24117 7.22026 8.24117 7.22026C8.24117 7.22026 8.13997 7.10028 8.03244 7.01819V6.20989L7.69087 5.82469L7.64659 4.18284L7.12793 3.79764L7.44419 3.10302L7.60864 2.71782L7.29871 2.57258V1.65062C7.66557 1.7706 8.04509 1.77059 8.34871 1.56852C8.65865 1.36013 10.202 0.349767 10.6827 0.236101C11.1698 0.135064 11.7327 0.0277194 11.8276 0.311885C11.9352 0.589735 11.796 1.36013 12.5993 1.14543C12.9346 1.06334 13.137 0.943356 13.2635 0.81706L16.3629 0.968618L16.3692 0.987562Z" fill="#90C6DE"/>
<path d="M14.0618 20.9445L13.8782 20.4582L13.8811 20.4572L13.8733 20.4513L13.5305 20.1818L13.9075 19.7023L13.9192 19.6877L13.9036 19.6799L13.4543 19.4396L12.6887 18.7814V18.7804C12.688 18.7763 12.6871 18.7704 12.6858 18.7629C12.6831 18.7473 12.6795 18.7245 12.675 18.6974C12.6661 18.6434 12.6544 18.5704 12.6438 18.4943C12.6331 18.4179 12.6234 18.3381 12.6184 18.2717C12.6159 18.2387 12.6143 18.2091 12.6145 18.1847L12.6204 18.131C12.6263 18.1108 12.6447 18.0946 12.6741 18.0832C12.7031 18.0719 12.7398 18.0664 12.7766 18.0636C12.8133 18.0609 12.8494 18.0614 12.8762 18.0627C12.8896 18.0633 12.9008 18.064 12.9084 18.0646C12.9123 18.0649 12.9152 18.0654 12.9172 18.0656H12.9202L12.9612 18.0705L12.9329 18.0402L12.3801 17.464L12.5774 17.298L12.5793 17.2961L12.7883 17.0177L12.7971 17.006L12.7864 16.9972L12.4163 16.6955L12.7258 16.1896L12.7346 16.1759L12.7209 16.1681L12.342 15.9582L12.3606 15.172C12.4756 15.0851 12.5828 15.0018 12.6614 14.9396C12.7013 14.908 12.7344 14.8826 12.7571 14.8644C12.7684 14.8553 12.7774 14.8478 12.7834 14.8429C12.7863 14.8406 12.7888 14.8393 12.7903 14.8381C12.7936 14.8376 12.7985 14.837 12.8049 14.8361C12.818 14.8342 12.8376 14.8316 12.8625 14.8283C12.913 14.8217 12.9869 14.8129 13.0784 14.8039C13.2599 14.7859 13.5128 14.7663 13.8 14.7629L14.1848 15.2463L14.2102 15.8664V15.8761L14.219 15.8801L14.9661 16.1906L14.8616 16.8293L14.8606 16.8381L14.8665 16.8429L15.3098 17.2287L15.3088 17.2297L15.3147 17.2316L15.5999 17.3136L15.5969 17.3224L15.6125 17.3117L16.1272 16.9523L16.2708 17.0959L16.2219 17.7404L16.2209 17.7521L16.2317 17.756L16.5159 17.8478L16.2961 18.0392L16.3059 18.0509L16.2932 18.0363L16.2913 18.048L16.2229 18.4533L15.8176 18.4972L15.7737 18.5011L15.8108 18.5246L16.4309 18.9035L16.7004 19.0705L16.2942 19.55L16.3059 19.5597L16.2932 19.55L16.2922 19.5549L15.9758 20.4884L15.9358 20.5734L15.1877 20.5177L15.1731 20.5168L15.1711 20.5304L15.1409 20.8009L14.5676 20.7697L14.5667 20.7853L14.5676 20.7677L14.5598 20.7717L14.0627 21.0011V20.9494H14.0637L14.0618 20.9445Z" fill="#176C93" stroke="#DCF4FF" stroke-width="0.03"/>
<path d="M16.3945 -0.343926L16.5526 0.154948L16.3186 0.439111L16.3692 0.982183L13.2698 0.830625C13.4342 0.66644 13.4595 0.464367 13.4785 0.287553C13.5101 -0.0281865 13.9719 -0.173424 14.1047 -0.173424C14.2502 -0.173424 14.4083 -0.293406 14.4083 -0.293406C14.7625 -0.33761 14.7499 -0.293409 14.674 -0.779648L15.0598 -0.73544L15.7113 -0.293406L16.3881 -0.350237L16.3945 -0.343926Z" fill="#90C6DE"/>
<path d="M15.9507 20.5985V20.5975L16.1206 20.6151V20.8544L16.1323 20.8563L16.5044 20.9237L16.4048 21.9989L14.5649 22.7186L14.0562 22.1239L14.1196 21.5067V21.5028L14.064 21.0272L14.5698 20.7938L15.1538 20.8251L15.1685 20.8261L15.1694 20.8124L15.1997 20.5419L15.9507 20.5985Z" fill="#176C93" stroke="#DCF4FF" stroke-width="0.03"/>
<path d="M9.91745 14.3316C9.62648 14.0538 9.22168 13.6938 9.22168 13.6938L9.68975 13.4854L9.71505 12.5635L10.3159 12.4372L10.3982 11.812L11.4672 12.3046L12.144 12.1972L12.1693 11.6794L12.9283 11.812L12.9536 11.5468L13.5292 11.6289L14.206 10.9785L14.5982 11.1616L15.6672 11.1805L16.344 12.0267C16.344 12.0267 15.6672 12.595 15.509 12.7782C15.3509 12.9613 15.0916 14.2685 14.8069 14.4011C14.516 14.5337 14.516 14.7421 13.8834 14.7421H13.7822C13.2066 14.7484 12.7575 14.8178 12.7575 14.8178C12.7575 14.8178 12.5551 14.982 12.3211 15.1525C12.087 15.3167 11.8214 15.4935 11.7075 15.4935C11.4988 15.4935 10.2148 14.7673 10.1895 14.66C10.1831 14.6284 10.0566 14.4958 9.88583 14.3316H9.91745Z" fill="#90C6DE"/>
<path d="M15.5723 9.91102C15.5723 9.91102 16.034 10.0689 16.3503 10.151C16.2491 10.2331 16.1163 10.3278 16.0593 10.3278C15.9581 10.3278 15.7241 11.0729 15.6925 11.1803L14.6235 11.1613L14.2313 10.9782L13.5545 11.6286L12.9789 11.5465L12.9536 11.8118L12.1946 11.6792L12.1693 12.197L11.4925 12.3043L10.4235 11.8118L10.1452 11.5023L10.1199 10.7825L10.6386 10.4225H11.3027V9.8605L11.6569 9.72788L11.9985 9.62053L12.1313 9.48793V9.5195L12.8334 9.26691L13.1876 9.96785C13.1876 9.96785 13.8518 9.58265 14.1238 9.75946C14.4084 9.93627 14.6867 9.65211 14.6867 9.65211L15.2054 9.62053L15.5913 9.90471L15.5723 9.91102Z" fill="#90C6DE"/>
<path d="M13.8452 20.4659L14.02 20.9454V21.0333H14.0347L14.0903 21.507L14.02 22.1281L14.0356 22.13L14.0132 22.1281L14.0239 22.1398L14.5278 22.7228L14.4731 22.7404L14.4722 22.7365L14.4653 22.7472L14.0229 23.4708L12.9155 24.212C12.8927 24.0055 12.8857 23.787 12.8735 23.5499C12.8546 23.0898 12.8736 22.6041 12.8989 22.1749C12.9304 21.5769 12.8488 21.1465 12.6909 20.8282C12.7401 20.739 12.7874 20.6507 12.8237 20.5743C12.8609 20.4963 12.889 20.4303 12.8989 20.3907V20.3898C12.9055 20.3535 12.9416 20.3216 13.0005 20.2941C13.0584 20.267 13.1335 20.2465 13.2085 20.2316C13.2832 20.2167 13.3573 20.207 13.4126 20.2013C13.4403 20.1984 13.464 20.1966 13.48 20.1954C13.4879 20.1948 13.4943 20.1947 13.4985 20.1945V20.1935L13.8452 20.4659Z" fill="#176C93" stroke="#DCF4FF" stroke-width="0.03"/>
<path d="M13.8962 19.6924L13.5103 20.1849C13.5103 20.1849 12.9221 20.2165 12.8904 20.3933C12.8715 20.4691 12.7829 20.6522 12.6817 20.8353C12.473 20.4249 12.1441 20.2102 11.8025 20.0586C11.8721 19.7555 11.9796 19.3829 12.0871 19.1367C12.2959 18.682 12.6754 18.783 12.6754 18.783L13.4471 19.4461L13.8962 19.686V19.6924Z" fill="#176C93"/>
<path d="M11.0471 16.3098L11.5334 16.4114V16.4104L12.3997 16.7239L12.7747 17.0295L12.5745 17.2961L12.3782 17.4612L12.3762 17.4592L12.3547 17.4797V17.4807L12.8889 18.0383C12.8873 18.0382 12.8857 18.0384 12.884 18.0383C12.8565 18.037 12.8189 18.0365 12.7805 18.0393C12.7425 18.0421 12.7022 18.0489 12.6692 18.0618C12.6365 18.0745 12.6078 18.0951 12.5979 18.1282C12.5933 18.143 12.5913 18.1647 12.5911 18.1897C12.5908 18.2153 12.5924 18.2469 12.595 18.2805C12.6001 18.3478 12.6097 18.4276 12.6204 18.5042C12.6311 18.5809 12.6426 18.6549 12.6516 18.7092C12.6561 18.736 12.6597 18.7582 12.6624 18.7737V18.7766C12.6516 18.7749 12.6374 18.7728 12.6204 18.7717C12.5804 18.7693 12.5244 18.7711 12.4622 18.7874C12.3369 18.8201 12.1856 18.9115 12.0793 19.1428V19.1438C11.9733 19.3807 11.8678 19.7508 11.7981 20.051C11.5816 19.9597 11.3603 19.8911 11.1633 19.8176C10.9617 19.7424 10.7856 19.6607 10.6584 19.5442C10.6576 19.3168 10.6265 19.0024 10.468 18.762H10.467C10.324 18.5526 9.93027 18.0812 9.57251 17.6633C9.39353 17.4543 9.2233 17.2583 9.0979 17.1145C9.03521 17.0426 8.98336 16.9835 8.94751 16.9426C8.92959 16.9222 8.91504 16.9066 8.90552 16.8958C8.90077 16.8903 8.89722 16.8858 8.89478 16.8831V16.3342C8.90268 16.343 8.91203 16.3539 8.9231 16.3655C8.95739 16.4014 9.00625 16.4487 9.06372 16.4954C9.12119 16.542 9.18779 16.588 9.25806 16.6204C9.32829 16.6527 9.40356 16.6716 9.47681 16.6633C9.62045 16.6469 9.7548 16.5559 9.85181 16.4709C9.9004 16.4284 9.94033 16.3866 9.96802 16.3557C9.98184 16.3403 9.99286 16.3276 10.0002 16.3186C10.0031 16.3151 10.0053 16.3121 10.0071 16.3098H11.0471Z" fill="#176C93" stroke="#DCF4FF" stroke-width="0.03"/>
<path d="M10.1028 14.5574C10.1294 14.586 10.1514 14.6109 10.1672 14.6307C10.1751 14.6404 10.1812 14.6491 10.1858 14.6561C10.1904 14.663 10.1926 14.6679 10.1936 14.6707V14.6697C10.195 14.6757 10.1988 14.6812 10.2024 14.6863C10.2062 14.6917 10.2103 14.698 10.2161 14.7039C10.2276 14.7158 10.2437 14.7297 10.2629 14.7449C10.3013 14.7754 10.3547 14.8128 10.4182 14.8543C10.5458 14.9377 10.7156 15.039 10.8909 15.1365C11.0662 15.2341 11.2481 15.3283 11.3987 15.3983C11.4737 15.4331 11.5413 15.462 11.5969 15.4822C11.6519 15.5023 11.6978 15.5145 11.7268 15.5145C11.7569 15.5143 11.7967 15.5023 11.8411 15.4832C11.886 15.4639 11.938 15.4361 11.9934 15.4041C12.097 15.3443 12.2134 15.2662 12.3235 15.1922L12.3059 15.9666V15.9754L12.3137 15.9803L12.6897 16.1893L12.3899 16.6805L11.5295 16.3699L11.5266 16.369L11.0403 16.2684V16.2674H9.98657V16.2586L9.97485 16.2733V16.2742C9.97446 16.2747 9.97363 16.2753 9.9729 16.2762C9.97103 16.2784 9.96778 16.2826 9.96411 16.2869C9.95679 16.2955 9.94558 16.3073 9.93188 16.3221C9.90425 16.3519 9.86463 16.3921 9.81665 16.4334C9.72007 16.5165 9.59164 16.6025 9.46021 16.6209C9.39436 16.6284 9.32533 16.6118 9.25806 16.5809C9.19079 16.5499 9.12593 16.5055 9.06958 16.4598C9.01329 16.4141 8.96558 16.3671 8.93188 16.3318C8.9151 16.3143 8.90187 16.2992 8.89282 16.2889C8.88836 16.2838 8.88439 16.2799 8.88208 16.2772C8.88112 16.276 8.88067 16.2749 8.88013 16.2742L8.87915 16.2733L8.85278 16.241V16.8758H8.84692L8.85669 16.8865V16.8875C8.8573 16.8882 8.85842 16.8891 8.85962 16.8904C8.86207 16.8932 8.8656 16.8977 8.87036 16.9031C8.87988 16.914 8.8945 16.9296 8.91235 16.95C8.94818 16.9909 8.99917 17.0501 9.06177 17.1219C9.18714 17.2657 9.35738 17.4616 9.53638 17.6707C9.80501 17.9845 10.0933 18.327 10.2805 18.5662L10.4299 18.7664C10.5791 18.9928 10.6128 19.2948 10.6155 19.5135C10.6138 19.512 10.6113 19.5112 10.6096 19.5096C10.6013 19.5012 10.5933 19.4914 10.5872 19.4822H10.5881L10.5862 19.4803C10.208 19.049 9.85513 18.8661 9.53833 18.7127C9.26096 18.5784 9.01294 18.4675 8.7981 18.2322L8.70825 18.1238C8.55289 17.9264 8.41153 17.6471 8.2356 17.2293L8.04614 16.7635C7.96936 16.5529 7.81565 16.3399 7.57642 16.2557C7.55859 16.2484 7.54142 16.2503 7.52661 16.2596C7.51281 16.2682 7.50202 16.2832 7.49243 16.2996C7.47338 16.3323 7.45602 16.3802 7.43677 16.4276C7.41705 16.476 7.39416 16.5249 7.3645 16.5633C7.33503 16.6014 7.29915 16.6279 7.2522 16.6336C7.15175 16.6457 6.99896 16.6136 6.87134 16.5272C6.74437 16.441 6.64282 16.3019 6.64282 16.0994C6.64283 16.0095 6.64948 15.926 6.66626 15.8484L7.5647 15.8299H7.57544L7.57837 15.8192L7.64868 15.5721L8.10767 15.8289L8.10669 15.8299H8.11255L8.32153 15.8553L8.33325 15.8572L8.33716 15.8465L8.56763 15.2791L8.79321 15.2557L8.80688 15.2537V15.2401L8.78149 14.7586L9.42212 14.5545L9.4231 14.5535L9.90063 14.3543C9.98022 14.4308 10.0506 14.5015 10.1028 14.5574Z" fill="#176C93" stroke="#DCF4FF" stroke-width="0.03"/>
<path d="M7.10282 10.8271L5.13564 9.14104C5.13564 9.14104 5.4519 8.8253 5.31274 8.61691C5.17991 8.40852 4.97119 8.16225 4.97119 8.16225L7.34318 6.90561C7.34318 6.90561 7.72902 6.93718 7.86817 6.93718C7.91878 6.93718 7.97571 6.96875 8.03264 7.01927C8.14017 7.10136 8.24136 7.22135 8.24136 7.22135C8.24136 7.22135 9.19017 7.25291 9.323 7.42973C9.46849 7.59391 9.74046 8.30117 9.91757 8.54114C10.0947 8.7811 10.2718 7.97912 10.5817 7.94755C10.898 7.91597 10.8347 8.40221 10.8347 8.40221L12.0176 8.71795L12.1188 9.48835L11.986 9.62096L11.6444 9.72831L11.2902 9.86092V10.4229H10.626L10.1073 10.7829L10.0631 10.8081L9.39891 10.8397L8.98143 10.4861L8.56396 10.2461L8.07059 10.0693L7.83022 10.6945V11.0481L7.4507 11.1176L7.10915 10.8271H7.10282Z" fill="#90C6DE"/>
<path d="M10.1263 11.5026L10.4046 11.812L10.3223 12.4372L9.72143 12.5635L9.69615 13.4854L9.22806 13.6938L9.09524 13.8706L8.07054 13.9527C8.07054 13.9527 7.99463 14.2874 7.65307 14.2874C7.3115 14.2874 6.53981 14.1548 6.53981 14.1548L5.21782 13.9148V13.3528L4.20577 13.3844L3.92747 13.7001L3.28228 13.7254L3.12415 13.5928H2.59915L2.39041 13.3149H2.18168L2.12476 12.6519H2.5359L2.77626 12.9929L3.13048 13.0245V12.5698L3.69342 12.6456L3.93378 12.9234L4.66119 12.5382L5.07866 12.2604L6.02746 12.7782L5.91994 11.9068L6.27415 11.2437V10.9658L7.12174 10.808L7.46332 11.0985L7.84282 11.029V10.6754L8.08318 10.0502L8.57656 10.227L8.99403 10.467L9.4115 10.8206L10.0756 10.789L10.1199 10.7638L10.1452 11.4837L10.1263 11.5026Z" fill="#90C6DE"/>
<path d="M9.24219 13.7272C9.25376 13.7375 9.27091 13.7523 9.29199 13.7711C9.33443 13.8092 9.39422 13.8632 9.46289 13.9254C9.5923 14.0428 9.75385 14.1912 9.89355 14.3239L9.4248 14.5192L8.77441 14.7272L8.76367 14.7311V14.7428L8.78809 15.2204L8.55957 15.2458L8.55664 15.2536L8.32617 15.817L8.13379 15.7946L7.66016 15.5309L7.64355 15.5211L7.63867 15.5397L7.56543 15.7936L6.68262 15.8122C6.69158 15.7247 6.7012 15.6411 6.69434 15.5778C6.69065 15.5439 6.68265 15.5133 6.66504 15.4909C6.65063 15.4725 6.63053 15.4618 6.60547 15.4567L6.64844 15.3669L6.65234 15.3688L6.64941 15.3571L6.49121 14.7086L6.55762 14.1774C6.56295 14.1783 6.57 14.18 6.57812 14.1813C6.60007 14.1849 6.63198 14.1898 6.6709 14.196C6.74904 14.2084 6.85656 14.2253 6.97461 14.2419C7.21079 14.275 7.49033 14.3082 7.65918 14.3083C7.83255 14.3083 7.94132 14.2218 8.00586 14.1354C8.03785 14.0926 8.05896 14.0494 8.07227 14.0172C8.07892 14.0011 8.0839 13.9867 8.08691 13.9772C8.08746 13.9755 8.08746 13.9738 8.08789 13.9723L9.10254 13.8913L9.10352 13.8991L9.11328 13.8854L9.23535 13.7213C9.23734 13.7231 9.2397 13.725 9.24219 13.7272Z" fill="#176C93" stroke="#DCF4FF" stroke-width="0.03"/>
<path d="M-1.33524 8.47141L-1.1771 8.06094L-1.41747 7.59997V7.1453L-1.62622 6.72852L-1.24036 6.10337L-1.68945 5.6487L-0.576212 5.16246L-0.645781 4.1142L-0.335848 4.04474L-0.171384 2.50394C0.347292 2.38396 1.23283 2.18819 1.40361 1.86614C1.54909 1.60092 1.50482 0.678957 1.44789 0.0285339L2.69398 0.123262C2.81416 0.483204 3.03555 0.975752 3.33284 0.975752C3.75031 0.975752 4.13616 0.660014 4.10453 0.868402C4.06025 1.07679 3.75031 1.91666 4.23736 1.70196C4.7244 1.49357 6.26145 0.521097 6.50814 0.590559C6.7485 0.660022 6.26778 1.04522 6.78645 1.39253C6.95091 1.49988 7.14066 1.59461 7.31145 1.65144V2.5734L7.6214 2.71864L7.45693 3.10384L7.14067 3.79846L7.65935 4.18367L7.70361 5.82551L8.04518 6.21072V7.01901C7.98826 6.96849 7.92502 6.93691 7.88074 6.93691C7.73526 6.93691 7.35573 6.90535 7.35573 6.90535L4.98374 8.16198C4.98374 8.16198 5.19248 8.40195 5.32531 8.61665C5.47079 8.82504 5.1482 9.14078 5.1482 9.14078L7.11536 10.8268L6.26777 10.9847V11.2625L5.91356 11.9256L6.0211 12.797L5.0723 12.2792L4.65483 12.5571L3.92742 12.9423L3.68706 12.6644L3.1241 12.5887V13.0433L2.76988 13.0117L2.52952 12.6707H2.11837V12.5255L1.59338 12.456L0.644586 12.5571L0.0816249 12.7023L0.189164 11.4457L0.815363 10.2585L-0.405417 10.189L-0.614163 9.87329L-1.15813 9.48809L-1.03164 8.97027L-1.34157 8.48404H-1.33524V8.47141Z" fill="#90C6DE"/>
<path d="M5.81226 -1.94823C5.90714 -1.56935 5.58456 -1.64513 5.48335 -1.48726C5.38215 -1.31044 5.35052 -0.963125 5.38214 -0.476886C5.41377 0.00935245 5.02793 0.426123 4.75594 0.602937C4.47131 0.779751 4.2942 0.533481 4.16136 0.293519C4.01588 0.0409272 4.29419 0.00935411 4.51558 0.116705C4.71799 0.217742 4.85713 -0.167467 4.85713 -0.344281C4.85713 -0.521095 4.57883 -0.761058 4.19298 -0.798946C4.1234 -0.805261 4.0728 -0.830521 4.04749 -0.86841C3.92099 -1.01365 4.14237 -1.36728 4.04749 -1.60724C3.94629 -1.88509 4.28786 -2.44079 4.61046 -2.54182C4.61046 -2.54182 4.81919 -2.75021 5.12913 -2.75021C5.43907 -2.75021 5.54659 -2.60497 5.76798 -2.08716C5.78695 -2.03664 5.79961 -1.98613 5.81226 -1.95455V-1.94823Z" fill="#90C6DE"/>
<path d="M-3.54278 49.7007L-4.5991 49.8838V49.0503L-5.85783 48.5262L-7.11657 47.4337L-12.9801 42.9944L-13.2205 42.8492L-17.3509 40.3801V39.6918L-17.3762 38.4857L-15.7 37.5005L-14.0238 37.6016L-12.5563 36.1871L-11.8163 36.2439L-11.7657 35.5556L-12.2907 35.3472V34.3495L-9.36205 34.1979V33.9895L-8.99519 33.7306L-9.88073 32.9476L-9.77952 30.9584C-9.77952 30.9584 -10.1843 30.5416 -10.6145 30.2322C-9.03947 29.8786 -7.05331 28.704 -4.43463 28.2999C-2.28403 27.9652 0.062645 27.7063 1.47951 27.5863L0.954523 28.3441L0.90391 29.6007C0.90391 29.6007 1.16958 30.4343 0.954523 30.7437C0.752111 31.0595 0.0689831 31.4825 0.0689831 31.7415C0.0689831 32.0004 0.385242 33.3644 0.695183 33.5728C1.01145 33.7811 1.78947 34.1474 1.78947 34.1474L2.30182 36.6544C2.18163 36.7743 2.09307 36.8628 2.07409 36.8943C2.00452 36.9954 2.56116 37.9047 2.56116 37.9047L2.59277 41.0747L2.14368 41.4157L2.80783 43.1965C2.80783 43.1965 4.1741 43.7143 4.27531 43.7585C4.37651 43.7901 4.81296 44.6173 4.88886 44.7689C3.44037 45.6656 1.09368 47.0927 0.701513 47.3011C0.125912 47.6168 -1.80963 49.3913 -1.80963 49.3913L-3.5238 49.6818L-3.54278 49.7007Z" fill="#90C6DE"/>
<path d="M4.4272 32.7955L4.47781 33.9069L3.08624 34.8163L3.11786 35.8961C3.11786 35.8961 2.60552 36.3697 2.29558 36.6665L1.78323 34.1595C1.78323 34.1595 1.00521 33.7933 0.688943 33.5849C0.379003 33.3765 0.0627441 32.0125 0.0627441 31.7536C0.0627441 31.4947 0.752199 31.0779 0.948283 30.7558C1.16334 30.4464 0.897689 29.6129 0.897689 29.6129L0.948283 28.3562L1.47329 27.5984C2.0489 27.5479 2.47902 27.5227 2.68143 27.5227C2.88384 27.5227 3.07359 27.5416 3.24437 27.6174C3.64919 27.7816 3.92119 28.2426 3.88323 29.455C3.83263 31.1789 3.36456 32.2714 4.30071 32.7513C4.34498 32.7703 4.38292 32.7955 4.4272 32.8018V32.7955Z" fill="#90C6DE"/>
<path d="M3.76937 -0.76741C3.78834 -0.697948 3.79465 -0.641109 3.77568 -0.584276C3.7061 -0.300111 3.11153 0.00930738 2.97237 -0.344321C2.83954 -0.685319 2.732 -0.963167 2.58652 -0.963167C2.45369 -0.963167 2.61815 -0.375894 2.61815 -0.205395C2.61815 -0.148562 2.64345 -0.0222669 2.68772 0.129288L1.44164 0.0345702C1.41001 -0.281169 1.36573 -0.540074 1.34043 -0.634796C1.26453 -0.918961 0.821765 -1.20944 0.796464 -1.49361C0.771163 -1.77777 0.638331 -2.75025 0.796464 -3.29964C0.948271 -3.84271 1.16333 -4.05109 1.54918 -4.28474C1.94135 -4.5247 3.38352 -5.83186 3.40882 -5.23196C3.43412 -4.63206 2.99135 -3.65958 3.14948 -3.50803C3.30761 -3.35016 3.77567 -2.8576 3.85158 -2.8576C3.85158 -2.8576 3.70611 -2.29559 3.56695 -2.02406C3.42147 -1.73989 2.79526 -1.39889 2.79526 -1.22208C2.79526 -1.04526 3.14947 -1.25365 3.32025 -1.25365C3.45309 -1.25365 3.70611 -1.02 3.76303 -0.780043L3.76937 -0.76741Z" fill="#90C6DE"/>
<path d="M2.112 12.6583L2.16893 13.3214H2.37767L2.59273 13.5929H3.11772L3.27586 13.7319L3.14936 13.7382L3.0861 14.0918H2.80146L2.66232 14.6727L1.89694 14.3318L1.65027 15.2032L1.05569 14.2875L0.461106 15.058L-0.506665 15.1274L-0.683773 14.256L-1.63257 14.7106L-1.30999 13.6308L-0.506665 13.1761L-0.620516 12.5826L0.0752527 12.6899L0.638214 12.551L1.58701 12.45L2.10569 12.5194L2.112 12.6583Z" fill="#90C6DE"/>
<path d="M3.27593 13.7315L3.92113 13.7062L4.19944 13.3905L5.21149 13.3589V13.9209L6.53348 14.1609L6.46389 14.7103L6.62202 15.3607L6.57143 15.4681C6.49553 15.4617 6.38166 15.4933 6.18558 15.6007C5.49612 15.9606 5.21148 16.5353 5.26209 16.8826C5.31269 17.2173 5.42022 17.9308 5.83769 18.3981C6.25516 18.8654 7.74793 20.8798 8.0895 21.0124C8.42474 21.1387 9.07625 21.1956 9.07625 21.1956C9.07625 21.1956 8.97504 21.505 9.39251 21.7892C9.80998 22.0796 11.8784 23.2037 11.9037 23.4373C11.91 23.4815 11.91 23.532 11.91 23.5889C11.91 23.8794 11.8404 24.3277 11.5305 24.1509C11.1636 23.9425 10.5564 23.1279 10.4362 23.2542C10.3034 23.3868 9.86059 23.7783 10.1452 24.2519C10.4362 24.7192 10.2781 25.2497 9.99342 25.8243C9.70246 26.3926 9.20908 26.9168 9.01932 26.7589C8.91812 26.6642 8.84221 26.5758 8.84221 26.4432C8.84221 26.3421 8.89281 26.2158 8.99401 26.058C9.22805 25.6917 9.41148 25.136 9.22805 24.6182C9.04461 24.0941 7.18497 22.5785 6.55877 22.187C6.00847 21.846 4.52202 20.7409 4.03498 20.2484C3.9654 20.1726 3.91479 20.1157 3.88949 20.0715C3.70605 19.7305 3.41509 18.3729 2.54853 18.0319C1.70093 17.7035 0.505459 17.975 0.144917 18.3602L0.163892 17.7856L-0.576177 17.754V16.851L-0.854492 16.4974L-0.468639 15.9732L-0.784904 15.3544L-0.531895 15.1397L0.442207 15.0702L1.03679 14.2998L1.63137 15.2092L1.87173 14.3377L2.6434 14.6787L2.77625 14.0914H3.06087L3.13046 13.7378H3.25696L3.27593 13.7315Z" fill="#90C6DE"/>
<path d="M8.62086 26.3107C8.78531 26.3044 8.82327 26.3612 8.8043 26.4307C8.78532 26.5002 8.72839 26.5759 8.72839 26.5759C8.72839 26.5759 8.51965 26.9169 8.46272 27.2516C8.41212 27.5926 8.54496 27.8263 8.48803 28.0852C8.43743 28.3504 7.86814 28.243 7.6847 28.0852C7.50127 27.9336 6.61573 27.4916 6.10971 27.3337C5.92627 27.2769 5.7808 27.2327 5.67959 27.1758C5.51513 27.0811 5.43923 26.9675 5.40128 26.7085C5.40128 26.7085 5.29374 26.4496 6.02748 26.3676C6.35639 26.336 6.91302 26.6012 7.33682 26.5759C7.75429 26.5507 8.28561 26.3423 8.62086 26.317V26.3107Z" fill="#90C6DE"/>
<path d="M2.39038 20.2675C2.43465 20.3243 2.45996 20.3938 2.45996 20.4569C2.45996 20.7347 2.25123 21.7135 1.96659 21.7767C1.93496 21.783 1.89701 21.7956 1.86538 21.7956C1.63767 21.7956 1.46055 21.5683 1.34037 21.0821C1.20754 20.5201 1.54912 20.1033 2.04249 19.9707C2.04249 19.9707 2.27653 20.0906 2.39671 20.2611L2.39038 20.2675Z" fill="#90C6DE"/>
<path d="M1.96026 22.1989C1.96026 22.1989 3.01026 21.8579 2.31447 24.7816C2.21959 25.1605 2.03616 25.2931 1.84008 25.2931C1.58706 25.2931 1.32139 25.0848 1.20121 24.8511C0.992478 24.4343 0.992491 23.2471 1.05574 22.8304C1.11267 22.4641 1.59972 22.262 1.86538 22.2115C1.89701 22.2052 1.93496 22.2052 1.96026 22.2052V22.1989Z" fill="#90C6DE"/>
<path d="M-1.16446 9.48168L-0.620474 9.86688L-0.411747 10.1826L0.809032 10.2521L0.182834 11.4393L0.0752945 12.6959L-0.620474 12.5886L-0.512954 13.1821L-1.31626 13.6368L-1.63253 14.7166L-0.68373 14.262L-0.506622 15.1334L-0.759631 15.3481L-0.443366 15.967L-0.82922 16.4911L-0.550904 16.8447V17.7477L0.189165 17.7793L0.17019 18.354C0.17019 18.354 0.151209 18.3603 0.144883 18.3729C-0.196684 18.7644 -0.614161 19.5538 -1.40482 19.4212C-2.18284 19.2885 -3.91597 18.2782 -4.25121 19.2128C-4.40935 19.6422 -4.40301 20.0211 -4.39668 20.3431C-5.01656 20.3684 -5.8768 20.3999 -6.01596 20.3684C-6.22469 20.3115 -6.66746 19.9516 -6.66746 19.9516L-7.66687 20.0021L-9.26084 19.5601C-9.26084 19.5601 -9.77321 19.0991 -10.0831 18.7518C-9.53917 18.3161 -8.76115 17.1289 -9.02681 15.6639C-9.36838 13.8326 -10.3678 12.8727 -10.9118 12.6264C-11.4621 12.3928 -12.6955 12.5254 -12.822 12.1591C-12.9548 11.7929 -13.5368 10.953 -12.7208 10.7825C-11.9111 10.5994 -10.6271 10.8583 -10.2096 10.8836C-9.79217 10.9088 -9.45062 10.6247 -9.53285 10.4163C-9.60875 10.2079 -10.0515 8.66708 -9.50121 9.13437C-8.95723 9.60166 -8.51447 9.9174 -8.16658 9.73427C-7.82501 9.55114 -7.09759 8.76179 -6.6738 8.47763C-6.25633 8.18715 -6.38283 7.27151 -5.99698 7.06312C-5.83253 6.9684 -5.54157 6.87367 -5.2506 6.75369L-4.95964 7.18941L-4.43463 7.29676L-4.25752 7.99139L-3.53012 8.02296L-3.45422 8.69233L-3.14428 8.7239L-2.86597 8.27556L-2.58132 9.17857L-2.03102 9.41853H-1.84127L-1.22772 9.45011L-1.1771 9.48168H-1.16446Z" fill="#90C6DE"/>
</g>
</svg>
