<svg width="24" height="24" viewBox="0 0 24 24" fill="none" xmlns="http://www.w3.org/2000/svg">
<g clip-path="url(#clip0_6144_24282)">
<g clip-path="url(#clip1_6144_24282)">
<mask id="mask0_6144_24282" style="mask-type:luminance" maskUnits="userSpaceOnUse" x="-4" y="0" width="32" height="24">
<rect x="-4" width="32" height="24" fill="white"/>
</mask>
<g mask="url(#mask0_6144_24282)">
<path fill-rule="evenodd" clip-rule="evenodd" d="M-4 0H28V24H-4V0Z" fill="#E31D1C"/>
<path fill-rule="evenodd" clip-rule="evenodd" d="M3.72693 9.74812C3.63659 9.69971 3.52767 9.70133 3.43881 9.75241L1.33917 10.9594C1.10289 11.0953 0.823805 10.8675 0.909459 10.6088L1.57894 8.58661C1.61554 8.47605 1.5841 8.35429 1.49855 8.27528L0.0959882 6.9799C-0.100547 6.79838 0.024499 6.46994 0.291988 6.46508L2.23344 6.42986C2.34956 6.42775 2.45379 6.35811 2.50017 6.25163L3.40335 4.17828C3.50888 3.93602 3.85455 3.94206 3.95156 4.18785L4.77906 6.28443C4.82311 6.39603 4.93001 6.47014 5.04997 6.47224L6.96833 6.50572C7.23701 6.51041 7.36166 6.84122 7.16288 7.02205L5.71407 8.34007C5.62522 8.42089 5.59385 8.5473 5.63458 8.6603L6.31513 10.5479C6.40739 10.8038 6.13549 11.0387 5.89572 10.9102L3.72693 9.74812Z" fill="#FBCD17"/>
<path fill-rule="evenodd" clip-rule="evenodd" d="M4.06484 14.6423C4.03903 14.6285 4.00791 14.629 3.98252 14.6435L3.38262 14.9884C3.31511 15.0272 3.23537 14.9622 3.25985 14.8882L3.45113 14.3105C3.46158 14.2789 3.4526 14.2441 3.42816 14.2215L3.02743 13.8514C2.97127 13.7995 3.007 13.7057 3.08343 13.7043L3.63813 13.6942C3.6713 13.6936 3.70108 13.6737 3.71434 13.6433L3.97239 13.0509C4.00254 12.9817 4.1013 12.9834 4.12902 13.0537L4.36545 13.6527C4.37803 13.6846 4.40857 13.7058 4.44285 13.7064L4.99095 13.7159C5.06772 13.7173 5.10333 13.8118 5.04654 13.8634L4.63259 14.24C4.60721 14.2631 4.59824 14.2992 4.60988 14.3315L4.80432 14.8708C4.83068 14.9439 4.753 15.0111 4.68449 14.9743L4.06484 14.6423Z" fill="#FBCD17"/>
<path fill-rule="evenodd" clip-rule="evenodd" d="M8.06484 13.6423C8.03903 13.6285 8.00791 13.629 7.98252 13.6435L7.38262 13.9884C7.31511 14.0272 7.23537 13.9622 7.25985 13.8882L7.45113 13.3105C7.46158 13.2789 7.4526 13.2441 7.42816 13.2215L7.02743 12.8514C6.97127 12.7995 7.007 12.7057 7.08343 12.7043L7.63813 12.6942C7.6713 12.6936 7.70108 12.6737 7.71434 12.6433L7.97239 12.0509C8.00254 11.9817 8.1013 11.9834 8.12902 12.0537L8.36545 12.6527C8.37803 12.6846 8.40857 12.7058 8.44285 12.7064L8.99095 12.7159C9.06772 12.7173 9.10333 12.8118 9.04654 12.8634L8.63259 13.24C8.60721 13.2631 8.59824 13.2992 8.60988 13.3315L8.80432 13.8708C8.83068 13.9439 8.753 14.0111 8.68449 13.9743L8.06484 13.6423Z" fill="#FBCD17"/>
<path fill-rule="evenodd" clip-rule="evenodd" d="M10.0648 9.64232C10.039 9.62849 10.0079 9.62895 9.98252 9.64355L9.38262 9.98841C9.31511 10.0272 9.23537 9.96216 9.25985 9.88823L9.45113 9.31046C9.46158 9.27887 9.4526 9.24408 9.42816 9.22151L9.02743 8.8514C8.97127 8.79954 9.007 8.7057 9.08343 8.70431L9.63813 8.69425C9.6713 8.69364 9.70108 8.67375 9.71434 8.64332L9.97239 8.05094C10.0025 7.98172 10.1013 7.98345 10.129 8.05367L10.3654 8.6527C10.378 8.68458 10.4086 8.70575 10.4428 8.70635L10.991 8.71592C11.0677 8.71726 11.1033 8.81178 11.0465 8.86344L10.6326 9.24002C10.6072 9.26311 10.5982 9.29923 10.6099 9.33151L10.8043 9.87083C10.8307 9.94394 10.753 10.0111 10.6845 9.97434L10.0648 9.64232Z" fill="#FBCD17"/>
<path fill-rule="evenodd" clip-rule="evenodd" d="M9.56484 5.64232C9.53903 5.62849 9.50791 5.62895 9.48252 5.64355L8.88262 5.98841C8.81511 6.02722 8.73537 5.96216 8.75985 5.88823L8.95113 5.31046C8.96158 5.27887 8.9526 5.24408 8.92816 5.22151L8.52743 4.8514C8.47127 4.79954 8.507 4.7057 8.58343 4.70431L9.13813 4.69425C9.1713 4.69364 9.20108 4.67375 9.21434 4.64332L9.47239 4.05094C9.50254 3.98172 9.6013 3.98345 9.62902 4.05367L9.86545 4.6527C9.87803 4.68458 9.90857 4.70575 9.94285 4.70635L10.491 4.71592C10.5677 4.71726 10.6033 4.81178 10.5465 4.86344L10.1326 5.24002C10.1072 5.26311 10.0982 5.29923 10.1099 5.33151L10.3043 5.87083C10.3307 5.94394 10.253 6.01105 10.1845 5.97434L9.56484 5.64232Z" fill="#FBCD17"/>
</g>
</g>
<g style="mix-blend-mode:hard-light" opacity="0.12">
<rect width="24" height="24" rx="12" fill="white"/>
</g>
<rect width="24" height="24" fill="url(#paint0_linear_6144_24282)" fill-opacity="0.64" style="mix-blend-mode:overlay"/>
</g>
<defs>
<linearGradient id="paint0_linear_6144_24282" x1="24" y1="1.19273e-06" x2="-4.48665" y2="16.0237" gradientUnits="userSpaceOnUse">
<stop stop-color="white" stop-opacity="0.3"/>
<stop offset="0.262741" stop-opacity="0.27"/>
<stop offset="0.369956" stop-color="white" stop-opacity="0.26"/>
<stop offset="0.487001" stop-opacity="0.55"/>
<stop offset="0.594445" stop-opacity="0.24"/>
<stop offset="0.736408" stop-color="white" stop-opacity="0.3"/>
<stop offset="0.901459" stop-color="#272727" stop-opacity="0.22"/>
<stop offset="1" stop-opacity="0.2"/>
</linearGradient>
<clipPath id="clip0_6144_24282">
<rect width="24" height="24" rx="12" fill="white"/>
</clipPath>
<clipPath id="clip1_6144_24282">
<rect width="24" height="24" fill="white"/>
</clipPath>
</defs>
</svg>
