<svg width="177" height="143" viewBox="0 0 177 143" fill="none" xmlns="http://www.w3.org/2000/svg">
<path d="M141.752 61.7853C140.836 60.2897 139.857 58.9229 138.941 57.4273C132.428 47.0032 125.347 36.9349 116.439 28.192C113.801 25.5638 110.898 23.1554 107.83 20.9212C105.857 19.5001 103.618 18.2987 101.19 17.4839C94.1455 15.0324 87.4162 18.6656 86.131 25.7724C85.5711 28.8366 85.7665 31.9624 85.685 35.012C85.6202 35.9451 85.7571 36.7873 85.3899 37.8566C84.9251 37.3629 84.4603 36.8692 83.9955 36.3755C80.4034 32.1682 76.7737 27.8774 72.1856 24.42C69.9608 22.7103 67.572 21.1749 65.0192 19.8138C63.548 18.9699 61.7488 18.4745 60.0248 18.1462C54.8905 17.2446 50.0147 19.34 46.8718 23.668C45.2183 25.9191 44.2944 28.4442 43.7105 30.9166C42.6572 35.3078 42.3845 39.5483 42.4895 43.8195C42.6332 54.0992 44.036 64.2136 45.7412 74.1917C47.5968 84.5039 49.6916 94.8088 51.648 105.076C51.8104 105.705 51.8344 106.297 51.4929 107.154C50.7513 106.584 50.1481 106.052 49.4064 105.482C44.1656 101.114 38.5967 97.0937 32.0815 94.2029C29.0504 92.8563 25.792 91.813 22.508 90.982C19.5009 90.2272 16.0889 90.4582 12.8515 91.6149C8.22843 93.1947 4.99984 96.2556 2.90247 100.213C1.12104 103.526 0.472411 106.932 0.201365 110.368C-0.175167 116.262 0.669859 121.907 2.05646 127.409C5.91704 142.443 12.3351 156.425 20.2275 169.642C26.0622 179.367 32.7288 188.517 40.7946 196.736C43.8603 199.774 47.1275 202.722 50.95 205.017C53.6532 206.713 56.546 208.021 59.9307 208.807C68.6258 210.615 76.7135 207.576 82.2787 200.55C84.4241 197.776 85.9151 194.895 87.0542 191.771C88.6235 187.448 89.6137 183.186 89.9495 178.817C90.3621 173.81 90.5355 168.811 90.8473 163.85C90.8864 163.129 90.9256 162.409 90.9784 161.18C91.8584 161.788 92.3488 162.069 92.8768 162.434C97.4272 165.808 101.877 169.227 106.554 172.343C111.231 175.46 116.362 177.969 122.238 179.441C125.106 180.158 128.102 180.616 131.047 180.696C139.129 180.873 146.159 177.908 151.973 171.975C155.619 168.224 158.082 164.001 160.054 159.498C162.216 154.607 163.485 149.617 164.514 144.634C164.654 143.868 164.858 142.973 165.124 141.949C165.929 142.39 166.457 142.755 166.985 143.12C172.654 147.094 179.309 149.219 187.051 149.449C193.181 149.6 199.388 149.115 205.51 147.362C210.724 146.019 214.607 143.065 217.41 138.789C220.566 133.953 222.276 128.865 222.235 123.661C222.267 120.232 222.161 116.764 221.613 113.395C220.182 105.102 218.612 96.77 216.676 88.7033C212.669 71.7277 207.414 55.2132 200.105 39.5232C195.981 30.6345 191.151 22.0635 184.783 14.3858C182.083 11.0824 179.219 7.9533 175.498 5.61209C172.97 4.03859 170.305 2.42699 167.361 1.54334C158.655 -1.36542 150.453 2.22797 146.447 10.5604C145.246 13.0093 144.259 15.6633 143.813 18.1739C142.922 23.1949 142.17 28.2541 142.06 33.1244C141.803 41.9774 142.126 50.7704 142.273 59.4418C142.234 60.1624 142.295 60.8377 142.256 61.5584C142.054 61.6492 141.954 61.6945 141.752 61.7853Z" fill="#FFEEF0"/>
</svg>
