<svg width="100" height="100" viewBox="0 0 100 100" fill="none" xmlns="http://www.w3.org/2000/svg">
<line x1="42.1193" y1="76.0782" x2="40.4227" y2="80.1502" stroke="#292B2E" stroke-miterlimit="10" stroke-linecap="round" stroke-linejoin="round"/>
<path d="M40.1853 82.917C41.5647 82.917 42.6828 81.7988 42.6828 80.4194C42.6828 79.0401 41.5647 77.9219 40.1853 77.9219C38.8059 77.9219 37.6877 79.0401 37.6877 80.4194C37.6877 81.7988 38.8059 82.917 40.1853 82.917Z" fill="white" stroke="#292B2E" stroke-miterlimit="10" stroke-linecap="round" stroke-linejoin="round"/>
<path d="M61.6226 68.7641L71.4046 41.291H81.8111L74.9428 68.7641H61.6226Z" fill="#292B2E" stroke="#292B2E" stroke-linejoin="round"/>
<path d="M67.6582 68.7642H31.0275L27.6974 75.8406H77.6484" stroke="#292B2E" stroke-miterlimit="10" stroke-linecap="round" stroke-linejoin="round"/>
<path d="M41.4339 68.7642L38.1039 75.8406" stroke="#292B2E" stroke-miterlimit="10" stroke-linecap="round" stroke-linejoin="round"/>
<path d="M31.0277 68.7642L24.1594 41.2911H74.5267L67.6584 68.7642H31.0277Z" fill="white"/>
<path d="M24.1594 41.2911L31.0277 68.7642H67.6584L74.5267 41.2911H64.7446H39.3528H24.1594ZM24.1594 41.2911L21.6618 32.3416H16.6667" stroke="#292B2E" stroke-miterlimit="10" stroke-linecap="round" stroke-linejoin="round"/>
<path d="M36.2309 41.2911L33.7334 32.3416H28.7383" stroke="#292B2E" stroke-miterlimit="10" stroke-linecap="round" stroke-linejoin="round"/>
<line x1="32.1291" y1="76.0782" x2="30.4324" y2="80.1502" stroke="#292B2E" stroke-miterlimit="10" stroke-linecap="round" stroke-linejoin="round"/>
<line x1="64.1813" y1="76.0782" x2="62.4847" y2="80.1502" stroke="#292B2E" stroke-miterlimit="10" stroke-linecap="round" stroke-linejoin="round"/>
<line x1="74.5878" y1="76.0782" x2="72.8912" y2="80.1502" stroke="#292B2E" stroke-miterlimit="10" stroke-linecap="round" stroke-linejoin="round"/>
<path d="M30.1949 82.917C31.5743 82.917 32.6925 81.7988 32.6925 80.4194C32.6925 79.0401 31.5743 77.9219 30.1949 77.9219C28.8156 77.9219 27.6974 79.0401 27.6974 80.4194C27.6974 81.7988 28.8156 82.917 30.1949 82.917Z" fill="white" stroke="#292B2E" stroke-miterlimit="10" stroke-linecap="round" stroke-linejoin="round"/>
<path d="M62.2469 82.917C63.6263 82.917 64.7445 81.7988 64.7445 80.4194C64.7445 79.0401 63.6263 77.9219 62.2469 77.9219C60.8676 77.9219 59.7494 79.0401 59.7494 80.4194C59.7494 81.7988 60.8676 82.917 62.2469 82.917Z" fill="white" stroke="#292B2E" stroke-miterlimit="10" stroke-linecap="round" stroke-linejoin="round"/>
<path d="M72.6537 82.917C74.033 82.917 75.1512 81.7988 75.1512 80.4194C75.1512 79.0401 74.033 77.9219 72.6537 77.9219C71.2743 77.9219 70.1561 79.0401 70.1561 80.4194C70.1561 81.7988 71.2743 82.917 72.6537 82.917Z" fill="white" stroke="#292B2E" stroke-miterlimit="10" stroke-linecap="round" stroke-linejoin="round"/>
<line x1="20.7051" y1="82.8333" x2="82.9764" y2="82.8333" stroke="#292B2E" stroke-miterlimit="10" stroke-linecap="round" stroke-linejoin="round"/>
<path d="M51.75 5V21M51.75 21L46 15.1935M51.75 21L57.5 15.1935" stroke="#292B2E" stroke-linecap="round" stroke-linejoin="round"/>
</svg>
