<svg width="103" height="24" viewBox="0 0 103 24" fill="none" xmlns="http://www.w3.org/2000/svg">
<path fill-rule="evenodd" clip-rule="evenodd" d="M77.6536 0.0960894C63.1727 0.368923 59.0324 0.546407 50.9978 1.23923C42.6714 1.95722 36.7126 2.67692 27.258 4.10657C25.0662 4.43799 22.7193 4.75252 19.9681 5.08348C9.86143 6.29923 7.89474 6.62319 4.62752 7.60998C3.00871 8.09902 1.60873 8.43744 0.824079 8.52969C0.126464 8.6116 0 8.66318 0 8.86571C0 9.04468 1.11574 9.20149 1.726 9.10821C1.9447 9.0749 2.53721 8.99322 3.04275 8.92694C3.54829 8.86054 4.6608 8.68236 5.51499 8.53095C7.52644 8.17426 8.4922 8.06179 11.9491 7.78161C17.7606 7.31061 22.1507 6.85799 27.5432 6.1739C29.5305 5.92174 32.1692 5.587 33.4069 5.42996C42.794 4.2388 54.2605 3.17664 61.2671 2.84935C69.7697 2.45199 96.1657 2.1007 95.7199 2.39065C95.5433 2.50564 92.5228 3.3609 90.7121 3.80869C89.0488 4.22007 86.27 4.81341 82.8516 5.48705C81.2304 5.80664 79.0054 6.24892 77.9071 6.46994C73.7814 7.30039 72.4224 7.55794 70.0784 7.95415C59.2797 9.77921 52.1466 11.3696 42.2182 14.1655C36.3168 15.8273 31.4798 17.735 26.0818 20.5299C23.0128 22.1189 22.7138 22.4011 23.0159 23.4241C23.2125 24.0897 24.761 24.176 27.8842 23.6952C33.592 22.8168 38.9557 22.1354 44.1516 21.6288C47.4108 21.3111 47.8425 21.2578 51.1563 20.7645C52.394 20.5803 54.5334 20.311 55.9106 20.1663L58.4145 19.9031L55.0865 19.7994C50.0434 19.6421 44.6337 19.6517 42.8521 19.821C36.9537 20.3816 33.7455 20.8131 28.5052 21.7503C27.2561 21.9738 26.2024 22.1374 26.1635 22.1139C25.7882 21.8872 34.1879 18.4608 38.195 17.2061C47.2406 14.3736 56.5557 12.2602 70.8708 9.79242C72.1782 9.56703 74.8026 9.07398 76.7027 8.69684C78.6029 8.31958 81.5981 7.72566 83.3587 7.37678C90.1355 6.03421 92.1546 5.53415 98.6676 3.58526C102.839 2.337 102.861 2.32632 102.975 1.5054C103.1 0.602814 102.766 0.193279 101.808 0.0762186C100.899 -0.0350974 83.8709 -0.0210854 77.6536 0.0960894ZM58.6847 19.812C58.7635 19.8395 58.8776 19.8384 58.9382 19.8097C58.9988 19.781 58.9343 19.7585 58.7948 19.7597C58.6554 19.761 58.6058 19.7846 58.6847 19.812Z" fill="#292B2E"/>
</svg>
