<svg width="24" height="24" viewBox="0 0 24 24" fill="none" xmlns="http://www.w3.org/2000/svg">
<g clip-path="url(#clip0_6144_24399)">
<g clip-path="url(#clip1_6144_24399)">
<mask id="mask0_6144_24399" style="mask-type:luminance" maskUnits="userSpaceOnUse" x="-4" y="0" width="32" height="24">
<rect x="-4" width="32" height="24" fill="white"/>
</mask>
<g mask="url(#mask0_6144_24399)">
<path fill-rule="evenodd" clip-rule="evenodd" d="M-4 0V24H28V0H-4Z" fill="#F7FCFF"/>
<mask id="mask1_6144_24399" style="mask-type:luminance" maskUnits="userSpaceOnUse" x="-4" y="0" width="32" height="24">
<path fill-rule="evenodd" clip-rule="evenodd" d="M-4 0V24H28V0H-4Z" fill="white"/>
</mask>
<g mask="url(#mask1_6144_24399)">
<path fill-rule="evenodd" clip-rule="evenodd" d="M-4 0V8H28V0H-4Z" fill="#FECA00"/>
<path fill-rule="evenodd" clip-rule="evenodd" d="M-4 16V24H28V16H-4Z" fill="#009933"/>
<path d="M-4 7H-5V8V16V17H-4H28H29V16V8V7H28H-4Z" fill="#292B2E" stroke="white" stroke-width="2"/>
</g>
<path fill-rule="evenodd" clip-rule="evenodd" d="M-4 0V24L14 12L-4 0Z" fill="#E31D1C"/>
<mask id="mask2_6144_24399" style="mask-type:luminance" maskUnits="userSpaceOnUse" x="-4" y="0" width="18" height="24">
<path fill-rule="evenodd" clip-rule="evenodd" d="M-4 0V24L14 12L-4 0Z" fill="white"/>
</mask>
<g mask="url(#mask2_6144_24399)">
<path fill-rule="evenodd" clip-rule="evenodd" d="M4.0689 14.3532L0.289967 17.4037L2.02334 13.3271L-0.955078 10.4588H2.56053L4.00311 7L5.5353 10.4588H9.04492L5.90917 13.3271L7.47853 17.4037L4.0689 14.3532Z" fill="#FECA00"/>
<path fill-rule="evenodd" clip-rule="evenodd" d="M2.15604 11.9843L1.51514 14.1247C1.51514 14.1247 3.67877 14.1033 3.93865 14.3219C4.72164 13.8337 6.33359 14.1247 6.33359 14.1247L5.47622 11.834C5.47622 11.834 4.38917 11.3414 3.93865 11.6115C2.83436 11.3621 2.15604 11.9843 2.15604 11.9843Z" fill="#F7FCFF"/>
<path d="M7.56392 15.2163C7.73003 15.4369 7.68586 15.7504 7.46526 15.9165C7.24466 16.0826 6.93118 16.0385 6.76507 15.8179L2.58498 10.2666C2.41887 10.046 2.46304 9.73253 2.68364 9.56643C2.90423 9.40032 3.21772 9.44449 3.38383 9.66508L7.56392 15.2163Z" fill="#292B2E"/>
<path d="M2.97422 9.83962L2.57422 9.35962" stroke="#292B2E" stroke-linecap="round" stroke-linejoin="round"/>
<path fill-rule="evenodd" clip-rule="evenodd" d="M1.60475 9.36255L0.39624 11.2979L1.00049 12.3446L2.38267 10.2903L2.63128 9.65514L2.38267 9.36255H1.60475Z" fill="#292B2E"/>
<path fill-rule="evenodd" clip-rule="evenodd" d="M0.0390625 15.1085L0.621685 15.9303L5.1173 10.6112L5.30378 10.8196L6.34007 9.84465L7.99625 8.04297L6.34007 9.39656L5.80447 9.24805L5.30378 10.0346H4.80149L1.12941 14.1223L0.0390625 15.1085Z" fill="#292B2E"/>
</g>
</g>
</g>
<g style="mix-blend-mode:hard-light" opacity="0.12">
<rect width="24" height="24" rx="12" fill="white"/>
</g>
<rect width="24" height="24" fill="url(#paint0_linear_6144_24399)" fill-opacity="0.64" style="mix-blend-mode:overlay"/>
</g>
<defs>
<linearGradient id="paint0_linear_6144_24399" x1="24" y1="1.19273e-06" x2="-4.48665" y2="16.0237" gradientUnits="userSpaceOnUse">
<stop stop-color="white" stop-opacity="0.3"/>
<stop offset="0.262741" stop-opacity="0.27"/>
<stop offset="0.369956" stop-color="white" stop-opacity="0.26"/>
<stop offset="0.487001" stop-opacity="0.55"/>
<stop offset="0.594445" stop-opacity="0.24"/>
<stop offset="0.736408" stop-color="white" stop-opacity="0.3"/>
<stop offset="0.901459" stop-color="#272727" stop-opacity="0.22"/>
<stop offset="1" stop-opacity="0.2"/>
</linearGradient>
<clipPath id="clip0_6144_24399">
<rect width="24" height="24" rx="12" fill="white"/>
</clipPath>
<clipPath id="clip1_6144_24399">
<rect width="24" height="24" fill="white"/>
</clipPath>
</defs>
</svg>
