<svg width="168" height="168" viewBox="0 0 168 168" fill="none" xmlns="http://www.w3.org/2000/svg">
<g clip-path="url(#clip0_271_1857)">
<path d="M155.796 34.8055C155.846 34.8056 155.892 34.7807 155.919 34.7393C155.962 34.6748 160.21 28.2433 165.552 23.8614C165.614 23.8089 165.622 23.716 165.569 23.6538C165.518 23.5929 165.427 23.584 165.365 23.6336C159.988 28.0447 155.716 34.5129 155.673 34.5777C155.629 34.6457 155.647 34.737 155.715 34.7817C155.739 34.7975 155.767 34.806 155.796 34.806V34.8055Z" fill="#BFEBFF"/>
<path d="M3.95154 60.3358C12.5708 67.7025 42.1741 98.3358 79.092 92.5827C121.897 85.9118 136.855 53.2471 159.585 29.6875C154.58 36.3593 133.145 109.549 85.8345 108.358C46.9534 107.38 17.0889 85.0073 3.95154 60.3358Z" fill="#292B2E"/>
<path d="M4.10783 60.2381C4.1265 60.2682 6.02374 63.2997 9.58852 67.7047C12.8779 71.7696 18.3003 77.8679 25.4528 83.8391C37.1605 93.6136 55.6821 104.772 79.2213 104.772C81.0648 104.772 82.9402 104.701 84.8475 104.56C122.473 101.734 131.89 81.9941 142.794 59.1374C147.413 49.4544 152.19 39.4415 159.436 29.5781L159.741 29.785C158.141 32.3319 156.363 37.5387 154.112 44.1307C145.314 69.8868 128.94 117.828 84.8753 121.19C83.2798 121.312 81.6906 121.373 80.1076 121.373C69.6088 121.373 59.3934 118.7 49.679 113.401C40.7415 108.527 32.2062 101.432 24.3099 92.3142C17.2878 84.2055 12.0811 75.9638 8.9498 70.4776C5.55632 64.5321 3.79959 60.4484 3.78227 60.4079L4.10783 60.2381Z" fill="white"/>
<path d="M80.1128 121.596C81.6923 121.596 83.3002 121.535 84.8921 121.413C129.102 118.04 145.507 70.0087 154.321 44.2045C156.567 37.6264 158.342 32.4305 159.928 29.9048C159.991 29.8041 159.963 29.6714 159.865 29.6045L159.561 29.3977C159.462 29.3308 159.329 29.3537 159.258 29.4495C151.997 39.3323 147.217 49.3534 142.594 59.0444C137.187 70.3796 132.079 81.086 123.687 89.2037C119.213 93.532 114.133 96.8288 108.157 99.2826C101.525 102.006 93.8944 103.661 84.8309 104.342C82.9385 104.482 81.0511 104.553 79.2213 104.553C68.635 104.553 58.1272 102.271 47.9899 97.7713C40.186 94.307 32.6511 89.5632 25.5946 83.6719C18.4545 77.7109 13.0429 71.6244 9.76039 67.568C6.19798 63.166 4.31418 60.1537 4.29559 60.1237C4.23454 60.0257 4.10818 59.991 4.00562 60.0445L3.67998 60.2143C3.57748 60.2676 3.53343 60.391 3.57883 60.4972C3.59615 60.5378 5.35049 64.6202 8.75768 70.5897C11.8938 76.0844 17.1087 84.3391 24.1427 92.4614C32.0563 101.599 40.6123 108.711 49.573 113.598C59.304 118.905 69.5772 121.596 80.1075 121.596C80.1093 121.596 80.111 121.596 80.1128 121.596ZM159.176 30.3127C157.662 33.0541 155.984 37.9671 153.902 44.0616C145.122 69.7694 128.778 117.621 84.8584 120.972C83.2779 121.093 81.681 121.154 80.1128 121.154H80.1075C69.6521 121.154 59.4501 118.481 49.7848 113.209C40.8707 108.348 32.3559 101.27 24.4769 92.1717C17.4664 84.0765 12.2681 75.8478 9.14175 70.3703C6.38437 65.5392 4.7159 61.9543 4.17729 60.7569C4.80731 61.7194 6.58499 64.3472 9.41663 67.8461C12.7115 71.9178 18.1437 78.0274 25.3111 84.0112C32.3991 89.929 39.9689 94.6945 47.8104 98.1755C58.0046 102.701 68.5728 104.996 79.2212 104.996C81.0619 104.996 82.9604 104.924 84.8637 104.783C93.9746 104.099 101.649 102.433 108.325 99.6916C114.354 97.2161 119.479 93.8894 123.995 89.5214C132.444 81.3483 137.568 70.607 142.993 59.2349C147.513 49.759 152.184 39.9674 159.176 30.3127Z" fill="#292B2E"/>
<path d="M161.6 44.0983C161.633 44.0983 161.666 44.0911 161.697 44.0759C161.807 44.0225 161.852 43.8901 161.799 43.7803C159.952 39.9865 159.244 32.8582 159.96 29.6838C159.987 29.5647 159.912 29.4463 159.793 29.4194C159.674 29.3929 159.556 29.4673 159.529 29.5865C159.159 31.2245 159.144 33.8611 159.488 36.6394C159.847 39.5406 160.545 42.2139 161.401 43.9738C161.44 44.0525 161.518 44.0983 161.6 44.0983Z" fill="#292B2E"/>
<path d="M164.216 40.514C164.261 40.514 164.307 40.5003 164.346 40.4719C164.445 40.4002 164.467 40.262 164.395 40.1631C161.936 36.7707 160.431 33.9493 160.011 29.5673C159.999 29.4457 159.891 29.3561 159.77 29.3683C159.648 29.3799 159.559 29.4879 159.571 29.6095C160.044 34.5548 162.037 37.663 164.037 40.4227C164.081 40.4823 164.148 40.514 164.216 40.514Z" fill="#292B2E"/>
<path d="M159.66 29.7427C159.729 29.7427 159.795 29.7104 159.837 29.6548C159.883 29.594 159.894 29.5139 159.867 29.4428C159.173 27.6237 158.007 25.8698 156.583 24.5042C155.288 23.2629 153.903 22.478 152.878 22.4044C152.219 22.3569 151.724 22.5945 151.447 23.0911C151.159 23.6084 151.201 24.2471 151.569 24.9385C152.702 27.0708 156.776 29.4949 159.641 29.7421C159.648 29.7424 159.654 29.7427 159.66 29.7427ZM152.717 22.8406C152.759 22.8406 152.802 22.8422 152.846 22.8453C154.527 22.966 157.736 25.4502 159.318 29.2591C158.076 29.0784 156.59 28.5093 155.175 27.6668C153.658 26.7625 152.455 25.665 151.959 24.7308C151.661 24.1706 151.619 23.6912 151.834 23.306C152.006 22.9968 152.303 22.8406 152.717 22.8406Z" fill="#292B2E"/>
<path d="M164.1 30.7022C164.14 30.7022 164.179 30.702 164.218 30.7015C165.652 30.685 166.885 30.3555 167.515 29.8203C167.929 29.4679 168.082 29.042 167.958 28.5885C167.829 28.1197 167.44 27.7702 166.831 27.5778C164.992 26.9962 161.313 27.8922 159.542 29.354C159.484 29.4025 159.454 29.4777 159.464 29.5532C159.474 29.6286 159.522 29.6938 159.591 29.7255C160.967 30.3569 162.564 30.7022 164.1 30.7022ZM165.464 27.8395C165.931 27.8395 166.353 27.8902 166.698 27.9994C167.163 28.1464 167.443 28.384 167.531 28.7057C167.609 28.9893 167.51 29.2436 167.228 29.4832C166.226 30.3348 163.092 30.7064 160.116 29.4724C161.483 28.5081 163.77 27.8395 165.464 27.8395Z" fill="#292B2E"/>
<path d="M159.041 30.4392C159.107 30.4392 159.171 30.4106 159.215 30.3555C160.595 28.6153 164.194 24.8473 165.693 23.8341C165.794 23.7657 165.821 23.6283 165.753 23.5271C165.684 23.4259 165.547 23.3991 165.446 23.4677C164.338 24.2163 160.878 27.5464 158.868 30.0807C158.792 30.1763 158.808 30.3155 158.904 30.3913C158.945 30.4236 158.993 30.4392 159.041 30.4392Z" fill="#292B2E"/>
<path d="M4.64097 73.8722C4.74053 73.8722 4.83084 73.8045 4.85559 73.7037C5.76475 69.9899 5.63537 63.9752 4.57295 60.5694C4.5365 60.4529 4.4129 60.3877 4.29602 60.4242C4.17946 60.4606 4.11446 60.5845 4.15075 60.7011C5.1934 64.0432 5.31946 69.9495 4.42603 73.5984C4.39701 73.717 4.46968 73.8367 4.58821 73.8658C4.60593 73.8702 4.62365 73.8722 4.64097 73.8722Z" fill="#292B2E"/>
<path d="M1.53639 75.445C1.61341 75.445 1.68822 75.4047 1.72894 75.3329C3.4723 72.258 5.63834 65.7809 4.46023 60.5398C4.43343 60.4206 4.31536 60.3459 4.19603 60.3726C4.07694 60.3994 4.00205 60.5176 4.02886 60.6368C5.17952 65.7557 3.0539 72.0996 1.34438 75.1148C1.28412 75.2211 1.32146 75.356 1.42766 75.4162C1.46198 75.4357 1.49946 75.445 1.53639 75.445Z" fill="#292B2E"/>
<path d="M11.5009 64.3414C11.7829 64.3414 12.0412 64.313 12.2698 64.2551C12.911 64.0925 13.306 63.7115 13.4121 63.1532C13.5227 62.5716 13.2819 61.9784 12.7157 61.4377C10.9697 59.7701 6.33964 58.7504 3.54185 59.4174C3.46775 59.435 3.40805 59.4895 3.38369 59.5616C3.35925 59.6336 3.37364 59.7132 3.4218 59.7722C4.65281 61.2807 6.31165 62.5787 8.09289 63.4271C9.34043 64.0213 10.5538 64.3414 11.5009 64.3414ZM5.53469 59.6498C6.44022 59.6498 7.43345 59.7614 8.43363 59.9822C10.1587 60.3631 11.6454 61.0268 12.4103 61.7574C12.8691 62.1957 13.06 62.6375 12.9776 63.0705C12.905 63.4531 12.6302 63.7075 12.1611 63.8264C10.5279 64.24 6.70016 62.8917 4.00074 59.7736C4.46754 59.691 4.98502 59.6498 5.53469 59.6498Z" fill="#292B2E"/>
<path d="M2.30795 67.9242C2.31317 67.9242 2.31831 67.9242 2.32353 67.9241C2.8097 67.9182 3.24652 67.6299 3.58656 67.0902C4.61513 65.4577 4.67911 61.6721 3.71333 59.589C3.6813 59.5199 3.61599 59.4723 3.54054 59.4626C3.46502 59.4533 3.38998 59.4831 3.34166 59.5419C2.35801 60.7431 1.60668 62.2451 1.226 63.7715C0.879 65.1631 0.885879 66.4386 1.24418 67.1834C1.47746 67.6683 1.8451 67.9242 2.30795 67.9242ZM3.4534 60.1142C4.20203 62.1117 4.10651 65.4355 3.21237 66.8544C2.95252 67.2667 2.6517 67.4778 2.31815 67.4818C2.31491 67.4819 2.31158 67.4819 2.30834 67.4819C2.01915 67.4819 1.80137 67.3215 1.64266 66.9916C1.07251 65.8068 1.50609 62.6808 3.4534 60.1142Z" fill="#292B2E"/>
<path d="M4.39882 61.1356C4.43955 61.1356 4.48082 61.1244 4.51775 61.1007C4.62063 61.035 4.65068 60.8982 4.58488 60.7953C2.77699 57.9683 1.37755 55.6417 0.423472 53.4758C0.374286 53.3641 0.24396 53.3133 0.132064 53.3626C0.0202475 53.4119 -0.0303636 53.5423 0.0188231 53.654C0.984212 55.8458 2.39347 58.1893 4.21235 61.0335C4.2545 61.0996 4.32591 61.1356 4.39882 61.1356Z" fill="#292B2E"/>
<path d="M77.4227 68.558L66.756 47.8478L66.7421 47.8226L66.6969 47.8149L58.7749 47.1406L70.13 70.1258L77.4227 68.558Z" fill="white"/>
<path d="M69.8032 71.0135C69.824 71.0511 69.8449 71.0888 69.872 71.1229C70.0306 71.3056 70.2964 71.3714 70.519 71.2561C70.7826 71.1263 70.8968 70.8006 70.7667 70.5366L70.4286 69.8384L70.27 69.5082L59.6111 47.7195L66.3387 48.1296L76.5588 68.0789L76.7271 68.4119L76.867 68.6788L77.1369 69.2098C77.2732 69.4704 77.5953 69.5788 77.859 69.4489L77.8715 69.442C78.1219 69.3031 78.2235 68.9844 78.0906 68.7301L77.8033 68.1678L77.4221 68.1004L77.6384 67.841L67.1694 47.3985L67.159 47.3797C67.0818 47.2257 66.9427 47.1225 66.7715 47.0943L66.7262 47.0866C66.7068 47.081 66.681 47.0788 66.665 47.0795L58.7611 46.6001C58.4654 46.5837 58.2122 46.8061 58.1899 47.1055C58.1843 47.1988 58.201 47.2879 58.2399 47.3729L69.4163 70.2277L69.6104 70.3415L69.7397 70.8847L69.7432 70.891L69.8032 71.0135Z" fill="#292B2E"/>
<path d="M69.4128 70.2197C69.5053 69.988 69.6695 69.7821 69.8949 69.6571C69.9012 69.6536 69.9137 69.6467 69.92 69.6432C70.0139 69.5911 70.1148 69.5516 70.2164 69.5281L70.2671 69.5163L76.5524 68.0807L77.111 67.9513L77.6349 67.833L77.8032 68.166L77.2856 68.2808L76.727 68.4102L70.3053 69.8804C70.2323 69.8964 70.1662 69.9248 70.1036 69.9595L70.066 69.9803L70.0535 69.9873C70.041 69.9942 70.0222 70.0046 70.0069 70.0213L69.9944 70.0282C69.9666 70.0519 69.9388 70.0755 69.9144 70.1054C69.8991 70.1221 69.89 70.1353 69.8748 70.152C69.8595 70.1687 69.8504 70.1819 69.8386 70.2049C69.8324 70.2083 69.8358 70.2146 69.8296 70.2181C69.8205 70.2313 69.8115 70.2445 69.8024 70.2577C69.7725 70.3071 69.7558 70.3655 69.7356 70.4177L69.7273 70.4469C69.7245 70.4567 69.728 70.4629 69.7217 70.4664C69.7189 70.4761 69.7224 70.4824 69.7196 70.4921C69.7168 70.5018 69.7175 70.5178 69.7119 70.5374C69.7092 70.5471 69.7064 70.5568 69.7071 70.5729C69.7016 70.5924 69.7023 70.6084 69.7064 70.6307C69.7071 70.6467 69.7078 70.6628 69.7057 70.6885C69.7064 70.7045 69.7106 70.7268 69.7147 70.7491L69.7182 70.7553C69.7224 70.7776 69.7231 70.7937 69.7273 70.8159C69.728 70.8319 69.7461 70.8793 69.7495 70.8855L69.4128 70.2197Z" fill="white"/>
<path d="M69.7204 70.8039C69.8122 71.2204 70.2309 71.4884 70.647 71.3971L96.1435 65.6461C96.5595 65.5548 96.8169 65.1333 96.7252 64.7168C96.6333 64.3003 96.2118 64.0421 95.7958 64.1334L77.7999 68.1602L77.2823 68.275L76.7237 68.4044L70.302 69.8746C69.8833 69.9757 69.6286 70.3875 69.7204 70.8039Z" fill="#292B2E"/>
<path d="M71.2564 70.6911C71.1196 70.6056 71.0777 70.4256 71.1628 70.2891C71.2479 70.1526 71.4278 70.1112 71.5645 70.1967C71.7013 70.2822 71.7432 70.4622 71.6581 70.5987C71.573 70.7352 71.3931 70.7766 71.2564 70.6911Z" fill="#E6485C"/>
<path d="M74.668 69.9393C74.8057 69.8629 74.8559 69.6875 74.7793 69.5495C74.7168 69.4367 74.5859 69.378 74.4622 69.4057L72.6089 69.843C72.4565 69.8783 72.3606 70.03 72.3898 70.186C72.419 70.342 72.5769 70.4348 72.7327 70.4058L72.739 70.4023L74.5922 69.965C74.6242 69.9636 74.6429 69.9532 74.668 69.9393Z" fill="#E6485C"/>
<path d="M110.445 29.1197C116.405 28.0096 123.938 32.8909 130.486 38.2133C136.38 42.999 136.093 49.5638 131.875 50.7694C128.965 51.6001 126.532 48.1303 126.532 48.1303L117.934 39.463C117.934 39.4703 109.467 34.6037 110.445 29.1197Z" fill="white"/>
<path d="M130.968 51.1172C131.296 51.1173 131.619 51.0724 131.936 50.982C133.575 50.5136 134.722 49.232 135.083 47.4657C135.373 46.0499 135.151 44.4533 134.443 42.8483C133.675 41.1081 132.355 39.446 130.625 38.0417C126.724 34.8704 123.361 32.5857 120.345 31.0572C116.509 29.1132 113.164 28.3882 110.404 28.9024C110.314 28.9192 110.243 28.9903 110.227 29.0809C109.535 32.9654 113.415 36.519 115.79 38.2914C116.389 38.7383 116.907 39.084 117.237 39.2954C117.536 39.4869 117.701 39.593 117.804 39.646L126.362 48.2731C126.454 48.4001 127.05 49.208 127.976 49.9351C128.972 50.7177 129.99 51.1172 130.968 51.1172ZM112.202 29.1841C114.506 29.1841 117.169 29.9432 120.145 31.4516C123.133 32.9657 126.469 35.2337 130.346 38.3849C132.022 39.7453 133.299 41.3504 134.038 43.0268C134.71 44.5473 134.921 46.0516 134.65 47.3771C134.318 48.9998 133.311 50.1291 131.814 50.5568C129.087 51.3352 126.737 48.0367 126.713 48.0034C126.706 47.9931 126.698 47.9834 126.689 47.9745L118.09 39.3072C118.073 39.29 118.054 39.276 118.033 39.2655C117.952 39.2194 115.871 38.0159 113.908 36.1267C112.193 34.476 110.253 31.9659 110.638 29.3101C111.139 29.2261 111.661 29.1841 112.202 29.1841Z" fill="#292B2E"/>
<path d="M105.433 60.1844C103.434 53.5388 103.647 44.2467 106.072 36.616C104.962 34.8811 106.697 29.816 110.445 29.125C110.445 29.125 110.79 33.9181 116.861 38.4612C122.931 43.0043 120.381 58.1187 120.381 58.1187L105.433 60.1844Z" fill="white"/>
<path d="M105.432 60.4078C105.443 60.4078 105.453 60.4072 105.463 60.4058L120.411 58.34C120.507 58.3268 120.583 58.2531 120.599 58.1578C120.605 58.1198 121.239 54.3079 121.118 49.9898C121.047 47.4468 120.733 45.2258 120.183 43.3883C119.49 41.0683 118.416 39.3518 116.993 38.2865C111.072 33.8551 110.669 29.1584 110.665 29.1115C110.661 29.0488 110.63 28.9909 110.58 28.9525C110.53 28.914 110.467 28.8984 110.405 28.91C108.59 29.2445 106.98 30.6573 106.098 32.6892C105.433 34.2204 105.333 35.7556 105.831 36.6465C103.434 44.2575 103.194 53.511 105.221 60.2505C105.249 60.3448 105.336 60.4078 105.432 60.4078ZM120.188 57.9245L105.59 59.9417C103.637 53.2694 103.905 44.1669 106.283 36.6853C106.303 36.6227 106.294 36.5545 106.258 36.4992C105.783 35.7568 105.882 34.2965 106.503 32.8653C107.289 31.0561 108.68 29.7752 110.255 29.3938C110.324 29.8412 110.539 30.854 111.177 32.1873C111.959 33.821 113.556 36.2669 116.728 38.6406C119.792 40.9336 120.566 46.0809 120.676 49.9953C120.782 53.7738 120.305 57.1614 120.188 57.9245Z" fill="#292B2E"/>
<path d="M117.787 41.0436C118.159 41.0436 118.522 41.0319 118.874 41.0084C118.996 41.0003 119.088 40.8949 119.08 40.7731C119.072 40.6512 118.968 40.5586 118.845 40.5672C116.794 40.7045 114.237 40.4078 112.004 39.7738C108.677 38.8291 107.035 37.4616 106.244 36.4807C106.168 36.3857 106.028 36.3708 105.933 36.4475C105.838 36.5241 105.823 36.6634 105.9 36.7584C107.406 38.6257 109.985 39.6602 111.884 40.1992C113.814 40.7475 115.909 41.0436 117.787 41.0436Z" fill="#292B2E"/>
<path d="M75.7126 104.834C76.8664 104.892 78.0349 104.915 79.2182 104.915C81.0555 104.915 82.9296 104.848 84.833 104.701C112.944 102.592 125.275 91.0131 134.263 75.7518C135.028 66.2244 130.045 60.5933 128.267 58.263L117.831 54.6094C113.708 55.2563 110.79 58.7482 110.79 58.7482C97.5396 61.8063 91.6456 66.7978 70.0096 71.4439C76.9252 89.4252 75.889 103.069 75.7126 104.834Z" fill="white"/>
<path d="M79.2181 105.13C81.1183 105.13 83.0131 105.058 84.8499 104.916C98.0652 103.924 108.53 100.791 116.84 95.3377C120.537 92.9119 123.817 90.0397 126.867 86.5571C129.508 83.5417 131.99 80.0422 134.454 75.8585C134.471 75.8296 134.481 75.7973 134.484 75.764C135.204 66.7844 130.903 61.277 128.835 58.6303C128.692 58.4467 128.56 58.2778 128.442 58.1234C128.416 58.089 128.38 58.0631 128.34 58.0489L117.904 54.3953C117.869 54.3832 117.832 54.3798 117.796 54.3855C113.881 54.9999 111.083 58.0679 110.669 58.5437C105.033 59.8502 100.63 61.5412 95.9697 63.3313C89.585 65.7835 82.3484 68.5628 69.9632 71.2224C69.9 71.2359 69.8459 71.2765 69.8152 71.3333C69.7845 71.3901 69.7801 71.4576 69.8033 71.5179C76.7594 89.6049 75.6428 103.304 75.4925 104.806C75.4865 104.867 75.5053 104.927 75.5448 104.973C75.5843 105.018 75.6408 105.046 75.7012 105.049C76.7723 105.104 77.9226 105.13 79.2181 105.13ZM134.047 75.6779C131.606 79.818 129.148 83.2819 126.535 86.2657C123.511 89.7178 120.261 92.5644 116.598 94.968C108.351 100.379 97.9555 103.489 84.8164 104.475C82.9904 104.616 81.107 104.688 79.2182 104.688C78.0228 104.688 76.9522 104.665 75.9542 104.619C76.1582 102.269 76.9293 88.9571 70.3085 71.6002C82.5738 68.9499 89.7719 66.1852 96.1283 63.7438C100.996 61.8743 105.2 60.2597 110.84 58.958C110.887 58.9472 110.929 58.9213 110.96 58.8845C110.988 58.8503 113.849 55.4794 117.81 54.831L128.131 58.4443C128.239 58.5853 128.358 58.7381 128.487 58.9024C130.516 61.5001 134.734 66.8995 134.047 75.6779Z" fill="#292B2E"/>
<path d="M87.6329 97.3765C88.4487 98.5601 90.8077 101.853 91.888 103.412C92.1967 103.86 92.7479 104.096 93.2844 104.007C96.3049 103.522 99.2887 102.853 102.228 102.001C102.368 100.567 104.845 75.6678 112.311 61.7958L114.141 61.759C114.141 61.759 115.714 58.6053 117.375 56.6645C115.574 56.1794 110.922 56.9439 110.026 60.2005C110.026 60.2005 92.3364 74.0948 87.4565 96.4722C87.3831 96.7884 87.4492 97.1119 87.6329 97.3765Z" fill="#E6485C"/>
<path d="M114.759 32.3641C115.729 32.0039 116.816 32.1289 117.676 32.7022C119.021 29.5779 123.298 30.2836 123.614 32.7978C126.819 30.857 130.038 34.8856 128.531 37.4659C127.98 38.4142 127.091 40.2226 127.355 41.9576C125.841 42.4575 122.688 45.8906 122.688 45.8906C122.688 45.8906 118.47 38.5245 115.927 38.0172C111.937 37.2307 112.701 33.1875 114.759 32.3641Z" fill="#292B2E"/>
<path d="M119.168 34.1237C119.176 34.1384 119.176 34.1605 119.176 34.1751C119.176 34.256 119.11 34.3222 119.029 34.3222C118.97 34.3222 118.911 34.2854 118.889 34.2266C118.375 32.8225 117.096 32.3667 116.589 32.2344C116.971 32.3226 117.338 32.477 117.676 32.6975C117.713 32.6093 117.757 32.5211 117.801 32.4329C118.323 32.771 118.867 33.293 119.168 34.1237Z" fill="white"/>
<path d="M111.084 47.249C110.893 48.1311 111.246 49.1236 112.113 49.7705C114.369 51.4613 118 51.0496 118 51.0496C118 51.0496 118.139 54.4459 117.375 56.666C117.375 56.666 120.748 59.6948 128.267 58.2612C127.517 54.909 126.936 51.5274 126.532 48.1164C128.281 48.109 130.434 46.6241 130.317 44.2348C130.251 42.8748 128.95 41.7795 127.554 41.8163C126.113 41.853 125.04 42.8895 123.806 43.9187C122.409 45.0876 122.189 43.9334 121.88 42.4705C121.682 41.5368 121.454 40.4709 120.859 39.8167C119.506 38.3391 115.942 38.0156 115.942 38.0156C115.942 38.0156 115.861 38.4788 115.729 39.0448C115.545 39.802 115.258 40.7503 114.898 41.0959C114.274 41.6913 113.752 41.5002 113.678 41.9413C113.612 42.3162 113.972 42.8381 114.186 43.0734C113.642 45.6391 111.518 45.1906 111.084 47.249Z" fill="white"/>
<ellipse cx="0.478184" cy="0.691542" rx="0.478184" ry="0.691542" transform="matrix(-0.999755 -0.0221415 -0.0221415 0.999755 117.103 40.625)" fill="#292B2E"/>
<path d="M124.413 58.8668C125.556 58.8669 126.854 58.758 128.308 58.4808C128.367 58.4696 128.418 58.435 128.451 58.385C128.484 58.3349 128.495 58.2737 128.482 58.2154C127.75 54.9419 127.178 51.6173 126.78 48.3298C127.765 48.2549 128.789 47.7636 129.501 47.0121C130.01 46.4753 130.603 45.5562 130.538 44.2264C130.466 42.7606 129.094 41.5584 127.548 41.5976C126.172 41.6327 125.129 42.5141 124.025 43.4474C123.906 43.5481 123.786 43.6496 123.664 43.7512C123.263 44.0864 122.953 44.2292 122.765 44.1644C122.439 44.0514 122.271 43.2563 122.109 42.4873L122.096 42.4272C121.891 41.463 121.659 40.3705 121.022 39.6702C119.627 38.1464 116.111 37.8112 115.962 37.7978C115.847 37.7876 115.744 37.8666 115.724 37.9799C115.723 37.9844 115.642 38.444 115.513 38.9968C115.182 40.3628 114.89 40.7999 114.745 40.9385C114.476 41.1947 114.237 41.2842 114.026 41.3633C113.788 41.4523 113.519 41.5532 113.46 41.9071C113.377 42.3763 113.769 42.9188 113.945 43.1349C113.662 44.3253 112.999 44.7947 112.358 45.2492C111.735 45.6909 111.091 46.1476 110.868 47.2048C110.651 48.2064 111.088 49.2838 111.981 49.9498C113.187 50.854 114.768 51.1649 115.882 51.2664C116.732 51.3438 117.434 51.3162 117.785 51.292C117.799 52.089 117.794 54.7709 117.166 56.5962C117.137 56.6802 117.161 56.7733 117.227 56.8328C117.263 56.865 118.126 57.6281 119.933 58.2138C120.974 58.5511 122.468 58.8668 124.413 58.8668ZM128.001 58.088C121.557 59.2528 118.259 57.0683 117.633 56.5924C118.348 54.3628 118.226 51.1802 118.221 51.0428C118.218 50.9815 118.19 50.924 118.143 50.884C118.097 50.8441 118.036 50.825 117.975 50.8322C117.939 50.8363 114.403 51.213 112.246 49.5959C111.479 49.0241 111.117 48.1437 111.3 47.298C111.3 47.2976 111.3 47.2972 111.3 47.2968C111.488 46.4087 112.01 46.0386 112.614 45.6101C113.309 45.1175 114.097 44.5591 114.402 43.1215C114.417 43.052 114.397 42.9797 114.349 42.9271C114.134 42.6893 113.851 42.2389 113.896 41.982C113.912 41.8892 113.944 41.8666 114.181 41.7775C114.407 41.6929 114.716 41.5771 115.051 41.2582C115.375 40.9475 115.667 40.2414 115.944 39.0991C116.024 38.7542 116.086 38.4502 116.122 38.2605C116.881 38.3542 119.596 38.7664 120.696 39.9682C121.252 40.5795 121.471 41.6097 121.664 42.5187L121.676 42.5784C121.881 43.549 122.058 44.3873 122.621 44.5822C122.978 44.7058 123.399 44.5493 123.948 44.0905C124.07 43.9886 124.191 43.8863 124.311 43.7848C125.399 42.865 126.339 42.0706 127.559 42.0394C127.58 42.0389 127.601 42.0386 127.622 42.0386C128.89 42.0386 130.038 43.0567 130.096 44.2477C130.154 45.4216 129.63 46.2334 129.181 46.7076C128.489 47.4375 127.473 47.8934 126.531 47.8973C126.468 47.8976 126.408 47.9247 126.367 47.9719C126.325 48.0191 126.305 48.0819 126.313 48.1445C126.704 51.4495 127.272 54.7936 128.001 58.088Z" fill="#292B2E"/>
<path d="M124.34 47.7207C125.012 47.9968 125.85 48.1426 126.636 48.1134C128.365 48.0493 130.432 46.5761 130.317 44.2341" fill="white"/>
<path d="M126.437 48.3408C126.506 48.3408 126.576 48.3395 126.644 48.337C127.693 48.2981 128.805 47.7714 129.547 46.9626C130.246 46.2008 130.588 45.2545 130.538 44.2259C130.532 44.1039 130.425 44.0097 130.306 44.0159C130.184 44.0219 130.09 44.1256 130.096 44.2476C130.152 45.3946 129.651 46.1946 129.221 46.6637C128.556 47.3886 127.563 47.8603 126.628 47.8951C125.878 47.9229 125.074 47.7858 124.424 47.5188C124.311 47.4725 124.182 47.5265 124.135 47.6394C124.089 47.7524 124.143 47.8816 124.256 47.9279C124.903 48.1933 125.687 48.3408 126.437 48.3408Z" fill="#292B2E"/>
<path d="M118.97 53.2033C118.514 53.3503 118.183 53.3797 117.956 53.3282C118.044 52.0565 118 51.0493 118 51.0493C119.146 50.895 120.212 50.3877 121.05 49.5938C121.447 49.8952 121.432 52.402 118.97 53.2033Z" fill="#292B2E"/>
<path d="M118.186 53.5748C118.425 53.5748 118.71 53.5217 119.038 53.416C119.038 53.4159 119.038 53.4158 119.038 53.4157C120.888 52.8139 121.321 51.368 121.421 50.7743C121.509 50.2566 121.469 49.6369 121.183 49.42C121.097 49.3545 120.976 49.3612 120.898 49.4356C120.091 50.2002 119.079 50.6832 117.97 50.8324C117.857 50.8477 117.774 50.9469 117.779 51.0612C117.779 51.0712 117.821 52.0719 117.735 53.3152C117.728 53.424 117.801 53.5221 117.907 53.5461C117.991 53.5653 118.085 53.5748 118.186 53.5748ZM118.902 52.9953C118.577 53.1002 118.348 53.1325 118.19 53.1329C118.24 52.2849 118.234 51.5721 118.227 51.2409C119.255 51.0668 120.2 50.6244 120.987 49.9503C121.027 50.1334 121.045 50.442 120.959 50.8323C120.827 51.433 120.384 52.5127 118.901 52.9954L118.902 52.9953Z" fill="#292B2E"/>
<path d="M120.418 40.6233C120.644 38.942 118.758 37.6741 117.588 38.4546C117.364 38.61 117.329 38.9498 117.573 39.1457L117.632 39.1898C118.014 39.4819 118.25 39.5488 119.425 40.5718C119.585 40.7106 119.795 40.874 119.991 40.9174C120.205 40.9646 120.385 40.8616 120.418 40.6233Z" fill="#292B2E"/>
<path d="M116.956 45.3666C117.132 45.102 117.213 44.7859 117.177 44.4698C117.146 44.289 116.893 44.273 116.853 44.4698C116.85 44.4767 116.758 45.1889 116.045 45.4842C115.285 45.7726 114.751 45.3468 114.744 45.3445C114.671 45.2931 114.568 45.3078 114.516 45.3813C114.182 45.7155 116.027 46.7604 116.956 45.3666Z" fill="#292B2E"/>
<path d="M44.8313 79.4375C49.9611 83.9291 64.0347 108.1 60.0221 111.82C56.274 115.29 47.3227 88.0239 44.8313 79.4375Z" fill="#292B2E"/>
<path d="M30.1257 148.251C32.8008 149.868 37.8717 149.523 43.141 147.597C43.751 147.376 44.361 147.133 44.971 146.869C45.6986 146.553 46.404 146.288 47.0728 146.075C51.6955 144.568 55.7816 144.002 57.2147 142.568C60.8158 138.966 56.6047 135.085 53.643 126.403C51.7028 120.713 50.1081 110.171 47.4035 103.996C47.4696 104.018 50.8944 105.194 55.811 105.679C55.958 105.694 56.105 105.709 56.2519 105.723C57.369 105.826 58.5596 105.885 59.8016 105.892H59.853L59.8604 101.077L59.9559 55.499C55.3113 49.3974 40.8628 36.0032 32.9771 49.3974C24.5182 63.7619 34.7042 83.6693 34.7042 83.6693C34.7042 83.6693 19.1093 88.0434 28.3325 107.326C37.4749 126.447 42.0386 131.049 40.6791 137.018C40.5983 137.364 40.4807 137.694 40.3263 138.01C39.8192 139.069 38.9006 140.216 37.7321 141.267C35.6522 143.12 32.7861 144.663 30.0008 144.862C28.3913 144.965 27.0758 146.406 30.1257 148.251Z" fill="white"/>
<path d="M34.7422 149.492C37.2028 149.492 40.1437 148.922 43.2169 147.798C43.8273 147.578 44.4473 147.331 45.059 147.066C45.763 146.76 46.4632 146.495 47.1399 146.28C48.6865 145.775 50.1926 145.371 51.5214 145.015C54.2342 144.288 56.3768 143.713 57.3711 142.719C59.9567 140.132 58.6645 137.363 56.7084 133.172C55.8015 131.229 54.7736 129.026 53.8524 126.325C53.0604 124.003 52.3248 120.862 51.546 117.537C50.4435 112.83 49.3048 107.969 47.7966 104.347C48.9257 104.693 51.8894 105.509 55.7893 105.893L56.2301 105.937C57.3773 106.043 58.578 106.1 59.8004 106.108H59.8531C59.9751 106.108 60.074 106.009 60.0742 105.887L60.0816 101.072L60.1771 55.4936C60.1772 55.445 60.1613 55.3978 60.1319 55.3592C59.3527 54.3357 56.4789 50.7522 52.2127 47.6187C48.2289 44.6924 44.4158 43.2461 41.1825 43.4389C37.7739 43.6411 34.9491 45.6062 32.7866 49.2794C30.8392 52.5863 29.7192 56.4602 29.4577 60.7932C29.2489 64.2521 29.5836 68.0096 30.4526 71.9617C31.7506 77.8653 33.8761 82.4636 34.3921 83.5302C33.9051 83.6941 32.7708 84.1243 31.4461 84.9548C29.846 85.9579 27.6645 87.7583 26.3589 90.6386C24.3407 95.0906 24.9376 100.735 28.1329 107.416C31.0551 113.527 33.4933 118.125 35.4525 121.82C37.5141 125.708 39.0035 128.517 39.8546 130.843C40.7197 133.208 40.9018 135.039 40.4635 136.963C40.3869 137.29 40.2738 137.608 40.1276 137.908C39.6381 138.929 38.7351 140.061 37.5841 141.097C35.2942 143.137 32.4531 144.46 29.9849 144.636C29.0207 144.697 28.2629 145.184 28.1008 145.846C27.9614 146.415 28.1797 147.326 30.0111 148.434C30.0111 148.434 30.0111 148.434 30.0112 148.434C31.1818 149.142 32.8146 149.492 34.7422 149.492ZM47.4073 103.77C47.346 103.77 47.2856 103.795 47.2431 103.841C47.184 103.906 47.1658 103.998 47.2009 104.078C48.7886 107.703 49.9714 112.754 51.1153 117.638C51.8967 120.974 52.6347 124.125 53.4336 126.468C54.3626 129.191 55.396 131.405 56.3076 133.359C58.2515 137.524 59.4249 140.039 57.0582 142.406C56.1478 143.317 54.0556 143.878 51.4068 144.588C50.0727 144.946 48.5606 145.351 47.0042 145.859C46.3146 146.078 45.6004 146.348 44.8828 146.66C44.2796 146.922 43.6683 147.165 43.0658 147.383C37.7071 149.341 32.7927 149.599 30.2399 148.056L30.2399 148.056C29.0084 147.311 28.3851 146.543 28.5302 145.951C28.6443 145.485 29.2548 145.125 30.0147 145.077C32.5785 144.894 35.5178 143.529 37.8789 141.426C39.0729 140.352 40.0125 139.171 40.5256 138.1C40.6856 137.772 40.8099 137.423 40.8942 137.062C41.838 132.918 39.9594 129.375 35.843 121.613C33.8858 117.921 31.4499 113.328 28.5317 107.225C25.3954 100.667 24.7998 95.1486 26.7615 90.821C29.1747 85.4976 34.7082 83.8919 34.7638 83.8762C34.8276 83.8583 34.88 83.8127 34.9066 83.7519C34.9333 83.6911 34.9311 83.6216 34.9009 83.5626C34.8755 83.5131 32.3471 78.5253 30.8822 71.8561C30.0231 67.9455 29.6925 64.2303 29.8994 60.8138C30.1573 56.5535 31.2569 52.7482 33.1675 49.5036C35.2508 45.9652 37.9561 44.0732 41.2086 43.8801C44.3362 43.6949 48.0511 45.1105 51.9508 47.9748C56.0904 51.0155 58.9031 54.483 59.7346 55.5675L59.6392 101.071L59.6321 105.664C58.4821 105.653 57.3522 105.597 56.2721 105.497L55.8328 105.453C51.1502 104.991 47.8414 103.904 47.4795 103.782C47.456 103.774 47.4316 103.77 47.4073 103.77Z" fill="#292B2E"/>
<path d="M46.7409 75.4965C46.773 75.4965 46.8056 75.4895 46.8365 75.4746C46.9465 75.4218 46.9929 75.2897 46.9401 75.1796C44.9589 71.0538 43.1356 64.311 42.5061 58.7823C42.4923 58.661 42.3842 58.5728 42.2614 58.5876C42.1401 58.6014 42.0529 58.7109 42.0668 58.8322C42.7012 64.4046 44.5412 71.2056 46.5414 75.371C46.5795 75.4502 46.6586 75.4965 46.7409 75.4965Z" fill="#292B2E"/>
<path d="M53.6431 126.623C53.6667 126.623 53.6908 126.619 53.7144 126.611C53.83 126.572 53.8918 126.446 53.8524 126.331C53.0604 124.008 52.3247 120.867 51.5458 117.542C50.3964 112.634 49.2079 107.559 47.602 103.897L47.5931 103.876C46.9474 102.403 45.1436 98.5342 42.348 94.4326C42.2793 94.3316 42.1417 94.3056 42.0408 94.3744C41.9399 94.4431 41.9139 94.5807 41.9827 94.6816C44.7574 98.7526 46.5473 102.592 47.1882 104.054L47.1972 104.075C48.7867 107.7 49.9705 112.754 51.1153 117.642C51.8968 120.979 52.6349 124.13 53.4338 126.473C53.4651 126.565 53.5511 126.623 53.6431 126.623Z" fill="#292B2E"/>
<path d="M42.2592 77.0627C43.1265 77.4964 45.0078 76.776 46.7643 75.4675C45.9926 73.6664 45.2871 71.8139 44.6183 69.7188C41.8697 73.2988 41.0172 76.4378 42.2592 77.0627Z" fill="#292B2E"/>
<path d="M42.882 77.4128C44.0107 77.4128 45.6124 76.6038 46.8962 75.6474C46.9782 75.5863 47.0076 75.477 46.9674 75.383C46.1383 73.4477 45.4587 71.6273 44.8288 69.6541C44.8038 69.5758 44.7373 69.5177 44.6562 69.5035C44.5752 69.4894 44.4929 69.5214 44.4428 69.5867C42.3522 72.3097 41.2107 74.9844 41.5347 76.4006C41.6274 76.8056 41.8435 77.1038 42.1597 77.2629C42.1598 77.263 42.1601 77.263 42.1601 77.2631C42.3661 77.366 42.6104 77.4128 42.882 77.4128ZM46.4919 75.3956C44.8083 76.6147 43.0875 77.2316 42.3583 76.8676C42.1611 76.7683 42.0291 76.5779 41.9659 76.3019C41.7327 75.2827 42.4458 73.0196 44.5385 70.1942C45.1184 71.9723 45.7448 73.6398 46.4919 75.3956Z" fill="#292B2E"/>
<path d="M41.84 77.0204C45.1496 78.0696 51.0611 71.0924 53.0346 68.4104C56.5724 63.6027 59.4188 58.1816 59.8028 55.5203C59.8144 55.4391 59.8732 55.3727 59.9524 55.351C60.0314 55.3294 60.1159 55.3568 60.1672 55.4207C64.4624 60.7691 68.929 68.1518 70.2513 71.4326L70.2761 71.4942C70.9669 73.2079 72.8019 77.7598 74.2569 83.7891C76.0903 91.386 76.6485 98.4767 75.9163 104.864C75.9064 104.95 75.8439 105.021 75.7598 105.041C75.6573 105.066 65.9342 107.905 60.3538 111.973C60.0744 112.177 59.7415 112.22 59.4324 112.187C59.0091 112.142 58.6306 111.956 58.4954 111.849C59.0341 112.128 59.7732 112.043 60.0379 111.49C60.893 109.707 59.844 105.24 57.3563 99.5497C54.0236 91.9267 45.9843 82.2288 42.1118 81.2174C43.2126 80.956 44.3785 80.6968 45.4651 80.4634C43.3387 78.1243 42.3245 77.6185 41.84 77.0204Z" fill="#BFEBFF"/>
<path d="M52.4966 82.6682C52.0664 82.6682 51.7176 82.3192 51.7176 81.8888C51.7176 81.4583 52.0664 81.1094 52.4966 81.1094C52.9268 81.1094 53.2755 81.4583 53.2755 81.8888C53.2755 82.3192 52.9268 82.6682 52.4966 82.6682Z" fill="white"/>
<path d="M54.1575 73.301C53.7273 73.301 53.3785 72.9521 53.3785 72.5216C53.3785 72.0911 53.7273 71.7422 54.1575 71.7422C54.5877 71.7422 54.9364 72.0911 54.9364 72.5216C54.9364 72.9521 54.5877 73.301 54.1575 73.301Z" fill="white"/>
<path d="M64.9314 72.3635C64.5012 72.3635 64.1524 72.0146 64.1524 71.5841C64.1524 71.1536 64.5012 70.8047 64.9314 70.8047C65.3616 70.8047 65.7103 71.1536 65.7103 71.5841C65.7103 72.0146 65.3616 72.3635 64.9314 72.3635Z" fill="white"/>
<path d="M60.5586 62.7229C60.1284 62.7229 59.7796 62.3739 59.7796 61.9435C59.7796 61.513 60.1284 61.1641 60.5586 61.1641C60.9888 61.1641 61.3375 61.513 61.3375 61.9435C61.3375 62.3739 60.9888 62.7229 60.5586 62.7229Z" fill="white"/>
<path d="M63.8657 84.4651C63.4355 84.4651 63.0868 84.1161 63.0868 83.6857C63.0868 83.2552 63.4355 82.9062 63.8657 82.9062C64.2959 82.9062 64.6447 83.2552 64.6447 83.6857C64.6447 84.1161 64.2959 84.4651 63.8657 84.4651Z" fill="white"/>
<path d="M59.5664 94.7525C59.1646 94.7525 58.8389 94.4266 58.8389 94.0247C58.8389 93.6227 59.1646 93.2969 59.5664 93.2969C59.9683 93.2969 60.294 93.6227 60.294 94.0247C60.294 94.4266 59.9683 94.7525 59.5664 94.7525Z" fill="white"/>
<path d="M71.1488 92.0979C70.7186 92.0979 70.3698 91.7489 70.3698 91.3185C70.3698 90.888 70.7186 90.5391 71.1488 90.5391C71.579 90.5391 71.9277 90.888 71.9277 91.3185C71.9277 91.7489 71.579 92.0979 71.1488 92.0979Z" fill="white"/>
<path d="M66.8495 102.918C66.4193 102.918 66.0705 102.569 66.0705 102.139C66.0705 101.708 66.4193 101.359 66.8495 101.359C67.2797 101.359 67.6284 101.708 67.6284 102.139C67.6284 102.569 67.2797 102.918 66.8495 102.918Z" fill="white"/>
<path d="M30.2212 150.67L45.0004 152.022L49.3511 152.419L62.0579 153.581C62.0873 153.581 62.1093 153.581 62.1387 153.581C62.6164 153.581 63.0059 153.191 62.9986 152.706C62.9986 152.257 62.6605 151.89 62.2122 151.846L48.9396 150.633L44.4125 150.221L30.3756 148.935C29.8979 148.883 29.4717 149.229 29.4202 149.707C29.3688 150.185 29.7142 150.611 30.1919 150.662C30.2064 150.67 30.2138 150.67 30.2212 150.67Z" fill="#BFEBFF"/>
<path d="M37.7174 141.249C39.9515 143.094 41.8109 145.277 43.141 147.586C43.6334 148.431 44.0596 149.313 44.4124 150.225C44.6402 150.813 44.8387 151.408 45.0003 152.019L49.3511 152.416C49.2482 151.82 49.1085 151.225 48.9468 150.637C48.4985 149.041 47.8739 147.505 47.0728 146.057C46.7273 145.424 46.3525 144.8 45.941 144.182C44.3829 141.852 42.4868 139.771 40.3115 137.992C39.8045 139.058 38.8859 140.205 37.7174 141.249Z" fill="#BFEBFF"/>
<path d="M105.587 78.4531C109.335 85.8045 109.886 105.58 104.617 106.204C98.62 106.91 105.587 78.4531 105.587 78.4531Z" fill="#292B2E"/>
<path d="M78.4684 61.5244C75.9036 62.1492 74.9335 63.0534 78.8874 63.1196C82.8412 63.1857 83.1866 63.5386 83.1866 63.5386C83.1866 63.5386 81.3199 63.7003 79.9971 64.0238C78.4464 64.3987 77.5645 64.9721 80.0632 65.3397C84.7078 66.0307 87.2801 66.3836 88.6617 69.8461C88.8087 70.2136 88.9777 70.8385 89.1835 71.6619C89.4922 72.9263 89.889 74.6612 90.3888 76.6902C92.2407 84.2033 95.6214 95.6567 102.199 101.464C102.662 101.869 103.14 102.251 103.639 102.611C104.551 103.258 105.535 103.795 106.572 104.214C106.608 104.228 106.653 104.243 106.697 104.265C106.821 104.074 106.939 103.883 107.057 103.692C107.115 103.596 107.167 103.501 107.218 103.405C107.248 103.354 107.27 103.309 107.299 103.258C107.314 103.236 107.329 103.207 107.336 103.185C110.687 96.9506 109.438 88.4745 107.314 82.4758C106.836 81.0937 106.256 79.7557 105.587 78.4546C105.528 78.3443 105.469 78.2194 105.396 78.087C104.727 76.7638 103.61 74.3672 102.133 71.7061C102.111 71.662 102.089 71.6179 102.059 71.5812C101.016 69.7139 99.7958 67.7291 98.4362 65.9059C98.4215 65.8839 98.3994 65.8544 98.3847 65.8324C96.327 63.0977 93.9532 60.7379 91.3663 59.7235C91.3222 59.7088 91.2781 59.6867 91.234 59.672C89.7421 58.4958 88.581 56.9373 87.6917 55.9081C86.3027 54.3055 85.7515 54.5187 86.0234 56.2536C86.1851 57.2461 86.3394 57.9665 86.4643 58.459C80.0705 57.5695 75.0437 59.6132 77.7703 60.0028C75.6904 60.554 74.5807 61.5244 78.4684 61.5244Z" fill="white"/>
<path d="M106.697 104.489C106.769 104.489 106.84 104.454 106.882 104.389C107.008 104.197 107.127 104.002 107.243 103.814C107.307 103.711 107.36 103.612 107.412 103.516C107.426 103.49 107.44 103.465 107.454 103.439C107.465 103.419 107.476 103.398 107.488 103.376C107.507 103.346 107.525 103.311 107.538 103.279C109.085 100.394 109.778 96.8473 109.599 92.7355C109.416 88.5273 108.368 84.7951 107.522 82.4052C107.057 81.0579 106.471 79.6953 105.784 78.3568C105.759 78.3107 105.736 78.2654 105.712 78.2181C105.675 78.1443 105.636 78.0681 105.591 77.9868C105.423 77.6536 105.227 77.2552 105.001 76.7942C104.34 75.4446 103.433 73.5966 102.328 71.6062C102.306 71.5611 102.28 71.511 102.244 71.4625C101.034 69.2986 99.8139 67.3874 98.6164 65.7812C98.6087 65.7699 98.5997 65.7572 98.5907 65.7445C98.5829 65.7336 98.575 65.7227 98.5688 65.7132C98.5663 65.7096 98.5639 65.7061 98.5613 65.7026C96.1587 62.5098 93.7651 60.4299 91.4469 59.5208C91.4434 59.5195 91.4399 59.5181 91.4363 59.517C91.4193 59.5114 91.4023 59.5041 91.3854 59.497C91.3713 59.4911 91.3573 59.4854 91.3432 59.4799C90.1885 58.5631 89.2224 57.3999 88.4448 56.4637C88.2382 56.2149 88.043 55.9799 87.8589 55.7668C87.0307 54.8113 86.4873 54.4664 86.0955 54.6482C85.7468 54.8102 85.6545 55.3322 85.8048 56.2911C85.9216 57.0074 86.0475 57.6597 86.1733 58.2008C83.2743 57.8382 80.9627 58.0981 79.8212 58.2909C79.1375 58.4064 76.8988 58.8405 76.7946 59.579C76.7702 59.752 76.8446 59.8939 77.0166 60.0036C76.3169 60.2471 75.6024 60.6084 75.661 61.0572C75.6934 61.3062 75.9143 61.5836 77.1258 61.6966C76.3488 61.9887 75.9745 62.2968 76.0101 62.6167C76.0477 62.9532 76.4185 63.3028 78.8835 63.3441C80.2197 63.3664 81.1353 63.4218 81.7596 63.4834C81.1823 63.563 80.5168 63.6724 79.9444 63.8124C78.4261 64.1795 78.2649 64.5369 78.2757 64.774C78.2929 65.1527 78.8014 65.3809 80.0309 65.5617L80.1558 65.5803C84.6556 66.2495 87.1342 66.6182 88.4563 69.9314C88.6107 70.3174 88.7938 71.0185 88.9689 71.7188C89.0949 72.2352 89.2332 72.8195 89.3933 73.4962C89.6209 74.458 89.8788 75.5482 90.174 76.7464C90.9897 80.0556 92.3067 85.0097 94.3177 89.8055C96.5261 95.0721 99.1284 99.0515 102.052 101.633C102.537 102.057 103.014 102.436 103.51 102.794C104.431 103.447 105.432 103.995 106.489 104.422L106.525 104.436C106.551 104.446 106.576 104.455 106.598 104.466C106.63 104.482 106.663 104.489 106.697 104.489ZM98.2046 65.9639C98.2125 65.9756 98.2218 65.9885 98.231 66.0015C98.2387 66.0121 98.2462 66.0228 98.2524 66.0319C98.2545 66.0351 98.2567 66.0382 98.259 66.0413C99.4486 67.6364 100.662 69.5377 101.866 71.6923C101.872 71.703 101.879 71.7132 101.887 71.7228C101.902 71.7411 101.918 71.7737 101.935 71.8082C101.936 71.811 101.938 71.814 101.94 71.8168C103.04 73.7991 103.944 75.6428 104.604 76.989C104.832 77.4531 105.029 77.8539 105.199 78.1902C105.2 78.1928 105.201 78.1954 105.203 78.1979C105.244 78.2732 105.282 78.3468 105.318 78.418C105.343 78.4682 105.367 78.5164 105.392 78.5622C106.069 79.8792 106.646 81.2224 107.105 82.5515C107.942 84.9146 108.976 88.6015 109.157 92.755C109.333 96.7927 108.655 100.268 107.141 103.083C107.135 103.094 107.13 103.106 107.126 103.118C107.125 103.122 107.12 103.132 107.115 103.139C107.113 103.143 107.11 103.147 107.107 103.152C107.092 103.179 107.078 103.204 107.065 103.229C107.053 103.252 107.04 103.274 107.027 103.299C107.026 103.3 107.023 103.305 107.022 103.306C106.972 103.401 106.923 103.49 106.869 103.579C106.784 103.717 106.698 103.856 106.611 103.994C105.603 103.583 104.646 103.058 103.768 102.434C103.284 102.086 102.818 101.715 102.345 101.301C99.4718 98.7648 96.9082 94.8394 94.7259 89.6348C92.7268 84.8673 91.4159 79.9357 90.6037 76.6408C90.3091 75.4446 90.0513 74.3554 89.8239 73.3945C89.6637 72.7171 89.5252 72.132 89.3985 71.6128C89.2194 70.8964 89.0313 70.1779 88.8672 69.7674C88.1964 68.0861 87.2235 67.0386 85.7133 66.3713C84.3096 65.7511 82.5054 65.4827 80.2211 65.143L80.0959 65.1244C79.0685 64.9733 78.7977 64.8092 78.7317 64.7519C78.8102 64.6657 79.142 64.4615 80.0492 64.2422C81.3405 63.9264 83.1873 63.764 83.2058 63.7624C83.291 63.755 83.3644 63.6991 83.3941 63.6189C83.4237 63.5387 83.4046 63.4486 83.3447 63.3874C83.2217 63.2619 82.5416 62.963 78.8911 62.9019C76.9191 62.869 76.5271 62.6284 76.4582 62.5656C76.5332 62.4491 77.0156 62.1093 78.5209 61.7426C78.6296 61.7161 78.7014 61.6126 78.6881 61.5014C78.6748 61.3903 78.5805 61.3067 78.4686 61.3067C76.488 61.3067 76.1522 61.0516 76.1037 60.9984C76.1578 60.8757 76.6377 60.535 77.8269 60.2197C77.9286 60.1928 77.9971 60.098 77.9911 59.9931C77.9849 59.8881 77.9057 59.802 77.8016 59.7871C77.4169 59.7321 77.2834 59.6552 77.2426 59.6233C77.3464 59.4649 78.0988 59.0208 79.9757 58.7135C81.1236 58.5255 83.4888 58.2714 86.4339 58.6812C86.5071 58.6913 86.5801 58.6645 86.6292 58.6097C86.6782 58.5548 86.6968 58.4792 86.6787 58.4079C86.5757 58.0019 86.4162 57.2929 86.2416 56.2212C86.0777 55.1755 86.2798 55.0502 86.282 55.0492C86.2844 55.0481 86.5575 54.9404 87.5246 56.056C87.7057 56.2656 87.8996 56.4991 88.1048 56.7462C88.9017 57.7057 89.8934 58.8998 91.0971 59.8488C91.1171 59.8647 91.1399 59.8769 91.1641 59.885C91.1812 59.8907 91.1982 59.898 91.2153 59.9051C91.2403 59.9155 91.2651 59.9257 91.2901 59.9342C93.5287 60.8136 95.8549 62.8421 98.2046 65.9639Z" fill="#292B2E"/>
<path d="M105.587 78.4539C106.631 75.1238 121.469 51.1878 129.031 62.1486C136.6 73.1242 128.546 95.4502 116.133 103.015C116.133 103.015 111.973 107.109 104.617 106.205C108.012 104.742 112.106 92.3259 105.587 78.4539Z" fill="white"/>
<path d="M106.695 106.558C109.533 106.558 111.759 105.834 113.227 105.152C115.078 104.292 116.114 103.341 116.269 103.193C119.801 101.035 123.116 97.6124 125.856 93.2931C128.502 89.1202 130.433 84.4206 131.438 79.7021C132.954 72.5824 132.164 66.3047 129.213 62.0256C127.651 59.7626 125.671 58.7948 123.327 59.1496C119.169 59.7785 114.734 64.4335 111.746 68.2277C108.468 72.3899 105.827 76.952 105.376 78.3903C105.359 78.4431 105.363 78.5003 105.387 78.5505C109.833 88.0115 109.343 96.8528 107.403 101.972C106.61 104.064 105.536 105.571 104.529 106.005C104.438 106.044 104.384 106.14 104.398 106.239C104.412 106.338 104.491 106.415 104.59 106.427C105.324 106.517 106.027 106.558 106.695 106.558ZM124.238 59.5216C126.037 59.5216 127.585 60.4454 128.849 62.2768C131.73 66.4547 132.496 72.6104 131.005 79.61C130.011 84.2777 128.101 88.9273 125.482 93.0562C122.773 97.3271 119.5 100.706 116.018 102.828C116.004 102.837 115.99 102.848 115.978 102.86C115.968 102.87 114.931 103.876 113.022 104.76C111.368 105.525 108.721 106.344 105.3 106.056C106.225 105.354 107.118 103.97 107.816 102.129C109.783 96.9395 110.289 87.998 105.825 78.4423C106.279 77.1301 108.678 72.8389 112.094 68.5014C117.418 61.7408 121.177 59.9221 123.393 59.5868C123.68 59.5433 123.962 59.5216 124.238 59.5216Z" fill="#292B2E"/>
<path d="M89.1836 71.6603C89.4923 72.9248 89.8891 74.6597 90.3889 76.6887C92.3879 75.2772 94.9674 73.9025 97.5764 72.8881C97.8483 72.7778 98.1202 72.6749 98.3995 72.5793C98.9655 72.3734 99.5314 72.1897 100.09 72.028L99.7297 70.8003L99.3769 69.602L99.1344 68.7787L98.7228 67.3672C98.6126 67.3966 98.5024 67.4333 98.3921 67.4628C98.1937 67.5216 97.9952 67.5877 97.7969 67.6465C97.3412 67.7936 96.8856 67.9553 96.4226 68.1243C96.18 68.2126 95.9376 68.3081 95.6877 68.4037C93.4315 69.3005 91.2561 70.3886 89.1836 71.6603Z" fill="#292B2E"/>
<path d="M96.2507 71.1401C95.2279 69.0591 95.5767 66.7928 97.0297 66.0783C98.4827 65.3637 100.49 66.4714 101.513 68.5524C102.535 70.6333 102.187 72.8996 100.734 73.6142C99.2806 74.3287 97.2735 73.221 96.2507 71.1401Z" fill="#292B2E"/>
<path d="M95.9449 71.3031C95.4892 70.3843 95.2909 69.4285 95.3056 68.5611C95.4305 68.5096 95.5481 68.4582 95.673 68.4141C95.6216 69.2595 95.82 70.2151 96.2683 71.1414C96.6063 71.8324 97.0546 72.4279 97.5691 72.891C97.4442 72.9425 97.3192 72.9939 97.187 73.0381C96.7019 72.5676 96.2683 71.9721 95.9449 71.3031Z" fill="white"/>
<path d="M97.0371 70.7592C96.0427 68.7365 96.2462 66.6002 97.4917 65.9876C98.7371 65.3749 100.553 66.518 101.547 68.5407C102.542 70.5634 102.338 72.6998 101.093 73.3124C99.8472 73.925 98.0314 72.7819 97.0371 70.7592Z" fill="white"/>
<path d="M100.359 73.6994C100.654 73.6994 100.934 73.6366 101.191 73.5098C102.544 72.8439 102.793 70.5709 101.747 68.4428C101.248 67.4287 100.532 66.593 99.732 66.0897C98.8984 65.5655 98.0682 65.4595 97.3945 65.7911C96.0415 66.4569 95.7925 68.73 96.8392 70.858C97.3381 71.8722 98.0535 72.7079 98.8538 73.2112C99.3688 73.5351 99.8826 73.6994 100.359 73.6994ZM101.35 68.638C102.289 70.5473 102.13 72.5547 100.996 73.1131C100.465 73.3744 99.7881 73.2764 99.0894 72.8368C98.3574 72.3765 97.6993 71.6044 97.2362 70.6628C96.297 68.7536 96.4556 66.7461 97.5899 66.1878C98.1207 65.9265 98.798 66.0247 99.4967 66.464C100.229 66.9244 100.887 67.6965 101.35 68.638Z" fill="#292B2E"/>
<path d="M98.2011 70.4118C98.2305 70.4118 98.2599 70.4045 98.282 70.3898L99.6857 69.7061C99.7739 69.662 99.8179 69.5517 99.7666 69.4635L98.6495 67.2949C98.6054 67.2066 98.4952 67.1699 98.3996 67.214C98.3114 67.2581 98.2747 67.3684 98.3188 67.4639L99.3477 69.4635L98.1131 70.0663C98.0248 70.1104 97.9808 70.2207 98.0248 70.3089C98.0615 70.3678 98.1277 70.4118 98.2011 70.4118Z" fill="#292B2E"/>
<path d="M130.694 49.5961C130.764 49.5961 130.833 49.5633 130.876 49.5018C130.946 49.4018 130.922 49.264 130.822 49.1939C130.001 48.619 129.275 48.0085 128.663 47.3794C128.578 47.2919 128.438 47.29 128.35 47.3751C128.263 47.4602 128.261 47.6002 128.346 47.6877C128.977 48.3367 129.725 48.9652 130.568 49.556C130.606 49.5831 130.651 49.5961 130.694 49.5961Z" fill="#292B2E"/>
<path d="M132.96 45.4059C133.034 45.4059 133.106 45.369 133.148 45.3017C133.212 45.1981 133.181 45.0618 133.077 44.9972C129.961 43.0559 129.077 41.2342 129.115 40.9712C129.137 40.9308 129.152 40.9267 129.161 40.9241C129.452 40.8407 130.693 41.6103 132.572 42.7734C132.676 42.8377 132.812 42.8057 132.876 42.7018C132.941 42.598 132.909 42.4617 132.805 42.3975C130.2 40.7852 129.5 40.3691 129.04 40.4986C128.899 40.5387 128.79 40.6335 128.716 40.7806C128.408 41.3934 129.897 43.5375 132.843 45.3726C132.879 45.3952 132.92 45.4059 132.96 45.4059Z" fill="#292B2E"/>
<path d="M132.136 47.7407C132.21 47.7407 132.282 47.7038 132.324 47.6365C132.389 47.5329 132.357 47.3966 132.253 47.332C131.463 46.8397 130.75 46.3106 130.134 45.7595C130.043 45.6781 129.904 45.6857 129.822 45.7768C129.741 45.8679 129.748 46.0076 129.839 46.089C130.474 46.6571 131.208 47.2015 132.019 47.7072C132.056 47.7299 132.096 47.7407 132.136 47.7407Z" fill="#292B2E"/>
<path d="M125.271 45.9381C125.359 45.9381 125.442 45.8852 125.477 45.7984C126.036 44.3871 127.389 43.8024 128.375 44.0526C128.493 44.0825 128.614 44.0111 128.644 43.8926C128.674 43.7743 128.602 43.654 128.484 43.624C127.877 43.47 127.174 43.5754 126.556 43.9133C125.891 44.2773 125.361 44.8891 125.066 45.6356C125.021 45.7491 125.076 45.8777 125.19 45.9226C125.216 45.9331 125.244 45.9381 125.271 45.9381Z" fill="#292B2E"/>
<path d="M91.2341 59.8973C91.3209 59.8973 91.4033 59.8459 91.4384 59.7607C91.4852 59.6478 91.4316 59.5186 91.3187 59.4719C89.8016 58.8439 87.554 58.3855 86.4938 58.244C86.372 58.2285 86.2615 58.313 86.2454 58.434C86.2293 58.5551 86.3143 58.6663 86.4353 58.6824C87.1319 58.7753 89.4932 59.1949 91.1496 59.8805C91.1772 59.8919 91.2058 59.8973 91.2341 59.8973Z" fill="#292B2E"/>
<path d="M77.3701 60.3437C77.391 60.3437 77.412 60.3408 77.4329 60.3345C78.5141 60.0145 81.494 59.5416 83.8075 59.8416C83.9295 59.8573 84.0395 59.7719 84.0553 59.6509C84.071 59.5298 83.9856 59.4189 83.8645 59.4032C81.4852 59.0943 78.4199 59.5813 77.3075 59.9105C77.1904 59.9452 77.1235 60.0682 77.1582 60.1853C77.1867 60.2814 77.2746 60.3437 77.3701 60.3437Z" fill="#292B2E"/>
<path d="M77.9073 61.841C77.9193 61.841 77.9315 61.84 77.9437 61.8381C79.4431 61.5905 81.6602 61.3463 83.7083 61.5891C83.8298 61.6022 83.9395 61.5168 83.9539 61.3955C83.9683 61.2742 83.8815 61.1643 83.7603 61.1499C81.6605 60.9011 79.399 61.1496 77.8715 61.4018C77.751 61.4218 77.6695 61.5355 77.6894 61.6561C77.7074 61.7642 77.8011 61.841 77.9073 61.841Z" fill="#292B2E"/>
<path d="M116.155 103.214C116.266 103.214 116.362 103.131 116.375 103.018C116.815 99.1247 116.103 94.7906 114.314 90.4843C112.552 86.2412 109.818 82.2455 106.382 78.879C108.938 79.7312 114.201 82.5067 117.269 86.7797C117.34 86.879 117.478 86.9017 117.578 86.8305C117.677 86.7592 117.699 86.6211 117.628 86.522C115.673 83.7982 112.984 81.8314 111.073 80.6609C108.796 79.2668 106.703 78.4281 105.638 78.2153C105.541 78.1958 105.443 78.2431 105.398 78.331C105.353 78.419 105.371 78.5262 105.444 78.5936C109.134 82.0397 112.06 86.21 113.906 90.6539C115.666 94.8911 116.368 99.1493 115.935 102.968C115.922 103.089 116.009 103.199 116.13 103.213C116.139 103.214 116.147 103.214 116.155 103.214Z" fill="#292B2E"/>
<path d="M127.463 60.5859C127.472 60.5859 127.482 60.5854 127.492 60.584C128.081 60.5073 128.869 60.4997 129.834 60.5615C129.955 60.5697 130.061 60.4769 130.069 60.3551C130.077 60.2331 129.984 60.1281 129.862 60.1202C128.869 60.0566 128.052 60.0651 127.435 60.1456C127.313 60.1614 127.228 60.2724 127.244 60.3934C127.258 60.5049 127.353 60.5859 127.463 60.5859Z" fill="#292B2E"/>
<path d="M114.374 64.0995C114.904 64.0995 115.652 63.893 116.649 63.4766C116.762 63.4296 116.815 63.3001 116.768 63.1874C116.721 63.0747 116.591 63.0219 116.479 63.0685C114.525 63.8847 114.037 63.6565 113.918 63.5205C113.278 62.7889 114.951 59.718 117.572 56.8146C117.654 56.724 117.647 56.5842 117.556 56.5024C117.466 56.4204 117.326 56.4276 117.244 56.5183C115.195 58.7886 112.529 62.6044 113.585 63.8118C113.753 64.0032 114.013 64.0995 114.374 64.0995Z" fill="#292B2E"/>
<path d="M108.686 54.0023C108.543 54.0023 108.543 53.7812 108.686 53.7812C108.828 53.7812 108.828 54.0023 108.686 54.0023Z" fill="white"/>
<path d="M112.709 62.2287C112.811 62.2287 112.902 62.1576 112.925 62.0537C112.95 61.9343 112.874 61.8168 112.754 61.7913C111.294 61.479 110.139 60.3846 109.928 59.8854C109.881 59.7727 109.752 59.72 109.639 59.7674C109.526 59.8147 109.473 59.9443 109.521 60.057C109.803 60.7285 111.085 61.8865 112.662 62.2237C112.678 62.227 112.693 62.2287 112.709 62.2287Z" fill="white"/>
<path d="M34.7043 83.8882C34.7335 83.8882 34.7632 83.8824 34.7916 83.8701C38.9933 82.0609 45.3986 80.4227 52.3649 79.3758C59.2146 78.3464 65.931 77.9787 70.7931 78.3665C70.9153 78.3767 71.0213 78.2855 71.031 78.1637C71.0407 78.042 70.95 77.9354 70.8282 77.9257C65.9343 77.5351 59.1808 77.9041 52.2992 78.9385C45.1939 80.0063 38.9142 81.6135 34.6167 83.4639C34.5046 83.5122 34.4527 83.6423 34.501 83.7544C34.5372 83.8381 34.6187 83.8882 34.7043 83.8882Z" fill="#292B2E"/>
<path d="M104.617 106.428C104.631 106.428 104.644 106.427 104.658 106.424C105.531 106.259 106.435 105.338 107.205 103.831C107.831 102.604 109.285 99.1252 109.249 93.3328C109.218 88.2916 108.021 83.1146 105.787 78.3616C105.735 78.251 105.604 78.2034 105.493 78.2555C105.382 78.3074 105.335 78.4391 105.387 78.5497C107.593 83.2451 108.776 88.358 108.807 93.3355C108.842 99.0306 107.423 102.432 106.811 103.63C106.124 104.974 105.322 105.829 104.605 105.984C103.261 105.844 102.404 104.077 102.421 101.467C102.421 101.345 102.323 101.245 102.201 101.244H102.199C102.078 101.244 101.979 101.342 101.978 101.464C101.96 104.342 102.988 106.29 104.598 106.427C104.604 106.428 104.611 106.428 104.617 106.428Z" fill="#292B2E"/>
</g>
<defs>
<clipPath id="clip0_271_1857">
<rect width="168" height="168" fill="white" transform="matrix(-1 0 0 1 168 0)"/>
</clipPath>
</defs>
</svg>
