<svg xmlns="http://www.w3.org/2000/svg" id="Layer_1" viewBox="0 0 184 100"><defs><style>.cls-1{fill:#56575a;stroke-width:0px;}</style></defs><path class="cls-1" d="M123.87,76.54c-.08.3-.16.62-.26.97l-.3,1.05c-.1.36-.21.7-.31,1.04-.11.34-.21.64-.31.91-.11-.27-.22-.58-.34-.91s-.24-.68-.35-1.04-.22-.71-.32-1.05-.2-.67-.27-.97h-1.81c.31,1.08.68,2.15,1.1,3.2.39.95.78,1.8,1.17,2.57-.09.25-.23.49-.42.68-.19.17-.45.26-.71.24-.14.01-.29.01-.43,0-.16-.03-.32-.07-.47-.13l-.3,1.36c.18.07.37.13.56.16.24.05.49.08.74.08.28,0,.57-.03.84-.11.24-.07.45-.19.64-.35.2-.17.38-.37.53-.6.18-.28.34-.57.48-.87.45-.95.85-1.94,1.23-2.95s.73-2.1,1.08-3.26l-1.76-.03ZM118.86,76.74l-.52-.13-.61-.11-.64-.07h-.64c-.44,0-.87.07-1.29.21-.36.13-.69.33-.97.6-.27.26-.47.58-.6.93-.14.39-.21.8-.2,1.21-.05.75.19,1.48.66,2.07.5.51,1.2.78,1.91.74.21,0,.43-.02.64-.06.19-.04.38-.11.57-.19v.22c0,.29-.11.57-.31.79-.29.24-.66.36-1.04.32-.63,0-1.25-.11-1.84-.35l-.3,1.43c.33.11.67.2,1.02.26.36.06.73.1,1.1.09.84.07,1.67-.19,2.32-.71.56-.59.84-1.38.79-2.19l-.04-5.05ZM115.12,79.35c-.02-.4.1-.8.33-1.13.24-.31.62-.47,1.01-.45h.4l.3.04v2.72c-.12.07-.26.12-.39.16-.16.05-.32.07-.49.07-.77,0-1.15-.48-1.15-1.43M113.2,76.62c-.11-.04-.22-.07-.33-.09l-.39-.07-.38-.05h-.33c-.47,0-.93.04-1.39.14-.37.08-.73.19-1.08.31v5.7h1.7v-4.6c.11-.03.22-.05.34-.06.13,0,.26,0,.38,0,.22,0,.44.02.66.06l.53.12.29-1.45ZM102.45,79.57c0,.42.06.83.19,1.23.12.37.32.71.58.99.28.29.62.52,1,.66.45.17.93.25,1.41.24.21.01.43.01.64,0l.6-.09c.17-.03.34-.07.51-.12.13-.03.25-.08.37-.13l-.23-1.38c-.24.1-.49.17-.74.21-.3.06-.61.09-.92.09-.41.02-.82-.08-1.17-.31-.28-.19-.46-.49-.49-.83h3.87v-.64c.06-.83-.21-1.66-.75-2.3-.53-.54-1.27-.82-2.03-.79-.37,0-.73.07-1.07.2-.34.14-.66.34-.92.6-.28.29-.5.63-.64,1-.17.45-.25.92-.24,1.4M104.17,78.96c.02-.15.06-.29.11-.43.05-.14.12-.26.21-.37.1-.11.21-.2.35-.26.16-.07.33-.1.49-.09.17,0,.34.03.49.1.13.07.24.16.33.27.09.11.16.23.2.36.04.14.07.28.07.42h-2.25ZM96.19,82.57h1.7v-4.64l.37-.04h.39c.3-.03.6.1.79.35.18.36.25.77.22,1.17v3.19h1.7v-3.48c0-.38-.04-.76-.13-1.12-.08-.32-.22-.62-.42-.87-.21-.25-.48-.45-.79-.57-.41-.14-.84-.21-1.27-.2-.87,0-1.73.12-2.56.35v5.87ZM89.48,82.57v-7.95h5.35v1.5h-3.57v1.57h3.14v1.42h-3.14v1.91h3.83v1.5l-5.62.05Z"></path><path class="cls-1" d="M88.44,78.05l-.53-.12c-.35-.06-.7-.06-1.04,0-.11.01-.23.03-.34.06v4.6h-1.7v-5.7c.36-.12.72-.22,1.08-.31.46-.1.92-.15,1.39-.14h.33l.38.05.39.07c.11.02.22.05.33.09l-.29,1.39ZM80.89,76.38c.43-.01.85.05,1.26.17.3.1.57.27.79.49.21.22.36.49.43.79.09.33.13.68.13,1.02v3.54c-.24.05-.58.12-1.01.19-.52.08-1.05.12-1.57.11-.36,0-.71-.03-1.06-.1-.28-.06-.55-.18-.79-.34-.23-.15-.41-.37-.53-.61-.13-.29-.19-.61-.18-.93-.01-.31.06-.62.21-.9.14-.24.33-.44.57-.58.24-.15.51-.25.79-.31.31-.06.63-.1.95-.09.2-.01.39-.01.59,0,.14.01.28.04.42.07v-.16c.01-.26-.09-.51-.27-.7-.26-.2-.59-.29-.91-.26-.29,0-.57.02-.86.06-.25.04-.49.1-.73.18l-.22-1.37.37-.09.49-.09.56-.07h.59M81.03,81.38h.85v-1.3l-.31-.05h-.38c-.15,0-.3,0-.45,0-.13.02-.25.05-.37.11-.1.05-.19.13-.25.22-.07.1-.1.22-.09.35-.03.22.08.44.27.56.23.11.48.17.74.16M73.59,75.14l1.7-.27v1.78h2.05v1.41h-2.03v2.11c-.01.3.05.59.19.86.18.25.48.38.79.32.19,0,.38-.02.57-.05.18-.03.36-.08.53-.14l.24,1.33c-.22.09-.45.16-.68.22-.3.07-.62.1-.93.09-.39.01-.79-.05-1.15-.19-.28-.11-.54-.29-.73-.53-.19-.23-.32-.5-.38-.79-.08-.35-.11-.7-.11-1.06l-.05-5.09ZM69.73,76.48c.43-.01.85.05,1.26.17.3.1.57.27.79.49.21.22.36.49.43.79.09.33.13.68.13,1.02v3.54c-.25.05-.59.12-1.02.19-.52.08-1.05.12-1.57.11-.36,0-.71-.03-1.06-.1-.28-.06-.55-.18-.79-.34-.23-.15-.41-.37-.53-.61-.13-.29-.19-.61-.18-.93-.01-.31.06-.62.21-.9.14-.24.33-.44.57-.58.24-.15.51-.25.79-.31.31-.06.63-.1.95-.09.2-.01.39-.01.59,0,.14.01.28.04.42.07v-.16c.01-.26-.08-.51-.26-.7-.26-.2-.59-.3-.92-.26-.29,0-.57.02-.86.06-.25.03-.49.1-.73.18l-.22-1.37.37-.09.49-.09.56-.07h.59M69.85,81.48h.85v-1.3l-.31-.05h-.38c-.15-.01-.3-.01-.46,0-.13.02-.25.05-.37.11-.1.05-.19.13-.25.22-.07.1-.1.22-.09.35-.03.22.08.44.27.56.23.11.48.17.74.16M66.3,78.75c0,.51-.06,1.01-.2,1.5-.12.42-.32.81-.57,1.17-.24.33-.54.61-.89.83-.35.22-.73.39-1.13.48.04.15.13.28.25.37.15.11.32.18.49.24.23.07.46.11.69.13l.86.08-.37,1.3c-.51-.01-1.02-.07-1.52-.18-.38-.08-.74-.21-1.08-.39-.28-.15-.51-.36-.7-.62-.18-.26-.31-.55-.39-.85-.48-.1-.93-.29-1.34-.55-.4-.19-.76-.46-1.05-.79-.31-.36-.55-.78-.7-1.23-.17-.53-.26-1.08-.25-1.63-.01-.61.1-1.22.32-1.79.2-.49.49-.93.86-1.3.36-.35.79-.61,1.26-.79.48-.17.99-.26,1.51-.26.54,0,1.07.08,1.57.26.47.17.9.44,1.26.79.37.37.66.81.85,1.3.21.57.32,1.18.31,1.79M60.28,78.61c0,.36.04.71.14,1.05.09.29.22.55.41.79.18.22.4.4.66.52.57.24,1.21.24,1.78,0,.26-.12.48-.3.66-.52.19-.23.33-.5.42-.79.1-.34.15-.7.14-1.05,0-.36-.05-.72-.16-1.06-.09-.29-.23-.55-.42-.79-.18-.22-.4-.4-.66-.52-.28-.12-.58-.19-.89-.18-.31,0-.62.06-.9.19-.26.12-.48.3-.66.53-.18.23-.32.5-.41.79-.1.34-.15.69-.14,1.04"></path><path class="cls-1" d="M95.62,63.98v7.93h-3.48c-.3,0-.59-.05-.86-.17-.26-.13-.48-.35-.6-.62-.14.28-.37.5-.65.62-.29.12-.59.18-.9.17h-13.35v-7.11c0-.46.49-.48.5-.48h1.26v6.09h2.14v-5.95c0-.46.5-.48.5-.48h1.26v3.58c.11-.2.24-.38.39-.54.19-.21.41-.39.65-.53.26-.16.53-.28.82-.36.32-.09.66-.13.99-.13.43,0,.85.06,1.26.18.4.12.78.33,1.08.62.34.32.61.71.79,1.14.21.56.31,1.15.29,1.75v.71h1.1c.17,0,.35-.02.51-.09.12-.05.22-.14.29-.26.07-.13.12-.28.13-.42.01-.2.01-.4,0-.6v-4.58c0-.46.51-.48.52-.48h1.24v5.06c-.01.2-.01.4,0,.6.01.15.06.29.13.42.07.11.17.21.29.26.16.06.34.09.52.09h1.41v-5.95c0-.46.5-.48.51-.48h1.26ZM85.91,69.78c.04-.58-.12-1.16-.46-1.63-.38-.41-.92-.61-1.47-.57-.37,0-.73.07-1.06.23-.3.15-.57.36-.79.62-.23.27-.41.58-.53.91-.12.34-.19.69-.19,1.05h4.52l-.03-.61ZM72.77,65.49c.22,0,.43-.09.58-.25.31-.33.31-.85,0-1.18-.15-.16-.36-.25-.58-.25-.22,0-.43.09-.57.25-.32.33-.32.85,0,1.18.15.16.36.24.57.24M73.63,66.69c.29.29.52.64.65,1.03.17.51.25,1.04.24,1.57v2.58h-13.12c-.54.03-1.07-.06-1.57-.27-.35-.15-.67-.39-.91-.68-.21-.26-.35-.56-.43-.89-.07-.28-.11-.57-.11-.86-.05-.86.32-1.69.99-2.22.85-.57,1.87-.85,2.89-.79h1.9v4.19h5.11l-.11-.11c-.1-.11-.19-.23-.27-.35-.1-.16-.18-.34-.24-.52-.07-.21-.1-.44-.1-.66,0-.37.08-.73.23-1.07.15-.33.36-.63.63-.88.27-.26.59-.46.93-.6.37-.14.76-.22,1.15-.21.38,0,.76.05,1.12.16.35.1.68.29.95.54M62.42,67.65h-.46c-.3,0-.61.04-.9.14-.21.08-.4.2-.56.35-.13.13-.23.3-.28.48-.05.17-.08.35-.08.53-.03.35.11.69.38.93.29.21.64.31.99.3h.95l-.05-2.73ZM72.72,68.9c.03-.4-.08-.8-.29-1.14-.43-.49-1.18-.55-1.67-.12-.04.04-.08.08-.12.12-.24.34-.36.74-.34,1.15,0,.2.03.4.09.59.06.17.15.32.27.46.11.13.24.23.39.3.16.07.33.11.5.11h1.17v-1.47ZM70.45,65.45c.22,0,.43-.08.58-.24.33-.32.33-.85,0-1.18,0,0,0,0,0,0-.15-.16-.36-.25-.58-.24-.22,0-.43.09-.58.25-.31.33-.31.85,0,1.18.15.16.36.25.58.25M62.96,65.46c.22,0,.43-.09.58-.25.31-.33.31-.85,0-1.18-.15-.16-.36-.25-.58-.25-.22,0-.43.09-.57.25-.32.33-.32.85,0,1.18.15.16.36.24.57.24M60.68,65.46c-.22,0-.43-.09-.58-.25-.31-.33-.31-.85,0-1.18.15-.16.36-.25.58-.25.22,0,.43.08.58.24.33.32.33.85,0,1.18,0,0,0,0,0,0-.15.16-.36.25-.58.24"></path><path class="cls-1" d="M121.61,65.48c.22,0,.43-.08.58-.24.33-.32.33-.85,0-1.18h0c-.15-.16-.36-.25-.58-.24-.22,0-.43.09-.58.25-.31.33-.31.85,0,1.18.15.16.36.25.58.25M125.39,67.73c.17.51.25,1.04.24,1.57v2.58h-24.82v.38c.01.41-.05.82-.2,1.2-.11.3-.29.57-.53.79-.23.2-.49.34-.79.41-.3.08-.61.12-.92.12-.19,0-.38-.01-.57-.04-.18,0-.34-.06-.48-.1-.12-.03-.23-.07-.35-.11l-.16-.07h0l.42-1.19h0l.31.09c.17.05.35.07.53.07.25.02.5-.06.7-.2.19-.2.28-.47.25-.74v-5.66c0-.46.5-.48.51-.48h1.25v4.04h2.16v-5.95c0-.46.51-.48.51-.48h1.25v3.58c.11-.2.24-.38.39-.54.19-.21.41-.39.64-.53.26-.16.53-.28.82-.36.32-.09.66-.13.99-.13.43,0,.85.06,1.26.19.41.12.78.33,1.09.62.34.32.61.71.79,1.14.21.56.31,1.15.29,1.75v.71h9.43l-.11-.11c-.1-.11-.19-.23-.27-.35-.1-.16-.18-.34-.24-.52-.07-.22-.1-.44-.09-.67,0-.37.08-.73.23-1.07.15-.33.36-.63.63-.88.27-.26.59-.46.93-.6.37-.14.76-.22,1.15-.21.38,0,.76.05,1.12.16.36.1.68.29.95.54.29.29.52.64.65,1.03M109.23,69.78c.04-.58-.12-1.16-.46-1.63-.38-.41-.92-.62-1.47-.57-.36,0-.72.07-1.05.23-.3.15-.57.36-.79.62-.23.27-.41.58-.53.91-.12.34-.19.69-.19,1.05h4.52l-.04-.61ZM123.88,68.9c.03-.4-.08-.8-.29-1.14-.43-.49-1.18-.55-1.67-.12-.04.04-.08.08-.12.12-.24.34-.36.74-.34,1.15,0,.2.03.4.09.59.06.17.15.32.27.46.11.13.24.23.39.3.16.07.33.11.5.11h1.17v-1.47ZM123.88,65.45c-.22,0-.42-.09-.57-.24-.32-.33-.32-.85,0-1.18.15-.16.36-.25.57-.25.22,0,.43.09.58.25.31.33.31.85,0,1.18-.15.16-.36.25-.58.25"></path><path class="cls-1" d="M95.19,52.84c-.24,0-.47.07-.67.21l-.07.05-.2.15-.13.07c-.6.37-1.39.19-1.76-.41,0,0,0-.01-.01-.02h-.14c-5.39-.08-9.7-4.52-9.61-9.92.03-1.63.46-3.23,1.26-4.65v-.07c.14-.24.29-.48.46-.71l.11-.16.07-.1.07-.11.06-.1,7.57-11.23.1-.14.09-.11c.08-.09.18-.17.28-.23.46-.27,1.05-.23,1.47.1l.13.09c.54.36,1.27.21,1.63-.33.36-.54.21-1.27-.33-1.63-.43-.29-1.01-.26-1.41.08l-.22.2c-.2.22-.89.82-1.44.05-.06-.08-.1-.17-.13-.27-.12-.31.03-.66.35-.78,0,0,0,0,0,0h.07c.24-.05.46-.17.63-.35l.13-.13c.54-.41,1.3-.41,1.84,0l.1.07c.33.28.83.24,1.11-.09s.24-.83-.09-1.11c-.24-.2-.58-.24-.86-.1h-.07l-.13.09c-.54.41-1.31.37-1.8-.1l-.15-.17c-.16-.2-.37-.34-.61-.4h0c-.35-.09-.59-.42-.58-.79v-.62c-.03-.28.09-.56.31-.72l.13-.06h0c.6-.26.87-.96.61-1.55-.09-.21-.24-.39-.43-.51h-.05c-.36-.28-.58-.71-.57-1.16h0l-2.36,3.45-10.3,15.29-.1.16-.11.16c-.26.37-.51.79-.73,1.15l-.05.09c-4.26,7.56-1.58,17.14,5.98,21.4,2.25,1.27,4.79,1.96,7.38,2.02h.22c.64.02,1.17-.49,1.19-1.13.01-.43-.22-.83-.59-1.04h-.05l-.21-.13-.07-.05c-.17-.14-.28-.36-.28-.58,0-.14.01-.28.05-.41l.12-.26.13-.16.21-.18h0c.49-.32,1.13-.28,1.57.09h0l.08.05c.52.38,1.26.27,1.65-.25.38-.52.27-1.26-.25-1.65-.2-.15-.44-.23-.69-.23"></path><path class="cls-1" d="M94.28,20.11c.43,0,.79-.35.79-.79s-.35-.79-.79-.79-.79.35-.79.79.35.79.79.79M97.29,26.31c-.26,0-.51.09-.71.24l-.13.13-.17.16c-.31.33-.8.41-1.2.21l-.12-.08c-.13-.09-.28-.14-.43-.14-.43-.05-.82.26-.87.69-.05.43.26.82.69.87.25.03.49-.06.66-.24h0l.22-.18.15-.05c.33-.04.66.06.92.27l.16.13.09.08h0c.52.39,1.26.28,1.65-.24.39-.52.28-1.26-.24-1.65-.21-.15-.46-.24-.71-.24M103.03,53.05c-.11,0-.23.03-.33.08-.07.04-.14.09-.2.15l-.16.13-.15.07c-.3.1-.64.05-.9-.14l-.06-.04-.13-.12-.1-.09c-.5-.42-1.24-.35-1.66.16-.42.5-.35,1.24.16,1.66.44.36,1.07.36,1.5,0h0l.13-.12.24-.28.08-.07.21-.14c.21-.12.45-.14.68-.05h.07l.16.12c.13.11.3.17.47.17.41.13.85-.1.98-.52.13-.41-.1-.85-.52-.98-.15-.05-.31-.05-.47,0M104.28,49.89c-.33,0-.65.15-.88.39h0c-.79.75-1.3.42-1.45.32h0c-.13-.1-.29-.16-.46-.16-.43-.05-.82.26-.87.69-.05.43.26.82.69.87.25.03.49-.06.66-.24h0l.12-.1c.37-.32.93-.27,1.25.11,0,0,.01.02.02.03l.09.1h0c.43.49,1.17.54,1.66.11.49-.43.54-1.17.11-1.66-.22-.26-.55-.4-.89-.4M106.08,47.69c-.15,0-.29.05-.42.13l-.24.14c-.1.04-.2.07-.31.08-.22.02-.43-.02-.63-.11l-.15-.09-.12-.08h0c-.1-.05-.22-.08-.33-.08-.41-.13-.85.1-.98.52s.1.85.52.98c.15.05.31.05.47,0,.09,0,.19-.02.27-.05h.06l.13-.09.15-.11c.29-.21.69-.21.98,0l.12.1h0c.31.31.8.31,1.11,0,.31-.31.31-.8,0-1.11-.17-.17-.4-.25-.64-.23M100.46,37.32c.13,0,.25-.03.36-.09h0l.17-.13c.06-.06.13-.12.2-.16.35-.17.78-.11,1.07.15l.14.13.08.07.09.07c.54.36,1.27.22,1.64-.32.36-.54.22-1.27-.32-1.64-.43-.29-1.01-.26-1.41.07l-.16.17-.15.19-.14.13c-.23.23-.58.3-.87.16l-.13-.08-.11-.08c-.32-.3-.81-.28-1.11.03-.3.32-.28.81.03,1.11.17.16.4.24.63.21M101.75,32.32h0l-.13-.1c-.53-.38-1.27-.26-1.64.27s-.26,1.27.27,1.64c.41.29.96.29,1.37,0h0l.08-.05h0c.34-.39.88-.53,1.36-.35l.16.09h.05c.34.27.84.2,1.1-.14.27-.34.2-.84-.14-1.1-.17-.13-.38-.19-.59-.16-.12,0-.24.03-.35.09l-.15.09c-.38.22-.86.18-1.19-.1l-.2-.18ZM103.91,43.26l.05-.05c.89-.7,1.52-.49,1.78-.34l.14.1c.12.09.27.13.42.13.43,0,.79-.35.79-.79s-.35-.79-.79-.79c-.11,0-.23.03-.33.08h-.07l-.18.09c-.46.19-.98.15-1.41-.09l-.24-.16-.13-.11c-.18-.16-.41-.26-.65-.28h-.28c-.65.03-1.15.59-1.12,1.24s.59,1.15,1.24,1.12h0c.17,0,.33-.04.49-.11l.28-.05ZM99.39,30.91c.11,0,.22-.02.31-.07h.05l.24-.17h.05c.28-.18.64-.18.92,0l.16.13h0c.32.29.82.27,1.11-.05.29-.32.27-.82-.05-1.11-.26-.24-.66-.27-.95-.08l-.09.05-.13.09-.11.05c-.27.1-.56.1-.83,0l-.24-.13-.1-.06h0c-.36-.25-.85-.16-1.09.2s-.16.85.2,1.09c.17.11.37.16.57.13M101.24,49.64c.65,0,1.18-.53,1.18-1.18s-.53-1.18-1.18-1.18-1.18.53-1.18,1.18.53,1.18,1.18,1.18M103.54,45.4c0-.43-.35-.79-.79-.79s-.79.35-.79.79.35.79.79.79.79-.35.79-.79M99.12,52.19c.43,0,.79-.35.79-.79s-.35-.79-.79-.79-.79.35-.79.79.35.79.79.79M102.12,39.47c0,.43.35.79.79.79s.79-.35.79-.79-.35-.79-.79-.79-.79.35-.79.79M97.76,54.76c.43,0,.79-.35.79-.79s-.35-.79-.79-.79-.79.35-.79.79.35.79.79.79M97.58,33.2c0,.43.35.79.79.79s.79-.35.79-.79-.35-.79-.79-.79-.79.35-.79.79M96.8,31.38c.65,0,1.18-.53,1.18-1.18s-.53-1.18-1.18-1.18-1.18.53-1.18,1.18.53,1.18,1.18,1.18M97.67,55.42c-.65,0-1.18.53-1.18,1.18s.53,1.18,1.18,1.18,1.18-.53,1.18-1.18-.53-1.18-1.18-1.18M106,40.62c.65,0,1.18-.53,1.18-1.18s-.53-1.18-1.18-1.18-1.18.53-1.18,1.18.53,1.18,1.18,1.18M106.16,44.08c-.65,0-1.18.53-1.18,1.18s.53,1.18,1.18,1.18,1.18-.53,1.18-1.18h0c0-.65-.53-1.18-1.18-1.18M105.58,36.92c.43,0,.79-.35.79-.79s-.35-.79-.79-.79-.79.35-.79.79.35.79.79.79M95.01,56.07c-.43,0-.79.35-.79.79s.35.79.79.79.79-.35.79-.79-.35-.79-.79-.79M99.8,28.3c.43,0,.79-.35.79-.79s-.35-.79-.79-.79-.79.35-.79.79.35.79.79.79M97.72,25.31c-.43,0-.79-.35-.79-.79s.35-.79.79-.79.79.35.79.79-.35.79-.79.79"></path></svg>