<svg xmlns="http://www.w3.org/2000/svg" id="Layer_1" viewBox="0 0 184 100"><defs><style>.cls-1{fill:#56575a;stroke-width:0px;}</style></defs><path class="cls-1" d="M151.53,56.41c-3.98-1.69-5.53-4.72-4.34-8.58.68-2.22,2.14-3.64,4.49-4.05.18-.03.34-.12.51-.19.37,0,.74,0,1.11,0,2.19.44,3.93,1.46,4.77,3.64.21.55.37,1.11.56,1.66v2.43c-.63,2.54-2.03,4.37-4.66,5.08h-2.44ZM149.38,49.99c.12.71.17,1.37.36,2,.45,1.5,1.56,2.33,3,2.34,1.43.01,2.57-.82,3.04-2.29.46-1.41.43-2.83-.11-4.22-.53-1.36-1.55-2.02-3-2-1.36.02-2.38.72-2.84,2.05-.24.68-.31,1.43-.45,2.12Z"></path><path class="cls-1" d="M64.46,56.41c-2.13-.76-3.7-2.04-4.3-4.33-.78-2.95.23-6.16,2.53-7.53.74-.44,1.62-.64,2.44-.95.44,0,.89,0,1.33,0,2.88.62,4.73,2.29,5.09,5.27.47,3.93-.67,5.8-4.42,7.55h-2.67ZM69.22,50.14c-.17-.81-.24-1.59-.5-2.31-.5-1.39-1.53-2.03-2.98-2.01-1.37.02-2.37.69-2.86,2.03-.54,1.5-.56,3.04.05,4.53.51,1.25,1.48,1.92,2.84,1.93,1.35.01,2.37-.61,2.88-1.86.3-.74.4-1.55.58-2.31Z"></path><path class="cls-1" d="M25.36,44.03c1.88,0,3.77-.03,5.65-.02,2.42,0,3.78.91,4.19,2.78.45,2.02-.39,3.47-2.75,4.55,1,1.54,2,3.06,3,4.61-1.99.56-2.56.35-3.57-1.26-.45-.72-.91-1.42-1.37-2.14q-.83-1.3-2.64-1.1v4.75c-.95-.09-1.73-.16-2.51-.23v-11.93ZM29.81,45.81c-2.3.08-1.96-.24-1.99,2.05,0,.37-.08.76.03,1.1.09.27.41.66.63.66,1.03.02,2.08.01,3.09-.17.88-.16,1.38-.82,1.4-1.75.02-.96-.48-1.53-1.4-1.71-.57-.12-1.17-.12-1.76-.18Z"></path><path class="cls-1" d="M82.23,56.41c-2.6-.87-4.27-2.55-4.45-5.36-.27-4.32.96-6.05,5.11-7.45h1.11c2.48.45,4.32,1.65,5.05,4.18.67,2.32.46,4.51-.97,6.52-.84,1.18-2.11,1.68-3.42,2.12h-2.44ZM80.04,50.05l.21.06c0,.29-.02.59,0,.88.13,1.64,1.15,2.93,2.54,3.24,1.43.31,2.75-.2,3.4-1.44.97-1.85.98-3.76-.06-5.56-1.14-1.99-4.11-1.97-5.22.05-.46.83-.59,1.84-.87,2.77Z"></path><path class="cls-1" d="M53.57,43.59c.7.22,1.43.37,2.09.67,1.47.68,2.34,1.84,2.61,3.44-1.51.5-2.13.33-2.91-.74-1.19-1.63-3.83-1.58-4.92.18-1.12,1.79-1.14,3.71-.17,5.57.62,1.2,1.73,1.67,3.06,1.57,1.3-.1,2.04-.87,2.49-2.04.11-.28.49-.57.8-.63.52-.1,1.09-.03,1.62-.03.1,1.9-1.08,3.64-2.89,4.39-.37.15-.75.29-1.12.44h-2.44c-3.99-1.71-5.52-4.56-4.43-8.42.66-2.31,2.14-3.8,4.59-4.21.17-.03.34-.12.5-.19.37,0,.74,0,1.11,0Z"></path><path class="cls-1" d="M126.49,56.08h-2.22v-11.92q1.94-.4,2.95,1.21c1.19,1.9,2.38,3.81,3.58,5.72.19.3.4.58.81.82v-7.83h2.18v11.94q-1.97.31-2.92-1.21c-1.38-2.21-2.77-4.43-4.37-6.59v7.86Z"></path><path class="cls-1" d="M135.72,56.14v-12.23c2.11.11,4.19.21,6.27.35.31.02.63.21.92.37,2.19,1.14,3.15,3.72,2.59,6.95-.44,2.57-1.99,4.12-4.51,4.47-.55.07-1.11.08-1.66.09-1.18.01-2.36,0-3.62,0ZM138.06,53.93c1.7.02,3.44.41,4.44-1.34.97-1.69.93-3.51-.11-5.13-.99-1.55-2.67-1.42-4.33-1.34v7.81Z"></path><path class="cls-1" d="M93.32,51.47v4.57h-2.31v-12.13c2.45.11,4.91.09,7.33.39,1.42.18,2.26,1.48,2.36,2.85.13,1.85-.48,3.06-1.9,3.76-.26.13-.52.24-.88.4,1.01,1.58,1.99,3.11,3.09,4.83-.89,0-1.59.06-2.26-.03-.3-.04-.65-.3-.83-.56-.69-1-1.42-1.99-1.96-3.07-.58-1.15-1.41-1.35-2.62-1.01ZM93.36,49.72c1.28-.08,2.5-.06,3.67-.27.86-.15,1.37-.81,1.39-1.75.02-.95-.48-1.61-1.39-1.69-1.22-.12-2.45-.03-3.68-.03v3.73Z"></path><path class="cls-1" d="M111.21,56.28c.62-1.61,1.12-2.9,1.61-4.19.91-2.4,1.86-4.8,2.71-7.23.27-.77.71-.97,1.4-.85.71.12,1.62-.45,2.04.72,1.3,3.59,2.68,7.16,4.01,10.74.06.16.07.35.13.66-.69,0-1.33.11-1.91-.04-.31-.08-.61-.56-.75-.92-.84-2.21-.18-1.82-2.66-1.87-.22,0-.44,0-.67,0q-2.36,0-3.23,2.15c-.55,1.34-1.63.39-2.7.82ZM117.24,46.48c-.65,1.87-1.2,3.43-1.78,5.07h3.56c-.59-1.67-1.13-3.23-1.78-5.07Z"></path><path class="cls-1" d="M102.37,44.05h2.31c.02.41.07.8.07,1.19,0,2.65.02,5.3-.01,7.95,0,.75.2,1.05,1,1.02,1.55-.05,3.09-.02,4.65-.02-.11,1.74-.32,1.95-1.85,1.95-2.03,0-4.05,0-6.16,0v-12.09Z"></path><path class="cls-1" d="M39.34,46.04v2.81h5.74v1.98c-1.57,0-3.11.05-4.65-.02-.95-.04-1.2.31-1.17,1.2.07,2.28-.21,1.93,1.94,1.96,1.11.01,2.22,0,3.33,0q1.41,0,1.35,1.41c-.01.21-.07.42-.11.68h-8.81v-12h8.72v1.97h-6.33Z"></path></svg>