<svg width="68" height="9" viewBox="0 0 68 9" fill="none" xmlns="http://www.w3.org/2000/svg">
<path fill-rule="evenodd" clip-rule="evenodd" d="M32.2575 0.0228151C28.0319 0.211076 19.9183 1.94169 12.2863 4.28264C11.6708 4.47143 10.86 4.72029 10.4845 4.83567C5.42068 6.39164 2.69731 7.37286 0.791039 8.32831C0.0470779 8.70122 -0.0168374 8.74642 0.00284928 8.88575C0.0316018 9.08907 0.152643 9.05767 1.5331 8.48874C2.96159 7.90004 4.24194 7.47258 7.75339 6.41205C19.4894 2.86752 24.9709 1.5681 31.1195 0.873068C32.3244 0.736853 34.2489 0.760575 34.2489 0.911617C34.2489 1.11337 33.0418 1.80145 30.2471 3.1928C26.8089 4.90452 24.7158 6.03998 24.5305 6.29405C24.2137 6.72816 24.5621 7.04143 25.3159 7.00037C25.7467 6.97691 25.8445 6.95916 27.8194 6.54606C33.4897 5.36 37.1136 4.75804 42.025 4.18638C49.5043 3.31579 54.2697 2.99462 63.229 2.75724C66.4483 2.67197 66.6147 2.66006 67.209 2.47336C67.438 2.4014 67.7116 2.33106 67.8169 2.31704C68.0638 2.28423 68.0608 2.24226 67.8093 2.21131C67.6997 2.19781 67.448 2.13341 67.2498 2.06818C66.7611 1.90733 66.4371 1.89892 63.6462 1.97465C54.2901 2.22849 49.3672 2.55312 42.2336 3.38661C38.4819 3.82495 36.8101 4.06313 34.0782 4.54853C32.2106 4.88034 27.281 5.84636 26.5905 6.0158C26.2137 6.10826 27.8492 5.23607 30.7219 3.81259C34.3558 2.01195 35.0792 1.5229 35.0826 0.86501C35.0864 0.123143 34.4259 -0.0737484 32.2575 0.0228151Z" fill="#292B2E"/>
</svg>
