<svg xmlns="http://www.w3.org/2000/svg" id="Layer_1" viewBox="0 0 184 100"><defs><style>.cls-1{fill:#56575a;fill-rule:evenodd;stroke-width:0px;}</style></defs><path class="cls-1" d="M92.03,16.52l-38.66,66.96h77.27L92.03,16.52ZM69.72,76.28c-.22-.05-.38-.05-.49,0-.05.05-.22.16-.38.27h-.05c-.16.11-.49.22-.93.16-.33-.05-.98-.11-1.36-.16s-.55-.33-.55-.55c.05-.49.27-2.94.38-3.44.05-.65.55-1.04,1.85-.44,7.85,3.38,7.47-3.27,7.63-3.98l2.18-22.58c.6-3.87,4.58-4.58,5.23-4.58,1.15,0,1.91.16,2.13.05.22-.11.44-.65,1.42-.55,1.25.22,1.91,0,1.91.82l-.49,2.89c-.05.11-.16.87-1.64.44-4.42-1.25-4.74,1.91-4.8,2.18,0,.05-2.29,23.56-2.29,23.56-1.2,7.74-7.91,6.32-9.76,5.89ZM87.28,63.69l-2.18,12.11c-.11.33-.44.65-.82.65h-2.62c-.38,0-.6-.33-.55-.65l2.18-12.11c.11-.38.44-.65.82-.65h2.62c.38,0,.6.27.55.65ZM84.88,58.72c-.33,0-.6-.33-.55-.71l.44-2.29c.05-.33.44-.65.76-.65h2.62c.38,0,.65.33.54.65l-.38,2.29c-.05.38-.44.71-.82.71h-2.62ZM117.11,76.61c-.38.05-1.25.11-2.02-.16-.49-.16-1.96-.6-2.4-.6-.55,0-2.35.82-4.64.82-2.51,0-3.11-1.2-3.87-1.2-.38,0-2.29,1.2-3.87,1.2-3.54,0-3.87-6.16-6.49-6.16-.71,0-1.04.22-1.25.82v-.05l-.82,4.53c-.05.33-.44.66-.82.66h-2.62c-.33,0-.6-.33-.55-.65l6.33-34.63c.06-.33.44-.65.76-.65h2.62c.38,0,.65.33.54.65,0,0-4.36,24.16-4.47,24.59-.27,1.36,3.54,1.58,5.07-1.96.38-.71.76-.76,1.09-.76h2.24c.6,0,.55.76.49,1.04-.82,3.16-4.2,4.85-4.2,5.23,0,.44,1.96,2.84,2.4,3.54.44.66,2.07.27,2.07-.71,0-3.71,2.51-4.58,4.09-5.02,1.96-.44,5.4.55,5.4.55.38.16.76,0,.82-.33,0,0,.11-.76.16-1.04.05-.33-.27-1.04-2.07-.93-1.8.11-1.91.16-3.49.33-.35.03-.69.01-1.04-.05-.44,0-.71-.27-.65-.6l.33-1.42c0-.33.38-.6.82-.6h5.89s1.42-.11,2.18.22c2.13.82,1.91,2.73,1.75,3.82-.11,1.14-.76,5.83-.76,6.05-.05.49.27,1.31,1.64.82.16-.05.38.16.38.33l-.33,1.69c-.06.38-.27.6-.71.65h0ZM109.7,69.85c-1.64-.05-3,.71-3.05,1.64-.05.98,1.25,1.8,2.94,1.85,1.64.05,3-.65,3.05-1.64.05-.98-1.25-1.8-2.94-1.85ZM124.58,66.3c0-1.58,1.15-2.78,2.73-2.78s2.73,1.2,2.73,2.78-1.2,2.89-2.73,2.89-2.73-1.25-2.73-2.89ZM123.98,66.3c0,1.96,1.53,3.38,3.33,3.38s3.33-1.42,3.33-3.38c0-1.85-1.53-3.27-3.33-3.27s-3.33,1.42-3.33,3.27ZM126,68.27h.6v-1.64h.65l1.09,1.64h.6l-1.09-1.69c.6-.05,1.04-.38,1.04-1.09s-.44-1.09-1.36-1.09h-1.53v3.87h0ZM126.6,64.89h.82c.44,0,.87.05.87.6,0,.6-.49.65-1.04.65h-.65v-1.25h0Z"></path></svg>