<svg xmlns="http://www.w3.org/2000/svg" id="Layer_1" viewBox="0 0 184 100"><defs><style>.cls-1{fill:#56575a;stroke-width:0px;}</style></defs><path class="cls-1" d="M65.84,47.71c1.28,0,2.31,1.03,2.31,2.31s-1.03,2.31-2.31,2.31c-.17,0-.56-.04-.56-.09-.13-.04-.64-.13-1.03,0-.51.21-.86.73-.86,1.28s.43,1.11.86,1.28c.43.17,1.11.26,1.58.26,2.82,0,5.09-2.31,5.09-5.09s-2.31-5.09-5.09-5.09c-1.41,0-2.78.6-3.72,1.62,0,0-9.02,9.28-11.16,11.11-1.88,1.62-4.19,2.65-6.88,2.65s-5.3-1.07-7.27-2.99c-1.92-1.92-2.99-4.53-2.99-7.27,0-5.64,4.62-10.26,10.26-10.26,1.11,0,1.84.21,2.14.21.73.04,1.28-.56,1.28-1.2,0-.6-.43-1.11-.98-1.2,0,0-1.11-.21-2.39-.21-7.01,0-12.7,5.69-12.7,12.7,0,3.38,1.33,6.58,3.72,8.98s5.6,3.72,8.98,3.72,6.37-1.24,8.76-3.51l11.33-10.77c.47-.51.9-.77,1.62-.77h0ZM65.84,57.33c-1.15,0-1.67-.26-2.05-.26-.77,0-1.41.64-1.41,1.41,0,.6.43,1.15.94,1.33.56.17,1.54.3,2.48.3,5.56,0,10.13-4.53,10.13-10.13s-4.53-10.13-10.13-10.13c-2.74,0-5.39,1.11-7.27,3.08l-10.13,11.37c-1.15,1.15-2.65,1.75-4.27,1.75-3.33,0-6.07-2.74-6.07-6.07s2.74-6.07,6.07-6.07c.77,0,1.03.13,1.37.13.6,0,1.2-.51,1.2-1.2,0-.6-.38-1.11-.94-1.2-.43-.09-1.07-.17-1.58-.17-4.7,0-8.51,3.8-8.51,8.51s3.8,8.51,8.51,8.51c3.85,0,5.98-2.48,6.33-2.82l9.96-10.52c1.41-1.58,3.38-2.48,5.47-2.48,4.02,0,7.31,3.29,7.31,7.31-.09,4.06-3.38,7.35-7.4,7.35h0ZM76.53,39.33c-2.86-2.86-6.67-4.45-10.69-4.45-4.79,0-9.36,2.31-12.23,6.2,0,0-7.65,9.57-8.04,10.05s-.94.73-1.5.73c-1.03,0-1.88-.86-1.88-1.88s.86-1.88,1.88-1.88h.51c.64,0,1.2-.56,1.2-1.2,0-.51-.34-1.28-1.54-1.28-2.56,0-4.45,1.97-4.45,4.32s1.92,4.32,4.32,4.32c1.2,0,2.35-.51,3.16-1.41l8.85-10.39c2.35-3.04,5.9-4.79,9.7-4.79,3.29,0,6.37,1.28,8.72,3.59,2.31,2.31,3.59,5.43,3.59,8.72,0,6.8-5.51,12.31-12.31,12.31-1.92,0-2.56-.34-3.04-.34-.81,0-1.45.64-1.45,1.41,0,.6.34,1.07.9,1.33.47.21,2.35.43,3.55.43,8.34,0,15.13-6.8,15.13-15.13.04-4.02-1.54-7.78-4.4-10.64h0Z"></path><path class="cls-1" d="M97.9,49.76l-7.99-2.95c-.38-.17-.68-.56-.68-.98,0-.6.47-1.07,1.07-1.07h8.68v-3.16h-8.81c-2.31,0-4.23,1.88-4.23,4.23,0,1.8,1.11,3.33,2.69,3.93l7.99,2.95c.43.13.68.56.68.98,0,.6-.47,1.07-1.07,1.07h-10.34v3.16h10.43c2.31,0,4.32-1.88,4.32-4.23.09-1.8-1.15-3.33-2.74-3.93h0ZM142.27,54.77c-.6,0-1.07-.47-1.07-1.07,0-.47.3-.86.68-.98l7.99-2.95c1.58-.6,2.69-2.14,2.69-3.93,0-2.31-1.88-4.23-4.23-4.23h-8.81v3.16h8.68c.6,0,1.07.47,1.07,1.07,0,.47-.3.86-.68.98l-7.99,2.95c-1.58.6-2.78,2.14-2.78,3.93,0,2.31,1.97,4.23,4.32,4.23h10.43v-3.16h-10.3,0ZM113.84,51.35c0,2.48-1.5,3.76-3.76,3.76s-3.8-1.28-3.76-3.76v-9.75h-3.42v9.96c0,3.63,2.65,6.54,7.18,6.54s7.18-2.91,7.18-6.54v-9.96h-3.42v9.75h0ZM128.25,41.39c-4.7,0-8.42,3.76-8.42,8.38s3.72,8.38,8.42,8.38c2.91,0,5.26-1.2,7.01-3.25l-2.61-1.88c-1.2,1.37-2.65,2.18-4.36,2.18-2.44,0-4.45-1.8-4.96-4.23h13.12c.04-.38.09-.81.09-1.15-.04-4.66-3.59-8.42-8.29-8.42h0ZM123.38,48.23c.6-2.27,2.56-3.89,4.87-3.89s4.27,1.67,4.87,3.89h-9.75,0Z"></path></svg>